<svg width="681" height="570" viewBox="0 0 681 570" fill="none" xmlns="http://www.w3.org/2000/svg">
<g clip-path="url(#clip0_1_2)">
<rect width="681" height="570"/>
<circle cx="28.5" cy="28.5" r="7.5" fill="#7E7E7E"/>
<circle cx="28.5" cy="85.5" r="7.5" fill="#7E7E7E"/>
<circle cx="28.5" cy="142.5" r="7.5" fill="#7E7E7E"/>
<circle cx="28.5" cy="199.5" r="7.5" fill="#7E7E7E"/>
<circle cx="28.5" cy="256.5" r="7.5" fill="#7E7E7E"/>
<circle cx="28.5" cy="313.5" r="7.5" fill="#7E7E7E"/>
<circle cx="28.5" cy="370.5" r="7.5" fill="#7E7E7E"/>
<circle cx="28.5" cy="427.5" r="7.5" fill="#7E7E7E"/>
<circle cx="28.5" cy="484.5" r="7.5" fill="#7E7E7E"/>
<circle cx="28.5" cy="541.5" r="7.5" fill="#7E7E7E"/>
<circle cx="199.5" cy="28.5" r="7.5" fill="#7E7E7E"/>
<circle cx="199.5" cy="85.5" r="7.5" fill="#7E7E7E"/>
<circle cx="199.5" cy="142.5" r="7.5" fill="#7E7E7E"/>
<circle cx="199.5" cy="199.5" r="7.5" fill="#7E7E7E"/>
<circle cx="199.5" cy="256.5" r="7.5" fill="#7E7E7E"/>
<circle cx="199.5" cy="313.5" r="7.5" fill="#7E7E7E"/>
<circle cx="199.5" cy="370.5" r="7.5" fill="#7E7E7E"/>
<circle cx="199.5" cy="427.5" r="7.5" fill="#7E7E7E"/>
<circle cx="199.5" cy="484.5" r="7.5" fill="#7E7E7E"/>
<circle cx="199.5" cy="541.5" r="7.5" fill="#7E7E7E"/>
<circle cx="370.5" cy="28.5" r="7.5" fill="#7E7E7E"/>
<circle cx="370.5" cy="85.5" r="7.5" fill="#7E7E7E"/>
<circle cx="370.5" cy="142.5" r="7.5" fill="#7E7E7E"/>
<circle cx="370.5" cy="199.5" r="7.5" fill="#7E7E7E"/>
<circle cx="370.5" cy="256.5" r="7.5" fill="#7E7E7E"/>
<circle cx="370.5" cy="313.5" r="7.5" fill="#7E7E7E"/>
<circle cx="370.5" cy="370.5" r="7.5" fill="#7E7E7E"/>
<circle cx="370.5" cy="427.5" r="7.5" fill="#7E7E7E"/>
<circle cx="370.5" cy="484.5" r="7.5" fill="#7E7E7E"/>
<circle cx="370.5" cy="541.5" r="7.5" fill="#7E7E7E"/>
<circle cx="541.5" cy="28.5" r="7.5" fill="#7E7E7E"/>
<circle cx="541.5" cy="85.5" r="7.5" fill="#7E7E7E"/>
<circle cx="541.5" cy="142.5" r="7.5" fill="#7E7E7E"/>
<circle cx="541.5" cy="199.5" r="7.5" fill="#7E7E7E"/>
<circle cx="541.5" cy="256.5" r="7.5" fill="#7E7E7E"/>
<circle cx="541.5" cy="313.5" r="7.5" fill="#7E7E7E"/>
<circle cx="541.5" cy="370.5" r="7.5" fill="#7E7E7E"/>
<circle cx="541.5" cy="427.5" r="7.5" fill="#7E7E7E"/>
<circle cx="541.5" cy="484.5" r="7.5" fill="#7E7E7E"/>
<circle cx="541.5" cy="541.5" r="7.5" fill="#7E7E7E"/>
<circle cx="85.5" cy="28.5" r="7.5" fill="#7E7E7E"/>
<circle cx="85.5" cy="85.5" r="7.5" fill="#7E7E7E"/>
<circle cx="85.5" cy="142.5" r="7.5" fill="#7E7E7E"/>
<circle cx="85.5" cy="199.5" r="7.5" fill="#7E7E7E"/>
<circle cx="85.5" cy="256.5" r="7.5" fill="#7E7E7E"/>
<circle cx="85.5" cy="313.5" r="7.5" fill="#7E7E7E"/>
<circle cx="85.5" cy="370.5" r="7.5" fill="#7E7E7E"/>
<circle cx="85.5" cy="427.5" r="7.5" fill="#7E7E7E"/>
<circle cx="85.5" cy="484.5" r="7.5" fill="#7E7E7E"/>
<circle cx="85.5" cy="541.5" r="7.5" fill="#7E7E7E"/>
<circle cx="256.5" cy="28.5" r="7.5" fill="#7E7E7E"/>
<circle cx="256.5" cy="85.5" r="7.5" fill="#7E7E7E"/>
<circle cx="256.5" cy="142.5" r="7.5" fill="#7E7E7E"/>
<circle cx="256.5" cy="199.5" r="7.5" fill="#7E7E7E"/>
<circle cx="256.5" cy="256.5" r="7.5" fill="#7E7E7E"/>
<circle cx="256.5" cy="313.5" r="7.5" fill="#7E7E7E"/>
<circle cx="256.5" cy="370.5" r="7.5" fill="#7E7E7E"/>
<circle cx="256.5" cy="427.5" r="7.5" fill="#7E7E7E"/>
<circle cx="256.5" cy="484.5" r="7.5" fill="#7E7E7E"/>
<circle cx="256.5" cy="541.5" r="7.5" fill="#7E7E7E"/>
<circle cx="427.5" cy="28.5" r="7.5" fill="#7E7E7E"/>
<circle cx="427.5" cy="85.5" r="7.5" fill="#7E7E7E"/>
<circle cx="427.5" cy="142.5" r="7.5" fill="#7E7E7E"/>
<circle cx="427.5" cy="199.5" r="7.5" fill="#7E7E7E"/>
<circle cx="427.5" cy="256.5" r="7.5" fill="#7E7E7E"/>
<circle cx="427.5" cy="313.5" r="7.5" fill="#7E7E7E"/>
<circle cx="427.5" cy="370.5" r="7.5" fill="#7E7E7E"/>
<circle cx="427.5" cy="427.5" r="7.5" fill="#7E7E7E"/>
<circle cx="427.5" cy="484.5" r="7.5" fill="#7E7E7E"/>
<circle cx="427.5" cy="541.5" r="7.5" fill="#7E7E7E"/>
<circle cx="598.5" cy="28.5" r="7.5" fill="#7E7E7E"/>
<circle cx="598.5" cy="85.5" r="7.5" fill="#7E7E7E"/>
<circle cx="598.5" cy="142.5" r="7.5" fill="#7E7E7E"/>
<circle cx="598.5" cy="199.5" r="7.5" fill="#7E7E7E"/>
<circle cx="598.5" cy="256.5" r="7.5" fill="#7E7E7E"/>
<circle cx="598.5" cy="313.5" r="7.5" fill="#7E7E7E"/>
<circle cx="598.5" cy="370.5" r="7.5" fill="#7E7E7E"/>
<circle cx="598.5" cy="427.5" r="7.5" fill="#7E7E7E"/>
<circle cx="598.5" cy="484.5" r="7.5" fill="#7E7E7E"/>
<circle cx="598.5" cy="541.5" r="7.5" fill="#7E7E7E"/>
<circle cx="142.5" cy="28.5" r="7.5" fill="#7E7E7E"/>
<circle cx="142.5" cy="85.5" r="7.5" fill="#7E7E7E"/>
<circle cx="142.5" cy="142.5" r="7.5" fill="#7E7E7E"/>
<circle cx="142.5" cy="199.5" r="7.5" fill="#7E7E7E"/>
<circle cx="142.5" cy="256.5" r="7.5" fill="#7E7E7E"/>
<circle cx="142.5" cy="313.5" r="7.5" fill="#7E7E7E"/>
<circle cx="142.5" cy="370.5" r="7.5" fill="#7E7E7E"/>
<circle cx="142.5" cy="427.5" r="7.5" fill="#7E7E7E"/>
<circle cx="142.5" cy="484.5" r="7.5" fill="#7E7E7E"/>
<circle cx="142.5" cy="541.5" r="7.5" fill="#7E7E7E"/>
<circle cx="313.5" cy="28.5" r="7.5" fill="#7E7E7E"/>
<circle cx="313.5" cy="85.5" r="7.5" fill="#7E7E7E"/>
<circle cx="313.5" cy="142.5" r="7.5" fill="#7E7E7E"/>
<circle cx="313.5" cy="199.5" r="7.5" fill="#7E7E7E"/>
<circle cx="313.5" cy="256.5" r="7.5" fill="#7E7E7E"/>
<circle cx="313.5" cy="313.5" r="7.5" fill="#7E7E7E"/>
<circle cx="313.5" cy="370.5" r="7.5" fill="#7E7E7E"/>
<circle cx="313.5" cy="427.5" r="7.5" fill="#7E7E7E"/>
<circle cx="313.5" cy="484.5" r="7.5" fill="#7E7E7E"/>
<circle cx="313.5" cy="541.5" r="7.5" fill="#7E7E7E"/>
<circle cx="484.5" cy="28.5" r="7.5" fill="#7E7E7E"/>
<circle cx="484.5" cy="85.5" r="7.5" fill="#7E7E7E"/>
<circle cx="484.5" cy="142.5" r="7.5" fill="#7E7E7E"/>
<circle cx="484.5" cy="199.5" r="7.5" fill="#7E7E7E"/>
<circle cx="484.5" cy="256.5" r="7.5" fill="#7E7E7E"/>
<circle cx="484.5" cy="313.5" r="7.5" fill="#7E7E7E"/>
<circle cx="484.5" cy="370.5" r="7.5" fill="#7E7E7E"/>
<circle cx="484.5" cy="427.5" r="7.5" fill="#7E7E7E"/>
<circle cx="484.5" cy="484.5" r="7.5" fill="#7E7E7E"/>
<circle cx="484.5" cy="541.5" r="7.5" fill="#7E7E7E"/>
<circle cx="655.5" cy="28.5" r="7.5" fill="#7E7E7E"/>
<circle cx="655.5" cy="85.5" r="7.5" fill="#7E7E7E"/>
<circle cx="655.5" cy="142.5" r="7.5" fill="#7E7E7E"/>
<circle cx="655.5" cy="199.5" r="7.5" fill="#7E7E7E"/>
<circle cx="655.5" cy="256.5" r="7.5" fill="#7E7E7E"/>
<circle cx="655.5" cy="313.5" r="7.5" fill="#7E7E7E"/>
<circle cx="655.5" cy="370.5" r="7.5" fill="#7E7E7E"/>
<circle cx="655.5" cy="427.5" r="7.5" fill="#7E7E7E"/>
<circle cx="655.5" cy="484.5" r="7.5" fill="#7E7E7E"/>
<circle cx="655.5" cy="541.5" r="7.5" fill="#7E7E7E"/>
</g>
<defs>
<clipPath id="clip0_1_2">
<rect width="681" height="570" fill="white"/>
</clipPath>
</defs>
</svg>
