<svg width="1280" height="784" viewBox="0 0 1280 784" fill="none" xmlns="http://www.w3.org/2000/svg">
<g clip-path="url(#clip0_1037_372)">
<rect width="1280" height="784" rx="10" fill="#38393A"/>
<rect y="53" width="1280" height="731" fill="#38393A"/>
<g filter="url(#filter0_iiii_1037_372)">
<path d="M0 10C0 4.47715 4.47715 0 10 0H1270C1275.52 0 1280 4.47715 1280 10V53H0V10Z" fill="#191C1F"/>
<g clip-path="url(#clip1_1037_372)">
<path d="M1128.5 34.4736C1133.13 34.4736 1136.97 30.6304 1136.97 26.0068C1136.97 21.375 1133.12 17.54 1128.49 17.54C1123.87 17.54 1120.03 21.375 1120.03 26.0068C1120.03 30.6304 1123.88 34.4736 1128.5 34.4736ZM1128.5 33.0625C1124.58 33.0625 1121.45 29.9248 1121.45 26.0068C1121.45 22.0889 1124.57 18.9512 1128.49 18.9512C1132.41 18.9512 1135.55 22.0889 1135.56 26.0068C1135.56 29.9248 1132.42 33.0625 1128.5 33.0625ZM1128.5 21.7817C1128.14 21.7817 1127.88 22.0391 1127.88 22.4043V26.5547L1127.94 28.3062L1127.11 27.3101L1126.13 26.314C1126.01 26.2061 1125.86 26.1313 1125.69 26.1313C1125.35 26.1313 1125.09 26.397 1125.09 26.729C1125.09 26.9033 1125.14 27.0527 1125.25 27.1606L1128.02 29.9248C1128.18 30.0908 1128.33 30.1572 1128.5 30.1572C1128.68 30.1572 1128.83 30.0825 1128.99 29.9248L1131.75 27.1606C1131.86 27.0527 1131.93 26.9033 1131.93 26.729C1131.93 26.397 1131.66 26.1313 1131.32 26.1313C1131.14 26.1313 1130.99 26.1978 1130.88 26.314L1129.9 27.3101L1129.06 28.3145L1129.12 26.5547V22.4043C1129.12 22.0391 1128.87 21.7817 1128.5 21.7817Z" fill="#999C9F"/>
<path d="M1169.5 28.2646C1169.86 28.2646 1170.16 27.9658 1170.16 27.6172V19.0923L1170.11 17.8472L1170.67 18.4365L1171.92 19.7812C1172.04 19.9141 1172.21 19.9805 1172.37 19.9805C1172.72 19.9805 1172.98 19.7314 1172.98 19.3911C1172.98 19.2168 1172.91 19.084 1172.79 18.9595L1169.98 16.2534C1169.82 16.0874 1169.67 16.0293 1169.5 16.0293C1169.33 16.0293 1169.18 16.0874 1169.02 16.2534L1166.21 18.9595C1166.09 19.084 1166.01 19.2168 1166.01 19.3911C1166.01 19.7314 1166.27 19.9805 1166.61 19.9805C1166.78 19.9805 1166.95 19.9141 1167.07 19.7812L1168.33 18.4365L1168.89 17.8472L1168.84 19.0923V27.6172C1168.84 27.9658 1169.14 28.2646 1169.5 28.2646ZM1164.74 34.7642H1174.26C1175.99 34.7642 1176.86 33.9009 1176.86 32.1909V23.9067C1176.86 22.1968 1175.99 21.3335 1174.26 21.3335H1171.94V22.6699H1174.23C1175.05 22.6699 1175.53 23.1182 1175.53 23.9814V32.1162C1175.53 32.9795 1175.05 33.4277 1174.23 33.4277H1164.75C1163.92 33.4277 1163.47 32.9795 1163.47 32.1162V23.9814C1163.47 23.1182 1163.92 22.6699 1164.75 22.6699H1167.05V21.3335H1164.74C1163 21.3335 1162.13 22.1968 1162.13 23.9067V32.1909C1162.13 33.9009 1163 34.7642 1164.74 34.7642Z" fill="#999C9F"/>
<path d="M1210.5 33.0044C1210.91 33.0044 1211.25 32.6807 1211.25 32.2822V26.7622H1216.61C1217.01 26.7622 1217.35 26.4219 1217.35 26.0151C1217.35 25.6084 1217.01 25.2764 1216.61 25.2764H1211.25V19.748C1211.25 19.3496 1210.91 19.0259 1210.5 19.0259C1210.09 19.0259 1209.76 19.3496 1209.76 19.748V25.2764H1204.39C1203.99 25.2764 1203.65 25.6084 1203.65 26.0151C1203.65 26.4219 1203.99 26.7622 1204.39 26.7622H1209.76V32.2822C1209.76 32.6807 1210.09 33.0044 1210.5 33.0044Z" fill="#999C9F"/>
<path d="M1245.32 30.8711H1246.74V32.1411C1246.74 33.8511 1247.61 34.7144 1249.35 34.7144H1257.68C1259.41 34.7144 1260.28 33.8511 1260.28 32.1411V23.7407C1260.28 22.0308 1259.41 21.1675 1257.68 21.1675H1256.26V19.8975C1256.26 18.1875 1255.38 17.3242 1253.66 17.3242H1245.32C1243.58 17.3242 1242.72 18.1875 1242.72 19.8975V28.2979C1242.72 30.0078 1243.58 30.8711 1245.32 30.8711ZM1245.34 29.5347C1244.51 29.5347 1244.05 29.0864 1244.05 28.2231V19.9722C1244.05 19.1089 1244.51 18.6606 1245.34 18.6606H1253.63C1254.46 18.6606 1254.92 19.1089 1254.92 19.9722V21.1675H1249.35C1247.61 21.1675 1246.74 22.0225 1246.74 23.7407V29.5347H1245.34ZM1249.37 33.3779C1248.54 33.3779 1248.08 32.9297 1248.08 32.0664V23.8154C1248.08 22.9521 1248.54 22.5039 1249.37 22.5039H1257.66C1258.48 22.5039 1258.95 22.9521 1258.95 23.8154V32.0664C1258.95 32.9297 1258.48 33.3779 1257.66 33.3779H1249.37Z" fill="#999C9F"/>
</g>
<g clip-path="url(#clip2_1037_372)">
<path d="M153.264 32.9878L146.682 26.563C146.524 26.4053 146.441 26.2144 146.441 26.0068C146.441 25.791 146.532 25.5835 146.69 25.4507L153.264 19.0176C153.405 18.8765 153.588 18.7935 153.804 18.7935C154.235 18.7935 154.559 19.1255 154.559 19.5571C154.559 19.7563 154.476 19.9556 154.343 20.0967L148.3 26.0068L154.343 31.917C154.476 32.0581 154.559 32.249 154.559 32.4565C154.559 32.8882 154.235 33.2119 153.804 33.2119C153.588 33.2119 153.405 33.1289 153.264 32.9878Z" fill="#999C9F"/>
<path d="M180.196 33.2202C180.412 33.2202 180.595 33.1372 180.736 32.9961L187.318 26.563C187.476 26.4053 187.559 26.2144 187.559 26.0068C187.559 25.791 187.476 25.5918 187.318 25.4507L180.744 19.0259C180.595 18.8765 180.412 18.7935 180.196 18.7935C179.765 18.7935 179.441 19.1255 179.441 19.5571C179.441 19.7563 179.524 19.9556 179.657 20.0967L185.7 26.0068L179.657 31.917C179.524 32.0581 179.441 32.249 179.441 32.4565C179.441 32.8882 179.765 33.2202 180.196 33.2202Z" fill="#3D4043"/>
</g>
<path d="M101.32 33.6602H115.68C117.423 33.6602 118.287 32.7969 118.287 31.0869V20.9517C118.287 19.2417 117.423 18.3784 115.68 18.3784H101.32C99.585 18.3784 98.7134 19.2334 98.7134 20.9517V31.0869C98.7134 32.8052 99.585 33.6602 101.32 33.6602ZM101.336 32.3237C100.506 32.3237 100.05 31.8838 100.05 31.0205V21.0181C100.05 20.1548 100.506 19.7148 101.336 19.7148H105.039V32.3237H101.336ZM115.664 19.7148C116.485 19.7148 116.95 20.1548 116.95 21.0181V31.0205C116.95 31.8838 116.485 32.3237 115.664 32.3237H106.342V19.7148H115.664ZM103.437 22.7944C103.694 22.7944 103.91 22.5703 103.91 22.3296C103.91 22.0806 103.694 21.8647 103.437 21.8647H101.66C101.411 21.8647 101.187 22.0806 101.187 22.3296C101.187 22.5703 101.411 22.7944 101.66 22.7944H103.437ZM103.437 24.9443C103.694 24.9443 103.91 24.7202 103.91 24.4712C103.91 24.2222 103.694 24.0146 103.437 24.0146H101.66C101.411 24.0146 101.187 24.2222 101.187 24.4712C101.187 24.7202 101.411 24.9443 101.66 24.9443H103.437ZM103.437 27.0859C103.694 27.0859 103.91 26.8784 103.91 26.6294C103.91 26.3804 103.694 26.1646 103.437 26.1646H101.66C101.411 26.1646 101.187 26.3804 101.187 26.6294C101.187 26.8784 101.411 27.0859 101.66 27.0859H103.437Z" fill="#999C9F"/>
<g filter="url(#filter1_i_1037_372)">
<path fill-rule="evenodd" clip-rule="evenodd" d="M27 32C30.3137 32 33 29.3137 33 26C33 22.6863 30.3137 20 27 20C23.6863 20 21 22.6863 21 26C21 29.3137 23.6863 32 27 32Z" fill="#EE6A5F"/>
</g>
<path d="M32.75 26C32.75 29.1756 30.1756 31.75 27 31.75C23.8244 31.75 21.25 29.1756 21.25 26C21.25 22.8244 23.8244 20.25 27 20.25C30.1756 20.25 32.75 22.8244 32.75 26Z" stroke="#CE5347" stroke-width="0.5"/>
<g filter="url(#filter2_i_1037_372)">
<path fill-rule="evenodd" clip-rule="evenodd" d="M47 32C50.3137 32 53 29.3137 53 26C53 22.6863 50.3137 20 47 20C43.6863 20 41 22.6863 41 26C41 29.3137 43.6863 32 47 32Z" fill="#F5BD4F"/>
</g>
<path d="M52.75 26C52.75 29.1756 50.1756 31.75 47 31.75C43.8244 31.75 41.25 29.1756 41.25 26C41.25 22.8244 43.8244 20.25 47 20.25C50.1756 20.25 52.75 22.8244 52.75 26Z" stroke="#D6A243" stroke-width="0.5"/>
<g filter="url(#filter3_i_1037_372)">
<path fill-rule="evenodd" clip-rule="evenodd" d="M67 32C70.3137 32 73 29.3137 73 26C73 22.6863 70.3137 20 67 20C63.6863 20 61 22.6863 61 26C61 29.3137 63.6863 32 67 32Z" fill="#61C454"/>
</g>
<path d="M72.75 26C72.75 29.1756 70.1756 31.75 67 31.75C63.8244 31.75 61.25 29.1756 61.25 26C61.25 22.8244 63.8244 20.25 67 20.25C70.1756 20.25 72.75 22.8244 72.75 26Z" stroke="#58A942" stroke-width="0.5"/>
<g clip-path="url(#clip3_1037_372)">
<path d="M356.5 34.6147C356.633 34.6147 356.849 34.5649 357.056 34.4487C361.779 31.8008 363.398 30.6802 363.398 27.6504V21.3003C363.398 20.4287 363.024 20.1548 362.319 19.856C361.339 19.4492 358.177 18.312 357.197 17.9717C356.973 17.897 356.732 17.8472 356.5 17.8472C356.268 17.8472 356.027 17.9136 355.811 17.9717C354.832 18.2539 351.661 19.4575 350.681 19.856C349.984 20.1465 349.602 20.4287 349.602 21.3003V27.6504C349.602 30.6802 351.229 31.7925 355.944 34.4487C356.16 34.5649 356.367 34.6147 356.5 34.6147ZM356.832 19.2583C358.085 19.7563 360.518 20.6362 361.804 21.0762C362.028 21.1592 362.078 21.2754 362.078 21.5576V27.3433C362.078 29.9082 360.85 30.5806 357.015 32.9131C356.774 33.0625 356.641 33.104 356.508 33.1123V19.1836C356.591 19.1836 356.699 19.2085 356.832 19.2583Z" fill="#999C9F"/>
<rect x="382" y="12" width="516" height="28" rx="6" fill="#0C0F12"/>
<g clip-path="url(#clip4_1037_372)">
<path d="M585.211 31.7158H590.789C591.545 31.7158 591.914 31.3408 591.914 30.5205V26.2197C591.914 25.4814 591.609 25.1006 590.982 25.0361V23.5596C590.982 21.3506 589.535 20.2842 588 20.2842C586.465 20.2842 585.018 21.3506 585.018 23.5596V25.0654C584.443 25.1533 584.086 25.5283 584.086 26.2197V30.5205C584.086 31.3408 584.455 31.7158 585.211 31.7158ZM585.961 23.4365C585.961 21.9658 586.904 21.1865 588 21.1865C589.096 21.1865 590.039 21.9658 590.039 23.4365V25.0303L585.961 25.0361V23.4365Z" fill="#DBDBDC"/>
<path d="M599.552 22.719C599.327 22.719 599.136 22.641 598.98 22.485C598.833 22.329 598.759 22.1383 598.759 21.913C598.759 21.6877 598.833 21.497 598.98 21.341C599.136 21.185 599.327 21.107 599.552 21.107C599.777 21.107 599.964 21.185 600.111 21.341C600.267 21.497 600.345 21.6877 600.345 21.913C600.345 22.1383 600.267 22.329 600.111 22.485C599.964 22.641 599.777 22.719 599.552 22.719ZM600.137 32.547C600.137 33.1797 599.977 33.6433 599.656 33.938C599.335 34.2327 598.867 34.38 598.252 34.38H597.563V33.379H598.057C598.386 33.379 598.616 33.314 598.746 33.184C598.885 33.054 598.954 32.833 598.954 32.521V23.876H600.137V32.547ZM601.646 27.412C601.646 26.684 601.793 26.047 602.088 25.501C602.382 24.9463 602.785 24.5173 603.297 24.214C603.817 23.9107 604.393 23.759 605.026 23.759C605.65 23.759 606.191 23.8933 606.651 24.162C607.11 24.4307 607.452 24.7687 607.678 25.176V23.876H608.874V31H607.678V29.674C607.444 30.09 607.093 30.4367 606.625 30.714C606.165 30.9827 605.628 31.117 605.013 31.117C604.38 31.117 603.808 30.961 603.297 30.649C602.785 30.337 602.382 29.8993 602.088 29.336C601.793 28.7727 601.646 28.1313 601.646 27.412ZM607.678 27.425C607.678 26.8877 607.569 26.4197 607.353 26.021C607.136 25.6223 606.841 25.319 606.469 25.111C606.105 24.8943 605.702 24.786 605.26 24.786C604.818 24.786 604.415 24.89 604.051 25.098C603.687 25.306 603.396 25.6093 603.18 26.008C602.963 26.4067 602.855 26.8747 602.855 27.412C602.855 27.958 602.963 28.4347 603.18 28.842C603.396 29.2407 603.687 29.5483 604.051 29.765C604.415 29.973 604.818 30.077 605.26 30.077C605.702 30.077 606.105 29.973 606.469 29.765C606.841 29.5483 607.136 29.2407 607.353 28.842C607.569 28.4347 607.678 27.9623 607.678 27.425ZM619.388 23.746C619.942 23.746 620.436 23.863 620.87 24.097C621.303 24.3223 621.645 24.6647 621.897 25.124C622.148 25.5833 622.274 26.1423 622.274 26.801V31H621.104V26.97C621.104 26.2593 620.926 25.7177 620.571 25.345C620.224 24.9637 619.752 24.773 619.154 24.773C618.538 24.773 618.049 24.9723 617.685 25.371C617.321 25.761 617.139 26.3287 617.139 27.074V31H615.969V26.97C615.969 26.2593 615.791 25.7177 615.436 25.345C615.089 24.9637 614.617 24.773 614.019 24.773C613.403 24.773 612.914 24.9723 612.55 25.371C612.186 25.761 612.004 26.3287 612.004 27.074V31H610.821V23.876H612.004V24.903C612.238 24.5303 612.55 24.2443 612.94 24.045C613.338 23.8457 613.776 23.746 614.253 23.746C614.851 23.746 615.379 23.8803 615.839 24.149C616.298 24.4177 616.64 24.812 616.866 25.332C617.065 24.8293 617.394 24.4393 617.854 24.162C618.313 23.8847 618.824 23.746 619.388 23.746ZM623.72 27.412C623.72 26.684 623.868 26.047 624.162 25.501C624.457 24.9463 624.86 24.5173 625.371 24.214C625.891 23.9107 626.468 23.759 627.1 23.759C627.724 23.759 628.266 23.8933 628.725 24.162C629.185 24.4307 629.527 24.7687 629.752 25.176V23.876H630.948V31H629.752V29.674C629.518 30.09 629.167 30.4367 628.699 30.714C628.24 30.9827 627.703 31.117 627.087 31.117C626.455 31.117 625.883 30.961 625.371 30.649C624.86 30.337 624.457 29.8993 624.162 29.336C623.868 28.7727 623.72 28.1313 623.72 27.412ZM629.752 27.425C629.752 26.8877 629.644 26.4197 629.427 26.021C629.211 25.6223 628.916 25.319 628.543 25.111C628.179 24.8943 627.776 24.786 627.334 24.786C626.892 24.786 626.489 24.89 626.125 25.098C625.761 25.306 625.471 25.6093 625.254 26.008C625.038 26.4067 624.929 26.8747 624.929 27.412C624.929 27.958 625.038 28.4347 625.254 28.842C625.471 29.2407 625.761 29.5483 626.125 29.765C626.489 29.973 626.892 30.077 627.334 30.077C627.776 30.077 628.179 29.973 628.543 29.765C628.916 29.5483 629.211 29.2407 629.427 28.842C629.644 28.4347 629.752 27.9623 629.752 27.425ZM634.079 21.38V31H632.896V21.38H634.079ZM636.654 22.719C636.428 22.719 636.238 22.641 636.082 22.485C635.926 22.329 635.848 22.1383 635.848 21.913C635.848 21.6877 635.926 21.497 636.082 21.341C636.238 21.185 636.428 21.107 636.654 21.107C636.87 21.107 637.052 21.185 637.2 21.341C637.356 21.497 637.434 21.6877 637.434 21.913C637.434 22.1383 637.356 22.329 637.2 22.485C637.052 22.641 636.87 22.719 636.654 22.719ZM637.226 23.876V31H636.043V23.876H637.226ZM640.373 25.189C640.607 24.7817 640.954 24.4437 641.413 24.175C641.881 23.8977 642.423 23.759 643.038 23.759C643.671 23.759 644.243 23.9107 644.754 24.214C645.274 24.5173 645.681 24.9463 645.976 25.501C646.271 26.047 646.418 26.684 646.418 27.412C646.418 28.1313 646.271 28.7727 645.976 29.336C645.681 29.8993 645.274 30.337 644.754 30.649C644.243 30.961 643.671 31.117 643.038 31.117C642.431 31.117 641.894 30.9827 641.426 30.714C640.967 30.4367 640.616 30.0943 640.373 29.687V34.38H639.19V23.876H640.373V25.189ZM645.209 27.412C645.209 26.8747 645.101 26.4067 644.884 26.008C644.667 25.6093 644.373 25.306 644 25.098C643.636 24.89 643.233 24.786 642.791 24.786C642.358 24.786 641.955 24.8943 641.582 25.111C641.218 25.319 640.923 25.6267 640.698 26.034C640.481 26.4327 640.373 26.8963 640.373 27.425C640.373 27.9623 640.481 28.4347 640.698 28.842C640.923 29.2407 641.218 29.5483 641.582 29.765C641.955 29.973 642.358 30.077 642.791 30.077C643.233 30.077 643.636 29.973 644 29.765C644.373 29.5483 644.667 29.2407 644.884 28.842C645.101 28.4347 645.209 27.958 645.209 27.412ZM647.481 27.412C647.481 26.684 647.628 26.047 647.923 25.501C648.218 24.9463 648.621 24.5173 649.132 24.214C649.652 23.9107 650.228 23.759 650.861 23.759C651.485 23.759 652.027 23.8933 652.486 24.162C652.945 24.4307 653.288 24.7687 653.513 25.176V23.876H654.709V31H653.513V29.674C653.279 30.09 652.928 30.4367 652.46 30.714C652.001 30.9827 651.463 31.117 650.848 31.117C650.215 31.117 649.643 30.961 649.132 30.649C648.621 30.337 648.218 29.8993 647.923 29.336C647.628 28.7727 647.481 28.1313 647.481 27.412ZM653.513 27.425C653.513 26.8877 653.405 26.4197 653.188 26.021C652.971 25.6223 652.677 25.319 652.304 25.111C651.94 24.8943 651.537 24.786 651.095 24.786C650.653 24.786 650.25 24.89 649.886 25.098C649.522 25.306 649.232 25.6093 649.015 26.008C648.798 26.4067 648.69 26.8747 648.69 27.412C648.69 27.958 648.798 28.4347 649.015 28.842C649.232 29.2407 649.522 29.5483 649.886 29.765C650.25 29.973 650.653 30.077 651.095 30.077C651.537 30.077 651.94 29.973 652.304 29.765C652.677 29.5483 652.971 29.2407 653.188 28.842C653.405 28.4347 653.513 27.9623 653.513 27.425ZM662.792 23.876L658.502 34.354H657.28L658.684 30.922L655.811 23.876H657.124L659.36 29.648L661.57 23.876H662.792ZM664.306 31.078C664.081 31.078 663.89 31 663.734 30.844C663.578 30.688 663.5 30.4973 663.5 30.272C663.5 30.0467 663.578 29.856 663.734 29.7C663.89 29.544 664.081 29.466 664.306 29.466C664.523 29.466 664.705 29.544 664.852 29.7C665.008 29.856 665.086 30.0467 665.086 30.272C665.086 30.4973 665.008 30.688 664.852 30.844C664.705 31 664.523 31.078 664.306 31.078ZM666.165 27.425C666.165 26.6883 666.312 26.047 666.607 25.501C666.902 24.9463 667.309 24.5173 667.829 24.214C668.358 23.9107 668.96 23.759 669.636 23.759C670.511 23.759 671.231 23.9713 671.794 24.396C672.366 24.8207 672.743 25.41 672.925 26.164H671.651C671.53 25.7307 671.291 25.3883 670.936 25.137C670.589 24.8857 670.156 24.76 669.636 24.76C668.96 24.76 668.414 24.994 667.998 25.462C667.582 25.9213 667.374 26.5757 667.374 27.425C667.374 28.283 667.582 28.946 667.998 29.414C668.414 29.882 668.96 30.116 669.636 30.116C670.156 30.116 670.589 29.9947 670.936 29.752C671.283 29.5093 671.521 29.1627 671.651 28.712H672.925C672.734 29.44 672.353 30.025 671.781 30.467C671.209 30.9003 670.494 31.117 669.636 31.117C668.96 31.117 668.358 30.9653 667.829 30.662C667.309 30.3587 666.902 29.9297 666.607 29.375C666.312 28.8203 666.165 28.1703 666.165 27.425ZM677.558 31.117C676.891 31.117 676.284 30.9653 675.738 30.662C675.201 30.3587 674.776 29.9297 674.464 29.375C674.161 28.8117 674.009 28.1617 674.009 27.425C674.009 26.697 674.165 26.0557 674.477 25.501C674.798 24.9377 675.231 24.5087 675.777 24.214C676.323 23.9107 676.934 23.759 677.61 23.759C678.286 23.759 678.897 23.9107 679.443 24.214C679.989 24.5087 680.418 24.9333 680.73 25.488C681.051 26.0427 681.211 26.6883 681.211 27.425C681.211 28.1617 681.047 28.8117 680.717 29.375C680.397 29.9297 679.959 30.3587 679.404 30.662C678.85 30.9653 678.234 31.117 677.558 31.117ZM677.558 30.077C677.983 30.077 678.382 29.9773 678.754 29.778C679.127 29.5787 679.426 29.2797 679.651 28.881C679.885 28.4823 680.002 27.997 680.002 27.425C680.002 26.853 679.89 26.3677 679.664 25.969C679.439 25.5703 679.144 25.2757 678.78 25.085C678.416 24.8857 678.022 24.786 677.597 24.786C677.164 24.786 676.765 24.8857 676.401 25.085C676.046 25.2757 675.76 25.5703 675.543 25.969C675.327 26.3677 675.218 26.853 675.218 27.425C675.218 28.0057 675.322 28.4953 675.53 28.894C675.747 29.2927 676.033 29.5917 676.388 29.791C676.744 29.9817 677.134 30.077 677.558 30.077ZM691.282 23.746C691.837 23.746 692.331 23.863 692.764 24.097C693.197 24.3223 693.54 24.6647 693.791 25.124C694.042 25.5833 694.168 26.1423 694.168 26.801V31H692.998V26.97C692.998 26.2593 692.82 25.7177 692.465 25.345C692.118 24.9637 691.646 24.773 691.048 24.773C690.433 24.773 689.943 24.9723 689.579 25.371C689.215 25.761 689.033 26.3287 689.033 27.074V31H687.863V26.97C687.863 26.2593 687.685 25.7177 687.33 25.345C686.983 24.9637 686.511 24.773 685.913 24.773C685.298 24.773 684.808 24.9723 684.444 25.371C684.08 25.761 683.898 26.3287 683.898 27.074V31H682.715V23.876H683.898V24.903C684.132 24.5303 684.444 24.2443 684.834 24.045C685.233 23.8457 685.67 23.746 686.147 23.746C686.745 23.746 687.274 23.8803 687.733 24.149C688.192 24.4177 688.535 24.812 688.76 25.332C688.959 24.8293 689.289 24.4393 689.748 24.162C690.207 23.8847 690.719 23.746 691.282 23.746Z" fill="white"/>
</g>
<path d="M886.283 25.6152C886.43 25.6152 886.541 25.5684 886.623 25.4805L889.037 23.0547C889.143 22.9551 889.184 22.8379 889.184 22.7031C889.184 22.5742 889.131 22.4453 889.037 22.3516L886.623 19.9023C886.541 19.8086 886.424 19.7617 886.283 19.7617C886.02 19.7617 885.82 19.9727 885.82 20.2422C885.82 20.3652 885.867 20.4824 885.949 20.5762L887.514 22.1113C887.18 22.0527 886.84 22.0176 886.5 22.0176C883.629 22.0176 881.32 24.3203 881.32 27.1914C881.32 30.0684 883.629 32.377 886.5 32.377C889.371 32.377 891.674 30.0684 891.674 27.1914C891.674 26.9102 891.475 26.7051 891.188 26.7051C890.912 26.7051 890.73 26.9102 890.73 27.1914C890.73 29.5469 888.85 31.4336 886.5 31.4336C884.15 31.4336 882.264 29.5469 882.264 27.1914C882.264 24.8418 884.15 22.9609 886.5 22.9609C886.945 22.9609 887.355 22.9961 887.707 23.0723L885.955 24.8125C885.867 24.9062 885.82 25.0234 885.82 25.1465C885.82 25.416 886.02 25.6152 886.283 25.6152Z" fill="#DBDBDC"/>
</g>
</g>
</g>
<rect x="0.25" y="0.25" width="1279.5" height="783.5" rx="9.75" stroke="#070707" stroke-width="0.5"/>
<defs>
<filter id="filter0_iiii_1037_372" x="0" y="0" width="1280" height="53" filterUnits="userSpaceOnUse" color-interpolation-filters="sRGB">
<feFlood flood-opacity="0" result="BackgroundImageFix"/>
<feBlend mode="normal" in="SourceGraphic" in2="BackgroundImageFix" result="shape"/>
<feColorMatrix in="SourceAlpha" type="matrix" values="0 0 0 0 0 0 0 0 0 0 0 0 0 0 0 0 0 0 127 0" result="hardAlpha"/>
<feOffset dx="1"/>
<feComposite in2="hardAlpha" operator="arithmetic" k2="-1" k3="1"/>
<feColorMatrix type="matrix" values="0 0 0 0 0.278431 0 0 0 0 0.286275 0 0 0 0 0.298039 0 0 0 1 0"/>
<feBlend mode="normal" in2="shape" result="effect1_innerShadow_1037_372"/>
<feColorMatrix in="SourceAlpha" type="matrix" values="0 0 0 0 0 0 0 0 0 0 0 0 0 0 0 0 0 0 127 0" result="hardAlpha"/>
<feOffset dx="-1"/>
<feComposite in2="hardAlpha" operator="arithmetic" k2="-1" k3="1"/>
<feColorMatrix type="matrix" values="0 0 0 0 0.278431 0 0 0 0 0.286275 0 0 0 0 0.294118 0 0 0 1 0"/>
<feBlend mode="normal" in2="effect1_innerShadow_1037_372" result="effect2_innerShadow_1037_372"/>
<feColorMatrix in="SourceAlpha" type="matrix" values="0 0 0 0 0 0 0 0 0 0 0 0 0 0 0 0 0 0 127 0" result="hardAlpha"/>
<feOffset dy="1"/>
<feComposite in2="hardAlpha" operator="arithmetic" k2="-1" k3="1"/>
<feColorMatrix type="matrix" values="0 0 0 0 1 0 0 0 0 1 0 0 0 0 1 0 0 0 0.4 0"/>
<feBlend mode="normal" in2="effect2_innerShadow_1037_372" result="effect3_innerShadow_1037_372"/>
<feColorMatrix in="SourceAlpha" type="matrix" values="0 0 0 0 0 0 0 0 0 0 0 0 0 0 0 0 0 0 127 0" result="hardAlpha"/>
<feOffset dy="0.5"/>
<feComposite in2="hardAlpha" operator="arithmetic" k2="-1" k3="1"/>
<feColorMatrix type="matrix" values="0 0 0 0 1 0 0 0 0 1 0 0 0 0 1 0 0 0 0.4 0"/>
<feBlend mode="normal" in2="effect3_innerShadow_1037_372" result="effect4_innerShadow_1037_372"/>
</filter>
<filter id="filter1_i_1037_372" x="21" y="20" width="12" height="12" filterUnits="userSpaceOnUse" color-interpolation-filters="sRGB">
<feFlood flood-opacity="0" result="BackgroundImageFix"/>
<feBlend mode="normal" in="SourceGraphic" in2="BackgroundImageFix" result="shape"/>
<feColorMatrix in="SourceAlpha" type="matrix" values="0 0 0 0 0 0 0 0 0 0 0 0 0 0 0 0 0 0 127 0" result="hardAlpha"/>
<feOffset/>
<feGaussianBlur stdDeviation="3"/>
<feComposite in2="hardAlpha" operator="arithmetic" k2="-1" k3="1"/>
<feColorMatrix type="matrix" values="0 0 0 0 0.92549 0 0 0 0 0.427451 0 0 0 0 0.384314 0 0 0 1 0"/>
<feBlend mode="normal" in2="shape" result="effect1_innerShadow_1037_372"/>
</filter>
<filter id="filter2_i_1037_372" x="41" y="20" width="12" height="12" filterUnits="userSpaceOnUse" color-interpolation-filters="sRGB">
<feFlood flood-opacity="0" result="BackgroundImageFix"/>
<feBlend mode="normal" in="SourceGraphic" in2="BackgroundImageFix" result="shape"/>
<feColorMatrix in="SourceAlpha" type="matrix" values="0 0 0 0 0 0 0 0 0 0 0 0 0 0 0 0 0 0 127 0" result="hardAlpha"/>
<feOffset/>
<feGaussianBlur stdDeviation="3"/>
<feComposite in2="hardAlpha" operator="arithmetic" k2="-1" k3="1"/>
<feColorMatrix type="matrix" values="0 0 0 0 0.960784 0 0 0 0 0.768627 0 0 0 0 0.317647 0 0 0 1 0"/>
<feBlend mode="normal" in2="shape" result="effect1_innerShadow_1037_372"/>
</filter>
<filter id="filter3_i_1037_372" x="61" y="20" width="12" height="12" filterUnits="userSpaceOnUse" color-interpolation-filters="sRGB">
<feFlood flood-opacity="0" result="BackgroundImageFix"/>
<feBlend mode="normal" in="SourceGraphic" in2="BackgroundImageFix" result="shape"/>
<feColorMatrix in="SourceAlpha" type="matrix" values="0 0 0 0 0 0 0 0 0 0 0 0 0 0 0 0 0 0 127 0" result="hardAlpha"/>
<feOffset/>
<feGaussianBlur stdDeviation="3"/>
<feComposite in2="hardAlpha" operator="arithmetic" k2="-1" k3="1"/>
<feColorMatrix type="matrix" values="0 0 0 0 0.407843 0 0 0 0 0.8 0 0 0 0 0.345098 0 0 0 1 0"/>
<feBlend mode="normal" in2="shape" result="effect1_innerShadow_1037_372"/>
</filter>
<clipPath id="clip0_1037_372">
<rect width="1280" height="784" rx="10" fill="white"/>
</clipPath>
<clipPath id="clip1_1037_372">
<rect width="156" height="28" fill="white" transform="translate(1112 12)"/>
</clipPath>
<clipPath id="clip2_1037_372">
<rect width="66" height="28" fill="white" transform="translate(134 12)"/>
</clipPath>
<clipPath id="clip3_1037_372">
<rect width="600" height="28" fill="white" transform="translate(340 12)"/>
</clipPath>
<clipPath id="clip4_1037_372">
<rect x="584.086" y="16" width="111.828" height="20" fill="white"/>
</clipPath>
</defs>
</svg>
