<svg width="96" height="96" viewBox="0 0 96 96" fill="none" xmlns="http://www.w3.org/2000/svg">
<circle cx="48" cy="48" r="47" fill="white" stroke="white" stroke-width="2"/>
<path d="M37.4496 30.4617C38.8827 30.4608 40.257 29.8915 41.2709 28.8787C42.2848 27.8658 42.8555 26.4922 42.858 25.059C42.8558 23.6257 42.2852 22.2518 41.2713 21.2387C40.2573 20.2256 38.8829 19.6561 37.4496 19.6552C36.0163 19.6561 34.6418 20.2256 33.6279 21.2387C32.6139 22.2518 32.0433 23.6257 32.0412 25.059C32.0436 26.492 32.6142 27.8654 33.6279 28.8783C34.6415 29.8911 36.0155 30.4605 37.4484 30.4617" fill="#00AC69"/>
<path d="M39.2287 43.0645C40.4394 43.0636 41.6003 42.5825 42.4567 41.7267C43.3131 40.8709 43.7951 39.7104 43.7969 38.4997C43.7969 35.9816 41.7479 33.9348 39.2275 33.9348C38.0165 33.9354 36.8552 34.4164 35.9983 35.2721C35.1415 36.1279 34.6591 37.2887 34.657 38.4997C34.6591 39.7107 35.1415 40.8714 35.9983 41.7272C36.8552 42.583 38.0165 43.0639 39.2275 43.0645" fill="#00AC69"/>
<path d="M27.3479 40.4872C28.9907 40.4863 30.5662 39.8339 31.7286 38.6729C32.891 37.512 33.5455 35.9374 33.5485 34.2945C33.5455 32.6517 32.891 31.0771 31.7286 29.9161C30.5662 28.7552 28.9907 28.1027 27.3479 28.1018C25.7052 28.103 24.13 28.7556 22.9679 29.9165C21.8057 31.0774 21.1513 32.6519 21.1483 34.2945C21.1483 37.7096 23.9305 40.4872 27.3479 40.4872Z" fill="#00AC69"/>
<path d="M28.1411 46.8507C28.1411 44.3349 26.0909 42.2858 23.5705 42.2858C22.3597 42.2864 21.1986 42.7672 20.3418 43.6228C19.4849 44.4783 19.0024 45.6387 19 46.8495C19 49.3676 21.0491 51.4144 23.5705 51.4144C24.7814 51.4138 25.9427 50.9328 26.7993 50.077C27.656 49.2212 28.1381 48.0604 28.1399 46.8495" fill="#00AC69"/>
<path d="M48.2197 24.3522C49.3278 24.3519 50.3904 23.9119 51.1744 23.1288C51.9583 22.3457 52.3994 21.2836 52.401 20.1755C52.3991 19.0677 51.9579 18.0058 51.174 17.223C50.3901 16.4401 49.3276 16.0003 48.2197 16C47.112 16.0006 46.0497 16.4405 45.2658 17.2233C44.482 18.0061 44.0406 19.0678 44.0385 20.1755C44.0403 21.2835 44.4816 22.3455 45.2654 23.1285C46.0493 23.9115 47.1118 24.3516 48.2197 24.3522Z" fill="#00AC69"/>
<path d="M40.8611 54.2994C40.8381 53.4101 40.4687 52.565 39.8316 51.9442C39.1945 51.3233 38.3401 50.9759 37.4505 50.9759C36.5609 50.9759 35.7066 51.3233 35.0695 51.9442C34.4324 52.565 34.063 53.4101 34.04 54.2994C34.0418 55.2033 34.402 56.0695 35.0415 56.7082C35.6811 57.3469 36.5478 57.7059 37.4517 57.7065C38.3552 57.7056 39.2215 57.3465 39.8607 56.7078C40.4998 56.0691 40.8596 55.203 40.8611 54.2994Z" fill="#00AC69"/>
<path d="M45.2736 30.1592C45.2736 31.7871 46.5941 33.1076 48.2254 33.1076C49.0079 33.1079 49.7584 32.7975 50.3121 32.2446C50.8659 31.6918 51.1774 30.9417 51.1783 30.1592C51.1783 28.5302 49.8567 27.2097 48.2254 27.2097C47.4429 27.2094 46.6923 27.5198 46.1386 28.0726C45.5849 28.6255 45.2734 29.3756 45.2725 30.1581" fill="#00AC69"/>
<path d="M38.7688 60.2518C37.9863 60.2518 37.2359 60.5624 36.6824 61.1155C36.1289 61.6686 35.8176 62.4188 35.817 63.2013C35.817 64.8303 37.1387 66.1508 38.7688 66.1508C39.5513 66.1511 40.3018 65.8407 40.8556 65.2878C41.4093 64.735 41.7208 63.9849 41.7217 63.2024C41.7217 61.5723 40.4001 60.2518 38.7688 60.2518Z" fill="#00AC69"/>
<path d="M29.9134 46.0207C29.9134 47.6497 31.235 48.9703 32.8663 48.9703C33.2605 48.9812 33.653 48.913 34.0204 48.7697C34.3878 48.6264 34.7228 48.4109 35.0055 48.1359C35.2882 47.861 35.513 47.5321 35.6664 47.1688C35.8199 46.8055 35.8989 46.4151 35.8989 46.0207C35.8989 45.6264 35.8199 45.236 35.6664 44.8727C35.513 44.5094 35.2882 44.1805 35.0055 43.9055C34.7228 43.6306 34.3878 43.4151 34.0204 43.2718C33.653 43.1285 33.2605 43.0603 32.8663 43.0712C32.0836 43.0709 31.3329 43.3815 30.7792 43.9346C30.2254 44.4877 29.914 45.2381 29.9134 46.0207Z" fill="#00AC69"/>
<path d="M60.5618 32.5188C62.2681 32.5178 63.9043 31.8402 65.1116 30.6344C66.3188 29.4287 66.9985 27.7932 67.0015 26.087C67.0015 22.541 64.1124 19.6552 60.5618 19.6552C57.0112 19.6552 54.1221 22.541 54.1221 26.087C54.1251 27.7932 54.8048 29.4287 56.012 30.6344C57.2193 31.8402 58.8555 32.5178 60.5618 32.5188Z" fill="#00AC69"/>
<path d="M57.2151 43.0645C58.426 43.0639 59.5872 42.5829 60.4439 41.7271C61.3006 40.8713 61.7827 39.7106 61.7845 38.4997C61.7845 35.9816 59.7355 33.9348 57.2151 33.9348C56.0041 33.9354 54.8428 34.4164 53.9859 35.2721C53.1291 36.1279 52.6467 37.2887 52.6446 38.4997C52.6467 39.7107 53.1291 40.8714 53.9859 41.7272C54.8428 42.583 56.0041 43.0639 57.2151 43.0645Z" fill="#00AC69"/>
<path d="M57.6352 45.1228C56.6143 45.1231 55.6352 45.5284 54.9128 46.2498C54.1904 46.9711 53.7837 47.9496 53.7819 48.9705C53.8063 49.976 54.2229 50.932 54.9427 51.6345C55.6624 52.337 56.6283 52.7302 57.6341 52.7302C58.6398 52.7302 59.6057 52.337 60.3255 51.6345C61.0453 50.932 61.4619 49.976 61.4863 48.9705C61.4845 47.95 61.0781 46.9719 60.3562 46.2506C59.6342 45.5293 58.6557 45.1237 57.6352 45.1228Z" fill="#00AC69"/>
<path d="M64.8126 35.9726C64.8129 36.4372 64.9047 36.8972 65.0827 37.3264C65.2608 37.7555 65.5217 38.1454 65.8504 38.4737C66.1792 38.802 66.5694 39.0624 66.9988 39.2399C67.4281 39.4174 67.8883 39.5087 68.3529 39.5084C70.3075 39.5084 71.8932 37.926 71.8932 35.9726C71.8929 35.508 71.8011 35.048 71.623 34.6188C71.4449 34.1897 71.1841 33.7998 70.8553 33.4715C70.5266 33.1432 70.1364 32.8828 69.707 32.7053C69.2776 32.5277 68.8175 32.4365 68.3529 32.4368C67.8883 32.4365 67.4281 32.5277 66.9988 32.7053C66.5694 32.8828 66.1792 33.1432 65.8504 33.4715C65.5217 33.7998 65.2608 34.1897 65.0827 34.6188C64.9047 35.048 64.8129 35.508 64.8126 35.9726Z" fill="#00AC69"/>
<path d="M70.5602 40.979C67.0097 40.979 64.1216 43.8648 64.1216 47.4108C64.1216 50.958 67.0097 53.8426 70.5602 53.8426C74.1119 53.8426 77 50.958 77 47.4108C77 43.8648 74.1108 40.979 70.5602 40.979Z" fill="#00AC69"/>
<path d="M28.1413 53.2509C26.7478 53.2515 25.4115 53.8049 24.4255 54.7896C23.4395 55.7743 22.8844 57.1099 22.882 58.5033C22.8844 59.8968 23.4395 61.2324 24.4255 62.2171C25.4115 63.2018 26.7478 63.7552 28.1413 63.7558C31.0396 63.7558 33.3994 61.3993 33.3994 58.5033C33.397 57.1099 32.8419 55.7743 31.8559 54.7896C30.8699 53.8049 29.5347 53.2515 28.1413 53.2509Z" fill="#00AC69"/>
<path d="M64.522 54.6533C63.3139 54.6539 62.1554 55.1336 61.3005 55.9872C60.4456 56.8409 59.9641 57.9987 59.9617 59.2068C59.9617 61.7169 62.0074 63.7603 64.522 63.7603C65.73 63.7597 66.8884 63.2799 67.7432 62.4262C68.5979 61.5726 69.0791 60.4148 69.0812 59.2068C69.0812 56.6955 67.0367 54.6533 64.522 54.6533Z" fill="#00AC69"/>
<path d="M50.8026 58.2825C50.8026 48.4595 50.2493 35.9637 48.1684 35.9637C46.0875 35.9637 45.7289 45.7798 45.7289 50.2217C44.8523 48.6166 36.5684 43.4928 37.4074 45.9084C37.4791 46.1156 37.6009 46.3034 37.7489 46.4674L43.8392 53.2885C44.9484 54.5317 45.5205 56.1634 45.4306 57.8271C45.0003 65.8697 44.117 75.1052 42.3172 78.6763C41.9267 79.4538 42.6075 79.7441 43.1448 79.7441H52.9461C53.4846 79.7441 54.1642 79.4538 53.7737 78.6763C52.7298 76.6079 51.9956 70.9525 51.4776 65.9835C51.3776 65.0188 51.5019 64.0441 51.8407 63.1353C52.1796 62.2266 52.7238 61.4084 53.4311 60.7447L58.5583 55.926C58.7211 55.7724 58.8645 55.5982 58.9681 55.4013C60.1748 53.0847 52.3246 56.9506 50.8014 58.2813" fill="#00AC69"/>
</svg>
