<svg width="96" height="96" viewBox="0 0 96 96" fill="none" xmlns="http://www.w3.org/2000/svg">
<circle cx="48" cy="48" r="47" fill="white" stroke="white" stroke-width="2"/>
<path d="M76.9999 71.9964H64.942C64.942 71.9964 66.8721 71.0651 66.8721 67.7502V50.0024C66.8721 46.5479 64.5211 44.9952 61.9892 44.2013C59.8541 43.5471 57.1629 44.2602 55.5884 45.1522C52.9081 46.6701 50.1471 48.0353 47.3818 49.4158V33.2033C47.3818 30.3464 47.0438 29.9451 46.4572 29.112L57.501 23.5726V42.5635C61.3894 40.9584 66.0739 37.0176 71.2011 38.9847C73.4517 39.8484 76.9999 42.7794 76.9999 46.5567V71.9964Z" fill="#1A64B7"/>
<path d="M57.5128 66.079C57.5128 68.6415 56.2871 72 53.0551 72L47.3827 71.9978L47.3718 50.2111C47.3718 50.2111 51.4347 50.2089 52.6931 50.2111C55.3668 50.2111 57.5237 51.6679 57.5128 55.2685V66.079Z" fill="#1A64B7"/>
<path d="M38.0039 71.9964H19C21.7152 68.5397 35.0423 48.7942 38.0039 35.0766V71.9964Z" fill="#1A64B7"/>
</svg>
