<svg width="96" height="96" viewBox="0 0 96 96" fill="none" xmlns="http://www.w3.org/2000/svg">
<circle cx="48" cy="48" r="47" transform="rotate(180 48 48)" fill="white" stroke="white" stroke-width="2"/>
<path d="M48.9249 78.8294C33.4352 78.8294 20.8499 70.4392 20.8499 60.1127C20.8499 49.7862 33.4352 41.396 48.9249 41.396C64.4146 41.396 77 49.7862 77 60.1127C77 70.4392 64.4146 78.8294 48.9249 78.8294ZM48.9249 44.7844C35.3715 44.7844 24.2382 51.7225 24.2382 60.1127C24.2382 68.503 35.3715 75.441 48.9249 75.441C62.4784 75.441 73.6116 68.503 73.6116 60.1127C73.6116 51.7225 62.6398 44.7844 48.9249 44.7844Z" fill="#507033"/>
<path d="M37.6302 76.2477C32.951 76.2477 28.7559 74.6342 25.6902 71.7298C21.8178 67.8574 20.2043 62.3715 21.1724 55.9175C22.1405 49.7861 25.3675 43.4934 30.3694 38.4916C36.5007 32.1989 44.4069 28.4878 51.6677 28.4878C56.3469 28.4878 60.542 30.1013 63.6077 33.0056C67.4801 36.878 69.0936 42.364 68.1255 48.818C67.1574 54.9494 63.9304 61.242 58.9285 66.2439C52.7972 72.5366 44.891 76.2477 37.6302 76.2477ZM51.6677 31.8762C45.375 31.8762 38.2756 35.2645 32.7896 40.7505C28.2718 45.4296 25.3675 50.9156 24.5607 56.4015C23.754 61.7261 25.0448 66.2439 28.1105 69.3096C30.5307 71.5685 33.7577 72.8593 37.6302 72.8593C43.9228 72.8593 51.0223 69.4709 56.5082 63.985C61.0261 59.3058 63.9304 53.8199 64.7371 48.334C65.5439 43.0094 64.2531 38.4916 61.1874 35.4259C58.7671 33.167 55.5401 31.8762 51.6677 31.8762Z" fill="#5D9741"/>
<path d="M36.1783 76.8931C35.5329 76.8931 34.8875 76.8931 34.0808 76.7318C23.593 75.1182 16.9776 60.5967 19.5592 44.3002C21.9795 29.2946 31.3378 18 41.3416 18C41.987 18 42.6324 18 43.4391 18.1614C48.7637 18.9681 53.1202 22.8405 55.7018 29.1332C58.2834 35.1032 59.0902 42.6867 57.7994 50.4315C55.5405 65.5985 46.1821 76.8931 36.1783 76.8931ZM41.3416 21.3884C33.1127 21.3884 25.0451 31.7148 22.9476 44.9456C20.6887 59.3058 25.8519 72.0526 34.5648 73.5047C43.2778 74.9569 52.3134 63.985 54.5723 49.9475C55.7018 42.848 55.0564 35.91 52.6361 30.424C50.3772 25.2608 46.9889 22.0338 42.7937 21.3884H41.3416Z" fill="#7BC143"/>
</svg>
