<svg width="96" height="96" viewBox="0 0 96 96" fill="none" xmlns="http://www.w3.org/2000/svg">
<circle cx="48" cy="48" r="47" fill="white" stroke="white" stroke-width="2"/>
<path d="M17.158 54.6081L17.1984 54.4665L17.249 54.3047L17.5219 53.688H17.9466L17.8556 53.8902L17.8253 53.9812L17.7848 54.0621L17.7343 54.1025L17.7039 54.1329L17.6635 54.2239L17.4613 54.4261L17.4006 54.4665L17.3197 54.5171L17.1984 54.6081H17.158Z" fill="#010101"/>
<path d="M17.7131 54.1733H17.6828L17.6626 54.2239L17.4604 54.4261L17.3997 54.4665L17.3188 54.5171L17.1975 54.6081H17.157L17.1975 54.4665L17.248 54.3048L17.3188 54.1733H17.2784L17.2278 54.3048L17.1773 54.4665L17.1469 54.5879L17.1267 54.6182H17.157H17.1975H17.2177L17.339 54.5373L17.4199 54.4969V54.4868L17.4604 54.4463L17.6626 54.2441H17.6828L17.7131 54.1733Z" fill="white"/>
<path d="M17.5207 53.7183H17.5005L17.3083 54.1328H17.3286L17.5207 53.7183ZM17.9554 53.7183H17.9352L17.8644 53.9104L17.8341 54.0014L17.8038 54.0924L17.7734 54.1227L17.7532 54.1429H17.7836L17.8139 54.1126L17.8442 54.0216L17.8745 53.9306L17.9554 53.7183Z" fill="#010101"/>
<path d="M17.2992 54.1328L17.2789 54.153H17.2992L17.3194 54.1328H17.2992ZM17.7036 54.1328L17.6834 54.153H17.7036L17.7339 54.1328H17.7036Z" fill="white"/>
<path d="M17.3194 54.1228L17.2992 54.143H17.3194L17.3396 54.1228H17.3194ZM17.7137 54.1228L17.6935 54.143H17.7238L17.7441 54.1228H17.7137Z" fill="#010101"/>
<path d="M17.5116 53.72H17.5223H17.5116V53.688V53.72Z" fill="#010101"/>
<path d="M17.199 54.5677L17.2293 54.4666L17.2596 54.3149L17.5326 53.7083H17.8966L17.8258 53.8801L17.7955 53.9711L17.7652 54.0621L17.7348 54.0925L17.6843 54.143L17.6539 54.234L17.4416 54.4463L17.4113 54.4767L17.3203 54.507L17.199 54.5677ZM17.9471 53.7184H17.5326L17.3405 54.1329H17.3203L17.3001 54.1531L17.2495 54.3048L17.2192 54.4564L17.1888 54.5778H17.2192L17.3405 54.4868L17.4315 54.4564L17.4618 54.4261L17.6742 54.2138L17.7045 54.143L17.7247 54.1228L17.7449 54.1026L17.7652 54.0823L17.7955 54.052L17.8258 53.961L17.8561 53.87L17.9471 53.7184Z" fill="#010101"/>
<path d="M17.9958 53.688H18.1172L17.9958 53.9408V53.688Z" fill="#010101"/>
<path d="M18.1288 53.6677V53.689L18.1501 53.6677H18.1288Z" fill="white"/>
<path d="M18.1176 53.7183H18.0974L17.976 53.9407V53.7183H17.9558V53.9407V54.0317L17.9861 53.9609L18.1176 53.7183Z" fill="#010101"/>
<path d="M18.0069 53.8598V53.7183H18.0777L18.0069 53.8598ZM18.0979 53.7183H17.9766V53.9407L18.0979 53.7183Z" fill="#010101"/>
<path d="M18.6534 53.688L18.6854 53.7413V53.688H18.6534Z" fill="#010101"/>
<path d="M18.6038 53.6677L18.6144 53.689V53.6677H18.6038Z" fill="white"/>
<path d="M18.6874 53.7183V53.7396L18.6768 53.7183H18.6342L18.6768 53.7609L18.7088 53.7929V53.7396V53.7183H18.6874Z" fill="#010101"/>
<path d="M18.6746 53.7183L18.6852 53.7396V53.7183H18.6746Z" fill="#010101"/>
<path d="M18.5334 42.7381L18.8974 42.364L19.3423 42L19.4333 42.2022V42.4145V42.7381H18.5334Z" fill="#010101"/>
<path d="M19.3607 42H19.3405L19.4314 42.2022V42.3438H19.4517V42.2022L19.3607 42Z" fill="white"/>
<path d="M19.4329 42.3943V42.4145V42.7279H19.4531V42.4145V42.3943H19.4329Z" fill="#010101"/>
<path d="M19.4542 42.3438H19.4329V42.3651H19.4542V42.3438Z" fill="white"/>
<path d="M19.4542 42.364H19.4329V42.396H19.4542V42.364Z" fill="#010101"/>
<path d="M19.3406 42H19.3305H19.3406H19.3103L18.8958 42.3438H18.916L19.3406 42Z" fill="white"/>
<path d="M18.8762 42.3943H18.8459L18.5122 42.7279H18.5526L18.8762 42.3943Z" fill="#010101"/>
<path d="M18.8988 42.3438H18.8775L18.8562 42.3651H18.8988L18.9201 42.3438H18.8988Z" fill="white"/>
<path d="M18.8562 42.364L18.8456 42.396H18.8776L18.8989 42.364H18.8562Z" fill="#010101"/>
<path d="M19.3409 42L18.9162 42.3438L18.896 42.364L18.8758 42.3943L18.5522 42.728H18.5624L18.9162 42.3741L19.3409 42.0303L19.4117 42.2022V42.4145V42.728H19.4319V42.4145V42.3943V42.364V42.3438V42.2022L19.3409 42Z" fill="#010101"/>
<path d="M19.2201 54.0621H19.1898V54.1025L19.1393 54.0621L19.0685 53.8902L19.0179 53.9408V54.0115V54.0621L18.9775 54.0115L18.9269 53.8902L18.8966 53.9812V54.0115L18.8562 53.9812L18.8056 53.8902V53.8599L18.7753 53.8093V53.688H19.1898L19.2201 53.8093L19.2606 54.0621V54.1025L19.2201 54.0621Z" fill="#010101"/>
<path d="M19.2091 53.7183H19.1889L19.2192 53.8093L19.2597 54.062V54.1025L19.2192 54.062H19.1889V54.1025L19.1384 54.062L19.0676 53.8901L19.017 53.9407V54.0115V54.062L18.9766 54.0115L18.926 53.8901L18.8957 53.9811V54.0115L18.8553 53.9811L18.8047 53.8901V53.8598H18.7946H18.8047L18.7744 53.8093V53.7183H18.7542V53.8093V53.8194L18.7946 53.8598V53.8901V53.9104L18.8451 54.0014L18.8755 54.0317L18.9159 54.062V53.9811L18.926 53.9407L18.9665 54.0317L18.9968 54.0822L19.0373 54.1227V54.0115V53.9407L19.0474 53.9306L19.1181 54.062L19.1687 54.1227H19.2091V54.0822H19.2192L19.2597 54.1227H19.29V54.062L19.2395 53.8093L19.2091 53.7183Z" fill="#010101"/>
<path d="M19.1694 54.1228L19.1897 54.143V54.1228H19.1694ZM19.2604 54.1228L19.2807 54.143V54.1228H19.2604Z" fill="#010101"/>
<path d="M18.8258 53.8396L18.7955 53.8093V53.7183H19.1797L19.21 53.8194L19.2404 54.0418H19.1898H19.1595V54.062L19.0685 53.9104L19.0483 53.8901L18.9775 53.9609V54.0519L18.9472 53.9306L18.9269 53.88L18.8764 53.971L18.846 53.9003L18.8258 53.8396ZM19.1898 53.7183H18.7753V53.8194L18.8056 53.8497V53.88L18.8359 53.971L18.8663 54.0014V53.971L18.8966 53.88L18.9269 54.0014L18.9573 54.0317V54.0014V53.9104L18.9876 53.88L19.0786 54.0519L19.1089 54.0822V54.0519H19.1393L19.1696 54.0822V54.0519L19.1393 53.8093L19.1898 53.7183Z" fill="#010101"/>
<path d="M19.432 49.5527H19.341L19.1692 49.674H19.0984H19.0883V49.6538V49.6235H19.0377L18.9669 49.674L19.0377 49.6437H19.0681V49.674H19.0984H19.1894L19.3613 49.5527H19.3916L19.3613 49.583L19.3309 49.8257L19.2399 50.4526L19.1894 51.0087L19.2096 50.9884L19.2399 50.4728L19.3309 49.8459L19.3613 49.6033L19.3916 49.5729L19.432 49.5527ZM18.9973 49.0168L18.9669 49.0371H18.9872L19.0175 49.0674L18.9265 49.1584V49.1887L18.8557 49.2797L18.8052 49.3707L18.8355 49.3505L18.8658 49.2999L18.9568 49.2089V49.1786L19.0276 49.1078L19.0478 49.0876L18.9973 49.0168Z" fill="#010101"/>
<path d="M19.2091 51.0188L19.1889 51.039V51.0592L19.2091 51.039V51.0188ZM18.9463 49.6639L18.8451 49.7145L18.7542 49.765H18.7744L18.8654 49.7347L18.9463 49.6639ZM18.8047 49.3808L18.7744 49.4011L18.7542 49.4314L18.7845 49.4112L18.8047 49.3808ZM18.9665 49.0168H18.8957L18.8654 49.0371H18.9159L18.9665 49.0168Z" fill="white"/>
<path d="M19.21 50.9985L19.1898 51.0188V51.039L19.21 51.0188V50.9985ZM19.0381 49.6235L18.9472 49.6538L18.8562 49.7246L18.9573 49.674L19.0381 49.6235ZM18.8258 49.3505L18.7955 49.3707L18.7753 49.4011L18.8056 49.3808L18.8258 49.3505ZM18.9775 49.0168H18.9472L18.8764 49.0371H18.9472L18.9775 49.0168Z" fill="#010101"/>
<path d="M15.4095 50.4224L15.3185 50.4931L15.1971 50.5235L14.8635 50.7358L14.7422 50.8571V50.8774V50.8976H14.7219L14.7017 50.9279L14.7927 50.8571H14.7624L14.8837 50.7358L15.2174 50.5235L15.3387 50.4931L15.4095 50.4224ZM15.4297 50.2202L15.3387 50.2505L15.1668 50.3718L15.096 50.4224L15.4095 50.392V50.3718L15.1668 50.4022L15.3387 50.2808L15.4297 50.2505V50.2202ZM14.9949 49.4922L14.8736 49.563L14.6613 49.7348L14.4894 49.9067L14.4692 49.9269L14.4995 49.9573L14.4692 49.9775L14.3782 50.0078H14.4995L14.4692 50.0382H14.5399V50.0584V50.0887L14.5096 50.1595L14.823 49.9472L14.8938 49.8764H14.9646L14.8433 49.9674L14.7927 50.0584L14.7624 50.1494L14.7422 50.1797H14.8129L14.9343 50.0887L15.005 50.0685L14.914 50.1393L14.9343 50.1696L15.1769 50.0483H15.2073L15.0354 50.1999V50.2505L15.0859 50.301L15.1061 50.3213L15.2477 50.2303L15.3994 50.1595L15.4499 50.1797V50.1595L15.3994 50.1292L15.2275 50.2202L15.1061 50.3112L15.0758 50.2808V50.2505L15.2477 50.0988L15.278 50.0685H15.187L14.9242 50.1595L15.096 50.0382L14.9242 50.0685L14.8028 50.1595H14.7725L14.8028 50.0685L14.8332 49.9775L14.9545 49.8865L15.0455 49.8562H14.9545H14.8635L14.7725 49.9472L14.5298 50.0988L14.5602 50.0078L14.5298 50.0382V50.0078H14.4995L14.5298 49.9775H14.4591L14.5501 49.9472L14.5197 49.9168L14.6916 49.745L14.9039 49.5933L14.9949 49.4922Z" fill="#010101"/>
<path d="M14.7005 50.9481L14.6701 50.9683L14.6499 50.9986L14.6802 50.9784L14.7005 50.9481ZM15.4588 50.3516H15.4486V50.3718H15.4689L15.4486 50.392V50.4223L15.4689 50.4021V50.3516H15.4588ZM15.4588 50.1797V50.2302H15.479L15.4588 50.1797ZM15.024 49.4719L15.0038 49.4921L15.024 49.5124L15.0442 49.4921L15.024 49.4719Z" fill="white"/>
<path d="M14.7313 50.9077L14.701 50.9279L14.6808 50.9582L14.7111 50.938L14.7313 50.9077ZM14.7516 50.8774L14.7212 50.9077H14.7415L14.7516 50.8774ZM15.429 50.4123L15.4088 50.4325V50.4527L15.429 50.4325V50.4123ZM15.429 50.3718H15.4088V50.392H15.429V50.3718ZM15.429 50.1797V50.1999H15.4492V50.2202H15.429V50.2404H15.4492V50.1898H15.429V50.1797ZM15.0144 49.4922H14.9942L15.0144 49.5124L15.0347 49.4922H15.0144Z" fill="#010101"/>
<path d="M17.5116 53.6677V53.689L17.5223 53.6677H17.5116Z" fill="white"/>
<path d="M18.0072 51.0187L17.987 51.0389L17.9668 51.3018L17.8758 51.5647L17.896 51.5444L17.8657 51.5748L17.8353 51.6759V51.6961L17.8555 51.6759L17.9769 51.3119L18.0072 51.0187Z" fill="#010101"/>
<path d="M17.8555 51.7064H17.8353V51.7266L17.8555 51.7064ZM18.0072 50.9481L17.987 50.9683V50.9986L18.0072 50.9784V50.9481ZM18.0679 50.3718L18.0477 50.392V50.4223L18.0679 50.4021V50.3718ZM18.0274 50.3516H17.9971L17.9668 50.3718H17.987L18.0274 50.3516Z" fill="white"/>
<path d="M17.8555 51.6759L17.8353 51.6962V51.7164L17.8555 51.6962V51.6759ZM17.9061 51.5344L17.8859 51.5546V51.5748L17.9061 51.5344ZM18.0072 50.9581L17.987 50.9783V51.0289L18.0072 51.0086L18.0274 50.9884L18.0072 50.9581ZM18.0477 50.3211L17.9971 50.3514H18.0274L18.0477 50.3312V50.3615L18.0679 50.3413V50.311V50.2908L18.0477 50.3211Z" fill="#010101"/>
<path d="M14.8524 52.0501L14.5592 52.2017L14.4682 52.2321L14.448 52.2624L14.5491 52.2118L14.8221 52.0703L14.8524 52.0501ZM15.3276 51.8276L14.9333 52.0197H14.9535V52.04L15.3377 51.8479V51.8276H15.3276Z" fill="#010101"/>
<path d="M14.4369 52.2625L14.4066 52.2827L14.3864 52.3029L14.4167 52.2827L14.4369 52.2625ZM14.9222 52.04H14.8919L14.8717 52.0704L14.9222 52.04ZM15.3772 51.7974L15.357 51.8176V51.8378L15.3772 51.8176V51.7974Z" fill="white"/>
<path d="M14.4677 52.2421L14.4374 52.2624V52.2826L14.4677 52.2624V52.2421ZM14.9429 52.0197L14.8519 52.05L14.8317 52.0804L14.862 52.0601L14.8822 52.0298H14.9126L14.9429 52.0197ZM15.3575 51.8074L15.3372 51.8276V51.8478L15.3575 51.8276V51.8074Z" fill="#010101"/>
<path d="M18.7045 53.6677V53.689L18.7258 53.6677H18.7045Z" fill="white"/>
<path d="M17.9462 53.6705H17.9568V53.6492V53.6705H17.9995V53.6492L17.9462 53.6172V53.6705Z" fill="white"/>
<path d="M17.5212 53.6677L17.501 53.6879H17.5212L17.5414 53.6677H17.5212ZM17.9458 53.6879H17.9661V53.6677H17.9458V53.6879Z" fill="white"/>
<path d="M17.5116 53.698H17.5318V53.6777H17.5116V53.698ZM17.9464 53.698H17.9666V53.6777H17.9464V53.698Z" fill="#010101"/>
<path d="M17.9368 53.688H17.5222V53.7183H17.9368V53.688Z" fill="#010101"/>
<path d="M17.976 53.6677L17.9558 53.6879H17.9861V53.6677H17.976ZM18.1176 53.6879H18.1378V53.6677H18.1176V53.6879Z" fill="white"/>
<path d="M17.9766 53.698H17.9968V53.6777H17.9766V53.698ZM18.1181 53.6878L18.0979 53.7081H18.1181L18.1383 53.6878H18.1181Z" fill="#010101"/>
<path d="M17.9558 53.6677V53.689L17.9771 53.6677H17.9558Z" fill="white"/>
<path d="M17.9958 53.688V53.7183H18.097L18.1172 53.688H17.9958Z" fill="#010101"/>
<path d="M18.6129 53.6677V53.6879H18.6432L18.623 53.6677H18.6129ZM18.6837 53.6879H18.7039V53.6677H18.6837V53.6879Z" fill="white"/>
<path d="M18.6874 53.688V53.6986L18.6555 53.688H18.6342L18.6555 53.6986H18.6874H18.7088V53.688H18.6874Z" fill="#010101"/>
<path d="M18.6534 53.688L18.6748 53.72H18.6854V53.688H18.6534Z" fill="#010101"/>
<path d="M18.492 42.738L18.4718 42.7583H18.5021L18.5224 42.738H18.492ZM19.4323 42.7583H19.4525V42.738H19.4323V42.7583Z" fill="white"/>
<path d="M18.5123 42.7279L18.4921 42.7481H18.5224L18.5426 42.7279H18.5123ZM19.4324 42.738H19.4526V42.7178H19.4324V42.738Z" fill="#010101"/>
<path d="M19.4131 42.728H18.5638H18.5537L18.5334 42.7381H19.4333V42.728H19.4131Z" fill="#010101"/>
<path d="M18.7542 53.6879H18.7744V53.6677H18.7542V53.6879ZM19.1687 53.6677L19.1889 53.6879H19.2091V53.6677H19.1687Z" fill="white"/>
<path d="M18.7542 53.698H18.7744V53.6777H18.7542V53.698ZM19.1889 53.698H19.2091V53.6777H19.1889V53.698Z" fill="#010101"/>
<path d="M19.1898 53.688H18.7753V53.7183H19.1898V53.688Z" fill="#010101"/>
<path d="M45.1745 51.8782H24.2756V52.6971H45.1745V51.8782Z" fill="#55A939"/>
<path d="M46.7825 43.7289L46.4488 43.7593V48.7337L46.8634 48.8551L47.2779 48.8854L47.7329 48.8551L47.9756 48.7641L48.1879 48.6731L48.3598 48.5821L48.5316 48.4607L48.7035 48.3394L48.8754 48.1675L49.0877 47.8035L49.3001 47.3486L49.3911 46.8127L49.4214 46.2364L49.3911 45.6095L49.2697 45.0736L49.0978 44.6187L48.9765 44.4468L48.8046 44.2951L48.6833 44.1232L48.471 44.0019L48.107 43.7896L47.652 43.6683L47.197 43.6581L46.7825 43.7289ZM44.7502 49.2494V49.0067H44.9626L45.2052 48.9157L45.2356 48.8854L45.2659 48.7944L45.2962 48.4607L45.3266 47.9249V44.6692L45.2962 44.1334L45.2659 43.7997L45.2356 43.7087L45.2052 43.6784L44.9626 43.5874H44.7502V43.3447H47.3891L47.8441 43.375L48.38 43.4054L48.9159 43.5267L49.1585 43.6177L49.4012 43.739L49.6438 43.8907L49.8561 44.103L50.0685 44.3457L50.2404 44.5883L50.4122 44.922L50.5032 45.286L50.5942 45.741L50.6246 46.2263L50.5942 46.5195L50.5639 46.934L50.4729 47.1767L50.3819 47.4193L50.21 47.662L50.0381 47.9046L49.8258 48.1473L49.5832 48.39L49.29 48.6023L48.9159 48.8146L48.4609 48.9663L47.9553 49.0876L47.379 49.1179L46.7522 49.1483H44.7401V49.2494H44.7502ZM51.2413 49.2494V49.0067H51.4132L51.6559 48.9764L51.7469 48.8854L51.7772 48.7944L51.8075 48.5012V47.9249V44.6692V44.1334L51.7772 43.7997L51.7469 43.7087L51.6559 43.6784L51.4435 43.5874H51.2413V43.3447H55.0935L55.1845 44.0019L55.2148 44.6288L54.8812 44.6692L54.7598 44.1839L54.6688 44.0322L54.5778 43.9109L54.406 43.8199L54.1936 43.7289H53.9004L53.5668 43.6986H52.9096V46.2162H53.5364L53.951 46.1858L54.1936 46.1555L54.315 46.1252L54.3453 46.0948L54.4363 45.8522L54.4666 45.559H54.679V47.3283H54.4666L54.4363 46.9947L54.406 46.8734L54.3756 46.7824L54.2846 46.6914L54.1936 46.661L53.951 46.6307H53.587H52.9298V47.9855V48.5618L52.9601 48.8551L52.9905 48.946L53.0815 48.9764L53.2938 49.0674H53.5061V49.31H51.2413V49.2494ZM64.183 43.7289L63.9707 43.7593V46.3577H64.3347L64.7492 46.3274L65.0424 46.206L65.2547 46.0544L65.4266 45.8421L65.5176 45.5994L65.548 45.3871L65.5783 45.0231L65.548 44.7299L65.457 44.4165L65.366 44.2041L65.1941 44.0525L65.0222 43.9008L64.8099 43.8098L64.5975 43.7188L64.3549 43.6885L64.183 43.7289ZM66.7309 49.2494L66.4377 49.219L66.195 49.1887L65.9827 49.0674L65.7704 48.946L65.6491 48.7944L65.5277 48.6225L65.3559 48.3293L65.0222 47.6721L64.8503 47.2576L64.6784 46.9644L64.5874 46.843L64.4964 46.8127L64.3246 46.7824L64.1527 46.752H63.91V47.9855V48.5214L63.9404 48.8146L63.9707 48.9359L64.0617 48.9663L64.274 49.0573H64.4863V49.2999H62.2114V49.0168H62.4237L62.6361 48.9258L62.7271 48.8955L62.7574 48.7742L62.7877 48.481V47.9451V44.6692V44.1334L62.7574 43.8401L62.7271 43.7188L62.6967 43.6885L62.4541 43.5975H62.2822V43.3548H64.6784H65.0121L65.3457 43.3852L65.6794 43.4762L65.9726 43.5975L66.2658 43.7491L66.3871 43.8705L66.4781 43.9918L66.5691 44.1435L66.6601 44.3558L66.6905 44.5681V44.8108L66.6601 45.104L66.6298 45.3466L66.5085 45.5893L66.3366 45.8016L66.1647 45.9533L65.9928 46.1252L65.6288 46.3375L65.8007 46.752L66.1344 47.3789L66.5489 48.0765L67.0039 48.7742L67.1252 48.8955L67.2466 48.9258L67.5398 48.9562V49.1988H66.7815V49.2494H66.7309ZM68.2677 49.2494V49.0067H68.4801L68.6924 48.9157L68.7834 48.8854L68.8137 48.7944L68.844 48.5012V47.9249V44.6692V44.0929L68.8137 43.7997L68.7632 43.7289L68.6722 43.6986L68.4598 43.6076H68.2475V43.3447H72.0997L72.1907 43.6784V44.012L72.221 44.6389L71.8874 44.6692L71.7964 44.3052L71.7054 44.0626L71.584 43.9109L71.4627 43.7896L71.2908 43.7593L71.0785 43.7289H70.5022H69.9259V45.9836H70.4618H70.9167L71.2099 45.9533L71.3009 45.9229L71.3313 45.832L71.3616 45.6196L71.3919 45.286H71.6346V47.0553H71.3919L71.3616 46.7621L71.3313 46.5498L71.3009 46.4588L71.2099 46.4285L70.9167 46.3982H70.5022H69.9259V48.7944L70.3404 48.8854L70.755 48.9157L71.1695 48.8854L71.4627 48.8551L71.7054 48.7337L71.8267 48.5821L71.948 48.4304L71.9784 48.2181L72.0997 47.7631L72.3929 47.7934L72.3626 48.2484L72.3322 48.5821L72.1199 49.2797H68.2374V49.2494H68.2677ZM78.884 49.2494V49.0067H79.0963L79.3895 48.9157L79.5108 48.8854L79.5412 48.7944L79.5715 48.6731L79.6018 48.5214V47.9855V43.6885H79.2682L78.6919 43.7188L78.52 43.7491L78.3481 43.8401L78.2268 43.9615L78.1358 44.1738L77.9639 44.7097H77.6707L77.701 44.0525L77.792 43.3548H82.453L82.4834 44.0525L82.5137 44.7097H82.2205L82.079 44.1637L81.988 43.9514L81.8666 43.83L81.7453 43.739L81.533 43.7087L80.9567 43.6784H80.623V47.9653L80.6533 48.5012V48.6528L80.6837 48.7742L80.7747 48.8652L80.8657 48.8955L81.1993 48.9865H81.3712V49.2291H78.8739V49.2494H78.884ZM29.6853 49.3303L28.2496 45.2556L26.9655 49.2494L26.7229 49.3404H26.4701L24.9232 44.4367L24.8322 44.103L24.7412 43.8907L24.6198 43.7694L24.4075 43.648L24.1952 43.6177V43.3548H26.5914V43.5975L26.2578 43.6885L26.0151 43.7795L25.9241 43.8098V43.9008L26.0151 44.3558L26.9655 47.7732L28.2496 43.6076L28.4619 43.5166L28.6742 43.4863L30.1706 47.8035L30.9188 44.922L31.0907 44.2648L31.121 43.9008V43.8098L31.03 43.7188L30.8177 43.6885L30.4537 43.5975V43.3548H32.395V43.5975L32.1321 43.648L32.0411 43.6784L31.9501 43.7289L31.8591 43.8503L31.7681 43.9716L31.5962 44.3356L31.4243 44.9119L30.1403 49.2291L29.8471 49.3201H29.6347V49.3303H29.6853ZM34.8316 43.6076L34.6598 43.6379L34.4879 43.6683L34.316 43.7593L34.1441 43.8806L34.0228 44.0019L33.8105 44.3356L33.6386 44.7501L33.5173 45.2051L33.4263 45.6904V46.1757V46.7116L33.5173 47.2474L33.6386 47.7328L33.8105 48.1473L34.0531 48.5113L34.1745 48.6326L34.3463 48.7539L34.5182 48.8753L34.6901 48.9663L34.9024 48.9966H35.1147H35.3271L35.5394 48.9663L35.7113 48.8753L35.8832 48.7843L36.0045 48.6629L36.1258 48.5416L36.3685 48.208L36.5404 47.7934L36.6617 47.3789L36.692 46.8936L36.7223 46.3577L36.692 45.8218L36.6617 45.286L36.5404 44.831L36.3685 44.376L36.1258 44.0424L36.0045 43.8907L35.8326 43.7694L35.6607 43.648L35.4686 43.6278L35.2563 43.5975L35.044 43.5469L34.8316 43.6076ZM35.044 49.3707L34.5081 49.3404L34.2654 49.31L33.9722 49.219L33.7599 49.0977L33.5173 48.9764L33.3049 48.8551L33.0926 48.6832L32.9207 48.4708L32.7488 48.2282L32.6275 48.0159L32.5062 47.7227L32.4152 47.4294L32.3343 47.0958L32.304 46.7621V46.3982V46.0342L32.3343 45.7005L32.4253 45.3669L32.5163 45.0332L32.6376 44.74L32.8095 44.4973L32.9814 44.2547L33.1533 44.0424L33.3656 43.83L33.6083 43.6784L33.8206 43.557L34.0632 43.4357L34.3059 43.3447L34.5991 43.2537L34.8418 43.2234H35.135L35.7113 43.2537L35.9539 43.2841L36.1966 43.375L36.4392 43.4964L36.6516 43.6177L36.8639 43.7896L37.0762 43.9412L37.2481 44.1536L37.42 44.3659L37.5919 44.6086L37.6829 44.8512L37.8042 45.1444L37.8345 45.4781L37.8649 45.8117L37.8952 46.1757L37.8649 46.5397L37.8345 46.8734L37.7435 47.207L37.6525 47.5407L37.5312 47.8339L37.4099 48.0765L37.238 48.3192L37.0257 48.5315L36.8133 48.7438L36.601 48.8955L36.3584 49.0168L36.1157 49.1382L35.873 49.2291L35.6304 49.3201L35.3372 49.3505H35.044V49.3707ZM41.2014 43.6076L40.9891 43.6379L40.8172 43.6683L40.6453 43.7593L40.524 43.8806L40.4026 44.0019L40.16 44.3356L39.9881 44.7501L39.8668 45.2051L39.8364 45.6904L39.8061 46.1757L39.8364 46.7116L39.8668 47.2474L39.9881 47.7328L40.2004 48.1473L40.4128 48.5113L40.5341 48.6326L40.706 48.7539L40.8778 48.8753L41.0902 48.9663L41.3025 48.9966H41.5148H41.7271L41.899 48.9663L42.0709 48.8753L42.2428 48.7843L42.4147 48.6629L42.536 48.5416L42.7483 48.208L42.9202 47.7934L43.0415 47.3789L43.1325 46.8936V46.3577V45.8218L43.0415 45.286L42.9202 44.831L42.7483 44.376L42.5057 44.0424L42.3843 43.8907L42.2125 43.7694L42.0406 43.648L41.8687 43.6177L41.6564 43.5874L41.4339 43.557L41.2014 43.6076ZM41.4036 49.3707L40.8273 49.3404L40.5846 49.31L40.342 49.219L40.0993 49.0977L39.887 48.9764L39.6747 48.8551L39.4623 48.6832L39.2905 48.4708L39.1186 48.2282L38.9467 48.0159L38.8557 47.7227L38.7344 47.4294L38.704 47.0958L38.6737 46.7621L38.6434 46.3982L38.6737 46.0342L38.704 45.7005L38.795 45.3669L38.886 45.0332L39.0074 44.74L39.1287 44.4973L39.3006 44.2547L39.5129 44.0424L39.7252 43.83L39.9376 43.6784L40.1802 43.557L40.4229 43.4357L40.6655 43.3447L40.9082 43.2537L41.2014 43.2234H41.4946L42.0305 43.2537L42.2731 43.2841L42.5158 43.375L42.7584 43.4964L43.0011 43.6177L43.2134 43.7896L43.4257 43.9412L43.5976 44.1536L43.7695 44.3659L43.8908 44.6086L44.0122 44.8512L44.1032 45.1444L44.1942 45.4781L44.2245 45.8117V46.1757V46.5397L44.1942 46.8734L44.1032 47.207L44.0122 47.5407L43.8908 47.8339L43.719 48.0765L43.5471 48.3192L43.3752 48.5315L43.1629 48.7438L42.9202 48.8955L42.7079 49.0168L42.4652 49.1382L42.2226 49.2291L41.9294 49.3201L41.6867 49.3505H41.4137V49.3707H41.4036ZM58.3896 43.6076L58.2177 43.6379L58.0458 43.6683L57.8739 43.7593L57.7526 43.8806L57.5807 44.0019L57.3684 44.3356L57.1965 44.7501L57.0752 45.2051L56.9842 45.6904V46.1757V46.7116L57.0752 47.2474L57.1965 47.7328L57.3684 48.1473L57.6111 48.5113L57.7324 48.6326L57.9043 48.7539L58.0761 48.8753L58.248 48.9663L58.4604 48.9966H58.6727H58.885L59.0973 48.9663L59.2692 48.8753L59.4411 48.7843L59.5624 48.6629L59.6838 48.5416L59.9264 48.208L60.0983 47.7934L60.2196 47.3789L60.2499 46.8936L60.2803 46.3577L60.2499 45.8218L60.2196 45.286L60.0983 44.831L59.9264 44.376L59.6838 44.0424L59.5624 43.8907L59.3905 43.7694L59.2187 43.648L59.0063 43.6177L58.794 43.5874L58.6019 43.557L58.3896 43.6076ZM58.5918 49.3707L58.0559 49.3404L57.8133 49.31L57.5706 49.219L57.328 49.0977L57.0853 48.9764L56.873 48.8551L56.6606 48.6832L56.4888 48.4708L56.3169 48.2282L56.1956 48.0159L56.0742 47.7227L55.9832 47.4294L55.8922 47.0958L55.8619 46.7621V46.3982V46.0342L55.8922 45.7005L55.9832 45.3669L56.1046 45.0332L56.1956 44.74L56.3674 44.4973L56.5393 44.2547L56.7112 44.0424L56.9235 43.83L57.1662 43.6784L57.3785 43.557L57.6212 43.4357L57.8638 43.3447L58.157 43.2537L58.3997 43.2234H58.6929L59.2692 43.2537L59.5119 43.2841L59.7545 43.375L59.9972 43.4964L60.2095 43.6177L60.4218 43.7896L60.6342 43.9412L60.8465 44.1536L60.9678 44.3659L61.1397 44.6086L61.2307 44.8512L61.352 45.1444L61.3823 45.4781L61.4127 45.8117L61.443 46.1757L61.4127 46.5397L61.3823 46.8734L61.352 47.207L61.2307 47.5407L61.1094 47.8339L60.988 48.0765L60.8162 48.3192L60.6038 48.5315L60.3915 48.7438L60.1792 48.8955L59.9365 49.0168L59.6939 49.1382L59.4512 49.2291L59.2085 49.3201L58.9153 49.3505H58.6019V49.3707H58.5918ZM75.0823 49.3707H74.5768L74.1623 49.2494L73.8691 49.1584L73.6264 49.037L73.5051 48.6225L73.4141 48.2585L73.3838 47.844V47.3587L73.7477 47.2677L73.9196 47.753L74.0106 48.0462L74.1825 48.3394L74.3544 48.6326L74.597 48.8449L74.7184 48.9359L74.8902 49.0269L75.0621 49.0573H75.2745H75.4868L75.6587 48.9663L75.78 48.8753L75.9013 48.7843L76.0226 48.6326L76.1136 48.4607L76.144 48.2484V48.0361V47.8035L76.053 47.5609L75.8811 47.3486L75.7092 47.1969L75.5373 47.0452L75.2947 46.8936L74.8397 46.6004L74.3342 46.3072L74.1218 46.0948L73.9095 45.9432L73.7376 45.7005L73.6163 45.4882L73.5253 45.195L73.495 44.8613L73.5253 44.4468L73.6466 44.1131L73.8185 43.8705L74.0308 43.6278L74.324 43.4762L74.6173 43.3548L74.9812 43.3245L75.3958 43.2942L75.8103 43.3245L76.144 43.3548L76.4372 43.4762L76.6798 43.5975L76.7708 44.2547L76.8012 44.9523H76.4675L76.3765 44.5378L76.2855 44.3255L76.1642 44.1131L76.0429 43.9008L75.8305 43.7289L75.5879 43.6076L75.2947 43.557L75.1228 43.5874L74.9509 43.6177L74.779 43.7087L74.6577 43.7997L74.5667 43.921L74.4757 44.0727L74.4454 44.2446L74.415 44.4569L74.4454 44.6996L74.5364 44.9119L74.6577 45.0838L74.87 45.2354L75.2846 45.5691L75.7901 45.8623L76.2956 46.1555L76.508 46.3678L76.7203 46.5195L76.8922 46.7621L77.064 47.0048L77.155 47.298V47.6317V47.8945L77.1247 48.1069L77.0944 48.3192L77.0034 48.4708L76.7911 48.7641L76.5484 49.0067L76.2147 49.1584L75.8508 49.2797L75.4868 49.3707H75.0823Z" fill="#010101"/>
<path d="M49.9567 53.6879L48.2783 51.5141V53.6879H47.975V50.8569H48.2783L49.9567 53.0307V50.8569H50.2903V53.6879H49.9567Z" fill="#010101"/>
<path d="M52.1105 52.96H52.7677L52.434 52.2624L52.1105 52.96ZM53.0912 53.688L52.8485 53.2027H51.979L51.7364 53.688H51.4027L52.2722 51.8276H52.6059L53.4754 53.688H53.0912Z" fill="#010101"/>
<path d="M55.0015 53.688V52.04H54.223V51.8276H56.0733V52.04H55.3352V53.688H55.0015Z" fill="#010101"/>
<path d="M57.6101 51.8276H57.2765V53.688H57.6101V51.8276Z" fill="#010101"/>
<path d="M59.6729 52.0904L59.5515 52.1814L59.4605 52.2724L59.3696 52.3634L59.3392 52.4847L59.3089 52.778L59.3392 53.0712L59.3696 53.1925L59.4605 53.3138L59.5515 53.4048L59.6729 53.4958H59.7942L59.9661 53.5262L60.0874 53.4554H60.2087L60.3301 53.3644L60.4211 53.2734L60.5121 53.1521L60.5424 53.0307L60.5727 52.7375L60.5424 52.4443L60.5121 52.323L60.4211 52.232L60.3301 52.141L60.2087 52.05L60.0874 52.0197H59.9661H59.7942L59.6729 52.0904ZM59.6729 53.6879L59.4302 53.5666L59.2179 53.4453L59.046 53.2329L58.955 53.0206L58.9247 52.7274L58.955 52.4847L59.046 52.2724L59.1673 52.0601L59.3797 51.9084L59.6729 51.8174L59.9661 51.7871L60.2593 51.8174L60.502 51.9084L60.7143 52.0601L60.8356 52.2724L60.9569 52.4847V52.7476V52.9903L60.8356 53.2329L60.7143 53.4453L60.502 53.5666L60.2593 53.6576L59.9661 53.6879H59.6729Z" fill="#010101"/>
<path d="M63.4346 53.688L62.3932 52.3332V53.688H62.1101V51.8276H62.4438L63.4649 53.2027V51.8276H63.7582V53.688H63.4346Z" fill="#010101"/>
<path d="M65.7899 52.96H66.4471L66.1134 52.2624L65.7899 52.96ZM66.7807 53.688L66.5684 53.2027H65.6685L65.4562 53.688H65.1226L65.9921 51.8276H66.3257L67.1548 53.688H66.7807Z" fill="#010101"/>
<path d="M68.3384 53.688V51.8276H68.672V53.4453H69.6224V53.688H68.3384Z" fill="#010101"/>
<path d="M72.7666 52.0904H72.9385L73.3025 52.0601L73.4238 52.0298L73.5148 51.9994L73.6362 51.9084L73.6665 51.7871L73.6968 51.6961V51.5748L73.6665 51.4231L73.5452 51.3018L73.3025 51.2108L72.9689 51.1805H72.7565V52.0904H72.7666ZM72.7666 53.4048H72.888H73.3025L73.5148 53.3745L73.6867 53.2835L73.7777 53.1925L73.808 53.0712L73.8384 52.9498V52.8285L73.7474 52.7072L73.6564 52.6162L73.5654 52.5252L73.3935 52.4342L73.2216 52.4039L72.8576 52.3735H72.7363V53.3947H72.7666V53.4048ZM73.3025 53.6879H72.433V50.8569H73.1812H73.4238L73.5957 50.8873L73.7676 50.9783L73.8586 51.0693L73.9597 51.1906L74.0507 51.2816L74.081 51.4029V51.5242L74.0507 51.7366L73.9294 51.9489L73.808 52.1005L73.5148 52.2219L73.7575 52.3129L73.8788 52.4342L74.0507 52.5555L74.1417 52.6769L74.2327 52.8285V52.9802V53.1925L74.1417 53.3442L73.9698 53.4958L73.7979 53.5868L73.5856 53.6778H73.3126V53.6879H73.3025Z" fill="#010101"/>
<path d="M75.83 52.9601H76.4872L76.1535 52.2119L75.83 52.9601ZM76.8208 53.6881L76.5782 53.2028H75.7086L75.466 53.6881H75.1323L76.0018 51.7974H76.3355L77.205 53.6881H76.8208Z" fill="#010101"/>
<path d="M79.5098 53.6881L78.4684 52.3332V53.6881H78.1348V51.7974H78.4684L78.4987 51.8277L79.5402 53.2028V51.7974H79.8334V53.6881H79.5098Z" fill="#010101"/>
<path d="M82.3215 53.6881L81.4014 52.7882V53.6881H81.0677V51.7974H81.4014V52.6972L82.2709 51.7974H82.5945L81.7856 52.6972L82.7663 53.6881H82.3215Z" fill="#010101"/>
<path d="M84.0495 44.0929H84.1405L84.2619 44.0626L84.2922 44.0323L84.3225 44.0019L84.2922 43.9716V43.9413L84.1203 43.9109H84.0293V44.1233H84.0495V44.0929ZM84.3832 44.5479L84.2922 44.3356L84.2619 44.2446L84.1405 44.2142H84.0495V44.5479H83.8372V43.7694L84.1709 43.739H84.3428L84.4641 43.7694L84.4944 43.8604L84.5248 43.9817L84.4944 44.012L84.4641 44.103L84.3428 44.1334L84.4641 44.2244L84.4944 44.3457L84.5854 44.558H84.3832V44.5479ZM83.7867 43.6076L83.6957 43.6986L83.5743 43.9109L83.544 44.1536V44.2749L83.5743 44.3962L83.6957 44.6086L83.7867 44.6996L83.908 44.7299L84.0293 44.7602L84.1507 44.7906L84.272 44.7602L84.3933 44.7299L84.6056 44.6086L84.727 44.3962L84.7573 44.1536L84.727 43.9109L84.6056 43.6986L84.5349 43.6076L84.4135 43.5166H84.2922L84.1709 43.4863L84.0495 43.5166H83.9282L83.7867 43.6076ZM83.999 44.9321L83.8271 44.9018L83.7058 44.8108L83.5845 44.7198L83.4631 44.5985L83.3721 44.4771L83.3418 44.3255V44.1536V44.0019L83.3721 43.83L83.4631 43.7087L83.5845 43.5874L83.7058 43.4964L83.8271 43.4054L83.999 43.3751L84.1709 43.3447L84.3428 43.3751L84.5146 43.4054L84.636 43.4964L84.7573 43.5874L84.8786 43.7087L84.9696 43.83L85 44.0019V44.1536V44.3255L84.9696 44.4771L84.8786 44.5985L84.7573 44.7198L84.636 44.8108L84.5146 44.9018L84.3428 44.9321L84.1709 44.9624L83.999 44.9321Z" fill="#010101"/>
<path d="M18.7754 53.6879V53.3239L18.6844 53.6879H18.654L18.5327 53.3543V53.4453L18.4821 53.5666L18.3204 53.2835V53.233L18.2698 53.2835L18.1182 53.6879H17.9968V53.6475L17.9463 53.6172V53.6879H17.5216L17.6632 53.2835L17.7845 52.8184L17.8553 52.3028V51.6759L17.9968 51.3119L18.0676 50.3211L17.279 50.776L16.3286 51.3119L15.3883 51.7972L14.5592 52.2118L14.3873 52.3028L14.1447 52.3634L13.9829 52.4241H13.8514H13.902L14.0233 52.3331L14.1447 52.2118L13.902 52.3331L13.6391 52.4544L13.902 52.2421L13.9829 52.1612H13.9323L13.3965 52.4848H13.3156V52.4544L13.3661 52.4241L13.6088 52.2421L13.8514 52.0904L13.4875 52.2421L13.3965 52.3028L13.1538 52.4544H13.1033H13.0729L13.0325 52.4848V52.4544L13.1538 52.3331L13.3156 52.1612L13.3661 52.1208L13.2448 52.1612L13.1538 52.2421H13.1033V52.2118H13.0729L12.9111 52.3331H12.8606L12.9819 52.2118L13.1538 52.0399H13.1033L13.0729 52.0904H13.0325L13.7301 51.5849L14.2255 51.3119L14.4379 51.1906L14.4682 51.14H14.4379L14.4682 51.0996L14.6502 51.0187L14.8019 50.8974H14.8524H14.8019H14.7715L14.8928 50.776L15.2164 50.5637L15.3377 50.5334L15.5096 50.3514L15.1861 50.3918L15.3377 50.2705L15.459 50.2301V50.1997L15.3883 50.1492L15.2164 50.2301L15.0951 50.3211L15.0445 50.2705V50.2301L15.2164 50.0582L15.2568 50.0279H15.1861L14.9232 50.1492L15.0951 50.0279L14.9232 50.0582L14.8019 50.1492H14.7715L14.8019 50.0582L14.8524 49.9874L14.9737 49.9065L15.0445 49.8661H14.9737H14.8928L14.8019 49.9369L14.5592 50.1087L14.5895 50.0279L14.5592 50.0582V50.0279H14.5086L14.5592 49.9874H14.4682L14.5592 49.9369L14.5086 49.9065L14.6805 49.7346L14.8928 49.5729L15.4287 49.2797L15.7219 49.1583L15.9646 48.946L16.2578 48.7438L16.4499 48.4607L16.4196 48.4101L16.2072 48.5517L16.3286 48.3798H16.2982L16.0859 48.4607L16.1769 48.3394V48.2888L16.0556 48.3394L15.9646 48.3798L15.8433 48.4101L15.8736 48.3394V48.218L15.7927 48.2888L15.6714 48.3798L15.7523 48.2585L15.5804 48.3394L15.7523 48.1372L15.5804 48.218L15.459 48.2888L15.5096 48.218L15.5804 48.1372L15.8736 47.9248L15.914 47.8945V47.8439L16.0859 47.7529L16.2578 47.6822L16.3286 47.6316L16.2982 47.6013H16.3286L16.4196 47.5103L16.5409 47.48L16.5004 47.4294L16.5409 47.389L16.7431 47.3081L17.0768 47.0958L17.2486 47.025L17.3194 46.934L17.2486 46.9744H17.1576L17.0768 47.0553L17.1981 46.8531L17.1273 46.9744L17.0363 47.025H16.9554L17.1273 46.8531L16.915 46.934L16.7431 47.0553L16.9554 46.7621L16.7431 46.934H16.7128V46.9036L16.6218 46.934V46.9036H16.5409L16.6622 46.6913L16.4499 46.7621L16.4196 46.7318V46.6913V46.6408H16.4499L16.4196 46.6104L16.5004 46.57L16.4499 46.5194L16.5409 46.4891L16.5914 46.3981L16.7128 46.3172L17.1273 45.9532L17.7845 45.3769H17.7036H17.6126L17.7036 45.296H17.6632L17.4913 45.3769L17.5823 45.2556L17.6126 45.1747L17.37 45.296V45.205L17.3194 45.2556H17.279L17.2486 45.205L17.279 45.1747V45.1141V45.0837H17.2486L17.1576 45.1141L17.0768 45.1747H16.9858H16.9554V45.1141L16.9858 45.0837H16.9554H16.915L17.825 44.3861L18.2395 43.9715L18.6035 43.5267L18.2698 43.557L18.0676 43.5267H17.9968L17.9058 43.466L18.5327 42.738H19.4326V42.9504V43.102L19.4629 43.193L19.5539 43.2234L19.6752 43.284L19.9381 43.3143L19.3416 44.3355L19.2202 44.5479V44.6287L19.2607 44.6692L19.4022 44.7501L19.5539 44.7905L19.6752 44.8714L18.927 45.7814L18.8967 45.8319V45.8622L19.018 45.9836L19.2607 46.1555L19.4629 46.3172L19.3416 46.5194L19.0686 46.9036L18.7754 47.2373L18.7248 47.3081L18.8057 47.2373L19.0686 47.48L19.3416 47.6316L19.3112 47.7226L19.2202 47.8439L18.8967 48.2888L18.563 48.673L18.4821 48.7943L18.4417 48.8247H18.4821L18.5327 48.9157L18.6035 49.0067L18.8057 49.037H18.9776L19.018 49.0673L18.927 49.1583V49.2089L18.8562 49.2797L18.563 49.7346H18.6035H18.6844L18.7248 49.7852H18.7754L19.018 49.6639H19.0686V49.6942H19.0989H19.1899L19.3416 49.5729H19.4022L19.3416 49.6133L19.3112 49.8661L19.2202 50.4727L19.0989 52.0399V52.96V53.3543L19.1899 53.6879H18.7754Z" fill="#010101"/>
<path d="M17.1574 51.5547L17.1372 51.5749L17.117 51.5951L17.1574 51.5547ZM19.5537 53.0814V52.9904L19.584 52.8691L19.7559 52.5051L19.8469 52.2624L19.9379 52.0198L19.9682 51.6861V51.3525L20.0592 51.1098L20.0895 50.5739L19.0481 51.1098L18.4819 51.4435L17.9764 51.6558L17.8854 51.6861L17.7641 51.7771L17.5518 51.8074L17.6731 51.7165L17.7641 51.6255L17.4709 51.7771L17.5619 51.6861L17.6529 51.5951L17.3192 51.8074H17.2889L17.3192 51.7771L17.4405 51.6558L17.6124 51.5648L17.3698 51.6558L17.3192 51.6861L17.1473 51.7771H17.117L17.208 51.6861L17.299 51.5951L17.3293 51.5648H17.299L17.2687 51.6153L17.1777 51.6457V51.6153L17.0563 51.6861H17.026L17.117 51.6558L17.1878 51.5547L17.572 51.2817L17.8652 51.13L17.9865 51.039L18.0168 51.0087H17.9663L18.0876 50.9177L18.1786 50.8874H18.1483V50.857L18.2393 50.8267L18.4516 50.7054L18.6235 50.5841L18.4516 50.6144L18.5426 50.5234L18.5729 50.4931V50.4627L18.4516 50.4931L18.3606 50.5234V50.4931L18.4516 50.4021V50.3717L18.2797 50.4627L18.3707 50.3717L18.2797 50.4021L18.1584 50.4324L18.2494 50.3414L18.2797 50.2504L18.1887 50.301L18.0674 50.392V50.3616H18.0371H17.9865L18.0168 50.3313V50.301L18.1078 50.21L18.2292 50.119L18.5628 49.9673L18.8965 49.755L19.0684 49.6336L19.1897 49.4618L19.1594 49.4314L19.038 49.482L19.129 49.391L19.0987 49.3607L18.9774 49.391L19.0077 49.3607L19.038 49.3303L18.947 49.3607H18.9167L18.8257 49.391V49.3607L18.856 49.2697L18.8257 49.3L18.7044 49.3303L18.7954 49.3L18.674 49.3303L18.7954 49.209L18.6235 49.3L18.7145 49.209L18.8358 49.0877L18.8661 49.0573L18.9571 49.027L19.0785 48.9967L19.1088 48.9663V48.936H19.1391L19.2301 48.9057L19.1998 48.8753H19.2301L19.3515 48.7843L19.5638 48.663L19.6548 48.6327L19.6851 48.6024L19.5638 48.6934L19.5941 48.572L19.5739 48.6024H19.4829L19.5739 48.5114L19.4526 48.5417L19.3616 48.6327L19.4829 48.481L19.311 48.572H19.2807L19.2504 48.5417L19.3414 48.4507L19.22 48.481V48.4103H19.1897V48.3799L19.22 48.3496V48.3091L19.2504 48.2788L19.3414 48.1878L19.9682 47.6519H19.9177L19.948 47.6216H19.9177L19.8267 47.6519L19.9177 47.5306L19.7458 47.561V47.5306L19.7154 47.561L19.6851 47.5306L19.7154 47.5003H19.6245L19.5031 47.5306V47.5003H19.4728L19.5031 47.47L19.9581 47.106L20.2008 46.8936L20.4131 46.651L20.4434 46.6207H20.4131L20.4434 46.5297L20.3524 46.56L20.2008 46.5903V46.4993H20.1704L20.1401 46.469H20.1098V46.4387H20.0794V46.4083L20.3726 46.0747L20.8782 45.7107L20.9692 45.923V46.0747L20.8984 46.1657V46.287L20.9287 46.378H20.9591L21.1714 46.4083L20.858 47.0352L20.767 47.1565H20.7973L20.767 47.1869L20.7973 47.2172L20.8883 47.2475L21.0602 47.2779L20.6052 47.8137L20.5546 47.8845L20.585 47.9148L20.676 48.0058L20.7973 48.0968L20.9186 48.2181L20.8276 48.3091L20.6557 48.5518L20.4839 48.7035L20.6557 48.8551L20.8276 48.9461L20.7366 49.0674L20.5445 49.3303L20.3726 49.573L20.3423 49.664V49.6943L20.3726 49.7246L20.5445 49.755H20.6355V49.7853L20.6052 49.8156L20.5546 49.9167L20.3828 50.1594H20.4131L20.5041 50.1897L20.6254 50.0987H20.6557L20.6861 50.1291L20.7164 50.0987L20.8074 50.0684L20.7771 50.2403V50.6043L20.7265 51.5547L20.6962 52.131L20.7265 52.3736L20.7568 52.5253L20.7872 52.677V52.7073H20.7568H20.7265L20.6962 52.6163L20.6659 52.6466V52.6972V52.6669L20.6355 52.6365V52.6669H20.5647V52.6365L20.5344 52.6062V52.4849V52.3635L20.5041 52.5354L20.4737 52.5051L20.4434 52.3332H20.4131V52.3635V52.4545L20.3221 52.3029L20.2918 52.2725V52.3029L20.1199 52.7174L20.0895 52.5051V52.5354L20.0592 52.6264L19.9379 52.7174V52.7477L19.9076 52.8387L19.7862 52.9297L19.6952 53.0207L19.6649 53.0511H19.5537V53.0814Z" fill="#010101"/>
<path d="M14.2243 52.8183V52.788L14.2546 52.6667L14.4265 52.3027L14.5175 52.06L14.6085 51.7668L14.6388 51.4736V51.1096L14.7298 50.8973L14.7602 50.321L13.7289 50.8973L13.1526 51.1905L12.647 51.4331L12.556 51.4635L12.4347 51.4938L12.2224 51.5241L12.3437 51.4938L12.4347 51.4028L12.1415 51.5545L12.2325 51.4331L12.3235 51.4028L12.3538 51.3725H12.3235L11.9898 51.5848H11.9595L11.9898 51.5545L12.1112 51.4635L12.283 51.3422L12.0404 51.4635H11.9898L11.8179 51.5848H11.7876L11.8786 51.514L11.9696 51.423L11.9999 51.3927H11.9696L11.9393 51.423L11.8483 51.4534V51.423L11.7067 51.514H11.6764L11.7674 51.423L11.8584 51.332H11.8078L12.2224 51.0388L12.5156 50.8872L12.6369 50.7962H12.6672H12.6167L12.738 50.7052L12.829 50.6142H12.7987L12.8897 50.5232L13.102 50.4019L13.2739 50.3109H13.102L13.193 50.2199L13.2233 50.1895L13.102 50.2199L13.0009 50.2906V50.2603L13.0919 50.139L12.92 50.23L13.011 50.139L12.9402 50.1693H12.8492H12.8189L12.9099 50.0783L12.9402 50.048L13.0312 50.0176H12.9402L12.8492 50.048L12.7279 50.1693V50.1188H12.6774V50.0884H12.6167H12.647V50.0581L12.738 49.9368L12.8593 49.8458L13.193 49.6941L13.5267 49.5222L13.6985 49.3706L13.8199 49.2189H13.7895L13.6682 49.2492L13.7592 49.1582H13.7289L13.6075 49.1886L13.6379 49.0976H13.6682H13.5772L13.5469 49.1279L13.4559 49.1582V49.0672L13.4862 49.0369L13.3143 49.1279L13.4053 49.0369L13.284 49.0672L13.4053 48.9762L13.2334 49.0672L13.3244 48.9762L13.4458 48.8549L13.4761 48.8246L13.5671 48.7336L13.6884 48.7033H13.7188V48.6729L13.7491 48.6426H13.83V48.6123H13.7996L13.83 48.5819L13.9513 48.5516L14.1636 48.4303L14.285 48.3393H14.2546L14.1838 48.3898L14.2142 48.2685L14.1838 48.2988L14.0929 48.3292L14.1838 48.2078L14.0625 48.2988L13.9715 48.3292L14.0929 48.1775L13.921 48.2988V48.2685L13.8906 48.2988V48.2685H13.8603L13.9513 48.1472L13.83 48.2382V48.2078H13.7996V48.1775L13.83 48.1472H13.7996L13.83 48.1168L13.8603 48.0865V48.0562L13.9513 48.0258L14.5782 47.4495H14.5478L14.5782 47.4192H14.5478L14.4568 47.4495L14.5478 47.3282L14.376 47.4192V47.3889H14.3456H14.3153V47.3585L14.3456 47.3282L14.2546 47.3585H14.1333V47.3282L14.5883 46.9642L14.8309 46.7519L15.0433 46.5092L15.0736 46.4182L15.0433 46.4486V46.4182L15.0736 46.3879V46.3576L14.9826 46.3879L14.8916 46.4182V46.3879H14.841L14.8107 46.3576H14.7804V46.3272V46.1857L14.75 46.216V46.1857L15.0433 45.852L15.5488 45.4375L15.5791 45.6498L15.6095 45.8217L15.5791 45.9734V46.0947L15.6095 46.125L15.6398 46.1554L15.8521 46.1857L15.5185 46.7721L15.4275 46.8934V46.9238V46.9541H15.4578L15.5488 46.9844L15.7207 47.0754L15.2657 47.6113L15.2354 47.6416H15.2657L15.3567 47.7326L15.478 47.8236L15.5993 47.945L15.5083 48.0865L15.3365 48.2988L15.1646 48.5112L15.3365 48.6325L15.5083 48.7538L15.4174 48.8751L15.205 49.1178L15.0331 49.3301L15.0028 49.4717V49.502L15.0331 49.5323H15.1545L15.2758 49.5627L15.2455 49.593V49.6233L15.2151 49.6537L15.0433 49.9469H15.0736H15.1646L15.2859 49.9165H15.3365H15.3668H15.3971L15.4881 49.8255H15.5185L15.4982 49.8963L15.4679 50.048L15.4376 50.412L15.4072 51.3624L15.3365 51.8982L15.3668 52.1409L15.3971 52.3532L15.4275 52.5251V52.5554L15.3971 52.5251H15.3668L15.3365 52.4038L15.3061 52.4948L15.2758 52.4038V52.4341L15.2455 52.4644V52.4543V52.424H15.2151V52.3027V52.1308L15.1848 52.3431L15.1545 52.2521L15.1241 52.1308H15.0938V52.1611V52.2521L15.0028 52.0398H14.9421L14.7703 52.4543L14.7399 52.3027V52.333L14.6489 52.4543L14.5579 52.5453L14.5276 52.6363L14.3861 52.7576L14.2951 52.788L14.2647 52.8183H14.2243Z" fill="#010101"/>
<path d="M11.4246 53.688H22.5363V42.7381H11.4246V53.688ZM11 42.364H22.9812V54.143H11V42.364Z" fill="#010101"/>
</svg>
