<svg width="96" height="96" viewBox="0 0 96 96" fill="none" xmlns="http://www.w3.org/2000/svg">
<circle cx="48" cy="48" r="47" fill="white" stroke="white" stroke-width="2"/>
<path d="M26.6299 49.3952L7.37533 45.0994C7.37533 45.0994 4.8438 47.9377 9.29309 48.3213L26.4765 49.6255C26.4765 49.5487 26.5533 49.4718 26.6299 49.3952Z" fill="#C7C8C9"/>
<path d="M28.0873 48.398L13.9723 40.7268C13.9723 40.7268 10.367 42.5679 14.1258 43.9488L27.934 48.5515C28.0106 48.4747 28.0106 48.398 28.0873 48.398Z" fill="#C7C8C9"/>
<path d="M30.1584 47.9375L22.5641 38.1184C22.5641 38.1184 18.9587 38.9623 21.1066 40.7266L29.9283 47.9375C30.0049 48.0142 30.0818 48.0142 30.1584 47.9375Z" fill="#C7C8C9"/>
<path d="M31.6159 47.9377C31.6925 47.9377 31.7694 47.9377 31.846 47.9377V37.3516C31.846 37.3516 28.3173 37.4282 29.0843 39.8062L31.6159 47.9377Z" fill="#C7C8C9"/>
<path d="M33.3037 48.0141L40.8983 38.1952C40.8983 38.1952 37.3695 37.0445 36.6791 39.0391L33.0735 48.0141C33.1504 48.0141 33.227 48.0141 33.3037 48.0141Z" fill="#C7C8C9"/>
<path d="M42.1256 53.3841C42.816 53.2306 43.4298 53.2306 43.9667 53.1539C44.5036 53.1539 45.501 53.2306 45.501 53.2306C44.9641 52.1565 44.5805 51.3894 43.8134 51.0827C43.5066 50.9292 42.2791 50.8525 42.0492 50.8525C41.3587 50.2388 40.745 50.1621 40.4382 50.1621C40.1314 50.1621 37.7534 50.1621 37.7534 50.1621H4.23014C4.07664 50.5457 4 50.9294 4 51.3128C4 51.5429 4 51.9266 4.15349 52.2334C4.38363 52.617 4.69042 52.8471 4.99741 53.0004C5.30419 53.1539 5.68782 53.3072 6.1481 53.3072C6.60838 53.3838 7.60558 53.3838 7.98921 53.3838C8.37285 53.3838 10.674 53.0771 10.674 53.0771L14.7397 52.5401L17.6546 52.1565C17.6546 52.1565 20.4163 51.7729 20.7997 51.7729C22.0271 51.6194 23.4846 51.4661 23.4846 51.4661C23.4846 51.4661 25.9392 51.1593 26.0927 51.1593C26.6296 52.4635 27.4736 52.9236 29.2378 53.4607C29.1612 53.5373 26.0927 57.6032 25.9392 57.7565C25.7857 57.91 25.5556 58.3703 25.8626 58.6004C26.1694 58.9072 26.6296 58.677 26.9366 58.6004C27.1668 58.5238 29.6215 57.8333 29.6215 57.8333C29.6215 57.8333 41.8955 53.4607 42.1256 53.3841Z" fill="#C7C8C9"/>
<path d="M84.2971 45.6975C83.7686 45.4051 83.3564 45.2761 82.6648 45.2761C81.4343 45.2761 80.4772 46.0212 80.4772 47.3239C80.4772 48.5219 81.586 49.3418 82.8267 49.3418C83.477 49.3418 84.0217 49.2127 84.5032 48.9783L84.2817 49.9344C83.7522 50.0827 83.1314 50.1756 82.5819 50.1756C80.5995 50.1756 79.0768 49.1311 79.0768 47.3241C79.0768 45.5023 80.5993 44.4468 82.5819 44.4468C83.2087 44.4468 83.7522 44.5403 84.2295 44.7495L84.2971 45.6975Z" fill="#00A55E"/>
<path d="M84.9861 47.3241C84.9861 45.5019 86.5024 44.4468 88.4933 44.4468C90.4756 44.4468 92 45.5019 92 47.3241C92 49.1311 90.4756 50.1756 88.4933 50.1756C86.5024 50.1756 84.9861 49.1311 84.9861 47.3241ZM90.5376 47.3241C90.5376 46.1944 89.9465 45.1882 88.4931 45.1882C87.0379 45.1882 86.4483 46.1944 86.4483 47.3241C86.4483 48.4352 87.0379 49.4258 88.4931 49.4258C89.9467 49.4258 90.5376 48.4352 90.5376 47.3241Z" fill="#00A55E"/>
<path d="M48.1978 42.7346H53.8644V44.1157H50.3404V45.6235H53.6651V47.0047H50.3404V48.6636H53.994V50.0465H48.1978V42.7346Z" fill="#003876"/>
<path d="M72.0069 46.0957C71.7761 46.0335 71.4866 46.0335 71.2474 46.0335C70.2835 46.0335 69.7386 46.6775 69.7386 47.7419V50.0467H67.6653V44.5836H69.5578V45.5942H69.5711C69.9317 44.9052 70.453 44.4609 71.3487 44.4609C71.5949 44.4609 71.7918 44.4905 72.0071 44.5148L72.0069 46.0957Z" fill="#003876"/>
<path d="M76.4156 50.0465C76.4004 49.7556 76.3636 49.4681 76.3636 49.1866H76.3486C75.8739 49.8692 75.2904 50.1756 74.4409 50.1756C73.2526 50.1756 72.1985 49.7089 72.1985 48.527C72.1985 46.8536 74.1888 46.5817 75.2904 46.5817C75.6206 46.5817 76.0032 46.6193 76.265 46.6629C76.2559 45.9151 75.635 45.7199 74.8847 45.7199C74.2214 45.7199 73.5368 45.8294 72.9637 46.1333V44.8518C73.6985 44.5836 74.4543 44.4609 75.3362 44.4609C76.8761 44.4609 78.2002 45.0593 78.2002 46.7235V48.76C78.2002 49.1868 78.2152 49.6222 78.3226 50.0467L76.4156 50.0465ZM74.9852 48.9129C75.7652 48.9129 76.2652 48.2673 76.2652 47.6266C76.0034 47.6157 75.704 47.5923 75.3841 47.5923C74.6875 47.5923 74.1349 47.7916 74.1349 48.3168C74.1349 48.6943 74.5042 48.9129 74.9852 48.9129Z" fill="#003876"/>
<path d="M61.956 44.5836H63.1897V43.3682H65.2184V44.5836H66.6718V45.9079H65.2184V47.9188C65.2184 48.5757 65.3931 48.9131 66.0531 48.9131C66.2594 48.9131 66.4825 48.8744 66.689 48.8422L66.748 50.0689C66.3671 50.1065 65.9686 50.176 65.4484 50.176C63.6025 50.176 63.1429 49.4262 63.1429 48.1318V45.9079H61.956V44.5836Z" fill="#003876"/>
<path d="M62.0708 50.0462L59.3067 47.2755L62.0096 44.5833H59.5222L58.1416 46.0726L56.7564 44.5833H54.2771L56.9814 47.2755L54.1935 50.0462H56.6806L58.1416 48.4755L59.589 50.0462H62.0708Z" fill="#003876"/>
<path d="M48.2092 51.8611H49.6422C50.6285 51.8611 51.5548 52.1712 51.5548 53.2247C51.5548 53.9073 51.1948 54.333 50.4524 54.4598V54.4775C51.2098 54.6028 51.7313 55.0569 51.7313 55.7847C51.7313 56.9737 50.6589 57.3456 49.4039 57.3456H48.209V51.8611H48.2092ZM48.8071 56.8674H49.4258C50.2231 56.8674 51.1334 56.6765 51.1334 55.8043C51.1334 54.8307 50.2149 54.7315 49.3289 54.7315H48.8073L48.8071 56.8674ZM48.8226 54.2545H49.4871C50.1154 54.2545 50.9581 54.1121 50.9581 53.2436C50.9581 52.4465 50.1481 52.3347 49.6422 52.3347H48.8226V54.2545Z" fill="#003876"/>
<path d="M55.1744 56.7058H55.1598C54.9153 57.1815 54.3009 57.4375 53.7564 57.4375C52.5013 57.4375 52.3018 56.6682 52.3018 56.3088C52.3018 54.9652 53.8723 54.9087 55.0217 54.9087H55.1205V54.6937C55.1205 54.0202 54.853 53.6752 54.1256 53.6752C53.6585 53.6752 53.2291 53.7686 52.8222 54.0008V53.5225C53.1588 53.3758 53.734 53.2488 54.1256 53.2488C55.2044 53.2488 55.6714 53.6899 55.6714 54.7354V56.5075C55.6714 56.8283 55.6714 57.0709 55.709 57.3457H55.1744V56.7058ZM55.1205 55.3293H54.9683C54.0245 55.3293 52.8989 55.417 52.8989 56.2926C52.8989 56.8168 53.3144 57.0124 53.8186 57.0124C55.0984 57.0124 55.1205 56.0014 55.1205 55.5701V55.3293Z" fill="#003876"/>
<path d="M56.7412 54.284C56.7412 53.9737 56.7412 53.6599 56.6949 53.3369H57.2294V54.0504H57.245C57.4207 53.6897 57.7519 53.2488 58.67 53.2488C59.7558 53.2488 60.1698 53.9047 60.1698 54.7882V57.3453H59.6249V54.9121C59.6249 54.1621 59.3267 53.6754 58.585 53.6754C57.5906 53.6754 57.276 54.4597 57.276 55.1343V57.3453H56.7408V54.284H56.7412Z" fill="#003876"/>
<path d="M61.1737 51.459H61.7252V54.9844L63.6937 53.3371H64.3973L62.2385 55.1188L64.6564 57.3454H63.9L61.7252 55.2859V57.3454H61.1737V51.459Z" fill="#003876"/>
<path d="M65.0504 56.7637C65.3788 56.9144 65.7857 57.0122 66.2046 57.0122C66.7255 57.0122 67.1776 56.757 67.1776 56.2973C67.1776 55.3556 65.0572 55.4974 65.0572 54.335C65.0572 53.5443 65.769 53.2488 66.5046 53.2488C66.7321 53.2488 67.192 53.2967 67.5844 53.4247L67.529 53.8601C67.2544 53.7436 66.8556 53.6752 66.5599 53.6752C65.9987 53.6752 65.6089 53.8235 65.6089 54.3347C65.6089 55.0825 67.7741 54.9863 67.7741 56.2971C67.7741 57.1468 66.9029 57.4371 66.2357 57.4371C65.8148 57.4371 65.3891 57.3878 65.002 57.2575L65.0504 56.7637Z" fill="#003876"/>
<path d="M68.5409 56.6079C68.5409 56.2533 68.8 55.9905 69.1382 55.9905C69.4596 55.9905 69.7279 56.2533 69.7279 56.6079C69.7279 56.9626 69.4596 57.224 69.1382 57.224C68.8 57.224 68.5409 56.9626 68.5409 56.6079ZM69.1382 57.345C69.5354 57.345 69.8726 57.0306 69.8726 56.6079C69.8726 56.1818 69.5352 55.8684 69.1382 55.8684C68.7324 55.8684 68.3954 56.1818 68.3954 56.6079C68.3956 57.0306 68.7324 57.345 69.1382 57.345ZM68.9777 56.6677H69.1314L69.3519 57.0306H69.4972L69.2611 56.656C69.3835 56.6441 69.4754 56.5718 69.4754 56.4234C69.4754 56.2531 69.3835 56.1816 69.1772 56.1816H68.8548V57.0304H68.9775L68.9777 56.6677ZM68.9777 56.552V56.2923H69.161C69.2368 56.2923 69.3367 56.3085 69.3367 56.4191C69.3367 56.5453 69.2368 56.5523 69.1314 56.5523L68.9777 56.552Z" fill="#003876"/>
</svg>
