<svg width="96" height="96" viewBox="0 0 96 96" fill="none" xmlns="http://www.w3.org/2000/svg">
<circle cx="48" cy="48" r="47" fill="white" stroke="white" stroke-width="2"/>
<g clip-path="url(#clip0_1_5549)">
<path d="M14.2667 52.0991C12.2487 52.0991 10.4045 51.3856 9.06855 50.0893C7.73264 48.7931 6.99951 47.004 6.99951 45.0492C6.99951 43.0944 7.73402 41.3053 9.06855 40.0098C10.4031 38.7142 12.2487 38 14.2667 38C16.2709 38 18.1061 38.7115 19.433 40.0028C20.76 41.2942 21.4959 43.0895 21.4959 45.0492C21.4959 47.0089 20.7634 48.8021 19.433 50.0963C18.1026 51.3904 16.2709 52.0991 14.2667 52.0991ZM14.2667 40.1692C11.4217 40.1692 9.35614 42.2214 9.35614 45.0492C9.35614 47.877 11.4252 49.9299 14.2667 49.9299C17.0902 49.9299 19.1399 47.8777 19.1399 45.0492C19.1399 42.2208 17.0902 40.1692 14.2667 40.1692Z" fill="black"/>
<path d="M7.23584 45.0492C7.23584 41.1508 10.2139 38.2381 14.2664 38.2381C18.2817 38.2381 21.2604 41.1299 21.2604 45.0492C21.2604 48.9685 18.2817 51.8617 14.2664 51.8617C10.2139 51.8617 7.23584 48.9497 7.23584 45.0492ZM19.3742 45.0492C19.3742 42.1003 17.1879 39.9311 14.2657 39.9311C11.3063 39.9311 9.12004 42.1003 9.12004 45.0492C9.12004 47.9981 11.3063 50.168 14.2657 50.168C17.1886 50.168 19.3749 47.9988 19.3749 45.0492H19.3742Z" fill="black"/>
<path d="M29.0118 51.9466V46.8146C29.0118 45.2601 28.2973 44.4721 26.889 44.4721C25.2779 44.4721 24.3537 45.453 24.3537 47.1641V51.9466H22.2992V42.6475H24.2875V43.5915C24.9986 42.9245 26.0117 42.5646 27.2021 42.5646C29.6215 42.5646 31.0643 44.085 31.0643 46.6315V51.9466H29.0118Z" fill="black"/>
<path d="M30.8305 46.6323V51.71H29.2477V46.8146C29.2477 45.0833 28.3897 44.234 26.889 44.234C25.2062 44.234 24.1179 45.2497 24.1179 47.1641V51.7093H22.5316V42.8856H24.0489V44.2173C24.6951 43.3186 25.8166 42.8034 27.2021 42.8034C29.3298 42.8034 30.8305 44.0342 30.8305 46.6323Z" fill="black"/>
<path d="M33.0195 51.9467V38.1525H38.399C41.9391 38.1525 44.1385 40.0223 44.1385 43.0325C44.1385 46.0426 41.9391 47.9132 38.399 47.9132H35.3762V51.9467H33.0195ZM38.3452 45.7823C39.9142 45.7823 41.7853 45.3054 41.7853 43.0325C41.7853 40.7595 39.9142 40.2834 38.3452 40.2834H35.3796V45.783L38.3452 45.7823Z" fill="black"/>
<path d="M43.9054 43.0324C43.9054 45.9249 41.8322 47.6751 38.4018 47.6751H35.1389V51.7093H33.2554V38.3898H38.4018C41.8322 38.3898 43.9054 40.1406 43.9054 43.0324ZM42.0205 43.0324C42.0205 41.1299 40.7577 40.0453 38.3452 40.0453H35.1389V46.0196H38.3438C40.7577 46.0196 42.0205 44.9357 42.0205 43.0324Z" fill="black"/>
<path d="M47.8118 52.0469C45.7372 52.0469 44.3434 50.9073 44.3434 49.2115C44.3434 48.1589 44.8303 46.3935 48.0925 46.3935H50.3636V46.3148C50.3636 45.0617 49.6553 44.422 48.2573 44.422C47.2807 44.422 46.2779 44.7638 45.6365 45.3137L45.4172 45.5024L44.5206 43.8741L44.6758 43.7488C45.6214 42.983 46.9566 42.5653 48.4352 42.5653C51.0388 42.5653 52.4147 43.888 52.4147 46.3823V51.9473H50.4498V51.1816C49.8291 51.7503 48.9325 52.0469 47.8118 52.0469ZM48.1566 48.0183C46.5641 48.0183 46.38 48.6615 46.38 49.1453C46.38 49.893 47.0138 50.3392 48.0745 50.3392C49.1718 50.3392 50.0056 49.8394 50.3622 48.9657V48.0183H48.1566Z" fill="black"/>
<path d="M52.1829 46.3816V51.7093H50.6815V50.5439C50.1539 51.3431 49.1808 51.8088 47.8117 51.8088C45.8324 51.8088 44.5792 50.7437 44.5792 49.2115C44.5792 47.7969 45.4862 46.6316 48.0924 46.6316H50.5994V46.3148C50.5994 44.9664 49.8242 44.1839 48.2545 44.1839C47.2152 44.1839 46.16 44.5501 45.4834 45.1327L44.8241 43.9347C45.731 43.2016 47.031 42.802 48.4359 42.802C50.8305 42.8034 52.1829 43.9674 52.1829 46.3816ZM50.5967 49.0124V47.7802H48.1552C46.5889 47.7802 46.1434 48.3963 46.1434 49.1453C46.1434 50.0274 46.869 50.5773 48.0745 50.5773C49.2635 50.5773 50.2035 50.0274 50.5994 49.0124H50.5967Z" fill="black"/>
<path d="M57.1306 52.0469C55.2195 52.0469 54.1236 50.9526 54.1236 49.0451V44.4387H52.6394V42.6475H54.1236V40.715H56.1788V42.6461H58.6858V44.4373H56.1788V48.9776C56.1788 49.545 56.3747 50.2209 57.312 50.2209C57.7053 50.2256 58.0888 50.0974 58.4017 49.8568L58.6424 49.6626L59.332 51.2575L59.201 51.3716C58.7051 51.8012 57.952 52.0469 57.1306 52.0469Z" fill="black"/>
<path d="M59.0438 51.1927C58.5652 51.6104 57.8397 51.8088 57.1307 51.8088C55.3658 51.8088 54.3596 50.8266 54.3596 49.0451V44.2006H52.8754V42.8856H54.3596V40.9545H55.9458V42.8856H58.45V44.2006H55.9431V48.979C55.9431 49.9278 56.4382 50.4604 57.3121 50.4604C57.7592 50.4651 58.195 50.318 58.5494 50.0427L59.0438 51.1927Z" fill="black"/>
<path d="M66.4448 51.9466V46.8146C66.4448 45.2601 65.7303 44.4721 64.3213 44.4721C62.7102 44.4721 61.7867 45.453 61.7867 47.1641V51.9466H59.7314V39.118H61.7867V43.5379C62.4977 42.9065 63.4874 42.5633 64.6351 42.5633C67.0544 42.5633 68.4973 44.0836 68.4973 46.6302V51.9453L66.4448 51.9466Z" fill="black"/>
<path d="M68.2634 46.6323V51.71H66.6772V46.8147C66.6772 45.0833 65.8199 44.234 64.3185 44.234C62.6363 44.234 61.548 45.2497 61.548 47.1641V51.7093H59.9673V39.3561H61.5535V44.1345C62.2129 43.2852 63.3019 42.802 64.6378 42.802C66.7627 42.8034 68.2634 44.0342 68.2634 46.6323Z" fill="black"/>
<path d="M80.3342 42.5807L77.7148 47.162L72.4746 38L80.3342 42.5807Z" fill="black"/>
<path d="M77.7141 47.8387L80.3342 52.4193L72.4746 57L77.7141 47.8387Z" fill="black"/>
<path d="M81.1391 52.081L78.5197 47.5003L81.1391 42.919L89 47.5003L81.1391 52.081Z" fill="black"/>
<path d="M7.41382 56.9004V54.4918H9.10767V54.8524H7.81176V55.5979H8.96628V55.9551H7.81176V56.9004H7.41382Z" fill="black"/>
<path d="M7.77722 54.8176V55.6328H8.93105V55.9203H7.77722V56.8656H7.44824V54.5266H9.07312V54.8176H7.77722Z" fill="black"/>
<path d="M10.5428 56.9004V54.4918H12.2367V54.8524H10.9401V55.5012H12.0953V55.8548H10.9401V56.5405H12.2822V56.9004H10.5428Z" fill="black"/>
<path d="M12.2484 56.5753V56.8656H10.5767V54.5266H12.2022V54.8176H10.9056V55.536H12.0608V55.8214H10.9056V56.5767L12.2484 56.5753Z" fill="black"/>
<path d="M13.7864 56.9004V54.4918H14.7933C15.5582 54.4918 16.0713 54.9791 16.0713 55.6961C16.0713 56.4131 15.5582 56.9004 14.7933 56.9004H13.7864ZM14.7719 56.5405C15.3188 56.5405 15.672 56.2092 15.672 55.6961C15.672 55.183 15.3188 54.8524 14.7719 54.8524H14.1843V56.5405H14.7719Z" fill="black"/>
<path d="M13.8209 54.5266H14.7934C15.5341 54.5266 16.0348 55.0014 16.0348 55.6961C16.0348 56.3909 15.5313 56.8656 14.7934 56.8656H13.8209V54.5266ZM14.772 56.5753C15.341 56.5753 15.7065 56.221 15.7065 55.6961C15.7065 55.1712 15.341 54.8176 14.772 54.8176H14.1513V56.5753H14.772Z" fill="black"/>
<path d="M17.5438 56.9004V54.4918H19.2377V54.8524H17.9418V55.5012H19.0963V55.8548H17.9418V56.5405H19.2839V56.9004H17.5438Z" fill="black"/>
<path d="M19.2493 56.5753V56.8656H17.5782V54.5266H19.2031V54.8176H17.9072V55.536H19.0617V55.8214H17.9072V56.5767L19.2493 56.5753Z" fill="black"/>
<path d="M22.344 56.9004L21.8481 56.1834C21.8074 56.1834 21.764 56.189 21.7205 56.189H21.1853V56.9004H20.7881V54.4918H21.7205C22.3343 54.4918 22.715 54.8176 22.715 55.3418C22.715 55.7003 22.5426 55.9683 22.2281 56.0971L22.7868 56.9004H22.344ZM21.7102 55.8353C22.1074 55.8353 22.3178 55.6648 22.3178 55.3418C22.3178 54.9373 21.9874 54.8545 21.7102 54.8545H21.1853V55.8353H21.7102Z" fill="black"/>
<path d="M22.362 56.8656L21.8654 56.1472C21.8192 56.1507 21.7695 56.1542 21.7206 56.1542H21.1509V56.8656H20.8219V54.5266H21.7185C22.3171 54.5266 22.6792 54.8343 22.6792 55.3418C22.6872 55.504 22.6419 55.6643 22.5504 55.7979C22.4588 55.9314 22.3262 56.0307 22.173 56.0804L22.7206 56.8656H22.362ZM22.3523 55.3418C22.3523 55.0076 22.1316 54.8176 21.7102 54.8176H21.1509V55.8701H21.7102C22.1316 55.8701 22.3523 55.6759 22.3523 55.3418Z" fill="black"/>
<path d="M25.9517 56.9004L25.6986 56.3157H24.5179L24.2648 56.9004H23.851L24.9248 54.4918H25.2951L26.3724 56.9004H25.9517ZM25.5524 55.9787L25.1082 54.954L24.6641 55.9787H25.5524Z" fill="black"/>
<path d="M25.7213 56.2809H24.4971L24.2419 56.8656H23.9026L24.9454 54.5266H25.2764L26.3199 56.8656H25.9751L25.7213 56.2809ZM25.6061 56.0136L25.1088 54.8677L24.6123 56.0136H25.6061Z" fill="black"/>
<path d="M27.6676 56.9004V54.4918H28.0649V56.5405H29.3118V56.9004H27.6676Z" fill="black"/>
<path d="M27.7014 54.5266H28.0304V56.5753H29.2766V56.8656H27.7014V54.5266Z" fill="black"/>
<path d="M33.6498 56.9276C32.925 56.9276 32.3981 56.4097 32.3981 55.6961C32.3981 54.9826 32.9264 54.4653 33.6533 54.4653C34.0216 54.4653 34.343 54.5983 34.554 54.8413L34.5761 54.8656L34.3112 55.1253L34.2878 55.1002C34.2093 55.0135 34.1132 54.9449 34.0061 54.8989C33.899 54.8529 33.7834 54.8306 33.6671 54.8336C33.1629 54.8336 32.7967 55.197 32.7967 55.6975C32.7967 56.198 33.1629 56.5614 33.6671 56.5614C33.7836 56.564 33.8993 56.5412 34.0064 56.4948C34.1135 56.4483 34.2094 56.3792 34.2878 56.292L34.3112 56.2663L34.574 56.5245L34.5519 56.5496C34.437 56.6739 34.297 56.772 34.1414 56.8372C33.9858 56.9024 33.8182 56.9332 33.6498 56.9276Z" fill="black"/>
<path d="M32.4326 55.6961C32.4326 55.0041 32.9526 54.5001 33.6533 54.5001C34.0085 54.5001 34.3182 54.6233 34.5286 54.8642L34.3147 55.0731C34.2326 54.9827 34.1322 54.9111 34.0204 54.8631C33.9086 54.8151 33.7879 54.7917 33.6665 54.7946C33.1464 54.7946 32.7616 55.1754 32.7616 55.6933C32.7616 56.2113 33.1464 56.5921 33.6665 56.5921C33.7879 56.5949 33.9086 56.5715 34.0204 56.5235C34.1322 56.4754 34.2325 56.4039 34.3147 56.3136L34.5286 56.5224C34.3216 56.7626 34.0085 56.89 33.6499 56.89C32.9526 56.8928 32.4326 56.3881 32.4326 55.6961Z" fill="black"/>
<path d="M37.5603 56.9004L37.0644 56.1834C37.0237 56.1834 36.9803 56.189 36.9368 56.189H36.4016V56.9004H36.0044V54.4918H36.9368C37.5507 54.4918 37.9314 54.8176 37.9314 55.3418C37.9314 55.6996 37.7589 55.9683 37.4444 56.0971L38.0031 56.9004H37.5603ZM36.9265 55.8353C37.3244 55.8353 37.5341 55.6648 37.5341 55.3418C37.5341 54.9373 37.2037 54.8545 36.9265 54.8545H36.4016V55.8353H36.9265Z" fill="black"/>
<path d="M37.5782 56.8656L37.0816 56.1472C37.0354 56.1507 36.9858 56.1542 36.9368 56.1542H36.3671V56.8656H36.0354V54.5266H36.932C37.5306 54.5266 37.8927 54.8343 37.8927 55.3418C37.9007 55.5041 37.8553 55.6645 37.7636 55.798C37.6719 55.9316 37.5391 56.0309 37.3858 56.0804L37.9368 56.8656H37.5782ZM37.5686 55.3418C37.5686 55.0076 37.3479 54.8176 36.9265 54.8176H36.3671V55.8701H36.9265C37.3458 55.8701 37.5686 55.6759 37.5686 55.3418Z" fill="black"/>
<path d="M39.4355 56.9004V54.4918H41.1294V54.8524H39.8335V55.5012H40.988V55.8548H39.8335V56.5405H41.1756V56.9004H39.4355Z" fill="black"/>
<path d="M41.1391 56.5753V56.8656H39.4701V54.5266H41.0957V54.8176H39.7991V55.536H40.9536V55.8214H39.7991V56.5767L41.1391 56.5753Z" fill="black"/>
<path d="M42.6798 56.9004V54.4918H43.6847C44.4488 54.4918 44.9626 54.9791 44.9626 55.6961C44.9626 56.4131 44.4488 56.9004 43.6847 56.9004H42.6798ZM43.6647 56.5405C44.2116 56.5405 44.5613 56.2092 44.5613 55.6961C44.5613 55.183 44.2081 54.8524 43.6647 54.8524H43.0771V56.5405H43.6647Z" fill="black"/>
<path d="M42.7144 54.5266H43.6847C44.4248 54.5266 44.9262 55.0014 44.9262 55.6961C44.9262 56.3909 44.4227 56.8656 43.6847 56.8656H42.7144V54.5266ZM43.6647 56.5753C44.2344 56.5753 44.5992 56.221 44.5992 55.6961C44.5992 55.1712 44.2344 54.8176 43.6647 54.8176H43.044V56.5753H43.6647Z" fill="black"/>
<path d="M46.8344 54.4918H46.4371V56.9004H46.8344V54.4918Z" fill="black"/>
<path d="M46.4709 54.5266H46.7999V56.8656H46.4709V54.5266Z" fill="black"/>
<path d="M48.9539 56.9004V54.8524H48.1642V54.4918H50.138V54.8524H49.3484V56.9004H48.9539Z" fill="black"/>
<path d="M48.9883 54.8176H48.1986V54.5266H50.1049V54.8176H49.3138V56.8656H48.9883V54.8176Z" fill="black"/>
<path d="M54.3809 56.9276C53.7402 56.9276 53.3733 56.537 53.3733 55.8569V54.4918H53.7705V55.843C53.7705 56.3254 53.9712 56.56 54.3844 56.56C54.7975 56.56 55.0051 56.3254 55.0051 55.843V54.4918H55.3927V55.8569C55.3885 56.537 55.0209 56.9276 54.3809 56.9276Z" fill="black"/>
<path d="M53.4064 55.8569V54.5266H53.7354V55.843C53.7354 56.3609 53.9691 56.5948 54.3836 56.5948C54.7981 56.5948 55.0354 56.3609 55.0354 55.843V54.5266H55.354V55.8569C55.354 56.535 54.9892 56.8928 54.3802 56.8928C53.7712 56.8928 53.4064 56.535 53.4064 55.8569Z" fill="black"/>
<path d="M58.7631 56.9004L57.4313 55.2199V56.9004H57.0341V54.4918H57.3548L58.6858 56.1723V54.4918H59.0831V56.9004H58.7631Z" fill="black"/>
<path d="M59.0487 54.5266V56.8656H58.779L57.3997 55.1211V56.8656H57.0707V54.5266H57.3403L58.7197 56.2711V54.5266H59.0487Z" fill="black"/>
<path d="M61.1425 54.4918H60.7452V56.9004H61.1425V54.4918Z" fill="black"/>
<path d="M60.7798 54.5266H61.1088V56.8656H60.7798V54.5266Z" fill="black"/>
<path d="M63.8785 56.9276C63.1598 56.9276 62.6171 56.3978 62.6171 55.6961C62.6171 54.9944 63.1598 54.4653 63.8785 54.4653C64.5971 54.4653 65.1337 54.9944 65.1337 55.6961C65.1337 56.3978 64.5944 56.9276 63.8785 56.9276ZM63.8785 54.8322C63.3785 54.8322 63.015 55.1956 63.015 55.6961C63.015 56.1967 63.3785 56.56 63.8785 56.56C63.9909 56.56 64.1022 56.5377 64.206 56.4943C64.3099 56.4509 64.4042 56.3872 64.4837 56.307C64.5632 56.2268 64.6262 56.1315 64.6692 56.0267C64.7122 55.9219 64.7344 55.8096 64.7344 55.6961C64.7344 55.5827 64.7122 55.4703 64.6692 55.3655C64.6262 55.2607 64.5632 55.1655 64.4837 55.0852C64.4042 55.005 64.3099 54.9414 64.206 54.898C64.1022 54.8545 63.9909 54.8322 63.8785 54.8322Z" fill="black"/>
<path d="M62.6515 55.6961C62.6515 55.0111 63.1715 54.5001 63.8784 54.5001C64.5854 54.5001 65.0992 55.0076 65.0992 55.6961C65.0992 56.3846 64.5798 56.8928 63.8784 56.8928C63.177 56.8928 62.6515 56.3783 62.6515 55.6961ZM64.7702 55.6961C64.7714 55.5166 64.7198 55.3409 64.6218 55.1911C64.5238 55.0414 64.3839 54.9244 64.2199 54.8551C64.0559 54.7858 63.8752 54.7672 63.7007 54.8018C63.5263 54.8365 63.3659 54.9226 63.2401 55.0494C63.1143 55.1762 63.0287 55.3379 62.9941 55.514C62.9596 55.69 62.9777 55.8725 63.0461 56.0381C63.1145 56.2037 63.2302 56.3451 63.3784 56.4442C63.5266 56.5434 63.7006 56.5958 63.8784 56.5948C63.9963 56.5983 64.1137 56.5774 64.2234 56.5335C64.333 56.4896 64.4326 56.4235 64.5161 56.3394C64.5996 56.2552 64.6652 56.1548 64.7089 56.0442C64.7526 55.9336 64.7734 55.8151 64.7702 55.6961Z" fill="black"/>
<path d="M68.3365 56.9004L67.0054 55.2199V56.9004H66.6082V54.4918H66.9282L68.2599 56.1723V54.4918H68.6572V56.9004H68.3365Z" fill="black"/>
<path d="M68.6227 54.5266V56.8656H68.3531L66.9737 55.1211V56.8656H66.644V54.5266H66.9144L68.2937 56.2711V54.5266H68.6227Z" fill="black"/>
</g>
<defs>
<clipPath id="clip0_1_5549">
<rect width="82" height="19" fill="white" transform="translate(7 38)"/>
</clipPath>
</defs>
</svg>
