<svg width="96" height="96" viewBox="0 0 96 96" fill="none" xmlns="http://www.w3.org/2000/svg">
<circle cx="48" cy="48" r="47" fill="white" stroke="white" stroke-width="2"/>
<g clip-path="url(#clip0_1_9771)">
<path d="M73.7892 61.3081C72.0139 61.3081 70.576 62.6396 70.576 64.287C70.576 65.9273 72.0139 67.2588 73.7892 67.2588C75.5609 67.2588 76.9989 65.9273 76.9989 64.287C76.9989 62.6396 75.5609 61.3081 73.7892 61.3081ZM73.7892 66.7262C72.3335 66.7262 71.1547 65.6326 71.1547 64.287C71.1547 62.9378 72.3335 61.8442 73.7892 61.8442C75.2449 61.8442 76.4201 62.9378 76.4201 64.287C76.4201 65.6326 75.2449 66.7262 73.7892 66.7262ZM19.1715 61.6951V71.2602C19.1715 76.6038 22.4948 77.4914 25.2784 77.4914C29.397 77.4914 31.3036 74.8178 31.3036 71.207V61.6916H28.5804V71.5301C28.5804 72.7727 28.165 75.0912 25.2784 75.0451C22.651 74.9989 22.1717 72.6307 22.1717 71.1075V61.6951H19.1715ZM42.6902 62.32C42.6902 62.32 40.9504 61.475 38.9728 61.475C36.5123 61.475 33.4162 62.7141 33.4162 66.1049C33.4162 68.4553 35.1808 69.5666 36.3809 70.1383C37.02 70.4436 37.794 70.7845 38.4331 71.1218C38.7633 71.2993 40.0734 71.7324 40.0734 73.1207C40.0734 74.6119 38.4118 75.1161 37.6662 75.1161C35.0104 75.1161 33.1996 73.9302 33.1996 73.9302L33.4801 76.9127C33.4801 76.9127 34.5666 77.4559 37.8153 77.463C40.9149 77.4523 43.1482 75.496 43.1482 72.8047C43.1482 70.7347 41.7102 69.5063 40.4782 68.9204C39.5125 68.4589 38.9515 68.2032 38.11 67.8127C37.2685 67.4221 36.3986 66.7511 36.3986 65.7108C36.3986 64.5959 37.4425 63.7935 38.9728 63.7935C41.2309 63.7935 42.1363 64.7947 42.6902 65.1072V62.32ZM64.8632 61.6703H61.5967L62.1151 62.9662L57.0378 76.2629L51.8008 61.6703H48.5343L49.0527 62.9662L43.6417 77.1434H46.5958L47.5402 74.445H53.1358L54.0767 77.1434H59.6617L60.6097 74.445H66.2017L67.1462 77.1434H70.4198L64.8632 61.6703ZM48.2751 72.3467L50.4481 66.2895L52.3867 72.3467H48.2751ZM61.3411 72.3467L63.5069 66.2895L65.449 72.3467H61.3411Z" fill="#1A3258"/>
<path d="M74.4248 64.3757C74.4248 64.3757 75.0639 64.1591 75.0639 63.5804C75.0639 62.9981 74.478 62.6715 73.7608 62.6715C73.0436 62.6715 72.6069 62.8348 72.6069 62.8348V65.6823H73.459V64.642H73.7147L74.6165 65.6717H75.6994L74.4248 64.3757ZM73.8567 64.1591H73.459V63.2111C73.459 63.2111 74.1656 63.1508 74.1656 63.6159C74.1656 64.0917 73.8567 64.1591 73.8567 64.1591ZM19.0011 44.2904L19.1431 49.1262C19.1431 49.1262 20.3503 48.2492 21.703 48.2492C23.0593 48.2492 24.5861 49.2079 24.5861 49.2079L36.704 56.1563L37.7301 51.7891L24.5861 44.2478C24.5861 44.2478 23.0593 43.2998 21.703 43.2998C20.3432 43.2998 19.0046 44.294 19.0046 44.294" fill="#1A3258"/>
<path d="M19.0011 37.9702L19.1431 42.806C19.1431 42.806 20.3503 41.9291 21.703 41.9291C23.0593 41.9291 24.5861 42.8841 24.5861 42.8841L38.0106 50.5852L39.0332 46.2181L24.5825 37.9276C24.5825 37.9276 23.0629 36.9761 21.703 36.9761C20.3432 36.9761 19.0046 37.9702 19.0046 37.9702" fill="#1A3258"/>
<path d="M19.0011 31.6508L19.1431 36.4866C19.1431 36.4866 20.3503 35.606 21.703 35.606C23.0593 35.606 24.5861 36.5647 24.5861 36.5647L39.3207 45.0149L40.3433 40.6478L24.5861 31.6081C24.5861 31.6081 23.0593 30.6602 21.703 30.6602C20.3432 30.6602 19.0046 31.6508 19.0046 31.6508" fill="#1A3258"/>
<path d="M44.256 23.9565L45.6052 29.6622L64.0608 40.2428C64.0608 40.2428 65.5094 41.1943 66.9367 41.1943C68.364 41.1943 69.6387 40.2002 69.6387 40.2002L69.4966 35.3644C69.4966 35.3644 68.3427 36.2413 66.9367 36.2413C65.5272 36.2413 64.0608 35.2863 64.0608 35.2863L49.7841 27.0987L48.7971 23.4311C48.7971 23.2748 48.9391 23.2038 48.9924 23.1932L51.4067 22.4476C51.7334 22.4476 51.9215 22.7245 51.9215 22.9553L52.0494 23.218C52.1381 23.2642 52.5003 23.0902 52.5251 23.076V21.6274C52.5252 21.3875 52.4775 21.15 52.385 20.9286C52.2924 20.7073 52.1568 20.5066 51.986 20.3381C51.8152 20.1696 51.6127 20.0368 51.3901 19.9473C51.1675 19.8577 50.9294 19.8133 50.6895 19.8166H48.2752C48.2752 19.8166 47.9201 19 46.894 19H42.3067C41.0995 19 40.8049 20.122 40.8049 20.122L37.62 32.7689L24.5861 25.2915C24.5861 25.2915 23.173 24.3329 21.703 24.3329C20.2331 24.3329 19.0046 25.327 19.0046 25.327L19.1431 30.1664C19.1431 30.1664 20.2296 29.2894 21.6995 29.2894C23.1694 29.2894 24.5861 30.2481 24.5861 30.2481L40.6238 39.4404L44.256 23.9565Z" fill="#1A3258"/>
<path d="M45.9673 31.228L47.3165 36.9586L64.0608 46.5592C64.0608 46.5592 65.5591 47.5178 66.9367 47.5178C68.3143 47.5178 69.6386 46.5201 69.6386 46.5201L69.5002 41.6843C69.5002 41.6843 68.4279 42.5613 66.9367 42.5613C65.4455 42.5613 64.0608 41.6098 64.0608 41.6098L45.9673 31.228Z" fill="#1A3258"/>
<path d="M47.6823 38.5312L49.0315 44.2653L64.0608 52.8789C64.0608 52.8789 65.5591 53.834 66.9367 53.834C68.3143 53.834 69.6387 52.8399 69.6387 52.8399L69.4967 48.004C69.4967 48.004 68.4315 48.881 66.9367 48.881C65.4455 48.881 64.0608 47.9295 64.0608 47.9295L47.6823 38.5312Z" fill="#1A3258"/>
<path d="M49.4042 45.8418L50.7463 51.5652L64.0607 59.1989C64.0607 59.1989 65.5591 60.1575 66.9367 60.1575C68.3107 60.1575 69.6386 59.1598 69.6386 59.1598L69.4966 54.3275C69.4966 54.3275 68.4314 55.201 66.9367 55.201C65.4419 55.201 64.0607 54.2459 64.0607 54.2459L49.4042 45.8418Z" fill="#1A3258"/>
</g>
<defs>
<clipPath id="clip0_1_9771">
<rect width="58" height="58.4913" fill="white" transform="translate(19 19)"/>
</clipPath>
</defs>
</svg>
