<svg width="96" height="96" viewBox="0 0 96 96" fill="none" xmlns="http://www.w3.org/2000/svg">
<circle cx="48" cy="48" r="47" fill="white" stroke="white" stroke-width="2"/>
<path d="M47.9987 19C64.0206 19 77 31.9775 77 47.9931C77 61.3153 68.0397 72.5267 55.8172 75.9367V66.7512C63.1537 63.6916 68.3102 56.4482 68.3102 47.9924C68.3102 36.7829 59.2133 27.6904 48 27.6904C36.7842 27.6904 27.6917 36.7829 27.6917 47.9924C27.6917 57.6304 34.4016 65.7074 43.4028 67.7937V44.4013H38.2337V38.3042C38.2337 38.3042 43.964 38.3507 46.2107 32.3669H52.8671V76.5986C51.2816 76.866 49.6572 77 47.9987 77C31.9819 77 19 64.0125 19 47.9931C19 31.9775 31.9819 19 47.9987 19Z" fill="#007054"/>
</svg>
