<svg width="96" height="96" viewBox="0 0 96 96" fill="none" xmlns="http://www.w3.org/2000/svg">
<circle cx="48" cy="48" r="47" fill="white" stroke="white" stroke-width="2"/>
<g clip-path="url(#clip0_1_4552)">
<path d="M24.6893 45.9114C24.6893 47.4583 24.5298 48.8157 24.1788 49.9837C23.8278 51.1518 23.2534 52.0988 22.4875 52.8564C21.7536 53.5825 20.8601 54.1192 19.8708 54.4664C18.8816 54.8137 17.7009 54.9715 16.3607 54.9715C14.9885 54.9715 13.8078 54.7821 12.7867 54.4348C11.7655 54.0876 10.9359 53.5509 10.2338 52.8564C9.43605 52.0672 8.89357 51.1202 8.54255 50.0153C8.19154 48.9104 8.03198 47.5214 8.03198 45.9114V33.0947H10.9039V46.0693C10.9039 47.2373 10.9678 48.1528 11.1592 48.8157C11.3188 49.4786 11.606 50.11 11.957 50.6467C12.3718 51.278 12.9781 51.7516 13.7121 52.0672C14.446 52.3829 15.3395 52.5408 16.3607 52.5408C17.4137 52.5408 18.2753 52.3829 19.0092 52.0672C19.7432 51.7516 20.3176 51.278 20.7643 50.6467C21.1473 50.11 21.4025 49.4786 21.5621 48.7841C21.7217 48.0896 21.8174 47.2057 21.8174 46.164V33.0947H24.6893V45.9114Z" fill="black"/>
<path d="M40.5489 54.498H37.8046V45.3432C37.8046 44.6171 37.7726 43.9226 37.6769 43.2597C37.5812 42.5968 37.4216 42.0917 37.1983 41.7444C36.943 41.334 36.5919 41.0499 36.1452 40.8605C35.6985 40.6711 35.0921 40.5764 34.3582 40.5764C33.6243 40.5764 32.8265 40.7658 31.9968 41.1131C31.1671 41.4919 30.4013 41.9338 29.6354 42.5021V54.498H26.8911V38.4298H29.6354V40.1976C30.497 39.5031 31.3905 38.9349 32.284 38.556C33.2094 38.1772 34.1348 37.9562 35.0922 37.9562C36.8472 37.9562 38.1875 38.4929 39.1129 39.5346C40.0383 40.5764 40.4851 42.0917 40.4851 44.0489V54.498H40.5489Z" fill="black"/>
<path d="M43.038 54.5611H45.7823V38.4929H43.038V54.5611ZM42.8784 35.8096H45.9738V33H42.8784V35.8096Z" fill="black"/>
<path d="M57.9723 54.3717C57.4617 54.498 56.8873 54.6242 56.281 54.6874C55.6747 54.7821 55.1322 54.8136 54.6535 54.8136C52.9942 54.8136 51.7178 54.3717 50.8562 53.4878C49.9946 52.6039 49.5478 51.1833 49.5478 49.2576V40.7026H47.697V38.4297H49.5478V33.0316H52.2922V38.4297H57.9403V40.7026H52.2922V48.0265C52.2922 48.8788 52.3241 49.5417 52.356 50.0153C52.3879 50.4888 52.5155 50.9307 52.7708 51.3411C52.9942 51.7199 53.2814 52.0041 53.6643 52.1935C54.0472 52.3829 54.6216 52.446 55.3875 52.446C55.8342 52.446 56.3129 52.3829 56.7916 52.2566C57.2702 52.1303 57.6212 52.0356 57.8446 51.9409H58.0042V54.3717H57.9723Z" fill="black"/>
<path d="M70.0662 44.6802C70.0662 43.2597 69.6833 42.1548 68.9813 41.3971C68.2792 40.6079 67.1943 40.2291 65.7264 40.2291C64.2585 40.2291 63.0778 40.6395 62.2162 41.5234C61.3546 42.3758 60.8441 43.4491 60.7483 44.7118L70.0662 44.6802ZM72.7148 46.7637H60.7164C60.7164 47.7424 60.876 48.6263 61.1632 49.3523C61.4504 50.0784 61.8652 50.6782 62.4077 51.1517C62.9182 51.6253 63.5246 51.9725 64.1947 52.1935C64.8967 52.4145 65.6626 52.5407 66.4922 52.5407C67.6091 52.5407 68.726 52.3198 69.8429 51.8778C70.9597 51.4358 71.7575 51.0255 72.2362 50.5835H72.3957V53.5509C71.4703 53.9297 70.5449 54.2454 69.5557 54.5295C68.5983 54.7821 67.5772 54.9084 66.5241 54.9084C63.8117 54.9084 61.7056 54.1823 60.2058 52.7301C58.706 51.278 57.9402 49.2261 57.9402 46.5743C57.9402 43.9542 58.6741 41.8707 60.1101 40.3238C61.578 38.777 63.4607 38.0193 65.854 38.0193C68.0559 38.0193 69.7471 38.6507 70.9278 39.9134C72.1085 41.1762 72.7148 42.9756 72.7148 45.3116V46.7637Z" fill="black"/>
<path d="M85.2558 50.5519V41.334C84.5219 41.0183 83.8517 40.7973 83.2773 40.6711C82.703 40.5448 82.0647 40.4817 81.3627 40.4817C79.831 40.4817 78.6184 41.0183 77.7887 42.0601C76.9271 43.1018 76.5123 44.6171 76.5123 46.5428C76.5123 48.4369 76.8314 49.889 77.5015 50.8992C78.1716 51.8778 79.2247 52.3829 80.6926 52.3829C81.4584 52.3829 82.2562 52.225 83.054 51.8778C83.8198 51.5305 84.5538 51.0886 85.2558 50.5519ZM88.0001 54.498H85.2558V52.8248C84.458 53.4878 83.6603 54.0244 82.7987 54.4032C81.9371 54.7821 81.0117 54.9715 80.0225 54.9715C78.0759 54.9715 76.5442 54.2454 75.3954 52.7617C74.2466 51.278 73.6722 49.2261 73.6722 46.6059C73.6722 45.2485 73.8637 44.0173 74.2785 42.9755C74.6615 41.9022 75.204 40.9867 75.8741 40.2607C76.5442 39.5346 77.3101 38.9664 78.1716 38.5876C79.0651 38.2087 79.9586 38.0193 80.916 38.0193C81.7775 38.0193 82.5434 38.114 83.1816 38.2719C83.8517 38.4613 84.5219 38.7138 85.2558 39.0927V33.0316H88.0001V54.498Z" fill="black"/>
<path d="M8 60.3381V63.9369H8.86159V62.4847H10.2657V61.8218H8.86159V61.001H10.3614V60.3381H8Z" fill="black"/>
<path d="M14.6054 62.4216H13.1694V63.2739H14.765V63.9369H12.3079V60.3381H14.6692V61.001H13.1694V61.7586H14.6054V62.4216Z" fill="black"/>
<path d="M17.7327 63.3371C17.7965 63.3371 17.9241 63.3371 18.0518 63.3371C18.8496 63.3371 19.3601 62.9267 19.3601 62.0743C19.3601 61.2851 18.8815 60.9379 18.1156 60.9379C17.9241 60.9379 17.7965 60.9695 17.7327 60.9695V63.3371ZM16.8711 60.4012C17.1902 60.3381 17.605 60.3065 18.0518 60.3065C18.7857 60.3065 19.2644 60.4328 19.6473 60.6853C20.0622 60.9695 20.3174 61.4114 20.3174 62.0428C20.3174 62.7373 20.0622 63.2108 19.6792 63.4949C19.2644 63.8106 18.6581 63.9684 17.8922 63.9684C17.4455 63.9684 17.0945 63.9369 16.903 63.9053L16.8711 60.4012Z" fill="black"/>
<path d="M24.2107 62.4216H22.7747V63.2739H24.3702V63.9369H21.9131V60.3381H24.2745V61.001H22.7747V61.7586H24.2107V62.4216Z" fill="black"/>
<path d="M27.0825 61.9481H27.4336C27.8803 61.9481 28.1356 61.7587 28.1356 61.443C28.1356 61.1273 27.8803 60.9379 27.4974 60.9379C27.274 60.9379 27.1783 60.9379 27.1144 60.9695L27.0825 61.9481ZM26.2209 60.4012C26.5081 60.3381 26.923 60.3065 27.4016 60.3065C27.976 60.3065 28.3909 60.4012 28.6462 60.5906C28.8695 60.7485 28.9972 61.001 28.9972 61.3483C28.9972 61.7902 28.6462 62.1059 28.3271 62.2322V62.2637C28.5823 62.3585 28.7419 62.611 28.8376 62.9267C28.9653 63.3371 29.061 63.8106 29.1567 63.9369H28.2632C28.1994 63.8422 28.1037 63.5265 28.0079 63.0845C27.9122 62.6426 27.7207 62.5163 27.3697 62.5163H27.1144V63.9369H26.2529L26.2209 60.4012Z" fill="black"/>
<path d="M32.5394 62.4216L32.2841 61.6639C32.2203 61.443 32.1565 61.1904 32.0926 60.9694H32.0607C31.9969 61.1904 31.9331 61.443 31.9012 61.6639L31.6778 62.4216H32.5394ZM31.5821 63.0214L31.3268 63.9369H30.4014L31.5821 60.3381H32.7308L33.9435 63.9369H32.9861L32.6989 63.0214H31.5821Z" fill="black"/>
<path d="M35.3794 60.3381H36.241V63.2739H37.8046V63.9369H35.3794V60.3381Z" fill="black"/>
<path d="M44.1548 63.8422C43.9952 63.9053 43.6442 64 43.1656 64C41.8253 64 41.1233 63.2108 41.1233 62.169C41.1233 60.9379 42.0806 60.2434 43.2294 60.2434C43.6761 60.2434 44.0272 60.3381 44.1867 60.4012L43.9952 61.0326C43.8357 60.9694 43.5804 60.9063 43.2613 60.9063C42.5593 60.9063 42.0168 61.2851 42.0168 62.1059C42.0168 62.832 42.4635 63.2739 43.2613 63.2739C43.5166 63.2739 43.8038 63.2108 43.9952 63.1477L44.1548 63.8422Z" fill="black"/>
<path d="M46.3884 61.9481H46.7395C47.1862 61.9481 47.4415 61.7587 47.4415 61.443C47.4415 61.1273 47.1862 60.9379 46.8033 60.9379C46.5799 60.9379 46.4842 60.9379 46.4204 60.9695V61.9481H46.3884ZM45.5269 60.4012C45.8141 60.3381 46.2289 60.3065 46.7076 60.3065C47.2819 60.3065 47.6968 60.4012 47.9521 60.5906C48.1754 60.7485 48.3031 61.001 48.3031 61.3483C48.3031 61.7902 47.9521 62.1059 47.633 62.2322V62.2637C47.8882 62.3585 48.0478 62.611 48.1435 62.9267C48.2712 63.3371 48.3669 63.8106 48.4626 63.9369H47.5691C47.5053 63.8422 47.4096 63.5265 47.3139 63.0845C47.2181 62.6426 47.0267 62.5163 46.6756 62.5163H46.4204V63.9369H45.5588L45.5269 60.4012Z" fill="black"/>
<path d="M52.1643 62.4216H50.7602V63.2739H52.3238V63.9369H49.8667V60.3381H52.26V61.001H50.7602V61.7586H52.1643V62.4216Z" fill="black"/>
<path d="M54.6215 63.3371C54.6853 63.3371 54.813 63.3371 54.9406 63.3371C55.7384 63.3371 56.249 62.9267 56.249 62.0743C56.249 61.2851 55.7703 60.9379 55.0045 60.9379C54.813 60.9379 54.6853 60.9695 54.6215 60.9695V63.3371ZM53.728 60.4012C54.0471 60.3381 54.462 60.3065 54.9087 60.3065C55.6427 60.3065 56.1213 60.4328 56.5043 60.6853C56.9191 60.9695 57.1744 61.4114 57.1744 62.0428C57.1744 62.7373 56.9191 63.2108 56.5362 63.4949C56.1213 63.8106 55.515 63.9684 54.7492 63.9684C54.3024 63.9684 53.9514 63.9369 53.7599 63.9053V60.4012H53.728Z" fill="black"/>
<path d="M59.3123 60.3381H58.4507V63.9369H59.3123V60.3381Z" fill="black"/>
<path d="M61.6419 61.0326H60.5889V60.3381H63.5566V61.0326H62.5035V63.9369H61.6419V61.0326Z" fill="black"/>
<path d="M68.2473 60.3381V62.4216C68.2473 63.0529 68.5025 63.3686 68.9493 63.3686C69.396 63.3686 69.6513 63.0845 69.6513 62.4216V60.3381H70.5129V62.3584C70.5129 63.4633 69.9066 64 68.8855 64C67.8962 64 67.3538 63.4949 67.3538 62.3584V60.3381H68.2473Z" fill="black"/>
<path d="M72.3319 63.9369V60.3381H73.353L74.1508 61.6639C74.3742 62.0428 74.5976 62.4847 74.789 62.8951C74.7252 62.4216 74.7252 61.9165 74.7252 61.3798V60.3381H75.523V63.9369H74.5976L73.7679 62.5478C73.5445 62.169 73.2892 61.6955 73.0978 61.2851H73.0659C73.0978 61.7586 73.0978 62.2637 73.0978 62.8635V63.9369H72.3319Z" fill="black"/>
<path d="M78.3311 60.3381H77.4695V63.9369H78.3311V60.3381Z" fill="black"/>
<path d="M81.6816 63.3686C82.2879 63.3686 82.607 62.8635 82.607 62.1375C82.607 61.4745 82.2879 60.9379 81.6816 60.9379C81.0753 60.9379 80.7243 61.4745 80.7243 62.169C80.7562 62.832 81.1072 63.3686 81.6816 63.3686ZM81.6497 64C80.5009 64 79.8308 63.1792 79.8308 62.169C79.8308 61.0957 80.5648 60.2749 81.7135 60.2749C82.8942 60.2749 83.5644 61.0957 83.5644 62.1059C83.5644 63.3055 82.7985 64 81.6497 64Z" fill="black"/>
<path d="M84.809 63.9369V60.3381H85.8301L86.6279 61.6639C86.8512 62.0428 87.0746 62.4847 87.2661 62.8951C87.2023 62.4216 87.2023 61.9165 87.2023 61.3798V60.3381H88V63.9369H87.0746L86.2449 62.5478C86.0216 62.169 85.7663 61.6955 85.5748 61.2851H85.5429C85.5748 61.7586 85.5748 62.2637 85.5748 62.8635V63.9369H84.809Z" fill="black"/>
</g>
<defs>
<clipPath id="clip0_1_4552">
<rect width="80" height="31" fill="white" transform="translate(8 33)"/>
</clipPath>
</defs>
</svg>
