<svg width="96" height="96" viewBox="0 0 96 96" fill="none" xmlns="http://www.w3.org/2000/svg">
<circle cx="48" cy="48" r="47" fill="white" stroke="white" stroke-width="2"/>
<path d="M42.2975 47.7742L27.929 72.6839L19.0001 57.4586L24.5815 47.7742L19.0001 38.2254L27.7871 23.0001L42.2975 47.7742Z" fill="#F7D60B"/>
<path d="M75.0767 52.2028L77.7292 47.7743L75.0767 43.2103C73.403 40.4433 70.6158 38.09 65.311 38.09H54.4318L60.0132 47.7743L54.4318 57.4586L65.311 57.3231C70.6087 57.3231 73.403 54.9698 75.0767 52.2028Z" fill="#738893"/>
<path d="M54.4318 38.0833H65.311C70.6088 38.0833 73.403 40.4366 75.0768 43.2036C75.2186 43.3391 75.2186 43.4817 75.3534 43.4817L66.4245 28.2635C64.3323 24.8048 61.2614 23.0077 56.3821 23.0077H34.2053L43.1342 38.0833H54.4318ZM65.311 57.3236L54.4318 57.4591H43.2689L34.3471 72.6844H56.524C61.4033 72.6844 64.4741 70.7447 66.5663 67.1505L75.3534 51.9252L75.0768 52.2033C73.403 54.9703 70.6088 57.3236 65.311 57.3236Z" fill="#0B2A45"/>
</svg>
