<svg width="96" height="96" viewBox="0 0 96 96" fill="none" xmlns="http://www.w3.org/2000/svg">
<circle cx="48" cy="48" r="47" fill="white" stroke="white" stroke-width="2"/>
<path d="M19 48C19 32.0239 32.024 19 48 19V20.0419V21.0838C33.0659 21.2575 21.0838 33.2395 21.0838 48C21.0838 62.7605 33.0659 74.7425 47.8263 74.7425C62.5868 74.7425 74.5689 62.7605 74.5689 48C74.7425 33.2395 62.7605 21.2575 48 21.0838V20.0419V19C63.976 19 77 32.0239 77 48C77 63.976 63.976 77 48 77C31.8503 77 19 63.976 19 48Z" fill="#00744C"/>
<path d="M55.2935 48C68.8384 46.2634 64.6708 36.3652 64.6708 36.3652C63.6288 34.8024 62.7606 35.497 62.7606 35.497C62.4133 35.6706 61.3714 36.0179 60.6768 35.3233C59.9821 34.6287 60.5031 33.7605 60.5031 33.7605C61.1977 32.1976 59.8085 31.503 59.8085 31.503C49.3893 26.988 48.0001 40.7066 48.0001 40.7066C48.0001 40.7066 46.6109 26.988 36.1917 31.503C36.1917 31.503 34.8025 32.1976 35.4971 33.7605C35.4971 33.7605 35.8444 34.8024 35.3235 35.3233C34.6288 36.0179 33.7606 35.6706 33.2396 35.497C33.2396 35.497 32.3714 34.8024 31.3294 36.3652C31.3294 36.3652 26.9881 46.0898 40.7067 48C27.1618 49.7365 31.3294 59.6347 31.3294 59.6347C32.3714 61.1976 33.2396 60.503 33.2396 60.503C33.5869 60.3293 34.6288 59.982 35.3235 60.6766C36.0181 61.3712 35.4971 62.2395 35.4971 62.2395C34.8025 63.8024 36.1917 64.497 36.1917 64.497C46.6109 69.0119 48.0001 55.2934 48.0001 55.2934C48.0001 55.2934 49.3893 69.0119 59.8085 64.497C59.8085 64.497 61.1977 63.8024 60.5031 62.2395C60.5031 62.2395 60.1558 61.1976 60.6768 60.6766C61.3714 59.982 62.2396 60.3293 62.7606 60.503C62.7606 60.503 63.6288 61.1976 64.6708 59.6347C64.6708 59.461 68.8384 49.7365 55.2935 48ZM45.2217 50.4311C44.7007 50.4311 44.1797 49.9102 44.1797 49.3892C44.1797 48.8682 44.7007 48.3473 45.2217 48.3473C45.7426 48.3473 46.2636 48.8682 46.2636 49.3892C46.2636 49.9102 45.7426 50.4311 45.2217 50.4311ZM45.3953 47.479C44.8744 47.479 44.3534 46.9581 44.3534 46.4371C44.3534 45.9161 44.8744 45.3952 45.3953 45.3952C45.9163 45.3952 46.4372 45.9161 46.4372 46.4371C46.4372 46.9581 45.9163 47.479 45.3953 47.479ZM48.0001 52.3413C47.4791 52.3413 46.9582 51.8203 46.9582 51.2994C46.9582 50.7784 47.4791 50.2575 48.0001 50.2575C48.5211 50.2575 49.042 50.7784 49.042 51.2994C49.042 51.8203 48.5211 52.3413 48.0001 52.3413ZM48.0001 49.0419C47.4791 49.0419 46.9582 48.5209 46.9582 48C46.9582 47.479 47.4791 46.9581 48.0001 46.9581C48.5211 46.9581 49.042 47.479 49.042 48C49.042 48.5209 48.5211 49.0419 48.0001 49.0419ZM48.0001 45.7425C47.4791 45.7425 46.9582 45.2215 46.9582 44.7006C46.9582 44.1796 47.4791 43.6587 48.0001 43.6587C48.5211 43.6587 49.042 44.1796 49.042 44.7006C49.042 45.3952 48.5211 45.7425 48.0001 45.7425ZM50.6049 50.6048C50.0839 50.6048 49.563 50.0838 49.563 49.5628C49.563 49.0419 50.0839 48.5209 50.6049 48.5209C51.1259 48.5209 51.6468 49.0419 51.6468 49.5628C51.6468 50.0838 51.1259 50.6048 50.6049 50.6048ZM50.6049 47.479C50.0839 47.479 49.563 46.9581 49.563 46.4371C49.563 45.9161 50.0839 45.3952 50.6049 45.3952C51.1259 45.3952 51.6468 45.9161 51.6468 46.4371C51.6468 46.9581 51.2995 47.479 50.6049 47.479Z" fill="#00744C"/>
<path d="M73.3533 73.0064C73.3533 74.5693 72.3114 75.6112 70.9221 75.6112C69.5329 75.6112 68.491 74.5693 68.491 73.0064C68.491 71.4436 69.5329 70.4016 70.9221 70.4016C72.3114 70.4016 73.3533 71.4436 73.3533 73.0064ZM74.3952 73.0064C74.3952 70.9226 72.8323 69.707 71.0958 69.707C69.3593 69.707 67.7964 70.9226 67.7964 73.0064C67.7964 75.0903 69.3593 76.3058 71.0958 76.3058C72.8323 76.3058 74.3952 75.0903 74.3952 73.0064ZM70.5748 73.1801H70.9221L71.7904 74.743H72.6587L71.7904 73.1801C72.3114 73.1801 72.6587 72.8328 72.6587 72.3118C72.6587 71.4436 72.1377 71.2699 71.2694 71.2699H69.7066V74.743H70.4012V73.1801H70.5748ZM70.5748 72.6591V71.7909H71.0958C71.4431 71.7909 71.7904 71.7909 71.7904 72.1382C71.7904 72.4855 71.6167 72.6591 71.2694 72.6591H70.5748Z" fill="#00744C"/>
</svg>
