<svg width="96" height="96" viewBox="0 0 96 96" fill="none" xmlns="http://www.w3.org/2000/svg">
<circle cx="48" cy="48" r="47" fill="white" stroke="white" stroke-width="2"/>
<path d="M75.6727 37.5065V37.1276C75.6727 35.385 74.5362 33.8697 72.8693 33.3394L72.7178 33.2636L72.4905 33.1878C72.1874 33.1121 71.9601 33.1121 71.6571 33.1121H24.1519C23.8489 33.1121 23.6216 33.1121 23.3185 33.1878L23.0912 33.3394H22.9397C21.2728 33.8697 20.1364 35.4608 20.1364 37.2034V37.5065C20.1364 35.2335 21.9547 33.4151 24.1519 33.4151H38.9263L33.6984 45.2346H21.8032L32.0316 51.9777L27.3341 63.7214H24.2277C21.9547 63.7214 20.1364 61.9031 20.1364 59.6301V60.0089C20.1364 61.7515 21.2728 63.3426 22.9397 63.7972L23.0912 63.873L23.3185 63.9487C23.6216 64.0245 23.8489 64.0245 24.1519 64.0245H71.6571C71.9601 64.0245 72.1874 64.0245 72.4905 63.9487L72.7178 63.873L72.8693 63.7972C74.5362 63.2668 75.6727 61.7515 75.6727 60.0089V59.6301C75.6727 61.9031 73.8543 63.7214 71.6571 63.7214H70.6721L47.6393 54.0992L50.5184 63.1153L38.9263 55.463L27.8645 63.1153L32.4104 51.8262L22.8639 45.5376H34.0015L39.0778 34.0212L43.6237 44.9315H75.6727V44.6285H43.851L39.1536 33.4151H71.5813C73.8543 33.4151 75.6727 35.2335 75.6727 37.5065ZM48.1697 54.6295L69.8387 63.7214H51.0488L48.1697 54.6295Z" fill="#0055A5"/>
<path d="M33.7742 45.2346H21.8032L32.0316 51.9778L27.3341 63.7215H24.2277C21.9547 63.7215 20.1364 61.9031 20.1364 59.6301V37.5065C20.1364 35.2335 21.9547 33.4152 24.1519 33.4152H38.9263L33.7742 45.2346Z" fill="#0055A5"/>
<path d="M75.673 44.9315V59.6301C75.673 61.903 73.8546 63.7214 71.6574 63.7214H70.6725L47.6397 54.0992L50.5188 63.1153L38.9266 55.463L27.8648 63.1153L32.4107 51.8262L22.8643 45.5376H34.0018L39.0781 34.0212L43.6241 44.9315H75.673Z" fill="white"/>
<path d="M69.8386 63.7215H51.0487L48.1696 54.6296L69.8386 63.7215ZM75.6725 37.5065V44.6285H43.8509L39.1534 33.4152H71.5812C73.8542 33.4152 75.6725 35.2335 75.6725 37.5065Z" fill="#A6A9AC"/>
<path d="M72.8694 33.3394L72.7179 33.2636L72.4906 33.1878C72.1875 33.1121 71.8845 33.1121 71.5814 33.1121H24.2278C23.9247 33.1121 23.6217 33.1121 23.3186 33.1878L23.0913 33.2636L22.9398 33.3394C21.1214 33.8697 19.8334 35.6123 19.8334 37.5065V59.6301C19.8334 61.5242 21.1214 63.2668 22.9398 63.7972L23.0913 63.873L23.3186 63.9487C23.6217 64.0245 23.9247 64.0245 24.2278 64.0245H71.6572C71.9602 64.0245 72.2633 64.0245 72.5663 63.9487L72.7936 63.873L72.9452 63.7972C74.7636 63.2668 76.0516 61.5242 76.0516 59.6301V37.5065C75.9758 35.6123 74.6878 33.8697 72.8694 33.3394ZM24.2278 63.7214C21.9548 63.7214 20.1364 61.9031 20.1364 59.6301V37.5065C20.1364 35.2335 21.9548 33.4151 24.152 33.4151H38.9263L33.6985 45.2346H21.8033L32.0317 51.9777L27.3342 63.7214H24.2278ZM27.5615 63.7214L38.9263 55.8418L50.8216 63.7214H27.5615ZM51.0489 63.7214L48.1698 54.6295L69.8388 63.7214H51.0489ZM75.6728 59.6301C75.6728 61.9031 73.8544 63.7214 71.6572 63.7214H70.6722L47.6394 54.0992L50.5185 63.1153L38.9263 55.463L27.8645 63.1153L32.4105 51.8262L22.864 45.5376H34.0016L39.0779 34.0212L43.6238 44.9315H75.6728V59.6301ZM75.6728 44.6285H43.8511L39.1536 33.4151H71.5814C73.8544 33.4151 75.6728 35.2335 75.6728 37.5065V44.6285Z" fill="black"/>
<path d="M71.5814 64.1003H24.2277C23.9247 64.1003 23.6216 64.1003 23.3186 64.0246L23.0913 63.9488L22.9397 63.873C21.0456 63.2669 19.7576 61.6001 19.7576 59.6302V37.5066C19.7576 35.5366 21.0456 33.794 22.9397 33.2637L23.0913 33.1879L23.3186 33.1121C23.6216 33.0364 23.9247 33.0364 24.2277 33.0364H71.6571C71.9602 33.0364 72.2632 33.0364 72.5663 33.1121L72.7936 33.1879L72.9451 33.2637C74.8393 33.8698 76.1273 35.5366 76.1273 37.5066V59.6302C76.1273 61.6001 74.8393 63.3427 72.9451 63.873L72.7936 63.9488L72.5663 64.0246C72.1875 64.0246 71.8844 64.1003 71.5814 64.1003ZM24.2277 33.1879C23.9247 33.1879 23.6216 33.1879 23.3943 33.2637L23.167 33.3394L22.9397 33.4152C21.1214 33.9456 19.9091 35.6124 19.9091 37.5066V59.6302C19.9091 61.5243 21.1214 63.1912 22.9397 63.7215L23.0913 63.7973L23.3186 63.873C23.6216 63.9488 23.9247 63.9488 24.152 63.9488H71.5814C71.8844 63.9488 72.1875 63.9488 72.4148 63.873L72.6421 63.7973L72.7936 63.7215C74.612 63.1912 75.8242 61.5243 75.8242 59.6302V37.5066C75.8242 35.6124 74.612 33.9456 72.7936 33.4152L72.6421 33.3394L72.4148 33.2637C72.1117 33.1879 71.8087 33.1879 71.5814 33.1879H24.2277ZM71.5814 63.7973H70.5964L47.7909 54.2508L50.67 63.3427L38.9263 55.5388L27.713 63.3427L32.3347 51.9021L22.5609 45.462H33.9258L39.0778 33.794L43.6995 44.8558H75.8242V59.6302C75.7485 61.9031 73.9301 63.7973 71.5814 63.7973ZM70.6722 63.6458H71.5814C73.7786 63.6458 75.5969 61.8274 75.5969 59.6302V45.0074H43.548V44.9316L39.0778 34.1729L34.0015 45.6135H23.0913L32.562 51.8263L28.0918 62.8881L39.0021 55.3115H39.0778L50.4427 62.9639L47.5636 53.9477L70.6722 63.6458ZM70.2176 63.7973H24.2277C21.9548 63.7973 20.0606 61.9031 20.0606 59.6302V37.5066C20.0606 35.2336 21.879 33.3394 24.2277 33.3394H71.6571C73.9301 33.3394 75.8242 35.2336 75.8242 37.5066V44.7043H43.7753V44.6285L39.0778 33.4152L33.85 45.3104H22.0305L32.1074 51.9021L27.3341 63.7215L38.8505 55.6903L50.9731 63.7215L48.0182 54.5539L70.2176 63.7973ZM51.1246 63.6458H69.4599L48.3213 54.7812L51.1246 63.6458ZM27.7887 63.6458H50.5185L38.9263 55.9176L27.7887 63.6458ZM24.2277 33.491C22.0305 33.491 20.2122 35.3094 20.2122 37.5066V59.6302C20.2122 61.8274 22.0305 63.6458 24.2277 63.6458H27.2584L31.9559 52.0536L21.5002 45.2347H33.6985L38.8505 33.5667H24.2277V33.491ZM43.9268 44.5528H75.5969V37.5066C75.5969 35.3094 73.7786 33.491 71.5814 33.491H39.3051L43.9268 44.5528Z" fill="black"/>
</svg>
