<svg width="96" height="96" viewBox="0 0 96 96" fill="none" xmlns="http://www.w3.org/2000/svg">
<circle cx="48" cy="48" r="47" fill="white" stroke="white" stroke-width="2"/>
<path d="M10.935 51.5593C10.3169 49.6078 10.1091 49.1098 9.03894 49.1098V48.5101C9.9792 48.5711 10.9143 48.6067 11.8389 48.6067C12.7636 48.6067 13.6208 48.5711 14.5039 48.5101V49.1149C14.0883 49.1911 13.6 49.2724 13.6 49.8264C13.6692 50.153 13.7576 50.4753 13.8649 50.7919L16.1714 58.4149H16.213L17.8701 53.0788L17.1221 50.8123C16.6701 49.4655 16.3324 49.1505 15.5636 49.1149V48.5101C16.4883 48.5711 17.4078 48.6067 18.3273 48.6067C19.2467 48.6067 20.1662 48.5711 21.0857 48.5101V49.1149C20.7273 49.1149 19.8805 49.1708 19.8805 49.745C19.9468 50.1324 20.0352 50.5159 20.1454 50.8936L22.1402 58.4098H22.1818L23.9636 52.4131C24.2575 51.5515 24.4782 50.6676 24.6234 49.7705C24.6234 49.2369 23.8701 49.1403 23.4961 49.1403V48.5101C24.1143 48.5711 24.7532 48.6067 25.3714 48.6067C25.9615 48.6055 26.5511 48.5733 27.1376 48.5101V49.0742C26.2182 49.2114 26.0675 49.491 25.9376 49.8416C25.7143 50.4565 25.0545 52.3521 24.0208 55.8078L21.9013 62.8514H20.5662L18.2961 54.6441H18.2545L15.8545 62.8514H14.5195L10.935 51.5593Z" fill="#302E2C"/>
<path d="M26.8 56.2601C26.8 55.2793 27.122 53.8869 28.3584 53.8869C29.5948 53.8869 29.735 55.1828 29.7922 56.2601H26.8ZM32.2961 57.0987C32.2961 54.7457 31.0389 53.0331 28.8 53.0331C25.9896 53.0331 24.7324 55.4826 24.7324 58.115C24.7324 60.59 25.9532 62.9582 28.5766 62.9582C30.8519 62.9582 32.0519 61.398 32.6545 59.4008L32.187 59.2432C31.9209 59.6692 31.5489 60.0221 31.1055 60.2692C30.6622 60.5163 30.1621 60.6494 29.6519 60.656C27.8597 60.656 26.8779 58.7706 26.8 57.0631H32.2961V57.0987Z" fill="#302E2C"/>
<path d="M33.3922 59.3855C33.3922 60.7475 34.852 61.8757 36.0935 61.8757C36.7169 61.8757 37.5377 61.6165 37.5377 60.8288C37.5377 59.0755 32.7689 59.0349 32.7689 55.8586C32.7534 55.4833 32.8177 55.109 32.9578 54.7592C33.0979 54.4095 33.3106 54.092 33.5826 53.8269C33.8546 53.5618 34.1799 53.3548 34.5379 53.219C34.8959 53.0832 35.2788 53.0217 35.6624 53.0381C36.0692 53.0497 36.4735 53.106 36.8676 53.2058C37.2041 53.3107 37.5536 53.3706 37.9065 53.3837C38.1185 53.3852 38.3286 53.3455 38.5247 53.2668C38.5663 54.1054 38.5663 54.9337 38.639 55.7672H38.1922C38.1113 55.227 37.8432 54.7303 37.4328 54.3603C37.0224 53.9903 36.4946 53.7693 35.9377 53.7344C35.7744 53.7242 35.6108 53.7478 35.4574 53.8037C35.3041 53.8596 35.1645 53.9465 35.0479 54.0587C34.9312 54.1709 34.84 54.3059 34.7803 54.455C34.7206 54.604 34.6937 54.7637 34.7013 54.9235C34.7013 56.5447 39.0546 56.504 39.0546 59.7108C39.0546 61.6622 37.9013 62.9683 35.974 62.9683C34.6805 62.9683 33.9481 62.4144 32.9351 62.3737C32.9922 61.3573 32.9766 60.3765 32.9766 59.3754L33.3922 59.3855Z" fill="#302E2C"/>
<path d="M43.5637 55.935C43.5637 55.5386 43.8286 55.5386 44.1715 55.5386C46.0832 55.5386 46.8572 57.0632 46.8572 58.9079C46.8572 60.7527 46.2754 61.9063 44.6027 61.9063C43.9221 61.9063 43.5637 61.8097 43.5637 61.0576V55.935ZM40.4468 60.7222C40.4468 61.8453 40.2962 62.0435 39.1325 62.14V62.7448C40.4104 62.6432 41.5897 62.6482 42.1143 62.6482C43.1533 62.6482 44.4624 62.7448 45.1949 62.7448C48.1247 62.7448 50.1715 61.5353 50.1715 58.7707C50.1715 55.8181 48.1247 55.2591 45.7403 55.0609V55.0202C48.4312 54.6594 49.4806 53.6328 49.4806 51.7932C49.4806 49.1455 47.2676 48.5051 45.1845 48.5051C44.3637 48.5051 43.5377 48.6017 42.4988 48.6017C41.4598 48.6017 40.4208 48.6017 39.1169 48.5051V49.1099C40.3533 49.2115 40.4312 49.5266 40.4312 50.6345V60.7222H40.4468ZM43.5637 49.801C43.5637 49.3487 43.865 49.3487 44.2598 49.3487C45.891 49.3487 46.3014 50.7514 46.3014 52.2302C46.3014 53.8107 45.6832 54.7 44.2234 54.7C43.7559 54.7 43.5689 54.7 43.5689 54.3037V49.801H43.5637Z" fill="#302E2C"/>
<path d="M56.0155 60.5646C55.651 60.9013 55.1912 61.1227 54.6961 61.1999C54 61.1999 53.6571 60.5087 53.6571 59.8532C53.6571 58.5522 54.9558 57.8204 56.0103 57.5815V60.5646H56.0155ZM58.4311 56.2043C58.4311 53.7243 56.9974 53.0433 54.9506 53.0433C53.2831 53.0433 51.4909 53.7243 51.4909 55.7724C51.4909 56.6769 51.9792 56.6769 52.6753 56.6769C53.3714 56.6769 53.8441 56.5601 53.9013 55.7165C53.9792 54.7305 53.9013 53.8869 54.9402 53.8869C55.709 53.8869 56.0051 54.3342 56.0051 55.1422V56.8853C54.0467 57.1648 50.9194 57.8153 50.9194 60.4833C50.9194 61.9063 51.7246 63.0243 53.1272 63.0243C54.2909 63.0243 55.2883 62.1146 56.0415 61.2558C56.0415 62.1299 56.2909 63.0243 57.2675 63.0243C57.9636 63.0243 58.5662 62.5822 59.3454 61.9114V61.1999C59.1632 61.3801 58.9263 61.4977 58.6701 61.5353C58.4259 61.5353 58.4259 61.1592 58.4259 60.8797V56.2043H58.4311Z" fill="#302E2C"/>
<path d="M62.987 61.2354C62.987 62.1248 63.5065 62.1248 63.9637 62.14V62.7448C63.203 62.6631 62.4377 62.6308 61.6727 62.6482C60.944 62.6285 60.2148 62.6608 59.4909 62.7448V62.14C59.9637 62.14 60.4675 62.14 60.4675 61.2354V55.8689C60.4675 54.8017 60.4156 54.6441 59.4286 54.6441V54.0241C60.437 53.8622 61.409 53.5304 62.3013 53.0433H62.8208V54.8017C63.7039 53.9123 64.7013 53.023 65.8442 53.0433C67.7974 53.0433 68.4416 54.329 68.4416 56.184V61.2659C68.4416 62.1502 68.9611 62.1502 69.4182 62.1705V62.7753C68.6576 62.6936 67.8923 62.6613 67.1273 62.6787C66.402 62.6587 65.6763 62.691 64.9559 62.7753V62.1451C65.4234 62.1451 65.9273 62.1451 65.9273 61.2405V56.2602C65.9273 54.7356 64.9922 54.6238 64.5091 54.6238C63.9514 54.6433 63.4199 54.86 63.013 55.2336V61.2354H62.987Z" fill="#302E2C"/>
<path d="M77.1273 59.4263C76.5247 61.4133 75.3247 62.9836 73.0493 62.9836C70.4519 62.9836 69.2156 60.6104 69.2156 58.1354C69.2156 55.1828 71.1325 53.0535 73.2779 53.0535C75.0597 53.0535 76.7896 53.5617 76.7896 55.5945C76.7896 56.4838 76.4727 56.7582 75.6052 56.7582C74.7377 56.7582 74.161 56.7582 74.161 55.7418C74.161 54.0648 73.8805 53.9123 72.9922 53.9123C72.1039 53.9123 71.3766 54.6746 71.3766 56.7989C71.3766 58.9231 72.187 60.6917 74.1039 60.6917C74.614 60.685 75.1139 60.5514 75.5566 60.3033C75.9992 60.0552 76.3699 59.7009 76.6338 59.2738L77.1273 59.4263Z" fill="#302E2C"/>
<path d="M84.5455 58.4098C84.5455 59.7159 84.3377 61.4082 82.8208 61.4082C81.0598 61.4082 80.2546 58.73 80.2546 57.0326C80.2546 55.8078 80.7013 54.0342 82.2026 54.0342C83.9689 54.0241 84.5455 57.0377 84.5455 58.4098ZM86.9611 57.9982C86.9611 55.0608 85.3767 53.0483 82.5247 53.0483C79.839 53.0483 77.8494 55.3149 77.8494 58.0337C77.8442 60.9508 79.4286 62.9836 82.2857 62.9836C85.1429 62.9836 86.9611 60.9864 86.9611 57.988V57.9982Z" fill="#302E2C"/>
<path d="M51.9636 34.2908V39.0678L57.8701 45.0087L63.7143 39.1237L69.626 45.0798L75.5013 39.0577V34.2196L69.5896 40.069L63.7506 34.0164L57.8026 39.9724L51.9636 34.2908Z" fill="#008B4C"/>
<path d="M51.9636 40.0436V44.8156L57.8701 50.7615L63.7143 44.8765L69.626 50.8275L75.5013 44.8054V39.9724L69.5896 45.8218L63.7506 39.7692L57.8026 45.7201L51.9636 40.0436Z" fill="#008B4C"/>
<path d="M76.9194 34.672H77.0285C77.1636 34.672 77.2207 34.7736 77.2207 34.9413C77.2207 35.109 77.1688 35.2361 77.0285 35.2361H76.9194V34.672ZM77.6103 35.851V35.8154C77.5327 35.7291 77.4615 35.6374 77.3973 35.541L77.2155 35.2666C77.288 35.2427 77.3508 35.1968 77.3948 35.1356C77.4387 35.0743 77.4615 35.0009 77.4597 34.9261C77.4614 34.8812 77.4532 34.8364 77.4358 34.7948C77.4184 34.7532 77.392 34.7158 77.3586 34.685C77.3251 34.6542 77.2853 34.6307 77.2418 34.6162C77.1983 34.6017 77.1522 34.5964 77.1064 34.6008H76.5038V34.672C76.6337 34.672 76.6389 34.7228 76.6389 34.8143V35.6528C76.6389 35.7494 76.6389 35.7798 76.5038 35.7849V35.8561H77.0233V35.7849C76.8779 35.7849 76.8831 35.7494 76.8831 35.6528V35.3072H76.9973C77.1584 35.5715 77.2467 35.8561 77.3454 35.8561H77.6103V35.851ZM78.1298 35.2564C78.1481 35.108 78.1341 34.9574 78.0885 34.8147C78.043 34.672 77.967 34.5403 77.8656 34.4285C77.7642 34.3166 77.6398 34.227 77.5004 34.1657C77.361 34.1043 77.2099 34.0726 77.0571 34.0726C76.9043 34.0726 76.7532 34.1043 76.6138 34.1657C76.4744 34.227 76.3499 34.3166 76.2485 34.4285C76.1472 34.5403 76.0712 34.672 76.0257 34.8147C75.9801 34.9574 75.966 35.108 75.9844 35.2564C75.9741 35.4004 75.9942 35.5448 76.0435 35.6808C76.0928 35.8169 76.1701 35.9415 76.2708 36.047C76.3714 36.1525 76.4931 36.2367 76.6284 36.2942C76.7636 36.3518 76.9096 36.3814 77.0571 36.3814C77.2046 36.3814 77.3505 36.3518 77.4858 36.2942C77.6211 36.2367 77.7428 36.1525 77.8434 36.047C77.944 35.9415 78.0214 35.8169 78.0706 35.6808C78.1199 35.5448 78.1401 35.4004 78.1298 35.2564ZM77.9116 35.2564C77.9309 35.3768 77.9233 35.4998 77.8893 35.617C77.8554 35.7342 77.7959 35.8428 77.7149 35.9354C77.634 36.0279 77.5335 36.1023 77.4204 36.1532C77.3073 36.2042 77.1842 36.2306 77.0597 36.2306C76.9352 36.2306 76.8121 36.2042 76.699 36.1532C76.5859 36.1023 76.4854 36.0279 76.4044 35.9354C76.3235 35.8428 76.264 35.7342 76.23 35.617C76.1961 35.4998 76.1885 35.3768 76.2077 35.2564C76.1836 35.1336 76.1875 35.0071 76.2192 34.886C76.2508 34.7649 76.3095 34.6521 76.3909 34.5557C76.4723 34.4593 76.5744 34.3817 76.69 34.3285C76.8057 34.2752 76.9319 34.2476 77.0597 34.2476C77.1875 34.2476 77.3137 34.2752 77.4293 34.3285C77.5449 34.3817 77.6471 34.4593 77.7285 34.5557C77.8099 34.6521 77.8685 34.7649 77.9002 34.886C77.9318 35.0071 77.9357 35.1336 77.9116 35.2564Z" fill="#008B4C"/>
</svg>
