<svg width="96" height="96" viewBox="0 0 96 96" fill="none" xmlns="http://www.w3.org/2000/svg">
<circle cx="48" cy="48" r="47" fill="white" stroke="white" stroke-width="2"/>
<path d="M65.2359 27.7082L60.9497 22.966C60.4025 22.2365 59.4906 22.1453 58.6698 22.1453H32.9528C31.4025 22.1453 30.0346 22.7836 29.0314 23.6956C28.4843 24.2427 28.0283 24.8811 27.6635 25.6107C27.5723 25.7931 27.4811 25.9755 27.4811 26.249C27.4811 26.4314 27.3899 26.5226 27.3899 26.705L19.0912 60.6295C19 60.9031 19 61.3591 19 61.9063C19 61.9975 19 61.9975 19 61.9063V62.3622C19 62.2711 19 62.2711 19 62.3622C19.0912 63.183 19.456 64.0038 19.9119 64.5509L26.934 73.3968C27.4811 74.0352 28.1195 73.944 28.3019 73.1233L31.7673 59.444C32.1321 57.8025 33.5912 56.5258 35.2327 56.5258H39.1541L43.2579 39.3811H38.2421C37.4214 39.3811 36.783 40.1107 36.4182 39.8371C36.0535 39.5635 36.1447 38.9251 36.327 38.378L38.0597 31.6295C38.4245 29.988 39.8836 28.7113 41.5252 28.7113H64.7799C65.6918 28.8025 65.8742 28.2553 65.2359 27.7082Z" fill="#FE330F"/>
<path d="M30.6729 68.1988L34.9591 72.9409C35.5063 73.5793 36.4182 73.6705 37.3302 73.6705H62.9559C64.5063 73.6705 65.8742 73.0321 66.8773 72.1202C67.4245 71.573 67.8805 70.9347 68.2453 70.2051C68.3364 70.0227 68.4276 69.8403 68.4276 69.5667C68.4276 69.3843 68.5188 69.2931 68.5188 69.1108L76.8176 35.1862C76.9088 34.9126 76.9088 34.4567 76.9088 33.9095C76.9088 33.8183 76.9088 33.8183 76.9088 33.9095V33.4535C76.9088 33.5447 76.9088 33.5447 76.9088 33.4535C76.8176 32.6328 76.4528 31.812 75.9968 31.2648L68.9748 22.4189C68.4276 21.7806 67.7893 21.8718 67.6069 22.6925L64.1415 36.3718C63.7767 38.0133 62.3176 39.29 60.6761 39.29H56.7547L52.6509 56.4347H57.6666C58.4874 56.4347 59.1258 55.7051 59.4905 55.9787C59.8553 56.2523 59.7641 56.8906 59.5817 57.4378L57.849 64.1862C57.4842 65.8277 56.0251 67.1045 54.3836 67.1045H31.1289C30.2169 67.1045 30.1258 67.6516 30.6729 68.1988Z" fill="#FF6601"/>
</svg>
