<svg width="96" height="96" viewBox="0 0 96 96" fill="none" xmlns="http://www.w3.org/2000/svg">
<circle cx="48" cy="48" r="47" fill="white" stroke="white" stroke-width="2"/>
<path fill-rule="evenodd" clip-rule="evenodd" d="M19.9916 51.1236L19.6863 53.4131H74.633L75.0158 51.1236H19.9916ZM74.3286 55.7792L74.0242 58.0677H19L19.381 55.7792H74.3286ZM73.6414 60.4347L73.3361 62.7242H28.6911L28.9974 60.4347H73.6414ZM75.6274 46.5446L75.3202 48.8341H20.3735L20.6779 46.5446H75.6274ZM77 37.2345L76.6172 39.524H21.6704L21.9758 37.2345H77ZM76.3128 41.8891L76.0084 44.1786H20.9842L21.3651 41.8891H76.3128ZM67.5367 30.2895H22.9683L23.2736 28H67.9186L67.5367 30.2895ZM66.9261 34.945H22.3577L22.663 32.6555H67.2305L66.9261 34.945ZM73.0317 65.0127L72.6489 67.3032H27.9282L28.2336 65.0127H73.0317Z" fill="#80374C"/>
<path fill-rule="evenodd" clip-rule="evenodd" d="M69.673 41.3551C70.4368 35.8601 65.9344 33.876 59.9819 33.876H46.0153L44.2599 46.1628L37.6968 33.876H29.0739L25.1821 61.3498H34.4157L35.7901 49.9024L42.2767 61.3498H56.5486C63.4162 61.3498 68.1473 59.7475 68.9877 53.5654C69.4452 50.5887 68.2239 48.0704 65.4769 47.3076C67.307 46.2394 69.3677 44.1787 69.673 41.3551ZM60.7439 43.1105C60.516 43.9499 59.5235 44.1796 57.7671 44.1796H54.0285L54.6382 41.8892H57.8446C59.7522 41.8892 61.0501 42.0423 60.7439 43.1105ZM59.6757 52.345C59.4478 53.1844 58.4553 53.4141 56.699 53.4141H52.8838L53.571 51.0481H56.7755C58.6831 51.0471 59.9819 51.2768 59.6757 52.345Z" fill="white"/>
</svg>
