<svg width="96" height="96" viewBox="0 0 96 96" fill="none" xmlns="http://www.w3.org/2000/svg">
<circle cx="48" cy="48" r="47" fill="white" stroke="white" stroke-width="2"/>
<path fill-rule="evenodd" clip-rule="evenodd" d="M48.0065 35L63.2949 41.8059H72.1629V44.654H77.0127V61.645H19V44.654H23.8502V41.8059H32.7182L48.0065 35Z" fill="#2F5693"/>
<path d="M48.0065 35L63.2949 41.8059H72.1636V44.654H77.0127V61.645H19.0004V44.654H23.8502V41.8059H32.7182L48.0065 35Z" stroke="#B52D4C" stroke-width="2.05816" stroke-miterlimit="2.613"/>
<path fill-rule="evenodd" clip-rule="evenodd" d="M48.0065 35L63.2949 41.8059H72.1636V44.654H77.0127V61.645H19.0004V44.654H23.8502V41.8059H32.7182L48.0065 35Z" fill="#2F5693" stroke="white" stroke-width="0.440957" stroke-miterlimit="2.613"/>
<path fill-rule="evenodd" clip-rule="evenodd" d="M40.3856 47.7434C40.8935 47.7434 41.3555 48.1778 41.4941 48.6604L41.6328 49.24V56.2392C41.4941 56.6733 41.2172 57.1563 40.7552 57.3007L40.1086 57.3977H35.7208C35.3052 57.3977 34.8892 57.2529 34.6582 56.8666C34.4736 56.6255 34.4736 56.3355 34.4272 56.0944V48.7571C34.5195 48.3708 34.7505 47.9849 35.1202 47.8397L35.4898 47.743L40.3856 47.7434ZM39.092 49.9156H36.9213V55.1292H39.1384L39.092 49.9156ZM29.6234 45.6675V55.1289H33.457V57.3974H27.083V45.6675H29.6234ZM63.2947 45.6675V48.4193H61.124V45.6675H63.2947ZM69.2071 48.5638V50.5426C68.7915 50.3978 68.2836 50.1086 67.868 49.9634C67.129 49.6737 65.9738 49.2875 65.4199 49.8667C65.2345 50.0115 65.1885 50.253 65.1885 50.4463C65.3272 51.1222 66.0661 51.2185 66.5277 51.5563C67.6822 52.0393 69.2527 52.9074 69.3914 54.4037C69.6687 55.5144 69.2527 56.5278 68.4678 57.2037C66.9433 58.507 62.9714 57.1067 62.9714 57.1067V54.8863C62.9714 54.8863 65.6038 55.9004 66.2504 55.8033C66.62 55.7552 66.9433 55.5622 67.082 55.2241C67.1287 54.9348 67.1287 54.6448 66.9433 54.403C65.6501 53.4378 63.9877 53.293 63.1101 51.7004C62.6945 50.8315 62.6945 49.6245 63.2488 48.8041C63.9877 47.6456 65.1882 47.3079 66.4817 47.4527C67.8676 47.6467 69.2071 48.5638 69.2071 48.5638ZM49.2999 55.1292H50.6391V47.7434H53.2258V55.9496C53.2258 56.4807 52.9485 57.0596 52.441 57.3007L51.9327 57.3977H48.8376C48.5143 57.3496 48.191 56.9637 48.0064 56.6737C47.7754 57.1078 47.6368 57.3977 47.1752 57.3977H44.2192C43.9882 57.3496 43.8955 57.3496 43.7572 57.2529C43.4799 57.1081 43.0179 56.9148 43.0179 55.9496V47.7434H45.5583V55.1292H46.9442V47.7434H49.2999V55.1292ZM60.5697 49.9156H57.1517V51.5082H60.5697V53.6811H57.1517V55.1292H60.5697V57.3977H54.6117V47.7434H60.5697V49.9156ZM69.7147 48.4675C69.7147 47.9849 70.0843 47.6467 70.5003 47.6467C70.8699 47.6467 71.2392 47.9849 71.2392 48.4675C71.2392 48.9019 70.8699 49.24 70.5003 49.24C70.0843 49.24 69.7147 48.9019 69.7147 48.4675ZM70.5003 49.0949C70.8236 49.0949 71.1006 48.8534 71.1006 48.4675C71.1006 48.0815 70.8232 47.7915 70.5003 47.7915C70.1307 47.7915 69.8533 48.0812 69.8533 48.4675C69.8533 48.8537 70.1303 49.0949 70.5003 49.0949ZM70.3157 48.9019H70.177V47.9849H70.5003C70.7316 47.9849 70.8236 48.0815 70.8236 48.2745C70.8236 48.4193 70.7316 48.4675 70.593 48.516L70.8703 48.9019H70.6849L70.4543 48.516H70.3157V48.9019ZM70.5003 48.4193C70.593 48.4193 70.6849 48.3708 70.6849 48.226C70.6849 48.1293 70.593 48.1293 70.5003 48.1293H70.3157V48.4189L70.5003 48.4193Z" fill="white"/>
</svg>
