<svg width="96" height="96" viewBox="0 0 96 96" fill="none" xmlns="http://www.w3.org/2000/svg">
<circle cx="48" cy="48" r="47" fill="white" stroke="white" stroke-width="2"/>
<g clip-path="url(#clip0_1_5243)">
<path fill-rule="evenodd" clip-rule="evenodd" d="M19 48.6599L20.8728 54.2784L28.6765 47.0987L19 48.6599Z" fill="#231F20"/>
<path fill-rule="evenodd" clip-rule="evenodd" d="M28.8754 47.058L41.3613 46.1214L46.1474 34L28.8754 47.058Z" fill="#00B159"/>
<path fill-rule="evenodd" clip-rule="evenodd" d="M70.6014 61.6846C69.9885 61.684 68.9683 61.6208 68.0827 61.1449C67.1954 60.6724 66.4553 59.7567 66.46 58.1472V51.9651H68.2407V57.8699C68.2403 57.8926 68.2403 57.9153 68.2403 57.9377C68.2437 58.9555 68.6242 59.4924 69.1254 59.8081C69.6288 60.1224 70.2768 60.1965 70.7866 60.1959C72.3526 60.1974 73.6784 59.2895 74.5363 58.4389V51.9651H76.3166V61.2644V61.4045H74.5363V60.2248C73.5343 61.0032 72.2401 61.6846 70.6027 61.6846H70.6014ZM59.2533 61.6846C57.4838 61.6852 56.0356 61.1411 55.029 60.2369C54.0221 59.3331 53.4627 58.07 53.4634 56.6585C53.4618 55.0443 54.1235 53.7878 55.169 52.9499C56.2142 52.1114 57.6348 51.6847 59.1609 51.6847C62.1305 51.68 63.583 53.0343 64.3365 54.255L64.4153 54.3817L62.9874 55.1529L62.874 55.214L62.8034 55.1066C62.3753 54.4648 61.5301 53.1796 59.1609 53.1731C57.2027 53.1849 55.249 54.2071 55.244 56.7985C55.2484 58.7196 56.9759 60.1922 59.29 60.1956C60.8416 60.1896 62.1178 59.781 63.1159 58.1612L63.1848 58.0491L64.7295 58.8628L64.6521 58.9901C63.7903 60.4196 62.3178 61.6852 59.2763 61.6846H59.2533ZM49.8476 55.6248C49.4974 54.2662 48.2191 53.1783 46.0596 53.1734C43.9779 53.1827 42.8306 54.1025 42.3728 55.6248H49.8476ZM51.4549 59.24L51.5937 59.3356L51.4745 59.4545C50.4909 60.4452 49.4532 61.6852 46.1548 61.6846H46.115C44.4551 61.6852 43.0482 61.1489 42.0566 60.2472C41.0649 59.3461 40.4916 58.0793 40.4922 56.641C40.4913 55.1498 41.0892 53.903 42.07 53.0374C43.0507 52.1714 44.409 51.6844 45.9295 51.6847C47.4777 51.6847 48.939 52.0594 50.0222 52.8951C51.1059 53.7305 51.7963 55.0331 51.7948 56.8288C51.7948 56.877 51.7935 56.9261 51.7935 56.975L51.7916 57.1135H42.2891C42.5048 58.7028 43.8843 60.1928 46.2632 60.1959C48.7233 60.1868 49.4834 59.1759 50.1019 58.4588L50.1837 58.3626L51.4549 59.24ZM28.655 59.4669L28.5588 59.3608L29.7783 58.3041L29.8856 58.2107L29.9775 58.3193C30.9006 59.4118 32.2599 60.194 34.2603 60.1956C35.0425 60.1962 35.7867 60.0779 36.3183 59.8364C36.8537 59.5896 37.1559 59.2496 37.1575 58.7775C37.1534 58.3529 36.929 58.0946 36.4939 57.8808C36.0606 57.6732 35.4328 57.5505 34.7297 57.4559C33.3206 57.2635 31.6147 57.1845 30.4381 56.618C29.6535 56.2455 29.0948 55.6095 29.1001 54.6092C29.0969 53.5123 29.7089 52.7591 30.5589 52.3119C31.4102 51.8605 32.5033 51.685 33.5376 51.6847C36.8344 51.6784 38.0856 53.0321 38.5951 53.7197L38.6742 53.8242L37.4476 54.8787L37.3564 54.7688C36.5838 53.8376 35.3942 53.1756 33.5189 53.1734C32.6437 53.1728 31.9686 53.3047 31.5291 53.54C31.0896 53.7788 30.8845 54.0916 30.881 54.5217C30.8842 54.8955 31.1011 55.124 31.5393 55.3176C31.9739 55.5034 32.6035 55.613 33.3079 55.7004C34.7185 55.8794 36.426 55.9746 37.6032 56.5766C38.3888 56.9744 38.9431 57.6395 38.9382 58.6723C38.9419 59.7754 38.3499 60.5526 37.4606 61.0204C36.572 61.4916 35.3858 61.6843 34.1305 61.6846H34.1162C31.9505 61.6846 30.1234 61.0901 28.655 59.4669Z" fill="#231F20"/>
</g>
<defs>
<clipPath id="clip0_1_5243">
<rect width="58" height="27.7015" fill="white" transform="translate(19 34)"/>
</clipPath>
</defs>
</svg>
