<svg width="96" height="96" viewBox="0 0 96 96" fill="none" xmlns="http://www.w3.org/2000/svg">
<circle cx="48" cy="48" r="47" fill="white" stroke="white" stroke-width="2"/>
<g clip-path="url(#clip0_1_1497)">
<path d="M24.895 47.5351L28.0729 43.9357L30.1928 37.3636C29.6937 37.2409 28.0729 40.6219 27.2461 41.6568C26.0301 43.1691 22.8637 45.8044 22.8637 45.8044L19.8824 47.2821C19.8824 47.2821 11.6186 48.3995 11.1137 48.5184L10.998 48.9189L19.4006 49.7335L21.4761 49.5898L17.1862 65.5744H19.4777L23.6577 53.538L25.9703 57.7546L27.4793 65.4748H29.5645L28.8977 57.0819L24.895 47.5351Z" fill="#9EA374"/>
<path d="M23.2415 41.3521L26.9359 39.3013L25.953 37.8025L22.6614 40.4628C22.8923 40.7332 23.0873 41.0321 23.2415 41.3521Z" fill="#7D2248"/>
<path d="M18.782 43.3703L20.6147 40.4206C20.2589 40.1505 19.8705 39.9257 19.4584 39.7517L16.3017 45.1681L22.7154 45.4863C22.8155 44.812 22.7946 44.1255 22.6537 43.4585L18.782 43.3703Z" fill="#9EA374"/>
<path d="M30.929 33.7739L26.4213 37.4213L27.4601 39.0101L32.517 36.2023L30.929 33.7739Z" fill="#7D2248"/>
<path d="M33.0412 35.909L37.7493 33.2947L35.5928 30L31.3973 33.3943L33.0412 35.909Z" fill="#7D2248"/>
<path d="M22.0023 42.1553C22.0019 42.342 21.9461 42.5244 21.8417 42.6796C21.7374 42.8348 21.5892 42.9559 21.4159 43.0276C21.2426 43.0993 21.0518 43.1184 20.8676 43.0826C20.6834 43.0467 20.5139 42.9576 20.3805 42.8262C20.2471 42.6949 20.1557 42.5272 20.1178 42.3444C20.08 42.1615 20.0973 41.9716 20.1676 41.7986C20.238 41.6255 20.3582 41.4769 20.5132 41.3716C20.6682 41.2663 20.851 41.2089 21.0387 41.2066C21.1649 41.2051 21.2901 41.2285 21.4071 41.2755C21.524 41.3226 21.6304 41.3922 21.7201 41.4805C21.8097 41.5688 21.8809 41.6739 21.9293 41.7897C21.9778 41.9056 22.0026 42.0299 22.0023 42.1553Z" fill="black"/>
<path d="M21.5051 65.1452L33.4074 64.7466L33.0682 66.0001H12.7152L13.3531 64.9459L21.5051 65.1452Z" fill="black"/>
<path d="M34.9067 57.5822L31.1738 49.4155H33.1742L35.0416 53.7106L36.9187 49.4116H38.7746L35.0416 57.5822H34.9067Z" fill="black"/>
<path d="M41.727 49.1106L45.4581 57.2773H43.4576L41.5921 52.9783L39.7131 57.285H37.8572L41.5921 49.1106H41.727Z" fill="black"/>
<path d="M64.9727 49.1106L68.7037 57.2773H66.7053L64.8378 52.9783L62.9627 57.2773H61.1049L64.8378 49.1106H64.9727Z" fill="black"/>
<path d="M46.5854 49.1587H46.7647L51.6925 53.7586V49.4155H53.427V57.5823H53.2593L48.3276 52.9939V57.2833H46.5932L46.5854 49.1587Z" fill="black"/>
<path d="M57.0771 51.06H54.5717V49.4155H61.4768V51.06H58.9715V57.2833H57.0771V51.06Z" fill="black"/>
<path d="M77.9504 49.4155H82.8204V51.037H79.7812V52.4591H82.3848V54.0729H79.7812V55.6273H82.8647V57.2833H77.9504V49.4155Z" fill="black"/>
<path d="M35.4829 59.884C35.4643 59.7682 35.4018 59.6639 35.3083 59.5926C35.2147 59.5213 35.0972 59.4884 34.9799 59.5006C34.7506 59.5006 34.4153 59.652 34.4153 60.2922C34.4153 60.6985 34.5772 61.0588 34.9799 61.0588C35.1024 61.0645 35.2224 61.0237 35.3158 60.9447C35.4092 60.8657 35.4689 60.7545 35.4829 60.6334H35.959C35.9323 60.8717 35.8151 61.0909 35.6313 61.2462C35.4476 61.4015 35.2111 61.4812 34.9703 61.469C34.3632 61.469 33.9296 61.0627 33.9296 60.2807C33.9296 59.4987 34.3883 59.0847 34.9761 59.0847C35.6583 59.0847 35.9397 59.5505 35.959 59.8859L35.4829 59.884Z" fill="black"/>
<path d="M38.8574 59.1423H40.0137C40.6189 59.1423 40.7306 59.587 40.7306 59.7825C40.7377 59.8982 40.7072 60.0132 40.6437 60.1105C40.5803 60.2077 40.4871 60.2822 40.378 60.323C40.5707 60.4035 40.667 60.4744 40.667 60.898C40.667 61.2295 40.667 61.312 40.7673 61.3484V61.4097H40.2411C40.2016 61.2604 40.1847 61.106 40.191 60.9516C40.191 60.6431 40.1718 60.5223 39.8191 60.5223H39.3277V61.4097H38.8613L38.8574 59.1423ZM39.8827 60.139C40.1294 60.139 40.2508 60.0546 40.2508 59.8304C40.2508 59.7097 40.1968 59.5333 39.9174 59.5333H39.3277V60.139H39.8827Z" fill="black"/>
<path d="M45.3597 59.5429H44.1456V60.0201H45.2557V60.4188H44.1456V61.0053H45.4079V61.4059H43.6735V59.1423H45.3482L45.3597 59.5429Z" fill="black"/>
<path d="M48.3373 59.1423H49.3491C50.1199 59.1423 50.276 59.7921 50.276 60.2214C50.276 60.7063 50.0833 61.4078 49.3298 61.4078H48.3431L48.3373 59.1423ZM48.8037 61.0168H49.2681C49.6535 61.0168 49.7846 60.6335 49.7846 60.2501C49.7846 59.5812 49.4647 59.5276 49.2604 59.5276H48.8037V61.0168Z" fill="black"/>
<path d="M53.6023 61.4078H53.1282V59.1423H53.6023V61.4078Z" fill="black"/>
<path d="M57.5511 61.4078H57.077V59.5429H56.3871V59.1423H58.2391V59.5429H57.5511V61.4078Z" fill="black"/>
<path d="M64.7164 60.6104C64.7164 61.2064 64.356 61.4613 63.7817 61.4613C63.6485 61.4672 63.5155 61.446 63.3909 61.3988C63.2663 61.3517 63.1527 61.2797 63.0571 61.1873C62.9335 61.031 62.8706 60.8358 62.8798 60.6372V59.1365H63.3654V60.6104C63.3654 60.9266 63.5485 61.0646 63.7721 61.0646C64.0978 61.0646 64.2307 60.9074 64.2307 60.6334V59.1403H64.7164V60.6104Z" fill="black"/>
<path d="M69.1084 59.1423H69.5536V61.4078H69.0776L68.1487 59.7921V61.4078H67.7054V59.1423H68.2065L69.1104 60.7197L69.1084 59.1423Z" fill="black"/>
<path d="M72.9859 61.4078H72.5099V59.1423H72.9859V61.4078Z" fill="black"/>
<path d="M76.9598 59.0771C77.2604 59.0771 78.0544 59.2056 78.0544 60.2693C78.0544 61.333 77.2604 61.4614 76.9598 61.4614C76.6591 61.4614 75.8651 61.3311 75.8651 60.2693C75.8651 59.2075 76.6572 59.0771 76.9598 59.0771ZM76.9598 61.0609C77.2161 61.0609 77.5784 60.9037 77.5784 60.2693C77.5784 59.6349 77.2161 59.4777 76.9598 59.4777C76.7034 59.4777 76.3411 59.6349 76.3411 60.2693C76.3411 60.9037 76.7015 61.0666 76.9598 61.0666V61.0609Z" fill="black"/>
<path d="M82.3598 59.1423H82.8049V61.4078H82.3289L81.4 59.7921V61.4078H80.9548V59.1423H81.4559L82.3598 60.7197V59.1423Z" fill="black"/>
<path d="M42.5557 56.3267C42.5553 56.5184 42.4979 56.7056 42.3906 56.8648C42.2833 57.024 42.131 57.148 41.9528 57.2211C41.7747 57.2943 41.5788 57.3134 41.3898 57.2759C41.2009 57.2384 41.0273 57.1461 40.891 57.0106C40.7548 56.875 40.6619 56.7024 40.6242 56.5145C40.5866 56.3265 40.6057 56.1317 40.6793 55.9545C40.7528 55.7774 40.8775 55.6259 41.0376 55.5192C41.1977 55.4125 41.3859 55.3554 41.5786 55.355C41.8378 55.355 42.0863 55.4574 42.2695 55.6396C42.4528 55.8218 42.5557 56.069 42.5557 56.3267Z" fill="#7D2248"/>
<path d="M65.8129 56.3267C65.8129 56.519 65.7556 56.7069 65.6481 56.8668C65.5407 57.0266 65.388 57.1512 65.2093 57.2247C65.0307 57.2981 64.8341 57.3173 64.6445 57.2796C64.4549 57.242 64.2808 57.1492 64.1443 57.0131C64.0077 56.8771 63.9148 56.7037 63.8773 56.5151C63.8398 56.3265 63.8594 56.131 63.9337 55.9535C64.0079 55.776 64.1335 55.6244 64.2944 55.5178C64.4553 55.4113 64.6444 55.3546 64.8378 55.355C64.966 55.355 65.093 55.3801 65.2114 55.429C65.3298 55.4778 65.4374 55.5495 65.528 55.6397C65.6186 55.73 65.6904 55.8371 65.7393 55.955C65.7881 56.0729 65.8132 56.1992 65.8129 56.3267Z" fill="#7D2248"/>
<path d="M76.1619 56.7426C75.2344 57.2415 74.2018 57.5159 73.1478 57.5438C70.7484 57.5438 68.9639 55.7805 68.9639 53.3713C68.9639 50.9621 70.7484 49.1662 73.2268 49.1662C74.1334 49.1585 75.0208 49.4259 75.7707 49.9328L75.5683 51.8955C74.8533 51.1863 74.1518 50.8298 73.327 50.8298C72.9999 50.8234 72.6748 50.8833 72.3717 51.0059C72.0686 51.1285 71.7938 51.3113 71.5641 51.543C71.3343 51.7747 71.1544 52.0505 71.0354 52.3537C70.9164 52.6568 70.8607 52.9809 70.8718 53.3061C70.8718 54.803 71.8662 55.836 73.2808 55.836C73.626 55.8333 73.9686 55.777 74.2964 55.6693V54.5193H72.8028V52.9247H76.1619V56.7426Z" fill="black"/>
<path d="M83.3619 50.2224C83.358 50.0606 83.4027 49.9014 83.4903 49.765C83.5779 49.6285 83.7043 49.5212 83.8535 49.4565C84.0026 49.3919 84.1678 49.3729 84.3279 49.4019C84.4879 49.431 84.6357 49.5068 84.7522 49.6198C84.8688 49.7327 84.9489 49.8776 84.9823 50.036C85.0157 50.1944 85.0009 50.359 84.9398 50.509C84.8787 50.659 84.7741 50.7875 84.6393 50.8781C84.5045 50.9688 84.3456 51.0174 84.1828 51.0178C84.0764 51.0193 83.9707 50.9999 83.8718 50.9608C83.7728 50.9216 83.6827 50.8634 83.6064 50.7895C83.5301 50.7156 83.4693 50.6275 83.4273 50.5302C83.3854 50.4329 83.3631 50.3283 83.3619 50.2224ZM83.518 50.2224C83.513 50.3537 83.5475 50.4834 83.6172 50.595C83.6868 50.7066 83.7884 50.795 83.9089 50.8488C84.0294 50.9026 84.1633 50.9194 84.2935 50.897C84.4236 50.8746 84.5441 50.814 84.6394 50.7231C84.7347 50.6321 84.8005 50.5149 84.8284 50.3866C84.8563 50.2582 84.845 50.1244 84.796 50.0024C84.7469 49.8805 84.6623 49.7759 84.5531 49.702C84.4439 49.6282 84.3149 49.5885 84.1828 49.588C84.0972 49.5857 84.0119 49.6004 83.9319 49.6311C83.852 49.6618 83.779 49.708 83.7171 49.7671C83.6553 49.8261 83.6058 49.8967 83.5716 49.9749C83.5375 50.053 83.5192 50.1372 83.518 50.2224ZM84.5914 50.669H84.4353L84.1751 50.2607H84.0132V50.6709H83.8783V49.7816H84.2792C84.3555 49.7764 84.4318 49.7909 84.5008 49.8237C84.5333 49.8439 84.5598 49.8723 84.5778 49.9059C84.5957 49.9396 84.6044 49.9773 84.603 50.0154C84.603 50.1898 84.4777 50.255 84.3139 50.2588L84.5914 50.669ZM84.1636 50.1496C84.2927 50.1496 84.4681 50.1726 84.4681 50.0135C84.4681 49.8985 84.3659 49.8832 84.2503 49.8832H84.0132V50.1496H84.1636Z" fill="black"/>
</g>
<defs>
<clipPath id="clip0_1_1497">
<rect width="74" height="36" fill="white" transform="translate(11 30)"/>
</clipPath>
</defs>
</svg>
