<svg width="96" height="96" viewBox="0 0 96 96" fill="none" xmlns="http://www.w3.org/2000/svg">
<circle cx="48" cy="48" r="47" fill="white" stroke="white" stroke-width="2"/>
<path d="M34.7062 55.7035C35.0719 56.2586 35.5434 56.8638 36.1555 57.5079H74.3203C74.9324 56.8638 75.4046 56.2586 75.7711 55.7035" fill="#E31837"/>
<path d="M33.489 52.0772C33.489 52.0772 33.3795 52.7593 33.7901 53.909H76.6853C77.0974 52.7593 76.9864 52.0772 76.9864 52.0772" fill="#E31837"/>
<path d="M76.9865 48.543H33.4891V50.3216H76.9865V48.543Z" fill="#E31837"/>
<path d="M76.9865 44.9843H33.4891V46.7628H76.9865V44.9843Z" fill="#E31837"/>
<path d="M76.9865 41.3688H33.4891V43.1755H76.9865V41.3688Z" fill="#E31837"/>
<path d="M76.9865 37.8079H33.4906V39.5872H76.9865V37.8079Z" fill="#E31837"/>
<path d="M38.097 59.2778C38.827 59.8633 39.6733 60.4678 40.6481 61.0898H69.8291C70.8032 60.4678 71.6487 59.8633 72.3779 59.2778" fill="#E31837"/>
<path d="M76.9857 34.1924H33.4906V36.0279H76.9857V34.1924Z" fill="#E31837"/>
<path d="M76.9857 30.6497H33.4906V32.4419H76.9857V30.6497Z" fill="#E31837"/>
<path d="M48.0488 64.9436C48.0731 64.5466 49.6623 63.6768 51.3481 62.8662H44.6111C46.2954 63.6768 47.8846 64.5466 47.9097 64.9436" fill="#E31837"/>
<path d="M76.9811 27H19.0289V28.834H76.9811V27Z" fill="#E31837"/>
<path d="M62.4678 43.1755H19.0275V44.9844H62.4678V43.1755Z" fill="#231F20"/>
<path d="M55.3097 61.0892H26.1865L30.148 62.8655H51.3481" fill="#231F20"/>
<path d="M62.1667 53.9091L61.2505 55.7021H20.2433L19.3293 53.9091" fill="#231F20"/>
<path d="M62.4687 50.3215H19.0253V52.0772H62.4687V50.3215Z" fill="#231F20"/>
<path d="M62.4685 39.5889H19.0289V41.369H62.4685V39.5889Z" fill="#231F20"/>
<path d="M59.8041 57.5079L57.8614 59.2796H23.636L21.6925 57.5079" fill="#231F20"/>
<path d="M62.4685 37.808L62.4678 36.0295H19.0289V37.808" fill="#231F20"/>
<path d="M62.467 32.4411H19.0289V34.1922H62.467V32.4411Z" fill="#231F20"/>
<path d="M76.9811 28.8341H19.0289V30.6681H76.9811V28.8341Z" fill="#231F20"/>
<path d="M62.4411 46.762H19V48.5413H62.4411V46.762Z" fill="#231F20"/>
<path fill-rule="evenodd" clip-rule="evenodd" d="M57.6925 64.755C57.6925 65.142 57.4659 65.32 56.9861 65.32H56.1451V64.184H57.037C57.4567 64.184 57.6925 64.3786 57.6925 64.755ZM58.138 64.755C58.138 64.0912 57.6674 63.7886 57.0621 63.7886H55.6995V67.1434H56.1451V65.7389H56.869L57.5913 67.1434H58.113L57.3647 65.7055C57.8354 65.596 58.138 65.2607 58.138 64.755ZM59.4178 65.5222C59.4178 67.0841 58.281 68.1691 56.7929 68.1691C55.3049 68.1691 54.1681 67.0841 54.1681 65.5222C54.1681 63.9566 55.3049 62.8731 56.7929 62.8731C58.281 62.8731 59.4178 63.9566 59.4178 65.5222ZM59.8284 65.5222C59.8284 63.7125 58.5167 62.4853 56.7929 62.4853C55.0692 62.4853 53.759 63.7125 53.759 65.5222C53.759 67.3297 55.0692 68.5561 56.7929 68.5561C58.5167 68.5561 59.8284 67.3297 59.8284 65.5222Z" fill="#6D6E70"/>
</svg>
