<svg width="96" height="96" viewBox="0 0 96 96" fill="none" xmlns="http://www.w3.org/2000/svg">
<circle cx="48" cy="48" r="47" fill="white" stroke="white" stroke-width="2"/>
<g clip-path="url(#clip0_1_9461)">
<path d="M37.3701 44.7393C34.5444 44.7393 32.9645 46.0732 32.9645 48.3999C32.9645 50.6955 34.5444 52.0605 37.3701 52.0605C40.2261 52.0605 41.7757 50.7265 41.7757 48.3999C41.806 46.0732 40.2261 44.7393 37.3701 44.7393ZM37.3701 50.6955C35.4863 50.6955 34.5141 49.8579 34.5141 48.3688C34.5141 46.8798 35.5167 46.0422 37.3701 46.0422C39.2539 46.0422 40.2261 46.8798 40.2261 48.3688C40.2261 49.8579 39.2539 50.6955 37.3701 50.6955Z" fill="#001133"/>
<path d="M48.1865 45.7939L46.0596 48.4308L43.9328 45.7939H42.1706L44.6924 48.8651L42.201 51.9363H43.9024L46.0596 49.3305L48.2168 51.9363H49.9183L47.4269 48.8651L49.9487 45.7939H48.1865Z" fill="#001133"/>
<path d="M54.5062 50.8505L52.1363 45.7939H50.526L53.0174 51.0367H54.4455C54.0201 51.9053 53.4124 52.1224 52.3186 52.1224C51.6806 52.1224 51.1337 52.0294 50.7083 51.9053V53.1772C51.1033 53.3013 51.6198 53.3633 52.2579 53.3633C53.9593 53.3633 55.0835 52.9911 55.8127 51.3779L58.3347 45.7939H56.7242L54.5062 50.8505Z" fill="#001133"/>
<path d="M62.3451 49.7646C60.8565 49.7646 60.0055 49.3613 60.0055 48.3686C60.0055 47.4069 60.8866 46.9726 62.3451 46.9726C63.5605 46.9726 64.7148 47.4069 64.9276 48.4307C64.8669 46.5383 63.9858 45.7007 61.9198 45.7007C59.8539 45.7007 58.4863 46.5693 58.4863 48.4307C58.4863 50.1989 59.8233 50.9745 61.95 50.9745C63.8944 50.9745 64.8367 50.323 64.8975 48.5237C64.654 49.4233 63.6213 49.7646 62.3451 49.7646Z" fill="#001133"/>
<path d="M64.9277 48.4306V50.3232C64.9277 51.564 64.2594 52.0914 61.8893 52.0914C60.6135 52.0914 59.5196 51.8742 58.8513 51.6571V53.0221C59.5497 53.2082 60.5829 53.3633 61.8893 53.3633C65.1707 53.3633 66.5076 52.4947 66.5076 50.3232V45.7939H64.9583V48.4308L64.9277 48.4306Z" fill="#001133"/>
<path d="M71.5512 45.6699C69.2422 45.6699 67.723 46.8177 67.723 48.8962C67.723 51.0677 69.2116 52.0294 72.007 52.0294C73.2526 52.0294 74.2858 51.8433 75.0454 51.5641V50.3542C74.1643 50.6644 73.1311 50.7885 72.0678 50.7885C70.275 50.7885 69.3939 50.3853 69.2422 49.2995H75.1363C75.2884 47.0659 74.2552 45.6699 71.5512 45.6699ZM69.303 48.2137C69.546 47.283 70.3056 46.8798 71.5206 46.8798C72.9489 46.8798 73.587 47.3451 73.7386 48.2137H69.303Z" fill="#001133"/>
<path d="M81.0003 45.6699C79.2687 45.6699 78.1747 46.5075 78.0226 48.1827C78.4785 47.4382 79.2687 47.0039 80.3622 47.0039C81.6078 47.0039 82.3066 47.5312 82.3066 48.7101V51.9053H83.8258V48.4929C83.8564 46.6936 82.9146 45.6699 81.0003 45.6699Z" fill="#001133"/>
<path d="M76.5341 45.7939V51.9363H78.0227V48.1825V45.7939H76.5341Z" fill="#001133"/>
<path d="M22.6341 41.2336C21.8138 40.9854 20.8719 40.8613 19.8996 40.8613C15.0383 40.8613 12 43.7774 12 48.4306C12 53.084 15.0383 56 19.8996 56C24.761 56 27.7993 53.084 27.7993 48.4306C27.7993 47.3139 27.617 46.3212 27.3131 45.4216C24.366 45.8248 22.4518 43.9325 22.6341 41.2336ZM19.8996 51.0675C18.2285 51.0675 17.1955 50.0748 17.1955 48.4617C17.1955 46.8485 18.2285 45.8558 19.8996 45.8558C21.5707 45.8558 22.6038 46.8485 22.6038 48.4617C22.6038 50.0748 21.5403 51.0675 19.8996 51.0675Z" fill="#001133"/>
<path d="M26.584 44.2117C28.0774 44.2117 29.2881 43.045 29.2881 41.6058C29.2881 40.1667 28.0774 39 26.584 39C25.0906 39 23.8799 40.1667 23.8799 41.6058C23.8799 43.045 25.0906 44.2117 26.584 44.2117Z" fill="#001133"/>
</g>
<defs>
<clipPath id="clip0_1_9461">
<rect width="72" height="17" fill="white" transform="translate(12 39)"/>
</clipPath>
</defs>
</svg>
