<svg width="96" height="96" viewBox="0 0 96 96" fill="none" xmlns="http://www.w3.org/2000/svg">
<circle cx="48" cy="48" r="47" fill="white" stroke="white" stroke-width="2"/>
<path fill-rule="evenodd" clip-rule="evenodd" d="M25 19V19.2622C42.1941 21.2558 53.888 26.4118 55.1552 33.1409C56.3514 39.5095 43.7343 46.5062 25 47.4511V65.672C41.6588 65.3115 53.1616 60.1937 55.756 54.4806C57.6294 50.3568 54.6254 46.6209 49.1689 43.5349C50.2122 42.9996 51.1571 42.4425 51.9928 41.869C58.8638 45.3646 63.3699 49.7942 64.14 54.5953C65.6257 63.7986 49.4147 74.127 25 76.7597V77H71.5409V19H25Z" fill="#004B85"/>
<path fill-rule="evenodd" clip-rule="evenodd" d="M49.2563 32.9766C52.1457 26.9139 37.4968 21.8671 25 20.2012V34.3912C31.1392 35.145 36.8141 36.4067 41.9592 37.9415C45.8044 36.6524 48.3551 34.8828 49.2563 32.9766Z" fill="#004B85"/>
<path fill-rule="evenodd" clip-rule="evenodd" d="M38.0485 38.985C33.9029 37.7233 29.4187 36.7293 25 36.0083V39.9354C29.9758 40.1102 34.3945 39.7442 38.0485 38.985Z" fill="#004B85"/>
</svg>
