<svg width="96" height="96" viewBox="0 0 96 96" fill="none" xmlns="http://www.w3.org/2000/svg">
<circle cx="48" cy="48" r="47" fill="white" stroke="white" stroke-width="2"/>
<path d="M34.167 42.6207H33.297C32.7073 40.842 30.4647 38.8893 26.801 38.8893C25.0513 38.8893 23.2727 39.566 23.2727 40.9097C23.2727 44.1673 34.9403 44.6023 34.9403 49.049C34.9403 50.8953 32.5623 52.9737 27.5647 52.9737C24.9063 52.9737 23.1953 52.239 22.1513 52.239C21.4167 52.239 21.0687 52.6063 21.0687 52.9543H20.305L19.261 48.353H20.0633C20.7303 49.3777 22.509 52.1907 27.2263 52.1907C30.02 52.1907 31.4217 50.9533 31.4217 49.7837C31.4217 48.5463 30.861 47.8117 25.728 45.946C22.5187 44.7957 20.276 43.8387 20.276 41.6927C20.276 39.218 23.4563 38 26.598 38C28.6957 38 30.5807 38.7347 31.4507 38.7347C32.427 38.7347 32.601 38.232 32.6687 38H33.4033L34.167 42.6207Z" fill="#009944"/>
<path d="M43.1086 45.221C46.0473 45.2017 51.2866 45.1533 51.2866 42.0503C51.2866 39.16 46.7143 39.102 45.274 39.102C43.418 39.102 43.1086 39.2567 43.1086 39.885V45.221ZM59.0103 52.6644H53.3843L45.071 45.9847L43.1183 46.033V50.3057C43.1183 51.7557 43.4663 52.1714 46.26 52.2584V52.674H36.574V52.2584C39.4063 52.152 39.5416 51.6977 39.5416 50.064V40.668C39.5416 39.0633 39.0196 38.87 36.574 38.7153V38.2997H46.2116C49.3243 38.2997 55.0856 38.754 55.0856 42.0987C55.0856 45.0083 50.5423 45.5304 48.7636 45.743L55.9653 51.2337C56.729 51.8234 57.57 52.21 59.0006 52.2584V52.6644H59.0103Z" fill="#009944"/>
<path d="M65.1197 45.482C65.7867 45.5207 66.4827 45.5497 67.2173 45.5497C68.5127 45.5497 73.1913 45.5497 73.1913 42.2533C73.1913 39.1503 68.0873 39.1117 66.5503 39.1117C65.5063 39.1117 65.1197 39.131 65.1197 39.8463V45.482ZM58.6237 38.2997H67.8457C72.6693 38.2997 77 39.45 77 42.205C77 43.8967 75.463 44.786 74.8733 45.134C73.375 46.0233 71.1323 46.41 67.4687 46.41C66.6277 46.41 65.9703 46.3907 65.1293 46.3423V50.296C65.1293 51.8814 65.719 52.21 68.416 52.2487V52.6644H58.6237V52.2487C61.5623 52.123 61.5623 51.6204 61.5623 50.0544V40.6583C61.5623 39.1213 61.1757 38.8603 58.6237 38.7057V38.2997Z" fill="#009944"/>
<path d="M19 57.2464C19.2127 57.227 19.3383 57.2077 19.3867 57.169C19.435 57.1304 19.464 57.0337 19.464 56.879V55.313C19.464 55.1874 19.435 55.1004 19.377 55.0617C19.319 55.023 19.1933 54.994 19 54.9844V54.9167H21.8227L21.842 55.4387H21.697C21.6583 55.2744 21.5907 55.168 21.494 55.1197C21.3973 55.0714 21.1943 55.052 20.9043 55.052H20.1793C20.1117 55.052 20.0633 55.0617 20.044 55.081C20.0247 55.1004 20.015 55.1294 20.015 55.1777V55.9897H20.7787C21.001 55.9897 21.146 55.9704 21.2137 55.922C21.2717 55.8737 21.3297 55.7867 21.3683 55.6417H21.494V56.4827H21.3683C21.3297 56.3377 21.2813 56.2507 21.2137 56.2024C21.1557 56.154 21.0107 56.1347 20.7883 56.1347H20.0247V56.9274C20.0247 57.0627 20.0537 57.14 20.1117 57.1787C20.1697 57.2174 20.305 57.2367 20.4983 57.2464V57.314H19V57.2464Z" fill="#009944"/>
<path d="M22.2674 57.2657C22.422 57.256 22.5284 57.2367 22.567 57.2077C22.6154 57.1787 22.6347 57.111 22.6347 57.0047V55.7094C22.6347 55.603 22.6154 55.5354 22.567 55.5064C22.5187 55.4774 22.422 55.458 22.2577 55.4484V55.4H24.51L24.5294 55.8157H24.423C24.3844 55.69 24.336 55.603 24.2587 55.5644C24.191 55.5257 24.0267 55.5064 23.7754 55.5064H23.1954C23.1374 55.5064 23.0987 55.516 23.0794 55.5257C23.06 55.5354 23.06 55.5644 23.06 55.603V56.2507H23.7174C23.901 56.2507 24.017 56.2314 24.0654 56.1927C24.1137 56.154 24.1524 56.0767 24.191 55.9704H24.2877V56.647H24.191C24.162 56.531 24.1137 56.4634 24.0654 56.4247C24.017 56.386 23.901 56.3667 23.7174 56.3667H23.06V57.0917C23.06 57.1497 23.089 57.1884 23.1374 57.198C23.1954 57.2077 23.35 57.2174 23.6207 57.2174C23.9107 57.2174 24.1234 57.198 24.2587 57.1497C24.394 57.111 24.5197 57.0047 24.6357 56.8404H24.7517L24.5584 57.3237H22.2674V57.2657Z" fill="#009944"/>
<path d="M26.018 57.1884C26.0567 57.2077 26.1243 57.2077 26.2307 57.2077C26.5593 57.2077 26.8397 57.1594 27.0523 57.0724C27.381 56.937 27.5453 56.6954 27.5453 56.3667C27.5453 56.067 27.41 55.8447 27.1393 55.69C26.9073 55.5644 26.598 55.4967 26.2113 55.4967C26.1147 55.4967 26.047 55.5064 26.018 55.516C25.989 55.5257 25.9697 55.5644 25.9697 55.6127V57.0917C25.9697 57.14 25.9793 57.169 26.018 57.1884ZM25.1577 57.2657C25.3123 57.256 25.409 57.2367 25.4573 57.2077C25.5057 57.1787 25.525 57.111 25.525 57.0047V55.7094C25.525 55.603 25.5057 55.5354 25.4573 55.5064C25.409 55.4774 25.3123 55.458 25.148 55.4484V55.4H26.2887C26.6753 55.4 27.004 55.4484 27.265 55.5257C27.7483 55.6804 27.99 55.9607 27.99 56.3667C27.99 56.5117 27.9513 56.647 27.8643 56.7824C27.7773 56.908 27.6517 57.024 27.4777 57.111C27.3713 57.169 27.2553 57.2077 27.1297 57.2367C26.917 57.2947 26.6463 57.3237 26.3273 57.3237H25.1577V57.2657Z" fill="#009944"/>
<path d="M28.4734 57.2657C28.628 57.256 28.7344 57.2367 28.773 57.2077C28.8214 57.1787 28.8407 57.111 28.8407 57.0047V55.7094C28.8407 55.603 28.8214 55.5354 28.773 55.5064C28.7247 55.4774 28.628 55.458 28.4637 55.4484V55.4H30.7354L30.7547 55.8157H30.6387C30.6 55.69 30.5517 55.603 30.4744 55.5644C30.4067 55.5257 30.2424 55.5064 29.991 55.5064H29.411C29.353 55.5064 29.3144 55.516 29.295 55.5257C29.2757 55.5354 29.2757 55.5644 29.2757 55.603V56.2507H29.933C30.1167 56.2507 30.2327 56.2314 30.281 56.1927C30.3294 56.154 30.368 56.0767 30.4067 55.9704H30.5034V56.647H30.4067C30.3777 56.531 30.3294 56.4634 30.281 56.4247C30.2327 56.386 30.1167 56.3667 29.933 56.3667H29.2854V57.0917C29.2854 57.1497 29.3144 57.1884 29.3627 57.198C29.4207 57.2077 29.5754 57.2174 29.846 57.2174C30.136 57.2174 30.3487 57.198 30.484 57.1497C30.6194 57.111 30.745 57.0047 30.861 56.8404H30.977L30.7837 57.3237H28.483V57.2657H28.4734Z" fill="#009944"/>
<path d="M32.7944 56.2603C33.0264 56.1927 33.1327 56.0767 33.1327 55.9027C33.1327 55.7287 33.036 55.6223 32.833 55.5547C32.7267 55.5257 32.5817 55.5063 32.398 55.5063C32.282 55.5063 32.2047 55.516 32.1757 55.5257C32.1467 55.5353 32.137 55.5643 32.137 55.6127V56.328C32.4464 56.3183 32.6687 56.299 32.7944 56.2603ZM31.3444 57.2657C31.5087 57.256 31.615 57.2367 31.6537 57.198C31.6924 57.169 31.7117 57.0917 31.7117 56.966V55.6997C31.7117 55.5933 31.6924 55.5353 31.644 55.4967C31.5957 55.4677 31.499 55.4483 31.3444 55.4387V55.3903H32.5237C32.7654 55.3903 32.9684 55.4097 33.1327 55.458C33.442 55.5353 33.5967 55.69 33.5967 55.9027C33.5967 56.0477 33.529 56.1637 33.3937 56.241C33.2584 56.3183 33.065 56.3667 32.833 56.3957L33.7127 57.1303C33.7707 57.1787 33.819 57.2077 33.877 57.227C33.935 57.2463 34.0027 57.2657 34.08 57.2657V57.314H33.3937L32.3304 56.415L32.1467 56.4247V56.995C32.1467 57.1013 32.166 57.169 32.2144 57.198C32.2627 57.227 32.369 57.2463 32.5237 57.256V57.3043H31.3444V57.2657Z" fill="#009944"/>
<path d="M36.3033 56.5697L35.82 55.7674L35.3367 56.5697H36.3033ZM34.4763 57.314V57.2657C34.5827 57.256 34.6697 57.227 34.7277 57.1787C34.7857 57.1304 34.8727 57.0047 35.008 56.7824L35.8973 55.3517H35.9747L37.0283 57.0047C37.096 57.111 37.154 57.1787 37.1927 57.2077C37.2313 57.2367 37.3087 57.256 37.4053 57.256V57.3044H36.3227V57.256C36.4483 57.2464 36.5257 57.2367 36.5643 57.227C36.603 57.2174 36.6223 57.1884 36.6223 57.1497C36.6223 57.14 36.6127 57.111 36.603 57.0724C36.5933 57.0337 36.574 56.995 36.545 56.9564L36.371 56.676H35.2497C35.1337 56.8694 35.0757 56.9854 35.0467 57.024C35.0273 57.0627 35.0177 57.1014 35.0177 57.1207C35.0177 57.169 35.0467 57.2077 35.1047 57.227C35.1433 57.2367 35.211 57.2464 35.3077 57.256V57.3044H34.4763V57.314Z" fill="#009944"/>
<path d="M37.792 57.2657C37.9467 57.256 38.053 57.2367 38.0917 57.2077C38.14 57.1787 38.1593 57.111 38.1593 57.0047V55.7094C38.1593 55.603 38.14 55.5354 38.0917 55.5064C38.0433 55.4774 37.9467 55.458 37.7823 55.4484V55.4H38.981V55.4484C38.8263 55.458 38.72 55.4677 38.6717 55.4967C38.6234 55.5257 38.5943 55.5934 38.5943 55.69V57.0917C38.5943 57.1207 38.604 57.1497 38.6137 57.169C38.633 57.1884 38.662 57.198 38.72 57.2077C38.749 57.2077 38.7877 57.2077 38.8167 57.2174C38.8554 57.2174 38.9133 57.2174 39.0197 57.2174C39.3967 57.2174 39.6577 57.198 39.7834 57.1497C39.9187 57.111 40.0444 56.995 40.17 56.821H40.2763L40.0637 57.3237H37.792V57.2657Z" fill="#009944"/>
<path d="M44.636 54.936C44.839 54.9747 44.955 54.994 44.9743 54.994C45.0227 54.994 45.071 54.9843 45.1193 54.965C45.1677 54.9457 45.1967 54.9167 45.216 54.878H45.3223L45.3707 55.69H45.245C45.1773 55.5257 45.0807 55.4 44.9647 55.3033C44.752 55.1197 44.4523 55.023 44.085 55.023C43.7177 55.023 43.4083 55.1197 43.1763 55.3227C42.9443 55.5257 42.8283 55.7963 42.8283 56.154C42.8283 56.473 42.954 56.734 43.1957 56.9273C43.447 57.1207 43.7563 57.2173 44.1333 57.2173C44.404 57.2173 44.6553 57.169 44.8873 57.082C45.0227 57.0337 45.1677 56.9563 45.3223 56.85L45.419 56.9177C45.303 57.024 45.158 57.111 44.984 57.1883C44.6843 57.314 44.3653 57.3817 44.0173 57.3817C43.447 57.3817 42.9927 57.256 42.664 57.0047C42.3547 56.7727 42.2 56.4827 42.2 56.1443C42.2 55.7963 42.3643 55.4967 42.693 55.255C43.041 55.0037 43.4857 54.878 44.0367 54.878C44.2397 54.878 44.433 54.8973 44.636 54.936Z" fill="#009944"/>
<path d="M47.4587 56.2603C47.6907 56.1927 47.797 56.0767 47.797 55.9027C47.797 55.7287 47.7003 55.6223 47.4973 55.5547C47.391 55.5257 47.246 55.5063 47.0623 55.5063C46.9463 55.5063 46.869 55.516 46.84 55.5257C46.811 55.5353 46.8013 55.5643 46.8013 55.6127V56.328C47.1107 56.3183 47.333 56.299 47.4587 56.2603ZM46.0087 57.2657C46.173 57.256 46.2793 57.2367 46.318 57.198C46.3567 57.169 46.376 57.0917 46.376 56.966V55.6997C46.376 55.5933 46.3567 55.5353 46.3083 55.4967C46.26 55.4677 46.1633 55.4483 46.0087 55.4387V55.3903H47.188C47.4297 55.3903 47.6327 55.4097 47.797 55.458C48.1063 55.5353 48.261 55.69 48.261 55.9027C48.261 56.0477 48.1933 56.1637 48.058 56.241C47.9227 56.3183 47.7293 56.3667 47.4973 56.3957L48.377 57.1303C48.435 57.1787 48.4833 57.2077 48.5413 57.227C48.5993 57.2463 48.667 57.2657 48.7443 57.2657V57.314H48.058L46.9947 56.415L46.811 56.4247V56.995C46.811 57.1013 46.8303 57.169 46.8787 57.198C46.927 57.227 47.0333 57.2463 47.188 57.256V57.3043H46.0087V57.2657Z" fill="#009944"/>
<path d="M49.1116 57.2657C49.2663 57.256 49.3726 57.2367 49.4113 57.2077C49.4596 57.1787 49.479 57.111 49.479 57.0047V55.7094C49.479 55.603 49.4596 55.5354 49.4113 55.5064C49.363 55.4774 49.2663 55.458 49.102 55.4484V55.4H51.3543L51.3736 55.8157H51.2673C51.2286 55.69 51.1803 55.603 51.103 55.5644C51.0353 55.5257 50.871 55.5064 50.6196 55.5064H50.0396C49.9816 55.5064 49.943 55.516 49.9236 55.5257C49.914 55.5354 49.9043 55.5644 49.9043 55.603V56.2507H50.5616C50.7453 56.2507 50.8613 56.2314 50.9096 56.1927C50.958 56.154 50.9966 56.0767 51.0256 55.9704H51.1223V56.647H51.0256C50.9966 56.531 50.9483 56.4634 50.9 56.4247C50.8516 56.386 50.7356 56.3667 50.552 56.3667H49.8946V57.0917C49.8946 57.1497 49.9236 57.1884 49.972 57.198C50.03 57.2077 50.1846 57.2174 50.4456 57.2174C50.7356 57.2174 50.9483 57.198 51.0836 57.1497C51.219 57.111 51.3446 57.0047 51.4606 56.8404H51.5766L51.3833 57.3237H49.0826V57.2657H49.1116Z" fill="#009944"/>
<path d="M52.8623 57.1884C52.901 57.2077 52.9687 57.2077 53.075 57.2077C53.4037 57.2077 53.684 57.1594 53.8967 57.0724C54.2253 56.937 54.3897 56.6954 54.3897 56.3667C54.3897 56.067 54.2543 55.8447 53.9837 55.69C53.7517 55.5644 53.4423 55.4967 53.0557 55.4967C52.959 55.4967 52.8913 55.5064 52.8623 55.516C52.8333 55.5257 52.814 55.5644 52.814 55.6127V57.0917C52.814 57.14 52.8237 57.169 52.8623 57.1884ZM52.0117 57.2657C52.1663 57.256 52.263 57.2367 52.3113 57.2077C52.3597 57.1787 52.379 57.111 52.379 57.0047V55.7094C52.379 55.603 52.3597 55.5354 52.3113 55.5064C52.263 55.4774 52.1663 55.458 52.002 55.4484V55.4H53.1427C53.5293 55.4 53.858 55.4484 54.119 55.5257C54.6023 55.6804 54.844 55.9607 54.844 56.3667C54.844 56.5117 54.8053 56.647 54.7183 56.7824C54.6313 56.908 54.5057 57.024 54.3317 57.111C54.2253 57.169 54.1093 57.2077 53.9837 57.2367C53.771 57.2947 53.5003 57.3237 53.1813 57.3237H52.002V57.2657H52.0117Z" fill="#009944"/>
<path d="M55.3467 57.2657C55.5207 57.256 55.627 57.2367 55.685 57.2174C55.7333 57.1884 55.7623 57.1207 55.7623 57.0047V55.7094C55.7623 55.603 55.7333 55.5354 55.685 55.5064C55.6367 55.4774 55.5207 55.458 55.3467 55.4484V55.4H56.6033V55.4484C56.4293 55.458 56.323 55.4677 56.265 55.5064C56.2167 55.5354 56.1877 55.603 56.1877 55.7094V57.0047C56.1877 57.1207 56.2167 57.1884 56.265 57.2174C56.3133 57.2464 56.4293 57.2657 56.6033 57.2657V57.314H55.3467V57.2657Z" fill="#009944"/>
<path d="M57.048 55.3903H59.4453L59.4646 55.8833H59.3583C59.31 55.7287 59.2423 55.6223 59.165 55.5837C59.0876 55.5353 58.9233 55.516 58.6816 55.516H58.4496V57.0047C58.4496 57.1207 58.4786 57.1883 58.527 57.2173C58.5753 57.2463 58.6913 57.2657 58.8653 57.2657V57.314H57.6183V57.2657C57.802 57.256 57.918 57.2367 57.9566 57.2077C58.005 57.1787 58.0243 57.1013 58.0243 56.9757V55.5257H57.7826C57.5506 55.5257 57.3863 55.545 57.2993 55.5933C57.2123 55.6417 57.1543 55.7383 57.106 55.893H56.9996L57.048 55.3903Z" fill="#009944"/>
<path d="M62.877 54.9263V54.994C62.674 55.0037 62.5387 55.023 62.4807 55.0617C62.4227 55.1003 62.3937 55.1873 62.3937 55.313V56.473C62.3937 56.6663 62.4323 56.8113 62.5097 56.9177C62.6547 57.111 62.9157 57.2077 63.312 57.2077C63.747 57.2077 64.037 57.111 64.182 56.908C64.269 56.8017 64.3077 56.6277 64.3077 56.3957V55.458C64.3077 55.2647 64.269 55.139 64.2013 55.0907C64.1337 55.0423 63.9983 55.0133 63.8147 54.994V54.9263H65.0423V54.994C64.8393 55.0133 64.704 55.0423 64.646 55.1003C64.588 55.1487 64.5493 55.2743 64.5493 55.4677V56.4053C64.5493 56.6567 64.4913 56.85 64.385 56.995C64.182 57.256 63.7857 57.3817 63.2057 57.3817C62.6353 57.3817 62.2487 57.256 62.036 56.995C61.92 56.8597 61.8717 56.676 61.8717 56.4537V55.3227C61.8717 55.1873 61.8427 55.11 61.7847 55.0713C61.7267 55.0327 61.5913 55.0133 61.398 55.0037V54.936H62.877V54.9263Z" fill="#009944"/>
<path d="M65.516 57.2657C65.69 57.256 65.806 57.227 65.8543 57.1884C65.9027 57.1497 65.9317 57.053 65.9317 56.8984V55.6127L65.8737 55.5644C65.8157 55.516 65.7577 55.487 65.719 55.4677C65.6707 55.458 65.6127 55.4484 65.5257 55.4484V55.4H66.2507L67.894 56.792V55.8254C67.894 55.6707 67.8553 55.5644 67.7877 55.516C67.7393 55.487 67.6427 55.4677 67.488 55.458V55.4097H68.4837V55.458C68.3193 55.4677 68.213 55.4967 68.1647 55.5354C68.1067 55.574 68.0873 55.6707 68.0873 55.8254V57.3527H68.0197L66.1153 55.7577V56.8887C66.1153 57.0434 66.1443 57.1497 66.212 57.198C66.2603 57.227 66.357 57.2464 66.5117 57.2657V57.314H65.516V57.2657Z" fill="#009944"/>
<path d="M68.88 57.2657C69.054 57.256 69.1603 57.2367 69.2183 57.2174C69.2667 57.1884 69.2957 57.1207 69.2957 57.0047V55.7094C69.2957 55.603 69.2667 55.5354 69.2183 55.5064C69.17 55.4774 69.054 55.458 68.88 55.4484V55.4H70.1367V55.4484C69.9627 55.458 69.8563 55.4677 69.7983 55.5064C69.75 55.5354 69.721 55.603 69.721 55.7094V57.0047C69.721 57.1207 69.75 57.1884 69.7983 57.2174C69.8467 57.2464 69.9627 57.2657 70.1367 57.2657V57.314H68.88V57.2657Z" fill="#009944"/>
<path d="M71.3643 57.0337C71.5383 57.1787 71.7607 57.256 72.012 57.256C72.2633 57.256 72.476 57.1884 72.65 57.0434C72.824 56.8984 72.9207 56.676 72.9207 56.357C72.9207 56.038 72.8337 55.8157 72.65 55.6707C72.4663 55.5257 72.2537 55.458 72.012 55.458C71.7607 55.458 71.5383 55.5354 71.3643 55.6804C71.1903 55.8254 71.1033 56.0574 71.1033 56.357C71.0937 56.6664 71.1807 56.8887 71.3643 57.0337ZM71.0453 55.6127C71.3063 55.4387 71.6253 55.3517 72.012 55.3517C72.3987 55.3517 72.7177 55.4387 72.9787 55.6127C73.259 55.7964 73.404 56.0477 73.404 56.357C73.404 56.676 73.259 56.9274 72.969 57.111C72.708 57.2754 72.389 57.3624 72.0217 57.3624C71.6253 57.3624 71.2967 57.2657 71.0357 57.082C70.765 56.8984 70.6393 56.6567 70.6393 56.357C70.62 56.0477 70.7553 55.7964 71.0453 55.6127Z" fill="#009944"/>
<path d="M73.8776 57.2657C74.0516 57.256 74.1676 57.227 74.216 57.1884C74.2643 57.1497 74.2933 57.053 74.2933 56.8984V55.6127L74.2353 55.5644C74.1773 55.516 74.1193 55.487 74.0806 55.4677C74.0323 55.458 73.9743 55.4484 73.8873 55.4484V55.4H74.6123L76.2556 56.792V55.8254C76.2556 55.6707 76.217 55.5644 76.1493 55.516C76.101 55.487 76.0043 55.4677 75.8496 55.458V55.4097H76.8453V55.458C76.681 55.4677 76.5746 55.4967 76.5263 55.5354C76.4683 55.574 76.449 55.6707 76.449 55.8254V57.3527H76.362L74.477 55.7577V56.8887C74.477 57.0434 74.506 57.1497 74.5736 57.198C74.622 57.227 74.7186 57.2464 74.8733 57.2657V57.314H73.8776V57.2657Z" fill="#009944"/>
</svg>
