<svg width="96" height="96" viewBox="0 0 96 96" fill="none" xmlns="http://www.w3.org/2000/svg">
<circle cx="48" cy="48" r="47" fill="white" stroke="white" stroke-width="2"/>
<path d="M53.6282 64.479C53.6282 63.6677 54.2873 63.0085 55.1493 63.0085C56.0113 63.0085 56.6704 63.6677 56.6704 64.479C56.6704 65.2902 56.0113 66.0001 55.1493 66.0001C54.2873 66.0001 53.6282 65.341 53.6282 64.479ZM53.9324 64.479C53.9324 65.1381 54.4902 65.6959 55.2 65.6959C55.8592 65.6959 56.4169 65.1888 56.4169 64.479C56.4169 63.8198 55.8592 63.3128 55.2 63.3128C54.4395 63.3128 53.9324 63.8705 53.9324 64.479Z" fill="#E31837"/>
<path d="M55.9099 65.341H55.6057L55.0987 64.5804H54.7944V65.341H54.5916V63.6677H55.3522C55.5043 63.6677 55.6564 63.6677 55.7578 63.7691C55.9099 63.8198 55.9606 63.972 55.9606 64.1241C55.9606 64.4283 55.7071 64.5804 55.4029 64.5804L55.9099 65.341ZM55.0987 64.3776C55.3522 64.3776 55.6564 64.4283 55.6564 64.1241C55.6564 63.9212 55.4536 63.8705 55.2508 63.8705H54.7944V64.3776H55.0987Z" fill="#E31837"/>
<path d="M47.8986 66.0001C58.5465 56.8733 73.5044 48 81.7185 44.8056C80.4509 43.9944 78.4734 42.8282 76.2424 41.5605C65.6452 45.0592 53.2733 52.817 42.2197 61.5888C44.0957 63.0086 46.0732 64.479 47.8986 66.0001Z" fill="#E31837"/>
<path d="M43.0309 41.2056C41.4591 40.445 39.7351 39.7352 38.4168 39.1267C34.4111 41.1042 29.1886 44.0958 22.597 48.8113C24.0167 49.5718 25.5378 50.4845 27.1604 51.3972C32.2308 47.6451 37.352 44.0958 43.0309 41.2056Z" fill="#012169"/>
<path d="M52.5126 36.8448C50.5858 35.78 43.8928 33.2955 39.2787 32.2307C37.9097 32.7378 35.9829 33.4983 34.6646 34.0561C36.3379 34.5124 42.5745 36.1857 47.8985 38.873C49.2675 38.2138 51.1943 37.4026 52.5126 36.8448Z" fill="#E31837"/>
<path d="M29.8477 36.1858C23.9153 38.9238 17.6786 42.676 14.2814 44.8563C15.4983 45.414 16.7152 45.8704 18.3885 46.6816C25.8928 41.6112 31.7745 38.5182 34.1069 37.5041C32.4336 36.8957 30.8618 36.49 29.8477 36.1858Z" fill="#012169"/>
<path d="M56.9746 35.2732C58.3436 34.8168 59.9154 34.4112 61.2844 34.0055C57.3295 32.3323 52.3604 30.5576 47.8984 29.4421C47.1886 29.645 45.059 30.2027 43.5886 30.659C45.1097 31.1154 50.1294 32.2816 56.9746 35.2732ZM31.9772 54.3381C33.5998 55.3014 35.3237 56.6198 36.997 57.7353C48.1013 49.1155 59.0534 42.4732 71.0704 38.7211C69.3972 37.8591 67.9267 37.0985 66.0507 36.1858C58.8506 38.0112 46.5294 42.9295 31.9772 54.3381Z" fill="#E31837"/>
</svg>
