<svg width="96" height="96" viewBox="0 0 96 96" fill="none" xmlns="http://www.w3.org/2000/svg">
<circle cx="48" cy="48" r="47" fill="white" stroke="white" stroke-width="2"/>
<path fill-rule="evenodd" clip-rule="evenodd" d="M58.7929 64.8459C58.2243 64.2773 58.4513 63.7087 58.1098 62.9092C57.8827 62.2261 57.7682 62.3406 57.7682 62.3406C57.7682 62.3406 58.5658 62.6821 59.9301 63.4817C61.4089 64.3918 60.9548 65.8687 60.9548 65.8687C60.9548 65.8687 60.9548 65.9832 61.4089 65.9832C61.7504 66.0977 61.9775 65.8687 61.863 65.9832C61.9775 66.0977 62.09 66.4373 62.09 66.4373C62.09 66.4373 62.5461 68.2576 61.4069 68.9426C60.4968 69.5113 59.018 69.2842 59.018 69.2842C59.018 69.2842 60.2697 69.0572 60.3842 67.689C60.4987 66.8933 59.9301 66.0977 59.9301 66.0977C59.9301 66.0977 60.1571 65.8706 60.0446 65.6436C59.9301 65.3001 59.3615 65.5271 58.7929 64.8459ZM31.1406 47.4345C31.5967 48.0031 31.7092 48.4591 31.7092 48.4591C31.2551 48.8007 31.2551 49.5964 31.7092 50.1669C32.1634 50.85 32.2778 51.5312 32.2778 51.5312C32.2778 51.5312 31.9363 51.9853 32.0508 52.5558C32.1634 53.5805 32.6194 54.4907 33.5296 55.5134C34.7813 56.8796 35.0103 57.6753 35.0103 57.6753C35.0103 57.6753 34.6687 58.2439 35.1248 59.0415C35.6934 59.9516 37.2866 60.6347 37.7408 61.3159C37.9698 62.2261 39.334 62.3386 39.4485 62.9072C39.563 63.5942 40.3587 64.1609 40.8147 64.3899C41.1563 64.3899 41.4979 64.6169 41.4979 64.9585C41.6123 65.7542 43.2056 65.9812 44.0013 66.4373C44.0013 66.4373 40.2461 67.8015 37.1741 69.1697C34.2166 70.534 32.3962 68.3702 32.3962 68.3702C32.3962 68.3702 32.9648 72.0127 36.491 72.5814C38.3113 72.9229 39.9046 72.5814 39.9046 72.5814C39.9046 72.5814 38.9944 73.4915 37.6282 74.2911C36.1494 75.0867 35.2393 74.7452 35.2393 74.7452C35.2393 74.7452 36.0369 76.1094 38.5403 75.5408C39.792 75.3138 40.7022 74.6307 40.7022 74.6307C40.7022 74.6307 40.7022 75.3138 39.565 75.995C38.5403 76.6781 38.0862 76.7906 38.0862 76.7906C38.0862 76.7906 38.7693 76.9051 39.792 77.4737C40.4751 77.9278 41.4979 78.2694 42.7515 78.1568C43.7742 78.0423 44.9134 77.1341 44.9134 77.1341C44.9134 77.1341 44.6844 77.7027 44.6844 77.9298C44.6844 78.4984 44.9134 78.7254 44.9134 78.7254C44.9134 78.7254 45.0279 77.1341 48.327 78.3839C51.7406 79.6375 53.3338 78.7254 53.3338 78.7254C53.3338 78.7254 52.7652 78.3839 52.4237 78.0423C52.3092 77.7008 52.3092 77.3592 52.3092 77.3592C52.3092 77.3592 53.3338 78.2694 56.1788 77.5863C58.3407 77.1322 59.8195 75.5389 59.8195 75.5389C59.8195 75.5389 57.316 75.1973 55.7228 71.2132C54.8126 68.9388 55.1542 67.5706 55.7228 66.6604C56.2914 65.6377 57.2035 65.2962 57.2035 65.2962C57.2035 65.2962 55.8373 65.2962 54.8146 66.3189C54.1314 67.002 53.9044 67.6832 53.9044 67.6832C53.9044 67.6832 52.8797 67.1146 53.3358 65.4087C53.3358 65.4087 52.8797 65.4087 52.4256 65.7503C52.1986 66.0918 51.63 66.4334 50.8324 66.4334C50.0347 66.3189 49.8077 65.9793 49.8077 65.9793C49.8077 65.9793 50.4908 65.8648 50.9449 65.0691C51.401 64.159 51.8551 63.9319 51.8551 63.9319C51.8551 63.9319 51.401 63.8174 50.9449 63.9319C50.4889 64.0464 50.2618 64.386 50.2618 64.386C50.2618 64.386 50.0328 63.8174 50.6034 63.0217C51.401 61.9951 52.4237 61.5391 52.4237 61.5391C52.4237 61.5391 51.8551 61.4246 51.0594 60.9705C50.1492 60.4019 49.1246 60.9705 49.1246 60.9705C49.1246 60.9705 49.5787 60.1748 50.4889 59.6062C51.172 59.0376 51.7425 58.8086 51.7425 58.8086C51.7425 58.8086 51.2865 58.8086 50.9449 58.24C50.7179 57.6714 50.4889 57.1028 50.1492 56.6467C49.5806 55.9636 48.6705 56.0781 48.6705 56.0781C48.6705 56.0781 49.2391 55.624 49.8077 55.5095C50.8323 55.168 51.628 55.395 51.628 55.395C51.628 55.395 48.6705 52.094 47.0753 47.4306C46.8942 47.0641 46.7424 46.6838 46.6212 46.2934C44.2322 37.5314 43.5491 37.0773 43.5491 37.0773C42.9805 37.0773 42.9805 37.8729 42.9805 37.8729C42.9805 37.8729 42.1829 37.3043 39.6814 32.7516C38.6567 30.8167 37.7466 27.6302 37.6321 27.6302C37.178 27.8592 36.949 28.3133 36.8345 29.1109V30.5897C36.8345 30.5897 35.2412 28.8839 33.8769 25.4703C32.9668 23.1939 32.2837 20.0093 31.9421 20.2364C31.3735 20.4653 30.9175 21.1465 31.032 22.3982C31.1465 23.5374 32.2837 26.951 32.2837 26.951H32.1653C32.1653 26.951 30.572 25.4722 29.4348 23.3103C28.2976 21.1485 27.2729 17.9619 27.0459 17.9619C26.3628 18.189 25.7942 19.7822 27.3874 23.4229C28.1831 25.4703 28.9807 26.8365 28.9807 26.8365C28.9807 26.8365 26.8188 26.0389 25.34 22.1712C23.8613 18.3015 23.6342 16.0252 23.6342 16.0252C23.6342 16.0252 23.1782 15.7981 22.8366 16.7083C22.3825 17.5039 22.3825 19.7803 23.4052 22.6253C24.3154 25.4703 25.111 26.4949 25.111 26.4949C25.111 26.4949 23.7448 25.9263 22.6076 24.2186C21.3559 22.3982 20.5602 19.5533 20.5602 19.5533C20.5602 19.5533 20.3312 19.6678 20.1042 20.0093C19.8771 20.4654 19.5356 21.9441 20.4457 24.4475C21.0143 25.8138 22.039 27.5196 22.039 27.5196C22.039 27.5196 21.1288 27.0635 20.5602 26.3824C19.9916 25.8138 19.3085 25.0162 19.3085 25.0162C18.6254 25.2432 19.194 27.2906 19.8771 28.5423C20.4457 29.9085 21.1288 30.5897 22.1535 31.4999C23.1762 32.6371 23.0637 33.3202 23.0637 33.3202C22.7221 33.7743 24.2028 35.3676 24.7714 35.7091C25.6816 36.3922 26.0232 36.6193 26.0232 36.6193C26.0232 36.6193 25.2275 36.9608 27.0478 38.5541C27.6164 38.8957 27.7309 39.1227 27.7309 39.1227C27.7309 39.1227 26.3647 39.5787 29.4367 42.0802C30.3469 42.7633 30.4614 43.1049 30.4614 43.1049C29.8928 43.6735 30.1199 44.0151 30.6885 44.8127C30.9155 45.1542 31.03 45.7228 31.03 45.7228C31.03 45.7228 30.4614 45.9499 31.03 46.9746C31.0281 47.0929 31.1406 47.3219 31.1406 47.4345ZM55.2648 57.4482C57.4267 58.2458 60.0446 57.9043 61.7524 59.4975C61.7524 59.4975 61.6379 59.156 61.5234 58.4729C61.4089 57.2212 61.6379 57.1067 62.8896 55.1718C65.2785 51.9853 72.9033 43.9064 74.155 40.9469C74.7236 39.6952 75.2922 37.5333 75.8628 35.4859C76.5459 32.7555 77 30.252 77 30.252C76.3169 29.7979 75.6338 31.3892 75.0652 33.097C74.8362 33.7801 74.6111 34.3507 74.6111 34.3507C74.6111 34.3507 74.4966 33.782 75.0652 31.5057C75.5193 29.5709 75.8628 29.0022 75.8628 29.0022C75.4087 28.6607 74.3821 29.2293 73.7009 31.3912C73.3593 32.6429 73.0178 33.6675 73.0178 33.6675C73.0178 33.6675 72.9033 33.6675 72.9033 32.6429C72.7888 31.6202 73.1304 31.0496 73.1304 31.0496C73.1304 31.0496 72.3327 31.0496 71.6516 32.5284C71.31 33.326 71.083 34.6903 71.083 34.6903C70.6289 34.3487 70.6289 33.4386 70.6289 33.4386C70.2873 33.4386 69.7187 34.1217 69.4897 35.1444C69.1501 35.94 69.1501 37.0792 69.1501 37.0792C68.8066 36.8521 68.8066 36.2835 68.8066 36.2835C68.8066 36.2835 68.1235 36.7376 67.6694 38.3309C67.4404 39.3556 67.4404 39.8116 67.4404 39.8116C67.1008 39.5846 67.1008 39.014 67.1008 39.014C66.5302 39.2411 65.9616 40.2657 65.6201 41.859C65.6201 41.859 65.0515 41.7445 64.5973 42.3151C64.2558 42.8837 63.9142 44.2499 63.2311 44.704C62.777 44.4769 62.4355 44.933 62.321 45.0455C61.9794 45.6142 61.6379 46.4118 61.1818 46.7514C60.9548 46.6369 60.4987 46.7514 60.2716 46.8659C59.8175 47.2074 59.476 48.2321 59.1344 48.4591C58.9074 48.3446 58.4513 48.4592 58.2243 48.6862C57.8827 49.0278 57.7702 49.4838 57.4286 49.9379C57.087 49.8234 56.86 49.9379 56.631 50.2795C56.1769 50.7336 56.1769 51.0751 55.9479 51.4167C55.4918 51.3022 55.2648 51.5312 55.0377 51.8727C54.8107 52.0998 54.6962 52.5558 54.4691 53.01C53.4445 53.237 53.1029 56.1965 53.1029 56.1965C53.1029 56.1965 54.0131 56.8796 55.2648 57.4482Z" fill="#B59537"/>
</svg>
