<svg width="96" height="96" viewBox="0 0 96 96" fill="none" xmlns="http://www.w3.org/2000/svg">
<circle cx="48" cy="48" r="47" fill="white" stroke="white" stroke-width="2"/>
<g clip-path="url(#clip0_1_6488)">
<path d="M40.6612 44.3035H41.0631C41.4345 44.3035 41.7075 44.1957 41.8667 43.973L44.3155 40.6035C44.4595 40.4238 44.6187 40.3017 44.7855 40.2299C44.9523 40.158 45.157 40.1293 45.4072 40.1293H47.5982L44.3761 44.2963C44.1487 44.5837 43.8985 44.792 43.6407 44.9214C43.8303 44.986 44.0046 45.0794 44.1563 45.1944C44.3079 45.3093 44.4519 45.4674 44.5884 45.6542L47.8711 50.4319H45.6119C45.4678 50.4319 45.3465 50.4247 45.2404 50.4032C45.1418 50.3816 45.0509 50.3529 44.975 50.317C44.8992 50.281 44.8386 50.2308 44.7779 50.1805C44.7249 50.123 44.6718 50.0655 44.6187 49.9937L42.1624 46.4086C42.0714 46.2793 41.9577 46.1859 41.8212 46.1284C41.6847 46.0709 41.5028 46.0493 41.2678 46.0493H40.6537V49.6488C40.6537 50.0799 40.2822 50.4319 39.8273 50.4319H38.1367V40.1293H40.6612V44.3035Z" fill="black"/>
<path d="M50.4943 50.4319H48.7961V40.1293H51.3358V49.6416C51.3282 50.0799 50.9567 50.4319 50.4943 50.4319Z" fill="black"/>
<path d="M60.3046 42.026H58.0681V49.6632C58.0681 50.0871 57.7041 50.4391 57.2493 50.4391H55.5435V42.026H52.4806V40.1293H61.1233V41.2429C61.1309 41.674 60.7594 42.026 60.3046 42.026Z" fill="black"/>
<path d="M68.1816 42.22C68.1058 42.335 68.0299 42.4212 67.9466 42.4715C67.8632 42.529 67.757 42.5577 67.6281 42.5577C67.5144 42.5577 67.3931 42.5218 67.2566 42.4571C67.1278 42.3853 66.9761 42.3134 66.8093 42.2272C66.6426 42.141 66.453 42.0692 66.2407 41.9973C66.0285 41.9255 65.7859 41.8967 65.5129 41.8967C65.0429 41.8967 64.6866 41.9901 64.4591 42.1841C64.2241 42.3781 64.1104 42.6367 64.1104 42.96C64.1104 43.1684 64.1786 43.3408 64.3227 43.4773C64.4591 43.6138 64.6411 43.7288 64.8685 43.8294C65.096 43.93 65.3537 44.0162 65.6418 44.1024C65.9299 44.1814 66.2332 44.2748 66.5364 44.3754C66.8397 44.476 67.1353 44.5981 67.431 44.7346C67.7191 44.8711 67.9845 45.0436 68.2043 45.2591C68.4318 45.4746 68.6137 45.7261 68.7502 46.035C68.8866 46.3368 68.9625 46.7032 68.9625 47.1343C68.9625 47.6084 68.8791 48.0539 68.7047 48.4706C68.5303 48.8873 68.2801 49.2465 67.9466 49.5555C67.613 49.8644 67.2112 50.1087 66.726 50.2811C66.2407 50.4607 65.6873 50.5469 65.0732 50.5469C64.7321 50.5469 64.3909 50.511 64.0422 50.4463C63.6934 50.3817 63.3522 50.2883 63.0262 50.1661C62.7002 50.044 62.3894 49.9003 62.1013 49.7351C61.8132 49.5698 61.563 49.383 61.3508 49.1819L62.0937 48.0611C62.1544 47.982 62.2302 47.9174 62.3288 47.8599C62.4273 47.8024 62.5335 47.7809 62.6472 47.7809C62.7988 47.7809 62.9504 47.824 63.1021 47.9174C63.2537 48.0036 63.4281 48.1042 63.6176 48.2119C63.8071 48.3197 64.027 48.4203 64.2772 48.5065C64.5274 48.5927 64.823 48.643 65.1566 48.643C65.6115 48.643 65.9678 48.5496 66.2256 48.3556C66.4758 48.1617 66.6047 47.8599 66.6047 47.4432C66.6047 47.2061 66.5364 47.0049 66.3924 46.8541C66.2559 46.7032 66.074 46.5811 65.8465 46.4805C65.6191 46.3799 65.3613 46.2937 65.0732 46.2218C64.7851 46.15 64.4894 46.0638 64.1862 45.9704C63.8829 45.877 63.5873 45.762 63.2992 45.6327C63.0111 45.4962 62.7533 45.3238 62.5259 45.101C62.2984 44.8783 62.1165 44.6053 61.98 44.282C61.8436 43.9515 61.7677 43.5492 61.7677 43.0678C61.7677 42.6798 61.8511 42.3062 62.0103 41.9326C62.1771 41.5662 62.4122 41.2357 62.7306 40.9484C63.049 40.661 63.4432 40.4311 63.9057 40.2586C64.3681 40.0862 64.8988 40 65.4978 40C65.8313 40 66.1574 40.0216 66.4682 40.0718C66.7866 40.1221 67.0823 40.194 67.3704 40.2946C67.6509 40.388 67.9162 40.5101 68.1664 40.6394C68.409 40.7759 68.6365 40.9268 68.826 41.0921L68.1816 42.22Z" fill="black"/>
<path d="M79.8872 50.432H77.9312C77.7114 50.432 77.537 50.3817 77.4005 50.2883C77.2641 50.1949 77.1655 50.0656 77.0973 49.9147L76.4529 48.1186H72.321L71.6766 49.9147C71.6235 50.0441 71.525 50.1662 71.3809 50.274C71.2369 50.3817 71.0625 50.432 70.8578 50.432H68.8867L72.8441 40.7472C72.9958 40.3737 73.3824 40.1222 73.807 40.1222H75.6871L79.8872 50.432ZM75.8767 46.4949L74.8684 43.6714C74.7925 43.4917 74.7167 43.2834 74.6257 43.0391C74.5424 42.7948 74.459 42.5362 74.3756 42.2488C74.2998 42.5362 74.2239 42.802 74.133 43.0463C74.0496 43.2906 73.9662 43.5061 73.8904 43.6857L72.8896 46.4949H75.8767Z" fill="black"/>
<path d="M84.6331 40.1293C85.3989 40.1293 86.0584 40.2155 86.6043 40.3879C87.1577 40.5603 87.605 40.7974 87.9614 41.0992C88.3177 41.4009 88.583 41.7602 88.7498 42.1697C88.9166 42.5792 89 43.0246 89 43.4988C89 44.0161 88.9166 44.4831 88.7422 44.9142C88.5679 45.3453 88.3025 45.7117 87.9462 46.0206C87.5899 46.3295 87.135 46.5666 86.5815 46.7391C86.0281 46.9115 85.3837 46.9977 84.6331 46.9977H83.3216C83.3216 46.9977 83.3216 48.6861 83.3216 49.5626C83.3216 50.4391 82.48 50.4391 82.48 50.4391H80.797V40.1293H84.6331ZM84.6331 45.1872C85.2927 45.1872 85.7628 45.0363 86.0508 44.7418C86.3389 44.4472 86.483 44.0305 86.483 43.4988C86.483 43.2617 86.4451 43.0462 86.3693 42.8522C86.2935 42.6582 86.1797 42.493 86.0281 42.3565C85.8765 42.22 85.6869 42.1122 85.4519 42.0332C85.2169 41.9613 84.944 41.9182 84.6256 41.9182H83.9432C83.5945 41.9182 83.314 42.1841 83.314 42.5145V45.1872H84.6331Z" fill="black"/>
<path d="M40.9417 55.2169C40.9721 55.2169 40.9948 55.2313 41.0176 55.2528L41.2374 55.4684C41.0706 55.648 40.8735 55.7845 40.6385 55.8851C40.4035 55.9857 40.1154 56.0359 39.7818 56.0359C39.4937 56.0359 39.2284 55.9857 38.9933 55.8923C38.7583 55.7989 38.5536 55.6695 38.3868 55.4971C38.22 55.3247 38.0911 55.1235 38.0002 54.8864C37.9092 54.6493 37.8637 54.3907 37.8637 54.1033C37.8637 53.8159 37.9092 53.5573 38.0078 53.3202C38.1063 53.0831 38.2352 52.8819 38.4096 52.7095C38.5839 52.5371 38.7886 52.4077 39.0312 52.3143C39.2738 52.2209 39.5392 52.1707 39.8349 52.1707C40.123 52.1707 40.3731 52.2138 40.593 52.3C40.8129 52.3862 41.01 52.5011 41.1768 52.652L40.9948 52.8891C40.9872 52.9035 40.9721 52.9178 40.9493 52.9322C40.9342 52.9466 40.9038 52.9466 40.8811 52.9466C40.8508 52.9466 40.8053 52.9322 40.7598 52.8963C40.7143 52.8604 40.6461 52.8244 40.5703 52.7813C40.4944 52.7382 40.3959 52.7023 40.2746 52.6664C40.1533 52.6305 40.0092 52.6161 39.8349 52.6161C39.6226 52.6161 39.433 52.652 39.2587 52.7167C39.0843 52.7813 38.9403 52.8819 38.8114 53.0112C38.6901 53.1406 38.5915 53.2986 38.5233 53.4782C38.4551 53.665 38.4171 53.8734 38.4171 54.1033C38.4171 54.3404 38.4551 54.5487 38.5233 54.7355C38.5991 54.9223 38.6977 55.0732 38.819 55.2025C38.9403 55.3319 39.0919 55.4253 39.2587 55.4971C39.4255 55.5618 39.615 55.5977 39.8121 55.5977C39.9334 55.5977 40.0396 55.5905 40.1381 55.5761C40.2367 55.5618 40.3277 55.5402 40.4035 55.5115C40.4869 55.4827 40.5627 55.4468 40.6309 55.4037C40.6991 55.3606 40.775 55.3103 40.8432 55.2528C40.8735 55.2313 40.9114 55.2169 40.9417 55.2169Z" fill="black"/>
<path d="M45.4147 56H44.9295C44.831 56 44.7552 55.9641 44.7097 55.8923L43.6634 54.5416C43.6331 54.4984 43.5952 54.4697 43.5573 54.4482C43.5194 54.4266 43.4663 54.4194 43.3829 54.4194H42.966V55.9928H42.4277V52.2209H43.5725C43.8302 52.2209 44.0501 52.2425 44.232 52.2928C44.4216 52.3431 44.5732 52.4077 44.6945 52.5011C44.8158 52.5945 44.9068 52.7023 44.9674 52.8316C45.0281 52.961 45.0584 53.1046 45.0584 53.2627C45.0584 53.3992 45.0357 53.5214 44.9902 53.6363C44.9447 53.7513 44.8765 53.859 44.7931 53.9452C44.7097 54.0386 44.6035 54.1177 44.4822 54.1823C44.3609 54.247 44.2169 54.2973 44.0652 54.3332C44.1335 54.3691 44.1941 54.4266 44.2472 54.4913L45.4147 56ZM43.5497 54.053C43.7089 54.053 43.8454 54.0315 43.9667 53.9955C44.088 53.9596 44.1866 53.9093 44.2699 53.8447C44.3533 53.78 44.414 53.701 44.4519 53.6076C44.4898 53.5142 44.5125 53.4136 44.5125 53.3058C44.5125 53.0831 44.4367 52.9107 44.2775 52.7957C44.1183 52.6808 43.8833 52.6233 43.5649 52.6233H42.966V54.0458H43.5497V54.053Z" fill="black"/>
<path d="M49.0235 55.5833V56H46.5368V52.2281H49.0235V52.6449H47.0826V53.895H48.6444V54.2973H47.0675V55.5833H49.0235Z" fill="black"/>
<path d="M53.8528 54.1105C53.8528 54.3907 53.8073 54.6493 53.7088 54.8792C53.6102 55.1091 53.4737 55.3103 53.2994 55.4755C53.125 55.6408 52.9127 55.7701 52.6701 55.8563C52.4275 55.9497 52.1546 55.9928 51.8589 55.9928H50.3502V52.2209H51.8589C52.1546 52.2209 52.4275 52.2641 52.6701 52.3575C52.9127 52.4509 53.125 52.573 53.2994 52.7454C53.4737 52.9107 53.6102 53.1118 53.7088 53.3417C53.7997 53.5716 53.8528 53.8303 53.8528 54.1105ZM53.2918 54.1105C53.2918 53.8806 53.2615 53.6722 53.1932 53.4854C53.125 53.3058 53.0264 53.1478 52.9051 53.0184C52.7838 52.8891 52.6322 52.7957 52.4503 52.731C52.2759 52.6664 52.0788 52.6305 51.8589 52.6305H50.8961V55.5761H51.8589C52.0788 55.5761 52.2759 55.5402 52.4503 55.4755C52.6246 55.4109 52.7763 55.3103 52.9051 55.1882C53.0264 55.066 53.125 54.908 53.1932 54.7284C53.2615 54.5487 53.2918 54.3476 53.2918 54.1105Z" fill="black"/>
<path d="M55.7481 56H55.2023V52.2281H55.7481V56Z" fill="black"/>
<path d="M60.0771 52.652H58.7655V56H58.2197V52.652H56.9081V52.2209H60.0695L60.0771 52.652Z" fill="black"/>
<path d="M64.8079 55.5905C64.9747 55.5905 65.1263 55.5618 65.2552 55.5115C65.3841 55.4612 65.4978 55.3822 65.5887 55.2888C65.6797 55.1954 65.748 55.0804 65.801 54.9511C65.8465 54.8218 65.8693 54.6781 65.8693 54.52V52.2281H66.4151V54.52C66.4151 54.7356 66.3772 54.9367 66.3014 55.1235C66.2256 55.3103 66.1194 55.4684 65.983 55.6049C65.8465 55.7414 65.6797 55.8492 65.475 55.9282C65.2779 56.0072 65.0505 56.0431 64.8003 56.0431C64.5501 56.0431 64.3302 56.0072 64.1255 55.9282C63.9284 55.8492 63.7541 55.7414 63.6176 55.6049C63.4811 55.4684 63.375 55.3103 63.2992 55.1235C63.2234 54.9367 63.1855 54.7356 63.1855 54.52V52.2281H63.7313V54.52C63.7313 54.6781 63.7541 54.8218 63.7995 54.9511C63.845 55.0804 63.9133 55.1954 64.0118 55.2888C64.1028 55.3822 64.2165 55.4612 64.3454 55.5115C64.4743 55.5618 64.6411 55.5905 64.8079 55.5905Z" fill="black"/>
<path d="M71.2293 52.2209V55.9928H70.9564C70.9109 55.9928 70.8805 55.9857 70.8502 55.9713C70.8199 55.9569 70.7896 55.9354 70.7668 55.8994L68.4318 53.0544C68.4318 53.0975 68.4393 53.1406 68.4393 53.1837C68.4393 53.2268 68.4393 53.2627 68.4393 53.3058V55.9928H67.9617V52.2209H68.2422C68.265 52.2209 68.2877 52.2209 68.3029 52.2281C68.318 52.2281 68.3332 52.2353 68.3484 52.2425C68.3635 52.2497 68.3711 52.2569 68.3863 52.2712C68.4014 52.2856 68.4166 52.3 68.4318 52.3143L70.7668 55.1594C70.7592 55.1163 70.7592 55.066 70.7592 55.0229C70.7592 54.9798 70.7517 54.9367 70.7517 54.9008V52.2281H71.2293V52.2209Z" fill="black"/>
<path d="M73.3672 56H72.8214V52.2281H73.3672V56Z" fill="black"/>
<path d="M78.6969 54.1105C78.6969 54.3907 78.6514 54.6493 78.5529 54.8864C78.4543 55.1235 78.3179 55.3247 78.1435 55.4971C77.9691 55.6695 77.7568 55.7989 77.5142 55.8923C77.2716 55.9857 76.9987 56.036 76.703 56.036C76.4074 56.036 76.1344 55.9857 75.8918 55.8923C75.6492 55.7989 75.4369 55.6695 75.2626 55.4971C75.0882 55.3247 74.9517 55.1235 74.8532 54.8864C74.7546 54.6493 74.7091 54.3907 74.7091 54.1105C74.7091 53.8303 74.7546 53.5717 74.8532 53.3346C74.9517 53.0975 75.0882 52.8963 75.2626 52.7239C75.4369 52.5515 75.6492 52.4221 75.8918 52.3215C76.1344 52.221 76.4074 52.1779 76.703 52.1779C76.9987 52.1779 77.2716 52.2281 77.5142 52.3215C77.7568 52.4149 77.9691 52.5515 78.1435 52.7239C78.3179 52.8963 78.4543 53.0975 78.5529 53.3346C78.6514 53.5717 78.6969 53.8303 78.6969 54.1105ZM78.1359 54.1105C78.1359 53.8806 78.1056 53.6722 78.0373 53.4854C77.9691 53.2986 77.8706 53.1478 77.7493 53.0184C77.6279 52.8891 77.4763 52.7957 77.2944 52.7239C77.12 52.652 76.9229 52.6233 76.703 52.6233C76.4832 52.6233 76.2936 52.6592 76.1117 52.7239C75.9373 52.7957 75.7857 52.8891 75.6568 53.0184C75.5355 53.1478 75.4369 53.2986 75.3687 53.4854C75.3005 53.6722 75.2701 53.8806 75.2701 54.1105C75.2701 54.3404 75.3005 54.5488 75.3687 54.7356C75.4369 54.9224 75.5355 55.0732 75.6568 55.2026C75.7781 55.3319 75.9297 55.4253 76.1117 55.4971C76.286 55.5618 76.4832 55.5977 76.703 55.5977C76.9229 55.5977 77.12 55.5618 77.2944 55.4971C77.4687 55.4325 77.6204 55.3319 77.7493 55.2026C77.8706 55.0732 77.9691 54.9224 78.0373 54.7356C78.1056 54.5488 78.1359 54.3476 78.1359 54.1105Z" fill="black"/>
<path d="M83.314 52.2209V55.9928H83.041C82.9956 55.9928 82.9652 55.9857 82.9349 55.9713C82.9046 55.9569 82.8742 55.9354 82.8515 55.8994L80.5164 53.0544C80.5164 53.0975 80.524 53.1406 80.524 53.1837C80.524 53.2268 80.524 53.2627 80.524 53.3058V55.9928H80.0464V52.2209H80.3269C80.3497 52.2209 80.3724 52.2209 80.3876 52.2281C80.4027 52.2281 80.4179 52.2353 80.433 52.2425C80.4482 52.2497 80.4558 52.2569 80.471 52.2712C80.4861 52.2856 80.5013 52.3 80.5164 52.3143L82.8515 55.1594C82.8439 55.1163 82.8439 55.066 82.8439 55.0229C82.8439 54.9798 82.8363 54.9367 82.8363 54.9008V52.2281H83.314V52.2209Z" fill="black"/>
<path d="M35.8395 46.3871C35.8395 43.3265 32.716 40.2156 29.4863 40.2156C26.2567 40.2156 23.0497 43.4055 23.0497 46.459C23.0497 46.538 23.0497 46.6098 23.0573 46.6817C23.5577 46.4949 24.0732 46.3943 24.5963 46.3943C27.174 46.3943 29.6759 48.8801 29.6759 51.3301C29.6759 51.6678 29.6228 52.0054 29.5318 52.3287C32.6857 52.2138 35.8395 49.3759 35.8395 46.3871Z" fill="#8A1B61"/>
<path d="M18.2507 46.265C18.7739 46.265 19.2894 46.3656 19.7822 46.5524C19.7822 46.4949 19.7898 46.4446 19.7898 46.3871C19.7898 43.3265 16.6662 40.2156 13.4366 40.2156C10.2069 40.2156 7 43.4055 7 46.459C7 49.5124 10.0477 52.3287 13.2698 52.3359C13.1712 51.9839 13.1106 51.6246 13.1106 51.2582C13.103 48.8155 15.6655 46.265 18.2507 46.265Z" fill="#ED8B00"/>
<path d="M19.4486 51.3876C19.4486 49.9866 20.2901 48.5497 21.5031 47.5798C20.9952 47.1343 20.4114 46.7823 19.7822 46.5524C19.6684 49.5483 16.4464 52.3359 13.2774 52.3359H13.2698C13.846 54.3261 15.9384 55.9498 18.1294 55.9498C19.2287 55.9498 20.328 55.5331 21.2378 54.8649C20.1612 53.9812 19.4486 52.7095 19.4486 51.3876Z" fill="#00B0B9"/>
<path d="M19.7822 46.5451C19.2894 46.3655 18.7738 46.2577 18.2507 46.2577C15.6731 46.2577 13.1106 48.8082 13.1106 51.251C13.1106 51.6174 13.1636 51.9766 13.2698 52.3286H13.2774C16.4388 52.3358 19.6684 49.541 19.7822 46.5451Z" fill="#275D38"/>
<path d="M23.0498 46.6816C22.4963 46.89 21.9656 47.1989 21.4956 47.5725C22.5873 48.5209 23.3227 49.8644 23.3227 51.1935C23.3227 52.5945 22.4584 53.9596 21.2302 54.8577C22.1324 55.6049 23.2848 56.079 24.4599 56.079C26.6812 56.079 28.9405 54.3619 29.5167 52.3287C29.4484 52.3287 29.3878 52.3359 29.3195 52.3359C26.1809 52.3359 23.2014 49.656 23.0498 46.6816Z" fill="#C4D600"/>
<path d="M24.5888 46.3943C24.0656 46.3943 23.5501 46.5021 23.0497 46.6817C23.1938 49.6489 26.1733 52.3287 29.3195 52.3287C29.3878 52.3287 29.4484 52.3287 29.5166 52.3215C29.6076 51.9911 29.6607 51.6606 29.6607 51.3229C29.6683 48.8801 27.1664 46.3943 24.5888 46.3943Z" fill="#5B3427"/>
<path d="M23.3227 51.1935C23.3227 49.8644 22.5797 48.5209 21.4956 47.5725C20.2901 48.5424 19.441 49.9793 19.441 51.3803C19.441 52.7095 20.1612 53.9739 21.2302 54.8576C22.4584 53.9596 23.3227 52.6017 23.3227 51.1935Z" fill="#275D38"/>
</g>
<defs>
<clipPath id="clip0_1_6488">
<rect width="82" height="16" fill="white" transform="translate(7 40)"/>
</clipPath>
</defs>
</svg>
