<svg width="96" height="96" viewBox="0 0 96 96" fill="none" xmlns="http://www.w3.org/2000/svg">
<circle cx="48" cy="48" r="47" fill="white" stroke="white" stroke-width="2"/>
<g clip-path="url(#clip0_1_528)">
<mask id="mask0_1_528" style="mask-type:luminance" maskUnits="userSpaceOnUse" x="15" y="58" width="5" height="5">
<path d="M15.9675 58.4141H19.0509V62.0002H15.9675V58.4141Z" fill="white"/>
</mask>
<g mask="url(#mask0_1_528)">
<path d="M18.4628 58.8273C18.3664 58.7732 18.1905 58.7144 17.9676 58.7144C17.247 58.7144 16.7873 59.2101 16.7866 60.174C16.786 61.1926 17.2242 61.6843 18.0506 61.6843C18.3029 61.6843 18.5658 61.6207 18.9191 61.5084L18.97 61.6796C18.6976 61.8574 18.3029 62.0002 17.8137 62.0002C16.8649 62.0002 16.1342 61.5226 16.1362 60.2673C16.1376 58.9991 16.9345 58.4384 18.0238 58.4384C18.3925 58.4384 18.715 58.5223 18.9867 58.6068L18.9981 58.6406L18.9205 59.2886H18.5779L18.4628 58.8273Z" fill="#005DAB"/>
</g>
<mask id="mask1_1_528" style="mask-type:luminance" maskUnits="userSpaceOnUse" x="21" y="58" width="4" height="5">
<path d="M21.449 58.4141H24.1897V62.0002H21.449V58.4141Z" fill="white"/>
</mask>
<g mask="url(#mask1_1_528)">
<path d="M22.468 58.734H22.1348L22.1328 60.1117H22.4506C22.9652 60.1117 23.2529 59.9095 23.2536 59.3583C23.2549 58.851 22.9324 58.734 22.468 58.734ZM22.4038 60.3261H22.1328L22.1314 61.9399H21.5259L21.5299 58.4979H22.6179C23.2194 58.4979 23.9153 58.6203 23.9153 59.3332C23.9147 59.8256 23.5754 60.1354 23.0267 60.2538L24.1602 61.8818L24.1087 61.9399H23.4791L22.4038 60.3261Z" fill="#005DAB"/>
</g>
<mask id="mask2_1_528" style="mask-type:luminance" maskUnits="userSpaceOnUse" x="26" y="58" width="4" height="5">
<path d="M26.5879 58.4141H29.1573V62.0002H26.5879V58.4141Z" fill="white"/>
</mask>
<g mask="url(#mask2_1_528)">
<path d="M28.1482 58.759H27.3406L27.3399 60.0123H27.9549L28.5544 59.9981V60.2673L27.9542 60.2429H27.3386L27.3379 61.6795H28.2259L29.067 61.6248L29.0683 61.8865L29.0569 61.9399H26.7371L26.7404 58.4979H28.99L29.0007 58.5514L28.9994 58.8124L28.1482 58.759Z" fill="#005DAB"/>
</g>
<mask id="mask3_1_528" style="mask-type:luminance" maskUnits="userSpaceOnUse" x="31" y="58" width="4" height="5">
<path d="M31.5557 58.4141H34.8103V62.0002H31.5557V58.4141Z" fill="white"/>
</mask>
<g mask="url(#mask3_1_528)">
<path d="M32.6431 58.734H32.2142L32.2108 61.6795H32.5534C33.5063 61.7093 33.9566 61.2859 33.992 60.2085C33.9572 59.1466 33.535 58.734 32.6431 58.734ZM32.7026 58.4979C33.812 58.4979 34.6491 58.901 34.6491 60.174C34.6471 61.3759 33.8596 61.9399 32.704 61.9399H31.6006L31.6033 58.4979H32.7026Z" fill="#005DAB"/>
</g>
<mask id="mask4_1_528" style="mask-type:luminance" maskUnits="userSpaceOnUse" x="37" y="58" width="1" height="5">
<path d="M37.2083 58.4141H37.8934V62.0002H37.2083V58.4141Z" fill="white"/>
</mask>
<g mask="url(#mask4_1_528)">
<path d="M37.8681 58.4979L37.8648 61.9399H37.2585L37.2619 58.4979H37.8681Z" fill="#005DAB"/>
</g>
<mask id="mask5_1_528" style="mask-type:luminance" maskUnits="userSpaceOnUse" x="40" y="58" width="4" height="5">
<path d="M40.1204 58.4141H43.375V62.0002H40.1204V58.4141Z" fill="white"/>
</mask>
<g mask="url(#mask5_1_528)">
<path d="M40.2884 58.4979H43.2848L43.2955 58.5514L43.2754 58.807L42.447 58.7827H42.089L42.0864 61.9399H41.4815L41.4848 58.7827H41.1262L40.2985 58.807L40.2791 58.5561L40.2884 58.4979Z" fill="#005DAB"/>
</g>
<mask id="mask6_1_528" style="mask-type:luminance" maskUnits="userSpaceOnUse" x="58" y="58" width="4" height="5">
<path d="M58.1064 58.4141H61.1898V62.0002H58.1064V58.4141Z" fill="white"/>
</mask>
<g mask="url(#mask6_1_528)">
<path d="M61.0487 60.7008C61.048 61.6545 60.577 62.0001 59.5733 62.0001C58.7114 62.0001 58.1367 61.664 58.1387 60.7455L58.1393 58.4979H58.7396L58.7382 60.9024C58.7369 61.4131 59.0594 61.7289 59.6696 61.7289C60.3066 61.7289 60.579 61.4273 60.579 60.78L60.5803 58.4979H61.05L61.0487 60.7008Z" fill="#005DAB"/>
</g>
<mask id="mask7_1_528" style="mask-type:luminance" maskUnits="userSpaceOnUse" x="63" y="58" width="4" height="5">
<path d="M63.7593 58.4141H66.8426V62.0002H63.7593V58.4141Z" fill="white"/>
</mask>
<g mask="url(#mask7_1_528)">
<path d="M64.4443 58.4979L66.3333 61.1391L66.3353 58.4979H66.6893L66.6866 61.969H66.2577L64.1171 58.9694L64.1138 61.9399H63.7605L63.7638 58.4979H64.4443Z" fill="#005DAB"/>
</g>
<mask id="mask8_1_528" style="mask-type:luminance" maskUnits="userSpaceOnUse" x="69" y="58" width="2" height="5">
<path d="M69.4121 58.4141H70.0973V62.0002H69.4121V58.4141Z" fill="white"/>
</mask>
<g mask="url(#mask8_1_528)">
<path d="M70.0847 58.4979L70.082 61.9399H69.4751L69.4784 58.4979H70.0847Z" fill="#005DAB"/>
</g>
<mask id="mask9_1_528" style="mask-type:luminance" maskUnits="userSpaceOnUse" x="72" y="58" width="5" height="5">
<path d="M72.6667 58.4141H76.264V62.0002H72.6667V58.4141Z" fill="white"/>
</mask>
<g mask="url(#mask9_1_528)">
<path d="M74.4172 58.7096C73.7408 58.7096 73.3573 59.1763 73.3573 60.2037C73.3553 61.2419 73.7334 61.7289 74.4045 61.7289C75.0803 61.7289 75.4638 61.2622 75.4651 60.2335C75.4658 59.1953 75.077 58.7096 74.4172 58.7096ZM74.3838 62.0002C73.3199 62.0002 72.6996 61.3941 72.7009 60.249C72.7016 59.0532 73.3741 58.4384 74.4279 58.4384C75.4825 58.4384 76.1222 59.0485 76.1208 60.2037C76.1195 61.3698 75.4885 62.0002 74.3838 62.0002Z" fill="#005DAB"/>
</g>
<mask id="mask10_1_528" style="mask-type:luminance" maskUnits="userSpaceOnUse" x="78" y="58" width="4" height="5">
<path d="M78.6621 58.4141H81.7454V62.0002H78.6621V58.4141Z" fill="white"/>
</mask>
<g mask="url(#mask10_1_528)">
<path d="M79.4464 58.4979L81.3354 61.1391L81.338 58.4979H81.6913L81.688 61.969H81.2591L79.1185 58.9694L79.1145 61.9399H78.7612L78.7652 58.4979H79.4464Z" fill="#005DAB"/>
</g>
<path d="M14.9177 42.6372L20.9379 52.8726L21.9891 42.6372H23.3092L21.9262 56.0948H20.3229L13.5039 44.4681L12.3215 55.9805H11L12.3717 42.6372H14.9177Z" fill="#005DAB"/>
<path d="M30.0152 51.5206C29.8097 51.5009 29.6197 51.5009 29.4317 51.5009C27.7154 51.5009 26.2159 51.9771 26.0727 53.3501C25.9596 54.4546 26.5651 54.9883 27.6404 54.9883C28.2821 54.9883 29.1045 54.6846 29.7207 54.3796L30.0152 51.5206ZM29.5956 55.409C28.7358 55.8845 27.7033 56.2084 26.6093 56.2084C24.7618 56.2084 23.6391 55.1993 23.805 53.5787C24.07 51.0052 26.9044 50.5858 29.6003 50.5858C29.8646 50.5858 29.8258 50.6054 30.1082 50.6054L30.2273 49.4421C30.4186 47.5753 29.2149 47.1925 28.4788 47.1925C28.064 47.1925 27.6792 47.2696 27.243 47.48C27.0536 48.0319 26.8308 48.738 26.6441 49.271H25.3614L25.3172 46.7752L25.3708 46.6027C26.4782 46.2977 27.5682 46.1448 28.5872 46.1448C31.4913 46.1448 32.517 47.3454 32.3096 49.3663L31.8178 54.1509C31.7817 54.6846 31.7629 55.2372 31.7275 55.7708L31.5374 55.9609L29.4511 56.2666L29.5956 55.409Z" fill="#005DAB"/>
<path d="M40.8571 46.3734H42.649L42.014 47.4028L37.6901 56.0948H35.8795L33.4539 47.4028L33.0129 46.3734H35.7088L35.745 47.3081L37.4191 53.7695L40.5533 47.3081L40.8571 46.3734Z" fill="#005DAB"/>
<path d="M43.2266 55.9805H45.2814L46.2979 46.0873L44.3059 46.3924L44.1185 46.5641C44.081 47.1174 44.0636 47.6504 44.0262 48.2037L43.2266 55.9805Z" fill="#005DAB"/>
<path d="M51.6694 51.806C52.7065 51.806 53.393 51.1763 53.569 49.4617C53.749 47.7072 53.2545 47.0214 52.1411 47.0214C51.0103 47.0214 50.374 47.7072 50.198 49.4225C50.0367 51.1763 50.558 51.806 51.6694 51.806ZM49.4385 55.7133C48.9046 56.3234 48.8122 57.0282 48.7915 57.2379C48.675 58.3633 49.399 59.0302 51.021 59.0302C52.9253 59.0302 54.0742 58.3058 54.206 57.0282C54.289 56.2287 53.7905 55.7505 52.8096 55.7505H50.2455C50.0755 55.7505 49.6995 55.7505 49.4385 55.7133ZM57.5557 47.555L55.4346 47.4603C55.8052 48.0697 55.9003 48.7948 55.832 49.4617C55.6159 51.5584 54.0294 52.6832 51.5228 52.6832C51.2953 52.6832 50.9594 52.6629 50.6985 52.6257C50.3539 52.8543 50.0367 53.1973 49.9825 53.5402C49.8641 54.3214 51.4352 54.2652 52.0762 54.2652C54.1505 54.2652 56.6022 54.2652 56.3727 56.4952C56.1378 58.782 53.9611 59.9643 50.6035 59.9643C47.9076 59.9643 46.5345 59.2014 46.6944 57.6383C46.7613 56.9896 47.2123 56.2666 48.4971 55.3319C48.1324 55.0275 47.8861 54.665 47.9316 54.2267C47.9965 53.5977 48.5961 52.9118 49.5837 52.2821C48.4214 51.6721 47.7503 50.6629 47.8701 49.5003C48.0849 47.4028 49.7236 46.1448 52.2314 46.1448C52.9487 46.1448 53.741 46.3159 54.2669 46.5256C55.2679 46.3362 56.3258 46.1259 57.3215 45.973L57.7718 45.9913L57.5557 47.555Z" fill="#005DAB"/>
<path d="M64.0498 51.5206C63.845 51.5009 63.6557 51.5009 63.467 51.5009C61.7513 51.5009 60.2491 51.9771 60.1086 53.3501C59.9949 54.4546 60.6004 54.9883 61.6764 54.9883C62.3174 54.9883 63.1398 54.6846 63.7554 54.3796L64.0498 51.5206ZM63.6316 55.409C62.7711 55.8845 61.7393 56.2084 60.6453 56.2084C58.7971 56.2084 57.675 55.1993 57.8403 53.5787C58.1059 51.0052 60.9397 50.5858 63.6363 50.5858C63.9012 50.5858 63.8611 50.6054 64.1435 50.6054L64.2626 49.4421C64.4553 47.5753 63.2502 47.1925 62.5141 47.1925C62.0993 47.1925 61.7152 47.2696 61.2776 47.48C61.0889 48.0319 60.8661 48.738 60.6794 49.271H59.3953L59.3518 46.7752L59.408 46.6027C60.5141 46.2977 61.6041 46.1448 62.6219 46.1448C65.5252 46.1448 66.5523 47.3454 66.3455 49.3663L65.8531 54.1509C65.8183 54.6846 65.7982 55.2372 65.7634 55.7708L65.5727 55.9609L63.4864 56.2666L63.6316 55.409Z" fill="#005DAB"/>
<path d="M68.951 46.5831L69.1403 46.3924L71.2073 46.0873L71.1049 46.9077C72.4311 46.2977 73.3143 46.1448 74.4639 46.1448C76.3127 46.1448 77.3151 47.2121 77.1799 48.8895L76.4519 55.9805H74.3957L74.9785 50.3193C75.1304 48.8327 75.3017 47.5368 73.3973 47.5368C72.7556 47.5368 72.0698 47.6125 70.9503 47.8601L70.1159 55.9805H68.061L68.86 48.2037L68.951 46.5831Z" fill="#005DAB"/>
<path d="M81.5848 53.3684C81.473 54.4546 81.5594 55.0843 82.6346 55.0843C82.9358 55.0843 83.5694 54.9693 84.1489 54.8368L84.0826 55.4847C83.3613 55.9048 82.4245 56.2084 81.5386 56.2084C79.5774 56.2084 79.3318 55.1033 79.4884 53.5787L80.1261 47.3839H78.8059L78.8722 46.736C80.4955 46.3545 80.8742 45.4204 81.3258 43.9527H82.553L82.3041 46.3734H85L84.8956 47.3839H82.199L81.5848 53.3684Z" fill="#005DAB"/>
<path d="M46.3688 42.2564L83.0964 41.4299L46.6551 40.6054L46.435 34.0007L44.8525 40.6243L26.04 41.4299L44.8017 42.2402L45.264 45.3934L46.3688 42.2564Z" fill="#E89519"/>
<path d="M82.9653 57.8108H82.6749V58.6001H82.5712V57.8108H82.2808V57.7134H82.9653V57.8108Z" fill="#0058A9"/>
<path d="M83.0876 57.7134H83.2422L83.54 58.408H83.542L83.8418 57.7134H83.993V58.6001H83.8893V57.8561H83.8866L83.5721 58.6001H83.5092L83.194 57.8561H83.1914V58.6001H83.0876V57.7134Z" fill="#0058A9"/>
</g>
<defs>
<clipPath id="clip0_1_528">
<rect width="74" height="28" fill="white" transform="translate(11 34)"/>
</clipPath>
</defs>
</svg>
