<svg width="96" height="96" viewBox="0 0 96 96" fill="none" xmlns="http://www.w3.org/2000/svg">
<circle cx="48" cy="48" r="47" fill="white" stroke="white" stroke-width="2"/>
<g clip-path="url(#clip0_1_6707)">
<path d="M22.8359 50.9423L22.8557 50.9943H23.0263L23.3009 49.3205H23.1626L23.1293 49.3276C22.9545 49.404 22.7335 49.404 22.5199 49.404H20.861L21.2721 46.8963C21.7581 46.8175 22.2691 46.8068 22.708 46.8068C23.4515 46.8068 23.9462 46.8926 24.2738 47.3315L24.2984 47.3643H24.4538L24.7516 45.5448H24.6097L24.572 45.5535C24.4146 45.6326 24.2263 45.6248 24.0438 45.6215C24.0005 45.6206 23.9569 45.6198 23.9129 45.6198H19.1658L19.1418 45.7926L19.2013 45.8156C19.7763 46.0385 19.6264 46.8903 19.5168 47.5125C19.5054 47.5783 19.4942 47.6415 19.4841 47.702L18.6014 53.089L18.5734 53.2706C18.4783 53.9013 18.348 54.7651 17.6782 54.984L17.632 54.9991L17.5995 55.182H20.5303L20.5545 55.0093L20.4959 54.986C19.9505 54.7676 20.0956 53.98 20.2123 53.347C20.2273 53.2653 20.2417 53.1871 20.2539 53.114L20.6647 50.5971L21.8591 50.5965C22.2866 50.5965 22.7141 50.6233 22.8359 50.9423Z" fill="#002F6F"/>
<path d="M31.6808 53.2206L29.7756 45.6198H27.3357L27.3035 45.7956L27.3708 45.8173C27.5279 45.8679 27.6238 45.9411 27.6638 46.0409C27.7564 46.2709 27.5497 46.6373 27.3675 46.9606L23.9099 52.9921L23.7973 53.1956C23.3943 53.9261 23.0135 54.6161 22.1975 54.9876L22.1568 55.0061L22.1333 55.1821H24.9813L25.0125 55.0099L24.951 54.9859C24.7462 54.9058 24.6303 54.8131 24.5863 54.6941C24.5 54.4613 24.6877 54.0887 24.9424 53.6254L26.0085 51.6539H29.5761L30.0617 53.7789C30.2593 54.6276 30.2799 54.7162 29.6231 54.9864L29.5822 55.0032L29.5498 55.1821H32.7108L32.74 55.0179L32.6894 54.9903C32.0214 54.6254 31.856 53.9431 31.6808 53.2206ZM26.6519 50.4373L28.5168 47.1366L29.2893 50.4373H26.6519Z" fill="#002F6F"/>
<path d="M37.5705 45.8009L37.6038 45.6198H34.661L34.6295 45.7916L34.6917 45.8156C35.2574 46.0348 35.1137 46.8383 34.9984 47.4839C34.9848 47.5599 34.9718 47.6329 34.9606 47.7018L34.0785 53.0884C34.0684 53.1499 34.0586 53.2153 34.0482 53.2831C33.9529 53.9093 33.8227 54.7666 33.17 54.9841L33.1242 54.9993L33.0916 55.1818H36.0349L36.0596 55.0091L36.0008 54.9858C35.4423 54.7626 35.5893 53.9233 35.6966 53.3104C35.7086 53.2419 35.7201 53.1759 35.7304 53.1138L36.613 47.7271C36.623 47.6663 36.6327 47.6016 36.643 47.5344C36.7385 46.9064 36.8696 46.0461 37.5261 45.8164L37.5705 45.8009Z" fill="#002F6F"/>
<path d="M44.0188 53.0585L42.4023 50.5685C43.5966 50.2658 44.876 49.3107 45.0878 48.0117C45.1878 47.3997 45.0493 46.857 44.6876 46.4422C44.2181 45.9042 43.4129 45.6195 42.3584 45.6195H38.8091L38.7852 45.7923L38.8447 45.8153C39.4104 46.0345 39.2674 46.838 39.1528 47.4835C39.1391 47.5595 39.1262 47.6327 39.1149 47.7015L38.2316 53.0887C38.2214 53.1527 38.2115 53.2208 38.2011 53.2918C38.1103 53.9145 37.9861 54.7675 37.3237 54.9837L37.2778 54.9987L37.2443 55.1815H40.2035L40.2301 55.0073L40.1681 54.9847C39.5939 54.7747 39.7414 53.9278 39.8491 53.3095C39.861 53.2413 39.8725 53.1757 39.8825 53.1137L40.9232 46.7673C41.2211 46.7213 41.5399 46.6785 41.867 46.6642C42.3984 46.6407 42.8741 46.815 43.1532 47.1352C43.3863 47.4025 43.4751 47.7567 43.4093 48.1593C43.1807 49.5602 41.5605 49.9985 40.6148 50.135L40.5041 50.151L41.5721 52.271L43.0016 54.4307C43.3594 54.9712 43.8208 55.1817 44.6473 55.1817H46.2488L46.0385 55.0365C45.2249 54.4757 44.4696 53.7357 44.0188 53.0585Z" fill="#002F6F"/>
<path d="M57.0768 45.6198L57.0376 45.7923L57.1047 45.8163C57.3511 45.9049 57.507 46.0363 57.5823 46.2181C57.7645 46.6598 57.429 47.3368 57.1593 47.8808L54.6732 53.0621L53.6977 47.1298C53.6001 46.5221 53.5682 46.0761 53.7112 45.7296L53.7565 45.6198H51.5072L51.4783 45.7838L51.529 45.8113C52.2029 46.1761 51.7782 47.0571 51.3672 47.9093L48.8807 53.1033L47.8353 46.7129C47.7928 46.4534 47.7221 46.0193 47.8245 45.7254L47.8612 45.6198H45.5448L45.519 45.7759L45.5577 45.8049C46.1064 46.2158 46.2219 46.9591 46.3335 47.6779C46.3483 47.7719 46.3626 47.8649 46.378 47.9558L47.241 53.2268C47.4507 54.5193 47.6122 54.6443 48.3882 55.2446C48.5168 55.3443 48.6632 55.4574 48.8305 55.5919L48.9116 55.6571L52.3057 48.5813L53.0652 53.2433C53.2871 54.5904 53.4225 54.6901 54.3038 55.3384C54.4072 55.4146 54.5217 55.4988 54.648 55.5936L54.7287 55.6543L59.5201 45.6201H57.0768V45.6198Z" fill="#002F6F"/>
<path d="M62.6833 45.8165L62.7269 45.8011L62.7626 45.6196H59.8231L59.7873 45.791L59.851 45.8156C60.4175 46.0348 60.2736 46.8381 60.158 47.4835C60.1444 47.5596 60.1315 47.6328 60.1202 47.7018L59.2375 53.0886C59.2277 53.1481 59.218 53.2111 59.2083 53.2766C59.1129 53.9051 58.9824 54.766 58.3279 54.9841L58.2811 54.9996L58.2526 55.1818H61.1926L61.2226 55.0098L61.1618 54.9856C60.5966 54.7608 60.7476 53.9146 60.8578 53.2968L61.7714 47.7268C61.7811 47.6675 61.7907 47.6045 61.8006 47.5391C61.8955 46.9095 62.0255 46.047 62.6833 45.8165Z" fill="#002F6F"/>
<path d="M73.3859 45.8119L73.4214 45.7936L73.4522 45.6198H70.716L70.6846 45.7803L70.7323 45.8093C71.3783 46.2011 71.2949 46.7131 71.1683 47.4881L70.3088 52.7381L66.1597 46.3173L65.9977 46.0243C65.9183 45.9173 65.8787 45.8588 65.8547 45.7079L65.8639 45.6199H63.5712L63.5421 45.7803L63.5884 45.8089C64.2325 46.2074 64.1464 46.7318 64.0154 47.5311L63.0803 53.2391C62.9493 54.0388 62.8624 54.5668 62.0539 54.9894L62.0197 55.0073L61.9847 55.1819H64.7455L64.7637 55.0196L64.7213 54.9928C64.0754 54.5848 64.1609 54.0698 64.2902 53.2904L65.1681 47.9366L69.0453 53.9734C69.526 54.7423 69.9184 55.2731 70.954 55.6343L71.0462 55.6666L72.3735 47.5546C72.5062 46.7514 72.5941 46.2206 73.3859 45.8119Z" fill="#002F6F"/>
<path d="M81.7373 47.0598C80.916 46.1178 79.5431 45.6198 77.7666 45.6198H74.1173L74.0882 45.7973L74.1558 45.8178C74.7244 45.9894 74.5811 46.7873 74.4658 47.4281C74.4523 47.5033 74.4392 47.5758 74.4281 47.6441L73.5477 53.0318C73.5336 53.1173 73.5203 53.2009 73.5077 53.2833C73.3954 54.0043 73.3066 54.5738 72.6111 54.9919L72.5779 55.0119L72.5544 55.1823H76.1543C79.4207 55.1823 82.0292 53.1859 82.4971 50.3276C82.7133 49.0079 82.4504 47.8781 81.7373 47.0598ZM80.6438 50.4729C80.2168 53.0721 77.8839 53.9944 76.0159 53.9944C75.6651 53.9944 75.3507 53.9666 75.0579 53.9096L76.1998 46.9518C76.6579 46.8541 77.0732 46.8066 77.4669 46.8066C78.6862 46.8066 79.5785 47.1208 80.119 47.7403C80.6613 48.3621 80.838 49.2816 80.6438 50.4729Z" fill="#002F6F"/>
<path d="M87.2796 49.6309C86.2439 49.1314 85.2657 48.6598 85.4037 47.8129C85.555 46.9023 86.5867 46.5791 87.4243 46.5791C88.2485 46.5791 89.0651 46.9201 89.5054 47.4479L89.6204 47.5861L89.9244 45.7303L89.8583 45.7091C89.2128 45.5004 88.4698 45.3903 87.7092 45.3903C85.9857 45.3903 83.8631 46.0593 83.5533 47.9441C83.2768 49.6333 84.6869 50.2981 85.9309 50.8849C87.0098 51.3938 87.9414 51.8331 87.7836 52.8039C87.6313 53.7294 86.3766 54.2221 85.5296 54.2221C84.4294 54.2221 83.3276 53.7876 82.5821 53.0598L82.4271 52.9084L82.5797 54.9574L82.6276 54.9758C83.3817 55.2646 84.2485 55.4111 85.2037 55.4111C87.3989 55.4111 89.4083 54.0544 89.6826 52.3869C89.9257 50.9071 88.52 50.2291 87.2796 49.6309Z" fill="#002F6F"/>
<path d="M9.58813 54.144C12.8491 52.3878 13.8968 53.8693 13.8968 53.8693C17.7508 48.4877 14.1197 42.8727 14.1197 42.8727C14.7343 47.9912 9.48027 54.085 9.58813 54.144Z" fill="#002F6F"/>
<path d="M13.4828 41.3773C13.3716 41.2803 7.1629 53.378 6.33789 54.3563C6.717 54.07 9.14499 52.267 10.5737 51.9383C10.5737 51.9383 12.133 45.3381 13.4828 41.3773Z" fill="#002F6F"/>
<path d="M5.98773 55.493L6.50758 55.5165L10.8265 55.6666L10.8442 55.654C11.7546 55.0046 12.2017 54.1251 12.2203 54.088L12.2905 53.9476L12.1403 54.001C9.94527 54.7796 5.98773 55.493 5.98773 55.493Z" fill="#002F6F"/>
</g>
<defs>
<clipPath id="clip0_1_6707">
<rect width="84" height="15" fill="white" transform="translate(6 41)"/>
</clipPath>
</defs>
</svg>
