<svg width="96" height="96" viewBox="0 0 96 96" fill="none" xmlns="http://www.w3.org/2000/svg">
<circle cx="48" cy="48" r="47" fill="white" stroke="white" stroke-width="2"/>
<g clip-path="url(#clip0_1_6179)">
<path fill-rule="evenodd" clip-rule="evenodd" d="M37.2006 39.3815H39.5147V37.8204H37.0904C37.1639 36.8837 37.4761 36.2776 38.0638 36.0572C38.3577 35.9287 38.8352 35.8919 39.5331 35.8919V34.0737C39.129 34.0186 38.7433 34.0002 38.376 34.0002C36.0986 34.0002 34.9599 35.2859 34.9599 37.802H33.6376V39.3631H34.9599V47.9584H37.2006V39.3815Z" fill="#002857"/>
<path fill-rule="evenodd" clip-rule="evenodd" d="M44.9328 48.1607C46.4939 48.1607 47.7795 47.6832 48.7162 46.6915L46.7143 45.4793C46.2551 45.8833 45.6858 46.1037 44.9511 46.1037C43.1512 46.1037 42.2329 45.0201 42.2329 42.8529C42.2329 41.9346 42.4533 41.1816 42.8758 40.5939C43.3533 39.9144 44.0328 39.5838 44.9328 39.5838C45.5756 39.5838 46.1082 39.7491 46.549 40.098L48.3488 38.7389C47.4122 37.9125 46.2551 37.5084 44.9328 37.5084C43.4084 37.5084 42.1595 38.0227 41.1677 39.0328C40.1943 40.0429 39.7168 41.3286 39.7168 42.8346C39.7168 44.4508 40.1759 45.7548 41.1126 46.7098C42.0309 47.6832 43.3165 48.1607 44.9328 48.1607Z" fill="#002857"/>
<path fill-rule="evenodd" clip-rule="evenodd" d="M56.4849 47.9218H58.8909V37.6736H56.4849V43.514C56.4849 44.1568 56.2462 44.7261 55.7686 45.1853C55.3095 45.6261 54.7401 45.8281 54.079 45.8281C53.4362 45.8281 52.9035 45.6077 52.5362 45.1853C52.1689 44.7445 52.0036 44.1935 52.0036 43.514L51.9669 37.6736H49.5609V44.469C49.5609 45.571 49.8915 46.4709 50.571 47.1137C51.2506 47.7565 52.1322 48.0871 53.2525 48.0871C54.4096 48.0871 55.4932 47.628 56.4849 46.7097V47.9218Z" fill="#002857"/>
<path fill-rule="evenodd" clip-rule="evenodd" d="M30.1481 34.0188H32.5541V37.9308V47.9403H30.1481V46.4159C29.4502 47.4444 28.5319 47.9586 27.3565 47.9586C25.9423 47.9586 24.8036 47.5178 23.9036 46.6363C23.0037 45.7363 22.5446 44.5793 22.5446 43.1651C22.5446 41.6958 22.9853 40.4102 23.7934 39.3633C24.7118 38.2063 25.8688 37.6002 27.283 37.6002C28.1278 37.6002 29.0829 37.9124 30.1297 38.5185V35.1759L30.1481 34.0188ZM30.1481 41.5305V44.1018C29.4686 45.3507 28.6972 45.9751 27.834 45.9751C26.9708 45.9751 26.2729 45.718 25.7586 45.2037C25.2444 44.6895 25.0056 44.0283 25.0056 43.1467C25.0056 41.8427 25.3178 40.9061 25.979 40.3551C26.3831 39.9878 26.9891 39.8225 27.834 39.8225C28.3482 39.8225 28.8257 39.9878 29.2849 40.3551C29.744 40.8693 30.0195 41.255 30.1481 41.5305Z" fill="#002857"/>
<path d="M23.1691 50.4744H36.8701" stroke="#B68651" stroke-width="1.29453" stroke-miterlimit="3.8637" stroke-linecap="round"/>
<path d="M26.1077 53.6885V60.8145" stroke="#B68651" stroke-width="2.0264" stroke-miterlimit="3.8637" stroke-linecap="round"/>
<path d="M29.9645 53.6885V60.8145" stroke="#B68651" stroke-width="2.0264" stroke-miterlimit="3.8637" stroke-linecap="round"/>
<path d="M33.8398 53.6885V60.8145" stroke="#B68651" stroke-width="2.0264" stroke-miterlimit="3.8637" stroke-linecap="round"/>
<path d="M22.2875 52.9355H22.3426C22.7283 52.9355 22.9303 53.358 22.9303 53.762C22.9303 54.4599 22.1222 54.7354 21.4427 54.7354C20.4142 54.7354 19.7346 53.7436 19.7346 52.7151C19.7346 51.503 20.708 50.4745 21.9202 50.4745H23.3895" stroke="#B68651" stroke-width="1.35092" stroke-miterlimit="3.8637" stroke-linecap="round"/>
<path d="M37.6232 52.9354C37.2192 52.9354 37.0171 53.3578 37.0171 53.7619C37.0171 54.4598 37.8252 54.7353 38.5048 54.7353C39.5333 54.7353 40.2128 53.7435 40.2128 52.715C40.2128 51.5029 39.2394 50.4744 38.0273 50.4744H36.558" stroke="#B68651" stroke-width="1.35092" stroke-miterlimit="3.8637" stroke-linecap="round"/>
<path fill-rule="evenodd" clip-rule="evenodd" d="M23.0405 50.8967L25.0424 51.5763H34.8866L37.3293 50.8967H23.0405Z" fill="#B68651" stroke="#B68651" stroke-width="0.468371" stroke-miterlimit="3.8637"/>
<path d="M37.5682 54.57C38.2275 54.57 38.762 54.0355 38.762 53.3762C38.762 52.7169 38.2275 52.1824 37.5682 52.1824C36.9089 52.1824 36.3744 52.7169 36.3744 53.3762C36.3744 54.0355 36.9089 54.57 37.5682 54.57Z" fill="#B68651" stroke="#B68651" stroke-width="0.260927" stroke-miterlimit="3.8637"/>
<path d="M22.4161 54.57C23.0754 54.57 23.6099 54.0355 23.6099 53.3762C23.6099 52.7169 23.0754 52.1824 22.4161 52.1824C21.7568 52.1824 21.2223 52.7169 21.2223 53.3762C21.2223 54.0355 21.7568 54.57 22.4161 54.57Z" fill="#B68651" stroke="#B68651" stroke-width="0.260927" stroke-miterlimit="3.8637"/>
<path d="M45.8327 52.1274V52.7886H46.7142V53.3396H45.8327V54.6986H45.1348V51.5764H47.2101V52.1274H45.8327Z" fill="#002857"/>
<path d="M48.6794 54.7171V51.5948H49.3406V54.7171H48.6794Z" fill="#002857"/>
<path d="M52.9771 54.7171L51.6548 52.5682V54.7171H50.9385V51.5948H51.8384L52.9771 53.3764V51.5948H53.6934V54.7171H52.9771Z" fill="#002857"/>
<path d="M57.0359 53.5417H56.3748L56.7054 52.5499L57.0359 53.5417ZM58.1746 54.7171L57.0543 51.5948H56.3197L55.1993 54.7171H55.9707L56.1911 54.0743H57.1829L57.4033 54.7171H58.1746Z" fill="#002857"/>
<path d="M61.6275 54.7171L60.3051 52.5682V54.7171H59.5889V51.5948H60.4888L61.6275 53.3764V51.5948H62.3438V54.7171H61.6275Z" fill="#002857"/>
<path d="M66.1639 52.5131C65.9986 52.2927 65.7782 52.1825 65.466 52.1825C64.9334 52.1825 64.6579 52.4947 64.6579 53.1191C64.6579 53.3946 64.7314 53.615 64.8599 53.7803C65.0069 53.964 65.2089 54.0558 65.4844 54.0558C65.7599 54.0558 65.9619 53.9823 66.1088 53.8171L66.77 54.1293C66.4945 54.515 66.0537 54.717 65.4844 54.717C65.0252 54.717 64.6395 54.5701 64.3457 54.2578C64.0518 53.9456 63.9049 53.5783 63.9049 53.1008C63.9049 52.6049 64.0518 52.2192 64.3273 51.9253C64.6028 51.6315 65.0069 51.5029 65.5028 51.5029C66.1088 51.5029 66.5496 51.705 66.8251 52.1274L66.1639 52.5131Z" fill="#002857"/>
<path d="M68.2576 54.7171V51.5948H68.9187V54.7171H68.2576Z" fill="#002857"/>
<path d="M72.2431 53.5417H71.5819L71.9125 52.5499L72.2431 53.5417ZM73.3818 54.7171L72.2615 51.5948H71.5268L70.4065 54.7171H71.1779L71.3983 54.0743H72.39L72.6104 54.7171H73.3818Z" fill="#002857"/>
<path d="M74.7776 54.7171V51.5948H75.4755V54.0926H76.9999V54.7171H74.7776Z" fill="#002857"/>
</g>
<defs>
<clipPath id="clip0_1_6179">
<rect width="58" height="27.8613" fill="white" transform="translate(19 34)"/>
</clipPath>
</defs>
</svg>
