<svg width="96" height="96" viewBox="0 0 96 96" fill="none" xmlns="http://www.w3.org/2000/svg">
<circle cx="48" cy="48" r="47" fill="white" stroke="white" stroke-width="2"/>
<g clip-path="url(#clip0_1_9279)">
<path d="M83.6122 61.2015H12.1533C11.7769 61.2015 11.471 60.8956 11.471 60.5192V38.0486C11.471 37.6721 11.7769 37.3662 12.1533 37.3662H83.6122C83.9886 37.3662 84.2945 37.6721 84.2945 38.0486V60.4956C84.2945 60.8956 83.9886 61.2015 83.6122 61.2015Z" stroke="#0B5E66" stroke-width="0.705882" stroke-miterlimit="10"/>
<path d="M34.1289 57.4133C34.4348 57.6015 34.8584 57.7427 35.3289 57.7427C36.0113 57.7427 36.4113 57.3897 36.4113 56.8721C36.4113 56.4015 36.1289 56.1192 35.4466 55.8368C34.5995 55.5309 34.0819 55.1074 34.0819 54.378C34.0819 53.578 34.7407 52.9897 35.7525 52.9897C36.2701 52.9897 36.6701 53.1074 36.8819 53.2486L36.6936 53.7897C36.5289 53.6956 36.176 53.5545 35.7054 53.5545C34.9995 53.5545 34.7407 53.978 34.7407 54.3309C34.7407 54.8015 35.0466 55.0603 35.776 55.3192C36.6466 55.6486 37.0936 56.0721 37.0936 56.825C37.0936 57.625 36.5054 58.3074 35.2819 58.3074C34.7878 58.3074 34.2466 58.1662 33.9642 57.978L34.1289 57.4133Z" fill="#035C67"/>
<path d="M38.8116 56.59L38.2704 58.2135H37.588L39.3292 53.0605H40.1292L41.8939 58.2135H41.188L40.6469 56.59H38.8116ZM40.5057 56.0723L40.0116 54.59C39.8939 54.2605 39.8233 53.9547 39.7527 53.6488H39.7292C39.6586 53.9547 39.5645 54.2605 39.4704 54.59L38.9763 56.0723H40.5057Z" fill="#035C67"/>
<path d="M43.7995 58.2135L42.1289 53.0605H42.8583L43.6583 55.6017C43.8701 56.3076 44.0819 56.9194 44.1995 57.5311H44.223C44.3642 56.9429 44.576 56.2841 44.8113 55.6017L45.6819 53.0605H46.3877L44.5525 58.2135H43.7995Z" fill="#035C67"/>
<path d="M47.5884 53.0605V58.2135H46.9296V53.0605H47.5884Z" fill="#035C67"/>
<path d="M48.7643 58.2135V53.0605H49.4937L51.1407 55.6723C51.5172 56.2841 51.8231 56.8253 52.0584 57.3429H52.0819C52.0113 56.6605 52.0113 56.0253 52.0113 55.2253V53.0605H52.6466V58.2135H51.9643L50.3172 55.6017C49.9643 55.037 49.6113 54.4488 49.3525 53.8841H49.329C49.376 54.5429 49.376 55.1547 49.376 56.0017V58.2135H48.7643Z" fill="#035C67"/>
<path d="M57.7056 57.978C57.3997 58.0956 56.8114 58.2603 56.1291 58.2603C55.3526 58.2603 54.7173 58.0721 54.1997 57.578C53.7526 57.1545 53.4703 56.4721 53.4703 55.6486C53.4703 54.1192 54.5291 52.9897 56.2703 52.9897C56.8585 52.9897 57.3291 53.1309 57.5644 53.225L57.3997 53.7662C57.1173 53.6486 56.7879 53.5545 56.2703 53.5545C55.0232 53.5545 54.1997 54.3309 54.1997 55.625C54.1997 56.9427 54.9761 57.6956 56.1997 57.6956C56.6467 57.6956 56.9291 57.625 57.0938 57.5545V56.025H56.035V55.4839H57.7291V57.978H57.7056Z" fill="#035C67"/>
<path d="M58.6468 57.4133C58.9527 57.6015 59.3763 57.7427 59.8468 57.7427C60.5292 57.7427 60.9292 57.3897 60.9292 56.8721C60.9292 56.4015 60.6468 56.1192 59.9645 55.8368C59.1174 55.5309 58.5998 55.1074 58.5998 54.378C58.5998 53.578 59.2586 52.9897 60.2704 52.9897C60.788 52.9897 61.188 53.1074 61.3998 53.2486L61.2115 53.7897C61.0468 53.6956 60.6939 53.5545 60.2233 53.5545C59.5174 53.5545 59.2586 53.978 59.2586 54.3309C59.2586 54.8015 59.5645 55.0603 60.2939 55.3192C61.1645 55.6486 61.6115 56.0721 61.6115 56.825C61.6115 57.625 61.0233 58.3074 59.7998 58.3074C59.3057 58.3074 58.7645 58.1662 58.4821 57.978L58.6468 57.4133Z" fill="#035C67"/>
<path d="M64.1293 53.1308C64.4117 53.0602 64.8822 53.0132 65.3528 53.0132C66.0117 53.0132 66.4352 53.1308 66.7646 53.3897C67.0234 53.5779 67.1881 53.8838 67.1881 54.3073C67.1881 54.8014 66.8587 55.2485 66.3175 55.4367V55.4602C66.8117 55.5779 67.3764 55.9779 67.3764 56.7544C67.3764 57.2014 67.2117 57.5308 66.9293 57.7897C66.5764 58.1191 65.9881 58.2602 65.1411 58.2602C64.694 58.2602 64.3411 58.2367 64.1058 58.1897V53.1308H64.1293ZM64.7881 55.2485H65.3999C66.1058 55.2485 66.5058 54.872 66.5058 54.3779C66.5058 53.7661 66.0352 53.5308 65.3764 53.5308C65.0705 53.5308 64.9058 53.5544 64.7881 53.5779V55.2485ZM64.7881 57.7191C64.9293 57.7426 65.1175 57.7426 65.3528 57.7426C66.0352 57.7426 66.6705 57.4838 66.6705 56.7308C66.6705 56.0249 66.0587 55.7426 65.3293 55.7426H64.7881V57.7191Z" fill="#035C67"/>
<path d="M69.094 56.59L68.5528 58.2135H67.8704L69.6116 53.0605H70.4116L72.1763 58.2135H71.4704L70.9293 56.59H69.094ZM70.7881 56.0723L70.294 54.59C70.1763 54.2605 70.1057 53.9547 70.0351 53.6488H70.0116C69.941 53.9547 69.8469 54.2605 69.7528 54.59L69.2587 56.0723H70.7881Z" fill="#035C67"/>
<path d="M72.9527 58.2135V53.0605H73.6821L75.3292 55.6723C75.7056 56.2841 76.0115 56.8253 76.2468 57.3429H76.2703C76.1998 56.6605 76.1998 56.0253 76.1998 55.2253V53.0605H76.8351V58.2135H76.1527L74.5056 55.6017C74.1527 55.037 73.7998 54.4488 73.5409 53.8841H73.5174C73.5645 54.5429 73.5645 55.1547 73.5645 56.0017V58.2135H72.9527Z" fill="#035C67"/>
<path d="M77.9883 53.0605H78.6471V55.5547H78.6706C78.8118 55.3664 78.953 55.1782 79.0706 55.0135L80.6471 53.0841H81.4706L79.6118 55.2723L81.6118 58.237H80.8353L79.1412 55.6958L78.6471 56.2605V58.237H77.9883V53.0605Z" fill="#035C67"/>
<path d="M33.8945 40.9194H35.3062V50.7077H40.0121V51.9077H33.8945V40.9194Z" fill="#94B7BB"/>
<path d="M43.2114 41.8136C43.2349 42.3077 42.8585 42.6841 42.2938 42.6841C41.7996 42.6841 41.4232 42.2841 41.4232 41.8136C41.4232 41.3194 41.7996 40.9194 42.3173 40.9194C42.882 40.8959 43.2114 41.2959 43.2114 41.8136ZM41.6114 51.9077V44.0253H43.0467V51.9077H41.6114Z" fill="#94B7BB"/>
<path d="M45.5176 46.1663C45.5176 45.3428 45.4941 44.684 45.447 44.0251H46.7176L46.7882 45.3193H46.8117C47.2117 44.5663 48.1058 43.8369 49.4235 43.8369C50.5058 43.8369 52.2 44.4957 52.2 47.2016V51.9075H50.7647V47.3663C50.7647 46.0957 50.2941 45.0369 48.9294 45.0369C47.9882 45.0369 47.2588 45.6957 46.9999 46.4957C46.9294 46.684 46.9058 46.9193 46.9058 47.1546V51.9075H45.4705V46.1663H45.5176Z" fill="#94B7BB"/>
<path d="M60.2704 51.6251C59.8939 51.8133 59.0704 52.0721 58.0115 52.0721C55.6351 52.0721 54.0821 50.4486 54.0821 48.0486C54.0821 45.6251 55.7527 43.8604 58.3174 43.8604C59.1645 43.8604 59.9174 44.0721 60.3174 44.2604L59.988 45.3662C59.6351 45.178 59.1174 44.9898 58.3174 44.9898C56.5057 44.9898 55.5409 46.3309 55.5409 47.978C55.5409 49.8133 56.7174 50.9192 58.2704 50.9192C59.0939 50.9192 59.6351 50.7074 60.0351 50.5192L60.2704 51.6251Z" fill="#94B7BB"/>
<path d="M69.1646 47.9075C69.1646 50.8251 67.1411 52.0957 65.2352 52.0957C63.0941 52.0957 61.447 50.5193 61.447 48.0251C61.447 45.3899 63.1646 43.8369 65.3529 43.8369C67.6352 43.8369 69.1646 45.484 69.1646 47.9075ZM62.9058 47.9781C62.9058 49.6957 63.8941 51.0134 65.3058 51.0134C66.6705 51.0134 67.7058 49.7193 67.7058 47.9546C67.7058 46.6134 67.047 44.9193 65.3529 44.9193C63.6352 44.9193 62.9058 46.4722 62.9058 47.9781Z" fill="#94B7BB"/>
<path d="M71.0708 40.3311H72.5061V51.9075H71.0708V40.3311Z" fill="#94B7BB"/>
<path d="M75.0001 46.1663C75.0001 45.3428 74.9766 44.684 74.9295 44.0251H76.2001L76.2707 45.3193H76.2942C76.6942 44.5663 77.5883 43.8369 78.906 43.8369C79.9883 43.8369 81.6824 44.4957 81.6824 47.2016V51.9075H80.2471V47.3663C80.2471 46.0957 79.7766 45.0369 78.4119 45.0369C77.4707 45.0369 76.7413 45.6957 76.4824 46.4957C76.4119 46.684 76.3883 46.9193 76.3883 47.1546V51.9075H75.0001V46.1663Z" fill="#94B7BB"/>
<path d="M24.9528 45.5077C24.7175 45.2018 24.294 45.0606 23.9175 44.943C23.494 44.8253 23.094 44.6841 22.6469 44.7077C22.1999 44.7312 21.7999 44.943 21.4705 45.2253C21.1411 45.5077 20.9058 45.8841 20.7175 46.2841C20.6234 46.4724 20.5528 46.6606 20.5528 46.8724C20.5528 46.9665 20.5528 47.0841 20.6234 47.1783C20.7646 47.39 20.9999 47.2488 21.1646 47.1547C21.3293 47.0841 21.3999 47.0136 21.5646 46.99C21.7058 46.99 21.6822 46.99 21.9646 47.0606C22.0822 47.0841 22.1764 47.1312 22.294 47.1783C22.5764 47.2959 22.8587 47.1547 23.094 47.0371C23.2352 46.9665 23.3999 46.943 23.5175 47.0371C23.5881 47.1077 23.6352 47.2018 23.6352 47.3194C23.6587 47.5547 23.5646 47.8136 23.3764 48.0018C23.1881 48.2136 22.9058 48.2606 22.6469 48.3547C22.6234 48.4724 22.9999 48.4018 23.1881 48.3783C23.3293 48.3547 23.494 48.3312 23.6352 48.2841C23.9881 48.143 24.1058 47.8371 24.2705 47.5312C24.4116 47.2959 24.5999 47.0841 24.8352 46.943C24.9528 46.8724 25.094 46.8018 25.1646 46.6841C25.2587 46.5194 25.2352 46.3077 25.1881 46.143C25.1646 45.9312 25.094 45.6959 24.9528 45.5077ZM22.4822 46.59C22.3646 46.59 22.0822 46.6841 22.0822 46.4724C22.0822 46.2136 22.8822 45.9783 23.1175 46.3077C23.2822 46.6136 22.7646 46.59 22.4822 46.59Z" fill="#0B5E66"/>
<path d="M16.7176 46.9429C16.5764 46.7076 16.5058 46.4017 16.2941 46.237C16.1293 46.0958 15.9176 46.0723 15.7058 46.0723C15.5176 46.0723 15.3058 46.0487 15.1411 46.1899C14.9764 46.3076 14.8823 46.5193 14.8117 46.7076C14.7882 46.7782 14.7646 46.8723 14.7882 46.9429C14.8352 47.1311 15.047 47.084 15.1646 46.9899C15.2117 46.9429 15.2588 46.8958 15.3058 46.8252C15.3999 46.7311 15.5176 46.637 15.6588 46.6134C16.1058 46.5429 16.1058 47.1546 16.4588 47.2723C16.5058 47.2958 16.5529 47.2958 16.5999 47.3429C16.6235 47.3664 16.6235 47.4134 16.5999 47.437C16.5529 47.5076 16.4588 47.5311 16.3882 47.5782C16.2941 47.6252 16.1764 47.6723 16.0823 47.7193C15.9646 47.7899 15.847 47.884 15.8235 48.0252C15.7999 48.0958 15.8235 48.1664 15.847 48.237C15.9176 48.4723 16.1058 48.6605 16.247 48.8723C16.2705 48.8958 16.3646 49.0605 16.4588 49.0605C16.5529 49.0605 16.5058 48.9193 16.5058 48.8487C16.4823 48.5429 16.6705 48.1899 16.9058 48.0017C16.9529 47.9546 16.9999 47.9311 17.0235 47.884C17.0941 47.8134 17.0941 47.6723 17.047 47.6017C16.9529 47.3429 16.8588 47.1311 16.7176 46.9429Z" fill="#0B5E66"/>
<path d="M31.494 61.3899C31.8469 61.4134 32.0351 61.3664 31.7763 61.2487C31.1646 60.9899 30.7646 60.8722 30.3881 60.6134C29.9646 60.3311 29.8469 60.2369 29.5881 59.884C29.3057 59.4605 29.1646 58.9664 28.7881 58.6134C28.6234 58.4252 28.4116 58.3311 28.1763 58.2605C28.0116 58.2134 27.7293 58.1193 27.6822 57.9311C27.6587 57.8369 27.7057 57.7193 27.7999 57.5781C28.4351 57.2017 28.5057 56.5193 28.5763 55.8605C28.6234 55.5075 28.8587 55.2252 28.9057 54.8722C28.9528 54.5193 28.7646 54.284 28.7646 53.9546C28.7646 53.7899 28.8351 53.6722 28.8822 53.5075C28.9528 53.3193 28.9528 53.1546 28.9528 52.9664C28.9528 52.7311 28.8822 52.4958 28.8822 52.2605C28.8587 52.0487 29.0704 51.8605 29.1646 51.6722C29.3293 51.3664 29.3528 50.9664 29.4469 50.6605C29.494 50.4958 29.541 50.3311 29.5881 50.1664C29.6351 50.0017 29.7293 49.8369 29.7763 49.6722C29.941 49.0605 30.1528 48.4252 30.5057 47.884C30.694 47.6017 30.9057 47.2958 30.9528 46.9428C31.3293 46.6134 31.541 46.1193 31.6351 45.6252C31.7763 44.9193 31.6351 44.0958 31.4469 43.3899C31.3293 42.9428 31.1175 42.5193 30.7881 42.1899C30.741 42.1428 30.694 42.0958 30.6704 42.0487C30.6469 42.0017 30.6469 41.9546 30.6469 41.884C30.6234 41.3899 30.1763 41.1546 30.0822 40.7075C30.0351 40.4722 30.1057 40.2134 30.0587 39.9546C30.0116 39.7664 29.941 39.6017 29.8234 39.4605C29.5646 39.084 29.2116 38.8958 28.8587 38.6369C28.6704 38.5193 28.3881 38.2605 28.3175 38.0252C28.2469 37.7899 28.1999 37.5546 28.0351 37.3428C27.8234 37.1075 27.4234 36.9899 27.141 36.8958C26.8351 36.8017 26.4116 36.8252 26.1999 36.5193C26.1293 36.4017 26.0116 36.284 25.9175 36.1899C25.7293 36.0252 25.541 35.884 25.3057 35.7899C24.8822 35.6017 24.4116 35.6017 23.941 35.5781C23.894 35.5781 23.8234 35.5781 23.7763 35.5781C23.3293 35.5781 22.8822 35.5781 22.4587 35.7193C22.2234 35.7899 22.0116 35.9311 21.8234 36.1193C21.7293 36.2134 21.6351 36.3075 21.5646 36.4252C21.5175 36.4958 21.4469 36.684 21.3528 36.7075C21.3057 36.7311 21.2587 36.7075 21.2351 36.7075C21.1175 36.7075 20.9999 36.684 20.9057 36.7075C20.6704 36.7546 20.4822 36.9428 20.2704 37.0605C20.0116 37.1781 19.7528 37.2958 19.494 37.4369C19.2587 37.5781 18.9528 37.6487 18.6704 37.7428C18.0587 37.9311 17.4469 38.1428 17.1646 38.7075C17.1646 38.7311 16.9057 39.2017 16.8116 39.3428C16.8116 39.3428 16.5763 39.9311 16.4351 40.1664C15.9881 40.8252 15.2351 41.3899 15.3057 42.2369C15.3057 42.8487 15.0234 42.9899 14.6469 43.4369C14.0587 44.1193 13.3293 45.084 13.6587 46.1428C13.1881 46.6605 13.8234 48.1428 14.1763 48.684L14.7175 49.2958C14.7881 49.484 14.8822 50.0487 15.1175 50.4958C15.3057 50.8487 15.6587 51.084 15.7528 51.2252C15.8704 51.5075 16.1293 51.9546 16.4587 52.0017C17.5646 52.1899 16.6469 53.7193 17.941 53.9546C18.1293 54.2134 18.1763 54.5899 18.1999 54.9428C18.1999 54.9664 18.1999 55.0605 18.1999 55.084C18.2234 55.4134 18.2704 55.7899 18.4587 56.0722C18.5528 56.1899 18.6469 56.3075 18.7881 56.3781C18.9293 56.4722 19.141 56.4722 19.2351 56.6134C19.2822 56.684 19.2822 56.7546 19.2822 56.8487C19.3293 57.0134 19.4469 57.1781 19.5881 57.2722C19.7293 57.3899 19.894 57.4605 20.0351 57.5546C20.3881 57.7899 20.694 58.0722 20.9763 58.3781C21.1881 58.5899 21.3763 58.8017 21.5881 59.0134C21.6587 59.084 21.7528 59.1781 21.8469 59.2252C21.941 59.2722 22.0587 59.2958 22.1763 59.3193C22.7881 59.4134 23.3999 59.3664 24.0351 59.3428C24.1999 59.3428 24.3881 59.3428 24.5057 59.4605C24.5763 59.5311 24.5999 59.6252 24.6234 59.7193C24.6704 59.8134 24.741 59.9075 24.8351 59.9075C24.9057 59.9075 24.9763 59.8605 25.0234 59.8134C25.2822 59.6017 25.5175 59.3664 25.7999 59.2252C26.341 58.9193 26.9999 59.1311 27.2822 59.7193C27.4234 60.0252 27.4704 60.3781 27.3528 60.7075C27.3528 60.7311 27.3293 60.7546 27.3293 60.7546C27.3057 60.7781 27.2587 60.7781 27.2351 60.7781C26.9763 60.7781 26.7646 60.684 26.5057 60.6369C26.1763 60.5428 25.8469 60.4487 25.5175 60.3781C25.094 60.2605 24.6469 60.2369 24.1999 60.284C24.0587 60.3075 23.9175 60.3311 23.7999 60.3781C23.6587 60.4252 23.6116 60.4722 23.5175 60.3781C23.3293 60.2134 23.2116 60.0722 22.9528 60.0252C22.5293 59.9075 22.0587 60.0487 21.6822 60.2134C21.2822 60.3546 20.8116 60.3781 20.4351 60.1428C20.0351 59.9075 19.8704 59.4605 19.5646 59.1075C19.4469 58.9428 19.2822 58.8252 19.141 58.684C18.5528 58.1664 18.0116 57.6017 17.9175 56.8017C17.8704 56.4487 17.894 56.0958 17.941 55.7664C17.9646 55.6252 18.0587 55.3664 18.0116 55.2252C17.894 54.8017 17.2351 55.2252 17.0704 55.3899C16.7175 55.7193 16.5293 56.1899 16.3175 56.6134C16.1057 57.0369 15.9646 57.5075 15.6587 57.884C15.3763 58.2369 14.9999 58.4722 14.5999 58.6605C14.1528 58.8722 13.6587 59.0369 13.2116 59.2722C12.8351 59.484 12.4587 59.6722 12.0822 59.8605C11.941 59.9311 11.4704 60.0958 11.5881 61.2017C11.6116 61.5546 17.2587 61.484 22.5763 61.4369C27.894 61.3664 30.7881 61.3664 31.494 61.3899ZM14.1763 47.7899L14.1528 47.7428C14.1763 47.7664 14.1763 47.7664 14.1763 47.7899ZM15.3999 50.0722L15.4234 50.0958C15.3999 50.0958 15.3999 50.0722 15.3999 50.0722ZM17.6822 50.0017C17.6351 50.4017 17.3528 50.7781 16.9763 50.9664C16.8587 51.0369 16.694 51.0605 16.5763 51.0134C16.4822 50.9664 16.4116 50.8722 16.3646 50.7781C16.1057 50.3546 15.8704 49.9075 15.5646 49.5075C15.2587 49.084 14.9528 48.6605 14.741 48.1664C14.5528 47.7193 14.4351 47.2487 14.5293 46.7546C14.5763 46.4252 14.741 46.1428 14.9057 45.8605C15.0234 45.6487 15.1646 45.4605 15.3763 45.3428C15.8469 45.1075 16.4587 45.3193 16.8116 45.6722C17.3528 46.2134 17.7528 47.2958 17.494 48.0487C17.4469 48.1664 17.3999 48.2605 17.3528 48.3781C17.2587 48.6369 17.3057 48.8958 17.3999 49.1546C17.5175 49.4369 17.7293 49.7193 17.6822 50.0017ZM27.1646 51.4134C26.8822 51.5781 26.4587 51.484 26.1528 51.4605C25.8704 51.4369 25.5881 51.3899 25.3057 51.3664C25.094 51.3428 24.8116 51.3428 24.5999 51.2252C24.2469 51.0369 24.5999 50.4487 24.8116 50.1899C24.8351 50.1664 24.8116 50.1193 24.7881 50.0958C24.5763 50.0487 24.341 50.1428 24.1293 50.2605C22.9763 50.8958 21.1881 52.7546 21.3763 53.0134C21.494 53.1781 21.9646 52.5664 22.1999 52.2605C22.6704 51.6958 23.1881 51.2252 23.8469 50.9664C23.7763 51.3664 24.0822 51.7428 24.4587 51.9075C24.8351 52.0722 25.2587 52.0722 25.6587 52.1428C26.0587 52.1899 26.4822 52.3075 26.7646 52.6134C26.8116 52.6605 26.8587 52.7311 26.8587 52.8017C26.8587 52.9664 26.694 53.0605 26.5293 53.1075C25.7763 53.2958 24.9999 53.1546 24.2469 52.9428C23.494 52.7311 22.3175 52.5899 22.0822 53.4134C22.0587 53.5075 22.0116 53.6487 22.0822 53.7193C22.1293 53.7899 22.2469 53.7899 22.3175 53.7428C22.3646 53.6958 22.3881 53.6252 22.4116 53.5546C22.4351 53.484 22.5057 53.4134 22.5528 53.3664C22.6469 53.2958 22.7881 53.2722 22.9057 53.2487C23.3763 53.2017 23.7763 53.3428 24.1999 53.484C24.9057 53.6958 25.6351 53.7428 26.3646 53.6252C26.4587 53.6017 26.5763 53.6017 26.6469 53.6487C26.7881 53.7664 26.6704 53.9781 26.5293 54.0958C26.1057 54.4252 25.5175 54.4017 24.9999 54.3075C24.5057 54.2134 24.0351 54.0722 23.541 54.0958C23.4704 54.0958 23.3999 54.1664 23.4234 54.2369C23.4704 54.4958 23.7057 54.7075 23.9646 54.7546C24.2704 54.8252 24.5763 54.7546 24.8822 54.7311C25.2822 54.684 25.6822 54.684 26.0822 54.7311C26.2469 54.7546 26.4116 54.7781 26.4822 54.9899C26.5528 55.2017 26.4587 55.4134 26.294 55.5546C25.494 56.1899 24.4351 55.7193 23.4469 55.6722C23.2351 55.6487 23.0234 55.6722 22.8351 55.5311C22.7175 55.4369 22.6469 55.2958 22.5528 55.2017C22.3646 55.0134 22.0587 54.9664 21.8234 55.084C21.4469 55.2722 21.2822 55.7899 20.7881 55.7664C20.5293 55.7428 20.341 55.5781 20.2234 55.3664C19.9646 54.8722 20.0822 54.3311 19.9881 53.8134C19.941 53.5311 19.8234 53.2487 19.7528 52.9664C19.6587 52.5899 19.6587 52.1899 19.6351 51.7899C19.5881 51.0134 19.4469 50.2605 19.2116 49.5311C19.0234 48.9428 18.741 48.3075 18.9057 47.6958C18.9999 47.2958 19.2587 46.9899 19.4469 46.6134C19.7293 46.0252 19.7763 45.3428 19.5646 44.7311C19.3999 44.2605 19.1175 43.8369 18.9763 43.3428C18.741 42.5664 18.9057 41.7193 19.141 40.9428C19.3528 40.2369 19.6351 39.5075 20.1528 38.9899C20.694 38.4722 21.541 38.2134 22.1999 38.5664C22.4351 38.684 22.6469 38.8958 22.8822 39.0369C23.2587 39.2722 23.7293 39.3664 24.0822 39.6017C24.5528 39.9311 24.8587 40.4958 25.3763 40.7546C25.7763 40.9428 26.3175 40.9664 26.5763 41.3193C26.8822 41.7428 26.6469 42.4487 27.0704 42.7546C27.2116 42.8487 27.3999 42.8722 27.5646 42.8722C27.941 42.8958 28.294 42.9193 28.6704 42.9664C28.7646 42.9664 28.8587 42.9899 28.9293 42.9428C29.0234 42.8958 29.0704 42.7781 29.1175 42.7075C29.3057 42.4722 29.7057 42.4958 29.8704 42.7311C30.0351 42.9899 29.941 43.3193 29.8704 43.6017C29.7057 44.2605 29.6587 44.9428 29.7528 45.6017C28.7646 45.5546 27.7999 45.6722 26.8587 45.9781C26.5999 46.0487 26.3175 46.1664 26.2234 46.4252C26.1293 46.684 26.2469 46.9664 26.3881 47.2252C26.8116 48.0958 27.1646 48.9899 27.3999 49.9075C27.5175 50.4017 27.6587 51.1311 27.1646 51.4134ZM27.8234 48.3781C27.894 48.3781 27.9881 48.3781 28.0587 48.3781C28.2234 48.3781 28.3881 48.3781 28.5528 48.4252C28.7175 48.4722 28.8822 48.5428 28.9999 48.684C29.0704 48.7781 29.1175 48.9193 29.1646 49.0369C29.2587 49.3899 29.2587 49.8605 29.141 50.2134C29.0469 50.4487 28.9057 50.9193 28.5999 50.9899C28.4351 51.0134 28.294 50.9664 28.2469 50.9193C27.9175 50.7311 28.0587 49.2958 27.6351 48.4017C27.6351 48.4017 27.7999 48.3781 27.8234 48.3781Z" fill="#0B5E66"/>
</g>
<defs>
<clipPath id="clip0_1_9279">
<rect width="74" height="26.5412" fill="white" transform="translate(11 35.1309)"/>
</clipPath>
</defs>
</svg>
