<svg width="96" height="96" viewBox="0 0 96 96" fill="none" xmlns="http://www.w3.org/2000/svg">
<circle cx="48" cy="48" r="47" fill="white" stroke="white" stroke-width="2"/>
<path d="M76.2773 37.4969C79.4823 37.4969 83.6566 37.8002 85.744 38.4063C87.5483 38.9302 88.0315 40.2754 87.9984 41.4625C87.9648 42.6486 87.0305 45.179 82.5885 48.4088C78.2809 51.5411 74.4045 53.272 69.1643 55.1527C65.858 56.3399 61.1663 57.452 58.0438 57.8805C65.5191 55.5813 67.5177 54.6938 72.0315 52.3239C74.847 50.8454 76.9808 49.167 79.4852 46.7311C82.7853 43.522 83.3263 41.4503 83.3603 40.7781C83.4202 39.6051 83.2393 38.8863 81.7871 38.3301C80.562 37.8616 76.2773 37.4969 76.2773 37.4969Z" fill="#14377D"/>
<path d="M76.2773 37.4969C79.4823 37.4969 83.6566 37.8002 85.744 38.4063C87.5483 38.9302 88.0315 40.2754 87.9984 41.4625C87.9648 42.6486 87.0305 45.179 82.5885 48.4088C78.2809 51.5411 74.4045 53.272 69.1643 55.1527C65.858 56.3399 61.1663 57.452 58.0438 57.8805C65.2942 56.202 68.1369 55.1272 72.7474 53.2252C76.0266 51.8733 81.4524 48.8055 83.4202 47.0016C86.7755 43.9254 87.3398 42.1702 87.2959 41.4999C87.2366 40.5974 86.7352 39.2573 85.2687 38.7935C81.2735 37.5306 76.2773 37.4969 76.2773 37.4969Z" fill="#14377D"/>
<path d="M39.3909 37.6552C38.0682 37.9501 34.2719 39.0318 32.6528 39.5884C30.5635 40.3063 27.2502 41.7419 25.0619 42.9019C22.8734 44.0618 20.8584 45.2219 19.0287 46.6212C17.1569 48.0533 15.4061 49.567 14.1204 51.169C13.4479 52.0062 12.5147 53.5681 12.5751 54.9611C12.6493 56.6733 13.9846 57.3184 15.4431 57.8151C15.4431 57.8151 11.7567 57.7861 10.8146 55.244C9.87302 52.7013 15.8184 46.1271 18.2909 44.9871C20.763 43.848 30.7703 39.4647 30.7703 39.4647L39.3909 37.6552Z" fill="#14377D"/>
<path d="M39.4088 37.5952C33.7569 38.3107 31.7641 38.6833 25.9151 40.8353C19.8539 43.0658 16.8557 44.8254 14.0889 46.7268C10.4116 49.254 7.95103 51.9791 8.00074 54.0779C8.05785 56.5078 10.5708 57.8582 15.4313 57.878C12.1674 57.1837 11.475 55.3322 11.8376 53.6421C12.2118 51.8953 14.5734 48.8211 18.3652 46.2784C22.3687 43.5916 24.5166 42.4554 28.3876 40.8771C34.1626 38.5222 39.4088 37.5952 39.4088 37.5952Z" fill="#14377D"/>
<path d="M22.5891 55.7805V37.5541H28.1085V51.5227H34.9697V55.7805H22.5891Z" fill="#14377D"/>
<path d="M47.295 49.0699V45.2478H58.14C58.149 45.3723 58.1559 45.5093 58.1608 45.6588C58.1654 45.8081 58.1677 46.028 58.1677 46.3185C58.1677 49.4559 57.2478 51.8898 55.4079 53.6203C53.5683 55.3508 50.9792 56.216 47.6407 56.216C45.9992 56.216 44.5398 55.9939 43.2626 55.5499C41.9947 55.1117 40.8296 54.419 39.8389 53.5144C38.8862 52.6486 38.1247 51.5935 37.6031 50.4166C37.0815 49.2397 36.8112 47.9669 36.8096 46.6796C36.8096 45.3184 37.0678 44.0673 37.5841 42.9261C38.1005 41.7849 38.8706 40.7577 39.8943 39.8447C40.9166 38.952 42.103 38.267 43.3872 37.8278C44.7565 37.3624 46.1945 37.1309 47.6408 37.1431C49.6234 37.1431 51.3779 37.4958 52.9042 38.2013C54.4336 38.9094 55.7589 39.993 56.7568 41.3511L51.9706 43.4177C51.3986 42.7124 50.7553 42.1875 50.0409 41.8428C49.2904 41.4906 48.4696 41.3139 47.6408 41.3262C45.9899 41.3262 44.6896 41.8221 43.7398 42.814C42.79 43.8058 42.315 45.1607 42.315 46.8787C42.315 48.6136 42.79 49.9789 43.7398 50.9747C44.6896 51.9707 45.9899 52.4687 47.6408 52.4687C49.0424 52.4687 50.2112 52.1595 51.1474 51.5412C52.0834 50.923 52.6298 50.0992 52.7866 49.0699L47.295 49.0699Z" fill="#14377D"/>
<path d="M61.5432 55.7805V37.5541H73.9514V41.5505H66.9242V44.7127H73.5502V48.6219H66.9242V51.697H73.9514V55.7805H61.5432Z" fill="#14377D"/>
</svg>
