<svg width="96" height="96" viewBox="0 0 96 96" fill="none" xmlns="http://www.w3.org/2000/svg">
<circle cx="48" cy="48" r="47" fill="white" stroke="white" stroke-width="2"/>
<g clip-path="url(#clip0_1_5287)">
<path d="M82.8879 32H13.1121C12.5519 32 12.0147 32.2219 11.6186 32.6168C11.2225 33.0117 11 33.5473 11 34.1058V61.8942C11 62.4527 11.2225 62.9883 11.6186 63.3832C12.0147 63.7781 12.5519 64 13.1121 64H82.8879C83.1653 64 83.4399 63.9455 83.6962 63.8397C83.9524 63.7339 84.1853 63.5788 84.3814 63.3832C84.5775 63.1877 84.7331 62.9555 84.8392 62.7C84.9454 62.4445 85 62.1707 85 61.8942V34.1058C85 33.8293 84.9454 33.5555 84.8392 33.3C84.7331 33.0445 84.5775 32.8123 84.3814 32.6168C84.1853 32.4212 83.9524 32.2661 83.6962 32.1603C83.4399 32.0545 83.1653 32 82.8879 32ZM31.0417 58.7328H26.8997L25.1319 44.8938L23.3565 58.7277H19.2222L15.5376 37.2672H19.6693L21.4679 51.6519L23.5029 37.2672H26.7378L28.7934 51.6519L30.5792 37.2672H34.7108L31.0417 58.7328ZM46.5971 40.8384H41.2372V46.021H46.3761V49.5922H41.2372V55.1616H46.5971V58.7328H37.1698V37.2672H46.5971V40.8384ZM57.5789 48.985C58.2799 48.9839 58.9653 48.7793 59.5516 48.3963C60.138 48.0132 60.5997 47.4683 60.8806 46.828L64.1875 48.3958C63.2265 50.3095 61.2866 52.3769 57.584 52.3769C53.1235 52.3769 49.6444 49.2643 49.6444 44.7042C49.6444 40.1441 53.1235 37.034 57.584 37.034C61.2866 37.034 63.206 39.0553 64.1875 41.0126L60.8858 42.5702C60.6049 41.9298 60.1431 41.3849 59.5568 41.0018C58.9705 40.6188 58.285 40.4142 57.584 40.4131C55.2715 40.4131 53.5474 42.2807 53.5474 44.7042C53.5474 47.1277 55.2587 48.985 57.5789 48.985ZM80.1181 46.0696C80.1181 49.7613 77.9983 52.3641 73.2268 52.3641C68.4553 52.3641 66.3073 49.7408 66.3073 46.0901V37.2646H70.2103V45.9595C70.2103 47.7169 71.1456 48.985 73.2217 48.985C75.2978 48.985 76.2099 47.7169 76.2099 45.9595V37.2646H80.1181V46.0696Z" fill="#474747"/>
<path d="M50.0479 55.9738H80.4624V58.7329H50.0479V55.9738Z" fill="#64B4E4"/>
</g>
<defs>
<clipPath id="clip0_1_5287">
<rect width="74" height="32" fill="white" transform="translate(11 32)"/>
</clipPath>
</defs>
</svg>
