<svg width="96" height="96" viewBox="0 0 96 96" fill="none" xmlns="http://www.w3.org/2000/svg">
<circle cx="48" cy="48" r="47" transform="rotate(180 48 48)" fill="white" stroke="white" stroke-width="2"/>
<path d="M72.6108 28.8384L52.4832 17.1757C49.7243 15.6081 46.3384 15.6081 43.6422 17.1757L43.3914 17.3011C43.3286 17.3011 43.2659 17.3638 43.2659 17.3638C42.9524 17.5519 42.7016 17.74 42.4508 17.9908C39.1276 20.6243 37.1838 24.5119 36.933 28.5876L36.8703 41.6924C37.3719 41.567 70.9178 33.2903 72.9243 31.66C73.7395 30.9076 73.6141 29.4654 72.6108 28.8384Z" fill="#185A7D"/>
<path d="M77 36.4883C77 35.297 75.8087 34.4819 74.68 34.8581C72.2346 35.7986 47.8432 60.9424 47.8432 60.9424C52.0443 63.3878 59.1924 67.5262 59.1924 67.5262C62.8919 69.3446 67.2811 69.5954 71.2941 68.0278C71.4822 67.9651 71.6076 67.9024 71.7957 67.8397C71.8584 67.777 71.9211 67.777 72.0465 67.7143C72.1092 67.6516 72.1719 67.6516 72.2346 67.5889L72.4854 67.4635C75.2443 65.8959 76.9373 62.9489 76.9373 59.8138L77 44.9532V44.2008V36.4883ZM36.8076 47.0224C36.8076 47.3359 36.7449 47.5867 36.7449 47.9002C36.1805 52.1013 33.8605 56.1143 29.973 58.4343L20.3168 64.0148L20.2541 63.9521C19.627 62.8235 19.1254 61.444 19 60.1273V52.0386C19 48.4019 19.0627 40.5013 19 36.8019C19 36.3629 19.0627 35.924 19.1254 35.4224C19.3135 34.231 19.6897 33.1024 20.2541 32.0992C20.3795 31.911 20.4422 31.7229 20.5676 31.5975C21.3827 30.3435 22.5114 29.2775 23.8281 28.5251L43.2032 17.364C42.8897 17.5521 42.6389 17.7402 42.3881 17.991C39.0649 20.6246 37.1211 24.5121 36.8703 28.5878L36.8076 47.0224Z" fill="#3AC1CC"/>
<path d="M59.1925 67.526C62.8919 69.3444 67.2811 69.5952 71.2941 68.0276C71.4822 67.9649 71.6076 67.9022 71.7957 67.8395C71.8584 67.7768 71.9211 67.7768 72.0465 67.7141L52.7968 78.7498C52.6087 78.8752 52.4206 79.0006 52.1698 79.0633C51.8563 79.2514 51.48 79.3768 51.1665 79.5022C50.2887 79.8157 49.4109 80.0038 48.4703 80.0038C48.2822 80.0038 48.0314 80.0038 47.8433 80.0038C46.4011 80.0038 44.959 79.6276 43.6422 78.9379C43.5168 78.8752 43.3287 78.8125 43.2033 78.6871C37.56 75.4265 29.2206 70.6611 23.7027 67.3379C23.5146 67.2125 23.3265 67.0871 23.1384 66.9617C22.0098 66.2092 21.0065 65.0806 20.3168 63.9519L29.9103 58.4341C32.0422 57.2427 34.3622 56.6784 36.6195 56.6157C38.8768 56.6157 41.1968 57.2427 43.2033 58.246L44.8336 59.1865C45.2098 59.4373 59.1925 67.526 59.1925 67.526Z" fill="#185A7D"/>
</svg>
