<svg width="96" height="96" viewBox="0 0 96 96" fill="none" xmlns="http://www.w3.org/2000/svg">
<circle cx="48" cy="48" r="47" fill="white" stroke="white" stroke-width="2"/>
<g clip-path="url(#clip0_1_7582)">
<path d="M42.2915 50.0116V49.6085C39.8058 48.8902 37.7654 49.142 37.7745 51.0098C37.7851 53.1701 42.2915 52.9987 42.2915 50.0116ZM65.5119 49.833C65.7113 51.2645 67.3117 52.1313 68.5341 52.1313C69.6489 52.1313 70.3526 51.9222 71.0857 51.3984C71.6956 50.9625 72.514 50.9459 73.1307 51.3724C74.145 52.074 74.1335 53.5714 73.1021 54.2481C71.9727 54.9894 70.3312 55.6667 68.1032 55.6667C64.2609 55.6667 61.1368 52.3765 61.1368 48.3317C61.1368 44.2885 64.2609 41 68.1032 41C71.545 41 74.5096 43.7001 74.998 47.2814C75.0027 47.3179 75.0075 47.3683 75.0122 47.427C75.0538 48.0619 74.831 48.6684 74.3856 49.1317C73.9388 49.5962 73.3015 49.833 72.6539 49.833H65.5119ZM70.7312 47.1043C70.7312 46.5364 70.3196 44.4325 68.0377 44.4325C66.6959 44.4325 65.5086 45.6916 65.5086 47.1043H70.7312ZM40.2594 41C41.9835 41 43.4857 41.4537 44.7242 42.3486C46.8012 43.8491 46.7702 46.1928 46.7586 47.0751C46.7579 47.1298 46.7571 47.1788 46.7571 47.2209V53.3843C46.7571 54.5781 45.7757 55.5494 44.5694 55.5494H44.4898C43.9058 55.5494 43.3566 55.3241 42.9431 54.915C42.7211 54.6954 42.5525 54.435 42.4442 54.1507C41.8236 54.7384 40.5717 55.6667 38.3884 55.6667C35.3436 55.6667 33.3761 53.828 33.3761 50.9828C33.3761 48.603 35.3315 46.8831 38.3576 46.6011C40.0877 46.4404 41.586 46.7706 42.3022 46.973L42.3021 46.8072C42.3021 44.284 39.2926 44.5747 37.0251 45.0936C34.3884 45.6992 33.5975 42.351 35.8599 41.6519C36.8421 41.3485 38.2298 41 40.2594 41ZM21.2558 41H25.4535C29.482 41 32.8133 44.1257 32.8793 47.9679C32.9123 49.8852 32.1674 51.6934 30.7821 53.0593C29.3962 54.4254 27.5446 55.1778 25.5683 55.1778H21.2558C20.012 55.1778 19 54.1968 19 52.9908V43.187C19 41.981 20.012 41 21.2558 41ZM23.3947 51.8689H24.5897C27.1401 51.8689 28.4858 50.1764 28.4858 48.0889C28.4858 46.0012 27.165 44.309 24.5897 44.309H23.3947V51.8689ZM54.1966 49.8351L56.8638 42.4525C57.1787 41.5809 58.0064 41 58.9336 41C60.5392 41 61.6041 42.6631 60.9321 44.1206L56.1964 54.3872C55.8366 55.167 55.0558 55.6667 54.1966 55.6667C53.3373 55.6667 52.5565 55.167 52.1967 54.3872L47.4612 44.1206C46.7889 42.6631 47.8539 41 49.4596 41C50.3867 41 51.2143 41.5809 51.5293 42.4525L54.1966 49.8351ZM77 42.4667C77 42.8787 76.858 43.2247 76.5697 43.509C76.2815 43.7933 75.9264 43.9333 75.5128 43.9333C75.0951 43.9333 74.7442 43.7933 74.4559 43.509C74.1677 43.2247 74.0256 42.8787 74.0256 42.4667C74.0256 42.0547 74.1677 41.7086 74.4559 41.4243C74.7442 41.1401 75.0951 41 75.5128 41C75.9264 41 76.2815 41.1401 76.5697 41.4243C76.858 41.7086 77 42.0547 77 42.4667ZM76.8037 42.4667C76.8037 42.1165 76.6783 41.8157 76.4235 41.5685C76.1729 41.3172 75.8679 41.1936 75.5128 41.1936C75.1577 41.1936 74.8528 41.3172 74.6021 41.5685C74.3473 41.8157 74.222 42.1165 74.222 42.4667C74.222 42.8169 74.3473 43.1176 74.6021 43.3648C74.8528 43.6161 75.1577 43.7397 75.5128 43.7397C75.8679 43.7397 76.1729 43.6161 76.4277 43.3648C76.6783 43.1176 76.8037 42.8169 76.8037 42.4667ZM75.7217 42.582L76.1854 43.3154H75.8637L75.4502 42.6109H75.2371V43.3154H74.9697V41.618L75.563 41.6221C75.7133 41.6221 75.8387 41.6674 75.9431 41.7539C76.0475 41.8404 76.1018 41.9599 76.1018 42.1124C76.1018 42.2566 76.0642 42.3637 75.9849 42.4378C75.9097 42.512 75.822 42.5614 75.7217 42.582ZM75.8261 42.1165C75.8261 41.9311 75.705 41.8404 75.4669 41.8404H75.2371V42.3925H75.4669C75.705 42.3925 75.8261 42.3019 75.8261 42.1165Z" fill="#008732"/>
</g>
<defs>
<clipPath id="clip0_1_7582">
<rect width="58" height="14.6667" fill="white" transform="translate(19 41)"/>
</clipPath>
</defs>
</svg>
