<svg width="96" height="96" viewBox="0 0 96 96" fill="none" xmlns="http://www.w3.org/2000/svg">
<circle cx="48" cy="48" r="47" fill="white" stroke="white" stroke-width="2"/>
<g clip-path="url(#clip0_1_5350)">
<path d="M21.3247 51.0351V50.8946C21.5565 50.8332 21.7159 50.6694 21.8028 50.4061C21.8955 50.1429 21.9332 49.5373 21.9332 48.5896V45.0383C21.9332 44.7985 21.8955 44.6112 21.8173 44.4855C21.7391 44.3538 21.6087 44.2602 21.4261 44.2046V44.0584C21.4348 44.0584 21.458 44.0584 21.4725 44.0584C22.0723 44.073 22.5185 44.073 22.8199 44.073H26.3898L26.8679 45.8603L26.7433 45.8983C26.3898 45.4011 25.9812 45.0354 25.5205 44.8043C25.0598 44.5644 24.5266 44.4387 23.921 44.4387C23.7819 44.4387 23.6747 44.4387 23.6052 44.4474C23.5443 44.4474 23.4748 44.4562 23.4197 44.4621V47.1357C23.5124 47.1445 23.6052 47.1503 23.6979 47.1503C23.7906 47.1503 23.8746 47.1591 23.9761 47.1591C24.4774 47.1591 24.9004 47.0597 25.2221 46.8549C25.5524 46.6443 25.761 46.3664 25.8537 46.0007H25.9783V48.6568H25.8537C25.761 48.2766 25.5466 47.9899 25.2221 47.7939C24.8975 47.5921 24.4745 47.4897 23.9529 47.4897C23.8138 47.4897 23.7066 47.4897 23.6283 47.4984C23.5501 47.4984 23.4835 47.5072 23.4197 47.5131V48.4755C23.4197 49.4467 23.4806 50.0434 23.611 50.2774C23.7327 50.5027 24.0021 50.6197 24.4194 50.6197C24.9352 50.6197 25.4133 50.4646 25.8595 50.137C26.3058 49.8182 26.7201 49.3296 27.1229 48.6773L27.2678 48.7387L26.7201 50.9912H23.156C23.0952 50.9912 23.0024 50.9912 22.8721 50.9912C22.7417 50.9824 22.6489 50.9824 22.5794 50.9824C22.3563 50.9824 22.1332 50.9912 21.9332 50.9912C21.7188 51.0058 21.5188 51.0204 21.3247 51.0351Z" fill="#A90533"/>
<path d="M30.2257 47.9511C30.2023 47.9511 30.1789 47.9511 30.1467 47.9424C30.1145 47.9424 30.0765 47.9424 30.0238 47.9424C29.5588 47.9424 29.199 48.074 28.9533 48.3373C28.7047 48.6006 28.5819 48.9809 28.5819 49.4783C28.5819 49.8586 28.6433 50.1628 28.7749 50.3881C28.9066 50.6134 29.085 50.7304 29.3043 50.7304C29.6319 50.7304 29.863 50.5432 30.0121 50.157C30.1525 49.7767 30.2286 49.1535 30.2286 48.2846V47.9511H30.2257ZM32.0917 50.903V51.0815C31.7963 51.0727 31.5799 51.0727 31.4307 51.0668C31.2845 51.0668 31.1441 51.0581 31.0183 51.0581H30.6381C30.5679 50.9264 30.5064 50.786 30.4596 50.6397C30.4041 50.4993 30.366 50.3442 30.328 50.1892C30.1642 50.5402 29.9712 50.8035 29.746 50.9586C29.512 51.1224 29.2341 51.2073 28.8919 51.2073C28.3625 51.2073 27.9355 51.0434 27.6021 50.7246C27.2686 50.4057 27.0961 49.9932 27.0961 49.5046C27.0961 48.9136 27.3593 48.4631 27.8741 48.1618C28.3947 47.8517 29.1698 47.6791 30.2286 47.6322V47.5854C30.2286 46.9652 30.135 46.4913 29.9653 46.1724C29.7869 45.8447 29.5295 45.6838 29.1961 45.6838C28.8539 45.6838 28.576 45.8243 28.3655 46.111C28.1549 46.3918 27.9764 46.857 27.8448 47.4947H27.722L27.3184 45.9091C27.6459 45.716 27.9706 45.5756 28.3128 45.4907C28.655 45.3971 29.0031 45.3503 29.3687 45.3503C29.7723 45.3503 30.1291 45.4059 30.4333 45.5288C30.7375 45.6546 30.9773 45.833 31.147 46.0641C31.2786 46.2426 31.381 46.4532 31.4336 46.7019C31.4892 46.9418 31.5184 47.3865 31.5184 48.0301V48.5187C31.5184 49.4344 31.5565 50.0488 31.6442 50.353C31.7261 50.6543 31.8723 50.8416 32.0917 50.903Z" fill="#A90533"/>
<path d="M32.0053 50.6111L32.4905 48.8487L32.6154 48.8721C32.7084 49.5238 32.8711 50.0119 33.1238 50.3539C33.3708 50.687 33.6787 50.8595 34.0651 50.8595C34.3673 50.8595 34.6142 50.7601 34.7972 50.5643C34.989 50.3626 35.0907 50.1142 35.0907 49.8103C35.0907 49.5618 35.0209 49.3748 34.8902 49.2374C34.7508 49.1059 34.4428 48.9568 33.9489 48.8107C33.2923 48.6003 32.8536 48.384 32.6445 48.1443C32.4295 47.9105 32.3191 47.5715 32.3191 47.136C32.3191 46.607 32.5108 46.1803 32.9059 45.8472C33.2981 45.5198 33.8153 45.3503 34.4486 45.3503C34.7653 45.3503 35.0645 45.3883 35.358 45.4672C35.6514 45.552 35.9303 45.6689 36.1976 45.8238L35.8054 47.2763L35.6892 47.2617C35.5729 46.7561 35.3957 46.3615 35.1575 46.081C34.9251 45.8004 34.6549 45.663 34.3469 45.663C34.1087 45.663 33.9082 45.7566 33.7368 45.9348C33.5741 46.1219 33.4899 46.3382 33.4899 46.5954C33.4899 47.0221 33.8298 47.326 34.5009 47.5043C34.6258 47.5423 34.7246 47.5657 34.7856 47.5832C35.4015 47.7527 35.8286 47.9631 36.0581 48.2116C36.2818 48.46 36.398 48.8019 36.398 49.252C36.398 49.857 36.1889 50.3305 35.7647 50.687C35.3405 51.0378 34.7624 51.2073 34.0303 51.2073C33.6671 51.2073 33.3214 51.1605 32.9728 51.0524C32.6299 50.953 32.3045 50.8069 32.0053 50.6111Z" fill="#A90533"/>
<path d="M38.4279 48.4417C38.4279 49.3893 38.4738 50.0181 38.5571 50.3282C38.6346 50.6354 38.7867 50.8353 39.0078 50.9135V51.0353H39.0394C38.7035 51.0266 38.2011 51.0208 37.5292 51.0121C37.4144 50.9512 37.3311 50.8034 37.2766 50.5803C37.2306 50.3572 37.2077 49.9573 37.2077 49.3632V48.6011L37.222 46.0394H36.7426L36.7885 45.7322C37.1474 45.5004 37.4517 45.2396 37.7044 44.9411C37.9484 44.634 38.1609 44.2862 38.336 43.8863H38.4738C38.4594 44.0631 38.4422 44.2717 38.4422 44.4949C38.4336 44.7267 38.4279 44.9643 38.4279 45.2338V45.596H39.4126L39.3121 46.0423H38.4279V48.4417Z" fill="#A90533"/>
<path d="M51.9877 46.0679L52.3798 44.1447H57.8028L58.1892 46.0679L58.0962 46.1056C57.7883 45.5987 57.4717 45.2048 57.1406 44.9209C56.8152 44.6371 56.5161 44.4894 56.2546 44.4894C56.0862 44.4894 55.97 44.5502 55.909 44.6748C55.848 44.7993 55.816 45.1295 55.816 45.6682V48.6139C55.816 49.5378 55.8625 50.1287 55.9555 50.3894C56.0397 50.6587 56.2111 50.8267 56.4638 50.8962L56.4551 51.0353C56.2634 51.0208 56.0687 51.0121 55.8625 51.0034C55.6621 51.0034 55.392 50.9947 55.0521 50.9947C54.7268 50.9947 54.4741 51.0034 54.2882 51.0034C54.0965 51.0121 53.9106 51.0179 53.7247 51.0353V50.8962C53.9716 50.8267 54.1342 50.6732 54.2272 50.4183C54.3114 50.1634 54.3579 49.5581 54.3579 48.611V45.6682C54.3579 45.1295 54.3259 44.7993 54.2649 44.6748C54.2039 44.5531 54.0878 44.4894 53.9251 44.4894C53.655 44.4894 53.3616 44.6342 53.0304 44.9209C52.708 45.2048 52.3914 45.5987 52.0806 46.1056L51.9877 46.0679Z" fill="#A90533"/>
<path d="M60.9628 47.2344C60.9483 46.7517 60.8704 46.3801 60.7261 46.0993C60.5731 45.8272 60.3825 45.6868 60.1371 45.6868C59.9004 45.6868 59.7012 45.8184 59.5396 46.0905C59.3721 46.3538 59.2624 46.7341 59.2163 47.2314H60.9628V47.2344ZM62.4264 47.6147H59.1989V47.6527C59.1903 47.8634 59.1845 48.0243 59.1845 48.1267C59.1845 48.9341 59.3144 49.5631 59.5742 50.0136C59.8427 50.4642 60.2035 50.6894 60.6625 50.6894C61.0465 50.6894 61.3756 50.5256 61.6527 50.1921C61.9212 49.8586 62.129 49.37 62.2647 48.7235L62.4957 48.9868C62.3196 49.724 62.0424 50.2769 61.6614 50.6485C61.2861 51.02 60.804 51.2073 60.2122 51.2073C59.4847 51.2073 58.8929 50.9264 58.4397 50.3852C57.9865 49.8323 57.7584 49.1272 57.7584 48.2554C57.7584 47.4011 57.9807 46.7019 58.4339 46.1578C58.8872 45.6136 59.4616 45.3503 60.1747 45.3503C60.8098 45.3503 61.3236 45.5434 61.7162 45.9325C62.106 46.3333 62.3427 46.8921 62.4264 47.6147Z" fill="#A90533"/>
<path d="M65.3565 46.4369C65.4033 46.3586 65.4355 46.2832 65.4589 46.2049C65.4823 46.1353 65.4969 46.0658 65.4969 45.9904C65.4969 45.8889 65.4647 45.799 65.4033 45.7207C65.3477 45.6367 65.2716 45.5903 65.178 45.5671V45.4366C65.4267 45.4511 65.6139 45.4685 65.731 45.4685C65.8538 45.4772 65.965 45.4772 66.0733 45.4772C66.1757 45.4772 66.2898 45.4772 66.4214 45.4685C66.5443 45.4685 66.7257 45.454 66.9656 45.4366V45.5671C66.7637 45.6135 66.5472 45.7526 66.3132 45.9759C66.0791 46.1991 65.8012 46.5528 65.4589 47.0312L65.0552 47.6082L66.2371 49.7943C66.439 50.1712 66.6028 50.4321 66.7432 50.5887C66.8749 50.751 67.0065 50.8496 67.147 50.8902V51.0352C66.9363 51.0207 66.7286 51.012 66.5033 51.0033C66.2868 50.9946 66.044 50.9888 65.7807 50.9888C65.532 50.9888 65.298 50.9975 65.0815 51.0033C64.8562 51.012 64.6543 51.0178 64.4525 51.0352V50.8902C64.5929 50.8438 64.6924 50.7829 64.7567 50.7047C64.8182 50.6264 64.8562 50.5133 64.8562 50.3799C64.8562 50.2495 64.8328 50.119 64.7948 49.9798C64.7626 49.8407 64.7099 49.6957 64.6309 49.5478L64.2652 48.8085L63.8761 49.4782C63.7679 49.6696 63.683 49.8407 63.6275 49.9856C63.5719 50.1306 63.5426 50.2698 63.5426 50.3857C63.5426 50.5104 63.5806 50.6177 63.6509 50.7018C63.7299 50.7858 63.8381 50.8467 63.9698 50.8873V51.0323C63.8235 51.0178 63.6684 51.0091 63.5104 51.0004C63.3466 50.9917 63.1769 50.9859 62.9985 50.9859C62.82 50.9859 62.6503 50.9946 62.5011 51.0004C62.346 51.0091 62.1968 51.0149 62.0652 51.0323V50.8873C62.3226 50.7481 62.5713 50.5394 62.8112 50.264C63.0599 49.9943 63.3876 49.5333 63.7971 48.8868L64.0692 48.4635L63.2149 46.7616C63.0219 46.376 62.858 46.1006 62.7088 45.9382C62.5625 45.7758 62.3987 45.6541 62.2202 45.57V45.4395C62.2436 45.4395 62.2758 45.4395 62.3226 45.4395C62.8902 45.4714 63.3027 45.4772 63.566 45.4772C63.7211 45.4772 63.8849 45.4772 64.0546 45.4685C64.2331 45.4598 64.4496 45.4453 64.707 45.4366V45.5671C64.59 45.6367 64.5051 45.712 64.4496 45.799C64.394 45.8918 64.3706 45.9904 64.3706 46.1151C64.3706 46.1991 64.3852 46.3064 64.4261 46.4224C64.4583 46.547 64.511 46.6688 64.5812 46.7906L64.8533 47.2835L65.3565 46.4369Z" fill="#A90533"/>
<path d="M70.0212 47.9511C69.9978 47.9511 69.9657 47.9511 69.9423 47.9424C69.9101 47.9424 69.8721 47.9424 69.8194 47.9424C69.3544 47.9424 68.9975 48.074 68.7489 48.3373C68.5003 48.6006 68.3775 48.9809 68.3775 49.4783C68.3775 49.8586 68.4389 50.1628 68.5705 50.3881C68.7021 50.6134 68.8806 50.7304 69.0999 50.7304C69.4187 50.7304 69.6586 50.5432 69.799 50.157C69.9452 49.7767 70.0242 49.1535 70.0242 48.2846V47.9511H70.0212ZM71.8844 50.903L71.8756 51.0815C71.589 51.0727 71.3696 51.0727 71.2234 51.0668C71.0771 51.0668 70.9367 51.0581 70.811 51.0581H70.4307C70.3605 50.9264 70.2991 50.786 70.2523 50.6397C70.1967 50.4993 70.1587 50.3442 70.1207 50.1892C69.9569 50.5402 69.7639 50.8035 69.5386 50.9586C69.3047 51.1224 69.0268 51.2073 68.6846 51.2073C68.1552 51.2073 67.7223 51.0434 67.3947 50.7246C67.0613 50.4057 66.8887 49.9932 66.8887 49.5046C66.8887 48.9136 67.1461 48.4631 67.6667 48.1618C68.1786 47.8517 68.9624 47.6791 70.0212 47.6322V47.5854C70.0212 46.9652 69.9276 46.4913 69.758 46.1724C69.5796 45.8447 69.3222 45.6838 68.9888 45.6838C68.6466 45.6838 68.3687 45.8243 68.1581 46.111C67.9475 46.3918 67.7691 46.857 67.6375 47.4947H67.5146L67.111 45.9091C67.4298 45.716 67.7633 45.5756 68.1055 45.4907C68.4389 45.3971 68.7957 45.3503 69.1613 45.3503C69.565 45.3503 69.9218 45.4059 70.226 45.5288C70.5302 45.6546 70.7612 45.833 70.9338 46.0641C71.0742 46.2426 71.1736 46.4532 71.2292 46.7019C71.2848 46.9418 71.314 47.3865 71.314 48.0301V48.5187C71.314 49.4344 71.352 50.0488 71.4398 50.353C71.5188 50.6543 71.6679 50.8416 71.8844 50.903Z" fill="#A90533"/>
<path d="M71.798 50.6111L72.2826 48.8487L72.4044 48.8721C72.4886 49.5238 72.6598 50.0119 72.9064 50.3539C73.153 50.687 73.4692 50.8595 73.8551 50.8595C74.1569 50.8595 74.3948 50.7601 74.5863 50.5643C74.7778 50.3626 74.8706 50.1142 74.8706 49.8103C74.8706 49.5618 74.8097 49.3748 74.6704 49.2374C74.5399 49.1059 74.2323 48.9568 73.7391 48.8107C73.0834 48.6003 72.6452 48.384 72.4305 48.1443C72.2216 47.9105 72.1143 47.5715 72.1143 47.136C72.1143 46.607 72.3058 46.1803 72.7004 45.8472C73.0921 45.5198 73.6085 45.3503 74.241 45.3503C74.5486 45.3503 74.8503 45.3883 75.1433 45.4672C75.4364 45.552 75.7207 45.6689 75.9906 45.8238L75.5989 47.2763L75.4828 47.2617C75.3581 46.7561 75.1898 46.3615 74.9519 46.081C74.7197 45.8004 74.4499 45.663 74.1424 45.663C73.9044 45.663 73.7043 45.7566 73.5331 45.9348C73.3706 46.1219 73.2865 46.3382 73.2865 46.5954C73.2865 47.0221 73.6172 47.326 74.2961 47.5043C74.418 47.5423 74.5108 47.5657 74.5805 47.5832C75.1956 47.7527 75.6192 47.9631 75.8426 48.2116C76.0747 48.46 76.1908 48.8019 76.1908 49.252C76.1908 49.857 75.9761 50.3305 75.5582 50.687C75.1346 51.0378 74.5573 51.2073 73.8174 51.2073C73.4634 51.2073 73.1153 51.1605 72.77 51.0524C72.4218 50.953 72.0998 50.8069 71.798 50.6111Z" fill="#A90533"/>
<path d="M19.1153 52.4135C19.3794 52.4223 19.6463 52.4223 19.9249 52.4281C20.2063 52.4281 20.5748 52.4281 21.0536 52.4281H21.7355C22.4319 52.4281 22.9629 52.4426 23.3256 52.4892C23.6883 52.527 24.0074 52.5881 24.2802 52.6783C24.6748 52.8063 24.9853 53.0041 25.2116 53.2717C25.4321 53.5365 25.5453 53.8419 25.5453 54.191C25.5453 54.7525 25.2348 55.2005 24.6284 55.535C24.0219 55.8696 23.1979 56.0354 22.1533 56.0354C22.0547 56.0267 21.9328 56.0267 21.8051 56.0208C21.6687 56.0208 21.5179 56.0121 21.3438 56.0063V56.8267C21.3438 57.7139 21.396 58.2987 21.4946 58.5721C21.602 58.8456 21.7819 59.0114 22.0634 59.0812V59.218C21.8515 59.2092 21.631 59.1947 21.4134 59.1947C21.1784 59.1859 20.8766 59.186 20.4907 59.186C20.128 59.186 19.832 59.1859 19.6202 59.1947C19.3997 59.1947 19.1966 59.2092 18.9993 59.218V59.0812C19.272 59.0201 19.4548 58.8601 19.5535 58.6099C19.6521 58.351 19.6986 57.7518 19.6986 56.8267V53.3648C19.6986 53.1292 19.6521 52.9488 19.5709 52.8266C19.4809 52.6986 19.3271 52.6055 19.1153 52.5532V52.4135ZM21.3409 55.6019C21.4395 55.6252 21.5382 55.6397 21.6281 55.6485C21.7181 55.663 21.8167 55.663 21.9241 55.663C22.4841 55.663 22.9164 55.5408 23.2182 55.2848C23.52 55.0259 23.665 54.671 23.665 54.191C23.665 53.711 23.5142 53.3648 23.195 53.1292C22.8845 52.9023 22.4086 52.7888 21.7645 52.7888C21.6978 52.7888 21.5817 52.7975 21.425 52.8034C21.396 52.8034 21.3641 52.8034 21.3409 52.8121V55.6019Z" fill="#A90533"/>
<path d="M25.3731 59.2148V59.0929C25.6198 59.0029 25.7784 58.8491 25.8724 58.6227C25.9635 58.4022 26.0104 57.9175 26.0104 57.1832V56.7507V55.3054C26.0104 54.8584 25.9723 54.5856 25.8959 54.4637C25.8195 54.3418 25.6727 54.2751 25.4524 54.2518V54.1299C25.8959 54.069 26.2807 54.0081 26.6096 53.9471C26.9385 53.8862 27.2234 53.8194 27.4437 53.7497V55.021C27.6434 54.5595 27.8872 54.2112 28.1721 53.9761C28.457 53.741 28.7771 53.6191 29.1443 53.6191C29.1913 53.6191 29.2353 53.6191 29.2588 53.6191C29.2882 53.6191 29.3117 53.6278 29.3352 53.6278L28.7918 55.3228H28.6685C28.6156 55.2531 28.5539 55.2009 28.4922 55.1632C28.4247 55.1254 28.3454 55.1109 28.269 55.1109C27.9929 55.1109 27.7932 55.2386 27.6493 55.4969C27.5113 55.7552 27.4437 56.118 27.4437 56.6027V57.0961C27.4437 57.8913 27.4907 58.4051 27.5818 58.6343C27.6669 58.8694 27.8343 59.0203 28.0811 59.0958L28.0722 59.2177C27.9107 59.209 27.7433 59.1945 27.5436 59.1945C27.3527 59.1858 27.0766 59.1858 26.7095 59.1858C26.3805 59.1858 26.1103 59.1858 25.9194 59.1945C25.7344 59.1916 25.5523 59.209 25.3731 59.2148Z" fill="#A90533"/>
<path d="M32.3008 58.9875C32.7521 58.9875 33.0891 58.7757 33.3265 58.3433C33.5551 57.911 33.6694 57.2842 33.6694 56.4426C33.6694 55.6185 33.5551 54.9975 33.3265 54.5709C33.0891 54.1473 32.7521 53.9354 32.3008 53.9354C31.8642 53.9354 31.5272 54.1473 31.2927 54.5796C31.0641 54.9975 30.9499 55.6243 30.9499 56.4339C30.9499 57.2667 31.0641 57.9022 31.2927 58.3346C31.5213 58.767 31.8583 58.9875 32.3008 58.9875ZM29.3351 56.4716C29.3351 55.6156 29.6106 54.9279 30.1616 54.4055C30.7037 53.8832 31.4246 53.6191 32.3184 53.6191C33.2064 53.6191 33.9155 53.8832 34.4606 54.4055C35.0028 54.9279 35.2782 55.6098 35.2782 56.4571C35.2782 57.3045 35.0028 57.9951 34.4518 58.5174C33.9009 59.0398 33.1829 59.3038 32.2803 59.3038C31.4158 59.3038 30.7125 59.0398 30.1616 58.5C29.6106 57.9719 29.3351 57.29 29.3351 56.4716Z" fill="#A90533"/>
<path d="M37.4532 56.7453V57.0868C37.4532 57.8866 37.5002 58.4033 37.5912 58.6398C37.6764 58.8821 37.8437 59.0368 38.0904 59.1039L38.0816 59.2178C37.9201 59.209 37.7527 59.1944 37.5531 59.1944C37.3622 59.1857 37.0862 59.1857 36.7191 59.1857C36.3903 59.1857 36.1201 59.1857 35.9293 59.1944C35.7443 59.1944 35.5622 59.209 35.3861 59.2178V59.1039C35.6239 59.028 35.7854 58.8762 35.8764 58.6456C35.9674 58.4238 36.0144 57.9596 36.0144 57.2678V56.7423V54.3428H35.1923L35.2069 54.2961L35.3978 53.8611H36.0262C36.0497 53.07 36.2493 52.4891 36.6017 52.1155C36.9629 51.7418 37.5061 51.5521 38.2401 51.5521C38.3782 51.5521 38.525 51.5608 38.663 51.5754C38.801 51.5988 38.939 51.6134 39.0682 51.6513L38.5485 53.1138H38.4251C38.3018 52.6117 38.202 52.2906 38.1256 52.168C38.0493 52.0396 37.9583 51.9695 37.8408 51.9695C37.694 51.9695 37.5883 52.0542 37.5354 52.2118C37.4738 52.3723 37.4503 52.6847 37.4503 53.1401V53.8553H38.4457V53.9166L38.2607 54.3369H37.4532V56.7453Z" fill="#A90533"/>
<path d="M42.3016 55.4388C42.2928 54.9788 42.194 54.6172 42.0282 54.3453C41.8625 54.082 41.6327 53.946 41.3594 53.946C41.086 53.946 40.8505 54.0733 40.6702 54.3395C40.4812 54.6028 40.359 54.9673 40.298 55.4417H42.3016V55.4388ZM43.9795 55.8091H40.2922L40.2834 55.8467C40.2747 56.0579 40.2689 56.2084 40.2689 56.3154C40.2689 57.0936 40.4201 57.704 40.7167 58.1409C41.0192 58.5777 41.4292 58.8062 41.9613 58.8062C42.4092 58.8062 42.7814 58.6413 43.0925 58.3144C43.4037 57.9904 43.6392 57.5131 43.7992 56.8882L44.0638 57.1457C43.8603 57.8631 43.5404 58.407 43.1071 58.76C42.6738 59.1216 42.1213 59.3038 41.4466 59.3038C40.6208 59.3038 39.9374 59.0406 39.4198 58.5025C38.8963 57.9731 38.6375 57.2788 38.6375 56.434C38.6375 55.6037 38.8963 54.9326 39.4052 54.4118C39.9199 53.8824 40.5888 53.6191 41.4001 53.6191C42.1271 53.6191 42.7203 53.8072 43.1682 54.1919C43.616 54.5709 43.8893 55.1061 43.9795 55.8091Z" fill="#A90533"/>
<path d="M44.2362 58.7281L44.7838 57.0213L44.9178 57.0386C45.0256 57.6722 45.2149 58.1495 45.4946 58.4793C45.7771 58.8034 46.1412 58.9711 46.5753 58.9711C46.9161 58.9711 47.1986 58.8815 47.4113 58.6847C47.6327 58.4967 47.7463 58.2537 47.7463 57.9528C47.7463 57.7185 47.6705 57.5304 47.5103 57.4032C47.3588 57.2672 47.0006 57.1312 46.4384 56.9808C45.6927 56.7841 45.2004 56.5642 44.9557 56.3385C44.7052 56.1042 44.5828 55.7715 44.5828 55.3491C44.5828 54.8429 44.81 54.435 45.2586 54.1109C45.7072 53.7869 46.2927 53.6191 47.0151 53.6191C47.3734 53.6191 47.7142 53.6567 48.0405 53.7406C48.3755 53.8159 48.693 53.9287 49.0046 54.0791L48.5473 55.4822L48.4191 55.4735C48.2822 54.9759 48.0842 54.6056 47.8191 54.3337C47.5598 54.0618 47.2482 53.9258 46.8986 53.9258C46.6248 53.9258 46.3976 54.0097 46.2082 54.1891C46.0189 54.3626 45.9257 54.5738 45.9257 54.8168C45.9257 55.2392 46.3044 55.5343 47.0734 55.7079C47.219 55.7368 47.3239 55.7599 47.3996 55.7831C48.0987 55.948 48.5764 56.1534 48.8357 56.3877C49.0949 56.6278 49.2318 56.9692 49.2318 57.4003C49.2318 57.9904 48.9901 58.4562 48.5094 58.7976C48.0317 59.136 47.3763 59.3038 46.5345 59.3038C46.1238 59.3038 45.7276 59.2575 45.3344 59.1592C44.9411 59.0608 44.577 58.9162 44.2362 58.7281Z" fill="#A90533"/>
<path d="M49.4902 58.731L50.0365 57.0242L50.1731 57.0386C50.2806 57.6722 50.4695 58.1495 50.7485 58.4793C51.0362 58.8034 51.3937 58.9711 51.8238 58.9711C52.1638 58.9711 52.4457 58.8815 52.6666 58.6847C52.8787 58.4967 52.9921 58.2537 52.9921 57.9528C52.9921 57.7185 52.9165 57.5304 52.7567 57.4032C52.6055 57.2672 52.2481 57.1312 51.6872 56.9808C50.9432 56.7841 50.4521 56.5642 50.208 56.3385C49.9581 56.1042 49.836 55.7715 49.836 55.3491C49.836 54.8429 50.0627 54.435 50.5102 54.1109C50.9578 53.7869 51.5419 53.6191 52.2626 53.6191C52.6201 53.6191 52.9601 53.6567 53.2943 53.7406C53.6285 53.8159 53.9453 53.9287 54.2562 54.0791L53.8 55.4822L53.6721 55.4735C53.5355 54.9759 53.3379 54.6056 53.0734 54.3337C52.809 54.0618 52.498 53.9258 52.1493 53.9258C51.8761 53.9258 51.6494 54.0097 51.4605 54.1891C51.2716 54.3626 51.1786 54.5738 51.1786 54.8168C51.1786 55.2392 51.5564 55.5343 52.3237 55.7079C52.469 55.7368 52.5736 55.7599 52.6491 55.7831C53.3553 55.948 53.8319 56.1534 54.0906 56.3877C54.355 56.6278 54.4858 56.9692 54.4858 57.4003C54.4858 57.9904 54.2446 58.4562 53.7651 58.7976C53.2885 59.136 52.6288 59.3038 51.786 59.3038C51.3763 59.3038 50.981 59.2575 50.5887 59.1592C50.1964 59.0637 49.8331 58.9191 49.4902 58.731Z" fill="#A90533"/>
<path d="M55.2087 52.3899C55.2087 52.1534 55.2753 51.9549 55.429 51.7944C55.574 51.6338 55.7537 51.5521 55.974 51.5521C56.1944 51.5521 56.3741 51.6367 56.5191 51.7944C56.664 51.9549 56.7394 52.1534 56.7394 52.3899C56.7394 52.6322 56.664 52.8307 56.5191 52.9912C56.3741 53.1518 56.1944 53.2335 55.974 53.2335C55.7479 53.2335 55.5653 53.1488 55.4232 52.997C55.2782 52.8394 55.2087 52.6409 55.2087 52.3899ZM56.7307 53.7327C56.722 53.9545 56.7162 54.191 56.7075 54.4479C56.6988 54.7135 56.6988 55.1105 56.6988 55.6447V57.0926C56.6988 57.8837 56.7452 58.4033 56.8351 58.631C56.9249 58.8675 57.0844 59.0193 57.3279 59.0952V59.2178C57.1685 59.209 56.9945 59.1944 56.8061 59.1944C56.6176 59.1857 56.3364 59.1857 55.974 59.1857C55.6493 59.1857 55.3913 59.1857 55.2029 59.1944C55.0144 59.1944 54.8318 59.209 54.6578 59.2178V59.0952C54.9014 59.0047 55.0579 58.85 55.1507 58.6223C55.2406 58.3946 55.2869 57.9129 55.2869 57.1744V56.7394V55.2857C55.2869 54.8361 55.2493 54.5617 55.1739 54.4391C55.0985 54.3165 54.9535 54.2494 54.7361 54.226V54.1034C55.1594 54.0421 55.5392 53.9808 55.8552 53.9283C56.177 53.867 56.4727 53.7998 56.7307 53.7327Z" fill="#A90533"/>
<path d="M60.3844 58.9875C60.8359 58.9875 61.1789 58.7757 61.4106 58.3433C61.6393 57.911 61.7536 57.2842 61.7536 56.4426C61.7536 55.6185 61.6393 54.9975 61.4106 54.5709C61.1819 54.1473 60.8359 53.9354 60.3844 53.9354C59.9475 53.9354 59.6103 54.1473 59.3817 54.5796C59.153 54.9975 59.0298 55.6243 59.0298 56.4339C59.0298 57.2667 59.1442 57.9022 59.3729 58.3346C59.6103 58.767 59.9387 58.9875 60.3844 58.9875ZM57.4143 56.4716C57.4143 55.6156 57.6899 54.9279 58.2411 54.4055C58.7835 53.8832 59.5107 53.6191 60.4049 53.6191C61.2845 53.6191 61.997 53.8832 62.5394 54.4055C63.0906 54.9279 63.3574 55.6098 63.3574 56.4571C63.3574 57.3045 63.0818 57.9951 62.5394 58.5174C61.9882 59.0398 61.261 59.3038 60.3668 59.3038C59.496 59.3038 58.7923 59.0398 58.2411 58.5C57.6899 57.9719 57.4143 57.29 57.4143 56.4716Z" fill="#A90533"/>
<path d="M63.4522 59.2148L63.4435 59.1014C63.6875 59.0171 63.8531 58.8602 63.9432 58.616C64.0332 58.3718 64.0797 57.866 64.0797 57.0841V56.7498V55.3022C64.0797 54.8545 64.0419 54.5813 63.9664 54.4592C63.8909 54.3313 63.7456 54.2616 63.5335 54.247V54.1337C63.9054 54.0871 64.2453 54.0348 64.5648 53.968C64.8757 53.9069 65.1575 53.8401 65.4131 53.7558V54.9388C65.5787 54.4999 65.814 54.1714 66.1016 53.9534C66.3979 53.7325 66.7524 53.6191 67.1852 53.6191C67.8592 53.6191 68.3589 53.8313 68.6872 54.2499C69.0125 54.6743 69.181 55.3051 69.181 56.1684V57.087C69.181 57.8835 69.2275 58.3922 69.3176 58.6334C69.4076 58.8747 69.5761 59.0288 69.8172 59.1043V59.2177C69.6575 59.209 69.4831 59.1944 69.2943 59.1944C69.1055 59.1857 68.8237 59.1857 68.4606 59.1857C68.1265 59.1857 67.8679 59.1857 67.6791 59.1944C67.4815 59.1944 67.3072 59.209 67.1329 59.2177V59.1043C67.3682 59.02 67.5338 58.8689 67.6268 58.6421C67.7169 58.4154 67.7633 57.9532 67.7633 57.2527V56.7527V56.2644C67.7633 55.5435 67.6791 55.0202 67.5193 54.7005C67.3537 54.3807 67.0865 54.215 66.7233 54.215C66.3515 54.215 66.0551 54.3982 65.8286 54.7761C65.602 55.1394 65.4887 55.6394 65.4887 56.2615V56.9882C65.4887 57.837 65.5351 58.3834 65.6252 58.6276C65.7153 58.8631 65.8838 59.0229 66.1249 59.0985V59.2119C65.9651 59.2032 65.7908 59.1886 65.602 59.1886C65.4131 59.1799 65.14 59.1799 64.7769 59.1799C64.4428 59.1799 64.1785 59.1799 63.9896 59.1886C63.8008 59.1915 63.6178 59.209 63.4522 59.2148Z" fill="#A90533"/>
<path d="M73.2846 56.1476C73.2612 56.1389 73.2319 56.1389 73.1997 56.1389C73.1705 56.1389 73.1236 56.1302 73.0622 56.1302C72.5265 56.1302 72.1225 56.2575 71.8386 56.515C71.5546 56.7725 71.4112 57.1428 71.4112 57.6259C71.4112 57.9962 71.4873 58.2913 71.6395 58.5083C71.7859 58.7339 71.982 58.841 72.2367 58.841C72.6026 58.841 72.8719 58.6587 73.0387 58.2884C73.2056 57.9123 73.2846 57.3077 73.2846 56.4687V56.1476ZM75.4157 59.0088L75.4069 59.191C75.0702 59.1823 74.8273 59.1765 74.6575 59.1765C74.4906 59.1679 74.3355 59.1679 74.1921 59.1679H73.7559C73.671 59.0319 73.6037 58.8959 73.551 58.76C73.4983 58.6153 73.4427 58.4736 73.4046 58.3144C73.2202 58.6616 73.0007 58.9104 72.7402 59.0695C72.4738 59.2286 72.1518 59.3038 71.7712 59.3038C71.1682 59.3038 70.6794 59.1447 70.2959 58.8352C69.9212 58.5256 69.731 58.1322 69.731 57.6491C69.731 57.0762 70.0208 56.6452 70.6091 56.3443C71.1975 56.0492 72.0903 55.8757 73.2817 55.8381V55.7918C73.2817 55.1871 73.1822 54.7358 72.9831 54.4176C72.7841 54.0994 72.4943 53.9432 72.1049 53.9432C71.7215 53.9432 71.4024 54.0791 71.1653 54.3597C70.9223 54.6404 70.7233 55.0772 70.5681 55.7021H70.4306L69.971 54.163C70.3369 53.9808 70.7116 53.8448 71.1009 53.7551C71.4814 53.6654 71.8883 53.6191 72.3011 53.6191C72.7665 53.6191 73.1705 53.6799 73.5159 53.8014C73.8584 53.9142 74.1277 54.0878 74.3267 54.3221C74.4789 54.487 74.5931 54.6982 74.6546 54.9268C74.716 55.1698 74.7453 55.5979 74.7453 56.217V56.7002C74.7453 57.5912 74.798 58.1785 74.8917 58.4735C74.9971 58.7744 75.1639 58.948 75.4157 59.0088Z" fill="#A90533"/>
<path d="M75.9559 53.1045C75.9559 52.6543 75.9182 52.3707 75.8428 52.2508C75.7674 52.128 75.6225 52.0608 75.405 52.0374V51.9234C75.7906 51.8766 76.1472 51.8152 76.4806 51.7567C76.814 51.6895 77.1242 51.6281 77.4025 51.5521C77.388 51.7567 77.3793 52.0257 77.3735 52.3444C77.3735 52.666 77.3735 53.0373 77.3735 53.467V57.0894C77.3735 57.8817 77.4112 58.4021 77.5011 58.6301C77.591 58.867 77.7591 59.019 77.9997 59.095L77.991 59.2178C77.8316 59.209 77.6576 59.1944 77.4692 59.1944C77.2808 59.1856 76.9995 59.1856 76.6372 59.1856C76.3125 59.1856 76.0544 59.1856 75.866 59.1944C75.6775 59.1944 75.4949 59.209 75.3297 59.2178V59.095C75.5645 59.0044 75.7297 58.8494 75.8225 58.6214C75.9124 58.3992 75.9588 57.9109 75.9588 57.1713V56.7356V53.1045H75.9559Z" fill="#A90533"/>
<path d="M19.344 64.4716V60.165H77.569V64.4716" fill="#A90533"/>
<path d="M36.8534 62.3202C36.8534 62.5118 36.8621 62.6663 36.8679 62.7836C36.8824 62.9094 36.8969 62.9952 36.9114 63.0467C36.955 63.1554 37.0246 63.2383 37.1059 63.2955C37.1958 63.347 37.3061 63.3756 37.4425 63.3756C37.6515 63.3756 37.8082 63.3098 37.9185 63.1782C38.0317 63.0467 38.0839 62.8551 38.0839 62.6062V62.283C38.0839 61.9227 38.0607 61.6796 38.0172 61.5709C37.9649 61.4593 37.875 61.3793 37.7415 61.3278V61.2849C37.8227 61.2935 37.8982 61.2935 37.9562 61.2935C38.023 61.302 38.0752 61.302 38.1187 61.302C38.1797 61.302 38.2464 61.302 38.319 61.2935C38.3857 61.2935 38.467 61.2935 38.5424 61.2849L38.5512 61.3278C38.4177 61.3707 38.3277 61.4536 38.2754 61.5709C38.2232 61.6796 38.2 61.917 38.2 62.283V62.5833C38.2 62.9065 38.1245 63.1411 37.9765 63.2955C37.8198 63.4499 37.5876 63.5243 37.2771 63.5243C37.0972 63.5243 36.9492 63.51 36.8302 63.4642C36.7025 63.4271 36.598 63.3699 36.5167 63.2955C36.45 63.2211 36.3891 63.1353 36.36 63.0324C36.331 62.9294 36.3165 62.775 36.3165 62.5776C36.3165 62.4975 36.3165 62.4003 36.3252 62.2916C36.3252 62.1887 36.3252 62.1143 36.3252 62.0857V61.5938C36.3252 61.5194 36.3107 61.4622 36.2817 61.4164C36.2526 61.3793 36.2062 61.3507 36.1395 61.3278V61.2849C36.2062 61.2935 36.2817 61.2935 36.3484 61.2935C36.4239 61.302 36.4964 61.302 36.5806 61.302C36.6619 61.302 36.7373 61.302 36.8186 61.2935C36.894 61.2935 36.9666 61.2935 37.0507 61.2849V61.3278C36.984 61.3421 36.9318 61.3707 36.9027 61.4079C36.8737 61.4508 36.8592 61.5108 36.8592 61.5909V62.3202H36.8534Z" fill="white" stroke="white" stroke-width="0.0474801"/>
<path d="M45.9439 63.4892C46.0263 63.4746 46.0881 63.422 46.1176 63.3314C46.147 63.2407 46.1617 63.0448 46.1617 62.7379V62.5274L45.6937 61.7848C45.5965 61.6211 45.5112 61.5071 45.4435 61.4398C45.3757 61.3726 45.3228 61.3346 45.2698 61.3258V61.2878C45.3463 61.2966 45.4287 61.2966 45.5053 61.2966C45.5877 61.3053 45.6642 61.3053 45.7408 61.3053C45.8232 61.3053 45.9145 61.3053 45.9969 61.2966C46.0734 61.2966 46.1558 61.2966 46.2383 61.2878V61.3258C46.2 61.3346 46.1706 61.3492 46.1558 61.3697C46.1411 61.3843 46.1264 61.4135 46.1264 61.4515C46.1264 61.4808 46.1352 61.5129 46.15 61.548C46.1647 61.5772 46.1882 61.6152 46.2118 61.6532L46.6504 62.3052L46.9448 61.8257C46.9889 61.7497 47.0213 61.6913 47.0419 61.6299C47.0655 61.5772 47.0713 61.5334 47.0713 61.4954C47.0713 61.4428 47.0566 61.4047 47.0272 61.3755C46.9889 61.3463 46.9448 61.3317 46.8771 61.3229V61.2849C46.9448 61.2937 47.0066 61.2937 47.0655 61.2937C47.1273 61.3024 47.1862 61.3024 47.248 61.3024C47.3098 61.3024 47.3687 61.3024 47.4217 61.2937C47.4835 61.2937 47.5365 61.2937 47.5953 61.2849V61.3229C47.5276 61.3375 47.4511 61.3989 47.3539 61.4954C47.2627 61.586 47.1655 61.7293 47.0507 61.9017L46.6887 62.4718V62.735C46.6887 63.0361 46.7034 63.2378 46.7328 63.3197C46.7711 63.4103 46.8241 63.4629 46.9153 63.4863V63.5243C46.8005 63.5155 46.7034 63.5155 46.621 63.5155C46.5385 63.5155 46.4767 63.5155 46.4237 63.5155C46.3472 63.5155 46.2736 63.5155 46.1882 63.5155C46.1117 63.5155 46.0293 63.5155 45.9468 63.5243V63.4892H45.9439Z" fill="white" stroke="white" stroke-width="0.0474801"/>
<path d="M50.61 63.2164C50.477 63.3209 50.3354 63.3964 50.1793 63.4486C50.0232 63.5009 49.8527 63.5241 49.6677 63.5241C49.5059 63.5241 49.3498 63.5009 49.2081 63.4486C49.0665 63.3964 48.9422 63.3209 48.8295 63.2251C48.7023 63.1118 48.607 62.987 48.5463 62.8447C48.4856 62.7025 48.4567 62.5399 48.4567 62.3454C48.4567 62.0028 48.5694 61.727 48.7977 61.5179C49.0289 61.3002 49.3238 61.1985 49.6966 61.1985C49.8527 61.1985 50.0001 61.2218 50.1417 61.2653C50.2834 61.3031 50.4163 61.3698 50.5493 61.4511L50.3932 61.9795L50.3498 61.9708C50.3209 61.756 50.2544 61.5905 50.1504 61.4773C50.0463 61.3727 49.9134 61.3147 49.7429 61.3147C49.529 61.3147 49.3642 61.4047 49.2457 61.5818C49.1185 61.7618 49.0607 62.0057 49.0607 62.3279C49.0607 62.6705 49.1214 62.9318 49.2457 63.1176C49.3642 63.3122 49.5348 63.4022 49.7515 63.4022C49.9307 63.4022 50.0695 63.3412 50.1822 63.2164C50.2862 63.0973 50.3527 62.9028 50.3961 62.6415L50.4394 62.6328L50.61 63.2164Z" fill="white" stroke="white" stroke-width="0.0474801"/>
<path d="M59.6759 62.7427C59.6759 63.0354 59.6908 63.2316 59.7207 63.3135C59.7595 63.4043 59.8193 63.457 59.9119 63.4804V63.5243C59.8432 63.5155 59.7655 63.5155 59.6908 63.5155C59.6132 63.5155 59.5056 63.5155 59.3772 63.5155C59.2547 63.5155 59.1621 63.5155 59.0844 63.5155C59.0157 63.5155 58.938 63.5155 58.8783 63.5243V63.4804C58.9709 63.457 59.0306 63.4043 59.0635 63.3223C59.1023 63.2404 59.1173 63.0442 59.1173 62.7427V61.601C59.1173 61.5191 59.1023 61.4664 59.0725 61.4195C59.0426 61.3815 58.9948 61.3522 58.9201 61.3288V61.2849C58.9978 61.2937 59.0725 61.2937 59.1501 61.2937C59.2278 61.3024 59.3025 61.3024 59.3802 61.3024C59.4638 61.3024 59.5474 61.3024 59.6341 61.2937C59.7117 61.2937 59.7954 61.2937 59.879 61.2849V61.3288C59.8013 61.3434 59.7565 61.3727 59.7267 61.4195C59.6968 61.4576 59.6819 61.5161 59.6819 61.601V62.7427H59.6759Z" fill="white" stroke="white" stroke-width="0.0474801"/>
<path d="M69.4889 62.7427C69.4889 63.0354 69.5036 63.2316 69.542 63.3135C69.5716 63.4043 69.6395 63.457 69.731 63.4804V63.5243C69.6542 63.5155 69.5863 63.5155 69.5036 63.5155C69.4269 63.5155 69.3294 63.5155 69.1995 63.5155C69.0784 63.5155 68.978 63.5155 68.9101 63.5155C68.8333 63.5155 68.7654 63.5155 68.6974 63.5243V63.4804C68.7949 63.457 68.8569 63.4043 68.8864 63.3223C68.916 63.2404 68.9396 63.0442 68.9396 62.7427V61.601C68.9396 61.5191 68.9248 61.4664 68.8953 61.4195C68.8658 61.3815 68.8126 61.3522 68.7447 61.3288V61.2849C68.8126 61.2937 68.8894 61.2937 68.9632 61.2937C69.04 61.3024 69.1227 61.3024 69.1995 61.3024C69.2822 61.3024 69.3648 61.3024 69.4416 61.2937C69.5243 61.2937 69.607 61.2937 69.6838 61.2849V61.3288C69.6159 61.3434 69.5627 61.3727 69.5332 61.4195C69.5036 61.4576 69.4889 61.5161 69.4889 61.601V62.7427Z" fill="white" stroke="white" stroke-width="0.0474801"/>
<path d="M22.5445 62.4598L22.2776 61.8649L22.0107 62.4598H22.5445ZM21.239 63.438V63.4008C21.3144 63.3636 21.387 63.2893 21.4711 63.1806C21.5523 63.0633 21.651 62.8946 21.7612 62.6743L22.4691 61.1985H22.4923L23.2291 62.66C23.3858 62.9603 23.496 63.1605 23.5657 63.2463C23.6266 63.3407 23.6846 63.3865 23.7368 63.4008V63.438C23.6846 63.4294 23.6179 63.4294 23.557 63.4294C23.4902 63.4294 23.409 63.4294 23.3046 63.4294C23.1711 63.4294 23.0667 63.4294 22.9768 63.4294C22.8868 63.4294 22.8056 63.4294 22.7157 63.438V63.4008C22.7679 63.3922 22.8056 63.3779 22.8288 63.3579C22.852 63.335 22.8578 63.3064 22.8578 63.2635C22.8578 63.2263 22.8433 63.1691 22.8201 63.0862C22.7911 63.0118 22.7534 62.9174 22.7012 62.8059L22.5967 62.5771H21.9556L21.9034 62.6886C21.8511 62.8059 21.8134 62.9003 21.7902 62.9746C21.7612 63.0547 21.7525 63.1205 21.7525 63.1663C21.7525 63.232 21.767 63.2835 21.8134 63.3264C21.8511 63.3636 21.9092 63.3865 21.9788 63.4008V63.438C21.9266 63.4294 21.8743 63.4294 21.8134 63.4294C21.7612 63.4294 21.6858 63.4294 21.5987 63.4294C21.5088 63.4294 21.4421 63.4294 21.3899 63.4294C21.3376 63.4294 21.2854 63.4294 21.239 63.438Z" fill="white" stroke="white" stroke-width="0.0474801"/>
<path d="M26.8376 63.2164C26.7046 63.3209 26.563 63.3964 26.4069 63.4486C26.2508 63.5009 26.0803 63.5241 25.8953 63.5241C25.7306 63.5241 25.5774 63.5009 25.4357 63.4486C25.2941 63.3964 25.1698 63.3209 25.0571 63.2251C24.9299 63.1118 24.8346 62.987 24.7739 62.8447C24.7132 62.7025 24.6843 62.5399 24.6843 62.3454C24.6843 62.0028 24.797 61.727 25.0253 61.5179C25.2565 61.3002 25.5514 61.1985 25.9242 61.1985C26.0803 61.1985 26.2277 61.2218 26.3693 61.2653C26.511 61.3031 26.6439 61.3698 26.7769 61.4511L26.6208 61.9795L26.5774 61.9708C26.5485 61.756 26.482 61.5905 26.378 61.4773C26.2739 61.3727 26.141 61.3147 25.9705 61.3147C25.7566 61.3147 25.5918 61.4047 25.4733 61.5818C25.3461 61.7618 25.2883 62.0057 25.2883 62.3279C25.2883 62.6705 25.349 62.9318 25.4733 63.1176C25.5918 63.3122 25.7624 63.4022 25.9791 63.4022C26.1583 63.4022 26.2971 63.3412 26.4098 63.2164C26.5138 63.0973 26.5803 62.9028 26.6237 62.6415L26.667 62.6328L26.8376 63.2164Z" fill="white" stroke="white" stroke-width="0.0474801"/>
<path d="M28.471 63.4083C28.674 63.4083 28.8269 63.3272 28.924 63.1476C29.021 62.9767 29.074 62.7161 29.074 62.3599C29.074 62.0037 29.021 61.7343 28.924 61.5635C28.8269 61.3926 28.674 61.3115 28.471 61.3115C28.2681 61.3115 28.1152 61.3926 28.0181 61.5635C27.9269 61.7343 27.874 61.995 27.874 62.3599C27.874 62.7161 27.9269 62.9854 28.0181 63.1563C28.1152 63.3272 28.2652 63.4083 28.471 63.4083ZM27.2681 62.3541C27.2681 62.1832 27.2975 62.0268 27.3593 61.8849C27.4211 61.7372 27.5181 61.6098 27.6387 61.4968C27.7534 61.4013 27.874 61.326 28.0152 61.2738C28.1505 61.2217 28.3034 61.1985 28.4681 61.1985C28.6416 61.1985 28.7916 61.2217 28.9298 61.2738C29.0651 61.326 29.1945 61.4013 29.3004 61.5055C29.4298 61.6185 29.5181 61.743 29.5886 61.8936C29.6504 62.0355 29.6798 62.1919 29.6798 62.3541C29.6798 62.525 29.6504 62.6727 29.5886 62.8233C29.521 62.9652 29.421 63.0984 29.2945 63.2171C29.1887 63.3127 29.0681 63.388 28.9328 63.4488C28.7887 63.5009 28.6387 63.5241 28.4799 63.5241C28.3152 63.5241 28.1622 63.5009 28.0122 63.443C27.8681 63.3909 27.7387 63.3098 27.6358 63.2113C27.5152 63.0984 27.424 62.9738 27.3652 62.8233C27.3005 62.6727 27.2681 62.5163 27.2681 62.3541Z" fill="white" stroke="white" stroke-width="0.0474801"/>
<path d="M30.4572 62.4762C30.4572 62.7998 30.4804 63.0289 30.5328 63.1606C30.5764 63.2923 30.6665 63.3897 30.7944 63.4327V63.4756C30.713 63.467 30.6462 63.467 30.5851 63.467C30.5182 63.467 30.4659 63.467 30.4194 63.467C30.3525 63.467 30.2915 63.467 30.2246 63.467C30.1577 63.467 30.0909 63.467 30.024 63.4756V63.4384C30.1374 63.3868 30.2188 63.2838 30.2624 63.1434C30.3147 62.9974 30.338 62.7769 30.338 62.4733V61.8175C30.338 61.64 30.3234 61.5226 30.2944 61.4653C30.2653 61.408 30.2042 61.3622 30.1228 61.3336V61.2906C30.2275 61.2906 30.3176 61.2906 30.3758 61.2992C30.4368 61.2992 30.495 61.2992 30.5386 61.2992C30.5764 61.2992 30.6287 61.2992 30.6956 61.2992C30.7625 61.2906 30.8148 61.2906 30.8439 61.2906C30.9573 61.5398 31.0677 61.7774 31.1811 61.9979C31.2945 62.2185 31.405 62.4246 31.5184 62.6308L32.0126 61.2935C32.0882 61.2935 32.1464 61.2935 32.1929 61.3021C32.2307 61.3021 32.2685 61.3021 32.2976 61.3021C32.3499 61.3021 32.4022 61.3021 32.4633 61.2935C32.5244 61.2935 32.6116 61.2935 32.7308 61.2849L32.7395 61.3278C32.6726 61.3422 32.6203 61.3708 32.5912 61.408C32.5621 61.451 32.5476 61.5111 32.5476 61.5913V62.7081C32.5476 62.9945 32.5621 63.1778 32.5999 63.2666C32.629 63.3553 32.6901 63.4069 32.7802 63.4298V63.4728C32.7133 63.4642 32.6377 63.4642 32.5709 63.4642C32.4953 63.4642 32.3993 63.4642 32.2801 63.4642C32.1667 63.4642 32.0708 63.4642 32.0039 63.4642C31.9283 63.4642 31.8615 63.4642 31.7946 63.4728V63.4298C31.8847 63.4155 31.9371 63.3639 31.9749 63.2895C32.0039 63.2093 32.0185 63.0174 32.0185 62.7081V61.6056L31.3091 63.5243H31.2858C31.1579 63.2293 31.0329 62.9201 30.8904 62.6136C30.7567 62.2986 30.6142 61.975 30.4659 61.6428V62.4762H30.4572Z" fill="white" stroke="white" stroke-width="0.0474801"/>
<path d="M33.4735 62.4762C33.4735 62.7998 33.5026 63.0289 33.5493 63.1606C33.6018 63.2923 33.6922 63.3897 33.8118 63.4327V63.4756C33.736 63.467 33.6689 63.467 33.6018 63.467C33.5405 63.467 33.488 63.467 33.4355 63.467C33.3743 63.467 33.316 63.467 33.2489 63.467C33.1818 63.467 33.1147 63.467 33.0389 63.4756V63.4384C33.1585 63.3868 33.2343 63.2838 33.2868 63.1434C33.3305 62.9974 33.3626 62.7769 33.3626 62.4733V61.8175C33.3626 61.64 33.348 61.5226 33.3101 61.4653C33.281 61.408 33.2285 61.3622 33.1468 61.3336V61.2906C33.2518 61.2906 33.3335 61.2906 33.4005 61.2992C33.4618 61.2992 33.5143 61.2992 33.5639 61.2992C33.6018 61.2992 33.6543 61.2992 33.7214 61.2992C33.7885 61.2906 33.8351 61.2906 33.8701 61.2906C33.9839 61.5398 34.0947 61.7774 34.2084 61.9979C34.3222 62.2185 34.4243 62.4246 34.538 62.6308L35.0397 61.2935C35.1155 61.2935 35.1739 61.2935 35.2118 61.3021C35.2555 61.3021 35.2876 61.3021 35.3255 61.3021C35.378 61.3021 35.4305 61.3021 35.4888 61.2935C35.5501 61.2935 35.6376 61.2935 35.7572 61.2849V61.3278C35.6901 61.3422 35.6434 61.3708 35.6143 61.408C35.5851 61.451 35.5705 61.5111 35.5705 61.5913V62.7081C35.5705 62.9945 35.5851 63.1778 35.6143 63.2666C35.6522 63.3553 35.7105 63.4069 35.7951 63.4298V63.4728C35.728 63.4642 35.6609 63.4642 35.5851 63.4642C35.518 63.4642 35.4218 63.4642 35.2993 63.4642C35.1797 63.4642 35.0893 63.4642 35.0222 63.4642C34.9464 63.4642 34.8793 63.4642 34.8122 63.4728V63.4298C34.8939 63.4155 34.9551 63.3639 34.9843 63.2895C35.0222 63.2093 35.0368 63.0174 35.0368 62.7081V61.6056L34.3251 63.5243H34.2959C34.1764 63.2293 34.0422 62.9201 33.9051 62.6136C33.771 62.2986 33.628 61.975 33.4705 61.6428V62.4762H33.4735Z" fill="white" stroke="white" stroke-width="0.0474801"/>
<path d="M39.0728 62.4747C39.0728 62.7979 39.0962 63.0267 39.1488 63.1582C39.1926 63.2898 39.2831 63.387 39.4117 63.4299V63.4728C39.3299 63.4642 39.2627 63.4642 39.2013 63.4642C39.14 63.4642 39.0816 63.4642 39.0348 63.4642C38.9735 63.4642 38.9063 63.4642 38.8479 63.4642C38.7807 63.4642 38.7135 63.4642 38.6375 63.4728V63.4356C38.7514 63.3842 38.8332 63.2812 38.8858 63.1411C38.9297 63.0009 38.953 62.775 38.953 62.4718V61.8169C38.953 61.6395 38.9384 61.5223 38.9092 61.4651C38.88 61.4079 38.8186 61.3621 38.7368 61.3335V61.2906C38.8508 61.2906 38.9326 61.2906 38.991 61.2992C39.0524 61.2992 39.1108 61.2992 39.1634 61.2992C39.1926 61.2992 39.2452 61.2992 39.3124 61.2992C39.3796 61.2906 39.4321 61.2906 39.4614 61.2906C39.6191 61.4736 39.7915 61.6653 39.9784 61.8712C40.1742 62.0771 40.405 62.3345 40.7 62.6291V62.283C40.7 61.9313 40.6767 61.6967 40.6241 61.5766C40.5803 61.4593 40.4897 61.3793 40.3612 61.3278V61.2849C40.4371 61.2935 40.5043 61.2935 40.5715 61.2935C40.6328 61.302 40.6854 61.302 40.738 61.302C40.7994 61.302 40.8578 61.302 40.925 61.2935C40.9922 61.2935 41.0594 61.2935 41.1353 61.2849V61.3278C41.0156 61.3878 40.9338 61.4679 40.887 61.5766C40.8344 61.6939 40.8111 61.9227 40.8111 62.283V63.5014L40.7439 63.5243C40.4576 63.2011 40.1742 62.8865 39.8966 62.5776C39.6191 62.2687 39.3416 61.9684 39.0699 61.6738V62.4747H39.0728Z" fill="white" stroke="white" stroke-width="0.0474801"/>
<path d="M42.1821 62.7427C42.1821 63.0354 42.197 63.2316 42.2358 63.3135C42.2657 63.4043 42.3344 63.457 42.427 63.4804V63.5243C42.3493 63.5155 42.2806 63.5155 42.206 63.5155C42.1223 63.5155 42.0207 63.5155 41.8923 63.5155C41.7698 63.5155 41.6712 63.5155 41.5996 63.5155C41.5219 63.5155 41.4532 63.5155 41.3934 63.5243V63.4804C41.486 63.457 41.5458 63.4043 41.5786 63.3223C41.6175 63.2404 41.6324 63.0442 41.6324 62.7427V61.601C41.6324 61.5191 41.6175 61.4664 41.5876 61.4195C41.5577 61.3815 41.504 61.3522 41.4353 61.3288V61.2849C41.5129 61.2937 41.5816 61.2937 41.6563 61.2937C41.734 61.3024 41.8176 61.3024 41.8953 61.3024C41.9789 61.3024 42.0626 61.3024 42.1402 61.2937C42.2239 61.2937 42.3105 61.2937 42.3942 61.2849V61.3288C42.3165 61.3434 42.2627 61.3727 42.2328 61.4195C42.203 61.4576 42.188 61.5161 42.188 61.601V62.7427H42.1821Z" fill="white" stroke="white" stroke-width="0.0474801"/>
<path d="M42.7717 61.9066L42.9179 61.2849H44.8706L45.0111 61.9066L44.9738 61.9213C44.862 61.7563 44.753 61.6267 44.6355 61.5353C44.5179 61.444 44.4061 61.3998 44.3115 61.3998C44.2512 61.3998 44.2082 61.4145 44.1853 61.4528C44.1623 61.497 44.1566 61.6031 44.1566 61.777V62.7376C44.1566 63.0411 44.1709 63.2296 44.1996 63.3121C44.2369 63.4035 44.2942 63.4565 44.3831 63.4801V63.5243C44.3172 63.5155 44.2426 63.5155 44.171 63.5155C44.0964 63.5155 44.0018 63.5155 43.8756 63.5155C43.7638 63.5155 43.6692 63.5155 43.6032 63.5155C43.5287 63.5155 43.4627 63.5155 43.3968 63.5243V63.4801C43.4856 63.4565 43.543 63.4035 43.5803 63.3298C43.6089 63.2473 43.6233 63.0499 43.6233 62.7405V61.7799C43.6233 61.6061 43.6147 61.5 43.5946 61.4558C43.5717 61.4175 43.5287 61.4027 43.4684 61.4027C43.3738 61.4027 43.2706 61.4469 43.153 61.5383C43.0355 61.6296 42.9179 61.7563 42.8061 61.9243L42.7717 61.9066Z" fill="white" stroke="white" stroke-width="0.0474801"/>
<path d="M51.7989 62.2711C51.8226 62.2711 51.8434 62.2711 51.8819 62.2711C51.9589 62.2799 52.0034 62.2799 52.0271 62.2799C52.2108 62.2799 52.347 62.2417 52.4448 62.1595C52.5367 62.0832 52.59 61.9775 52.59 61.8367C52.59 61.6928 52.5367 61.5872 52.4448 61.5138C52.347 61.4463 52.2019 61.4082 52.0034 61.4082C51.9589 61.4082 51.9204 61.4082 51.8878 61.4082C51.8582 61.4082 51.8256 61.4082 51.796 61.4082V62.2711H51.7989ZM51.8078 62.7407C51.8078 63.0342 51.8226 63.2308 51.8523 63.313C51.8819 63.404 51.9441 63.4568 52.036 63.4803V63.5243C51.9678 63.5155 51.8997 63.5155 51.8226 63.5155C51.7456 63.5155 51.6478 63.5155 51.5264 63.5155C51.4049 63.5155 51.313 63.5155 51.2449 63.5155C51.1768 63.5155 51.1086 63.5155 51.0405 63.5243V63.4803C51.1323 63.4568 51.1916 63.4128 51.2242 63.3218C51.2538 63.2396 51.2686 63.043 51.2686 62.7407V61.6019C51.2686 61.5197 51.2597 61.458 51.2301 61.4199C51.2005 61.3817 51.1531 61.3524 51.079 61.3289V61.2849C51.1619 61.2849 51.239 61.2849 51.316 61.2937C51.399 61.2937 51.4908 61.2937 51.6064 61.2937H51.9352C52.4063 61.2937 52.7352 61.3318 52.91 61.414C53.0937 61.4962 53.1766 61.6312 53.1766 61.8367C53.1766 61.9864 53.1085 62.1067 52.9722 62.1977C52.827 62.2945 52.6374 62.3474 52.3856 62.3562C52.5604 62.3708 52.6967 62.4178 52.8033 62.4912C52.91 62.5734 52.9929 62.6937 53.0551 62.8669C53.064 62.8903 53.0788 62.9197 53.0937 62.9637C53.2003 63.2513 53.3218 63.4157 53.4522 63.4685V63.5126C53.3396 63.5126 53.2329 63.5126 53.1174 63.5126C53.0048 63.5126 52.8596 63.5126 52.667 63.5126C52.6226 63.4216 52.5752 63.2778 52.5218 63.0841C52.4685 62.8874 52.4152 62.7436 52.3707 62.6614C52.3174 62.5646 52.2493 62.4941 52.1722 62.4501C52.0952 62.4061 51.9974 62.3826 51.876 62.3826C51.8671 62.3826 51.8612 62.3826 51.8375 62.3914C51.8226 62.3914 51.8137 62.3914 51.8078 62.3914V62.7407Z" fill="white" stroke="white" stroke-width="0.0474801"/>
<path d="M53.7106 63.5243V63.4803C53.7911 63.4568 53.8515 63.4128 53.8803 63.3218C53.9176 63.2396 53.932 63.043 53.932 62.7407V61.6019C53.932 61.5197 53.9176 61.458 53.8889 61.4199C53.8601 61.3817 53.8141 61.3524 53.748 61.3289V61.2849C53.748 61.2849 53.7566 61.2849 53.7624 61.2849C53.9837 61.2849 54.139 61.2937 54.2511 61.2937H55.5419L55.7202 61.866L55.6771 61.8807C55.5448 61.7163 55.3953 61.6019 55.2343 61.5256C55.0647 61.4434 54.8721 61.4052 54.6507 61.4052C54.599 61.4052 54.5616 61.4052 54.5386 61.4052C54.5099 61.4052 54.4869 61.414 54.4639 61.414V62.274C54.5012 62.274 54.5386 62.2828 54.5673 62.2828C54.6047 62.2828 54.6335 62.2828 54.6708 62.2828C54.8491 62.2828 55.0043 62.2534 55.1222 62.1859C55.2401 62.1184 55.3148 62.0274 55.3522 61.913H55.3953V62.7641H55.3522C55.3148 62.6438 55.2401 62.5469 55.1222 62.4853C55.0043 62.4237 54.8491 62.3885 54.6651 62.3885C54.6133 62.3885 54.5702 62.3885 54.5472 62.3973C54.5185 62.3973 54.4955 62.3973 54.4667 62.3973V62.7054C54.4667 63.0224 54.4955 63.2103 54.5415 63.2866C54.5846 63.3629 54.6823 63.401 54.8376 63.401C55.0216 63.401 55.1912 63.3482 55.3551 63.2425C55.5161 63.1457 55.6713 62.9872 55.8122 62.7759L55.8639 62.7994L55.6656 63.5243H54.3805C54.3575 63.5243 54.3201 63.5243 54.277 63.5155C54.2252 63.5155 54.1965 63.5155 54.1735 63.5155C54.0844 63.5155 54.0125 63.5155 53.9291 63.5243C53.8515 63.5155 53.7796 63.5155 53.7106 63.5243Z" fill="white" stroke="white" stroke-width="0.0474801"/>
<path d="M56.8667 61.4175V62.7258C56.8667 62.8761 56.8667 62.991 56.8754 63.0735C56.8841 63.1648 56.8841 63.2238 56.8986 63.2621C56.9073 63.3151 56.9362 63.3593 56.9739 63.3829C57.0173 63.4064 57.0926 63.4123 57.1969 63.4123C57.4054 63.4123 57.5676 63.321 57.6805 63.1412C57.7993 62.9674 57.8514 62.711 57.8514 62.384C57.8514 62.0422 57.7993 61.7946 57.6805 61.6355C57.5705 61.4764 57.3909 61.3939 57.1448 61.3939C57.1013 61.3939 57.0637 61.3939 57.0173 61.4027C56.971 61.4027 56.9189 61.4116 56.8667 61.4175ZM56.1224 63.5214V63.4919C56.2035 63.4683 56.2643 63.4241 56.2933 63.3416C56.3223 63.2591 56.3367 63.0617 56.3367 62.7435V61.609C56.3367 61.5177 56.3281 61.4499 56.2991 61.4057C56.2701 61.3615 56.2238 61.3379 56.1572 61.3232V61.2849C56.2093 61.2937 56.2614 61.2937 56.3136 61.2937C56.3657 61.2937 56.4468 61.2937 56.5453 61.2937C56.6264 61.2937 56.7306 61.2937 56.8494 61.2849C56.9768 61.2849 57.0492 61.2849 57.0868 61.2849C57.3185 61.2849 57.5039 61.2996 57.6516 61.3379C57.7993 61.3762 57.9267 61.4293 58.0396 61.5118C58.1729 61.609 58.2771 61.7298 58.3437 61.8742C58.419 62.0097 58.448 62.1777 58.448 62.3516C58.448 62.5018 58.4248 62.6462 58.3814 62.7818C58.3379 62.9173 58.2684 63.0381 58.1873 63.1383C58.0686 63.2738 57.9354 63.374 57.779 63.433C57.6226 63.4948 57.4083 63.5243 57.139 63.5243H56.5597H56.1224V63.5214Z" fill="white" stroke="white" stroke-width="0.0474801"/>
<path d="M60.2565 61.9066L60.3976 61.2849H62.3635L62.496 61.9066L62.4672 61.9213C62.3549 61.7563 62.2369 61.6267 62.1189 61.5353C62.0009 61.444 61.8886 61.3998 61.7936 61.3998C61.7332 61.3998 61.6986 61.4145 61.6756 61.4528C61.6526 61.497 61.6382 61.6031 61.6382 61.777V62.7376C61.6382 63.0411 61.6526 63.2296 61.69 63.3121C61.7188 63.4035 61.7792 63.4565 61.8742 63.4801L61.8656 63.5243C61.7994 63.5155 61.7245 63.5155 61.6526 63.5155C61.5777 63.5155 61.4827 63.5155 61.3561 63.5155C61.2438 63.5155 61.1488 63.5155 61.0826 63.5155C61.0164 63.5155 60.9502 63.5155 60.884 63.5243V63.4801C60.9733 63.4565 61.0308 63.4035 61.0625 63.3298C61.0913 63.2473 61.1143 63.0499 61.1143 62.7405V61.7799C61.1143 61.6061 61.0999 61.5 61.0769 61.4558C61.0539 61.4175 61.0164 61.4027 60.9502 61.4027C60.8552 61.4027 60.7516 61.4469 60.6336 61.5383C60.5156 61.6296 60.3976 61.7563 60.2853 61.9243L60.2565 61.9066Z" fill="white" stroke="white" stroke-width="0.0474801"/>
<path d="M64.1574 62.3202C64.1574 62.5118 64.1661 62.6663 64.1719 62.7836C64.1864 62.9094 64.2009 62.9952 64.2155 63.0467C64.259 63.1554 64.3286 63.2383 64.4099 63.2955C64.4999 63.347 64.6101 63.3756 64.7465 63.3756C64.9555 63.3756 65.1122 63.3098 65.2225 63.1782C65.3328 63.0467 65.385 62.8551 65.385 62.6062V62.283C65.385 61.9227 65.3618 61.6796 65.3096 61.5709C65.266 61.4593 65.1761 61.3793 65.0426 61.3278V61.2849C65.1238 61.2935 65.1993 61.2935 65.2573 61.2935C65.3241 61.302 65.3763 61.302 65.4228 61.302C65.4837 61.302 65.5504 61.302 65.623 61.2935C65.6897 61.2935 65.771 61.2935 65.8465 61.2849L65.8552 61.3278C65.7217 61.3707 65.6317 61.4536 65.5795 61.5709C65.5272 61.6796 65.504 61.917 65.504 62.283V62.5833C65.504 62.9065 65.4286 63.1411 65.2805 63.2955C65.1238 63.4499 64.8917 63.5243 64.5811 63.5243C64.4012 63.5243 64.2532 63.51 64.1342 63.4642C64.0065 63.4271 63.902 63.3699 63.8208 63.2955C63.7453 63.2211 63.6931 63.1353 63.664 63.0324C63.635 62.9294 63.6205 62.775 63.6205 62.5776C63.6205 62.4975 63.6205 62.4003 63.6292 62.2916C63.6292 62.1887 63.6292 62.1143 63.6292 62.0857V61.5938C63.6292 61.5194 63.6147 61.4622 63.5857 61.4164C63.5567 61.3793 63.5102 61.3507 63.4435 61.3278V61.2849C63.5102 61.2935 63.5857 61.2935 63.6524 61.2935C63.7279 61.302 63.8004 61.302 63.8846 61.302C63.9659 61.302 64.0413 61.302 64.1226 61.2935C64.198 61.2935 64.2706 61.2935 64.3548 61.2849V61.3278C64.288 61.3421 64.2358 61.3707 64.2067 61.4079C64.1777 61.4508 64.1632 61.5108 64.1632 61.5909V62.3202H64.1574Z" fill="white" stroke="white" stroke-width="0.0474801"/>
<path d="M66.3739 62.4747C66.3739 62.7979 66.3973 63.0267 66.4499 63.1582C66.4938 63.2898 66.5844 63.387 66.7131 63.4299V63.4728C66.6312 63.4642 66.564 63.4642 66.5025 63.4642C66.4353 63.4642 66.3826 63.4642 66.3388 63.4642C66.2773 63.4642 66.2101 63.4642 66.1516 63.4642C66.0843 63.4642 66.017 63.4642 65.941 63.4728V63.4356C66.055 63.3842 66.1369 63.2812 66.1808 63.1411C66.2335 63.0009 66.2569 62.775 66.2569 62.4718V61.8169C66.2569 61.6395 66.2422 61.5223 66.213 61.4651C66.1837 61.4079 66.1223 61.3621 66.0404 61.3335V61.2906C66.1545 61.2906 66.2364 61.2906 66.2949 61.2992C66.3563 61.2992 66.4148 61.2992 66.4675 61.2992C66.4967 61.2992 66.5493 61.2992 66.6166 61.2992C66.6839 61.2906 66.7365 61.2906 66.7658 61.2906C66.9237 61.4736 67.0963 61.6653 67.2835 61.8712C67.4707 62.0771 67.7105 62.3345 68.0059 62.6291V62.283C68.0059 61.9313 67.9767 61.6967 67.9299 61.5766C67.886 61.4593 67.7953 61.3793 67.6666 61.3278V61.2849C67.7427 61.2935 67.81 61.2935 67.8685 61.2935C67.9357 61.302 67.9884 61.302 68.041 61.302C68.1024 61.302 68.1609 61.302 68.2282 61.2935C68.2955 61.2935 68.3628 61.2935 68.4388 61.2849V61.3278C68.3189 61.3878 68.237 61.4679 68.1843 61.5766C68.1405 61.6939 68.1171 61.9227 68.1171 62.283V63.5014L68.0498 63.5243C67.7632 63.2011 67.4794 62.8865 67.2016 62.5776C66.9237 62.2687 66.6459 61.9684 66.3739 61.6738V62.4747Z" fill="white" stroke="white" stroke-width="0.0474801"/>
<path d="M71.3643 63.4083C71.5672 63.4083 71.7201 63.3272 71.8172 63.1476C71.9143 62.9767 71.9672 62.7161 71.9672 62.3599C71.9672 62.0037 71.9143 61.7343 71.8172 61.5635C71.7201 61.3926 71.5672 61.3115 71.3643 61.3115C71.1613 61.3115 71.0084 61.3926 70.9114 61.5635C70.8202 61.7343 70.7672 61.995 70.7672 62.3599C70.7672 62.7161 70.8202 62.9854 70.9114 63.1563C71.0084 63.3272 71.1584 63.4083 71.3643 63.4083ZM70.1614 62.3541C70.1614 62.1832 70.1908 62.0268 70.2526 61.8849C70.3143 61.7372 70.4114 61.6098 70.532 61.4968C70.6467 61.4013 70.7672 61.326 70.9084 61.2738C71.0437 61.2217 71.1966 61.1985 71.3613 61.1985C71.5349 61.1985 71.6849 61.2217 71.8231 61.2738C71.9584 61.326 72.0878 61.4013 72.1937 61.5055C72.3231 61.6185 72.4113 61.743 72.4819 61.8936C72.5437 62.0355 72.5731 62.1919 72.5731 62.3541C72.5731 62.525 72.5437 62.6727 72.4819 62.8233C72.4142 62.9652 72.3172 63.0984 72.1878 63.2171C72.0819 63.3127 71.9613 63.388 71.826 63.4488C71.6819 63.5009 71.5319 63.5241 71.3731 63.5241C71.2055 63.5241 71.0555 63.5009 70.9055 63.443C70.7614 63.3909 70.632 63.3098 70.529 63.2113C70.4084 63.0984 70.3173 62.9738 70.2584 62.8233C70.1937 62.6727 70.1614 62.5163 70.1614 62.3541Z" fill="white" stroke="white" stroke-width="0.0474801"/>
<path d="M73.2663 62.4747C73.2663 62.7979 73.2897 63.0267 73.3422 63.1582C73.3947 63.2898 73.4764 63.387 73.6048 63.4299V63.4728C73.5289 63.4642 73.456 63.4642 73.3947 63.4642C73.3334 63.4642 73.2751 63.4642 73.2284 63.4642C73.17 63.4642 73.1088 63.4642 73.0416 63.4642C72.9745 63.4642 72.9074 63.4642 72.8403 63.4728L72.8315 63.4356C72.9512 63.3842 73.0271 63.2812 73.0796 63.1411C73.1233 63.0009 73.1467 62.775 73.1467 62.4718V61.8169C73.1467 61.6395 73.1321 61.5223 73.1029 61.4651C73.0737 61.4079 73.0125 61.3621 72.9395 61.3335V61.2906C73.0446 61.2906 73.1263 61.2906 73.1875 61.2992C73.2488 61.2992 73.3072 61.2992 73.3597 61.2992C73.3889 61.2992 73.4414 61.2992 73.5085 61.2992C73.5756 61.2906 73.6282 61.2906 73.6661 61.2906C73.8149 61.4736 73.9871 61.6653 74.1767 61.8712C74.3723 62.0771 74.6115 62.3345 74.8975 62.6291V62.283C74.8975 61.9313 74.8742 61.6967 74.8216 61.5766C74.7779 61.4593 74.6874 61.3793 74.559 61.3278V61.2849C74.6349 61.2935 74.7078 61.2935 74.7691 61.2935C74.8304 61.302 74.8829 61.302 74.9325 61.302C74.9938 61.302 75.0522 61.302 75.1193 61.2935C75.1864 61.2935 75.2535 61.2935 75.3294 61.2849V61.3278C75.2097 61.3878 75.128 61.4679 75.0813 61.5766C75.0376 61.6939 75.0055 61.9227 75.0055 62.283V63.5014L74.9383 63.5243C74.6524 63.2011 74.3693 62.8865 74.0921 62.5776C73.8149 62.2687 73.5377 61.9684 73.2663 61.6738V62.4747Z" fill="white" stroke="white" stroke-width="0.0474801"/>
<path fill-rule="evenodd" clip-rule="evenodd" d="M56.6355 39.6302C56.6733 39.8644 55.8018 39.5219 55.6914 39.5248L56.0313 40.0342L56.3624 40.5962L56.6762 41.1582L56.9696 41.7349L57.2572 42.3466L57.4605 42.774L57.6871 42.8823L57.934 42.976L58.4162 43.1077L58.9188 43.2248L59.43 43.2716L59.9646 43.2833L60.5049 43.2599L61.051 43.2014L61.6204 43.1106L62.1897 43.0023L62.7475 42.856L63.3256 42.695L63.9065 42.5164L64.4701 42.3174L65.0366 42.1008L65.6001 41.9017L66.1491 41.6675L66.2857 41.609L66.4425 41.5504L66.733 41.4509L67.0235 41.3514L67.3315 41.2724L67.6394 41.1933L67.9444 41.1319L68.2523 41.0528L68.5748 40.9913L68.8943 40.9474L69.2138 40.9035L69.516 40.8596L69.8529 40.8362L70.1725 40.8099L70.492 40.7835L70.7883 40.7747L71.102 40.7835L71.2328 40.7777L71.4013 40.7747L71.6976 40.7835L71.9735 40.8069L72.54 40.8567L72.813 40.8977L73.0658 40.9387L73.3185 40.9796L73.5712 41.0382L73.8007 41.1114L74.0157 41.167L74.2277 41.2402L74.4195 41.328L74.5938 41.4158L74.7477 41.5007L74.8988 41.6207L74.524 41.1728L74.2219 40.8918L73.6874 40.4264L73.0658 40.0166L72.386 39.6185L71.7237 39.2409L70.4252 38.8223L70.8958 38.5618L71.3664 38.3013L71.8341 38.0759L72.2785 37.8651L72.7317 37.707L73.1181 37.5314L73.6787 37.3616L73.3766 37.2358L73.1994 37.1831L72.8189 37.1128L72.3802 37.0748L71.9241 37.0338L71.41 37.0045L70.8929 36.9957L70.3555 37.0016L69.7948 37.0396L69.1964 37.0748L68.627 37.1655L68.0228 37.2533L67.4331 37.3616L66.8608 37.4875L66.2828 37.6485L65.7221 37.83L65.1934 38.032L64.8623 38.1637L64.5485 38.2954L63.9036 38.5413L63.2616 38.7696L62.6429 38.9628L62.0067 39.156L61.3763 39.2965L60.7315 39.399L60.0953 39.4487L59.4271 39.4604L58.7677 39.4019L58.0793 39.2877L57.3792 39.1179L57.1439 39.4838C57.5622 40.2391 57.78 39.8761 56.6355 39.6302Z" fill="#DEC280" stroke="#DEC280" stroke-width="0.0474801"/>
<path fill-rule="evenodd" clip-rule="evenodd" d="M52.5908 37.794L53.4912 38.2778L54.2085 38.5197L54.9084 38.6118L55.437 38.6694L56.0585 38.5744L56.5726 38.465L57.1012 38.2231L57.8185 37.6845L58.3616 38.5197L58.2542 41.4743L53.8803 38.966L52.5908 37.794Z" fill="#DEC280" stroke="#DEC280" stroke-width="0.0474801"/>
<path fill-rule="evenodd" clip-rule="evenodd" d="M52.5045 37.7657L52.5888 37.8617L53.0715 38.2718L53.5746 38.7052L54.0806 39.1735L54.5633 39.6796L55.0257 40.1887L55.488 40.7501L55.93 41.3144L56.3488 41.8961L56.7704 42.5157L57.0641 42.9462L57.3375 43.0422L57.6312 43.1149L58.1983 43.2109L58.7886 43.2836H59.376L59.9867 43.2487L60.5944 43.1731L61.2051 43.0596L61.8361 42.9084L62.4672 42.7397L63.0749 42.5331L63.7059 42.3092L64.337 42.0648L64.9477 41.803L65.5554 41.5209L66.1661 41.2591L66.7535 40.9566L66.9018 40.881L67.0705 40.8082L67.3845 40.6744L67.6986 40.5435L68.0359 40.433L68.3732 40.3196L68.7077 40.2265L69.045 40.113L69.4027 40.02L69.7603 39.9443L70.118 39.8687L70.4524 39.7931L70.8305 39.7378L71.1881 39.6796L71.5458 39.6244L71.8832 39.5866L72.2408 39.5691L72.3862 39.5487L72.5753 39.5313L72.9126 39.5109H73.2266H73.878L74.195 39.5313L74.4887 39.5487L74.7824 39.5691L75.0761 39.6069L75.3495 39.6622L75.6024 39.7L75.8554 39.7553L76.0852 39.8309L76.2974 39.9065L76.5185 40.0171L76.7075 40.145L76.4225 39.7727L75.9078 39.3422L75.1866 38.9146L74.3491 38.4725L73.5523 38.1496L72.709 37.8791L71.1707 37.5591L71.668 37.2421L72.1623 36.9221L72.6567 36.64L73.1307 36.3782L73.5843 36.1135L74.035 35.8517L74.4683 35.6277L74.2793 35.6074L74.067 35.5696L73.6279 35.5317H73.1219H72.5956L72.0082 35.5521L71.4208 35.5899L70.8101 35.6452L70.1791 35.7383L69.5073 35.8342L68.8763 35.9826L68.2046 36.1339L67.5532 36.3026L66.9222 36.4887L66.2911 36.7156L65.6805 36.9599L65.1134 37.2217L64.7557 37.3904L64.4213 37.5591L63.7263 37.8791L63.0342 38.1787L62.3596 38.4434L61.6675 38.7052L60.9725 38.9117L60.26 39.0804L59.5446 39.1939L58.7886 39.2666H58.0325L57.2328 39.2113L56.4128 39.0979L55.552 38.9117L54.6476 38.6296L53.7025 38.2718L52.7138 37.8238L52.5045 37.7657Z" fill="#BC9408" stroke="#BC9408" stroke-width="0.0474801"/>
<path fill-rule="evenodd" clip-rule="evenodd" d="M25.9175 40.8614L25.5916 40.7862L25.0213 40.6936L24.5966 40.6386L24.4831 40.6183H24.3522L24.2212 40.601H24.0932L23.9623 40.5807H23.555L23.424 40.601H23.2931H23.1447L23.0167 40.6183L22.8858 40.6386H22.7549L22.6239 40.656L22.493 40.6733L22.3795 40.6936L22.2486 40.7109L22.1351 40.7486L22.0362 40.7688L21.9227 40.7862L21.8267 40.8238L21.7278 40.8614L21.6463 40.8788L21.5649 40.9164L21.498 40.9541L21.4165 40.9917L21.3699 41.0293L21.3205 41.0669L21.2536 41.1422L21.239 40.9164V40.7109V40.2826L21.3699 39.7414L25.3792 38.546L29.9937 41.1422L30.0431 41.6834L30.0926 41.8339L30.142 42.0018L30.174 42.0944L30.238 42.2623L30.2555 42.3549L30.273 42.4504L30.305 42.543L30.3195 42.6183V42.7109L30.3544 42.8035V42.8961V42.9916L30.369 43.0843V43.1971L30.1071 42.9916L29.8627 42.8035L29.6038 42.6183L29.3245 42.4504L29.0655 42.2623L28.7891 42.0944L28.5098 41.9439L28.2334 41.776L27.9396 41.6458L27.6632 41.5156L27.3693 41.3853L27.0754 41.2551L26.8136 41.1422L26.5226 41.0293L26.2288 40.9367L26.0804 40.8991L25.9175 40.8614Z" fill="#DEC280" stroke="#DEC280" stroke-width="0.0474801"/>
<path fill-rule="evenodd" clip-rule="evenodd" d="M40.1016 37.8832L39.1591 38.3641L38.4109 38.606L37.6627 38.6982L37.1116 38.7558L36.4765 38.6636L35.9255 38.5513L35.389 38.3094L34.6234 37.7709L34.0724 38.606L34.171 41.5607L38.7531 39.0524L40.1016 37.8832Z" fill="#DEC280" stroke="#DEC280" stroke-width="0.0474801"/>
<path fill-rule="evenodd" clip-rule="evenodd" d="M40.0157 37.9348L39.9342 38.0308L39.5583 38.4439L39.1679 38.8744L38.7746 39.3427L38.3988 39.8517L38.0405 40.3578L37.6821 40.9192L37.3383 41.4835L37.012 42.0653L36.6857 42.6849L36.4585 43.1183L36.2458 43.2113L36.0331 43.287L35.5932 43.3801L35.1358 43.4557H34.6609L34.2035 43.4179L33.7141 43.3422L33.2392 43.2288L32.7672 43.0805L32.2778 42.9117L31.7884 42.7052L31.2989 42.4783L30.824 42.234L30.3521 41.9722L29.8772 41.6901L29.3877 41.4283L28.9303 41.1258L28.8167 41.053L28.7031 40.9774L28.4554 40.8465L28.2107 40.7127L27.934 40.6022L27.6718 40.4887L27.4125 40.3957L27.1503 40.2822L26.8735 40.1891L26.6113 40.1135L26.317 40.0379L26.0577 39.9623L25.7781 39.907L25.5013 39.8517L25.2245 39.7935L24.9623 39.7557L24.6855 39.7383L24.5544 39.7208L24.4233 39.7005L24.164 39.683H23.9018H23.3949L23.1677 39.7005L22.9229 39.7208L22.6928 39.7383L22.4801 39.7761L22.2674 39.8314L22.0722 39.8692L21.877 39.9274L21.6818 40.0001L21.5333 40.0757L21.3701 40.1513L21.239 40.2648L21.2565 39.907L21.306 39.5143L21.3701 39.1187L21.4517 38.7435L21.5507 38.3857L21.6644 38.0483L21.778 37.7283L21.9266 37.4113L22.0722 37.0913L22.2354 36.8092L22.3985 36.5474L22.5792 36.2856L22.7598 36.0209L22.9375 35.7969L23.0861 35.7765L23.2492 35.7387L23.6076 35.7038H23.9834H24.4088L24.8487 35.7213L25.3207 35.7591L25.7955 35.8144L26.285 35.9103L26.7919 36.0034L27.2988 36.1518L27.8029 36.303L28.3098 36.4717L28.8167 36.6608L29.2887 36.8848L29.7636 37.1291L30.221 37.3909L30.4802 37.5596L30.7599 37.7283L31.2989 38.0483L31.8204 38.3479L32.3594 38.6126L32.8809 38.8744L33.4198 39.0809L33.9763 39.2496L34.5473 39.3631L35.1183 39.4387H35.7214L36.342 39.3805L36.98 39.27L37.6501 39.0809L38.3347 38.7988L39.0689 38.4439L39.838 37.993L40.0157 37.9348Z" fill="#BC9408" stroke="#BC9408" stroke-width="0.0474801"/>
<path fill-rule="evenodd" clip-rule="evenodd" d="M46.2861 39.2916H45.9017L45.4824 39.2713L45.0834 39.254L44.667 39.2337L44.2652 39.1962L43.8488 39.1557L43.4324 39.1181L43.0305 39.0429L42.6287 38.9649L42.2297 38.8868L41.8279 38.7914L41.4464 38.6757L41.0621 38.563L40.6777 38.4473L40.3108 38.2941L39.9584 38.1409L39.7604 38.0426L39.542 37.9472L39.1256 37.7737L38.7092 37.6407L38.2754 37.5251L37.824 37.4297L37.4076 37.3718H36.9883L36.5719 37.3921L36.1729 37.447L35.7886 37.5627L35.4362 37.7159L35.1043 37.9472L34.8043 38.2161L34.5364 38.5428L34.3035 38.9446L34.12 39.4072L34.0356 39.387L34.0181 39.1759V38.9851L33.9861 38.5803V38.1958V37.8315V37.4673L34.0181 37.1232L34.0356 36.7763L34.0851 36.4496L34.1346 36.1229L34.187 35.8164L34.254 35.5273L34.3355 35.2208L34.42 34.9346L34.519 34.6657L34.6034 34.3766L34.7199 34.0875L34.8713 33.9748L35.0198 33.8591L35.3372 33.6654L35.6546 33.4948L35.9895 33.3792L36.3214 33.2809L36.6738 33.226L37.0232 33.2057L37.3901 33.226L37.7396 33.2635L38.1065 33.3011L38.4908 33.3792L38.8432 33.4948L39.2101 33.6076L39.577 33.7435L39.9264 33.8967L40.2758 34.0702L40.4593 34.1453L40.6427 34.2234L41.0126 34.3766L41.394 34.5096L41.7784 34.6455L42.1628 34.7409L42.5646 34.8363L42.9636 34.9346L43.3654 35.0098L43.7643 35.0676L44.1487 35.1254L44.5331 35.163L44.9175 35.2035L45.2844 35.2208L45.6338 35.2584H45.9687H46.6005H46.9354L47.3023 35.2208L47.6518 35.2035L48.0216 35.163L48.4205 35.1254L48.8049 35.0676L49.1893 35.0098L49.5736 34.9346L49.9726 34.8363L50.3569 34.7409L50.7559 34.6455L51.1402 34.5096L51.5071 34.3766L51.8741 34.2234L52.0429 34.1453L52.2264 34.0702L52.5758 33.8967L52.9427 33.7435L53.3096 33.6076L53.662 33.4948L54.0289 33.3792L54.3958 33.3011L54.7627 33.2635L55.1296 33.226L55.479 33.2057L55.8459 33.226L56.1983 33.2809L56.5302 33.3792L56.8651 33.4948L57.1825 33.6654L57.4999 33.8591L57.6338 33.9748L57.7824 34.0875L57.8988 34.3766L58.0007 34.6657L58.0823 34.9346L58.1842 35.2208L58.2512 35.5273L58.3327 35.8164L58.3822 36.1229L58.4346 36.4496L58.4667 36.7763L58.5016 37.1232L58.5162 37.4673L58.5336 37.8315V38.1958L58.5162 38.5803L58.5016 38.9851L58.4841 39.1759L58.4667 39.387L58.3997 39.4072L58.1988 38.9446L57.9833 38.5428L57.7154 38.2161L57.4154 37.9472L57.0806 37.7159L56.7137 37.5627L56.3468 37.447L55.9478 37.3921L55.5285 37.3718H55.1121L54.6782 37.4297L54.2444 37.5251L53.8105 37.6407L53.3766 37.7737L52.9602 37.9472L52.7593 38.0426L52.5584 38.1409L52.1915 38.2941L51.8245 38.4473L51.4576 38.563L51.0907 38.6757L50.6889 38.7914L50.3074 38.8868L49.9231 38.9649L49.5212 39.0429L49.1223 39.1181L48.703 39.1557L48.304 39.1962L47.9022 39.2337L47.5032 39.254L47.0868 39.2713L46.685 39.2916H46.2861Z" fill="#BC9408" stroke="#BC9408" stroke-width="0.0474801"/>
<path d="M27.4402 39.4687L27.4517 39.4428C27.5437 39.4514 27.6184 39.4284 27.6788 39.3709C27.7391 39.3133 27.8196 39.1637 27.9202 38.9248L27.9806 38.7838L28.1875 38.2975C28.2479 38.1536 28.2738 38.0586 28.2651 38.0068C28.2565 37.955 28.2163 37.9148 28.1473 37.8802L28.1588 37.8572C28.2364 37.8802 28.3197 37.8975 28.406 37.909C28.4922 37.9234 28.5871 37.932 28.6848 37.9407L28.4778 38.4299C28.6072 38.2745 28.748 38.1766 28.9004 38.1363C29.0527 38.0961 29.2194 38.1133 29.3948 38.1881C29.6276 38.286 29.7713 38.4241 29.8259 38.6025C29.8805 38.7809 29.8489 39.0112 29.7311 39.2903L29.6075 39.5838C29.4925 39.8572 29.435 40.0356 29.435 40.1162C29.435 40.1968 29.4724 40.2687 29.5471 40.3291L29.5327 40.355C29.4724 40.3263 29.412 40.2975 29.3545 40.2716C29.2942 40.2457 29.2338 40.2169 29.1734 40.191C29.0815 40.1536 29.0067 40.1219 28.9492 40.0989C28.8918 40.0759 28.8371 40.0558 28.7854 40.0385L28.7969 40.0126C28.8889 40.0241 28.9636 39.9982 29.024 39.9406C29.0843 39.8831 29.1648 39.7335 29.2654 39.4946L29.3258 39.3536L29.3976 39.1809C29.504 38.9277 29.5442 38.7263 29.5212 38.5737C29.4954 38.4212 29.4063 38.3119 29.2482 38.2457C29.0815 38.1738 28.9176 38.1853 28.7624 38.2773C28.6043 38.3694 28.4778 38.5306 28.383 38.7579L28.2709 39.0255C28.1588 39.2903 28.1042 39.4658 28.1013 39.5522C28.1013 39.6385 28.1358 39.7076 28.2076 39.7651L28.1962 39.791C28.1358 39.7622 28.0754 39.7335 28.0151 39.7076C27.9547 39.6817 27.8943 39.6529 27.834 39.627C27.742 39.5867 27.6673 39.5579 27.6098 39.5349C27.5465 39.5061 27.4919 39.486 27.4402 39.4687Z" fill="white" stroke="white" stroke-width="0.081191"/>
<path d="M23.9949 38.4946L24.2549 38.0061L24.2783 38.0148C24.2666 38.2114 24.3308 38.3906 24.4681 38.5496C24.6055 38.7085 24.7837 38.8126 25.0057 38.856C25.2277 38.9022 25.4176 38.8878 25.5754 38.8126C25.7331 38.7375 25.8295 38.6189 25.8646 38.4571C25.8792 38.3877 25.8763 38.3212 25.8587 38.2605C25.8412 38.1998 25.8062 38.1507 25.7594 38.1102C25.6776 38.0466 25.5257 37.9772 25.3037 37.8963C25.2131 37.8645 25.1459 37.8414 25.0992 37.8211C24.8333 37.72 24.6464 37.6043 24.5441 37.48C24.4389 37.3557 24.4039 37.2083 24.4419 37.0349C24.4857 36.8181 24.6201 36.662 24.8392 36.5666C25.0583 36.4683 25.3241 36.4539 25.6367 36.5175C25.7945 36.5493 25.9464 36.5984 26.0954 36.6649C26.2444 36.7314 26.3758 36.8065 26.4927 36.8932L26.2677 37.2864L26.2356 37.2748C26.2385 37.1014 26.1859 36.9568 26.0779 36.8383C25.9668 36.7198 25.8149 36.6389 25.6163 36.5984C25.4205 36.5579 25.2511 36.5695 25.1079 36.6331C24.9648 36.6967 24.8771 36.7978 24.8509 36.9308C24.8362 36.9973 24.8421 37.0609 24.8684 37.1245C24.8947 37.1881 24.9327 37.243 24.9882 37.2835C25.0816 37.3528 25.2686 37.4367 25.5462 37.535C25.6426 37.5696 25.7156 37.5985 25.7682 37.6159C25.9844 37.6968 26.1334 37.7951 26.221 37.9136C26.3057 38.0293 26.332 38.168 26.2999 38.3328C26.2473 38.5785 26.1071 38.7577 25.8734 38.8704C25.6396 38.9832 25.3592 39.0063 25.0291 38.9398C24.8216 38.8964 24.6317 38.8386 24.4565 38.7606C24.2695 38.6883 24.1205 38.5987 23.9949 38.4946Z" fill="white" stroke="white" stroke-width="0.081191"/>
<path d="M26.3209 39.1634L26.3296 39.1346C26.4279 39.1346 26.5088 39.0944 26.5695 39.0168C26.6302 38.9392 26.7054 38.7524 26.795 38.4565L26.821 38.3703L26.9395 37.9823C26.9945 37.8013 27.0147 37.6863 27.0002 37.6317C26.9858 37.58 26.9395 37.5369 26.8615 37.5111L26.8702 37.4823C26.9569 37.4967 27.0494 37.5082 27.1448 37.5139C27.2402 37.5197 27.3442 37.5226 27.457 37.5168C27.4541 37.5283 27.4252 37.6116 27.3732 37.7668C27.3211 37.9191 27.2778 38.057 27.2402 38.1806L27.1188 38.5772C27.0292 38.8645 26.9887 39.057 26.9974 39.1519C27.0031 39.2467 27.0494 39.3214 27.1332 39.3789L27.1217 39.4076C27.0696 39.3875 27.0147 39.3674 26.9569 39.3501C26.8991 39.33 26.821 39.307 26.7198 39.2754C26.6331 39.2496 26.5609 39.2295 26.5001 39.2122C26.4423 39.1921 26.3816 39.1777 26.3209 39.1634ZM27.1939 36.9737C27.2113 36.9162 27.246 36.876 27.2951 36.8473C27.3471 36.8214 27.3992 36.8157 27.4599 36.8358C27.5177 36.853 27.5611 36.8875 27.5871 36.9392C27.616 36.9909 27.6189 37.0427 27.6044 37.0973C27.5871 37.1547 27.5524 37.195 27.5032 37.2208C27.4541 37.2467 27.3992 37.2496 27.3385 37.2323C27.2778 37.2151 27.2344 37.1806 27.2055 37.1317C27.1795 37.0858 27.1766 37.0312 27.1939 36.9737Z" fill="white" stroke="white" stroke-width="0.081191"/>
<path d="M31.5545 40.8071L31.5752 40.7804C31.4247 40.908 31.2654 41.0979 31.0972 41.1216C30.929 41.1454 30.755 41.1187 30.575 41.0356C30.2947 40.905 30.1059 40.7121 30.0055 40.4569C29.9052 40.2017 29.917 39.9376 30.041 39.6676C30.1678 39.3887 30.3626 39.2047 30.6192 39.1157C30.8789 39.0266 31.1533 39.0504 31.4454 39.1839C31.584 39.2492 31.708 39.3264 31.8142 39.4154C31.9204 39.5074 32.0148 39.6112 32.0915 39.727L31.8142 40.0385L31.7935 40.0296C31.8319 39.8605 31.8171 39.7062 31.7522 39.5667C31.6873 39.4272 31.584 39.3234 31.4395 39.2581C31.2536 39.172 31.0736 39.178 30.8907 39.2759C30.7107 39.3709 30.5632 39.543 30.4511 39.7922C30.3271 40.0652 30.2858 40.3086 30.3331 40.5163C30.3773 40.727 30.5012 40.8783 30.7019 40.9703C30.8405 41.0356 30.9822 41.0534 31.1267 41.0267C31.2713 40.997 31.4129 40.9258 31.5545 40.8071Z" fill="white" stroke="white" stroke-width="0.081191"/>
<path d="M33.7904 41.2162L32.3128 40.6877C32.292 40.7379 32.2743 40.7792 32.2595 40.8146C32.2447 40.8501 32.2328 40.8796 32.2269 40.9003C32.1262 41.1748 32.1114 41.411 32.1795 41.6118C32.2476 41.8126 32.3927 41.9513 32.6119 42.0281C32.7925 42.0931 32.9702 42.0901 33.1478 42.0163C33.3255 41.9425 33.4854 41.8067 33.6305 41.6088L33.6572 41.6974C33.5002 41.913 33.3196 42.0547 33.1182 42.1196C32.9169 42.1875 32.6948 42.1757 32.4549 42.0901C32.1706 41.9897 31.9693 41.8155 31.8479 41.5705C31.7264 41.3254 31.7146 41.0685 31.8123 40.7969C31.9189 40.5046 32.0936 40.298 32.3394 40.1858C32.5852 40.0706 32.8517 40.0677 33.1449 40.171C33.3995 40.2625 33.5831 40.4013 33.6986 40.5873C33.8112 40.7763 33.8408 40.9859 33.7904 41.2162ZM32.3453 40.6168L33.3907 40.9947C33.4499 40.8117 33.4528 40.6522 33.4025 40.5164C33.3522 40.3806 33.2574 40.2861 33.1153 40.236C32.9702 40.1828 32.831 40.1917 32.6977 40.2596C32.5645 40.3245 32.446 40.4426 32.3453 40.6168Z" fill="white" stroke="white" stroke-width="0.081191"/>
<path d="M60.6257 42.4223L60.6172 42.3933C60.7166 42.3266 60.7734 42.2484 60.7876 42.1556C60.8017 42.0628 60.762 41.8744 60.6683 41.5875L60.6257 41.4599L60.3588 40.6454C60.3105 40.4947 60.2622 40.4048 60.2168 40.3758C60.1714 40.3497 60.1032 40.3468 60.0067 40.3729L59.9982 40.3468C60.0834 40.3092 60.1714 40.2657 60.2622 40.2106C60.3531 40.1555 60.4553 40.0889 60.5661 40.0106C60.5831 40.0773 60.6087 40.1642 60.6399 40.2715C60.674 40.3787 60.7166 40.5179 60.7705 40.6831L60.9977 41.3788C61.1084 41.7121 61.1964 41.915 61.2617 41.9875C61.3299 42.0599 61.4208 42.0889 61.54 42.0802L61.5485 42.1092C61.4776 42.1295 61.4037 42.1527 61.3271 42.1759C61.2504 42.1991 61.168 42.2281 61.0829 42.2571C61.0204 42.2773 60.9494 42.3034 60.8727 42.3324C60.7989 42.3556 60.7137 42.3875 60.6257 42.4223Z" fill="white" stroke="white" stroke-width="0.081191"/>
<path d="M62.0852 41.7922L62.0738 41.308L62.0967 41.2993C62.2024 41.4733 62.3224 41.5892 62.4567 41.6501C62.591 41.711 62.7395 41.711 62.8967 41.6559C63.1253 41.5747 63.2681 41.4211 63.3196 41.1949C63.371 40.9687 63.3338 40.673 63.2081 40.3047L63.1967 40.2757C63.1881 40.4497 63.1395 40.5918 63.0481 40.7077C62.9567 40.8237 62.8253 40.9107 62.6538 40.9745C62.4195 41.0586 62.2024 41.0615 61.9995 40.989C61.7967 40.9165 61.6624 40.7831 61.5966 40.5947C61.5166 40.3627 61.5366 40.1423 61.6538 39.9364C61.7738 39.7306 61.9681 39.5798 62.2367 39.4841C62.5452 39.3739 62.8224 39.3826 63.071 39.5102C63.3196 39.6378 63.4996 39.8668 63.6138 40.1945C63.7338 40.5454 63.731 40.8614 63.6053 41.1398C63.4796 41.4182 63.2481 41.6182 62.911 41.7371C62.7938 41.7777 62.6624 41.8038 62.5167 41.8154C62.3738 41.8241 62.2281 41.8183 62.0852 41.7922ZM63.0567 40.0089C62.9881 39.8089 62.8853 39.6668 62.7481 39.5827C62.611 39.4986 62.4624 39.4841 62.3052 39.5421C62.1309 39.603 62.0195 39.7103 61.9652 39.861C61.9109 40.0118 61.9224 40.1974 61.9967 40.4149C62.0595 40.6005 62.1595 40.7338 62.2967 40.8121C62.4338 40.8904 62.5795 40.902 62.7395 40.844C62.8967 40.7889 63.0053 40.6817 63.0653 40.528C63.1253 40.3743 63.1224 40.2003 63.0567 40.0089Z" fill="white" stroke="white" stroke-width="0.081191"/>
<path d="M64.3137 40.8516L64.2907 40.3504L64.3108 40.3415C64.42 40.5066 64.558 40.6187 64.7305 40.6747C64.9029 40.7307 65.0783 40.7248 65.2623 40.654C65.4462 40.5862 65.5727 40.4771 65.6474 40.3327C65.7193 40.1882 65.725 40.029 65.6647 39.858C65.5986 39.6782 65.4922 39.5573 65.3399 39.4983C65.1875 39.4393 65.0122 39.4452 64.8138 39.5219C64.7161 39.5573 64.6184 39.6103 64.5178 39.6752C64.4172 39.7401 64.3079 39.8256 64.1901 39.9288L63.8739 38.7848L65.0754 38.3308C65.1674 38.2954 65.2364 38.263 65.2795 38.2306C65.3226 38.1981 65.3542 38.1627 65.3715 38.1185L65.3916 38.1156L65.4031 38.5372L64.2907 38.9588C64.1211 39.0236 64.078 39.2123 64.1642 39.5248C64.193 39.628 64.216 39.7076 64.2332 39.7696C64.3482 39.6841 64.4574 39.6133 64.558 39.5543C64.6586 39.4954 64.7535 39.4511 64.8426 39.4158C65.153 39.2978 65.4175 39.2624 65.6388 39.3067C65.8601 39.3509 66.0039 39.4659 66.0728 39.6575C66.1476 39.8668 66.1188 40.0673 65.9866 40.259C65.8544 40.4506 65.6331 40.6039 65.3284 40.7189C65.1415 40.7897 64.9633 40.8368 64.7908 40.8604C64.6184 40.8781 64.4574 40.8752 64.3137 40.8516Z" fill="white" stroke="white" stroke-width="0.081191"/>
<path d="M66.4171 39.8934V39.3945L66.4378 39.3886C66.5501 39.5657 66.6862 39.6838 66.8488 39.7458C67.0114 39.8078 67.1889 39.8048 67.3781 39.7399C67.5644 39.6779 67.6916 39.5746 67.7655 39.4299C67.8394 39.2853 67.8454 39.1258 67.7862 38.9517C67.7271 38.7775 67.6236 38.6624 67.4787 38.6122C67.3338 38.5591 67.1534 38.5709 66.9346 38.6476C66.908 38.6565 66.8754 38.6712 66.837 38.686C66.7985 38.7037 66.7571 38.7244 66.7069 38.748L66.6655 38.6299C66.7039 38.624 66.7394 38.6151 66.7778 38.6063C66.8163 38.5974 66.8547 38.5856 66.8902 38.5709C67.0883 38.503 67.2214 38.4144 67.2924 38.3022C67.3633 38.19 67.3693 38.0543 67.3131 37.8889C67.2658 37.7502 67.1859 37.6587 67.0706 37.6055C66.9553 37.5554 66.8251 37.5554 66.6773 37.6055C66.5058 37.6646 66.3786 37.7591 66.2988 37.8889C66.216 38.0188 66.1864 38.1723 66.2071 38.3495L66.1835 38.3583L65.941 37.9805C66.0415 37.8801 66.1509 37.7886 66.2751 37.7148C66.3993 37.638 66.5383 37.5731 66.6891 37.5229C66.9553 37.4314 67.183 37.4048 67.3722 37.4432C67.5615 37.4816 67.6827 37.579 67.7359 37.7325C67.7832 37.8742 67.7596 38.0129 67.6591 38.1517C67.5585 38.2904 67.3988 38.4085 67.1741 38.5089C67.4698 38.438 67.7064 38.4262 67.8838 38.4734C68.0612 38.5207 68.1765 38.624 68.2327 38.7834C68.3037 38.9871 68.2623 39.1819 68.1144 39.3679C67.9666 39.5539 67.73 39.7044 67.4047 39.8137C67.2391 39.8698 67.0735 39.9052 66.9109 39.917C66.7512 39.9317 66.5856 39.9229 66.4171 39.8934Z" fill="white" stroke="white" stroke-width="0.081191"/>
<path d="M42.9121 44.6051L40.877 50.8629L46.2171 43.5417L42.9121 44.6051Z" fill="#D2B15B"/>
<path d="M46.2174 32.2586V34.5672L44.1679 40.7856L43.6334 40.0607L46.2174 32.2586Z" fill="#CFAC50" stroke="#C59E2C" stroke-width="0.081191"/>
<path d="M43.6233 40.0964L44.1501 40.7854H37.5821L35.3646 40.0964H43.6233Z" fill="#DBBE77"/>
<path d="M46.2173 32.2586L48.8012 40.0607L48.2734 40.7856L46.2173 34.5672V32.2586Z" fill="#DBBD76"/>
<path d="M48.8033 40.0107H56.8975L54.8331 40.7858H48.2843L48.8033 40.0107Z" fill="#CBA744" stroke="#C8A237" stroke-width="0.081191"/>
<path d="M40.9473 50.8695L46.2172 46.987V47.9422L39.3267 53.1023L40.9473 50.8695Z" fill="#D5B565" stroke="#CBA744" stroke-width="0.081191"/>
<path d="M37.661 40.7576L42.9444 44.6214L42.0609 44.9202L35.4509 40.0107L37.661 40.7576Z" fill="#CDA948" stroke="#C39B24" stroke-width="0.081191"/>
<path d="M42.0643 44.9574L42.9442 44.6615L40.9421 50.8834L39.3267 53.1024L42.0643 44.9574Z" fill="#C9A43C" stroke="#C6A031" stroke-width="0.081191"/>
<path d="M46.2173 46.987L51.5425 50.8695L53.0217 53.1023L46.2173 47.9422V46.987Z" fill="#CDA948" stroke="#C39B24" stroke-width="0.081191"/>
<path d="M51.537 50.8834L49.4905 44.6615L50.3844 44.9574L53.0219 53.1024L51.537 50.8834Z" fill="#C39B24" stroke="#BF9715" stroke-width="0.081191"/>
<path d="M49.4905 44.6214L54.8306 40.7576L56.8978 40.0107L50.3781 44.9202L49.4905 44.6214Z" fill="#D9BA6F" stroke="#CFAC50" stroke-width="0.081191"/>
<path d="M44.2365 40.8384L46.2175 34.584V43.6278L44.2365 40.8384Z" fill="#E0C689"/>
<path d="M40.877 50.8629L46.2171 46.9981V43.5417L40.877 50.8629Z" fill="#BD950C"/>
<path d="M37.6043 40.7858L42.9301 44.6617L46.2175 43.598L37.6043 40.7858Z" fill="#DEC27F"/>
<path d="M37.6043 40.7858H44.1898L46.2175 43.542L37.6043 40.7858Z" fill="#BE950E"/>
<path d="M46.2173 46.9981V43.5417L51.4713 50.8629L46.2173 46.9981Z" fill="#DCC07B"/>
<path d="M49.4599 44.5976L51.4713 50.8629L46.2173 43.5417L49.4599 44.5976Z" fill="#CFAC50"/>
<path d="M46.2173 43.598L54.8305 40.7858L49.4921 44.6617L46.2173 43.598Z" fill="#BD950C"/>
<path d="M48.2662 40.7858H54.8305L46.2173 43.542L48.2662 40.7858Z" fill="#DCBF7A"/>
<path d="M46.2173 34.584L48.2844 40.8323L46.2173 43.6278V34.584Z" fill="#BE950E"/>
</g>
<defs>
<clipPath id="clip0_1_5350">
<rect width="59.0002" height="32.4717" fill="white" transform="translate(19 32)"/>
</clipPath>
</defs>
</svg>
