<svg width="96" height="96" viewBox="0 0 96 96" fill="none" xmlns="http://www.w3.org/2000/svg">
<circle cx="48" cy="48" r="47" fill="white" stroke="white" stroke-width="2"/>
<path fill-rule="evenodd" clip-rule="evenodd" d="M21.6693 40.4733H19V49.6922H21.6347C23.0563 49.6922 24.0614 49.3824 24.9628 48.6258C26.0029 47.766 26.6614 46.4585 26.6614 45.0826C26.6614 42.3654 24.6159 40.4733 21.6693 40.4733ZM23.7841 47.4218C23.1949 47.9036 22.4665 48.1443 21.2881 48.1443H20.8029V42.0556H21.2881C22.4665 42.0556 23.16 42.2619 23.7841 42.7778C24.408 43.328 24.7895 44.1884 24.7895 45.0826C24.7892 45.9771 24.408 46.8715 23.7841 47.4218ZM27.4935 49.6925H29.2961V40.4733H27.4935V49.6925ZM33.7333 44.0165C32.6239 43.6038 32.312 43.3631 32.312 42.8469C32.312 42.2622 32.9012 41.8496 33.664 41.8496C34.2185 41.8496 34.6694 42.0559 35.1199 42.5718L36.0907 41.3681C35.2932 40.68 34.3575 40.336 33.3521 40.336C31.6881 40.336 30.4401 41.4713 30.4401 42.9848C30.4401 44.2575 31.0293 44.8769 32.7282 45.4959C33.4564 45.7367 33.8029 45.9086 33.9762 46.0118C34.3575 46.2528 34.5308 46.5964 34.5308 46.975C34.5308 47.732 33.9416 48.2822 33.1094 48.2822C32.2773 48.2822 31.5495 47.8351 31.1333 47.0438L29.9896 48.179C30.8217 49.3827 31.8268 49.9333 33.2134 49.9333C35.0853 49.9333 36.403 48.6949 36.403 46.9063C36.4026 45.4268 35.7788 44.7731 33.7333 44.0165ZM36.9575 45.0826C36.9575 47.8001 39.1069 49.8985 41.8799 49.8985C42.6427 49.8985 43.3359 49.7607 44.1333 49.3824V47.2495C43.4052 47.9717 42.7813 48.2815 41.9492 48.2815C40.1467 48.2815 38.8293 46.94 38.8293 45.0822C38.8293 43.328 40.1813 41.9177 41.8799 41.9177C42.7467 41.9177 43.4052 42.2272 44.1333 42.9497V40.8512C43.3705 40.4382 42.712 40.2666 41.9146 40.2666C39.1759 40.2669 36.9575 42.4342 36.9575 45.0826Z" fill="black"/>
<path fill-rule="evenodd" clip-rule="evenodd" d="M48.967 40.2666C46.2965 40.2666 44.1333 42.4072 44.1333 45.0307C44.1333 47.862 46.1952 49.9333 48.967 49.9333C51.6702 49.9333 53.8 47.8272 53.8 45.0998C53.8003 42.4072 51.7043 40.2666 48.967 40.2666Z" fill="#DB8135"/>
<path fill-rule="evenodd" clip-rule="evenodd" d="M48.967 40.2666C46.2965 40.2666 44.1333 42.4072 44.1333 45.0307C44.1333 47.862 46.1952 49.9333 48.967 49.9333C51.6702 49.9333 53.8 47.8272 53.8 45.0998C53.8003 42.4072 51.7043 40.2666 48.967 40.2666Z" fill="#DB8135"/>
<path fill-rule="evenodd" clip-rule="evenodd" d="M53.8 45.0998C53.8 42.4069 51.704 40.2666 48.967 40.2666C46.2965 40.2666 44.1333 42.4072 44.1333 45.0307C44.1333 47.862 46.1952 49.9333 48.967 49.9333C51.6702 49.9333 53.8 47.8272 53.8 45.0998Z" fill="#DB8135"/>
<path fill-rule="evenodd" clip-rule="evenodd" d="M53.8 45.0998C53.8 42.4069 51.704 40.2666 48.967 40.2666C46.2965 40.2666 44.1333 42.4072 44.1333 45.0307C44.1333 47.862 46.1952 49.9333 48.967 49.9333C51.6702 49.9333 53.8 47.8272 53.8 45.0998Z" fill="#DB8137"/>
<path fill-rule="evenodd" clip-rule="evenodd" d="M53.8 45.0998C53.8 42.4069 51.704 40.2666 48.967 40.2666C46.2965 40.2666 44.1333 42.4072 44.1333 45.0307C44.1333 47.862 46.1952 49.9333 48.967 49.9333C51.6702 49.9333 53.8 47.8272 53.8 45.0998Z" fill="#DC8337"/>
<path fill-rule="evenodd" clip-rule="evenodd" d="M53.8 45.0998C53.8 42.4069 51.704 40.2666 48.967 40.2666C46.2965 40.2666 44.1333 42.4072 44.1333 45.0307C44.1333 47.862 46.1952 49.9333 48.967 49.9333C51.6702 49.9333 53.8 47.8272 53.8 45.0998Z" fill="#DC8539"/>
<path fill-rule="evenodd" clip-rule="evenodd" d="M53.8 45.0998C53.8 42.4069 51.704 40.2666 48.967 40.2666C46.2965 40.2666 44.1333 42.4072 44.1333 45.0307C44.1333 47.862 46.1952 49.9333 48.967 49.9333C51.6702 49.9333 53.8 47.8272 53.8 45.0998Z" fill="#DC853A"/>
<path fill-rule="evenodd" clip-rule="evenodd" d="M53.8 45.0998C53.8 42.4069 51.704 40.2666 48.967 40.2666C46.2965 40.2666 44.1333 42.4072 44.1333 45.0307C44.1333 47.862 46.1952 49.9333 48.967 49.9333C51.6702 49.9333 53.8 47.8272 53.8 45.0998Z" fill="#DC853C"/>
<path fill-rule="evenodd" clip-rule="evenodd" d="M53.8 45.0998C53.8 42.4069 51.704 40.2666 48.967 40.2666C46.2965 40.2666 44.1333 42.4072 44.1333 45.0307C44.1333 47.862 46.1952 49.9333 48.967 49.9333C51.6702 49.9333 53.8 47.8272 53.8 45.0998Z" fill="#DD873E"/>
<path fill-rule="evenodd" clip-rule="evenodd" d="M53.8 45.0998C53.8 42.4069 51.704 40.2666 48.967 40.2666C46.2965 40.2666 44.1333 42.4072 44.1333 45.0307C44.1333 47.862 46.1952 49.9333 48.967 49.9333C51.6702 49.9333 53.8 47.8272 53.8 45.0998Z" fill="#DD873E"/>
<path fill-rule="evenodd" clip-rule="evenodd" d="M53.8 45.0998C53.8 42.4069 51.704 40.2666 48.967 40.2666C46.2965 40.2666 44.1333 42.4072 44.1333 45.0307C44.1333 47.862 46.1952 49.9333 48.967 49.9333C51.6702 49.9333 53.8 47.8272 53.8 45.0998Z" fill="#DD883F"/>
<path fill-rule="evenodd" clip-rule="evenodd" d="M53.8 45.0998C53.8 42.4069 51.704 40.2666 48.967 40.2666C46.2965 40.2666 44.1333 42.4072 44.1333 45.0307C44.1333 47.862 46.1952 49.9333 48.967 49.9333C51.6702 49.9333 53.8 47.8272 53.8 45.0998Z" fill="#DD8841"/>
<path fill-rule="evenodd" clip-rule="evenodd" d="M53.8 45.0998C53.8 42.4069 51.704 40.2666 48.967 40.2666C46.2965 40.2666 44.1333 42.4072 44.1333 45.0307C44.1333 47.862 46.1952 49.9333 48.967 49.9333C51.6702 49.9333 53.8 47.8272 53.8 45.0998Z" fill="#DE8A41"/>
<path fill-rule="evenodd" clip-rule="evenodd" d="M53.8 45.0998C53.8 42.4069 51.704 40.2666 48.967 40.2666C46.2965 40.2666 44.1333 42.4072 44.1333 45.0307C44.1333 47.862 46.1952 49.9333 48.967 49.9333C51.6702 49.9333 53.8 47.8272 53.8 45.0998Z" fill="#DE8A43"/>
<path fill-rule="evenodd" clip-rule="evenodd" d="M53.8 45.0998C53.8 42.4069 51.704 40.2666 48.967 40.2666C46.2965 40.2666 44.1333 42.4072 44.1333 45.0307C44.1333 47.862 46.1952 49.9333 48.967 49.9333C51.6702 49.9333 53.8 47.8272 53.8 45.0998Z" fill="#DE8A44"/>
<path fill-rule="evenodd" clip-rule="evenodd" d="M53.8 45.0998C53.8 42.4069 51.704 40.2666 48.967 40.2666C46.2965 40.2666 44.1333 42.4072 44.1333 45.0307C44.1333 47.862 46.1952 49.9333 48.967 49.9333C51.6702 49.9333 53.8 47.8272 53.8 45.0998Z" fill="#DE8C46"/>
<path fill-rule="evenodd" clip-rule="evenodd" d="M53.7996 45.1001C53.7996 45.0582 53.7993 45.0163 53.798 44.9744V44.9728C53.7971 44.9316 53.7956 44.8905 53.7934 44.8494V44.8461C53.7914 44.8059 53.7889 44.7656 53.7859 44.7255C53.7859 44.7238 53.7859 44.7221 53.7852 44.7204C53.7825 44.681 53.7794 44.6415 53.7757 44.6021C53.775 44.5998 53.775 44.5978 53.775 44.5954C53.7712 44.5568 53.7667 44.5183 53.7616 44.4798V44.4788C53.757 44.4421 53.7521 44.4055 53.7468 44.3689C53.7462 44.3652 53.7455 44.3615 53.7455 44.3579C53.7396 44.3217 53.734 44.2858 53.7275 44.2496L53.7255 44.2376L53.7153 44.1789L53.7019 44.1095L53.695 44.0764C53.6891 44.0482 53.6835 44.0201 53.6769 43.9923C53.6743 43.9792 53.6704 43.9665 53.6681 43.9534L53.6487 43.875L53.6294 43.8012L53.6199 43.7651C53.613 43.7393 53.6051 43.7138 53.5982 43.6883L53.5867 43.6484C52.9883 41.677 51.1888 40.2666 48.9668 40.2666C47.0108 40.2666 45.3275 41.4153 44.5664 43.0607C44.2844 43.6902 44.1368 44.3737 44.1333 45.0659C44.1369 45.6641 44.233 46.2281 44.4079 46.7451L44.423 46.7883L44.4296 46.8064C44.6161 47.3232 44.8861 47.8044 45.2284 48.2299C46.0978 49.2895 47.4219 49.9333 48.9668 49.9333C51.1632 49.9333 52.9804 48.5433 53.5854 46.5588L53.6162 46.4522C53.7045 46.135 53.7612 45.8092 53.7855 45.4804L53.7862 45.4798C53.7888 45.4382 53.7921 45.3963 53.7937 45.3544C53.7978 45.2698 53.7995 45.1848 53.7996 45.1001Z" fill="#DF8E47"/>
<path fill-rule="evenodd" clip-rule="evenodd" d="M53.8 45.0998C53.8 43.2219 52.7398 41.5963 51.1983 40.784C50.5349 40.4529 49.7793 40.2666 48.967 40.2666C47.9213 40.2666 46.9543 40.5906 46.1611 41.1395C44.9364 42.0219 44.1333 43.4651 44.1333 45.0998C44.1333 46.8979 45.1053 48.4806 46.541 49.3338C47.2457 49.7188 48.0687 49.9333 48.967 49.9333C50.0995 49.9333 51.1312 49.5687 51.9505 48.9474C53.0738 48.0466 53.8 46.6536 53.8 45.0998Z" fill="#DF8E48"/>
<path fill-rule="evenodd" clip-rule="evenodd" d="M48.9671 45.0996H53.8C53.8 42.4413 51.6252 40.2666 48.9671 40.2666C48.9252 40.2666 48.884 40.2673 48.8428 40.2683H48.8395C46.2397 40.3363 44.1333 42.4842 44.1333 45.0996C44.1321 46.1116 44.4462 47.0989 45.0319 47.9243C45.6176 48.7496 46.4458 49.3721 47.4015 49.7051C47.8888 49.8535 48.4139 49.9333 48.9668 49.9333C49.6417 49.9333 50.2811 49.8069 50.8628 49.5774C51.7361 49.1994 52.4795 48.5739 53.0014 47.7782C53.5233 46.9826 53.8008 46.0515 53.7996 45.0999L48.9671 45.0996Z" fill="#DF8E4A"/>
<path fill-rule="evenodd" clip-rule="evenodd" d="M53.8 45.0999C53.8 42.4573 51.6437 40.2666 48.967 40.2666C46.2893 40.2666 44.1333 42.4573 44.1333 45.0999C44.1319 45.7351 44.256 46.3642 44.4985 46.9513C44.7409 47.5383 45.0969 48.0717 45.546 48.5208C45.9951 48.9699 46.5285 49.3259 47.1156 49.5682C47.7027 49.8106 48.3318 49.9347 48.967 49.9333C49.6021 49.9346 50.2311 49.8105 50.8181 49.5681C51.4051 49.3256 51.9385 48.9697 52.3875 48.5206C52.8366 48.0715 53.1925 47.5381 53.4349 46.9511C53.6773 46.3641 53.8013 45.735 53.8 45.0999Z" fill="#DF904A"/>
<path fill-rule="evenodd" clip-rule="evenodd" d="M53.8 45.0824C53.8 42.4109 51.6281 40.2666 48.967 40.2666C46.3049 40.2666 44.1333 42.4109 44.1333 45.0824C44.1333 47.7541 46.3049 49.9333 48.967 49.9333C51.6281 49.9333 53.8 47.7538 53.8 45.0824Z" fill="#E0914C"/>
<path fill-rule="evenodd" clip-rule="evenodd" d="M53.8 45.5671C53.8 43.1769 51.6128 41.2332 48.9671 41.2332C46.3208 41.2332 44.1333 43.1769 44.1333 45.5671C44.1333 47.9894 46.3208 49.9332 48.9671 49.9332C51.6132 49.9332 53.8 47.9894 53.8 45.5671Z" fill="#E0914E"/>
<path fill-rule="evenodd" clip-rule="evenodd" d="M53.8 45.5673C53.8 43.1916 51.6517 41.2332 48.967 41.2332C46.2815 41.2332 44.1333 43.1916 44.1333 45.5673C44.1333 47.975 46.2815 49.9332 48.967 49.9332C51.6521 49.9332 53.8 47.975 53.8 45.5673Z" fill="#DF924F"/>
<path fill-rule="evenodd" clip-rule="evenodd" d="M53.8 45.583C53.8 43.1807 51.8521 41.2332 49.4503 41.2332C47.0478 41.2332 45.1 43.1811 45.1 45.583C45.1 47.9849 47.0478 49.9332 49.4503 49.9332C51.8521 49.9332 53.8 47.9849 53.8 45.583Z" fill="#E09351"/>
<path fill-rule="evenodd" clip-rule="evenodd" d="M53.8 45.5666C53.8 43.17 51.8374 41.2332 49.4505 41.2332C47.0625 41.2332 45.1 43.17 45.1 45.5666C45.1 47.996 47.0625 49.9332 49.4505 49.9332C51.8378 49.9332 53.8 47.996 53.8 45.5666Z" fill="#E09552"/>
<path fill-rule="evenodd" clip-rule="evenodd" d="M53.8 45.5666C53.8 43.1851 51.8809 41.2332 49.4668 41.2332C47.0518 41.2332 45.1 43.1851 45.1 45.5666C45.1 47.9816 47.0518 49.9332 49.4668 49.9332C51.8813 49.9332 53.8 47.9816 53.8 45.5666Z" fill="#E09554"/>
<path fill-rule="evenodd" clip-rule="evenodd" d="M53.8 45.5663C53.801 44.997 53.6893 44.433 53.471 43.9068C53.2528 43.3806 52.9324 42.9025 52.5283 42.4999C52.1242 42.0974 51.6442 41.7782 51.116 41.5608C50.5878 41.3435 50.0217 41.2321 49.4501 41.2332C48.8786 41.232 48.3124 41.3433 47.7841 41.5607C47.2558 41.778 46.7758 42.0971 46.3717 42.4997C45.9675 42.9023 45.6471 43.3805 45.4289 43.9067C45.2106 44.433 45.0989 44.997 45.1 45.5663C45.1 47.9664 47.0406 49.9332 49.4501 49.9332C51.8587 49.9332 53.8 47.9664 53.8 45.5663Z" fill="#E09555"/>
<path fill-rule="evenodd" clip-rule="evenodd" d="M53.8 45.583C53.8 43.1888 51.8443 41.2332 49.4505 41.2332C47.0559 41.2332 45.1 43.1888 45.1 45.583C45.1 48.0109 47.0559 49.9331 49.4505 49.9331C50.0221 49.9345 50.5884 49.8229 51.1167 49.6048C51.6451 49.3867 52.1252 49.0663 52.5293 48.6621C52.9335 48.2578 53.2538 47.7777 53.4719 47.2493C53.6899 46.7209 53.8014 46.1546 53.8 45.583Z" fill="#E19756"/>
<path fill-rule="evenodd" clip-rule="evenodd" d="M53.8 45.5661C53.8 43.1781 51.8633 41.2332 49.4503 41.2332C47.037 41.2332 45.1 43.1781 45.1 45.5661C45.0982 46.1401 45.2095 46.7088 45.4275 47.2395C45.6455 47.7701 45.9659 48.2523 46.3702 48.6582C46.7745 49.0641 47.2548 49.3856 47.7834 49.6045C48.312 49.8233 48.8785 49.935 49.4503 49.9331C50.022 49.9349 50.5884 49.8231 51.117 49.6043C51.6455 49.3854 52.1257 49.0638 52.53 48.6579C52.9342 48.2521 53.2545 47.7699 53.4725 47.2393C53.6905 46.7087 53.8017 46.1401 53.8 45.5661Z" fill="#E19757"/>
<path fill-rule="evenodd" clip-rule="evenodd" d="M53.8 45.566C53.8 43.1591 51.8741 41.2332 49.4675 41.2332C47.0599 41.2332 45.1 43.1591 45.1 45.566C45.1 47.9732 47.0603 49.9332 49.4675 49.9332C51.8744 49.9332 53.8 47.9729 53.8 45.566Z" fill="#E29959"/>
<path fill-rule="evenodd" clip-rule="evenodd" d="M53.8 45.5658C53.8 43.1741 51.851 41.2332 49.4503 41.2332C47.0487 41.2332 45.1 43.1741 45.1 45.5658C45.1 47.9576 47.049 49.9332 49.4503 49.9332C51.851 49.9332 53.8 47.9576 53.8 45.5658Z" fill="#E2995B"/>
<path fill-rule="evenodd" clip-rule="evenodd" d="M53.8 45.5832C53.8 43.1979 51.8352 41.2332 49.4505 41.2332C47.0644 41.2332 45.1 43.1979 45.1 45.5832C45.1 48.0038 47.0648 49.9332 49.4505 49.9332C51.8355 49.9332 53.8 48.0038 53.8 45.5832Z" fill="#E29B5B"/>
<path fill-rule="evenodd" clip-rule="evenodd" d="M53.8 45.5654C53.8 43.1861 51.8544 41.2332 49.4501 41.2332C47.0449 41.2332 45.1 43.1861 45.1 45.5654C45.1 47.9802 47.0452 49.9332 49.4501 49.9332C51.8544 49.9332 53.8 47.9799 53.8 45.5654Z" fill="#E29B5D"/>
<path fill-rule="evenodd" clip-rule="evenodd" d="M52.8333 45.5651C52.8343 44.9959 52.7349 44.4322 52.541 43.9061C52.347 43.3801 52.0623 42.9021 51.7031 42.4996C51.3439 42.0972 50.9173 41.7781 50.4477 41.5608C49.9782 41.3434 49.475 41.2321 48.9669 41.2332C46.8255 41.2332 45.1 43.1663 45.1 45.5651C45.1 47.9639 46.8255 49.9332 48.9669 49.9332C51.1078 49.9332 52.8333 47.9639 52.8333 45.5651Z" fill="#E39D5F"/>
<path fill-rule="evenodd" clip-rule="evenodd" d="M52.8333 45.5651C52.8333 43.1824 51.0937 41.2332 48.9671 41.2332C46.8399 41.2332 45.1 43.1824 45.1 45.5651C45.1 47.9839 46.8399 49.9332 48.9671 49.9332C51.0937 49.9332 52.8333 47.9839 52.8333 45.5651Z" fill="#E39D61"/>
<path fill-rule="evenodd" clip-rule="evenodd" d="M52.8333 45.0998C52.8333 42.9877 51.111 41.2332 48.9668 41.2332C46.8219 41.2332 45.1 42.9877 45.1 45.0998C45.1 47.2445 46.8219 48.9665 48.9668 48.9665C51.111 48.9665 52.8333 47.2445 52.8333 45.0998Z" fill="#E39F63"/>
<path fill-rule="evenodd" clip-rule="evenodd" d="M52.8333 45.0832C52.8333 42.9442 51.0964 41.2332 48.967 41.2332C46.8366 41.2332 45.1 42.9442 45.1 45.0832C45.1 47.2222 46.8366 48.9665 48.967 48.9665C51.0964 48.9665 52.8333 47.2222 52.8333 45.0832Z" fill="#E39F63"/>
<path fill-rule="evenodd" clip-rule="evenodd" d="M52.8333 45.0832C52.8333 42.9593 51.1007 41.2332 48.9671 41.2332C46.8333 41.2332 45.1 42.9589 45.1 45.0832C45.1 47.2407 46.8333 48.9665 48.9671 48.9665C51.1007 48.9665 52.8333 47.2407 52.8333 45.0832Z" fill="#E39F64"/>
<path fill-rule="evenodd" clip-rule="evenodd" d="M52.8333 45.0829C52.8333 42.9741 51.1187 41.2332 48.9668 41.2332C46.8146 41.2332 45.1 42.9741 45.1 45.0829C45.1 47.2255 46.8146 48.9665 48.9668 48.9665C51.1187 48.9665 52.8333 47.2255 52.8333 45.0829Z" fill="#E4A166"/>
<path fill-rule="evenodd" clip-rule="evenodd" d="M52.8333 45.0997C52.8333 42.9631 51.1036 41.2332 48.967 41.2332C46.8297 41.2332 45.1 42.9628 45.1 45.0997C45.1 47.2365 46.8297 48.9665 48.967 48.9665C51.1036 48.9665 52.8333 47.2365 52.8333 45.0997Z" fill="#E4A367"/>
<path fill-rule="evenodd" clip-rule="evenodd" d="M52.8333 45.0826C52.8333 42.9519 51.0883 41.2332 48.967 41.2332C46.845 41.2332 45.1 42.9516 45.1 45.0826C45.1 47.2481 46.845 48.9665 48.967 48.9665C51.0883 48.9665 52.8333 47.2481 52.8333 45.0826Z" fill="#E4A369"/>
<path fill-rule="evenodd" clip-rule="evenodd" d="M52.8333 45.0825C52.8333 42.9673 51.1262 41.2332 48.9668 41.2332C46.8067 41.2332 45.1 42.9673 45.1 45.0825C45.1 47.2327 46.8067 48.9665 48.9668 48.9665C51.1262 48.9665 52.8333 47.2327 52.8333 45.0825Z" fill="#E4A36A"/>
<path fill-rule="evenodd" clip-rule="evenodd" d="M52.8333 45.0823C52.8347 44.5765 52.7357 44.0753 52.5419 43.6077C52.3481 43.1401 52.0634 42.7152 51.7041 42.3575C51.3448 41.9998 50.918 41.7163 50.4483 41.5233C49.9786 41.3304 49.4751 41.2318 48.967 41.2332C48.4588 41.2316 47.9553 41.3302 47.4854 41.5231C47.0156 41.716 46.5887 41.9994 46.2293 42.3571C45.8699 42.7149 45.5851 43.1398 45.3913 43.6075C45.1975 44.0752 45.0985 44.5764 45.1 45.0823C45.1 47.217 46.8223 48.9665 48.967 48.9665C51.1107 48.9665 52.8333 47.217 52.8333 45.0823Z" fill="#E5A56C"/>
<path fill-rule="evenodd" clip-rule="evenodd" d="M52.8333 45.0996C52.8333 42.9713 51.0949 41.2332 48.967 41.2332C46.8381 41.2332 45.1 42.9713 45.1 45.0996C45.1 47.2283 46.8381 48.9665 48.967 48.9665C51.0949 48.9665 52.8333 47.2283 52.8333 45.0996Z" fill="#E5A56C"/>
<path fill-rule="evenodd" clip-rule="evenodd" d="M52.8333 45.5676C52.8333 43.7107 51.0794 42.2 48.9672 42.2C46.8542 42.2 45.1 43.7107 45.1 45.5676C45.1 47.4562 46.8542 48.9666 48.9672 48.9666C51.0794 48.9666 52.8333 47.4562 52.8333 45.5676Z" fill="#E5A76E"/>
<path fill-rule="evenodd" clip-rule="evenodd" d="M52.8333 45.5672C52.8333 43.7248 51.3332 42.2 49.4501 42.2C47.5665 42.2 46.0667 43.7248 46.0667 45.5672C46.0667 47.4418 47.5668 48.9666 49.4501 48.9666C51.3332 48.9666 52.8333 47.4418 52.8333 45.5672Z" fill="#E5A770"/>
<path fill-rule="evenodd" clip-rule="evenodd" d="M52.8333 45.5831C52.8333 43.7144 51.3189 42.2 49.4505 42.2C47.5811 42.2 46.0667 43.7144 46.0667 45.5831C46.0667 47.4522 47.5811 48.9666 49.4505 48.9666C51.3192 48.9666 52.8333 47.4522 52.8333 45.5831Z" fill="#E6A970"/>
<path fill-rule="evenodd" clip-rule="evenodd" d="M52.8333 45.5833C52.8333 43.729 51.3043 42.2 49.4505 42.2C47.5956 42.2 46.0667 43.729 46.0667 45.5833C46.0667 47.4704 47.5956 48.9666 49.4505 48.9666C51.3043 48.9666 52.8333 47.4704 52.8333 45.5833Z" fill="#E6A972"/>
<path fill-rule="evenodd" clip-rule="evenodd" d="M52.8333 45.5666C52.8333 43.7183 51.3221 42.2 49.4503 42.2C47.5775 42.2 46.0667 43.7183 46.0667 45.5666C46.066 46.0133 46.1531 46.4558 46.3229 46.8686C46.4928 47.2814 46.742 47.6565 47.0563 47.9723C47.3706 48.2882 47.7439 48.5386 48.1547 48.7092C48.5655 48.8798 49.0058 48.9673 49.4503 48.9666C49.8948 48.9672 50.335 48.8797 50.7457 48.709C51.1564 48.5383 51.5296 48.2879 51.8439 47.9721C52.1581 47.6562 52.4073 47.2812 52.5771 46.8684C52.7469 46.4556 52.8339 46.0133 52.8333 45.5666Z" fill="#E6AB74"/>
<path fill-rule="evenodd" clip-rule="evenodd" d="M52.8333 45.5665C52.8345 45.1241 52.7478 44.6858 52.5783 44.2768C52.4087 43.8679 52.1596 43.4963 51.8452 43.1834C51.5308 42.8706 51.1574 42.6227 50.7465 42.4539C50.3355 42.2851 49.8951 42.1988 49.4505 42.2C49.0058 42.1987 48.5653 42.2849 48.1542 42.4536C47.7431 42.6223 47.3696 42.8702 47.0551 43.1831C46.7407 43.496 46.4914 43.8676 46.3218 44.2766C46.1522 44.6856 46.0655 45.124 46.0667 45.5665C46.0667 47.4333 47.574 48.9666 49.4505 48.9666C51.3259 48.9666 52.8333 47.4333 52.8333 45.5665Z" fill="#E6AB75"/>
<path fill-rule="evenodd" clip-rule="evenodd" d="M52.8333 45.5831C52.8333 43.7221 51.3112 42.2 49.4505 42.2C47.5894 42.2 46.0667 43.7224 46.0667 45.5831C46.0667 47.478 47.5891 48.9666 49.4505 48.9666C49.8952 48.9681 50.3358 48.8816 50.747 48.7121C51.1581 48.5426 51.5317 48.2934 51.8461 47.9789C52.1605 47.6644 52.4097 47.2908 52.5791 46.8797C52.7485 46.4685 52.8349 46.0278 52.8333 45.5831Z" fill="#E7AD77"/>
<path fill-rule="evenodd" clip-rule="evenodd" d="M52.8333 45.5831C52.8333 43.7378 51.3297 42.2 49.4503 42.2C47.5706 42.2 46.0667 43.7378 46.0667 45.5831C46.0667 47.4629 47.5702 48.9666 49.4503 48.9666C49.8951 48.9684 50.3359 48.8822 50.7472 48.7128C51.1585 48.5434 51.5321 48.2942 51.8467 47.9797C52.1612 47.6651 52.4103 47.2914 52.5796 46.8801C52.749 46.4687 52.8352 46.0279 52.8333 45.5831Z" fill="#E7AD77"/>
<path fill-rule="evenodd" clip-rule="evenodd" d="M52.8333 45.5659C52.8333 43.6923 51.3144 42.2 49.4503 42.2C47.5859 42.2 46.0667 43.6923 46.0667 45.5659C46.0667 47.4399 47.5856 48.9666 49.4503 48.9666C51.3141 48.9666 52.8333 47.4399 52.8333 45.5659Z" fill="#E8AF79"/>
<path fill-rule="evenodd" clip-rule="evenodd" d="M52.8333 45.5656C52.8333 43.7075 51.3179 42.2 49.4505 42.2C47.5824 42.2 46.0667 43.7075 46.0667 45.5656C46.0667 47.4591 47.5821 48.9666 49.4505 48.9666C51.3179 48.9666 52.8333 47.4591 52.8333 45.5656Z" fill="#E8AF7B"/>
<path fill-rule="evenodd" clip-rule="evenodd" d="M52.8333 45.5833C52.8333 43.7316 51.3373 42.2 49.4503 42.2C47.5627 42.2 46.0667 43.7316 46.0667 45.5833C46.0667 47.4706 47.5623 48.9666 49.4503 48.9666C51.3373 48.9666 52.8333 47.4709 52.8333 45.5833Z" fill="#E8B17B"/>
<path fill-rule="evenodd" clip-rule="evenodd" d="M52.8333 45.5831C52.8338 45.1387 52.7466 44.6986 52.5767 44.2879C52.4069 43.8772 52.1577 43.5041 51.8435 43.1898C51.5293 42.8756 51.1561 42.6264 50.7455 42.4565C50.3348 42.2867 49.8947 42.1995 49.4503 42.2C49.0059 42.1994 48.5657 42.2865 48.155 42.4563C47.7442 42.6262 47.371 42.8753 47.0567 43.1896C46.7424 43.5038 46.4932 43.877 46.3233 44.2877C46.1534 44.6984 46.0662 45.1386 46.0667 45.5831C46.0661 46.0276 46.1533 46.4678 46.3232 46.8786C46.4931 47.2894 46.7423 47.6626 47.0566 47.9769C47.3709 48.2912 47.7441 48.5404 48.1549 48.7102C48.5656 48.88 49.0059 48.9672 49.4503 48.9666C49.8947 48.967 50.3349 48.8798 50.7455 48.7099C51.1562 48.54 51.5293 48.2908 51.8435 47.9765C52.1577 47.6622 52.4069 47.2891 52.5767 46.8784C52.7466 46.4677 52.8338 46.0275 52.8333 45.5831Z" fill="#E8B17D"/>
<path fill-rule="evenodd" clip-rule="evenodd" d="M52.8333 45.5648C52.8333 43.6996 51.3058 42.2 49.4505 42.2C47.5949 42.2 46.0667 43.6996 46.0667 45.5648C46.0667 47.4301 47.5946 48.9666 49.4505 48.9666C51.3058 48.9666 52.8333 47.4304 52.8333 45.5648Z" fill="#E8B17E"/>
<path fill-rule="evenodd" clip-rule="evenodd" d="M51.8667 45.5648C51.8667 43.716 50.5598 42.2 48.9668 42.2C48.5856 42.1985 48.2079 42.2845 47.8555 42.453C47.5031 42.6216 47.1829 42.8694 46.9133 43.1821C46.6437 43.4949 46.4302 43.8664 46.2849 44.2753C46.1396 44.6842 46.0654 45.1225 46.0667 45.5648C46.0667 47.4506 47.3414 48.9666 48.9668 48.9666C50.5598 48.9666 51.8667 47.4506 51.8667 45.5648Z" fill="#E9B381"/>
<path fill-rule="evenodd" clip-rule="evenodd" d="M51.8666 45.0998C51.8682 44.7186 51.7943 44.3408 51.6492 43.9882C51.504 43.6357 51.2905 43.3154 51.0209 43.0458C50.7514 42.7762 50.4311 42.5627 50.0785 42.4175C49.726 42.2723 49.3482 42.1984 48.967 42.2C48.5857 42.1984 48.2078 42.2723 47.8552 42.4174C47.5026 42.5626 47.1823 42.7761 46.9127 43.0457C46.643 43.3153 46.4294 43.6356 46.2842 43.9882C46.139 44.3407 46.0651 44.7185 46.0667 45.0998C46.0651 45.4811 46.139 45.8589 46.2842 46.2115C46.4294 46.5641 46.643 46.8844 46.9126 47.154C47.1823 47.4236 47.5026 47.6372 47.8552 47.7824C48.2078 47.9276 48.5856 48.0015 48.967 47.9999C49.3482 48.0015 49.726 47.9275 50.0786 47.7823C50.4311 47.6371 50.7514 47.4235 51.021 47.1539C51.2905 46.8843 51.5041 46.5639 51.6492 46.2114C51.7943 45.8588 51.8682 45.481 51.8666 45.0998Z" fill="#E9B381"/>
<path fill-rule="evenodd" clip-rule="evenodd" d="M51.8667 45.1C51.8667 43.5034 50.5632 42.2 48.967 42.2C47.3701 42.2 46.0667 43.5034 46.0667 45.1C46.0667 46.6965 47.3701 48 48.967 48C50.5632 48 51.8667 46.6965 51.8667 45.1Z" fill="#E9B583"/>
<path fill-rule="evenodd" clip-rule="evenodd" d="M51.8667 45.0834C51.8667 43.4926 50.5479 42.2 48.9668 42.2C47.3848 42.2 46.0667 43.4926 46.0667 45.0834C46.0667 46.7073 47.3848 48 48.9668 48C50.5479 48 51.8667 46.7073 51.8667 45.0834Z" fill="#E9B584"/>
<path fill-rule="evenodd" clip-rule="evenodd" d="M51.8667 45.0832C51.8667 43.5075 50.5849 42.2 48.967 42.2C47.3481 42.2 46.0667 43.5075 46.0667 45.0832C46.0667 46.6924 47.3481 48 48.967 48C50.5849 48 51.8667 46.6924 51.8667 45.0832Z" fill="#EAB786"/>
<path fill-rule="evenodd" clip-rule="evenodd" d="M51.8666 45.1C51.867 44.719 51.7922 44.3418 51.6466 43.9898C51.501 43.6379 51.2875 43.318 51.0182 43.0487C50.7488 42.7793 50.429 42.5657 50.0771 42.4201C49.7251 42.2745 49.3479 42.1996 48.967 42.2C47.3632 42.2 46.0667 43.4965 46.0667 45.1C46.0667 46.7034 47.3632 48 48.967 48C49.3479 48.0003 49.7251 47.9254 50.0771 47.7798C50.429 47.6342 50.7488 47.4206 51.0182 47.1512C51.2875 46.8819 51.501 46.562 51.6466 46.2101C51.7922 45.8581 51.867 45.4809 51.8666 45.1Z" fill="#EAB788"/>
<path fill-rule="evenodd" clip-rule="evenodd" d="M51.8667 45.1C51.8667 43.5119 50.555 42.2 48.9672 42.2C47.3787 42.2 46.0667 43.5119 46.0667 45.1C46.0667 46.7225 47.3787 48 48.9672 48C50.555 48 51.8667 46.7225 51.8667 45.1Z" fill="#EBB989"/>
<path fill-rule="evenodd" clip-rule="evenodd" d="M51.8666 45.0824C51.8666 43.5006 50.5739 42.2 48.9668 42.2C47.3594 42.2 46.0667 43.5006 46.0667 45.0824C46.0657 45.4658 46.1401 45.8457 46.2855 46.2001C46.4309 46.5545 46.6445 46.8765 46.914 47.1476C47.1835 47.4187 47.5036 47.6336 47.8559 47.7799C48.2082 47.9261 48.5857 48.0009 48.9668 47.9999C49.3479 48.0009 49.7254 47.9261 50.0776 47.7798C50.4299 47.6335 50.7499 47.4186 51.0194 47.1475C51.2889 46.8764 51.5024 46.5544 51.6478 46.2C51.7932 45.8456 51.8676 45.4658 51.8666 45.0824Z" fill="#EBB98A"/>
<path fill-rule="evenodd" clip-rule="evenodd" d="M51.8666 45.082C51.8682 44.7031 51.7943 44.3277 51.6492 43.9773C51.504 43.6269 51.2905 43.3086 51.0209 43.0407C50.7514 42.7727 50.4311 42.5605 50.0786 42.4162C49.726 42.2719 49.3482 42.1984 48.967 42.2C47.3556 42.2 46.0667 43.4806 46.0667 45.082C46.0667 46.6834 47.3556 48 48.967 48C50.5777 48 51.8666 46.6834 51.8666 45.082Z" fill="#EBBB8C"/>
<path fill-rule="evenodd" clip-rule="evenodd" d="M51.8667 45.0998C51.8667 43.5049 50.5622 42.2 48.9672 42.2C47.3718 42.2 46.0667 43.5046 46.0667 45.0998C46.0667 46.7309 47.3718 48 48.9672 48C50.5622 48 51.8667 46.7312 51.8667 45.0998Z" fill="#EBBB8C"/>
<path fill-rule="evenodd" clip-rule="evenodd" d="M51.8666 45.5831C51.8666 44.2678 50.5822 43.1665 48.9668 43.1665C47.3515 43.1665 46.0667 44.2675 46.0667 45.5831C46.0644 45.9011 46.1379 46.2162 46.2828 46.5103C46.4278 46.8043 46.6413 47.0715 46.9111 47.2963C47.1809 47.5211 47.5015 47.699 47.8543 47.8198C48.2072 47.9405 48.5854 48.0017 48.9668 47.9998C49.3483 48.0017 49.7264 47.9405 50.0793 47.8198C50.4321 47.699 50.7527 47.5211 51.0224 47.2963C51.2922 47.0715 51.5057 46.8043 51.6506 46.5102C51.7955 46.2162 51.8689 45.901 51.8666 45.5831Z" fill="#ECBD8F"/>
<path fill-rule="evenodd" clip-rule="evenodd" d="M51.8667 45.5674C51.8667 44.2267 50.5657 43.1665 48.967 43.1665C47.368 43.1665 46.0667 44.2264 46.0667 45.5674C46.0667 46.9085 47.368 47.9998 48.967 47.9998C50.5657 47.9998 51.8667 46.9085 51.8667 45.5674Z" fill="#ECBD90"/>
<path fill-rule="evenodd" clip-rule="evenodd" d="M51.8667 45.5674C51.8668 45.2521 51.8044 44.9399 51.6831 44.6486C51.5617 44.3572 51.3838 44.0925 51.1594 43.8696C50.935 43.6466 50.6686 43.4697 50.3753 43.3491C50.0821 43.2285 49.7678 43.1664 49.4505 43.1665C49.133 43.1663 48.8186 43.2283 48.5253 43.3489C48.232 43.4695 47.9655 43.6464 47.741 43.8693C47.5166 44.0923 47.3385 44.357 47.2171 44.6484C47.0956 44.9398 47.0332 45.252 47.0333 45.5674C47.0333 46.8941 48.1146 47.9998 49.4505 47.9998C50.7857 47.9998 51.8667 46.8941 51.8667 45.5674Z" fill="#ECBF93"/>
<path fill-rule="evenodd" clip-rule="evenodd" d="M51.8667 45.5832C51.8667 44.2621 50.7708 43.1665 49.4501 43.1665C48.0966 43.1665 47.0333 44.2621 47.0333 45.5832C47.0333 46.9365 48.0966 47.9998 49.4501 47.9998C50.7708 47.9998 51.8667 46.9365 51.8667 45.5832Z" fill="#ECBF93"/>
<path fill-rule="evenodd" clip-rule="evenodd" d="M51.8667 45.5832C51.8667 44.2442 50.7889 43.1665 49.4503 43.1665C48.1111 43.1665 47.0333 44.2439 47.0333 45.5832C47.0333 46.9224 48.1111 47.9998 49.4503 47.9998C49.7679 48.0005 50.0824 47.9385 50.3759 47.8173C50.6694 47.6961 50.9361 47.5181 51.1606 47.2936C51.3851 47.069 51.5631 46.8023 51.6843 46.5088C51.8054 46.2153 51.8674 45.9007 51.8667 45.5832Z" fill="#EDC195"/>
<path fill-rule="evenodd" clip-rule="evenodd" d="M51.8667 45.5663C51.8667 44.233 50.7748 43.1665 49.4503 43.1665C48.1258 43.1665 47.0333 44.2333 47.0333 45.5663C47.0333 46.8997 48.1258 47.9998 49.4503 47.9998C50.7745 47.9998 51.8667 46.8997 51.8667 45.5663Z" fill="#EDC196"/>
<path fill-rule="evenodd" clip-rule="evenodd" d="M51.8667 45.5663C51.8667 44.2481 50.7774 43.1665 49.4503 43.1665C48.1226 43.1665 47.0333 44.2481 47.0333 45.5663C47.0333 46.9182 48.1226 47.9998 49.4503 47.9998C50.7778 47.9998 51.8667 46.9182 51.8667 45.5663Z" fill="#EEC397"/>
<path fill-rule="evenodd" clip-rule="evenodd" d="M51.8666 45.583C51.8666 44.271 50.7967 43.1665 49.4503 43.1665C48.1036 43.1665 47.0334 44.2714 47.0334 45.583C47.0314 45.9009 47.0926 46.2161 47.2134 46.5102C47.3341 46.8044 47.5121 47.0716 47.7369 47.2964C47.9618 47.5212 48.229 47.6992 48.5231 47.8199C48.8172 47.9406 49.1324 48.0018 49.4503 47.9998C49.7682 48.0017 50.0833 47.9406 50.3774 47.8198C50.6714 47.699 50.9386 47.5211 51.1634 47.2963C51.3881 47.0714 51.566 46.8042 51.6868 46.5101C51.8075 46.216 51.8686 45.9009 51.8666 45.583Z" fill="#EEC399"/>
<path fill-rule="evenodd" clip-rule="evenodd" d="M51.8667 45.5832C51.8667 44.2523 50.7811 43.1665 49.4505 43.1665C48.1192 43.1665 47.0333 44.2523 47.0333 45.5832C47.0333 46.9144 48.1192 47.9998 49.4505 47.9998C50.7811 47.9998 51.8667 46.9144 51.8667 45.5832Z" fill="#EEC59B"/>
<path fill-rule="evenodd" clip-rule="evenodd" d="M51.8667 45.5653C51.8667 44.2406 50.7652 43.1665 49.4505 43.1665C48.1351 43.1665 47.0333 44.2406 47.0333 45.5653C47.0333 46.9261 48.1351 47.9998 49.4505 47.9998C50.7652 47.9998 51.8667 46.9261 51.8667 45.5653Z" fill="#EEC69D"/>
<path fill-rule="evenodd" clip-rule="evenodd" d="M51.8667 45.565C51.8667 44.2571 50.8047 43.1665 49.4503 43.1665C48.0952 43.1665 47.0333 44.2568 47.0333 45.565C47.0333 46.9096 48.0952 47.9998 49.4503 47.9998C50.8047 47.9998 51.8667 46.9096 51.8667 45.565Z" fill="#EEC69F"/>
<path fill-rule="evenodd" clip-rule="evenodd" d="M51.8667 45.5832C51.8673 45.2657 51.8052 44.9512 51.684 44.6578C51.5628 44.3644 51.3849 44.0977 51.1604 43.8732C50.9359 43.6487 50.6693 43.4707 50.3759 43.3494C50.0825 43.2281 49.768 43.166 49.4505 43.1665C49.1329 43.1658 48.8184 43.2279 48.5248 43.3491C48.2313 43.4703 47.9645 43.6483 47.74 43.8728C47.5154 44.0974 47.3373 44.364 47.2161 44.6575C47.0948 44.951 47.0327 45.2656 47.0333 45.5832C47.0327 45.9007 47.0948 46.2153 47.2161 46.5088C47.3373 46.8023 47.5154 47.069 47.74 47.2935C47.9645 47.518 48.2313 47.696 48.5248 47.8172C48.8184 47.9384 49.1329 48.0005 49.4505 47.9998C49.768 48.0004 50.0825 47.9383 50.376 47.817C50.6694 47.6958 50.936 47.5178 51.1605 47.2932C51.385 47.0687 51.5629 46.8021 51.6841 46.5086C51.8053 46.2151 51.8673 45.9007 51.8667 45.5832Z" fill="#EFC89F"/>
<path fill-rule="evenodd" clip-rule="evenodd" d="M50.9 45.583C50.9 44.2617 50.024 43.1665 48.9668 43.1665C47.9093 43.1665 47.0333 44.2617 47.0333 45.583C47.0326 45.9007 47.082 46.2154 47.1789 46.5091C47.2758 46.8028 47.4182 47.0696 47.5979 47.2942C47.7776 47.5189 47.9911 47.6968 48.226 47.8179C48.4609 47.939 48.7127 48.0008 48.9668 47.9998C49.2209 48.0008 49.4726 47.9389 49.7075 47.8178C49.9424 47.6967 50.1558 47.5187 50.3355 47.2941C50.5152 47.0695 50.6575 46.8027 50.7544 46.509C50.8513 46.2153 50.9008 45.9006 50.9 45.583Z" fill="#EFC8A1"/>
<path fill-rule="evenodd" clip-rule="evenodd" d="M50.9 45.5636C50.9 44.2493 50.0407 43.1665 48.967 43.1665C47.8926 43.1665 47.0333 44.2493 47.0333 45.5636C47.0323 45.884 47.0816 46.2014 47.1784 46.4976C47.2752 46.7938 47.4176 47.0629 47.5973 47.2894C47.7771 47.5159 47.9907 47.6953 48.2258 47.8172C48.4608 47.9391 48.7127 48.0012 48.967 47.9998C49.2211 48.0011 49.473 47.939 49.708 47.817C49.943 47.695 50.1565 47.5156 50.3362 47.2891C50.5159 47.0626 50.6582 46.7936 50.755 46.4974C50.8518 46.2013 50.901 45.8839 50.9 45.5636Z" fill="#EFCAA3"/>
<path fill-rule="evenodd" clip-rule="evenodd" d="M50.9 45.084C50.9016 44.8317 50.8528 44.5817 50.7562 44.3483C50.6597 44.115 50.5174 43.9029 50.3376 43.7246C50.1578 43.5462 49.944 43.405 49.7088 43.3092C49.4735 43.2134 49.2214 43.1649 48.9671 43.1665C48.7128 43.1649 48.4606 43.2133 48.2253 43.3091C47.9899 43.4049 47.7761 43.546 47.5962 43.7244C47.4163 43.9028 47.274 44.1148 47.1773 44.3482C47.0807 44.5816 47.0318 44.8317 47.0334 45.084C47.0334 46.1529 47.8892 47.0332 48.9671 47.0332C50.0444 47.0332 50.9 46.1532 50.9 45.084Z" fill="#EFCAA3"/>
<path fill-rule="evenodd" clip-rule="evenodd" d="M50.9 45.0997C50.9 44.0363 50.0302 43.1665 48.9671 43.1665C47.9034 43.1665 47.0333 44.0363 47.0333 45.0997C47.0333 46.1631 47.9034 47.0332 48.9671 47.0332C50.0299 47.0332 50.9 46.1631 50.9 45.0997Z" fill="#F0CCA6"/>
<path fill-rule="evenodd" clip-rule="evenodd" d="M50.9 45.0997C50.9 44.0513 50.0149 43.1665 48.967 43.1665C47.8853 43.1665 47.0333 44.0513 47.0333 45.0997C47.0333 46.1811 47.8853 47.0332 48.967 47.0332C50.0149 47.0332 50.9 46.1811 50.9 45.0997Z" fill="#F0CCA8"/>
<path fill-rule="evenodd" clip-rule="evenodd" d="M50.9 45.0829C50.9 44.0072 50.033 43.1665 48.967 43.1665C47.9003 43.1665 47.0333 44.0072 47.0333 45.0829C47.0337 45.6001 47.2375 46.096 47.6001 46.4617C47.9626 46.8274 48.4543 47.0329 48.967 47.0332C49.4796 47.0327 49.971 46.8271 50.3335 46.4614C50.6959 46.0958 50.8996 45.6 50.9 45.0829Z" fill="#F1CEAA"/>
<path fill-rule="evenodd" clip-rule="evenodd" d="M50.9 45.0826C50.9005 44.8308 50.8508 44.5815 50.7539 44.3488C50.6569 44.1162 50.5146 43.9048 50.335 43.7268C50.1554 43.5487 49.9421 43.4076 49.7074 43.3115C49.4727 43.2153 49.2211 43.1661 48.9672 43.1665C47.8965 43.1665 47.0333 44.0217 47.0333 45.0826C47.0333 46.1434 47.8965 47.0332 48.9672 47.0332C50.0371 47.0332 50.9 46.1434 50.9 45.0826Z" fill="#F1CEAA"/>
<path fill-rule="evenodd" clip-rule="evenodd" d="M50.9 45.0998C50.9 44.0457 50.0211 43.1665 48.9668 43.1665C47.9119 43.1665 47.0333 44.0453 47.0333 45.0998C47.0326 45.3539 47.0821 45.6057 47.179 45.8406C47.2758 46.0755 47.4182 46.2889 47.5979 46.4686C47.7776 46.6483 47.9911 46.7907 48.226 46.8876C48.4609 46.9844 48.7127 47.0339 48.9668 47.0332C49.2209 47.0339 49.4727 46.9844 49.7075 46.8875C49.9424 46.7906 50.1558 46.6482 50.3355 46.4685C50.5152 46.2888 50.6575 46.0754 50.7544 45.8405C50.8513 45.6056 50.9007 45.3539 50.9 45.0998Z" fill="#F1D0AD"/>
<path fill-rule="evenodd" clip-rule="evenodd" d="M50.9 45.0997C50.9 44.0613 50.0405 43.1665 48.967 43.1665C47.8924 43.1665 47.0333 44.0613 47.0333 45.0997C47.0322 45.3539 47.0815 45.6058 47.1783 45.8409C47.2751 46.076 47.4175 46.2895 47.5972 46.4693C47.777 46.6491 47.9906 46.7914 48.2257 46.8882C48.4608 46.985 48.7128 47.0343 48.967 47.0332C49.2212 47.0342 49.4731 46.9848 49.7081 46.888C49.9431 46.7912 50.1566 46.6488 50.3363 46.4691C50.516 46.2893 50.6584 46.0757 50.7551 45.8407C50.8518 45.6057 50.9011 45.3538 50.9 45.0997Z" fill="#F1D0AE"/>
<path fill-rule="evenodd" clip-rule="evenodd" d="M50.9 45.0814C50.9 44.0133 50.0243 43.1665 48.967 43.1665C47.909 43.1665 47.0333 44.0133 47.0333 45.0814C47.0333 46.1495 47.909 47.0332 48.967 47.0332C50.0243 47.0332 50.9 46.1492 50.9 45.0814Z" fill="#F2D2B1"/>
<path fill-rule="evenodd" clip-rule="evenodd" d="M50.9 45.5692C50.9 44.781 50.0276 44.1333 48.9668 44.1333C47.9053 44.1333 47.0333 44.781 47.0333 45.5692C47.0333 46.3858 47.9057 47.0333 48.9668 47.0333C50.0276 47.0333 50.9 46.3856 50.9 45.5692Z" fill="#F2D2B3"/>
<path fill-rule="evenodd" clip-rule="evenodd" d="M50.9 45.5833C50.9 44.8002 50.0487 44.1333 48.967 44.1333C47.8842 44.1333 47.0333 44.8002 47.0333 45.5833C47.0333 46.3954 47.8846 47.0333 48.967 47.0333C50.0491 47.0333 50.9 46.3951 50.9 45.5833Z" fill="#F3D4B4"/>
<path fill-rule="evenodd" clip-rule="evenodd" d="M50.9 45.5833C50.8995 45.1989 50.7466 44.8305 50.4748 44.5587C50.2031 44.2869 49.8346 44.1339 49.4503 44.1333C48.6509 44.1333 48 44.7845 48 45.5833C48 46.3821 48.6509 47.0333 49.4503 47.0333C49.8346 47.0326 50.203 46.8796 50.4747 46.6078C50.7465 46.336 50.8994 45.9676 50.9 45.5833Z" fill="#F3D4B5"/>
<path fill-rule="evenodd" clip-rule="evenodd" d="M50.9 45.568C50.9 44.7745 50.2355 44.1333 49.4504 44.1333C48.6645 44.1333 48 44.7745 48 45.568C48 46.3924 48.6648 47.0333 49.4504 47.0333C50.2358 47.0333 50.9 46.3921 50.9 45.568Z" fill="#F3D4B7"/>
<path fill-rule="evenodd" clip-rule="evenodd" d="M50.9 45.5677C50.9005 45.3792 50.8634 45.1925 50.7907 45.0182C50.7181 44.844 50.6113 44.6857 50.4766 44.5524C50.3419 44.4191 50.1818 44.3134 50.0057 44.2415C49.8296 44.1696 49.6408 44.1328 49.4503 44.1333C49.2597 44.1327 49.0709 44.1695 48.8947 44.2414C48.7185 44.3132 48.5584 44.4189 48.4236 44.5522C48.2889 44.6855 48.182 44.8438 48.1093 45.0181C48.0366 45.1924 47.9995 45.3792 48 45.5677C48 46.3786 48.6306 47.0333 49.4503 47.0333C50.2697 47.0333 50.9 46.3783 50.9 45.5677Z" fill="#F3D6B8"/>
<path fill-rule="evenodd" clip-rule="evenodd" d="M50.9 45.5833C50.9008 45.3927 50.8638 45.2038 50.7912 45.0276C50.7187 44.8513 50.6119 44.6912 50.4772 44.5564C50.3424 44.4216 50.1823 44.3148 50.006 44.2422C49.8298 44.1696 49.6409 44.1326 49.4503 44.1333C48.6446 44.1333 48 44.7779 48 45.5833C48 46.3887 48.6446 47.0333 49.4503 47.0333C49.6409 47.034 49.8298 46.997 50.006 46.9244C50.1823 46.8518 50.3424 46.745 50.4772 46.6102C50.6119 46.4754 50.7187 46.3153 50.7912 46.139C50.8638 45.9628 50.9008 45.7739 50.9 45.5833Z" fill="#F4D8BA"/>
<path fill-rule="evenodd" clip-rule="evenodd" d="M50.9 45.5833C50.9 44.7922 50.2408 44.1333 49.4502 44.1333C48.6595 44.1333 48 44.7926 48 45.5833C48 46.4073 48.6595 47.0333 49.4502 47.0333C50.2408 47.0333 50.9 46.407 50.9 45.5833Z" fill="#F4D9BC"/>
<path fill-rule="evenodd" clip-rule="evenodd" d="M50.9 45.5662C50.9 44.7814 50.2595 44.1333 49.4502 44.1333C48.6408 44.1333 48 44.7814 48 45.5662C48 46.3852 48.6408 47.0333 49.4502 47.0333C50.2595 47.0333 50.9 46.3849 50.9 45.5662Z" fill="#F4D9BE"/>
<path fill-rule="evenodd" clip-rule="evenodd" d="M50.9 45.5658C50.9 44.7621 50.2636 44.1333 49.4503 44.1333C48.6364 44.1333 48 44.7621 48 45.5658C48 46.3696 48.6364 47.0333 49.4503 47.0333C50.2636 47.0333 50.9 46.3693 50.9 45.5658Z" fill="#F4DBBF"/>
<path fill-rule="evenodd" clip-rule="evenodd" d="M50.9 45.5833C50.8989 45.1991 50.7458 44.8309 50.4741 44.5592C50.2025 44.2875 49.8343 44.1344 49.4502 44.1333C48.6523 44.1333 48 44.7856 48 45.5833C48 46.381 48.6523 47.0333 49.4502 47.0333C49.8343 47.0322 50.2025 46.8791 50.4741 46.6074C50.7458 46.3357 50.8989 45.9675 50.9 45.5833Z" fill="#F4DBC0"/>
<path fill-rule="evenodd" clip-rule="evenodd" d="M50.9 45.5833C50.9 44.8024 50.2307 44.1333 49.4502 44.1333C48.6693 44.1333 48 44.8024 48 45.5833C48 46.4014 48.6693 47.0333 49.4502 47.0333C50.2303 47.0333 50.9 46.4014 50.9 45.5833Z" fill="#F5DDC3"/>
<path fill-rule="evenodd" clip-rule="evenodd" d="M50.9 45.564C50.9 44.7905 50.2511 44.1333 49.4504 44.1333C48.6489 44.1333 48 44.7905 48 45.564C48 45.9537 48.1528 46.3274 48.4247 46.6029C48.6966 46.8785 49.0654 47.0333 49.45 47.0333C49.8346 47.0333 50.2034 46.8785 50.4753 46.6029C50.7472 46.3274 50.9 45.9537 50.9 45.564Z" fill="#F5DDC3"/>
<path fill-rule="evenodd" clip-rule="evenodd" d="M49.9333 45.5632C49.9333 44.7684 49.5043 44.1333 48.9671 44.1333C48.4298 44.1333 48 44.7688 48 45.5632C48 46.3577 48.4298 47.0333 48.9671 47.0333C49.5043 47.0333 49.9333 46.358 49.9333 45.5632Z" fill="#F6DFC6"/>
<path fill-rule="evenodd" clip-rule="evenodd" d="M49.9333 45.5831C49.9333 44.7957 49.4916 44.1333 48.9669 44.1333C48.4418 44.1333 48 44.7961 48 45.5831C48 46.412 48.4418 47.0333 48.9669 47.0333C49.4916 47.0333 49.9333 46.412 49.9333 45.5831Z" fill="#F6DFC7"/>
<path fill-rule="evenodd" clip-rule="evenodd" d="M49.9333 45.5831C49.9333 44.8155 49.507 44.1333 48.9669 44.1333C48.4264 44.1333 48 44.8155 48 45.5831C47.999 45.774 48.0233 45.9633 48.0715 46.14C48.1197 46.3167 48.1909 46.4772 48.2809 46.6122C48.3709 46.7472 48.4779 46.8539 48.5957 46.9262C48.7135 46.9985 48.8397 47.0349 48.9669 47.0332C49.0942 47.0348 49.2203 46.9983 49.338 46.926C49.4558 46.8537 49.5627 46.7469 49.6527 46.6119C49.7426 46.4769 49.8137 46.3165 49.8619 46.1398C49.9101 45.9632 49.9344 45.7739 49.9333 45.5831Z" fill="#F6E1CA"/>
<path fill-rule="evenodd" clip-rule="evenodd" d="M49.9333 45.085C49.9333 44.5496 49.494 44.1333 48.9671 44.1333C48.4396 44.1333 48 44.5496 48 45.085C48 45.6205 48.4393 46.0666 48.9671 46.0666C49.4943 46.0666 49.9333 45.6205 49.9333 45.085Z" fill="#F6E1CC"/>
<path fill-rule="evenodd" clip-rule="evenodd" d="M49.9333 45.0846C49.9321 44.8328 49.8299 44.5916 49.6489 44.4134C49.468 44.2353 49.2229 44.1346 48.967 44.1333C48.7109 44.1345 48.4657 44.2351 48.2846 44.4132C48.1036 44.5914 48.0013 44.8327 48 45.0846C48 45.6371 48.4367 46.0666 48.967 46.0666C49.4966 46.0666 49.9333 45.6371 49.9333 45.0846Z" fill="#F7E3CD"/>
<path fill-rule="evenodd" clip-rule="evenodd" d="M49.9333 45.0998C49.9333 44.5843 49.5143 44.1333 48.967 44.1333C48.4191 44.1333 48 44.5843 48 45.0998C48 45.6475 48.4191 46.0666 48.967 46.0666C49.5143 46.0666 49.9333 45.6475 49.9333 45.0998Z" fill="#F7E3CF"/>
<path fill-rule="evenodd" clip-rule="evenodd" d="M49.9333 45.1C49.9332 44.8438 49.83 44.5981 49.6465 44.4168C49.463 44.2356 49.2141 44.1336 48.9545 44.1333C48.6991 44.1398 48.4564 44.2445 48.2781 44.4251C48.0998 44.6057 48 44.8478 48 45.1C48 45.3521 48.0998 45.5943 48.2781 45.7748C48.4564 45.9554 48.6991 46.0601 48.9545 46.0666C49.2141 46.0664 49.463 45.9644 49.6466 45.7832C49.8301 45.6019 49.9332 45.3562 49.9333 45.1Z" fill="#F7E3D0"/>
<path fill-rule="evenodd" clip-rule="evenodd" d="M49.9333 45.0824C49.9333 44.5553 49.4849 44.1333 48.967 44.1333C48.4485 44.1333 48 44.5553 48 45.0824C47.9997 45.2117 48.0246 45.3398 48.0731 45.4594C48.1216 45.5789 48.1928 45.6875 48.2826 45.779C48.3725 45.8704 48.4792 45.9429 48.5966 45.9923C48.7141 46.0416 48.8399 46.0669 48.967 46.0666C49.094 46.0669 49.2198 46.0415 49.3372 45.9922C49.4546 45.9428 49.5612 45.8703 49.651 45.7788C49.7408 45.6874 49.812 45.5788 49.8604 45.4593C49.9089 45.3398 49.9336 45.2117 49.9333 45.0824Z" fill="#F8E5D1"/>
<path fill-rule="evenodd" clip-rule="evenodd" d="M49.9333 45.0816C49.9333 44.571 49.5245 44.1333 48.967 44.1333C48.8398 44.1324 48.7137 44.1563 48.596 44.2036C48.4783 44.2509 48.3714 44.3207 48.2814 44.4089C48.1914 44.4971 48.1202 44.6021 48.0719 44.7175C48.0236 44.833 47.9992 44.9567 48 45.0816C48 45.6286 48.4088 46.0666 48.967 46.0666C49.5245 46.0666 49.9333 45.629 49.9333 45.0816Z" fill="#F8E8D4"/>
<path fill-rule="evenodd" clip-rule="evenodd" d="M49.9333 45.1C49.9346 44.9727 49.9105 44.8465 49.8624 44.7287C49.8143 44.6109 49.7432 44.5038 49.6532 44.4138C49.5633 44.3238 49.4562 44.2526 49.3384 44.2045C49.2206 44.1563 49.0943 44.1321 48.967 44.1333C48.8397 44.1321 48.7134 44.1562 48.5955 44.2044C48.4776 44.2525 48.3705 44.3237 48.2805 44.4137C48.1904 44.5037 48.1193 44.6107 48.0711 44.7286C48.023 44.8464 47.9988 44.9727 48.0001 45.1C47.9987 45.2273 48.0229 45.3535 48.071 45.4714C48.1191 45.5893 48.1903 45.6964 48.2804 45.7864C48.3704 45.8764 48.4775 45.9475 48.5955 45.9957C48.7134 46.0438 48.8397 46.0679 48.967 46.0666C49.0943 46.0678 49.2206 46.0436 49.3384 45.9954C49.4562 45.9473 49.5633 45.8761 49.6532 45.7861C49.7432 45.6961 49.8143 45.5891 49.8624 45.4712C49.9105 45.3534 49.9346 45.2272 49.9333 45.1Z" fill="#F8E8D6"/>
<path fill-rule="evenodd" clip-rule="evenodd" d="M49.9333 45.5729C49.9333 45.3056 49.4897 45.0999 48.9667 45.0999C48.4429 45.0999 48 45.3054 48 45.5729C48 45.8404 48.4429 46.0665 48.9667 46.0665C49.4897 46.0665 49.9333 45.8404 49.9333 45.5729Z" fill="#F8E8D8"/>
<path fill-rule="evenodd" clip-rule="evenodd" d="M49.9333 45.5725C49.9333 45.3148 49.4704 45.0999 48.9671 45.0999C48.4621 45.0999 48 45.3148 48 45.5725C48 45.8516 48.4621 46.0665 48.9671 46.0665C49.4704 46.0665 49.9333 45.8518 49.9333 45.5725Z" fill="#F9EAD9"/>
<path fill-rule="evenodd" clip-rule="evenodd" d="M49.9333 45.572C49.9333 45.3248 49.5186 45.0999 48.9671 45.0999C48.4138 45.0999 48 45.3246 48 45.572C48 45.8418 48.4138 46.0665 48.9671 46.0665C49.5186 46.0665 49.9333 45.8418 49.9333 45.572Z" fill="#FAECDC"/>
<path fill-rule="evenodd" clip-rule="evenodd" d="M49.9333 45.5832C49.9329 45.4551 49.8818 45.3324 49.7913 45.2419C49.7007 45.1513 49.5781 45.1003 49.45 45.0999C49.1838 45.0999 48.9667 45.3172 48.9667 45.5832C48.9667 45.8491 49.1838 46.0665 49.45 46.0665C49.5781 46.0661 49.7008 46.0151 49.7914 45.9245C49.8819 45.834 49.933 45.7113 49.9333 45.5832Z" fill="#FAECDD"/>
<path fill-rule="evenodd" clip-rule="evenodd" d="M49.9333 45.57C49.9333 45.3088 49.7043 45.0999 49.4503 45.0999C49.1958 45.0999 48.9667 45.3088 48.9667 45.57C48.9667 45.8573 49.1958 46.0665 49.4503 46.0665C49.5137 46.0665 49.5766 46.0537 49.6352 46.0287C49.6938 46.0038 49.7471 45.9672 49.7919 45.9211C49.8368 45.875 49.8724 45.8202 49.8966 45.76C49.9209 45.6998 49.9334 45.6352 49.9333 45.57Z" fill="#FAECDF"/>
<path fill-rule="evenodd" clip-rule="evenodd" d="M49.9333 45.5692C49.9333 45.3207 49.7186 45.0999 49.4501 45.0999C49.1814 45.0999 48.9667 45.3207 48.9667 45.5692C48.9667 45.8456 49.1814 46.0665 49.4501 46.0665C49.5137 46.0668 49.5766 46.0541 49.6354 46.0292C49.6941 46.0043 49.7475 45.9676 49.7924 45.9214C49.8374 45.8752 49.8729 45.8203 49.8971 45.7598C49.9213 45.6994 49.9336 45.6346 49.9333 45.5692Z" fill="#FAEEE0"/>
<path fill-rule="evenodd" clip-rule="evenodd" d="M49.9333 45.5685C49.9333 45.3049 49.7214 45.0999 49.4503 45.0999C49.1783 45.0999 48.9667 45.3049 48.9667 45.5685C48.9667 45.8322 49.1786 46.0665 49.4503 46.0665C49.7217 46.0665 49.9333 45.8322 49.9333 45.5685Z" fill="#FBF0E3"/>
<path fill-rule="evenodd" clip-rule="evenodd" d="M49.9333 45.5832C49.9333 45.3254 49.7073 45.0999 49.4503 45.0999C49.1927 45.0999 48.9667 45.3254 48.9667 45.5832C48.9667 45.8732 49.1927 46.0665 49.4503 46.0665C49.7073 46.0665 49.9333 45.8732 49.9333 45.5832Z" fill="#FBF1E5"/>
<path fill-rule="evenodd" clip-rule="evenodd" d="M49.9333 45.5651C49.9333 45.3146 49.7259 45.0999 49.4503 45.0999C49.1742 45.0999 48.9667 45.3146 48.9667 45.5651C48.9667 45.8518 49.1742 46.0665 49.4503 46.0665C49.7259 46.0665 49.9333 45.8518 49.9333 45.5651Z" fill="#FBF1E7"/>
<path fill-rule="evenodd" clip-rule="evenodd" d="M49.9333 45.5639C49.9333 45.2932 49.7106 45.0999 49.4504 45.0999C49.1894 45.0999 48.9667 45.2932 48.9667 45.5639C48.9667 45.8349 49.1894 46.0665 49.4504 46.0665C49.7106 46.0665 49.9333 45.8345 49.9333 45.5639Z" fill="#FCF3E8"/>
<path fill-rule="evenodd" clip-rule="evenodd" d="M49.9333 45.562C49.9333 45.3099 49.7134 45.0999 49.4504 45.0999C49.1866 45.0999 48.9667 45.3103 48.9667 45.562C48.9667 45.8565 49.1866 46.0665 49.4504 46.0665C49.7134 46.0665 49.9333 45.8565 49.9333 45.562Z" fill="#FCF3EA"/>
<path fill-rule="evenodd" clip-rule="evenodd" d="M49.9333 45.583C49.9333 45.3414 49.74 45.0999 49.4505 45.0999C49.16 45.0999 48.9667 45.3414 48.9667 45.583C48.9667 45.8733 49.16 46.0665 49.4505 46.0665C49.74 46.0665 49.9333 45.8733 49.9333 45.583Z" fill="#FCF5ED"/>
<path fill-rule="evenodd" clip-rule="evenodd" d="M49.9333 45.5548C49.9333 45.2704 49.7185 45.0999 49.4505 45.0999C49.1815 45.0999 48.9667 45.2704 48.9667 45.5548C48.9667 45.8391 49.1815 46.0665 49.4505 46.0665C49.514 46.0667 49.577 46.0536 49.6357 46.028C49.6944 46.0024 49.7477 45.9647 49.7926 45.9171C49.8375 45.8695 49.873 45.813 49.8972 45.7508C49.9213 45.6886 49.9336 45.622 49.9333 45.5548Z" fill="#FCF5EF"/>
<path fill-rule="evenodd" clip-rule="evenodd" d="M49.9333 45.5507C49.9333 45.2931 49.6914 45.0999 49.4506 45.0999C49.2086 45.0999 48.9667 45.2937 48.9667 45.5507C48.9667 45.8083 49.2086 46.0665 49.4506 46.0665C49.6914 46.0665 49.9333 45.8083 49.9333 45.5507Z" fill="#FDF8F1"/>
<path fill-rule="evenodd" clip-rule="evenodd" d="M58.0526 47.3481L55.6368 41.2332H53.6631L57.5424 50.5751H58.4952L62.4421 41.2332H60.5025L58.0526 47.3481ZM63.2589 50.3377H68.2947V48.8088H65.0281V46.3628H68.1583V44.8002H65.0281V42.7958H68.2947V41.2332H63.2589V50.3377ZM75.3378 43.9168C75.3378 42.2184 74.1806 41.2332 72.1055 41.2332H69.4853V50.3374H71.2545V46.7024H71.4926L73.9425 50.3374H76.1202L73.2621 46.4983C74.5888 46.227 75.3378 45.3096 75.3378 43.9168ZM71.7647 45.4458H71.2545V42.6602H71.7987C72.9216 42.6602 73.4996 43.1357 73.4996 44.0191C73.4999 44.9361 72.9219 45.4458 71.7647 45.4458ZM19.3626 53.0109V53.8266H20.3716V54.1567H19.3626V55.5778H19V52.6805H20.4046V53.0109H19.3626ZM22.0609 52.6805H22.4238V55.5778H22.0609V52.6805ZM24.1758 52.5413L26.3523 54.8214V52.6805H26.7149V55.6972L24.5362 53.4184V55.5778H24.1758V52.5413ZM30.07 54.5217H29.0363L29.5528 53.3485L30.07 54.5217ZM30.2186 54.8521L30.5495 55.5778H30.9399L29.5531 52.5575L28.167 55.5778H28.5558L28.8877 54.8521H30.2186ZM32.3914 52.5413L34.5701 54.8214V52.6805H34.9331V55.6972L32.7517 53.4184V55.5778H32.3914V52.5413ZM38.8037 53.2344C38.5973 53.0491 38.3113 52.9499 38.0375 52.9499C37.3886 52.9499 36.8919 53.4916 36.8919 54.1336C36.8919 54.7677 37.3836 55.3091 38.0309 55.3091C38.3163 55.3091 38.5884 55.2023 38.8034 55.0094V55.4367C38.5711 55.5681 38.3089 55.638 38.0418 55.6395C37.2125 55.6395 36.5282 54.9827 36.5282 54.1445C36.5282 53.2872 37.2172 52.6178 38.0735 52.6178C38.3282 52.6178 38.5854 52.6805 38.8031 52.8147V53.2344H38.8037ZM40.4692 52.6805H40.8299V55.5778H40.4692V52.6805ZM44.2108 54.5217H43.1774L43.6965 53.3485L44.2108 54.5217ZM44.3597 54.8521L44.6916 55.5778H45.0803L43.6965 52.5575L42.3098 55.5778H42.6975L43.0284 54.8521H44.3597ZM46.9285 55.2491H47.8106V55.5778H46.5678V52.6805H46.9285V55.2491ZM52.9382 53.2305C52.8332 53.0488 52.6938 52.9568 52.4725 52.9568C52.241 52.9568 51.9861 53.1141 51.9861 53.3686C51.9861 53.5945 52.2126 53.7145 52.3923 53.7834L52.5987 53.8649C53.0122 54.0255 53.32 54.253 53.32 54.7367C53.32 55.2639 52.9111 55.6395 52.3923 55.6395C51.922 55.6395 51.5564 55.2943 51.4963 54.829L51.8612 54.7529C51.8566 55.0711 52.1109 55.3019 52.421 55.3019C52.7338 55.3019 52.9564 55.0414 52.9564 54.7367C52.9564 54.4261 52.7067 54.2909 52.457 54.1864L52.2575 54.103C51.9253 53.9605 51.6254 53.7726 51.6254 53.3686C51.6254 52.8991 52.0409 52.6178 52.4808 52.6178C52.8028 52.6178 53.069 52.7764 53.2259 53.0564L52.9382 53.2305ZM54.9584 52.6805H56.5186V53.0109H55.3214V53.823H56.4859V54.1531H55.3214V55.2491H56.5186V55.5778H54.9584V52.6805ZM58.5731 53.0033H58.6659C59.0272 53.0033 59.4572 53.0686 59.4572 53.523C59.4572 53.9836 59.0546 54.0522 58.6857 54.0522H58.5728V53.0033H58.5731ZM59.0996 54.3183C59.519 54.2675 59.7961 53.9226 59.7961 53.5068C59.7961 53.2305 59.6567 52.9568 59.4136 52.8144C59.1834 52.6841 58.906 52.6805 58.6494 52.6805H58.2108V55.5778H58.5734V54.3535H58.7224L59.5771 55.5778H60.015L59.0996 54.3183ZM62.5016 54.8251L63.3639 52.6805H63.7612L62.5016 55.7332L61.2396 52.6805H61.6363L62.5016 54.8251ZM65.2391 52.6805H65.6014V55.5778H65.2391V52.6805ZM69.5041 53.2344C69.295 53.0491 69.0087 52.9499 68.7339 52.9499C68.0856 52.9499 67.5889 53.4916 67.5889 54.1336C67.5889 54.7677 68.0803 55.3091 68.7273 55.3091C69.013 55.3091 69.2878 55.2023 69.5041 55.0094V55.4367C69.2709 55.5679 69.0082 55.6377 68.7405 55.6395C67.9135 55.6395 67.2259 54.9827 67.2259 54.1445C67.2259 53.2872 67.9182 52.6178 68.7709 52.6178C69.0255 52.6178 69.2831 52.6805 69.5044 52.8147V53.2344H69.5041ZM71.1759 52.6805H72.7357V53.0109H71.5391V53.823H72.7013V54.1531H71.5391V55.2491H72.7357V55.5778H71.1759V52.6805ZM75.7143 53.2305C75.6086 53.0488 75.4699 52.9568 75.2506 52.9568C75.0204 52.9568 74.7655 53.1141 74.7655 53.3686C74.7655 53.5945 74.99 53.7145 75.1694 53.7834L75.3791 53.8649C75.7893 54.0255 76.0971 54.253 76.0971 54.7367C76.0971 55.2639 75.6889 55.6395 75.1694 55.6395C74.7011 55.6395 74.3328 55.2943 74.274 54.829L74.638 54.7529C74.6334 55.0711 74.8896 55.3019 75.2004 55.3019C75.5125 55.3019 75.7364 55.0414 75.7364 54.7367C75.7364 54.4261 75.4841 54.2909 75.2351 54.1864L75.0353 54.103C74.703 53.9605 74.4032 53.7726 74.4032 53.3686C74.4032 52.8991 74.8193 52.6178 75.2585 52.6178C75.5805 52.6178 75.8474 52.7764 76.0062 53.0564L75.7143 53.2305ZM76.3775 42.0407C76.3775 42.1106 76.3296 42.1475 76.2325 42.1475H76.1995V41.9388H76.2348C76.3312 41.9391 76.3775 41.9721 76.3775 42.0407ZM76.6621 42.5923L76.3976 42.2606C76.5106 42.2316 76.5756 42.1492 76.5756 42.0357C76.5756 41.8788 76.4653 41.7901 76.2691 41.7901H76.0132V42.5923H76.2028V42.2817L76.428 42.5923H76.6621ZM77 42.1897C77 41.8066 76.6879 41.4907 76.3091 41.4907C76.2169 41.4901 76.1255 41.5077 76.0402 41.5426C75.9549 41.5775 75.8773 41.6289 75.8121 41.694C75.7468 41.759 75.6951 41.8363 75.6599 41.9214C75.6248 42.0065 75.6069 42.0977 75.6073 42.1897C75.6073 42.5791 75.9207 42.8897 76.3091 42.8897C76.6879 42.8894 77 42.5738 77 42.1897ZM76.8587 42.1917C76.8587 42.5063 76.611 42.7641 76.3058 42.7641C75.9986 42.7641 75.746 42.5076 75.746 42.1917C75.746 41.8722 75.9963 41.6183 76.3058 41.6183C76.611 41.6183 76.8587 41.8761 76.8587 42.1917Z" fill="black"/>
</svg>
