<svg width="96" height="96" viewBox="0 0 96 96" fill="none" xmlns="http://www.w3.org/2000/svg">
<circle cx="48" cy="48" r="47" fill="white" stroke="white" stroke-width="2"/>
<g clip-path="url(#clip0_1_7141)">
<path d="M18.7209 38.4091C18.7209 38.4091 19.9574 38.9867 22.4875 38.9867H37.584C37.584 38.9867 39.1397 39.0564 39.9528 40.3709C40.7659 41.6821 39.9158 43.2156 39.8117 43.4281C39.7041 43.6372 39.4589 44.4239 39.936 44.5467C40.4131 44.6695 40.5542 44.56 40.7323 44.2911C40.907 44.0222 45.9336 36.9585 46.0344 36.8357C46.1352 36.7129 46.3133 36.0158 45.4867 35.0034C45.4867 35.0034 46.7232 35.6308 47.8925 35.6308H52.9123C52.9123 35.6308 55.2442 35.5378 55.0157 37.8315C54.8914 38.9834 54.3101 42.2829 54.3101 42.2829C54.3101 42.2829 54.0984 41.6555 52.9661 41.6555C52.9661 41.6555 52.7712 42.4488 52.825 43.0563C52.8787 43.6637 53.3558 44.5898 54.468 44.5898C55.5802 44.5898 55.6877 43.7899 55.6877 43.6671V41.4995C55.6877 41.2373 56.0606 39.0365 58.285 39.0365H73.6939C73.6939 39.0365 76.308 38.8904 77.2286 38.449C77.2286 38.449 76.4995 41.0812 73.5058 41.0812H58.4899C58.4899 41.0812 57.9254 41.1045 57.9254 41.6389V43.8961C57.9254 44.2114 57.4315 46.7375 54.4142 46.7375C51.3969 46.7375 50.5233 43.8695 50.5233 43.0563C50.5233 42.243 50.9232 39.7867 50.9837 39.7037C51.0408 39.6207 51.8069 39.3784 52.5864 39.7867C52.5864 39.7867 52.7846 38.8207 52.741 38.2597C52.6973 37.6988 52.163 37.5793 51.9278 37.5793H48.1949L42.5601 45.4131C42.5601 45.4131 41.7201 46.7309 40.1342 46.7309C38.5483 46.7309 37.3757 45.3334 37.3757 44.0886C37.3521 43.7401 37.6814 42.6447 38.0477 41.8248C38.0477 41.6555 38.1552 41.0879 37.5168 41.0879H22.6521C22.6521 41.0879 19.776 41.1808 18.7209 38.4091Z" fill="#044C86"/>
<path d="M48.924 38.1533H50.8594C50.8594 38.1533 50.8862 38.9135 50.3923 38.9666C49.9018 39.0164 48.924 38.1533 48.924 38.1533ZM11.3021 49.7281C10.9123 49.0078 10.2773 49.0177 10.2773 49.0177H9.18192L6 56.5395H7.27344C7.6632 56.5395 7.94544 56.3038 8.1336 56.0017C8.32176 55.6997 8.55696 54.8267 8.55696 54.8267H11.1979C11.4701 54.8267 11.6213 55.1155 11.6213 55.1155C11.6213 55.1155 11.8464 55.6764 11.9506 55.932C12.4109 56.5959 12.9048 56.5362 12.9048 56.5362H14.2085C14.2118 56.5362 11.6918 50.4484 11.3021 49.7281ZM9.24912 53.1736L10.0421 51.1289L10.8451 53.1769L9.24912 53.1736ZM53.0333 49.7281C52.6435 49.0078 52.0085 49.0177 52.0085 49.0177H50.9131L47.7312 56.5395H49.0046C49.3944 56.5395 49.6766 56.3038 49.8648 56.0017C50.053 55.6997 50.2882 54.8267 50.2882 54.8267H52.9291C53.2013 54.8267 53.3525 55.1155 53.3525 55.1155C53.3525 55.1155 53.5776 55.6764 53.6818 55.932C54.1421 56.5959 54.636 56.5362 54.636 56.5362H55.943C55.943 56.5362 53.423 50.4484 53.0333 49.7281ZM50.9803 53.1736L51.7699 51.1289L52.573 53.1769L50.9803 53.1736ZM16.2782 56.5395V51.9189C16.2782 51.9189 17.5349 55.6167 17.6323 55.7959C17.7298 55.9752 17.975 56.5428 18.5294 56.5428H19.7323L21.3048 51.9189V55.7262C21.3048 55.9553 21.624 56.5428 22.2389 56.5428H23.015V50.1695C23.015 49.9936 22.8269 49.0177 21.8256 49.0177H20.4816L18.768 54.1528L17.3534 49.8675C17.3534 49.8675 17.0477 49.0177 16.2816 49.0177H14.5243V55.5968C14.5243 55.7992 14.773 56.5428 15.5155 56.5428L16.2782 56.5395ZM25.9181 52.2243C25.9181 50.9098 26.8555 50.5646 27.2621 50.5646H29.8661V49.0144H27.3898C23.6064 49.0144 23.855 52.7753 23.855 52.7753C23.855 52.7753 23.6064 56.5395 27.3898 56.5395H29.8661V54.9893H27.2621C26.869 54.9893 25.9718 54.664 25.9214 53.4392H28.7942C29.436 53.4392 29.809 52.6923 29.809 52.3935V52.0649H27.0269C26.3347 52.0649 26.0222 52.6525 25.9181 52.9081V52.2243ZM36.2299 53.4425C36.2299 53.4425 37.5269 53.2101 37.5269 51.3944C37.5269 48.7389 34.8154 49.0177 34.8154 49.0177H30.9514V56.5395H32.8027V53.7445H33.7939C34.7381 53.7445 35.3496 55.6665 35.8099 56.2009C36.1392 56.6092 36.4819 56.5395 36.4819 56.5395H38.0141L36.2299 53.4425ZM34.8624 52.1512H34.0123C34.0123 52.1512 33.3067 52.1214 32.7994 53.001V50.6575H34.7213C34.7213 50.6575 35.699 50.5314 35.699 51.4276C35.699 52.2442 34.8624 52.1479 34.8624 52.1512ZM73.5158 53.4425C73.5158 53.4425 74.8128 53.2101 74.8128 51.3944C74.8128 48.7389 72.1013 49.0177 72.1013 49.0177H68.2373V56.5395H70.0886V53.7445H71.0798C72.0206 53.7445 72.6355 55.6665 73.0958 56.2009C73.4251 56.6092 73.7678 56.5395 73.7678 56.5395H75.3L73.5158 53.4425ZM72.1483 52.1512H71.3016C71.3016 52.1512 70.596 52.1214 70.0886 53.001V50.6575H72.0106C72.0106 50.6575 72.9917 50.5314 72.9917 51.4276C72.9883 52.2442 72.1483 52.1479 72.1483 52.1512ZM39.6706 49.0111H38.7499V55.4109C38.7499 55.4109 38.8574 56.5461 39.7982 56.5461H40.7189V50.1463C40.7155 50.1463 40.6147 49.0111 39.6706 49.0111ZM66.0634 49.0111H65.1427V55.4109C65.1427 55.4109 65.2469 56.5461 66.191 56.5461H67.1083V50.1463C67.1117 50.1463 67.0075 49.0111 66.0634 49.0111ZM45.1675 50.6542H47.449V49.0111C47.449 49.0111 46.3973 49.0177 44.929 49.0177C41.495 49.0177 41.6798 52.6823 41.6866 52.7786C41.6933 52.8749 41.495 56.5395 44.929 56.5395C46.3973 56.5395 47.449 56.5494 47.449 56.5494V54.9063H45.1675C45.1675 54.9063 43.6656 55.0126 43.6656 52.7786C43.6656 50.5513 45.1675 50.6542 45.1675 50.6542ZM64.2254 49.0177V50.6542H61.5744C61.2854 50.6542 60.3749 50.7471 60.3749 52.918C60.3749 52.918 60.7378 52.0616 61.5408 52.0616H64.0776V52.4101C64.0776 52.4101 64.0238 53.4657 62.9587 53.4657H60.3749V56.5428H58.5V51.8691C58.5 51.8691 58.332 49.0177 62.1086 49.0177H64.2254ZM80.2426 52.0351H78.2669C78.2669 52.0351 77.4067 52.0915 77.4067 51.4309C77.4067 50.767 77.9242 50.6575 78.2904 50.6575H80.2594C80.2594 50.6575 81.9326 50.8135 81.9326 49.7214V49.0144H77.9611C77.7494 49.0144 75.4982 48.9546 75.4982 51.3513C75.4982 53.7479 77.5512 53.6217 77.6789 53.6217H79.6848C79.8091 53.6217 80.3837 53.6018 80.3837 54.2922C80.3837 54.9827 79.4731 54.913 79.4731 54.913H75.7872V55.4441C75.7872 56.493 76.9531 56.5494 76.9531 56.5494H79.9334C80.9045 56.5494 82.2653 56.2938 82.2653 54.196C82.2653 51.9753 80.5954 52.0351 80.2426 52.0351ZM82.4702 49.0111H88.6795C88.6795 49.0111 90 48.8982 90 50.6542H87.2011V56.5461H86.4854C86.4854 56.5461 85.2389 56.5859 85.2389 55.235V50.6542H83.5824C83.4346 50.6542 82.4702 50.7504 82.4702 49.0111Z" fill="#044C86"/>
<path d="M75.2025 41.8281C75.2025 41.8281 74.5843 42.1767 73.5763 42.1767H59.2929C59.1585 42.1899 59.0543 42.3061 59.0644 42.4389C59.0644 42.6845 59.1215 44.082 59.0241 44.2812H71.4998C71.4964 44.2845 74.2483 44.4305 75.2025 41.8281ZM24.4799 44.2778C24.4799 44.2778 21.7315 44.4305 20.7772 41.8281C20.7772 41.8281 21.3955 42.1767 22.4035 42.1767H36.3475C36.3475 42.1767 36.5692 42.1601 36.5692 42.4223C36.5692 42.6845 36.2164 43.1194 36.2164 44.2812L24.4799 44.2778ZM26.3683 60.6226V60.2375C26.3683 59.723 26.9428 59.6965 26.9428 59.6965H27.9407V59.1819H27.1343C25.7332 59.1819 25.7131 60.3271 25.7131 60.3271V60.8582C25.7131 60.8582 25.7332 62.0034 27.1343 62.0034H27.9407V61.4889H26.9428C26.9428 61.4889 26.3683 61.4624 26.3683 60.9479V60.6226ZM31.8081 60.8251C31.8081 60.8251 32.3625 60.6392 32.3625 60.0782C32.3625 59.5172 32.0097 59.1786 31.5124 59.1786H29.9702V61.9968H30.5481V60.835H31.2537L31.8316 61.9968H32.5171L31.8081 60.8251ZM31.3612 60.3935H30.5481V59.7031H31.378C31.378 59.7031 31.7678 59.6799 31.7678 60.0483C31.7678 60.4134 31.3612 60.3935 31.3612 60.3935ZM35.4167 59.7031H36.3374V59.1753H35.2622C34.1097 59.1753 34.1097 60.5827 34.1097 60.5827C34.1097 60.5827 34.1097 61.9935 35.2622 61.9935H36.3374V61.4657H35.4167C35.2857 61.4657 34.8556 61.5122 34.7817 60.8118H36.3374V60.3305H34.7851C34.8657 59.6599 35.2857 59.7031 35.4167 59.7031ZM40.45 60.6558C40.4198 61.4524 39.8587 61.4657 39.8587 61.4657H39.0455V59.7131H39.8587C39.8587 59.7131 40.4198 59.7263 40.45 60.523H41.0044C41.0044 59.1255 39.7343 59.1819 39.7343 59.1819H38.4676V61.9968H39.7343C39.7343 61.9968 41.0044 62.0499 41.0044 60.6558V60.523H40.45V60.6558ZM42.7113 59.1786H43.3295V61.9968H42.7113V59.1786ZM60.8654 59.1786H61.4836V61.9968H60.8654V59.1786ZM47.5699 59.1786H45.1775V59.6965H46.0646V62.0001H46.6828V59.6965H47.5699V59.1786ZM54.4747 61.064V59.1786H53.8631V61.0475C53.8631 61.5653 53.2516 61.562 53.2516 61.562C53.2516 61.562 52.6435 61.562 52.6435 61.0475V59.1786H52.0319V61.064C52.0319 61.064 51.9782 61.9968 53.2516 61.9968C54.5251 61.9968 54.4747 61.064 54.4747 61.064ZM58.2849 59.1786V61.0309L57.1828 59.1786H56.4302V61.9968H57.0484V60.035L58.1975 61.9968H58.9031V59.1786H58.2849ZM69.7223 59.1786V61.0309L68.6203 59.1786H67.8676V61.9968H68.4859V60.035L69.635 61.9968H70.3406V59.1786H69.7223ZM64.6655 59.1786C64.6655 59.1786 63.3215 59.1853 63.3215 60.5861C63.3215 61.9868 64.6655 61.9968 64.6655 61.9968C64.6655 61.9968 66.0095 61.9902 66.0095 60.5861C66.0095 59.1886 64.6655 59.1786 64.6655 59.1786ZM64.6655 61.5686C63.9196 61.5686 63.9935 60.5861 63.9935 60.5861C63.9935 60.5861 63.9163 59.6068 64.6655 59.6068C65.4148 59.6068 65.3375 60.5861 65.3375 60.5861C65.3375 60.5861 65.4182 61.5686 64.6655 61.5686Z" fill="#6B83B1"/>
</g>
<defs>
<clipPath id="clip0_1_7141">
<rect width="84" height="27" fill="white" transform="translate(6 35)"/>
</clipPath>
</defs>
</svg>
