<svg width="96" height="96" viewBox="0 0 96 96" fill="none" xmlns="http://www.w3.org/2000/svg">
<circle cx="48" cy="48" r="47" fill="white" stroke="white" stroke-width="2"/>
<g clip-path="url(#clip0_1_871)">
<path d="M37.6858 49.6866H38.4576V50.5871C38.7607 50.7655 39.3336 50.832 39.7486 50.832C40.6914 50.832 41.3132 50.397 41.3132 49.6005C41.3132 47.8275 37.6951 48.8799 37.6951 46.499C37.6951 45.6931 38.1654 44.6125 40.1357 44.6125C40.6153 44.6125 41.4912 44.7362 41.907 44.9255V46.2627H41.171V45.4372C40.9262 45.3339 40.3805 45.2573 40.0688 45.2573C39.3623 45.2573 38.5618 45.5335 38.5618 46.4043C38.5618 48.0943 42.1799 47.0404 42.1799 49.487C42.1799 50.947 40.9363 51.4775 39.6639 51.4775C38.5804 51.4775 38.0534 51.2232 37.6858 51.145V49.6866Z" fill="black"/>
<path d="M42.5017 46.47H43.279L43.317 45.2768L44.0943 45.2283L44.057 46.47H45.5835V47.0677H44.0453C44.0267 47.8838 44.008 48.7108 44.008 49.5245C44.008 50.2287 44.008 50.832 44.7511 50.832C45.0811 50.8274 45.4074 50.76 45.7125 50.6332L45.6846 51.2498C45.3394 51.3997 44.9676 51.4771 44.5917 51.4775C43.2347 51.4775 43.2347 50.5026 43.2347 49.8751C43.2347 49.2781 43.2642 47.7797 43.272 47.0677H42.5017V46.47Z" fill="black"/>
<path d="M47.106 47.0678H46.2791V46.47H47.8833V46.7368C47.8833 47.0216 47.8281 47.5975 47.7807 47.9973H47.8056C47.9952 47.2767 48.2478 46.3855 49.4557 46.3855C49.5217 46.3855 49.9065 46.4223 49.9446 46.4637L49.8668 47.1679C49.696 47.1144 49.518 47.088 49.3391 47.0897C48.3411 47.0858 47.8988 48.0732 47.8833 48.9362L47.8437 50.7631H48.6606V51.3617H46.3817V50.7631H47.0703L47.106 47.0678Z" fill="black"/>
<path d="M50.7638 48.984C50.7926 49.9902 51.2247 50.8321 52.6105 50.8321C53.1187 50.824 53.6181 50.6973 54.0694 50.462L54.0422 51.1372C53.6824 51.3188 52.93 51.4776 52.4403 51.4776C50.9029 51.4776 49.9531 50.6334 49.9531 48.9269C49.9531 47.4857 50.7249 46.3574 52.2072 46.3574C54.1285 46.3574 54.3057 48.11 54.3057 48.984H50.7638ZM53.4966 48.3862C53.4966 47.6171 53.0147 46.9528 52.2048 46.9528C51.3763 46.9528 50.8112 47.5788 50.7638 48.3862H53.4966Z" fill="black"/>
<path d="M55.6356 48.984C55.6636 49.9902 56.0965 50.8321 57.4808 50.8321C57.9895 50.8243 58.4895 50.6976 58.9413 50.462L58.9141 51.1372C58.5558 51.3188 57.801 51.4776 57.3122 51.4776C55.7755 51.4776 54.825 50.6334 54.825 48.9269C54.825 47.4857 55.6022 46.3574 57.079 46.3574C59.0019 46.3574 59.1776 48.11 59.1776 48.984H55.6356ZM58.3661 48.3862C58.3661 47.6171 57.8865 46.9528 57.0751 46.9528C56.2481 46.9528 55.683 47.5788 55.6356 48.3862H58.3661Z" fill="black"/>
<path d="M59.4224 46.47H60.2051L60.2416 45.2768L61.0134 45.2283L60.9753 46.47H62.5034V47.0677H60.9675C60.9489 47.8838 60.9302 48.7108 60.9302 49.5245C60.9302 50.2287 60.9302 50.832 61.6748 50.832C62.0044 50.8274 62.3301 50.76 62.6347 50.6332L62.6075 51.2498C62.2622 51.3997 61.8901 51.4772 61.5139 51.4775C60.1576 51.4775 60.1576 50.5026 60.1576 49.8751C60.1576 49.2781 60.1848 47.7797 60.1942 47.0677H59.4224V46.47Z" fill="black"/>
<path d="M15.3344 45.5006H16.0324L16.0137 47.5318H13.0345L13.0539 45.5006H13.7231V44.6392H11.2087V45.5006H11.9044L11.8678 50.5011H11.2087V51.3609H13.7231V50.5011H13.0158L13.0345 48.4503H16.0122L15.9943 50.5011H15.3344V51.3609H17.848V50.5011H17.1423L17.1788 45.5006H17.848V44.6392H15.3344V45.5006Z" fill="black"/>
<path d="M20.6245 46.2305C19.0918 46.2305 18.0215 47.3548 18.0215 48.9588C18.0215 50.1747 18.672 51.475 20.5032 51.475C22.0577 51.475 23.0682 50.4579 23.0682 48.8821C23.0682 47.6005 22.4269 46.2305 20.6245 46.2305ZM20.6058 47.2069C21.3994 47.2069 21.8735 47.7922 21.8735 48.7718C21.8735 49.8562 21.3714 50.5048 20.5297 50.5048C19.5604 50.5048 19.2153 49.6543 19.2153 48.9236C19.2153 48.0926 19.5814 47.2069 20.6058 47.2069Z" fill="black"/>
<path d="M31.6335 48.1812C31.6335 46.9293 31.0179 46.2322 29.9065 46.2322C29.0888 46.2322 28.4841 46.6093 28.2284 47.2689C28.0729 46.6093 27.5242 46.2322 26.7019 46.2322C25.9744 46.2322 25.3712 46.5984 25.0906 47.1836C25.1248 46.9195 25.1422 46.6534 25.1427 46.3871V46.348H23.3162V47.2086H24.004L23.9854 50.5026H23.4281V51.3633H25.7832V50.5026H25.1233L25.1427 48.6663C25.152 47.7188 25.7552 47.2086 26.3171 47.2086C26.4326 47.2028 26.5481 47.2205 26.6566 47.2609C26.7651 47.3012 26.8643 47.3633 26.9483 47.4434C27.1597 47.6585 27.2592 48.0255 27.2529 48.5646L27.2358 50.5058H26.6972V51.3664H28.9963V50.5058H28.3745L28.3939 48.6702C28.411 47.7696 28.8533 47.2118 29.5474 47.2118C30.1397 47.2118 30.4949 47.6476 30.4949 48.376C30.4949 49.1717 30.4832 49.8689 30.4599 50.5058H29.9026V51.3664H32.2343V50.5058H31.5947C31.6211 49.8024 31.6335 49.0419 31.6335 48.1812Z" fill="black"/>
<path d="M37.0703 48.8853C37.0703 47.2265 36.2269 46.2336 34.8162 46.2336C33.3325 46.2336 32.3726 47.2727 32.3726 48.8759C32.3726 50.4791 33.376 51.4673 34.9942 51.4751C35.5904 51.4708 36.1805 51.3538 36.7337 51.13L36.7578 51.1206L36.8208 50.1473L36.7563 50.1802C36.2748 50.4272 35.7421 50.5559 35.2018 50.5557C34.2481 50.5557 33.5967 49.9611 33.5695 49.0691H37.0742L37.0703 48.8853ZM35.8749 48.2124V48.2593H33.5687C33.6022 47.8744 33.7895 47.092 34.7572 47.092C35.5779 47.0935 35.8749 47.7601 35.8749 48.2093V48.2124Z" fill="black"/>
<path d="M9.52451 42V43.4287H8.42082V52.5705H9.52451V54H7V42H9.52451Z" fill="#00A9E0"/>
<path d="M88.2631 46.8509C88.4161 46.8559 88.567 46.8148 88.6966 46.7329C88.8263 46.651 88.9286 46.532 88.9907 46.3912C89.0527 46.2503 89.0716 46.0941 89.0448 45.9424C89.0181 45.7907 88.947 45.6505 88.8406 45.5397C88.7343 45.4289 88.5975 45.3527 88.4478 45.3206C88.2981 45.2886 88.1423 45.3023 88.0004 45.3599C87.8584 45.4175 87.7368 45.5165 87.6511 45.6442C87.5654 45.7718 87.5195 45.9223 87.5193 46.0763C87.5169 46.1765 87.5343 46.2762 87.5705 46.3696C87.6068 46.463 87.6611 46.5482 87.7303 46.6202C87.7995 46.6923 87.8822 46.7498 87.9737 46.7894C88.0651 46.829 88.1635 46.8499 88.2631 46.8509ZM88.2631 45.387C88.6198 45.387 88.9004 45.7 88.9004 46.0763C88.9004 46.4527 88.6198 46.768 88.2631 46.768C88.1756 46.7653 88.0896 46.7452 88.0098 46.7089C87.9301 46.6727 87.8583 46.621 87.7984 46.5567C87.7385 46.4925 87.6919 46.417 87.661 46.3345C87.6302 46.2521 87.6158 46.1644 87.6187 46.0763C87.6141 45.8994 87.6793 45.7277 87.8001 45.599C87.9208 45.4703 88.0873 45.3949 88.2631 45.3894V45.387Z" fill="#00A9E0"/>
<path d="M88.0874 46.1125H88.274L88.5072 46.5131H88.6292L88.3781 46.1125C88.5235 46.1125 88.6338 46.046 88.6338 45.8778C88.6338 45.7096 88.5359 45.6431 88.3447 45.6431H87.9895V46.5131H88.089L88.0874 46.1125ZM88.0874 45.7315H88.3206C88.4248 45.7315 88.5351 45.7393 88.5351 45.8739C88.5351 46.0085 88.4325 46.0304 88.3331 46.0304H88.0835L88.0874 45.7315Z" fill="#00A9E0"/>
<path d="M68.1758 50.7632H68.7673L69.2492 45.3207H68.4961L68.5528 44.7229H70.7345C72.4391 44.7229 72.7313 45.5781 72.7313 46.2095C72.7313 47.2063 72.0162 47.8127 71.2631 47.8792V47.8987C72.1095 47.8987 72.9 48.3682 72.9 49.3501C72.9 50.4573 72.1585 51.3594 70.4516 51.3594H68.1199L68.1758 50.7632ZM69.522 50.7632H70.377C71.5071 50.7632 72.0909 50.2053 72.0909 49.3548C72.0909 48.7563 71.7325 48.189 70.6141 48.189H69.7498L69.522 50.7632ZM69.7964 47.6531H70.4236C71.3183 47.6531 71.9781 47.1515 71.9781 46.2697C71.9781 45.7291 71.6486 45.3207 70.6685 45.3207H70L69.7964 47.6531Z" fill="#00A9E0"/>
<path d="M77.775 50.7631L77.7182 51.3616H76.3068C76.3713 50.5471 76.4949 49.5409 76.6635 48.9158L76.6449 48.8962C76.4016 49.7999 75.8645 51.4594 74.6761 51.4594C73.8755 51.4594 73.4434 50.7286 73.4434 49.6865C73.4434 48.4056 73.9043 47.4573 74.31 47.0497C74.8541 46.502 75.4759 46.376 76.0907 46.376C76.448 46.3734 76.8013 46.4518 77.1244 46.6053H77.4462C77.3063 47.2766 77.1454 49.4017 77.0576 50.7654L77.775 50.7631ZM74.7616 50.7553C75.7603 50.7553 76.5042 48.5645 76.6557 47.0935C76.4396 47.0089 76.2091 46.9675 75.9772 46.9715C74.5781 46.9715 74.1965 48.3939 74.1965 49.6732C74.1965 50.3969 74.3939 50.7576 74.7616 50.7576V50.7553Z" fill="#00A9E0"/>
<path d="M78.1184 46.4699H79.5952C79.4623 47.2374 79.4149 47.8172 79.2369 48.8602L79.2556 48.8696C79.5851 47.5997 80.4914 46.376 81.4225 46.376C82.0529 46.376 82.3552 46.7672 82.3552 47.6169C82.3552 48.4056 82.1671 49.6668 82.0358 50.7654H82.7509L82.6941 51.3639H81.2445C81.4326 49.7991 81.6394 48.3672 81.6394 47.7507C81.6394 47.2202 81.5158 47.0786 81.2243 47.0786C80.1681 47.0786 79.3885 49.4306 79.2742 50.1504L79.0768 51.3639H78.3602C78.5576 49.8374 78.6905 48.4056 78.8133 47.0676H78.0586L78.1184 46.4699Z" fill="#00A9E0"/>
<path d="M83.0269 44.071H84.6288C84.4586 45.5412 84.4966 46.7923 84.1679 48.2085L84.1857 48.2257C84.4111 47.5215 84.9778 46.3761 86.0986 46.3761C86.8136 46.3761 87.1626 46.8784 87.1626 47.3056C87.1626 48.4244 85.7892 49.0887 85.0804 49.2108C85.3633 49.4111 85.968 50.2459 86.4569 50.7654H87.1626L87.1074 51.364H85.9688L84.206 49.2303C84.0925 49.7616 84.007 50.947 83.9689 51.364H83.2523C83.48 48.9557 83.6409 46.8878 83.8383 44.6696H82.9717L83.0269 44.071ZM85.9027 47.0216C84.9988 47.0216 84.4259 48.3298 84.2534 49.0418C85.6579 48.7476 86.4095 48.1029 86.4095 47.5043C86.4079 47.2109 86.1934 47.0216 85.9011 47.0216H85.9027Z" fill="#00A9E0"/>
<path d="M63.6182 42V43.4287H64.7219V52.5705H63.6182V54H66.1411V42H63.6182Z" fill="#00A9E0"/>
</g>
<defs>
<clipPath id="clip0_1_871">
<rect width="82" height="12" fill="white" transform="translate(7 42)"/>
</clipPath>
</defs>
</svg>
