<svg width="96" height="96" viewBox="0 0 96 96" fill="none" xmlns="http://www.w3.org/2000/svg">
<circle cx="48" cy="48" r="47" fill="white" stroke="white" stroke-width="2"/>
<mask id="mask0_1_298" style="mask-type:luminance" maskUnits="userSpaceOnUse" x="10" y="40" width="76" height="16">
<path d="M12.6164 40.141H83.3836C84.8372 40.141 86 41.3038 86 42.7574V53.223C86 54.6765 84.8372 55.8394 83.3836 55.8394H12.6164C11.1628 55.8394 10 54.6765 10 53.223V42.7574C10 41.3038 11.1628 40.141 12.6164 40.141Z" fill="white"/>
</mask>
<g mask="url(#mask0_1_298)">
<path d="M34.6689 43.3391C33.423 43.3391 32.4678 44.2942 32.0525 45.4986H31.9694V44.7095C31.9694 44.0866 31.471 43.5882 30.8481 43.5882H29.8929V55.8396H32.1355V51.1882H32.2186C32.5924 52.2265 33.5475 52.891 34.6689 52.9325C36.7038 52.9325 38.1989 50.9806 38.1989 48.1565C38.1989 45.3325 36.7869 43.3391 34.6689 43.3391ZM33.9213 50.9806C32.8415 50.9806 32.094 50.0669 32.094 48.6964V47.6166C32.094 46.2462 32.8415 45.291 33.9213 45.291C35.1257 45.291 35.9148 46.4123 35.9148 48.115C35.9148 49.8177 35.1672 50.9806 33.9213 50.9806ZM23.871 45.9139C23.871 45.374 24.3279 45.0003 25.0339 45.0003C25.7399 45.0003 26.3628 45.374 26.3628 45.9139H28.4393C28.4393 44.2527 26.7366 43.2975 25.0339 43.2975C22.9574 43.2975 21.6284 44.4188 21.6284 46.1216C21.6284 49.3609 26.4044 48.0735 26.4044 50.0669C26.4044 50.7314 25.7814 51.1882 24.9508 51.1882C23.9541 51.1882 23.3727 50.856 23.3727 49.8593H21.2546C21.2546 51.7281 22.9989 52.891 24.9093 52.891C27.1934 52.891 28.647 51.6866 28.647 49.8177C28.6885 46.4538 23.871 47.6582 23.871 45.9139ZM41.729 43.5467H39.4863V52.6003H41.7705L41.729 43.5467ZM40.6492 40.0997C39.9847 40.0582 39.4033 40.5565 39.3617 41.221C39.3617 41.2625 39.3617 41.3041 39.3617 41.3456C39.3202 42.0516 39.9016 42.6746 40.6076 42.6746C41.3137 42.6746 41.9366 42.1347 41.9366 41.4287C41.9366 40.7227 41.3967 40.1412 40.6492 40.0997ZM45.7989 45.8724H45.7158V43.6298H43.6393V52.6833H45.882V47.9489C45.882 46.4538 46.5049 45.8309 47.9585 45.8309H48.9967V43.6298H48.0831C47.0448 43.5882 46.0896 44.4604 45.7989 45.8724ZM53.7311 43.3806C51.6131 43.3806 49.8273 44.7095 49.8273 46.5784H51.9038C51.9038 45.5401 52.7344 45.1248 53.6896 45.1248C54.5202 45.1248 55.0186 45.4986 55.0186 46.08C55.0186 46.4123 54.8525 46.6199 54.4372 46.703L52.776 47.2429C50.6995 47.9074 49.7858 48.821 49.7858 50.1915C49.7443 51.6451 50.8656 52.891 52.3191 52.9325C52.4022 52.9325 52.4437 52.9325 52.5268 52.9325C53.7311 52.974 54.7694 52.1434 55.0186 50.9806H55.0601V52.6833H57.2612V46.2877C57.3027 44.4604 55.8907 43.3391 53.7311 43.3806ZM55.0601 49.1117C55.0601 50.4407 54.3126 51.4374 53.3158 51.4374C52.6098 51.4374 52.0699 50.8975 52.0284 50.233C52.0284 50.1915 52.0284 50.1915 52.0284 50.15C52.0284 49.4855 52.4022 49.0702 53.2743 48.738L55.0601 48.115V49.1117ZM65.9825 40.1412C65.318 40.0997 64.7366 40.5981 64.6536 41.2626C64.6536 41.3041 64.6536 41.3456 64.6536 41.3871C64.612 42.0931 65.1934 42.7161 65.8995 42.7161C66.6055 42.7576 67.2284 42.1762 67.2284 41.4702C67.3115 40.7642 66.7301 40.1412 65.9825 40.1412ZM67.1038 43.5882H64.8612V52.6418H67.1038V43.5882ZM72.835 43.3391C70.2601 43.3391 68.5574 45.2494 68.5574 48.115C68.5574 50.9806 70.2601 52.891 72.835 52.891C75.4098 52.891 77.1541 51.0221 77.1541 48.115C77.1541 45.2079 75.4098 43.3391 72.835 43.3391ZM72.835 50.9806C71.5891 50.9806 70.8415 49.8593 70.8415 48.1565C70.8415 46.4538 71.6306 45.3325 72.835 45.3325C74.1224 45.3325 74.8699 46.4538 74.8699 48.1565C74.8699 49.8593 74.0393 50.9806 72.835 50.9806ZM63.2831 45.2079V43.5467H61.4973V42.0516C61.4973 41.3871 60.9989 40.8472 60.3344 40.8472C60.3344 40.8472 60.3344 40.8472 60.2929 40.8472H59.2131V50.3992C59.2131 52.1019 59.8776 52.6003 61.7049 52.6003H63.2415V50.7729H62.4525C61.7049 50.7729 61.4557 50.6068 61.4557 49.9008V45.2079H63.2831ZM83.176 43.3391C81.847 43.3391 80.9749 44.2942 80.4765 45.6647H80.3934V44.7511C80.3934 44.1281 79.8951 43.6298 79.2721 43.6298H78.3169V52.6833H80.5596V48.0319C80.5596 46.3707 81.3071 45.3325 82.3869 45.3325C83.259 45.3325 83.7159 45.8724 83.7159 46.786V52.6833H85.9585V46.4123C86 44.5019 84.9617 43.3391 83.176 43.3391ZM13.1978 49.9008H13.8623C14.4437 49.9008 14.9421 49.444 14.9421 48.821V47.8658H13.7792L15.3158 42.633H15.3989L16.9355 47.8658H15.7727V48.821C15.7727 49.4024 16.271 49.9008 16.8525 49.9008H17.5169L18.3475 52.6833H20.7978L17.0601 40.9303H13.7377L10 52.6833H12.4087L13.1978 49.9008Z" fill="#0B111E"/>
</g>
</svg>
