<svg width="96" height="96" viewBox="0 0 96 96" fill="none" xmlns="http://www.w3.org/2000/svg">
<circle cx="48" cy="48" r="47" fill="white" stroke="white" stroke-width="2"/>
<g clip-path="url(#clip0_1_4001)">
<path d="M14.1459 39.1961C11.3162 39.1961 9.25829 41.4828 9.25829 43.9143C9.25829 46.5678 11.458 48.6603 14.1459 48.6603H20.1292C21.4147 48.6603 22.6467 49.6645 22.6467 51.0348C22.6467 52.4043 21.5441 53.5248 20.1292 53.5248H9.51166V55.8055H20.5492C23.3897 55.8055 25.4957 53.6793 25.4957 51.0325C25.4957 48.4916 23.3339 46.3578 20.5492 46.3578H14.4257C13.0387 46.3578 11.9082 45.2815 11.9082 43.9121C11.9082 42.5576 13.072 41.4956 14.4257 41.4933H29.5318V55.8048H32.1794V41.4933H38.8995V39.1953L14.1459 39.1961Z" fill="black"/>
<path d="M84.0474 39.1943V46.3591H73.6191V39.1943H70.9248V55.8038H73.6191V48.6564H84.0474V55.8038H86.7417V39.1943H84.0474Z" fill="black"/>
<path d="M47.2648 53.5073H42.1199V55.8053H47.2648V53.5073Z" fill="black"/>
<path d="M63.7028 46.3575H57.5793C56.1924 46.3575 55.0619 45.2812 55.0619 43.9117C55.0619 42.5572 56.2257 41.4952 57.5793 41.4929H67.4266V39.1949L57.2996 39.1957C54.4691 39.1957 52.412 41.4824 52.412 43.9139C52.412 46.5675 54.6117 48.66 57.2996 48.66H63.2823C64.5675 48.66 65.8005 49.6642 65.8005 51.0344C65.8005 52.4039 64.6977 53.5245 63.2823 53.5245H52.8273L45.712 39.1949H43.6067L35.2873 55.8052H37.9892L44.6621 42.6517L51.2148 55.8052H63.7038C66.5444 55.8052 68.6493 53.6789 68.6493 51.0322C68.6493 48.4912 66.4875 46.3575 63.7028 46.3575Z" fill="black"/>
</g>
<defs>
<clipPath id="clip0_1_4001">
<rect width="78" height="17" fill="white" transform="translate(9 39)"/>
</clipPath>
</defs>
</svg>
