<svg width="96" height="96" viewBox="0 0 96 96" fill="none" xmlns="http://www.w3.org/2000/svg">
<circle cx="48" cy="48" r="47" fill="white" stroke="white" stroke-width="2"/>
<path d="M54.7515 25.3666L19.07 57.2701V64.6863C32.573 63.4969 39.2196 72.6621 50.3438 76.5101H76.8601C53.0724 74.761 42.5778 59.7888 19.14 61.398L43.1375 40.6887L49.7841 46.0759L60.1387 33.8322L77 44.2568V76.5101V19.0699V36.7007L54.7515 25.3666Z" fill="white"/>
<path d="M19 57.3401V57.2701L54.7515 25.3666L76.86 36.7707V19.1399V18.9999H19V57.3401Z" fill="#00529C"/>
<path d="M19 64.7561V76.58H50.2738C39.1496 72.7319 32.573 63.5667 19 64.7561Z" fill="#619869"/>
<path d="M59.9988 33.9719L49.6441 46.2155L42.9976 40.8283L19 61.5376C42.4379 59.8585 53.0024 74.8307 76.7201 76.6498H76.7901V44.3965L59.9988 33.9719Z" fill="#619869"/>
</svg>
