<svg width="96" height="96" viewBox="0 0 96 96" fill="none" xmlns="http://www.w3.org/2000/svg">
<circle cx="48" cy="48" r="47" fill="white" stroke="white" stroke-width="2"/>
<path d="M49.2811 20.4907L48.6003 19L31 47.7237L48.4302 77L49.1777 75.3087L32.9166 47.7237L49.2811 20.4907ZM56.354 63.1467H51.3697L49.364 66.6003L51.9223 70.6479L56.354 63.1467Z" fill="#B4975A"/>
<path d="M59.2073 58.1628H44.6756C45.2311 58.9298 45.7008 59.9503 45.7008 59.9503H53.1996L52.1339 61.7845H57.0343L59.2073 58.1628ZM62.0634 53.3038H41.7389C42.2122 53.893 42.6128 54.537 42.9324 55.2219H55.8857L54.819 57.0523H59.9347L62.0634 53.3038ZM64.92 48.533H38.9657L40.0324 50.3624H58.7413L57.8876 52.1547H62.788L64.92 48.533ZM62.959 43.7574H41.0548L39.9919 45.5063H59.0801L60.232 47.3362H65.0472L62.959 43.7574ZM60.1868 38.9865H43.8237L42.9324 40.6888H56.3106L57.3335 42.5225H62.151L60.1868 38.9865ZM57.293 33.998H46.808L45.9119 35.6616H53.3707L54.5641 37.6659H59.3349L57.293 33.998ZM52.2206 25.4353L49.6203 29.5249L51.4969 32.6373H56.4812L52.2206 25.4353ZM56.5436 70.1909H57.4169V70.1228C57.283 70.108 57.1963 70.0813 57.1577 70.0413C57.0982 69.9803 57.0686 69.8479 57.0686 69.6444V68.1599L58.0038 70.1914H58.0548L59.0057 68.0723V69.7445C59.0057 69.9017 58.9876 70.0013 58.9509 70.0427C58.9133 70.0842 58.8204 70.1109 58.6699 70.1232V70.1914H59.7123V70.1232C59.5746 70.1109 59.486 70.0866 59.4455 70.048C59.4054 70.0103 59.3859 69.9236 59.3859 69.7874V68.1337C59.3859 68.0008 59.4054 67.9146 59.4455 67.8746C59.4855 67.8345 59.5746 67.8088 59.7123 67.7993V67.7297H58.9719L58.1401 69.5806L57.2878 67.7297H56.5522V67.7993C56.7018 67.8064 56.798 67.8307 56.8409 67.8712C56.8833 67.9112 56.9043 67.9989 56.9043 68.1342V69.6454C56.9043 69.8417 56.8823 69.9656 56.8399 70.0203C56.7961 70.0737 56.6975 70.108 56.5441 70.1237L56.5436 70.1909ZM54.5865 69.442L54.6975 70.2333H54.779C54.7836 70.2032 54.7939 70.1742 54.8095 70.148C54.8242 70.1213 54.8533 70.108 54.8971 70.108C54.9152 70.108 54.9872 70.1299 55.1124 70.1737C55.2377 70.2176 55.3573 70.2395 55.4731 70.2395C55.7023 70.2395 55.8895 70.1737 56.0367 70.0432C56.1839 69.9117 56.2573 69.7497 56.2573 69.5535C56.2573 69.4086 56.2173 69.2833 56.1344 69.1761C56.0505 69.0713 55.9066 68.9556 55.7023 68.8288L55.3745 68.6278C55.2525 68.5525 55.1625 68.4806 55.1044 68.411C55.0461 68.343 55.0154 68.2556 55.0181 68.1661C55.0181 68.0589 55.0558 67.976 55.1315 67.9165C55.2069 67.8567 55.3007 67.8249 55.3969 67.8264C55.5284 67.8264 55.6599 67.8741 55.7937 67.9679C55.9276 68.0627 56.0253 68.23 56.0858 68.4672H56.1749L56.0934 67.6759H56.0167C56.0101 67.7094 55.9959 67.7411 55.9752 67.7683C55.9581 67.7902 55.9266 67.8012 55.8804 67.8012C55.8633 67.8012 55.7952 67.7807 55.6761 67.7393C55.5784 67.7012 55.475 67.6798 55.3702 67.6759C55.1644 67.6759 54.9986 67.7378 54.8747 67.8636C54.8129 67.9246 54.7643 67.9978 54.732 68.0784C54.6997 68.1591 54.6844 68.2456 54.687 68.3324C54.687 68.4739 54.7394 68.6025 54.8452 68.7207C54.9024 68.7826 54.9781 68.8436 55.0743 68.9031L55.3921 69.1018C55.5746 69.2161 55.6942 69.3014 55.7513 69.3576C55.7934 69.3989 55.8268 69.4482 55.8494 69.5027C55.8719 69.5571 55.8833 69.6155 55.8828 69.6745C55.8828 69.8083 55.839 69.9131 55.7523 69.9884C55.6672 70.063 55.5572 70.103 55.444 70.1004C55.2249 70.1004 55.041 70.0141 54.8938 69.8412C54.8085 69.7426 54.7356 69.6087 54.6722 69.442H54.5865Z" fill="#B4975A"/>
</svg>
