<svg width="96" height="96" viewBox="0 0 96 96" fill="none" xmlns="http://www.w3.org/2000/svg">
<circle cx="48" cy="48" r="47" fill="white" stroke="white" stroke-width="2"/>
<path d="M7.36877 55.629H9.3707V55.9932H7.73755V57.0339H9.26534V57.3982H7.73755V58.8292H7.36877V55.629Z" fill="#1E355E"/>
<path d="M11.2936 55.629H13.3482V55.9932H11.6887V57.0079H13.2428V57.3722H11.6887V58.517H13.4272V58.8812H11.2936V55.629Z" fill="#1E355E"/>
<path d="M15.3238 55.629H16.5618C17.194 55.629 18.1686 56.0453 18.1686 57.2421C18.1686 58.4389 17.2204 58.8552 16.5618 58.8552H15.3238V55.629ZM15.7189 58.491H16.4565C17.194 58.491 17.7735 58.1267 17.7735 57.2421C17.7735 56.3575 17.2204 55.9932 16.4565 55.9932H15.7189V58.491Z" fill="#1E355E"/>
<path d="M20.1706 55.629H22.2252V55.9932H20.5657V57.0079H22.1198V57.3722H20.5657V58.517H22.3042V58.8812H20.1706V55.629Z" fill="#1E355E"/>
<path d="M24.2798 55.629H25.1227C25.7549 55.629 26.4134 55.707 26.4134 56.5136C26.4134 56.9819 26.0973 57.2941 25.5968 57.3722L26.5188 58.8552H26.0446L25.1754 57.4242H24.6749V58.8552H24.2798V55.629ZM24.6749 57.0339H25.0173C25.4388 57.0339 25.992 57.0339 25.992 56.5136C25.992 56.0453 25.5705 55.9932 25.2017 55.9932H24.6486V57.0339H24.6749Z" fill="#1E355E"/>
<path d="M29.5217 55.629H29.8905L31.2866 58.8292H30.8388L30.4963 58.0487H28.8632L28.5207 58.8292H28.0729L29.5217 55.629ZM29.6797 56.1233L28.9949 57.7104H30.3119L29.6797 56.1233Z" fill="#1E355E"/>
<path d="M33.0778 55.629H33.4729V58.491H34.9743V58.8552H33.0778V55.629Z" fill="#1E355E"/>
<path d="M41.6913 56.2794C41.5069 56.0192 41.1908 55.8892 40.8747 55.8892C40.1372 55.8892 39.6367 56.5136 39.6367 57.2161C39.6367 57.9706 40.1372 58.543 40.8747 58.543C41.2698 58.543 41.5859 58.3869 41.823 58.1007L42.1127 58.3349C41.823 58.7251 41.4015 58.9073 40.8747 58.9073C39.9528 58.9073 39.2152 58.2048 39.2152 57.2161C39.2152 56.2794 39.9001 55.5249 40.8747 55.5249C41.3225 55.5249 41.744 55.681 42.0337 56.0192L41.6913 56.2794Z" fill="#1E355E"/>
<path d="M44.0093 55.629H44.8523C45.4844 55.629 46.143 55.707 46.143 56.5136C46.143 56.9819 45.8269 57.2941 45.3264 57.3722L46.2483 58.8552H45.7742L44.9049 57.4242H44.4045V58.8552H44.0093V55.629ZM44.4045 57.0339H44.7469C45.1683 57.0339 45.7215 57.0339 45.7215 56.5136C45.7215 56.0453 45.3001 55.9932 44.9313 55.9932H44.4045V57.0339Z" fill="#1E355E"/>
<path d="M48.1976 55.629H50.2522V55.9932H48.5927V57.0079H50.1468V57.3722H48.5927V58.517H50.3312V58.8812H48.1976V55.629Z" fill="#1E355E"/>
<path d="M52.2278 55.629H53.4658C54.098 55.629 55.0726 56.0453 55.0726 57.2421C55.0726 58.4389 54.1243 58.8552 53.4658 58.8552H52.2278V55.629ZM52.6229 58.491H53.3605C54.098 58.491 54.6775 58.1267 54.6775 57.2421C54.6775 56.3575 54.1243 55.9932 53.3605 55.9932H52.6229V58.491Z" fill="#1E355E"/>
<path d="M57.0745 55.629H57.4696V58.8292H57.0745V55.629Z" fill="#1E355E"/>
<path d="M61.8423 55.9672H60.7623V58.8292H60.3672V55.9672H59.2872V55.603H61.8159V55.9672H61.8423Z" fill="#1E355E"/>
<path d="M68.7436 57.6063C68.7436 58.3088 68.4012 58.9072 67.5056 58.9072C66.61 58.9072 66.2676 58.3088 66.2676 57.6063V55.629H66.6627V57.5543C66.6627 58.0747 66.8471 58.569 67.5056 58.569C68.1641 58.569 68.3485 58.0747 68.3485 57.5543V55.629H68.7436V57.6063Z" fill="#1E355E"/>
<path d="M70.93 55.629H71.4041L73.3007 58.3088V55.629H73.6958V58.8292H73.2217L71.3251 56.1493V58.8292H70.93V55.629Z" fill="#1E355E"/>
<path d="M75.8821 55.629H76.2772V58.8292H75.8821V55.629Z" fill="#1E355E"/>
<path d="M78.2528 57.2421C78.2528 56.2794 78.964 55.5509 79.965 55.5509C80.9659 55.5509 81.6772 56.2794 81.6772 57.2421C81.6772 58.2048 80.9659 58.9333 79.965 58.9333C78.964 58.9333 78.2528 58.2048 78.2528 57.2421ZM81.2557 57.2421C81.2557 56.5136 80.7289 55.9152 79.965 55.9152C79.2011 55.9152 78.6743 56.5136 78.6743 57.2421C78.6743 57.9706 79.2011 58.569 79.965 58.569C80.7289 58.569 81.2557 57.9706 81.2557 57.2421Z" fill="#1E355E"/>
<path d="M83.6528 55.629H84.1269L86.0235 58.3088V55.629H86.4186V58.8292H85.9445L84.0479 56.1493V58.8292H83.6528V55.629Z" fill="#1E355E"/>
<path d="M20.355 45.2998C20.355 49.2805 17.194 52.2726 13.0321 52.2726H7.36877V38.3009H13.0848C17.194 38.3009 20.355 41.319 20.355 45.2998ZM18.7218 45.2998C18.7218 42.1516 16.2194 39.7839 13.0585 39.7839H8.97558V50.7896H13.0848C16.2457 50.7896 18.7218 48.448 18.7218 45.2998Z" fill="#1E355E"/>
<path d="M32.1558 38.2228V39.7059H24.2008V44.3891H31.3392V45.8461H24.2008V50.7115H32.4456V52.1946H22.5676V38.2228H32.1558Z" fill="#1E355E"/>
<path d="M56.9955 39.6538C55.1516 39.6538 53.9399 40.3824 53.9399 41.5792C53.9399 45.2477 61.974 43.3224 61.974 48.448C61.974 50.7896 59.8667 52.2986 56.8111 52.2986C54.7302 52.2986 52.6756 51.414 51.3322 50.1391L52.0697 48.7342C53.3868 49.983 55.2043 50.7115 56.8375 50.7115C58.8921 50.7115 60.1828 49.879 60.1828 48.5C60.2091 44.7274 52.1487 46.7308 52.1487 41.6572C52.1487 39.4457 54.1243 38.0147 57.1009 38.0147C58.7604 38.0147 60.4462 38.5351 61.6315 39.3156L60.9467 40.7466C59.6296 39.9921 58.1282 39.6538 56.9955 39.6538Z" fill="#1E355E"/>
<path d="M74.0119 38.2228V39.7059H69.3232V52.3507H67.69V39.7319H63.0276V38.2228H74.0119Z" fill="#1E355E"/>
<path d="M83.205 48.7342H75.4343L73.8539 52.3507H72.1154L78.5163 38.2228H80.2021L86.603 52.3507H84.8381L83.205 48.7342ZM82.5728 47.2511L79.3328 39.9921L76.1192 47.2511H82.5728Z" fill="#1E355E"/>
<path d="M46.7488 38.1968H44.5888L42.0074 41.5532L43.061 42.8281L46.7488 38.1968Z" fill="#1E355E"/>
<path d="M41.1381 45.1437L42.0337 44.0509L40.9537 42.724L40.0845 43.8688L40.6113 44.5192L41.0854 45.0916L40.6113 45.7161L40.0845 46.4186L41.0854 47.6674L42.1391 46.3665L41.1381 45.1437Z" fill="#1E355E"/>
<path d="M47.1176 52.1946L50.6736 52.1686L45.063 45.2738L50.4892 38.1968H48.5136L44.0357 44.0509L44.5361 44.6753L44.9839 45.2477L44.5361 45.8201L44.0357 46.4966L47.4337 50.6855L45.6161 50.5815L43.1927 47.5894L42.1918 48.8643L44.9049 52.1946H47.1176Z" fill="#1E355E"/>
<path d="M44.5361 44.6753L44.0357 44.0509L43.061 42.828L42.0074 41.5532L39.3469 38.2228H33.5519L39.1362 45.1697L33.6836 52.1946H35.6592L40.1635 46.3665L40.6903 45.69L41.1381 45.1176L40.6903 44.5452L40.1635 43.9208L36.8709 39.8099H38.583L41.0328 42.828L42.0337 44.1029L43.0084 45.2737L42.1654 46.3405L41.1381 47.5894L37.424 52.1946H39.6103L42.1918 48.8642L43.1927 47.5894L44.0357 46.4966L44.5361 45.8201L44.9839 45.2477L44.5361 44.6753Z" fill="#00B2E2"/>
<path d="M86.1288 39.1075H86.761C86.8663 39.1075 86.9717 39.1335 87.0507 39.1595C87.1297 39.1855 87.1824 39.2375 87.2351 39.2896C87.2878 39.3416 87.3141 39.3937 87.3141 39.4457C87.3405 39.4977 87.3405 39.5758 87.3405 39.6278C87.3405 39.6799 87.3405 39.7319 87.3141 39.7839C87.2878 39.836 87.2615 39.888 87.2351 39.94C87.2088 39.9921 87.1561 40.0181 87.1034 40.0441C87.0507 40.0701 86.998 40.0961 86.919 40.0961L87.4195 40.9027H87.1034L86.6556 40.1222H86.3922V40.9027H86.1551V39.1075H86.1288ZM86.3922 39.888H86.7083C86.761 39.888 86.8137 39.888 86.84 39.888C86.8927 39.888 86.919 39.862 86.9717 39.836C86.998 39.8099 87.0507 39.7839 87.0507 39.7579C87.0771 39.7319 87.0771 39.6799 87.0771 39.6018C87.0771 39.5498 87.0771 39.4977 87.0507 39.4457C87.0244 39.4197 86.998 39.3676 86.9717 39.3676C86.9454 39.3416 86.8927 39.3416 86.84 39.3416C86.7873 39.3416 86.7346 39.3416 86.7083 39.3416H86.3922V39.888Z" fill="#1E355E"/>
<path d="M86.7346 41.8654C85.681 41.8654 84.8381 41.0328 84.8381 39.9921C84.8381 38.9514 85.681 38.1188 86.7346 38.1188C87.7883 38.1188 88.6312 38.9514 88.6312 39.9921C88.6312 41.0328 87.7883 41.8654 86.7346 41.8654ZM86.7346 38.405C85.839 38.405 85.1278 39.1075 85.1278 39.9921C85.1278 40.8767 85.839 41.5792 86.7346 41.5792C87.6302 41.5792 88.3414 40.8767 88.3414 39.9921C88.3414 39.1075 87.6039 38.405 86.7346 38.405Z" fill="#1E355E"/>
</svg>
