<svg width="96" height="96" viewBox="0 0 96 96" fill="none" xmlns="http://www.w3.org/2000/svg">
<circle cx="48" cy="48" r="47" fill="white" stroke="white" stroke-width="2"/>
<path d="M76.9868 71.4014V34.3281H76.4672C74.951 34.4033 73.4478 34.6473 71.9857 35.0556L70.9075 35.4193C70.5382 35.5307 70.1778 35.6696 69.8293 35.835C69.1156 36.1279 68.4214 36.4664 67.751 36.8482C64.995 38.3859 62.6337 40.5425 60.8533 43.1483C59.041 45.8471 57.86 48.9195 57.398 52.1373C56.9482 55.4943 57.2765 58.9098 58.3577 62.1195C59.4389 65.3293 61.2439 68.2474 63.6332 70.648C66.146 73.1121 69.1707 74.9926 72.4923 76.1557C72.856 76.2856 73.2327 76.3896 73.5965 76.5065C74.6123 76.0717 75.4771 75.3466 76.0826 74.4223C76.688 73.498 77.0071 72.4154 76.9998 71.3105" fill="#0083AD"/>
<path d="M62.0358 72.4404C59.0192 69.9898 56.6059 66.8788 54.9823 63.3475C54.5651 62.4561 54.2008 61.5408 53.8912 60.6066C53.7313 60.1423 53.5969 59.6696 53.4885 59.1907C53.3716 58.7101 53.2287 58.2294 53.1248 57.7488C52.1262 52.7037 52.6078 47.4774 54.5115 42.6997C56.4152 37.9219 59.6599 33.7966 63.8545 30.8207C65.6146 29.5287 67.5305 28.4638 69.557 27.6511C67.3196 28.1716 65.1427 28.9248 63.0621 29.8984C59.3715 31.6554 56.0513 34.1026 53.2806 37.1078C50.5988 40.0674 48.5048 43.5104 47.1104 47.2529C45.7205 50.936 45.0545 54.8526 45.1489 58.788C45.1567 60.724 45.3745 62.6535 45.7984 64.5426C46.1993 66.4178 46.7822 68.2494 47.5391 70.0113C48.6314 72.5227 50.0604 74.8738 51.7868 76.9999H70.895C67.6898 76.0696 64.6978 74.5206 62.0878 72.4404M39.6152 72.9081C38.8487 70.585 38.3135 68.1919 38.0175 65.7636C37.7234 63.3673 37.6755 60.9472 37.8746 58.5412C37.9809 57.1517 38.1586 55.7686 38.4071 54.3974C36.9969 57.7056 35.329 60.8979 33.419 63.945C30.5612 68.5326 27.3195 72.8695 23.7285 76.909C24.0329 76.965 24.3414 76.9954 24.6508 76.9999H41.2649C40.6508 75.6692 40.1172 74.3028 39.6672 72.9081" fill="#6BA43A"/>
<path d="M42.4727 23.1568C43.5588 30.167 43.3165 37.3189 41.7583 44.2395C41.7583 44.4083 41.6674 44.5772 41.6284 44.7461C43.6807 40.5649 46.5111 36.8132 49.9679 33.6916C56.8326 27.4758 65.8336 24.1528 75.0905 24.4168C75.727 24.4168 76.3895 24.4168 77 24.5207C76.9762 23.0505 76.3762 21.6483 75.3292 20.6159C74.2822 19.5834 72.8718 19.0032 71.4013 19H41.6804C41.9921 20.3769 42.2649 21.7539 42.4727 23.1568Z" fill="#6E7C7C"/>
<path d="M27.5474 59.8664C31.6655 54.8114 34.91 49.1038 37.1469 42.9795C39.3425 36.727 40.3385 30.1164 40.0827 23.4946C40.0827 22.0397 39.9268 20.5718 39.7709 19.1169H24.5987C23.1149 19.1204 21.6928 19.7113 20.6436 20.7605C19.5944 21.8098 19.0034 23.2318 19 24.7156V68.9983C22.072 66.1848 24.9291 63.1453 27.5474 59.9054" fill="#0083AD"/>
</svg>
