<svg width="96" height="96" viewBox="0 0 96 96" fill="none" xmlns="http://www.w3.org/2000/svg">
<circle cx="48" cy="48" r="47" fill="white" stroke="white" stroke-width="2"/>
<path d="M29.836 37.0039C21.5267 39.8803 16.08 44.6615 16.08 50.0735C16.08 58.8538 30.368 65.9689 48 65.9689C65.632 65.9689 79.92 58.8538 79.92 50.0735C79.92 41.2932 65.632 34.1781 48 34.1781C46.2773 34.1781 44.58 34.2412 42.9333 34.3799L42.7434 35.1999C44.0734 35.1116 45.4287 35.0612 46.7967 35.0612C63.466 35.0612 76.9687 41.7852 76.9687 50.0861C76.9687 58.387 63.4534 65.111 46.7967 65.111C30.14 65.111 16.6247 58.387 16.6247 50.0861C16.6247 45.0399 21.628 40.5741 29.304 37.8492L29.836 37.0039Z" fill="#164E7C"/>
<path d="M43.7567 35.2252C43.7567 35.2252 43.6047 34.9729 43.1233 34.8467C43.06 34.8341 43.0347 34.7711 43.1867 34.6827C43.1867 34.6827 43.6933 34.3169 43.3387 34.1151C43.3387 34.1151 43.25 34.0015 42.5027 34.0394C42.5027 34.0394 42.3 34.0141 42.4773 33.8123C42.4773 33.8123 42.642 33.5221 42.3633 33.4969C42.3633 33.4969 41.616 33.4212 41.0333 33.6987C41.0333 33.6987 41.4893 33.2824 40.9573 33.2698C40.9573 33.2698 40.7673 33.2446 40.9953 33.2067C40.9953 33.2067 42.0213 33.0554 41.2867 32.6517C41.2867 32.6517 41.046 32.5886 41.312 32.5003C41.312 32.5003 41.8567 32.248 41.426 32.1092C41.3247 32.0714 41.1347 32.0587 40.8307 32.084C40.8307 32.084 40.59 32.1092 40.7927 31.9704L41.046 31.8191C41.046 31.8191 41.3247 31.6298 41.0333 31.4532C41.0333 31.4532 40.742 31.1631 39.6907 31.2387C39.6907 31.2387 39.2727 31.3018 39.526 31.1126L39.8427 30.9107C39.8427 30.9107 40.3367 30.4944 39.564 30.4692C39.564 30.4692 38.994 30.4314 38.2213 30.8477C38.2213 30.8477 37.9173 30.9991 38.0567 30.7467C38.0567 30.7467 38.2593 30.4187 38.006 30.4061C38.006 30.4061 37.4613 30.2674 36.4227 31.2514C36.296 31.3397 36.144 31.3271 36.1693 31.0495C36.1693 31.0495 36.3467 30.3178 35.7513 30.5449C35.7513 30.5449 35.5487 30.6332 35.232 31.0621C35.232 31.0621 35.118 31.1378 35.0673 31.0369C35.0673 31.0369 34.8013 30.608 34.3707 30.3683C34.206 30.2421 33.674 30.0781 33.826 30.5323C33.826 30.5323 33.864 30.6332 33.9273 30.6711C34.0033 30.772 34.0413 30.936 33.788 30.8224C33.788 30.8224 33.0533 30.3304 32.2553 30.4944C32.2553 30.4944 31.8247 30.608 32.0527 30.8855C32.0527 30.8855 32.2047 31.0369 32.458 31.1126C32.458 31.1126 32.6733 31.264 32.3947 31.2387C32.3947 31.2387 31.5967 31.1252 31.1153 31.3775C31.1153 31.3775 30.71 31.5794 30.938 31.756C30.938 31.756 31.0773 31.8695 31.1913 31.92C31.242 31.9452 31.3053 32.0461 31.0773 32.0461L30.6087 32.084C30.6087 32.084 30.2033 32.1849 30.5073 32.4498C30.5073 32.4498 30.6973 32.576 30.8367 32.5507C30.8873 32.5507 30.9633 32.6391 30.7733 32.6391C30.7733 32.6391 30.596 32.6517 30.406 32.8157C30.406 32.8157 30.1527 33.0806 30.5833 33.1689L31.1027 33.2446C31.1027 33.2446 30.406 33.1437 30.6973 33.5726C30.6973 33.5726 30.3807 33.2824 30.0007 33.2824C30.0007 33.2824 29.2153 33.1815 29.2787 33.5726C29.2787 33.5726 29.3167 33.7997 29.684 33.9132C29.684 33.9132 29.8867 34.0772 29.3927 34.0267C29.3927 34.0267 29.1393 33.9637 28.9113 34.052C28.9113 34.052 28.3793 34.1907 28.5947 34.4809C28.5947 34.4809 28.734 34.6197 28.886 34.6575C28.886 34.6575 29 34.7711 28.7973 34.8089C28.7973 34.8089 28.506 34.872 28.2907 35.0991C28.2907 35.0991 27.9107 35.4901 28.2653 35.692C28.2653 35.692 28.43 35.7677 28.7973 35.6667C28.7973 35.6667 29.0127 35.5532 28.9113 35.7551C28.9113 35.7551 28.7213 36.0831 28.62 36.3101C28.62 36.3101 28.2273 37.0418 28.9113 36.8652C28.9113 36.8652 29.228 36.7643 29.342 36.6886C29.4307 36.6381 29.608 36.676 29.4307 36.8147C29.4307 36.8147 28.5693 37.3572 28.316 38.0637C28.316 38.0637 28.1007 38.5935 28.4047 38.7827L31.014 36.84L32.0653 37.6221V36.6507H32.8887V38.2529L36.1693 40.7129L35.726 41.2932L34.814 40.6372V44.0686H41.844C41.844 44.0686 40.78 43.1981 37.512 42.9584C37.512 42.9584 36.182 41.4194 37.4993 39.3C37.4993 39.3 37.6767 38.9972 37.8287 39.5018C37.8287 39.5018 38.082 39.9812 38.348 39.5018C38.348 39.5018 38.5253 39.2747 38.6013 38.7071C38.6013 38.7071 38.652 38.4547 38.7407 38.7197C38.7407 38.7197 38.7407 39.1486 38.9307 39.4261C38.9307 39.4261 39.032 39.6911 39.336 39.5649L39.5767 39.2747C39.5767 39.2747 39.6907 39.1486 39.6907 39.3C39.6907 39.3 39.5767 39.6406 39.6653 39.7794C39.6653 39.7794 39.7033 40.019 40.02 39.9434C40.02 39.9434 40.2227 39.8046 40.324 39.5775C40.3747 39.4892 40.4507 39.4766 40.4887 39.6027L40.628 40.0443C40.628 40.0443 40.7293 40.3597 41.046 40.1704C41.046 40.1704 41.2993 40.0317 41.4513 39.6154C41.4513 39.6154 41.5147 39.4514 41.5653 39.6027L41.6667 40.0695C41.6667 40.0695 41.92 40.5489 42.2367 39.9938C42.2367 39.9938 42.4013 39.7037 42.4647 39.3126C42.4647 39.3126 42.528 38.7449 42.6167 38.972C42.6167 38.972 42.7053 39.6154 43.136 39.5018C43.136 39.5018 43.3513 39.5018 43.3767 38.7449C43.3767 38.7449 43.516 37.7987 42.5407 36.5751C42.5407 36.5751 42.4393 36.3227 42.6293 36.4237L42.9713 36.6886C42.9713 36.6886 43.288 36.9661 43.3513 36.6003C43.3513 36.6003 43.402 36.1714 43.1107 35.8686C43.1107 35.8686 42.9967 35.7298 43.1993 35.6794L43.6047 35.6163C43.63 35.6541 43.972 35.5406 43.7567 35.2252ZM32.8887 33.3834C32.8887 33.3834 33.2053 33.724 33.1167 34.052C33.1167 34.052 32.9773 33.6735 32.648 33.6609C32.6607 33.6609 32.572 33.1058 32.8887 33.3834ZM33.6107 36.0957C33.1927 35.8055 32.914 35.6541 32.914 35.6541C33.3067 35.7551 33.408 35.5027 33.408 35.5027C33.4587 35.6541 33.5473 35.8055 33.6487 35.9443C33.636 35.9947 33.6233 36.0452 33.6107 36.0957ZM35.1813 33.1437C35.194 33.0806 35.1813 33.0175 35.1687 32.9544C35.3333 32.9923 35.4853 32.9923 35.5487 32.8914C35.498 32.9671 35.2573 33.3834 35.4347 34.052C35.4347 34.052 35.3333 33.6987 35.1053 33.3077C35.1433 33.2572 35.1687 33.2067 35.1813 33.1437ZM35.7133 37.824C35.7133 37.824 35.4727 37.1301 35.1687 36.6255C35.4347 36.5246 35.536 36.2218 35.536 36.2218C35.536 36.2218 35.6373 36.6886 35.9667 36.6886C35.9667 36.676 35.9667 36.9409 35.7133 37.824ZM36.6127 38.8458C36.8787 38.0889 36.8913 37.8871 37.1193 37.0671C37.2207 37.2563 37.3853 37.3446 37.5753 37.3572C37.55 37.3951 37.5373 37.4455 37.5373 37.496C37.5373 37.5591 37.5627 37.6095 37.6007 37.66C37.0433 38.2024 36.6127 38.8458 36.6127 38.8458ZM37.056 35.2883C37.3473 34.6575 37.132 34.216 37.132 34.216C37.246 34.4935 37.7907 34.2286 37.7907 34.2286C37.4613 34.5314 37.056 35.2883 37.056 35.2883ZM39.488 33.4591C39.4627 33.6861 39.2347 33.8375 39.2347 33.8375C39.2347 33.8375 39.298 33.396 39.0193 33.4086C39.0193 33.4086 39.4373 33.0806 39.488 33.4591ZM39.0827 36.3606C39.5007 36.0074 39.5007 35.6163 39.5007 35.6163C39.488 35.856 39.9693 35.8434 39.9693 35.8434C39.64 35.9443 39.0827 36.3606 39.0827 36.3606ZM39.8427 35.4018C40.5013 35.2 40.6913 34.7458 40.6913 34.7458C40.5647 35.0234 41.122 35.2378 41.122 35.2378C40.666 35.1874 39.8427 35.4018 39.8427 35.4018ZM40.9067 37.4707C40.7547 37.4455 40.5647 37.3951 40.3493 37.332C40.3493 37.332 40.8687 37.2311 41.008 37.0797C41.008 37.0797 41.0207 37.2815 41.1727 37.4203C41.084 37.4329 40.9827 37.4455 40.9067 37.4707Z" fill="#164E7C"/>
<path d="M30.9 39.5018H29.5574V40.3092H30.9V39.5018Z" fill="#164E7C"/>
<path d="M32.61 39.5018H31.2673V40.3092H32.61V39.5018Z" fill="#164E7C"/>
<path d="M30.9 40.6498H29.5574V41.4572H30.9V40.6498Z" fill="#164E7C"/>
<path d="M32.61 40.6498H31.2673V41.4572H32.61V40.6498Z" fill="#164E7C"/>
<path fill-rule="evenodd" clip-rule="evenodd" d="M42.186 59.4468H42.5534V58.0213H43.6934V57.6933H42.5534V56.7345H43.7567V56.4065H42.186V59.4468Z" fill="#164E7C"/>
<path fill-rule="evenodd" clip-rule="evenodd" d="M44.162 58.0591V57.9708C44.162 57.832 44.2 57.3778 44.58 57.3778C44.8967 57.3778 44.9727 57.6806 44.9727 57.9329V58.0591H44.162ZM45.3527 58.3492V58.2105C45.3527 57.7185 45.2893 57.1129 44.5927 57.1129C43.8833 57.1129 43.7693 57.7689 43.7693 58.3492C43.7693 59.1314 44.01 59.5225 44.5673 59.5225C45.188 59.5225 45.34 58.9548 45.34 58.7151H44.9853C44.9853 58.8791 44.9347 59.2449 44.5927 59.2449C44.1493 59.2449 44.1493 58.7151 44.1493 58.3618H45.3527V58.3492Z" fill="#164E7C"/>
<path fill-rule="evenodd" clip-rule="evenodd" d="M45.9227 58.2988C45.9227 57.7563 46.0114 57.4031 46.3407 57.4031C46.7207 57.4031 46.7967 57.8573 46.7967 58.2988C46.7967 58.816 46.7334 59.1945 46.3407 59.1945C46.0114 59.1945 45.9227 58.8413 45.9227 58.2988ZM47.1514 56.4065H46.7967V57.4283H46.784C46.708 57.2265 46.48 57.113 46.2774 57.113C45.6314 57.113 45.5554 57.832 45.5554 58.3114C45.5554 59.0305 45.758 59.5099 46.3027 59.5099C46.556 59.5099 46.746 59.3333 46.7967 59.1693H46.8094V59.4468H47.1514V56.4065Z" fill="#164E7C"/>
<path fill-rule="evenodd" clip-rule="evenodd" d="M47.8227 58.0591V57.9708C47.8227 57.832 47.8607 57.3778 48.2407 57.3778C48.5574 57.3778 48.6334 57.6806 48.6334 57.9329V58.0591H47.8227ZM49.0134 58.3492V58.2105C49.0134 57.7185 48.95 57.1129 48.2534 57.1129C47.544 57.1129 47.4427 57.7689 47.4427 58.3492C47.4427 59.1314 47.6834 59.5225 48.2407 59.5225C48.8614 59.5225 49.0134 58.9548 49.0134 58.7151H48.6334C48.6334 58.8791 48.5827 59.2449 48.2407 59.2449C47.7974 59.2449 47.7974 58.7151 47.7974 58.3618H49.0134V58.3492Z" fill="#164E7C"/>
<path fill-rule="evenodd" clip-rule="evenodd" d="M49.2033 59.4468H49.558V58.0086C49.558 57.6302 49.8493 57.4662 50.0267 57.4662C50.1407 57.4662 50.1787 57.4788 50.2167 57.4788V57.1256C50.1787 57.113 50.128 57.1003 50.052 57.1003C49.7987 57.1003 49.6593 57.2896 49.558 57.504H49.5453V57.1634H49.1907V59.4468H49.2033Z" fill="#164E7C"/>
<path fill-rule="evenodd" clip-rule="evenodd" d="M50.66 57.8194C50.66 57.7437 50.66 57.3652 51.0527 57.3652C51.2933 57.3652 51.42 57.4914 51.42 57.7058C51.42 57.8951 51.42 57.9708 51.154 58.0465L50.6727 58.1852C50.3813 58.2735 50.242 58.5006 50.242 58.816C50.242 59.2197 50.4447 59.4846 50.8627 59.4846C51.078 59.4846 51.2933 59.3585 51.42 59.1566H51.4327C51.4453 59.4468 51.6227 59.4468 51.762 59.4468C51.8507 59.4468 51.952 59.4342 51.9773 59.4215V59.1692C51.9647 59.1818 51.9393 59.1945 51.8887 59.1945C51.7747 59.1945 51.7747 59.1062 51.7747 59.0052V57.7311C51.7747 57.4914 51.7747 57.0751 51.078 57.0751C50.5333 57.0751 50.3053 57.3022 50.3053 57.8194H50.66ZM51.4073 58.7908C51.4073 59.0305 51.1793 59.2197 50.9513 59.2197C50.7107 59.2197 50.622 59.0557 50.622 58.8286C50.622 58.6268 50.6853 58.5385 50.7993 58.4628C50.964 58.3618 51.2807 58.3366 51.4073 58.1978V58.7908Z" fill="#164E7C"/>
<path d="M52.522 56.4065H52.1674V59.4468H52.522V56.4065Z" fill="#164E7C"/>
<path fill-rule="evenodd" clip-rule="evenodd" d="M54.7007 58.3997C54.688 58.7655 54.6247 59.1945 54.1687 59.1945C53.6493 59.1945 53.5733 58.6268 53.5733 57.9203C53.5733 57.2138 53.6367 56.6462 54.1687 56.6462C54.5613 56.6462 54.6627 56.9363 54.6753 57.2895H55.068C55.0553 56.6966 54.7893 56.3434 54.1687 56.3434C53.32 56.3434 53.1807 57.1508 53.1807 57.9203C53.1807 58.6898 53.2947 59.4972 54.1687 59.4972C54.84 59.4972 55.068 58.9674 55.0933 58.3997H54.7007Z" fill="#164E7C"/>
<path fill-rule="evenodd" clip-rule="evenodd" d="M55.3214 59.4468H55.676V58.0086C55.676 57.6302 55.9674 57.4662 56.1447 57.4662C56.2587 57.4662 56.2967 57.4788 56.3347 57.4788V57.1256C56.2967 57.113 56.246 57.1003 56.17 57.1003C55.9167 57.1003 55.7774 57.2896 55.676 57.504H55.6634V57.1634H55.3087V59.4468H55.3214Z" fill="#164E7C"/>
<path fill-rule="evenodd" clip-rule="evenodd" d="M56.702 58.0591V57.9708C56.702 57.832 56.74 57.3778 57.12 57.3778C57.4367 57.3778 57.5127 57.6806 57.5127 57.9329V58.0591H56.702ZM57.8927 58.3492V58.2105C57.8927 57.7185 57.8293 57.1129 57.1327 57.1129C56.4233 57.1129 56.3093 57.7689 56.3093 58.3492C56.3093 59.1314 56.55 59.5225 57.1073 59.5225C57.728 59.5225 57.88 58.9548 57.88 58.7151H57.5253C57.5253 58.8791 57.4747 59.2449 57.1327 59.2449C56.6893 59.2449 56.6893 58.7151 56.6893 58.3618H57.8927V58.3492Z" fill="#164E7C"/>
<path fill-rule="evenodd" clip-rule="evenodd" d="M58.4247 58.2988C58.4247 57.7563 58.5133 57.4031 58.8427 57.4031C59.2227 57.4031 59.2987 57.8573 59.2987 58.2988C59.2987 58.816 59.2353 59.1945 58.8427 59.1945C58.5007 59.1945 58.4247 58.8413 58.4247 58.2988ZM59.6407 56.4065H59.286V57.4283H59.2733C59.1973 57.2265 58.9693 57.113 58.7667 57.113C58.1207 57.113 58.0447 57.832 58.0447 58.3114C58.0447 59.0305 58.2473 59.5099 58.792 59.5099C59.0453 59.5099 59.2353 59.3333 59.286 59.1693H59.2987V59.4468H59.6407V56.4065Z" fill="#164E7C"/>
<path fill-rule="evenodd" clip-rule="evenodd" d="M59.97 59.4468H60.3247V57.1634H59.97V59.4468ZM59.97 56.8102H60.3247V56.4065H59.97V56.8102Z" fill="#164E7C"/>
<path fill-rule="evenodd" clip-rule="evenodd" d="M60.8187 57.1633H60.4894V57.4409H60.8187V59.0178C60.8187 59.3206 60.9074 59.4719 61.2747 59.4719C61.4267 59.4719 61.5154 59.4593 61.566 59.4467V59.1566C61.528 59.1566 61.49 59.1692 61.414 59.1692C61.224 59.1692 61.1734 59.0935 61.1734 58.9169V57.4535H61.566V57.1759H61.1734V56.5073H60.8187V57.1633Z" fill="#164E7C"/>
<path fill-rule="evenodd" clip-rule="evenodd" d="M62.174 58.5385C62.174 59.1693 62.4527 59.4973 63.0733 59.4973C63.6687 59.4973 63.9727 59.1188 63.9727 58.5385V56.4065H63.5927V58.5385C63.5927 58.9674 63.4787 59.1945 63.0733 59.1945C62.706 59.1945 62.554 58.98 62.554 58.5385V56.4065H62.174V58.5385Z" fill="#164E7C"/>
<path fill-rule="evenodd" clip-rule="evenodd" d="M64.2134 59.4468H64.568V57.8698C64.568 57.5418 64.834 57.4031 65.024 57.4031C65.3534 57.4031 65.366 57.6932 65.366 57.8698V59.4468H65.7207V57.832C65.7207 57.5671 65.7207 57.1129 65.1127 57.1129C64.8847 57.1129 64.644 57.2265 64.5554 57.4409H64.5427V57.176H64.2134V59.4468Z" fill="#164E7C"/>
<path fill-rule="evenodd" clip-rule="evenodd" d="M66.0627 59.4468H66.4173V57.1634H66.0627V59.4468ZM66.0627 56.8102H66.4173V56.4065H66.0627V56.8102Z" fill="#164E7C"/>
<path fill-rule="evenodd" clip-rule="evenodd" d="M66.6454 58.2988C66.6454 58.9422 66.8101 59.4973 67.4687 59.4973C68.1274 59.4973 68.2921 58.9422 68.2921 58.2988C68.2921 57.6554 68.1274 57.1003 67.4687 57.1003C66.8101 57.1003 66.6454 57.6554 66.6454 58.2988ZM67.4561 59.2197C67.0887 59.2197 67.0127 58.7908 67.0127 58.2988C67.0127 57.8068 67.0887 57.3779 67.4561 57.3779C67.8361 57.3779 67.9121 57.8068 67.9121 58.2988C67.9121 58.7908 67.8361 59.2197 67.4561 59.2197Z" fill="#164E7C"/>
<path fill-rule="evenodd" clip-rule="evenodd" d="M68.5327 59.4468H68.8874V57.8698C68.8874 57.5418 69.1534 57.4031 69.3434 57.4031C69.6727 57.4031 69.6854 57.6932 69.6854 57.8698V59.4468H70.04V57.832C70.04 57.5671 70.04 57.1129 69.432 57.1129C69.204 57.1129 68.976 57.2265 68.8747 57.4409H68.862V57.176H68.52V59.4468H68.5327Z" fill="#164E7C"/>
<path fill-rule="evenodd" clip-rule="evenodd" d="M23.11 42.2267V55.6368H24.7567V45.923C24.7314 45.3553 24.6934 44.775 24.6934 44.1947H24.7694C24.934 45.7716 25.048 47.2855 25.3774 48.9381L26.3274 55.6495H29.2914V42.2267H27.6447V49.0516C27.6447 50.351 27.7207 51.6756 27.6954 52.975V53.6941H27.6194C27.4547 51.171 27.1254 48.5848 26.6694 46.0996L26.0994 42.2393H23.11V42.2267Z" fill="#164E7C"/>
<path fill-rule="evenodd" clip-rule="evenodd" d="M32.496 51.3981V53.9212C32.496 54.4132 32.3313 54.4511 32.0653 54.4511C31.7993 54.4511 31.6347 54.4132 31.6347 53.9212V50.4898H34.32V46.5286C34.32 45.4185 33.446 44.7246 32.0653 44.7246C30.6847 44.7246 29.8107 45.4185 29.8107 46.5286V53.9465C29.8107 55.0566 30.6847 55.7505 32.0653 55.7505C33.446 55.7505 34.32 55.0566 34.32 53.9465V51.3855H32.496V51.3981ZM32.496 49.2409H31.622V46.5791C31.622 46.0871 31.7867 46.0492 32.0527 46.0492C32.3187 46.0492 32.4833 46.0871 32.4833 46.5791V49.2409H32.496Z" fill="#164E7C"/>
<path fill-rule="evenodd" clip-rule="evenodd" d="M36.676 55.6369V44.8634H34.8647V55.6369H36.676Z" fill="#164E7C"/>
<path fill-rule="evenodd" clip-rule="evenodd" d="M38.994 46.9323C38.994 46.3646 39.1967 46.2763 39.4247 46.2763C39.6527 46.2763 39.8553 46.3646 39.8553 46.9323V52.2055C39.8553 52.7732 39.6527 52.8615 39.4247 52.8615C39.1967 52.8615 38.994 52.7732 38.994 52.2055V46.9323ZM41.692 44.8633H39.8807V45.5067C39.5007 45.0778 39.0447 44.7372 38.5507 44.7372C37.664 44.7372 37.1827 45.2796 37.1827 46.1753V52.9876C37.1827 53.8707 37.6513 54.4258 38.5507 54.4258C39.1713 54.4258 39.5387 54.1861 39.8047 53.6941H39.8427V56.091C39.8427 56.6587 39.64 56.747 39.412 56.747C39.184 56.747 38.9813 56.6587 38.9813 56.091V54.9178H37.208V56.255C37.208 57.3652 38.082 58.059 39.4627 58.059C40.8433 58.059 41.7173 57.3652 41.7173 56.255V44.8633H41.692Z" fill="#164E7C"/>
<path fill-rule="evenodd" clip-rule="evenodd" d="M43.9974 42.2267H42.186V55.6368H43.9974V46.9322C43.9974 46.6295 44.01 46.2762 44.466 46.2762C44.846 46.2762 44.8587 46.6295 44.8587 46.9322V55.6368H46.67V46.6673C46.67 45.5319 46.6574 44.7245 45.264 44.7245C44.77 44.7245 44.276 44.9642 44.01 45.4815H43.972V42.2267H43.9974Z" fill="#164E7C"/>
<path fill-rule="evenodd" clip-rule="evenodd" d="M49.8747 53.568C49.8747 54.1357 49.672 54.224 49.444 54.224C49.216 54.224 49.0133 54.1357 49.0133 53.568V46.9323C49.0133 46.3646 49.216 46.2763 49.444 46.2763C49.672 46.2763 49.8747 46.3646 49.8747 46.9323V53.568ZM47.1893 55.6369H49.0133V54.9935H49.0513C49.33 55.3846 49.8113 55.763 50.356 55.763C51.0527 55.763 51.6987 55.3846 51.6987 54.5015V45.9861C51.6987 45.103 51.0527 44.7246 50.356 44.7246C49.7733 44.7246 49.3173 45.1156 49.0513 45.532H49.0133V42.2141H47.202V55.6369H47.1893Z" fill="#164E7C"/>
<path fill-rule="evenodd" clip-rule="evenodd" d="M56.6767 46.5412C56.6767 45.431 55.8027 44.7372 54.422 44.7372C53.0414 44.7372 52.1674 45.431 52.1674 46.5412V53.959C52.1674 55.0692 53.0414 55.763 54.422 55.763C55.8027 55.763 56.6767 55.0692 56.6767 53.959V46.5412ZM54.8654 53.9212C54.8654 54.4132 54.7007 54.451 54.4347 54.451C54.1687 54.451 54.004 54.4132 54.004 53.9212V46.579C54.004 46.087 54.1814 46.0492 54.4347 46.0492C54.7007 46.0492 54.8654 46.087 54.8654 46.579V53.9212Z" fill="#164E7C"/>
<path fill-rule="evenodd" clip-rule="evenodd" d="M57.158 55.6369H58.9693V46.9323C58.9693 46.6295 58.982 46.2763 59.438 46.2763C59.818 46.2763 59.8307 46.6295 59.8307 46.9323V50.4898H61.642V46.7809C61.642 45.6455 61.68 44.7246 60.2487 44.7246C59.7547 44.7246 59.2607 44.9643 58.9947 45.4815H58.9567V44.8634H57.1453V55.6369H57.158Z" fill="#164E7C"/>
<path fill-rule="evenodd" clip-rule="evenodd" d="M61.8573 51.436V53.959C61.8573 55.0692 62.7313 55.763 64.112 55.763C65.4927 55.763 66.3667 55.0692 66.3667 53.959V51.7766C66.3667 50.1744 63.6813 48.6858 63.6813 47.5883V46.7052C63.6813 46.1375 63.884 46.0492 64.112 46.0492C64.34 46.0492 64.5427 46.1375 64.5427 46.7052V48.7615H66.354V46.5412C66.354 45.431 65.48 44.7372 64.0993 44.7372C62.7187 44.7372 61.8447 45.431 61.8447 46.5412V47.992C61.8447 49.7076 64.53 50.944 64.53 52.6849V53.795C64.53 54.3627 64.3273 54.451 64.0993 54.451C63.8713 54.451 63.6687 54.3627 63.6687 53.795V51.436H61.8573Z" fill="#164E7C"/>
</svg>
