<svg width="96" height="96" viewBox="0 0 96 96" fill="none" xmlns="http://www.w3.org/2000/svg">
<circle cx="48" cy="48" r="47" fill="white" stroke="white" stroke-width="2"/>
<g clip-path="url(#clip0_1_1644)">
<path d="M41.1671 44.3682C41.1671 44.2768 41.2128 44.2311 41.2128 44.1397C41.5327 42.7228 41.7155 41.9916 43.3152 41.9001L43.5437 40.8032H43.498C43.041 40.8032 42.5839 40.8489 42.1726 40.8489C41.3042 40.8946 40.4358 40.8946 39.5217 40.8946C38.379 40.8946 37.1907 40.8489 36.0481 40.8032L35.8195 41.9001H36.6422C37.4192 41.9001 37.9677 41.9459 37.9677 43.1342C37.922 43.9112 37.7392 44.6882 37.5563 45.4195C37.5563 45.5109 37.5106 45.6023 37.5106 45.6937L36.0024 52.8237C35.911 53.2808 35.8195 53.6921 35.6824 54.1492C35.3625 55.5203 35.0426 56.9829 34.6312 58.3083C34.4484 58.9482 33.9456 60.0451 32.9858 60.0451C32.3002 59.9994 32.1174 59.2224 31.8889 58.3998C31.6604 57.4856 31.4318 56.5715 30.472 56.5715C29.6493 56.5715 29.0095 57.3485 29.0095 58.3083C29.0095 59.3139 29.5122 60.1366 30.3806 60.685C31.0662 61.0964 31.9803 61.3249 32.8487 61.3249C36.5508 61.3249 37.5106 58.7197 38.5619 54.7433C38.699 54.1492 38.8818 53.5093 39.0646 52.8237C39.3846 51.6811 39.7045 50.5384 39.933 49.5329L41.1671 44.3682Z" fill="#3F524B"/>
<path d="M47.4744 48.847C46.2861 47.3844 45.1434 46.0132 45.1434 44.3679C45.1434 42.951 46.1489 41.8084 47.2916 41.8084C48.3885 41.8084 50.171 42.4025 50.171 46.3789L51.0851 46.6074C51.405 45.3734 51.6336 44.0936 51.8164 42.8139C51.9078 42.174 52.0449 41.4884 52.1363 40.8486V40.8028H51.1308L50.5366 42.2197C49.4397 41.0771 48.2971 40.4829 47.063 40.4829C45.7833 40.4829 44.595 40.9857 43.7266 41.8541C42.8125 42.8139 42.3097 44.1393 42.3097 45.739C42.3097 48.3442 43.6809 50.0353 45.0063 51.635C46.2404 53.1433 47.4287 54.6058 47.4287 56.7083C47.4287 57.8052 46.9716 58.4908 46.5603 58.9021C46.0575 59.4049 45.372 59.6791 44.6864 59.6791C42.1269 59.4963 41.4413 56.6626 41.3042 54.3316L40.3901 54.1945C40.1616 56.1598 39.7959 58.2166 39.4303 60.3647V60.4104H40.4815L41.0757 58.9021C42.2183 60.2733 43.7723 61.0503 45.372 61.0503C46.7431 61.0503 48.0229 60.5018 48.937 59.542C49.9425 58.4908 50.4909 57.0739 50.4909 55.3828C50.4909 52.5034 48.8913 50.5381 47.4744 48.847Z" fill="#3F524B"/>
<path d="M59.6777 50.0812C63.1513 49.6241 64.8424 47.9787 64.8424 45.145C64.8424 43.591 64.2025 42.4484 62.9685 41.6714C61.7344 40.9401 60.2262 40.803 59.4492 40.803L56.5697 40.8487C55.747 40.8487 54.8786 40.803 54.0102 40.803C53.5989 40.803 53.1875 40.7573 52.7305 40.7573L52.502 41.8542H53.279C54.056 41.8542 54.6044 41.8999 54.6044 43.0883C54.5587 43.8652 54.3759 44.5965 54.1931 45.3278C54.1931 45.4192 54.1474 45.5106 54.1474 45.602L51.5879 57.0284C51.1308 58.948 50.948 59.3593 49.4397 59.4965L49.2112 60.5477V60.5934H49.2569C49.8968 60.5934 50.5823 60.5934 51.2222 60.5477C51.8621 60.5477 52.5477 60.502 53.1875 60.502C53.7817 60.502 54.4216 60.502 55.0158 60.5477C55.6099 60.5477 56.2498 60.5934 56.844 60.5934C58.3522 60.5934 60.2719 60.4106 61.8258 59.0851C62.9685 58.1253 63.7455 56.3885 63.7455 54.6974C63.7455 53.3719 63.2884 52.275 62.4657 51.4066C61.5059 50.6753 60.4547 50.264 59.6777 50.0812ZM59.2206 57.4854C58.8093 58.3538 57.9866 59.405 56.7069 59.405C55.7013 59.405 55.1072 58.7195 55.1072 57.6682C55.1072 57.1198 55.1986 56.617 55.3357 56.0229L56.5697 50.5839H57.0725C57.9866 50.5839 58.6722 50.8125 59.1749 51.3152C59.7234 51.8637 59.9976 52.6864 59.9976 53.7833C59.9976 55.063 59.7234 56.4799 59.2206 57.4854ZM56.844 49.1671L58.1694 43.1797C58.3979 42.2199 58.4894 42.0827 59.3578 42.0827C60.6375 42.0827 61.4145 43.0883 61.4145 44.7336C61.4145 47.7045 60.0433 49.1671 57.3467 49.1671H56.844ZM72.1552 62.9243C72.1552 62.8786 72.2009 62.8329 72.2009 62.7872C72.2009 62.7415 72.2467 62.6958 72.2924 62.6501C72.3381 62.5587 72.4295 62.4673 72.5209 62.3759C72.6123 62.2845 72.7037 62.2388 72.7951 62.1931C73.1608 61.9645 73.5264 61.7817 73.892 61.5532C74.2577 61.3247 74.5776 61.1875 74.8518 61.0047C75.0347 61.2333 75.1718 61.4618 75.3089 61.5989C75.4003 61.736 75.5374 61.9645 75.7203 62.1931C75.8117 62.3759 75.9031 62.513 75.9031 62.6958C75.9488 62.8329 75.9488 63.0615 75.9488 63.2443L76.1773 63.29L76.4972 61.5075L76.2687 61.4618C76.223 61.5989 76.223 61.6903 76.1773 61.7817C76.1316 61.8274 76.1316 61.8731 76.0859 61.8731C75.9945 61.8731 75.9488 61.8274 75.8574 61.736C75.766 61.6446 75.6288 61.5075 75.4917 61.3247C75.4003 61.1875 75.2632 61.0047 75.0804 60.7762C74.8976 60.5477 74.8061 60.3191 74.669 60.1363V59.9992L76.0859 60.2277C76.1316 60.2277 76.223 60.2734 76.2687 60.3191C76.3144 60.3649 76.3601 60.4106 76.3601 60.502V60.959L76.5887 61.0047L77 58.7195L76.7715 58.6738C76.7715 58.7195 76.7258 58.8109 76.6801 58.8566C76.6344 58.948 76.6344 58.9937 76.5887 59.0851C76.5429 59.1765 76.4972 59.2222 76.4515 59.2222H76.2687L73.3436 58.7195C73.2522 58.7195 73.2065 58.6738 73.1608 58.628C73.1151 58.5823 73.0693 58.5366 73.0693 58.4452V57.9882L72.8408 57.9425L72.4752 60.1363L72.7037 60.182C72.7037 60.1363 72.7494 60.0449 72.7951 59.9992C72.8408 59.9535 72.8408 59.8621 72.8865 59.8621C72.9322 59.7707 72.9779 59.7707 73.0236 59.725H73.2065L74.5319 59.9535L74.4862 60.0906C74.0292 60.3191 73.6635 60.5477 73.3893 60.6848C73.1151 60.8219 72.7494 61.0047 72.3381 61.1875L72.0638 62.8329L72.1552 62.9243ZM77 58.0796V56.2514H76.7715C76.7715 56.3428 76.7258 56.4342 76.7258 56.5256L76.5887 56.7998C76.5429 56.8912 76.4515 56.937 76.3144 56.9827C76.1773 57.0284 75.9945 57.0284 75.766 57.0284H74.1663L77 54.6974V53.0977H76.7715C76.7715 53.2348 76.7258 53.3262 76.6801 53.4177C76.6344 53.5091 76.5887 53.6005 76.5429 53.6462C76.4972 53.6919 76.4058 53.7376 76.3144 53.7833C76.223 53.829 76.1316 53.829 76.0402 53.829H74.0292C73.7549 53.829 73.5721 53.829 73.435 53.7833C73.2979 53.7376 73.2522 53.6919 73.1608 53.6462C73.1151 53.6005 73.0693 53.5091 73.0693 53.4177C73.0236 53.3262 73.0236 53.2348 73.0236 53.1434H72.7951V54.9716H73.0236C73.0236 54.8802 73.0693 54.7888 73.0693 54.6974C73.1151 54.5603 73.1608 54.5146 73.1608 54.4232C73.2065 54.3318 73.2979 54.286 73.435 54.2403C73.5721 54.1946 73.7549 54.1946 73.9835 54.1946H75.9488L72.7037 56.8455V57.394H75.7203C75.9488 57.394 76.1773 57.394 76.3144 57.4397C76.4515 57.4854 76.5429 57.5311 76.5887 57.5768L76.7258 57.8511C76.7258 57.9425 76.7715 58.0339 76.7715 58.0796H77ZM73.6635 49.3042L75.2632 49.5784L73.892 50.4925L73.6635 49.3042ZM72.9322 52.9606V52.7778C72.9322 52.6864 72.9322 52.6407 72.9779 52.595C73.0236 52.5035 73.0236 52.4578 73.0693 52.4121L73.2065 52.275C73.5264 52.0465 73.9377 51.7723 74.4405 51.4523C74.9433 51.1324 75.6288 50.6753 76.4515 50.0812L76.3144 49.487C75.5831 49.3499 74.9433 49.2128 74.3491 49.1214C73.7549 49.0299 73.1608 48.8928 72.5666 48.8014C72.4752 48.8014 72.3838 48.7557 72.2924 48.71C72.2009 48.6643 72.1552 48.6186 72.0638 48.5272C72.0181 48.4815 71.9724 48.4358 71.9724 48.3444C71.9267 48.253 71.9267 48.2072 71.881 48.1158L71.6525 48.1615L72.0181 49.8526L72.2467 49.8069C72.2009 49.5784 72.2009 49.4413 72.2467 49.3042C72.2924 49.2128 72.2924 49.1214 72.3838 49.1214H72.7037C72.7951 49.1214 72.8865 49.1671 73.0236 49.1671C73.1608 49.1671 73.2522 49.2128 73.3436 49.2128L73.6635 50.6296L72.8865 51.1781C72.8408 51.1781 72.8408 51.2238 72.7951 51.2238H72.7494C72.7037 51.2238 72.658 51.1781 72.6123 51.041C72.5666 50.9039 72.5209 50.7667 72.4752 50.6753L72.2467 50.721L72.7037 52.9606H72.9322ZM71.5611 46.7447C71.3783 46.6533 71.1954 46.5162 71.104 46.2876C71.0583 46.1505 71.0126 46.0591 71.0583 45.9677C71.0583 45.8763 71.104 45.7849 71.1497 45.7392L72.5666 45.145C72.5666 45.1907 72.6123 45.1907 72.6123 45.2821C72.658 45.3278 72.658 45.3735 72.658 45.4192C72.7951 45.7392 72.7951 45.9677 72.7494 46.1962C72.658 46.4247 72.4752 46.5619 72.2467 46.699C72.0181 46.7904 71.7439 46.8361 71.5611 46.7447ZM73.3893 45.7392C73.2065 45.6478 73.0236 45.4649 72.9322 45.1907L72.8865 45.0536L74.3491 44.4594C74.3491 44.5051 74.3948 44.5508 74.3948 44.5965C74.4405 44.6422 74.4405 44.6879 74.4405 44.7336C74.5319 44.9622 74.5776 45.1907 74.4862 45.3735C74.3948 45.5563 74.2577 45.6935 74.0749 45.7849C73.8006 45.8306 73.6178 45.8306 73.3893 45.7392ZM73.2522 46.6076C73.2522 46.4247 73.2065 46.2876 73.1608 46.1048H73.2065C73.2979 46.2419 73.3893 46.3333 73.4807 46.4704C73.5721 46.5619 73.6635 46.6533 73.8006 46.699C73.892 46.7447 74.0292 46.7904 74.1663 46.8361C74.3034 46.8361 74.3948 46.8361 74.5319 46.7904C74.8061 46.6533 74.989 46.4704 75.0347 46.1505C75.0804 45.8763 74.989 45.4192 74.7604 44.9165L73.892 42.814L73.6635 42.9054C73.6635 42.9511 73.7092 43.0426 73.7092 43.134C73.7092 43.2254 73.7549 43.2711 73.7549 43.3625C73.7549 43.4539 73.7549 43.4996 73.7092 43.5453C73.6635 43.591 73.6178 43.6367 73.5721 43.6367L70.8298 44.7794C70.7384 44.8251 70.6927 44.8251 70.647 44.8251C70.6013 44.8251 70.5556 44.7794 70.4641 44.7336C70.4184 44.6879 70.4184 44.6422 70.3727 44.5508C70.327 44.4594 70.2813 44.4137 70.2813 44.368L70.0528 44.4594L70.8755 46.4704C71.0126 46.7447 71.104 47.0189 71.2411 47.2017C71.3783 47.3846 71.5154 47.5674 71.6525 47.7045C71.7896 47.8416 71.9724 47.8873 72.1095 47.933C72.2924 47.9787 72.4752 47.933 72.658 47.8416C72.8408 47.7959 72.9322 47.6588 73.0236 47.5674C73.1151 47.4303 73.1608 47.2931 73.2065 47.156C73.2979 46.9275 73.2979 46.7904 73.2522 46.6076ZM72.8865 40.8944L71.9724 39.6147L71.7896 39.7518C71.881 39.8889 71.9267 40.026 71.9724 40.1174C71.9724 40.2088 71.9724 40.2545 71.9267 40.3002C71.881 40.3459 71.7439 40.3459 71.4697 40.3916C71.1954 40.4374 70.6927 40.4374 70.0071 40.4831C70.1442 40.1631 70.2813 39.8889 70.3727 39.6604C70.4641 39.4318 70.5556 39.249 70.647 39.1119C70.6927 38.9748 70.7841 38.8834 70.7841 38.792C70.8298 38.7463 70.8298 38.7006 70.8755 38.7006C70.9212 38.6548 70.9669 38.7006 71.0126 38.7463C71.0583 38.792 71.1954 38.8834 71.3325 39.0662L71.5154 38.9291L70.0985 36.9637L69.9157 37.1009C69.9614 37.1466 69.9614 37.1923 70.0071 37.2837C70.0528 37.3751 70.0528 37.4208 70.0528 37.4665V37.7407C70.0528 37.8322 70.0071 37.9236 69.9614 38.0607C69.87 38.2892 69.7786 38.5177 69.6415 38.792C69.55 39.0662 69.4129 39.2947 69.2758 39.6147C69.2301 39.7061 69.1844 39.7975 69.1844 39.8432C69.1387 39.8889 69.1387 39.9346 69.093 39.9803C69.093 40.026 69.0473 40.026 69.0016 40.0717C68.9559 40.1174 68.9102 40.1174 68.8645 40.1631L68.2703 40.5745C68.2246 40.6202 68.1332 40.6659 68.0875 40.6659C68.0418 40.6659 67.9504 40.6659 67.9046 40.6202C67.8589 40.5745 67.8132 40.5288 67.7218 40.4831C67.6304 40.3916 67.5847 40.3459 67.5847 40.3002L67.4019 40.4374L68.773 42.357L68.9559 42.2199C68.9102 42.1742 68.9102 42.0827 68.8645 41.9913L68.773 41.8085V41.6257L68.9102 41.4886L69.4129 41.1229C69.5957 40.9858 69.7329 40.8944 69.8243 40.8944C69.9157 40.8487 70.0528 40.8487 70.2356 40.8487C70.5556 40.8487 70.8298 40.803 71.104 40.803C71.3783 40.803 71.6068 40.7573 71.8353 40.7573H72.1552C72.2467 40.7573 72.3381 40.803 72.4295 40.8487C72.4752 40.8944 72.5209 40.8944 72.5666 40.9401L72.7037 41.0772L72.8865 40.8944ZM69.8243 36.7809L66.8991 33.9015L66.0764 34.7699L66.2593 34.9527C66.4421 34.8613 66.6249 34.8156 66.8534 34.7699C67.082 34.7242 67.2648 34.7242 67.3562 34.8156C67.4019 34.8613 67.4476 34.907 67.539 34.9527C67.6304 34.9984 67.6761 35.0898 67.7218 35.1355L67.8132 35.2269L65.4823 37.6036C65.4366 37.6493 65.3909 37.695 65.2994 37.695H65.1166C65.0709 37.695 65.0252 37.6493 64.9338 37.5579C64.8424 37.5122 64.7967 37.4208 64.751 37.4208L64.5682 37.5122L66.2593 39.1576L66.4421 38.9748C66.3964 38.9291 66.3507 38.8377 66.305 38.792C66.2593 38.7006 66.2136 38.6548 66.2136 38.6091C66.1679 38.5177 66.1679 38.472 66.2136 38.4263C66.2136 38.3806 66.2593 38.3349 66.305 38.2435L68.6359 35.9125L68.7273 36.0039L68.9102 36.1868C68.9559 36.2782 69.0016 36.3239 69.0473 36.3696C69.1387 36.461 69.1387 36.6438 69.093 36.8723C69.0473 37.1009 69.0016 37.3294 68.9102 37.5122L69.093 37.695L69.8243 36.7809ZM64.0654 36.7809L63.8826 36.5981C63.8369 36.5067 63.7912 36.461 63.7455 36.4153C63.6998 36.3239 63.6998 36.2782 63.6998 36.2325C63.6998 36.1868 63.7455 36.1411 63.7912 36.0496L65.5737 33.673L65.7108 33.5359C65.7565 33.4901 65.8479 33.4901 65.8936 33.5359C65.9393 33.5359 66.0307 33.5816 66.1221 33.6273C66.2136 33.673 66.2593 33.7187 66.305 33.7187L66.4421 33.5359L64.5682 32.119L64.431 32.3018L64.6139 32.4846C64.6596 32.576 64.7053 32.6217 64.751 32.6675C64.7967 32.7589 64.7967 32.8046 64.7967 32.8503C64.7967 32.896 64.751 32.9417 64.7053 33.0331L62.9228 35.4098L62.7857 35.5469C62.74 35.5469 62.6942 35.5926 62.6028 35.5469C62.5571 35.5469 62.5114 35.5012 62.42 35.4555C62.3286 35.4098 62.2829 35.3641 62.2372 35.3184L62.1001 35.5012L63.974 36.918L64.0654 36.7809ZM60.9574 32.0733C60.7289 32.119 60.5004 32.0733 60.2719 31.9362L60.089 31.8448L60.9117 30.2908L61.0489 30.4279C61.3231 30.565 61.4602 30.7478 61.5516 30.9307C61.643 31.1135 61.5973 31.342 61.4602 31.5705C61.3231 31.8448 61.1403 32.0276 60.9574 32.0733ZM61.9173 35.0441C61.8716 35.0441 61.8716 34.9984 61.7801 34.9527C61.7344 34.907 61.6887 34.8613 61.643 34.8613C61.5973 34.8156 61.5516 34.6785 61.5059 34.5414C61.4602 34.4043 61.4145 34.2671 61.4145 34.1757C61.3688 33.8558 61.3231 33.5816 61.2317 33.3073C61.186 33.0331 61.1403 32.7589 61.0946 32.5303C61.4602 32.6217 61.7344 32.6217 61.963 32.5303C62.1915 32.4389 62.3743 32.3018 62.5114 32.0276C62.6485 31.7533 62.6485 31.4334 62.5114 31.1592C62.3286 30.8849 62.0544 30.6107 61.5516 30.3822L59.5406 29.2853L59.4492 29.4681C59.4949 29.5138 59.5406 29.5595 59.632 29.6052C59.632 29.6509 59.6777 29.7423 59.7234 29.788C59.7691 29.8794 59.8148 29.9251 59.8148 29.9708C59.8148 30.0165 59.8148 30.0623 59.7691 30.1537L58.3522 32.7589C58.3065 32.8046 58.2608 32.896 58.2151 32.896C58.2151 32.9417 58.1237 32.9417 58.0323 32.9417C57.9866 32.9417 57.9409 32.896 57.8495 32.896C57.7581 32.8503 57.7124 32.8503 57.621 32.8046L57.5296 32.9874L59.4949 34.0386L59.5863 33.8558C59.5406 33.8101 59.4949 33.7644 59.4035 33.7187L59.2663 33.5816C59.2206 33.5359 59.1749 33.4444 59.1749 33.3987C59.1749 33.353 59.1749 33.2616 59.2206 33.2159L59.8148 32.0733L59.9519 32.1647C60.0433 32.576 60.089 32.9417 60.1348 33.2616C60.1805 33.5816 60.2262 33.9929 60.2719 34.4957L61.6887 35.2727L61.9173 35.0441ZM59.1292 29.1024L57.3924 28.554L57.301 28.7825C57.3467 28.8282 57.4381 28.8739 57.5296 28.9196C57.621 29.011 57.7124 29.0567 57.7581 29.1024C57.8038 29.1939 57.8495 29.2853 57.8495 29.4224C57.8495 29.5595 57.8038 29.7423 57.7124 29.9708L57.301 31.342C57.1639 31.7076 56.9811 31.9819 56.7526 32.119C56.524 32.2561 56.2041 32.2561 55.8842 32.1647C55.5642 32.0733 55.3357 31.8905 55.1986 31.6619C55.0615 31.4334 55.1072 31.1135 55.1986 30.7021L55.8385 28.6911C55.8385 28.6454 55.8842 28.554 55.9299 28.5083C55.9756 28.4626 56.0213 28.4626 56.1127 28.4626H56.2955C56.3412 28.4626 56.4326 28.4626 56.4783 28.5083L56.524 28.2797L54.4216 27.5942L54.3759 27.8227C54.4216 27.8227 54.4673 27.8684 54.5587 27.9141C54.6044 27.9598 54.6958 28.0055 54.7415 28.0512C54.7872 28.0969 54.8329 28.1883 54.8329 28.234V28.4169L54.1931 30.4736C54.056 30.9307 54.1017 31.342 54.3302 31.7076C54.5587 32.0733 54.9701 32.3475 55.5185 32.5303C56.0213 32.6675 56.4326 32.6675 56.844 32.4846C57.2553 32.3018 57.4838 32.0276 57.621 31.5705L58.078 30.0623C58.1694 29.8337 58.2151 29.6509 58.3065 29.5138C58.3522 29.4224 58.4437 29.331 58.5351 29.2853H58.8093C58.9007 29.2853 58.9921 29.331 59.0378 29.331L59.1292 29.1024ZM52.3191 31.6162C52.502 31.5705 52.6848 31.5248 52.8676 31.4334C53.0047 31.342 53.1418 31.2506 53.279 31.1135C53.4161 30.9764 53.5075 30.8392 53.6446 30.7021L53.4161 30.5193C53.1875 30.7935 52.959 30.9764 52.7305 31.1135C52.502 31.2506 52.2277 31.2963 51.9535 31.2506C51.7707 31.2049 51.5879 31.1592 51.4507 31.0678C51.3136 30.9764 51.1765 30.8392 51.0851 30.7021C50.9937 30.565 50.948 30.3365 50.9023 30.108C50.8566 29.8794 50.8566 29.5595 50.9023 29.2396C50.9937 28.6454 51.1308 28.1883 51.3593 27.9141C51.5879 27.5942 51.9078 27.5028 52.2734 27.5485C52.5477 27.5942 52.8219 27.7313 52.959 27.9598C53.1418 28.1883 53.279 28.554 53.3704 29.0567L53.6446 29.1024L53.8274 27.5942L53.5532 27.5485L53.3704 27.6856C53.2333 27.5942 53.0961 27.5028 52.9133 27.4113C52.7305 27.3199 52.502 27.2742 52.2734 27.2285C51.9535 27.1828 51.6336 27.1828 51.3593 27.2742C51.0851 27.3656 50.8109 27.4571 50.5823 27.6399C50.3538 27.8227 50.171 28.0512 50.0339 28.2797C49.8968 28.554 49.8054 28.8282 49.7597 29.1481C49.7139 29.4681 49.7139 29.788 49.8054 30.0623C49.8968 30.3365 49.9882 30.6107 50.171 30.7935C50.3538 31.0221 50.5366 31.2049 50.8109 31.2963C51.0851 31.4334 51.3593 31.5248 51.6336 31.5705C51.9078 31.6619 52.1363 31.6619 52.3191 31.6162ZM48.9827 27L45.2348 27.0914V27.3199C45.2805 27.3199 45.3719 27.3199 45.4634 27.3656C45.5548 27.3656 45.6462 27.4113 45.6919 27.4113C45.7833 27.4571 45.829 27.5028 45.829 27.5485C45.829 27.5942 45.8747 27.6399 45.8747 27.7313L45.9661 30.6564C45.9661 30.7478 45.9661 30.7935 45.9204 30.8392L45.7833 30.9764C45.7376 30.9764 45.6919 31.0221 45.6005 31.0221C45.5091 31.0221 45.4177 31.0678 45.3719 31.0678V31.2963L49.3026 31.2049L49.3483 29.8794H49.1198C49.0741 29.9708 49.0284 30.108 48.8913 30.3365C48.7541 30.5193 48.6627 30.7021 48.5713 30.7935C48.5256 30.8392 48.4799 30.8392 48.3885 30.8849C48.2971 30.8849 48.2514 30.9307 48.16 30.9307H47.2916C47.2002 30.9307 47.1545 30.8849 47.1087 30.8392C47.063 30.7935 47.0173 30.7478 47.0173 30.6564C47.0173 30.565 46.9716 30.4736 46.9716 30.3365L46.9259 29.1024H47.3373C47.4744 29.1024 47.5658 29.1024 47.6572 29.1481C47.7943 29.2396 47.8857 29.2853 47.9771 29.3767C48.0229 29.4224 48.0686 29.5138 48.1143 29.6509C48.16 29.788 48.2057 29.8794 48.2057 29.9708H48.4342L48.3885 28.234H48.16C48.16 28.3255 48.1143 28.4169 48.0686 28.554C48.0229 28.6911 47.9771 28.7368 47.9314 28.7825C47.84 28.8739 47.7943 28.9196 47.7029 28.9196C47.6115 28.9653 47.5201 28.9653 47.4287 28.9653H47.0173L46.9716 27.3656H48.0686C48.2057 27.4113 48.3428 27.5028 48.4799 27.6399C48.617 27.8227 48.7084 27.9598 48.7998 28.0969H49.0284L48.9827 27ZM44.3207 31.5248C44.5035 31.4334 44.6864 31.2963 44.8235 31.1592C44.9149 30.9764 45.0063 30.8392 45.052 30.6564C45.0977 30.4736 45.0977 30.2908 45.0977 30.108C45.052 29.8337 44.9149 29.6052 44.7321 29.4224C44.5493 29.2396 44.3207 29.1481 44.0008 29.1024C43.8637 29.0567 43.7266 29.0567 43.5894 29.0567C43.4523 29.0567 43.2695 29.011 43.1324 29.011C42.8582 28.9653 42.6753 28.9196 42.5382 28.8282C42.4011 28.7368 42.3097 28.5997 42.3097 28.4626C42.264 28.2797 42.3097 28.1426 42.4468 28.0055C42.5382 27.8684 42.721 27.777 42.9496 27.7313C43.1324 27.6856 43.2695 27.6856 43.4066 27.7313C43.5437 27.777 43.6809 27.8684 43.7723 27.9598C43.8637 28.0512 44.0008 28.1883 44.0922 28.3255L44.3664 28.7368L44.595 28.6454L44.3207 27.2285L44.0465 27.2742L43.9094 27.4571C43.7723 27.4113 43.6351 27.3656 43.4066 27.3656C43.1781 27.3199 42.9953 27.3656 42.7667 27.3656C42.5382 27.4113 42.3097 27.5028 42.1269 27.5942C41.944 27.6856 41.8069 27.8227 41.6698 27.9598C41.5784 28.0969 41.487 28.234 41.4413 28.4169C41.3956 28.5997 41.3956 28.7368 41.4413 28.9196C41.487 29.1939 41.5784 29.3767 41.7612 29.5595C41.944 29.7423 42.1726 29.8794 42.4468 29.9251C42.5839 29.9708 42.721 29.9708 42.8582 29.9708C42.9953 29.9708 43.1781 30.0165 43.3152 30.0165C43.5894 30.0623 43.7723 30.108 43.9094 30.1994C44.0465 30.2908 44.1379 30.4279 44.1836 30.565C44.2293 30.7478 44.1836 30.9307 44.0465 31.1135C43.9094 31.2506 43.7266 31.3877 43.4523 31.4334C43.2695 31.4791 43.0867 31.4791 42.9039 31.3877C42.721 31.342 42.5839 31.2506 42.4468 31.1592C42.3097 31.0678 42.1726 30.9307 42.0812 30.7935C41.944 30.6564 41.8526 30.5193 41.7612 30.3822L41.5327 30.4279L41.8526 31.9362L42.0812 31.8905L42.264 31.6619C42.4468 31.7076 42.6296 31.7533 42.8582 31.7991C43.0867 31.8448 43.3152 31.7991 43.5894 31.7533C43.8637 31.7076 44.1379 31.6162 44.3207 31.5248ZM38.4247 28.554L36.7336 29.2853L36.8251 29.5138C36.8708 29.5138 37.0079 29.4681 37.0993 29.4681H37.3735C37.4649 29.5138 37.5563 29.5595 37.6478 29.6509C37.7392 29.7423 37.8306 29.8794 37.922 30.1537L38.5619 31.6162L35.3168 29.9251L33.8542 30.565L33.9456 30.7935C34.037 30.7478 34.1742 30.7478 34.2656 30.7478C34.357 30.7478 34.4484 30.7478 34.5398 30.7935C34.6312 30.8392 34.6769 30.8849 34.7683 30.9307C34.814 30.9764 34.9054 31.0678 34.9054 31.1592L35.7281 32.9874C35.8195 33.2159 35.911 33.3987 35.911 33.5359C35.911 33.673 35.911 33.7644 35.8652 33.8558C35.8195 33.9472 35.7738 33.9929 35.6824 34.0386C35.591 34.0843 35.5453 34.13 35.4539 34.1757L35.5453 34.4043L37.1907 33.673L37.0993 33.4444C37.0536 33.4444 36.9165 33.4901 36.8251 33.4901H36.5508C36.4594 33.4444 36.368 33.3987 36.2766 33.3073C36.1852 33.2159 36.0938 33.0331 36.0024 32.8046L35.1797 30.9764L38.8818 32.896L39.3846 32.6675L38.1505 29.9251C38.0591 29.6966 37.9677 29.5138 37.9677 29.3767C37.922 29.2396 37.9677 29.1481 38.0134 29.0567C38.0591 28.9653 38.1505 28.8739 38.2419 28.8282C38.3333 28.7825 38.379 28.7368 38.4247 28.6911V28.554ZM34.037 35.1355C33.9913 35.3184 33.8542 35.4555 33.7171 35.5469C33.5343 35.684 33.3972 35.7297 33.2143 35.7297C33.0315 35.7297 32.8944 35.684 32.7116 35.5926C32.5288 35.5012 32.3916 35.3641 32.2088 35.1812C32.026 34.9984 31.8889 34.8156 31.7518 34.5871C31.3861 34.0843 31.2033 33.6273 31.1576 33.2616C31.1119 32.896 31.249 32.576 31.5232 32.3932C31.7061 32.2561 31.8889 32.2104 32.026 32.2104C32.2088 32.2104 32.3916 32.2561 32.5745 32.3932C32.7573 32.4846 32.8944 32.6217 33.0772 32.8046C33.26 32.9874 33.3972 33.1702 33.5343 33.353C33.7171 33.5816 33.8085 33.8101 33.9456 34.0386C34.037 34.2671 34.1284 34.45 34.1284 34.6328C34.1284 34.8156 34.0827 34.9984 34.037 35.1355ZM32.1631 31.7533C31.8889 31.8448 31.6147 31.9362 31.3404 32.119C31.0662 32.3018 30.8834 32.5303 30.7006 32.7589C30.5177 32.9874 30.4263 33.2616 30.3806 33.5359C30.3349 33.8101 30.3349 34.0843 30.3806 34.4043C30.4263 34.6785 30.5634 34.9984 30.792 35.2727C30.9748 35.5469 31.2033 35.7754 31.4775 35.9125C31.7518 36.0496 31.9803 36.1411 32.2545 36.1868C32.5288 36.2325 32.803 36.1868 33.0772 36.1411C33.3515 36.0496 33.6257 35.9582 33.8542 35.7754C34.1742 35.5469 34.4027 35.3184 34.5398 35.0898C34.6769 34.8156 34.814 34.5871 34.8597 34.2671C34.9054 33.9929 34.9054 33.7187 34.814 33.4444C34.7226 33.1702 34.6312 32.896 34.4484 32.6217C34.2656 32.3475 34.037 32.119 33.7628 31.9819C33.4886 31.8448 33.26 31.7533 32.9858 31.7076C32.7116 31.6619 32.4374 31.7076 32.1631 31.7533ZM31.2033 37.7864C31.2947 37.6036 31.3861 37.3751 31.3861 37.1923C31.4318 37.0095 31.3861 36.8266 31.3404 36.6438C31.2947 36.461 31.2033 36.3239 31.0662 36.1868C30.8834 35.9582 30.6548 35.8668 30.3806 35.8211C30.1521 35.7754 29.8779 35.8211 29.6036 35.9582C29.4665 36.0039 29.3751 36.0496 29.1923 36.1411C29.0552 36.2325 28.918 36.2782 28.7809 36.3696C28.5524 36.5067 28.3696 36.5524 28.1868 36.5524C28.0496 36.5524 27.8668 36.5067 27.7754 36.3696C27.6383 36.2325 27.5926 36.0954 27.5926 35.9125C27.5926 35.7297 27.684 35.5469 27.8211 35.4098C27.9582 35.2727 28.0496 35.2269 28.2325 35.1812C28.3696 35.1355 28.5067 35.1355 28.6438 35.1355C28.7809 35.1355 28.918 35.1812 29.1009 35.2269C29.2837 35.2727 29.4208 35.3641 29.6036 35.4098L29.7864 35.2269L28.7809 34.2214L28.5981 34.4043V34.6785C28.461 34.7242 28.3239 34.7699 28.1411 34.8613C27.9582 34.9527 27.7754 35.0898 27.5926 35.2727C27.4098 35.4555 27.2727 35.6383 27.1812 35.8211C27.0898 36.0039 27.0441 36.1868 26.9984 36.3696C26.9984 36.5524 26.9984 36.7352 27.0441 36.8723C27.0898 37.0095 27.1812 37.1466 27.3184 37.2837C27.5012 37.4665 27.7297 37.6036 27.9582 37.6493C28.1868 37.695 28.461 37.6493 28.7352 37.5579C28.8723 37.5122 28.9638 37.4665 29.1009 37.3751C29.238 37.3294 29.3751 37.238 29.5122 37.1466C29.7407 37.0095 29.9693 36.9637 30.1064 36.9637C30.2892 36.9637 30.4263 37.0095 30.5177 37.1466C30.6548 37.2837 30.7006 37.4665 30.7006 37.6493C30.7006 37.8322 30.6091 38.015 30.3806 38.2435C30.2435 38.3806 30.1064 38.472 29.9236 38.5177C29.7407 38.5634 29.6036 38.5634 29.4208 38.5634C29.238 38.5634 29.0552 38.5177 28.918 38.472C28.7352 38.4263 28.5981 38.3806 28.461 38.2892L28.2782 38.472L29.3751 39.5232L29.5579 39.3404V39.0662C29.7407 39.0205 29.9236 38.9291 30.1064 38.8377C30.2892 38.7463 30.5177 38.5634 30.7006 38.3806C30.9748 38.1521 31.1119 37.9693 31.2033 37.7864ZM25.9929 40.0717C26.0386 40.3002 25.9472 40.5288 25.7644 40.7573L25.6273 40.9401L24.2104 39.8889L24.3475 39.7061C24.5303 39.4775 24.7132 39.3404 24.896 39.2947C25.0788 39.249 25.3073 39.2947 25.5359 39.4775C25.8101 39.6604 25.9472 39.8432 25.9929 40.0717ZM29.0552 39.5232C29.0552 39.569 29.0095 39.569 28.9638 39.6147L28.8266 39.7518C28.7809 39.7975 28.6438 39.8432 28.5067 39.8432C28.3696 39.8432 28.2325 39.8889 28.1411 39.8889C27.8211 39.8889 27.5469 39.9346 27.227 39.9346C26.9527 39.9346 26.6785 39.9346 26.45 39.9803C26.5871 39.6604 26.5871 39.3404 26.5414 39.1119C26.4957 38.8834 26.3586 38.6548 26.13 38.472C25.8558 38.2892 25.5816 38.2435 25.2616 38.3806C24.9874 38.5177 24.6675 38.792 24.3475 39.2033L22.9764 41.1229L23.1592 41.26L23.2963 41.1229C23.342 41.0772 23.4334 41.0315 23.4791 40.9858C23.5705 40.9401 23.6162 40.9401 23.6619 40.9401C23.7076 40.9401 23.7533 40.9858 23.8448 41.0315L26.2671 42.7683L26.4043 42.9054C26.45 42.9511 26.45 42.9968 26.4043 43.0883C26.4043 43.134 26.3586 43.1797 26.3128 43.2711C26.2671 43.3625 26.2214 43.4082 26.2214 43.4539L26.4043 43.591L27.7297 41.7628L27.5469 41.6257L27.4098 41.7628L27.2727 41.8999C27.1812 41.9456 27.1355 41.9456 27.0898 41.9456C27.0441 41.9456 26.9984 41.8999 26.907 41.8542L25.8558 41.1229L25.9472 40.9858C26.3586 40.9401 26.7699 40.9401 27.0441 40.9401C27.3641 40.9401 27.7754 40.9401 28.2782 40.9858L29.238 39.6604L29.0552 39.5232ZM22.4279 42.2656L20.8739 45.6478L21.1024 45.7392C21.1481 45.6935 21.1481 45.6478 21.2396 45.5563C21.2853 45.4649 21.331 45.4192 21.3767 45.3735C21.4681 45.3278 21.5138 45.2821 21.5595 45.2821C21.6052 45.2821 21.6509 45.2821 21.7423 45.3278L24.4389 46.5619C24.4846 46.6076 24.576 46.6533 24.576 46.6533C24.6217 46.699 24.6217 46.7447 24.6217 46.8361C24.6217 46.8818 24.6217 46.9275 24.576 47.0189C24.5303 47.1103 24.5303 47.2017 24.4846 47.2474L24.7132 47.3388L26.3586 43.7738L25.2159 43.134L25.1245 43.3168C25.2159 43.4082 25.3073 43.5453 25.4444 43.7281C25.5816 43.911 25.673 44.0938 25.7187 44.1852V44.368C25.7187 44.4594 25.673 44.5051 25.673 44.5965C25.673 44.6879 25.6273 44.7336 25.5816 44.8251C25.5359 44.9165 25.4901 45.0079 25.4901 45.0536C25.4444 45.1907 25.353 45.2821 25.3073 45.3735C25.2616 45.4649 25.2159 45.5106 25.1702 45.5106C25.1245 45.5563 25.0331 45.5563 24.9874 45.5563C24.896 45.5563 24.8046 45.5106 24.7132 45.4649L23.6162 44.9622L23.7991 44.5508C23.8448 44.4594 23.8905 44.368 23.9819 44.2766C24.0276 44.1852 24.119 44.1395 24.2104 44.1395C24.2561 44.1395 24.3475 44.0938 24.4846 44.1395C24.6217 44.1395 24.7132 44.1852 24.8046 44.1852L24.896 44.0024L23.2963 43.2711L23.1135 43.5453C23.2049 43.591 23.2506 43.6824 23.342 43.7738C23.4334 43.8652 23.4791 43.9567 23.5248 44.0024C23.5705 44.0938 23.5705 44.1852 23.5705 44.2766C23.5705 44.368 23.5248 44.4594 23.4791 44.5508L23.2963 44.9622L21.8337 44.2766L22.108 43.7281C22.1537 43.6824 22.1537 43.591 22.1994 43.4996C22.2451 43.4082 22.2908 43.3168 22.3365 43.2711C22.4279 43.1797 22.565 43.0883 22.7935 42.9968C23.0221 42.9511 23.2049 42.9054 23.342 42.9511L23.4334 42.7683L22.4279 42.2656ZM20.6454 46.2876L19.6399 49.944L19.8684 49.9898C19.8684 49.944 19.9141 49.8983 19.9598 49.8069C20.0055 49.7155 20.0512 49.6698 20.0969 49.6241C20.1426 49.5784 20.1883 49.5327 20.2797 49.5327H20.4626L23.2506 50.3097C23.342 50.3097 23.3877 50.3554 23.4334 50.4011C23.4791 50.4468 23.4791 50.4925 23.5248 50.5839V50.7667C23.5248 50.8582 23.4791 50.9496 23.4791 50.9953L23.7076 51.041L24.3018 48.8471L24.0733 48.8014C24.0276 48.8928 24.0276 48.9385 23.9819 49.0299C23.9362 49.1214 23.9362 49.1671 23.8905 49.1671L23.7533 49.3042H23.5705L22.1994 48.8928L22.2908 48.4815C22.3365 48.3444 22.3822 48.253 22.4279 48.2072C22.4736 48.1158 22.565 48.0701 22.6107 48.0244C22.6564 48.0244 22.7478 47.9787 22.8849 47.9787H23.2049L23.2506 47.7502L21.5595 47.2931L21.5138 47.5217C21.6052 47.5674 21.6966 47.6131 21.788 47.7045C21.8794 47.7959 21.9708 47.8416 21.9708 47.8873C22.0165 47.9787 22.0623 48.0701 22.0623 48.1615C22.0623 48.253 22.0623 48.3444 22.0165 48.4815L21.9251 48.8928L20.3255 48.4358L20.5083 47.7959C20.5083 47.7045 20.554 47.6131 20.5997 47.5217C20.6454 47.4303 20.6454 47.3388 20.6911 47.2931C20.7368 47.156 20.8739 47.0646 21.1024 46.9732C21.331 46.8818 21.5138 46.8361 21.6966 46.8361L21.7423 46.6076L20.6454 46.2876ZM19.4571 50.8124L19 54.5603L19.2285 54.606C19.2285 54.5603 19.2742 54.5146 19.2742 54.4232C19.3199 54.3318 19.3199 54.2861 19.3656 54.1946C19.4113 54.1032 19.4571 54.0575 19.5028 54.0575C19.5485 54.0575 19.5942 54.0118 19.6856 54.0575L22.6564 54.3775C22.7478 54.3775 22.7935 54.4232 22.8392 54.4232C22.8849 54.4689 22.9307 54.5146 22.9307 54.606V55.0173L23.1592 55.063L23.4334 52.8235L23.2049 52.7778C23.2049 52.8692 23.1592 52.9149 23.1592 53.0063C23.1592 53.052 23.1135 53.1434 23.1135 53.1891C23.0678 53.2805 23.0221 53.3262 22.9764 53.3262C22.9307 53.3262 22.8392 53.3719 22.7935 53.3262L21.4224 53.1434L21.4681 52.7321C21.4681 52.595 21.5138 52.5035 21.5595 52.4121C21.6052 52.3207 21.6509 52.275 21.7423 52.2293C21.7423 52.1836 21.8337 52.1379 21.9708 52.1379C22.108 52.0922 22.1994 52.0922 22.2908 52.0922L22.3365 51.8637L20.5997 51.6351L20.554 51.8637C20.6454 51.8637 20.7368 51.9094 20.8282 52.0008C20.9196 52.0465 21.011 52.1379 21.0567 52.1836C21.1024 52.275 21.1481 52.3207 21.1939 52.4121V52.7321L21.1481 53.1434L19.4571 52.9149L19.5485 52.275C19.5485 52.1836 19.5942 52.0922 19.5942 52.0008C19.5942 51.9094 19.6399 51.818 19.6399 51.7723C19.6856 51.6351 19.777 51.498 20.0055 51.4066C20.1883 51.2695 20.3712 51.2238 20.554 51.1781L20.5997 50.9496L19.4571 50.8124ZM19 55.84L19.2285 59.5879H19.4571C19.4571 59.5422 19.4571 59.4507 19.5028 59.3593C19.5028 59.2679 19.5485 59.1765 19.5485 59.1308C19.5942 59.0394 19.6399 58.9937 19.6856 58.948C19.7313 58.9023 19.777 58.9023 19.8684 58.9023L22.8392 58.7195C22.9307 58.7195 22.9764 58.7195 23.0221 58.7652L23.1592 58.9023C23.1135 58.948 23.1135 58.9937 23.1592 59.0851C23.1592 59.1765 23.2049 59.2679 23.2049 59.3136H23.4334L23.2049 55.383H21.8794V55.6115C21.9708 55.6572 22.1537 55.7029 22.3365 55.84C22.5193 55.9314 22.7021 56.0229 22.7935 56.1143C22.8392 56.16 22.8849 56.2057 22.8849 56.2514C22.9307 56.3428 22.9307 56.3885 22.9307 56.4799C22.9307 56.5713 22.9764 56.617 22.9764 56.7541V57.3483C22.9764 57.4397 22.9307 57.4854 22.9307 57.5768C22.8849 57.6225 22.8392 57.6682 22.7478 57.7139C22.6564 57.7596 22.565 57.7597 22.4279 57.7597H21.2853L21.2396 57.3483V57.0284C21.2396 56.937 21.2853 56.8455 21.3767 56.7998C21.4224 56.7541 21.5138 56.7084 21.6052 56.6627C21.7423 56.617 21.8337 56.5713 21.9251 56.5713V56.3428L20.1883 56.4342V56.6627C20.2797 56.6627 20.3712 56.7084 20.5083 56.7541C20.6454 56.7998 20.6911 56.8455 20.7368 56.8913C20.8282 56.9827 20.8739 57.0284 20.9196 57.1198C20.9653 57.2112 20.9653 57.3026 20.9653 57.394L21.011 57.8054L19.4113 57.8968L19.3656 57.3026V56.7998C19.3656 56.6627 19.4571 56.5256 19.6399 56.3885C19.777 56.2514 19.9598 56.1143 20.0969 56.0686V55.84H19ZM19.3199 60.182L19.777 62.3759L20.0055 62.3302V61.8731C20.0055 61.7817 20.0512 61.736 20.0969 61.6903C20.1426 61.6446 20.1883 61.6446 20.2797 61.5989L22.6107 61.0961C22.9307 61.0047 23.2049 61.0504 23.3877 61.1418C23.5705 61.2332 23.7076 61.4161 23.7533 61.6446V61.8274C23.7533 61.8731 23.7076 61.9188 23.6619 61.9645H23.6162C23.5248 61.8731 23.3877 61.7817 23.2506 61.736C23.1592 61.736 23.0678 61.6903 22.9307 61.736C22.7935 61.7817 22.6564 61.8274 22.6107 61.9645C22.5193 62.1017 22.5193 62.2388 22.565 62.3759C22.6107 62.5587 22.7021 62.6958 22.8392 62.7415C22.9764 62.8329 23.1592 62.8329 23.2963 62.7872C23.6162 62.7415 23.7991 62.5587 23.9362 62.2845C24.0733 62.0102 24.0733 61.736 24.0276 61.3704C23.9819 61.1418 23.8905 60.959 23.7991 60.8219C23.7076 60.6391 23.5705 60.502 23.4334 60.3649C23.2963 60.2277 23.1135 60.1363 22.9307 60.0906C22.7478 60.0449 22.5193 60.0449 22.3365 60.0906L20.0512 60.5934H19.8684C19.8227 60.5934 19.777 60.5477 19.7313 60.4563C19.6856 60.4106 19.6856 60.3191 19.6399 60.2734C19.6399 60.2277 19.5942 60.1363 19.5485 60.0906L19.3199 60.182ZM24.2104 68.089H22.6564V67.7691H22.7478C22.9764 67.7234 23.0221 67.6777 23.0221 67.4492V66.1237C23.0221 65.8952 22.9764 65.8038 22.7478 65.8038H22.6564V65.4838H24.119C24.6675 65.4838 25.1245 65.621 25.1245 66.1237C25.1245 66.3522 24.9874 66.5808 24.7589 66.6722C25.0788 66.7636 25.2616 66.9921 25.2616 67.3121C25.2616 68.0433 24.576 68.089 24.2104 68.089ZM23.9819 65.8495C23.6619 65.8495 23.6619 65.9409 23.6619 66.0323V66.4894H23.9819C24.3018 66.4894 24.4846 66.3522 24.4846 66.1694C24.4846 65.9866 24.3018 65.8495 23.9819 65.8495ZM23.9819 66.855H23.6619V67.5406C23.6619 67.6777 23.7076 67.7234 23.9819 67.7234C24.3018 67.7234 24.5303 67.5406 24.5303 67.2663C24.576 66.9921 24.3932 66.855 23.9819 66.855ZM28.1411 65.8038C27.9125 65.8495 27.8668 65.8952 27.8668 66.1237V67.1292C27.8668 67.632 27.7754 68.1348 26.8613 68.1348C25.8558 68.1348 25.8558 67.4492 25.8558 67.2206V66.1237C25.8558 65.8952 25.8101 65.8038 25.5816 65.8038H25.4901V65.4838H26.8156V65.8038H26.7242C26.4957 65.8495 26.45 65.8952 26.45 66.1237V67.1292C26.45 67.4492 26.5414 67.7234 26.9527 67.7234C27.4555 67.7234 27.4555 67.3578 27.4555 67.1292V66.1237C27.4555 65.8952 27.4098 65.8038 27.1812 65.8038H27.0898V65.4838H28.1411V65.8038ZM28.5981 68.089V67.7691H28.6895C28.9638 67.7234 28.9638 67.632 28.9638 67.4492V66.1237C28.9638 65.8952 28.9638 65.8038 28.6895 65.8038H28.5981V65.4838H29.9693V65.8038H29.8779C29.6036 65.8495 29.6036 65.9409 29.6036 66.1237V67.4492C29.6036 67.6777 29.6036 67.7691 29.8779 67.7691H29.9693V68.089H28.5981ZM32.5745 68.089H30.472V67.7691H30.5634C30.792 67.7234 30.8377 67.6777 30.8377 67.4492V66.1237C30.8377 65.8952 30.792 65.8038 30.5634 65.8038H30.472V65.4838H31.7975V65.8038H31.7061C31.4775 65.8495 31.4318 65.8952 31.4318 66.1237V67.4035C31.4318 67.7234 31.4318 67.7691 31.6604 67.7691C32.026 67.7691 32.3916 67.5406 32.6202 67.0378L32.8944 67.1749L32.5745 68.089ZM34.4941 68.089H33.1686V67.7691H33.26C33.4886 67.7234 33.5343 67.6777 33.5343 67.4492V66.1237C33.5343 65.8952 33.4886 65.8038 33.26 65.8038H33.1686V65.4838H34.4027C35.2254 65.4838 35.9567 65.7124 35.9567 66.8093C35.9567 67.4492 35.6824 68.089 34.4941 68.089ZM34.4484 65.8038C34.2199 65.8038 34.1742 65.8495 34.1742 65.9866V67.4492C34.1742 67.632 34.1742 67.7234 34.4484 67.7234C34.9054 67.7234 35.2254 67.3578 35.2254 66.7636C35.2254 66.1694 34.9511 65.8038 34.4484 65.8038ZM36.4137 68.089V67.7691H36.5051C36.7794 67.7234 36.7794 67.632 36.7794 67.4492V66.1237C36.7794 65.8952 36.7794 65.8038 36.5051 65.8038H36.4137V65.4838H37.7849V65.8038H37.6935C37.4192 65.8495 37.4192 65.9409 37.4192 66.1237V67.4492C37.4192 67.6777 37.4192 67.7691 37.6935 67.7691H37.7849V68.089H36.4137ZM40.9385 65.8038C40.71 65.8495 40.6643 65.8952 40.6643 66.1237V68.089H40.2073L39.0189 66.078V67.4492C39.0189 67.6777 39.0646 67.7691 39.2931 67.7691H39.3846V68.089H38.3333V67.7691H38.4247C38.6533 67.7234 38.699 67.6777 38.699 67.4492V66.1237C38.699 65.8952 38.6533 65.8038 38.4247 65.8038H38.3333V65.4838H39.476L40.3444 66.9921V66.1237C40.3444 65.8952 40.2987 65.8038 40.0701 65.8038H39.9787V65.4838H41.0299V65.8038H40.9385ZM43.7723 67.4035V68.1348H43.3609L43.2695 67.9062C43.0867 68.0433 42.8582 68.1348 42.4925 68.1348C41.7155 68.1348 41.2585 67.5406 41.2585 66.7636C41.2585 65.9866 41.8069 65.3924 42.5382 65.3924C42.7667 65.3924 43.041 65.4838 43.2238 65.5753L43.2695 65.4838H43.498L43.7266 66.3522L43.4523 66.4437C43.3609 66.2608 43.2695 66.1694 43.1781 66.078C42.9953 65.8952 42.8125 65.8038 42.5839 65.8038C42.2183 65.8038 41.944 66.2151 41.944 66.855C41.944 67.4035 42.2183 67.7691 42.6296 67.7691C42.9039 67.7691 43.1324 67.5406 43.1324 67.3121C43.1324 67.1292 43.041 67.0835 42.8125 67.0835V66.7636H44.0465V67.0835C43.8637 67.0835 43.7723 67.0835 43.7723 67.4035ZM47.383 68.1348C46.5603 68.1348 46.0118 67.5863 46.0118 66.7636C46.0118 66.2151 46.3318 65.3924 47.3373 65.3924C47.5658 65.3924 47.7943 65.4381 47.9771 65.5295L48.0229 65.4381H48.2514L48.5713 66.3522L48.2971 66.4437C48.1143 66.1237 48.0686 66.078 47.9771 65.9866C47.7943 65.8038 47.6115 65.7124 47.4287 65.7124C47.0173 65.7124 46.7431 66.1237 46.7431 66.7636C46.7431 67.5406 47.2002 67.7691 47.4744 67.7691C47.9771 67.7691 48.2514 67.2663 48.3428 67.1749L48.6627 67.3121C48.4799 67.8148 47.9771 68.1348 47.383 68.1348ZM50.2624 68.1348C49.5311 68.1348 48.8913 67.632 48.8913 66.8093C48.8913 66.0323 49.4854 65.4381 50.3081 65.4381C51.0851 65.4381 51.725 65.9409 51.725 66.7636C51.725 67.5406 51.0851 68.1348 50.2624 68.1348ZM50.3081 65.8038C49.8968 65.8038 49.6225 66.2151 49.6225 66.7636C49.6225 67.1292 49.7597 67.7234 50.3081 67.7234C50.7195 67.7234 50.9937 67.3121 50.9937 66.7636C50.9937 66.1694 50.7195 65.8038 50.3081 65.8038ZM54.0559 68.089V67.7691H54.1474C54.3759 67.7234 54.4216 67.6777 54.4216 67.4492V66.1237L53.736 68.089H53.279L52.6391 66.078V67.4492C52.6391 67.6777 52.6848 67.7691 52.9133 67.7691H53.0047V68.089H51.9078V67.7691H51.9992C52.2277 67.7234 52.2734 67.6777 52.2734 67.4492V66.1237C52.2734 65.8952 52.2277 65.8038 51.9992 65.8038H51.9078V65.4838H53.0961L53.6446 67.1292L54.1931 65.4838H55.3814V65.8038H55.29C55.0615 65.8495 55.0158 65.8952 55.0158 66.1237V67.4492C55.0158 67.6777 55.0615 67.7691 55.29 67.7691H55.3814V68.089H54.0559ZM57.9409 68.089V67.7691H58.0323C58.2608 67.7234 58.3065 67.6777 58.3065 67.4492V66.1237L57.621 68.089H57.2096L56.5697 66.078V67.4492C56.5697 67.6777 56.6154 67.7691 56.844 67.7691H56.9354V68.089H55.8842V67.7691H55.9756C56.2041 67.7234 56.2498 67.6777 56.2498 67.4492V66.1237C56.2498 65.8952 56.2041 65.8038 55.9756 65.8038H55.8842V65.4838H57.0725L57.621 67.1292L58.1694 65.4838H59.3578V65.8038H59.2663C59.0378 65.8495 58.9921 65.8952 58.9921 66.1237V67.4492C58.9921 67.6777 59.0378 67.7691 59.2663 67.7691H59.3578V68.089H57.9409ZM62.3743 65.8038C62.1458 65.8495 62.1001 65.8952 62.1001 66.1237V67.1292C62.1001 67.632 62.0087 68.1348 61.0946 68.1348C60.089 68.1348 60.089 67.4492 60.089 67.2206V66.1237C60.089 65.8952 60.0433 65.8038 59.8148 65.8038H59.7234V65.4838H61.0489V65.8038H60.9574C60.7289 65.8495 60.6832 65.8952 60.6832 66.1237V67.1292C60.6832 67.4492 60.7746 67.7234 61.186 67.7234C61.6887 67.7234 61.6887 67.3578 61.6887 67.1292V66.1237C61.6887 65.8952 61.643 65.8038 61.4145 65.8038H61.3231V65.4838H62.42V65.8038H62.3743ZM65.4823 65.8038C65.2537 65.8495 65.208 65.8952 65.208 66.1237V68.089H64.751L63.5626 66.078V67.4492C63.5626 67.6777 63.6084 67.7691 63.8369 67.7691H63.9283V68.089H62.8771V67.7691H62.9685C63.197 67.7234 63.2427 67.6777 63.2427 67.4492V66.1237C63.2427 65.8952 63.197 65.8038 62.9685 65.8038H62.8771V65.4838H64.0197L64.8881 66.9921V66.1237C64.8881 65.8952 64.8424 65.8038 64.6139 65.8038H64.5225V65.4838H65.5737V65.8038H65.4823ZM66.0307 68.089V67.7691H66.1221C66.3964 67.7234 66.3964 67.632 66.3964 67.4492V66.1237C66.3964 65.8952 66.3964 65.8038 66.1221 65.8038H66.0307V65.4838H67.4019V65.8038H67.3105C67.0362 65.8495 67.0362 65.9409 67.0362 66.1237V67.4492C67.0362 67.6777 67.0362 67.7691 67.3105 67.7691H67.4019V68.089H66.0307ZM70.1899 66.3979C70.0528 66.1694 69.8243 65.8495 69.5043 65.8495C69.4129 65.8495 69.4129 65.8495 69.4129 65.9866V67.4492C69.4129 67.632 69.4129 67.7691 69.6872 67.7691H69.8243V68.089H68.4074V67.7691H68.5445C68.8188 67.7691 68.8188 67.632 68.8188 67.4492V65.9866C68.8188 65.8495 68.8188 65.8495 68.773 65.8495C68.4988 65.8495 68.2703 66.078 68.1332 66.3979L67.8589 66.3065L68.1332 65.5295H70.2356L70.5556 66.3065L70.1899 66.3979ZM72.9322 66.2151L72.4295 66.9921V67.4492C72.4295 67.632 72.4295 67.7691 72.7037 67.7691H72.7951V68.089H71.3783V67.7691H71.4697C71.7439 67.7691 71.7439 67.632 71.7439 67.4492V67.0378L71.1954 66.2151C71.0126 65.9409 70.9212 65.8495 70.6927 65.8038V65.4838H72.1552V65.8038C71.9267 65.8038 71.8353 65.8495 71.8353 65.8952C71.8353 65.9409 71.881 65.9866 71.881 66.0323L72.2009 66.6265L72.5209 66.1237C72.5666 66.0323 72.6123 65.9409 72.6123 65.8952C72.6123 65.8495 72.5209 65.8038 72.3381 65.8038V65.4838H73.5264V65.8038C73.2522 65.8038 73.1151 65.8952 72.9322 66.2151Z" fill="#3F524B"/>
</g>
<defs>
<clipPath id="clip0_1_1644">
<rect width="58" height="41.1348" fill="white" transform="translate(19 27)"/>
</clipPath>
</defs>
</svg>
