<svg width="96" height="96" viewBox="0 0 96 96" fill="none" xmlns="http://www.w3.org/2000/svg">
<circle cx="48" cy="48" r="47" transform="rotate(180 48 48)" fill="white" stroke="white" stroke-width="2"/>
<g clip-path="url(#clip0_1_2750)">
<path fill-rule="evenodd" clip-rule="evenodd" d="M30.2733 47.788C29.192 47.696 27.9497 47.1899 26.6383 46.2236C25.1659 45.1423 24.0155 43.7619 23.3943 42.3354C24.3836 43.4628 25.488 44.4981 27.0294 45.6254C28.2257 46.4997 29.2841 47.2589 30.2733 47.788Z" fill="#3A3A3A"/>
<path fill-rule="evenodd" clip-rule="evenodd" d="M31.5847 49.9505C30.0203 48.8002 28.7319 48.133 27.7196 48.087C26.4312 48.041 25.3499 49.0302 24.5217 51.8371C26.0861 50.3186 27.4205 49.6514 28.6629 49.4904C29.6061 49.3753 30.5954 49.5594 31.5847 49.9505Z" fill="#8F8F8F"/>
<path fill-rule="evenodd" clip-rule="evenodd" d="M19.0231 52.8035C23.9925 49.6745 25.3039 47.903 25.0048 46.4536C24.7517 45.2573 23.2793 43.8078 20.2884 41.7603C21.5308 43.1637 22.244 44.452 22.29 45.7864C22.359 47.4199 21.4848 49.5365 19.0231 52.8035Z" fill="#FE8F14"/>
<path d="M61.0793 46.2465C60.4581 46.2465 59.998 46.4075 59.7449 46.7066C59.4688 47.0287 59.3308 47.5348 59.3308 48.2711V48.3401C59.3308 49.0533 59.4688 49.5364 59.7449 49.8585C60.021 50.1576 60.4581 50.3186 61.0563 50.3186C61.6315 50.3186 62.0686 50.1346 62.3677 49.7895C62.6668 49.4444 62.8048 48.9382 62.8048 48.2711C62.8278 46.9137 62.2526 46.2465 61.0793 46.2465ZM61.1023 45.8554C61.8385 45.8554 62.4137 46.0624 62.7818 46.4765C63.1499 46.8907 63.357 47.4888 63.357 48.2711C63.357 49.0533 63.1499 49.6515 62.7588 50.0656C62.3677 50.4797 61.8155 50.6868 61.1023 50.6868C60.7342 50.6868 60.3891 50.6177 60.09 50.4797C59.7909 50.3417 59.5379 50.1576 59.3768 49.9045H59.3308L59.1928 50.6177H58.8937V43.9458H59.3768V45.6253C59.3768 45.8784 59.3768 46.1084 59.3538 46.3155L59.3308 46.6836H59.3538C59.5609 46.4075 59.7909 46.2005 60.09 46.0624C60.3661 45.9244 60.6882 45.8554 61.1023 45.8554ZM65.0825 50.2956C65.6576 50.2956 66.0948 50.1576 66.4169 49.8585C66.7389 49.5824 66.9 49.1683 66.9 48.6622V48.202L65.9797 48.225C65.2435 48.248 64.6914 48.3631 64.3923 48.5241C64.0702 48.7082 63.9091 48.9613 63.9091 49.3294C63.9091 49.6284 64.0012 49.8585 64.2082 50.0196C64.4153 50.2266 64.7144 50.2956 65.0825 50.2956ZM67.038 50.5947L66.923 49.8585H66.877C66.6009 50.1576 66.3248 50.3647 66.0487 50.5027C65.7727 50.6177 65.4276 50.6868 65.0595 50.6868C64.5303 50.6868 64.1392 50.5717 63.8401 50.3417C63.541 50.1116 63.403 49.7895 63.403 49.3754C63.403 48.9152 63.61 48.5701 64.0472 48.3171C64.4843 48.064 65.1055 47.926 65.9107 47.926L66.923 47.8799V47.5809C66.923 47.1437 66.831 46.7986 66.6239 46.5686C66.4169 46.3385 66.0948 46.2235 65.6346 46.2235C65.1515 46.2235 64.6223 46.3385 64.1162 46.5916L63.9321 46.2235C64.5073 45.9934 65.0825 45.8554 65.6576 45.8554C66.2328 45.8554 66.6699 45.9934 66.969 46.2465C67.2681 46.5225 67.4061 46.9367 67.4061 47.4888V50.5947H67.038ZM71.6164 50.5947V47.5809C71.6164 47.1207 71.5013 46.7756 71.2713 46.5686C71.0412 46.3615 70.6961 46.2465 70.236 46.2465C69.5918 46.2465 69.1316 46.3845 68.8326 46.6606C68.5335 46.9367 68.3954 47.3968 68.3954 48.041V50.6177H67.9123V45.9474H68.3264L68.4184 46.5916H68.4414C68.7865 46.1084 69.4077 45.8554 70.282 45.8554C71.4783 45.8554 72.0995 46.4305 72.0995 47.5578V50.5947H71.6164ZM73.0888 48.5701L75.7806 45.9474H76.3787L74.2851 47.926L76.5628 50.5947H75.9646L73.963 48.248L73.0888 48.9382V50.5947H72.6056V43.9458H73.0888V47.2818L73.0658 48.5701H73.0888Z" fill="#FE8F14"/>
<path d="M33.4943 47.995L34.0465 47.2818L35.3809 45.8323H36.8533L34.9667 47.9029L36.9683 50.5947H35.4729L34.0925 48.6622L33.5403 49.1223V50.5947H32.2289V43.9458H33.5403V46.9137L33.4713 47.995H33.4943Z" fill="black"/>
<path d="M38.7628 46.6606C38.4868 46.6606 38.2797 46.7526 38.1186 46.9136C37.9576 47.0977 37.8656 47.3278 37.8426 47.6498H39.6831C39.6831 47.3278 39.5911 47.0747 39.43 46.9136C39.269 46.7526 39.0389 46.6606 38.7628 46.6606ZM38.9469 50.6867C38.1877 50.6867 37.5665 50.4797 37.1524 50.0425C36.7152 49.6284 36.5082 49.0072 36.5082 48.248C36.5082 47.4428 36.7152 46.8216 37.1064 46.3845C37.4975 45.9474 38.0496 45.7173 38.7628 45.7173C39.43 45.7173 39.9592 45.9013 40.3503 46.2925C40.7184 46.6836 40.9255 47.2127 40.9255 47.8799V48.5241H37.8426C37.8656 48.8922 37.9576 49.1913 38.1647 49.3984C38.3717 49.6054 38.6478 49.7204 39.0389 49.7204C39.338 49.7204 39.5911 49.6974 39.8441 49.6284C40.0972 49.5594 40.3733 49.4674 40.6494 49.3523V50.3646C40.4193 50.4797 40.1892 50.5717 39.9132 50.6177C39.6371 50.6637 39.315 50.6867 38.9469 50.6867ZM43.9163 48.3861L43.4102 48.4091C43.0421 48.4091 42.743 48.4781 42.5589 48.6161C42.3749 48.7312 42.2828 48.9382 42.2828 49.1913C42.2828 49.5594 42.4899 49.7435 42.904 49.7435C43.2031 49.7435 43.4562 49.6514 43.6402 49.4904C43.8243 49.3063 43.9163 49.0763 43.9163 48.8002V48.3861ZM44.2844 50.5947L44.0314 49.9505H44.0083C43.7783 50.2266 43.5712 50.4106 43.3412 50.5257C43.1111 50.6407 42.812 50.6867 42.4439 50.6867C41.9838 50.6867 41.6157 50.5487 41.3626 50.2956C41.1095 50.0425 40.9715 49.6514 40.9715 49.1683C40.9715 48.6621 41.1555 48.294 41.5006 48.041C41.8457 47.8109 42.3979 47.6729 43.1111 47.6498L43.9393 47.6268V47.4198C43.9393 46.9366 43.6863 46.6836 43.2031 46.6836C42.812 46.6836 42.3749 46.7986 41.8457 47.0287L41.4086 46.1544C41.9608 45.8553 42.5589 45.7173 43.2491 45.7173C43.8933 45.7173 44.3765 45.8553 44.7216 46.1314C45.0667 46.4075 45.2277 46.8446 45.2277 47.3968V50.5717H44.2844V50.5947ZM48.3336 45.7403C48.5177 45.7403 48.6557 45.7633 48.7707 45.7863L48.6787 47.0057C48.5637 46.9827 48.4486 46.9596 48.2876 46.9596C47.8735 46.9596 47.5514 47.0747 47.3213 47.2817C47.0912 47.4888 46.9762 47.7879 46.9762 48.179V50.6177H45.6648V45.8323H46.6541L46.8382 46.6376H46.9072C47.0452 46.3615 47.2523 46.1544 47.5054 45.9934C47.7584 45.8093 48.0345 45.7403 48.3336 45.7403ZM53.5331 50.5947H52.2217V47.8109C52.2217 47.4658 52.1527 47.2127 52.0377 47.0287C51.9226 46.8676 51.7156 46.7756 51.4625 46.7756C51.0944 46.7756 50.8413 46.8906 50.6803 47.1437C50.5192 47.3968 50.4272 47.7879 50.4272 48.3631V50.6177H49.1158V45.8323H50.1051L50.2892 46.4535H50.3582C50.4962 46.2234 50.7033 46.0394 50.9564 45.9243C51.2094 45.8093 51.5085 45.7403 51.8306 45.7403C52.3828 45.7403 52.7969 45.9013 53.096 46.2004C53.3951 46.4995 53.5331 46.9366 53.5331 47.5118V50.5947ZM53.4871 45.8323H54.9135L55.8108 48.5241C55.8798 48.7542 55.9488 49.0302 55.9718 49.3523H55.9948C56.0178 49.0533 56.0868 48.7772 56.1789 48.5241L57.0531 45.8323H58.4565L56.4319 51.2159C56.2479 51.722 55.9718 52.0901 55.6497 52.3432C55.3046 52.5963 54.9135 52.7113 54.4534 52.7113C54.2233 52.7113 54.0162 52.6883 53.7862 52.6423V51.607C53.9472 51.653 54.1083 51.653 54.2923 51.653C54.5224 51.653 54.7295 51.584 54.8905 51.4459C55.0515 51.3079 55.1896 51.1008 55.3046 50.8018L55.3736 50.5717L53.4871 45.8323Z" fill="black"/>
<path d="M39.8671 53.2866H39.5911V51.193H40.8794V51.4H39.8671V52.1823H40.8104V52.3893H39.8671V53.2866ZM41.2706 52.5044C41.2706 52.7114 41.3166 52.8495 41.4086 52.9645C41.5006 53.0795 41.6157 53.1255 41.7997 53.1255C41.9608 53.1255 42.0988 53.0795 42.1908 52.9645C42.2828 52.8495 42.3289 52.7114 42.3289 52.5044C42.3289 52.2973 42.2828 52.1593 42.1908 52.0442C42.0988 51.9292 41.9608 51.8832 41.7997 51.8832C41.6387 51.8832 41.5006 51.9292 41.4086 52.0442C41.3166 52.1593 41.2706 52.2973 41.2706 52.5044ZM42.5819 52.5044C42.5819 52.7574 42.5129 52.9645 42.3749 53.1025C42.2368 53.2406 42.0298 53.3096 41.7767 53.3096C41.6157 53.3096 41.4776 53.2866 41.3626 53.2176C41.2475 53.1485 41.1555 53.0565 41.0865 52.9415C41.0175 52.8264 40.9945 52.6654 40.9945 52.5044C40.9945 52.2513 41.0635 52.0442 41.2015 51.9062C41.3396 51.7681 41.5466 51.6991 41.7997 51.6991C42.0528 51.6991 42.2368 51.7681 42.3749 51.9292C42.5129 52.0442 42.5819 52.2513 42.5819 52.5044ZM43.7093 51.6991C43.7783 51.6991 43.8473 51.6991 43.9163 51.7221L43.8703 51.9522C43.8013 51.9292 43.7323 51.9292 43.6863 51.9292C43.5482 51.9292 43.4332 51.9752 43.3181 52.0902C43.2261 52.1823 43.1801 52.3203 43.1801 52.4813V53.3326H42.927V51.7681H43.1341L43.1571 52.0672H43.1801C43.2491 51.9752 43.3181 51.8832 43.4102 51.8372C43.5022 51.7221 43.5942 51.6991 43.7093 51.6991ZM45.3657 53.1255H45.5038C45.5498 53.1255 45.5728 53.1025 45.5958 53.1025V53.2866C45.5728 53.3096 45.5268 53.3096 45.4808 53.3096C45.4348 53.3096 45.3657 53.3326 45.3427 53.3326C44.9976 53.3326 44.8366 53.1715 44.8366 52.8495V51.9062H44.5835V51.7911L44.8366 51.6991L44.9516 51.354H45.1127V51.7221H45.6188V51.9062H45.1127V52.8264C45.1127 52.9185 45.1357 52.9875 45.1817 53.0335C45.2277 53.1025 45.2967 53.1255 45.3657 53.1255ZM46.0099 52.5044C46.0099 52.7114 46.0559 52.8495 46.148 52.9645C46.24 53.0795 46.355 53.1255 46.5391 53.1255C46.7001 53.1255 46.8382 53.0795 46.9302 52.9645C47.0222 52.8495 47.0682 52.7114 47.0682 52.5044C47.0682 52.2973 47.0222 52.1593 46.9302 52.0442C46.8382 51.9292 46.7001 51.8832 46.5391 51.8832C46.378 51.8832 46.24 51.9292 46.148 52.0442C46.0559 52.1593 46.0099 52.2973 46.0099 52.5044ZM47.3213 52.5044C47.3213 52.7574 47.2523 52.9645 47.1142 53.1025C46.9762 53.2406 46.7691 53.3096 46.5161 53.3096C46.355 53.3096 46.217 53.2866 46.1019 53.2176C45.9869 53.1485 45.8949 53.0565 45.8259 52.9415C45.7569 52.8264 45.7338 52.6654 45.7338 52.5044C45.7338 52.2513 45.8029 52.0442 45.9409 51.9062C46.0789 51.7681 46.286 51.6991 46.5391 51.6991C46.7921 51.6991 46.9762 51.7681 47.1142 51.9292C47.2523 52.0442 47.3213 52.2513 47.3213 52.5044ZM48.3106 53.1255C48.4946 53.1255 48.6097 53.0795 48.7017 52.9875C48.7707 52.8955 48.8167 52.7574 48.8167 52.5504V52.5044C48.8167 52.2743 48.7707 52.1132 48.7017 52.0212C48.6097 51.9292 48.4946 51.8832 48.3106 51.8832C48.1495 51.8832 48.0345 51.9292 47.9655 52.0442C47.8735 52.1593 47.8505 52.2973 47.8505 52.5044C47.8505 52.7114 47.8965 52.8495 47.9655 52.9645C48.0345 53.0795 48.1495 53.1255 48.3106 53.1255ZM48.8167 53.0795C48.6787 53.2406 48.4946 53.3096 48.2646 53.3096C48.0345 53.3096 47.8735 53.2406 47.7354 53.1025C47.6204 52.9645 47.5514 52.7574 47.5514 52.5044C47.5514 52.2513 47.6204 52.0442 47.7354 51.9062C47.8505 51.7681 48.0345 51.6991 48.2646 51.6991C48.4946 51.6991 48.6787 51.7681 48.7937 51.9292H48.8167V51.0549H49.0698V53.2866H48.8627L48.8167 53.0795ZM49.9671 53.1255C50.1281 53.1255 50.2662 53.0795 50.3582 53.0105C50.4502 52.9185 50.4962 52.8264 50.4962 52.6654V52.5274H50.2431C50.0361 52.5274 49.875 52.5734 49.783 52.6194C49.691 52.6654 49.645 52.7574 49.645 52.8725C49.645 52.9645 49.668 53.0335 49.737 53.0795C49.783 53.1025 49.875 53.1255 49.9671 53.1255ZM50.5652 53.2866L50.5192 53.0565H50.4962C50.4042 53.1485 50.3122 53.2176 50.2431 53.2636C50.1511 53.3096 50.0591 53.3096 49.9211 53.3096C49.76 53.3096 49.622 53.2636 49.5069 53.1946C49.4149 53.1255 49.3689 53.0105 49.3689 52.8495C49.3689 52.5274 49.645 52.3663 50.1971 52.3433H50.4962V52.2513C50.4962 52.1362 50.4732 52.0442 50.4042 51.9752C50.3352 51.9062 50.2431 51.8832 50.1281 51.8832C49.9901 51.8832 49.829 51.9292 49.645 51.9982L49.5529 51.8142C49.645 51.7681 49.737 51.7451 49.829 51.7221C49.9211 51.6991 50.0361 51.6761 50.1281 51.6761C50.3352 51.6761 50.4962 51.7221 50.5882 51.7911C50.6803 51.8832 50.7263 51.9982 50.7263 52.1823V53.2636H50.5652V53.2866ZM50.8873 51.7221H51.1634L51.5315 52.6194C51.6235 52.8264 51.6696 52.9645 51.6926 53.0565H51.7156C51.7386 53.0105 51.7616 52.9185 51.8076 52.8034C51.8536 52.6884 51.9917 52.3203 52.2447 51.7221H52.5208L51.7846 53.5166C51.7156 53.7007 51.6235 53.8157 51.5315 53.8847C51.4395 53.9538 51.3015 53.9998 51.1634 53.9998C51.0944 53.9998 51.0024 53.9998 50.9333 53.9768V53.7927C51.0024 53.8157 51.0484 53.8157 51.1174 53.8157C51.3015 53.8157 51.4165 53.7237 51.5085 53.5396L51.6005 53.3096L50.8873 51.7221ZM52.3828 53.1485C52.3828 53.0795 52.4058 53.0335 52.4288 53.0105C52.4518 52.9875 52.4978 52.9645 52.5668 52.9645C52.6358 52.9645 52.6819 52.9875 52.7049 53.0105C52.7279 53.0335 52.7509 53.1025 52.7509 53.1485C52.7509 53.2176 52.7279 53.2636 52.7049 53.2866C52.6588 53.3096 52.6128 53.3326 52.5668 53.3326C52.5208 53.3326 52.4748 53.3096 52.4288 53.2866C52.3828 53.2636 52.3828 53.2176 52.3828 53.1485ZM57.7203 53.2866H57.4442V51.193H58.7326V51.4H57.7203V52.1823H58.6636V52.3893H57.7203V53.2866ZM59.1237 52.5044C59.1237 52.7114 59.1697 52.8495 59.2618 52.9645C59.3538 53.0795 59.4688 53.1255 59.6529 53.1255C59.8139 53.1255 59.952 53.0795 60.044 52.9645C60.136 52.8495 60.182 52.7114 60.182 52.5044C60.182 52.2973 60.136 52.1593 60.044 52.0442C59.952 51.9292 59.8139 51.8832 59.6529 51.8832C59.4918 51.8832 59.3538 51.9292 59.2618 52.0442C59.1467 52.1593 59.1237 52.2973 59.1237 52.5044ZM60.4351 52.5044C60.4351 52.7574 60.3661 52.9645 60.228 53.1025C60.09 53.2406 59.8829 53.3096 59.6299 53.3096C59.4688 53.3096 59.3308 53.2866 59.2157 53.2176C59.1007 53.1485 59.0087 53.0565 58.9397 52.9415C58.8706 52.8264 58.8476 52.6654 58.8476 52.5044C58.8476 52.2513 58.9167 52.0442 59.0547 51.9062C59.1927 51.7681 59.3998 51.6991 59.6529 51.6991C59.9059 51.6991 60.09 51.7681 60.228 51.9292C60.3661 52.0442 60.4351 52.2513 60.4351 52.5044ZM61.5624 51.6991C61.6314 51.6991 61.7005 51.6991 61.7695 51.7221L61.7235 51.9522C61.6545 51.9292 61.5854 51.9292 61.5394 51.9292C61.4014 51.9292 61.2863 51.9752 61.1713 52.0902C61.0793 52.1823 61.0333 52.3203 61.0333 52.4813V53.3326H60.7802V51.7681H60.9873L61.0103 52.0672H61.0333C61.1023 51.9752 61.1713 51.8832 61.2633 51.8372C61.3324 51.7221 61.4474 51.6991 61.5624 51.6991ZM63.2189 53.1255H63.3569C63.403 53.1255 63.426 53.1025 63.449 53.1025V53.2866C63.426 53.3096 63.3799 53.3096 63.3339 53.3096C63.2879 53.3096 63.2189 53.3326 63.1959 53.3326C62.8508 53.3326 62.6898 53.1715 62.6898 52.8495V51.9062H62.4367V51.7911L62.6898 51.6991L62.8048 51.354H62.9658V51.7221H63.472V51.9062H62.9658V52.8264C62.9658 52.9185 62.9888 52.9875 63.0349 53.0335C63.0579 53.1025 63.1269 53.1255 63.2189 53.1255ZM63.8401 52.5044C63.8401 52.7114 63.8861 52.8495 63.9781 52.9645C64.0702 53.0795 64.1852 53.1255 64.3692 53.1255C64.5303 53.1255 64.6683 53.0795 64.7604 52.9645C64.8524 52.8495 64.8984 52.7114 64.8984 52.5044C64.8984 52.2973 64.8524 52.1593 64.7604 52.0442C64.6683 51.9292 64.5303 51.8832 64.3692 51.8832C64.2082 51.8832 64.0702 51.9292 63.9781 52.0442C63.8861 52.1593 63.8401 52.2973 63.8401 52.5044ZM65.1745 52.5044C65.1745 52.7574 65.1055 52.9645 64.9674 53.1025C64.8294 53.2406 64.6223 53.3096 64.3692 53.3096C64.2082 53.3096 64.0702 53.2866 63.9551 53.2176C63.8401 53.1485 63.7481 53.0565 63.679 52.9415C63.61 52.8264 63.587 52.6654 63.587 52.5044C63.587 52.2513 63.656 52.0442 63.7941 51.9062C63.9321 51.7681 64.1392 51.6991 64.3922 51.6991C64.6453 51.6991 64.8294 51.7681 64.9674 51.9292C65.1055 52.0442 65.1745 52.2513 65.1745 52.5044ZM67.7052 53.2866V52.2743C67.7052 52.1593 67.6822 52.0442 67.6132 51.9982C67.5442 51.9292 67.4521 51.9062 67.3371 51.9062C67.1761 51.9062 67.061 51.9522 66.969 52.0442C66.9 52.1362 66.854 52.2513 66.854 52.4353V53.3096H66.6009V52.2973C66.6009 52.1823 66.5779 52.0672 66.5089 52.0212C66.4398 51.9522 66.3478 51.9292 66.2328 51.9292C66.0717 51.9292 65.9567 51.9752 65.8647 52.0672C65.7956 52.1593 65.7496 52.2973 65.7496 52.5044V53.3326H65.4966V51.7681H65.7036L65.7496 51.9752H65.7726C65.8187 51.9062 65.8877 51.8372 65.9797 51.7911C66.0717 51.7451 66.1638 51.7221 66.2788 51.7221C66.5549 51.7221 66.7159 51.8142 66.8079 51.9982H66.831C66.877 51.9062 66.946 51.8602 67.061 51.8142C67.153 51.7681 67.2681 51.7451 67.4061 51.7451C67.6132 51.7451 67.7512 51.7911 67.8432 51.8832C67.9353 51.9752 67.9813 52.1132 67.9813 52.3203V53.3556H67.7052V53.2866ZM68.5565 52.5044C68.5565 52.7114 68.6025 52.8495 68.6945 52.9645C68.7865 53.0795 68.9015 53.1255 69.0856 53.1255C69.2466 53.1255 69.3847 53.0795 69.4767 52.9645C69.5687 52.8495 69.6148 52.7114 69.6148 52.5044C69.6148 52.2973 69.5687 52.1593 69.4767 52.0442C69.3847 51.9292 69.2466 51.8832 69.0856 51.8832C68.9246 51.8832 68.7865 51.9292 68.6945 52.0442C68.6025 52.1593 68.5565 52.2973 68.5565 52.5044ZM69.8678 52.5044C69.8678 52.7574 69.7988 52.9645 69.6608 53.1025C69.5227 53.2406 69.3157 53.3096 69.0626 53.3096C68.9016 53.3096 68.7635 53.2866 68.6485 53.2176C68.5334 53.1485 68.4414 53.0565 68.3724 52.9415C68.3034 52.8264 68.2804 52.6654 68.2804 52.5044C68.2804 52.2513 68.3494 52.0442 68.4874 51.9062C68.6255 51.7681 68.8325 51.6991 69.0856 51.6991C69.3157 51.6991 69.5227 51.7681 69.6608 51.9292C69.7988 52.0442 69.8678 52.2513 69.8678 52.5044ZM70.9952 51.6991C71.0642 51.6991 71.1332 51.6991 71.2022 51.7221L71.1562 51.9522C71.0872 51.9292 71.0182 51.9292 70.9722 51.9292C70.8341 51.9292 70.7191 51.9752 70.604 52.0902C70.512 52.1823 70.466 52.3203 70.466 52.4813V53.3326H70.2129V51.7681H70.42L70.443 52.0672H70.466C70.535 51.9752 70.604 51.8832 70.6961 51.8372C70.7651 51.7221 70.8801 51.6991 70.9952 51.6991ZM72.1685 51.6991C72.2375 51.6991 72.3065 51.6991 72.3756 51.7221L72.3295 51.9522C72.2605 51.9292 72.1915 51.9292 72.1455 51.9292C72.0074 51.9292 71.8924 51.9752 71.7774 52.0902C71.6854 52.1823 71.6393 52.3203 71.6393 52.4813V53.3326H71.3863V51.7681H71.5933L71.6163 52.0672H71.6393C71.7084 51.9752 71.7774 51.8832 71.8694 51.8372C71.9614 51.7221 72.0765 51.6991 72.1685 51.6991ZM72.7437 52.5044C72.7437 52.7114 72.7897 52.8495 72.8817 52.9645C72.9737 53.0795 73.0888 53.1255 73.2728 53.1255C73.4339 53.1255 73.5719 53.0795 73.6639 52.9645C73.756 52.8495 73.802 52.7114 73.802 52.5044C73.802 52.2973 73.756 52.1593 73.6639 52.0442C73.5719 51.9292 73.4339 51.8832 73.2728 51.8832C73.1118 51.8832 72.9737 51.9292 72.8817 52.0442C72.7897 52.1593 72.7437 52.2973 72.7437 52.5044ZM74.078 52.5044C74.078 52.7574 74.009 52.9645 73.871 53.1025C73.733 53.2406 73.5259 53.3096 73.2728 53.3096C73.1118 53.3096 72.9737 53.2866 72.8587 53.2176C72.7437 53.1485 72.6516 53.0565 72.5826 52.9415C72.5136 52.8264 72.4906 52.6654 72.4906 52.5044C72.4906 52.2513 72.5596 52.0442 72.6977 51.9062C72.8357 51.7681 73.0428 51.6991 73.2958 51.6991C73.5489 51.6991 73.733 51.7681 73.871 51.9292C73.986 52.0442 74.078 52.2513 74.078 52.5044ZM75.8036 53.2866L75.4815 52.3663C75.4585 52.3203 75.4354 52.1823 75.3664 51.9752H75.3434C75.2974 52.1362 75.2744 52.2743 75.2284 52.3663L74.9063 53.2866H74.6072L74.1471 51.7221H74.4231C74.5382 52.1132 74.6302 52.4123 74.6762 52.6194C74.7452 52.8264 74.7682 52.9645 74.7682 53.0335H74.7913C74.7913 52.9875 74.8143 52.9185 74.8373 52.8264C74.8603 52.7344 74.8833 52.6654 74.9063 52.6194L75.2284 51.7221H75.5045L75.8036 52.6194C75.8726 52.7804 75.8956 52.9185 75.9186 53.0335H75.9416C75.9416 52.9875 75.9646 52.9415 75.9646 52.8725C75.9876 52.8034 76.1026 52.4123 76.2867 51.7221H76.5628L76.0796 53.2866H75.8036ZM76.6088 53.1485C76.6088 53.0795 76.6318 53.0335 76.6548 53.0105C76.6778 52.9875 76.7238 52.9645 76.7928 52.9645C76.8619 52.9645 76.9079 52.9875 76.9309 53.0105C76.9539 53.0335 76.9769 53.1025 76.9769 53.1485C76.9769 53.2176 76.9539 53.2636 76.9309 53.2866C76.8849 53.3096 76.8388 53.3326 76.7928 53.3326C76.7468 53.3326 76.7008 53.3096 76.6548 53.2866C76.6318 53.2636 76.6088 53.2176 76.6088 53.1485Z" fill="#3A3A3A"/>
</g>
<defs>
<clipPath id="clip0_1_2750">
<rect width="58" height="-12.2395" fill="white" transform="matrix(-1 0 0 -1 77 41.7603)"/>
</clipPath>
</defs>
</svg>
