<svg width="96" height="96" viewBox="0 0 96 96" fill="none" xmlns="http://www.w3.org/2000/svg">
<circle cx="48" cy="48" r="47" fill="white" stroke="white" stroke-width="2"/>
<g clip-path="url(#clip0_1_3873)">
<path d="M46.7325 55.1078C46.5449 54.8831 46.3106 54.7017 46.0459 54.5761C45.7811 54.4505 45.4922 54.3837 45.1991 54.3804C44.1125 54.3804 43.351 55.2164 43.351 56.3007C43.351 57.5699 44.3192 58.1997 45.1793 58.1997C45.8859 58.1997 46.4408 57.7872 46.7882 57.4065V57.9918C46.3433 58.3908 45.7662 58.6112 45.1681 58.6105C43.8311 58.6105 42.8963 57.623 42.8963 56.3102C42.8963 54.9975 43.7771 53.9671 45.2015 53.9671C45.7641 53.9642 46.3088 54.1645 46.7349 54.5311L46.7325 55.1078Z" fill="#58595B"/>
<path d="M47.9829 54.0663H48.4145V54.6413C48.5775 54.2614 48.9145 53.9687 49.3931 53.9687C49.5552 53.9676 49.7153 54.0045 49.8605 54.0766L49.6435 54.4676C49.5479 54.4017 49.4325 54.3709 49.3168 54.3804C48.4257 54.3804 48.4145 55.563 48.4145 56.1167V58.4963H47.9797L47.9829 54.0663Z" fill="#58595B"/>
<path d="M50.9837 56.3333C50.9837 57.462 51.8104 58.1997 52.7452 58.1997C53.4606 58.1997 54.0067 57.7769 54.2889 57.1907L54.6585 57.4081C54.3978 57.907 53.8104 58.6121 52.7126 58.6121C51.3318 58.6121 50.5274 57.5921 50.5274 56.3008C50.5274 54.7604 51.5926 53.9688 52.68 53.9688C53.8724 53.9688 54.7786 54.9206 54.7786 56.3333H50.9837ZM54.3223 55.9216C54.2134 55.0427 53.5616 54.3804 52.6808 54.3804C51.7786 54.3804 51.1371 55.0642 51.0171 55.9216H54.3223Z" fill="#58595B"/>
<path d="M59.6712 50.5833H60.106V58.4923H59.6712V57.6991C59.485 57.9832 59.2299 58.2159 58.9296 58.3755C58.6294 58.5351 58.2936 58.6165 57.9534 58.6121C56.8334 58.6121 55.7785 57.8094 55.7785 56.2579C55.7785 54.6413 56.8763 53.9687 57.9534 53.9687C58.7578 53.9687 59.323 54.3375 59.6712 54.8365V50.5833ZM56.2348 56.2436C56.2348 57.5349 57.083 58.1965 57.9749 58.1965C58.8667 58.1965 59.6926 57.5349 59.6926 56.2436C59.6926 55.2124 59.0512 54.3772 57.9534 54.3772C57.04 54.3804 56.2348 55.0102 56.2348 56.2436Z" fill="#58595B"/>
<path d="M61.4979 52.5949C61.5001 52.5182 61.5249 52.4439 61.5691 52.3812C61.6134 52.3185 61.6752 52.2702 61.7469 52.2424C61.8185 52.2145 61.8968 52.2084 61.9719 52.2247C62.047 52.2409 62.1156 52.279 62.1692 52.334C62.2228 52.389 62.259 52.4585 62.2732 52.5339C62.2874 52.6093 62.279 52.6871 62.2491 52.7578C62.2192 52.8285 62.1691 52.8888 62.1051 52.9312C62.041 52.9736 61.9659 52.9962 61.889 52.9963C61.8365 52.9971 61.7843 52.9872 61.7358 52.9671C61.6872 52.9471 61.6433 52.9174 61.6066 52.8798C61.57 52.8422 61.5415 52.7976 61.5228 52.7486C61.5041 52.6996 61.4956 52.6473 61.4979 52.5949ZM62.1068 54.0703V58.4963H61.6712V54.0703H62.1068Z" fill="#58595B"/>
<path d="M64.1393 54.4787V58.4923H63.7045V54.4787H63.2157V54.0663H63.7045V52.4799H64.1393V54.0663H64.9112V54.4787H64.1393Z" fill="#58595B"/>
<path d="M68.749 54.0663V56.7354C68.749 57.0527 68.7601 57.5159 69.032 57.8459C69.3038 58.1759 69.7061 58.2036 69.9127 58.2036C70.1194 58.2036 70.5216 58.1711 70.7935 57.8459C71.0654 57.5207 71.0757 57.0527 71.0757 56.7354V54.0663H71.5113V56.8544C71.5113 57.2121 71.4787 57.6785 71.1743 58.0696C70.8372 58.5035 70.2999 58.6121 69.9127 58.6121C69.5256 58.6121 68.9883 58.5035 68.6512 58.0696C68.3468 57.6785 68.3142 57.2121 68.3142 56.8544V54.0663H68.749Z" fill="#58595B"/>
<path d="M73.0765 54.0663H73.5113V54.7603C73.6402 54.514 73.8362 54.3089 74.0766 54.1686C74.317 54.0284 74.5922 53.9585 74.8706 53.9671C75.6655 53.9671 76.0009 54.4335 76.0995 54.585C76.295 54.9023 76.3165 55.3124 76.3165 55.7027V58.4908H75.8817V55.7043C75.8817 55.4005 75.8706 55.0641 75.7076 54.8151C75.6098 54.6517 75.3706 54.3804 74.838 54.3804C74.2291 54.3804 73.9135 54.7064 73.7506 54.9991C73.555 55.3465 73.5121 55.7582 73.5121 56.1929V58.4931H73.0773L73.0765 54.0663Z" fill="#58595B"/>
<path d="M77.7084 52.5949C77.7104 52.518 77.7351 52.4434 77.7794 52.3805C77.8238 52.3175 77.8857 52.269 77.9575 52.241C78.0293 52.213 78.1078 52.2068 78.1832 52.223C78.2585 52.2393 78.3274 52.2775 78.3811 52.3326C78.4348 52.3878 78.4711 52.4575 78.4853 52.5331C78.4995 52.6087 78.4911 52.6869 78.461 52.7577C78.4309 52.8285 78.3806 52.889 78.3163 52.9314C78.252 52.9738 78.1766 52.9964 78.0995 52.9963C78.047 52.997 77.9949 52.987 77.9464 52.9669C77.8979 52.9468 77.854 52.9171 77.8174 52.8795C77.7808 52.842 77.7523 52.7974 77.7335 52.7484C77.7148 52.6995 77.7062 52.6473 77.7084 52.5949ZM78.3173 54.0703V58.4963H77.8825V54.0703H78.3173Z" fill="#58595B"/>
<path d="M84.2536 56.2904C84.2536 56.7496 84.1172 57.1985 83.8615 57.5803C83.6058 57.9621 83.2425 58.2597 82.8173 58.4354C82.3922 58.6111 81.9244 58.6571 81.473 58.5675C81.0217 58.4779 80.6071 58.2568 80.2817 57.9321C79.9563 57.6074 79.7347 57.1937 79.645 56.7433C79.5552 56.293 79.6013 55.8262 79.7774 55.4019C79.9535 54.9777 80.2517 54.6151 80.6343 54.36C81.0169 54.1049 81.4668 53.9687 81.9269 53.9687C82.2339 53.9636 82.5388 54.0201 82.8234 54.1349C83.108 54.2498 83.3666 54.4206 83.5837 54.6372C83.8007 54.8539 83.9719 55.1119 84.087 55.3959C84.2021 55.6799 84.2588 55.9841 84.2536 56.2904ZM83.7966 56.2904C83.7966 55.2164 82.9921 54.3804 81.9269 54.3804C80.8618 54.3804 80.0565 55.2164 80.0565 56.2904C80.0565 57.3644 80.861 58.1996 81.9269 58.1996C82.9929 58.1996 83.7966 57.3644 83.7966 56.2904Z" fill="#58595B"/>
<path d="M85.5366 54.0663H85.9714V54.7603C86.1004 54.514 86.2963 54.3089 86.5367 54.1686C86.7771 54.0284 87.0523 53.9585 87.3307 53.9671C88.1256 53.9671 88.4611 54.4335 88.5588 54.585C88.7544 54.9023 88.7766 55.3124 88.7766 55.7027V58.4908H88.3418V55.7043C88.3418 55.4005 88.3307 55.0641 88.1677 54.8151C88.07 54.6517 87.8307 54.3804 87.2981 54.3804C86.6892 54.3804 86.3736 54.7064 86.2107 54.9991C86.0151 55.3465 85.9722 55.7582 85.9722 56.1929V58.4931H85.5366V54.0663Z" fill="#58595B"/>
<path d="M12.9165 43.6222H17.2328V43.7015C17.2328 45.4862 16.6986 46.9426 15.6788 47.9293C14.5961 48.9779 13.3092 49.2635 12.116 49.2635C10.5938 49.2635 9.5111 48.8256 8.55404 47.8357C7.53338 46.7855 7 45.3919 7 43.8887C7 42.2595 7.65898 40.85 8.52224 39.9886C9.41651 39.0804 10.845 38.4228 12.4618 38.4228C13.403 38.4228 14.3759 38.6266 15.1923 39.0804C15.8778 39.4555 16.4599 39.9936 16.887 40.6469L15.6152 41.5393C15.2736 41.0578 14.8353 40.6526 14.3282 40.3495C13.7479 40.0044 13.12 39.895 12.4761 39.895C11.1112 39.895 10.2321 40.4589 9.7146 40.9753C9.02383 41.6646 8.60173 42.7767 8.60173 43.9038C8.60173 44.9532 8.99362 46.0026 9.68439 46.7387C10.4062 47.5057 11.3012 47.7881 12.3076 47.7881C13.2177 47.7881 13.9713 47.5216 14.6462 46.864C15.1449 46.4003 15.4575 45.7713 15.5254 45.0944H12.9165V43.6222Z" fill="black"/>
<path d="M20.4808 38.6108C21.7526 38.6108 22.5682 38.7694 23.2431 39.2215C24.3885 39.9886 24.4831 41.226 24.4831 41.6805C24.4831 43.1836 23.5571 44.2798 22.1604 44.5931L25.4243 49.0564H23.4943L20.4967 44.7811H20.2145V49.0564H18.6136V38.6108H20.4808ZM20.2145 43.4025H20.7161C21.1557 43.4025 22.9418 43.3557 22.9418 41.6955C22.9418 40.2241 21.5452 40.083 20.7606 40.083H20.2113L20.2145 43.4025Z" fill="black"/>
<path d="M32.1413 40.1139H27.9672V42.7592H32.0157V44.2663H27.9672V47.5549H32.1413V49.062H26.3663V38.6108H32.1413V40.1139Z" fill="black"/>
<path d="M39.7374 46.5348H35.2644L34.119 49.0564H32.3925L37.6039 38L42.5633 49.0564H40.8359L39.7374 46.5348ZM39.0943 45.0317L37.5403 41.4901L35.9234 45.0317H39.0943Z" fill="black"/>
<path d="M45.5283 40.1139V49.0564H43.9273V40.1139H41.5267V38.6108H47.9297V40.1179L45.5283 40.1139Z" fill="black"/>
<path d="M53.3429 38.6108V47.5525H56.4192V49.0596H51.7428V38.6108H53.3429Z" fill="#214573"/>
<path d="M63.6076 46.5348H59.1346L57.9892 49.0564H56.2626L61.4732 38L66.4326 49.0564H64.7101L63.6076 46.5348ZM62.9613 45.0317L61.4104 41.4901L59.7936 45.0317H62.9613Z" fill="#214573"/>
<path d="M68.7236 42.7767L72.7728 38.6108H74.8753L70.152 43.3406L74.9071 49.0564H72.7728L69.0375 44.4249L68.7196 44.7422V49.0644H67.1226V38.6108H68.7236V42.7767Z" fill="#214573"/>
<path d="M81.4675 40.1139H77.2926V42.7592H81.3419V44.2663H77.2926V47.5549H81.4675V49.062H75.6917V38.6108H81.4675V40.1139Z" fill="#214573"/>
<path d="M87.4309 40.9285C87.3306 40.674 87.169 40.4481 86.9603 40.2709C86.6304 40.0044 86.2854 39.895 85.8299 39.895C84.857 39.895 84.3546 40.474 84.3546 41.1474C84.3546 41.4647 84.4643 42.0089 85.4849 42.4166L86.5366 42.8385C88.4666 43.6214 89.0008 44.7176 89.0008 45.9074C89.0008 47.8968 87.5882 49.2587 85.6264 49.2587C84.4182 49.2587 83.6964 48.805 83.1622 48.2101C82.6483 47.6492 82.3386 46.9319 82.2831 46.174L83.8673 45.8305C83.8686 46.3095 84.0225 46.7756 84.3069 47.1615C84.605 47.5375 85.0446 47.7881 85.6725 47.7881C86.6455 47.7881 87.3983 47.083 87.3983 46.0336C87.3983 44.9691 86.5827 44.5265 85.8919 44.2489L84.888 43.8261C84.0263 43.4652 82.7544 42.7449 82.7544 41.1792C82.7544 39.7696 83.853 38.4228 85.8148 38.4228C86.9452 38.4228 87.5882 38.8456 87.9181 39.1279C88.247 39.4251 88.5177 39.7807 88.7162 40.1766L87.4309 40.9285Z" fill="#214573"/>
<path fill-rule="evenodd" clip-rule="evenodd" d="M7.5008 55.4703C7.5008 55.4703 8.41573 55.6464 8.98727 55.6511C10.6772 55.552 12.0516 54.5081 13.74 54.4915C15.5103 54.5494 16.5126 55.6337 18.3187 55.6511C20.0611 55.6384 21.3504 54.5993 23.1294 54.6279C24.8075 54.7223 26.2295 55.7304 27.592 55.5797C29.4902 55.7495 30.5514 54.4827 32.3432 54.4883C34.1881 54.5462 35.2994 55.7574 37.0395 55.648C38.2485 55.6059 39.3073 55.0713 40.5172 54.7889C40.4377 54.7834 40.5172 53.1882 40.5172 53.1771C39.3773 53.4682 38.2485 53.9767 37.0395 54.148C35.4202 54.1306 33.9751 53.047 32.2867 52.9891C30.5268 53.024 29.5713 54.167 27.5332 54.079C26.1024 53.9846 24.7796 53.1105 23.2447 53.0574C21.4092 52.9693 20.1318 54.1528 18.2598 54.148C16.7495 54.0076 15.3855 53.1287 13.74 52.9891C11.9984 52.9416 10.7432 54.167 8.93004 54.079C8.44463 54.0585 7.96382 53.9764 7.49921 53.8347L7.5008 55.4703Z" fill="#214573"/>
<path fill-rule="evenodd" clip-rule="evenodd" d="M7.5008 58.8136C7.5008 58.8136 8.41573 58.9889 8.98727 58.9937C10.6772 58.8945 12.0516 57.8514 13.74 57.8348C15.5103 57.8927 16.5126 58.9762 18.3187 58.9937C20.0611 58.9818 21.3504 57.9427 23.1294 57.9712C24.8075 58.0648 26.2295 59.073 27.592 58.9231C29.4902 59.0928 30.5514 57.8261 32.3432 57.8324C34.1858 57.8927 35.2986 59.0992 37.0395 58.9937C38.2485 58.9516 39.3073 58.417 40.5172 58.1346C40.4377 58.1299 40.5172 56.5339 40.5172 56.5236C39.3773 56.8139 38.2485 57.3232 37.0395 57.4937C35.4202 57.4771 33.9751 56.3928 32.2867 56.3348C30.5292 56.3705 29.5753 57.5128 27.5332 57.4247C26.1024 57.3311 24.7796 56.457 23.2447 56.4031C21.4092 56.315 20.1318 57.4993 18.2598 57.4937C16.7495 57.3533 15.3855 56.4745 13.74 56.3348C11.9984 56.2873 10.7432 57.5128 8.93004 57.4247C8.4447 57.4041 7.96394 57.3223 7.49921 57.1812L7.5008 58.8136Z" fill="#214573"/>
</g>
<defs>
<clipPath id="clip0_1_3873">
<rect width="82" height="21" fill="white" transform="translate(7 38)"/>
</clipPath>
</defs>
</svg>
