<svg width="96" height="96" viewBox="0 0 96 96" fill="none" xmlns="http://www.w3.org/2000/svg">
<circle cx="48" cy="48" r="47" fill="white" stroke="white" stroke-width="2"/>
<path fill-rule="evenodd" clip-rule="evenodd" d="M55.0601 76.017C62.8938 72.2759 66.3254 64.386 66.3254 57.3681C66.3254 40.3366 50.3628 34.8657 46.3264 20.9564L46.1436 20H76.9859L77 68.4365C77 72.6275 73.5965 76.017 69.4054 76.017H55.0601Z" fill="#AC3326"/>
<path fill-rule="evenodd" clip-rule="evenodd" d="M27.2696 20H42.9791C44.3574 32.6014 63.0907 42.2071 63.6673 54.7803C63.7658 56.9462 63.8361 57.2837 63.8361 57.7056C63.8361 62.8671 61.2905 68.985 55.7352 72.1353C52.7958 73.8089 46.4811 76.0451 46.0592 76.017H19V26.7507L19.0703 26.4132C19.0703 22.8691 21.9253 20 25.4694 20H27.2696Z" fill="#666766"/>
</svg>
