<svg width="96" height="96" viewBox="0 0 96 96" fill="none" xmlns="http://www.w3.org/2000/svg">
<circle cx="48" cy="48" r="47" fill="white" stroke="white" stroke-width="2"/>
<mask id="mask0_1_3791" style="mask-type:alpha" maskUnits="userSpaceOnUse" x="10" y="36" width="13" height="16">
<path fill-rule="evenodd" clip-rule="evenodd" d="M10 36.068H22.0645V51.4928H10V36.068Z" fill="white"/>
</mask>
<g mask="url(#mask0_1_3791)">
<path fill-rule="evenodd" clip-rule="evenodd" d="M22.0646 36.0681L9.98755 48.145L12.0099 50.1673C13.7773 51.9348 16.6428 51.9348 18.4102 50.1673L20.9831 47.5947V38.6795C20.9829 37.7343 21.3436 36.7892 22.0646 36.0681Z" fill="#E7AE3C"/>
</g>
<path fill-rule="evenodd" clip-rule="evenodd" d="M27.2872 58.7478L39.3642 46.6707L37.3418 44.6486C35.5744 42.881 32.7091 42.881 30.9415 44.6486L28.3688 47.2213V56.1366C28.3688 57.0816 28.0083 58.0268 27.2872 58.7478Z" fill="#52B8A2"/>
<path fill-rule="evenodd" clip-rule="evenodd" d="M28.3687 47.2207V38.6788C28.3687 38.6788 28.2785 40.2985 27.2872 41.29L20.983 47.5942V56.1359C20.983 55.1909 21.3435 54.2457 22.0645 53.5248L28.3687 47.2207Z" fill="#38333A"/>
<path fill-rule="evenodd" clip-rule="evenodd" d="M28.2165 37.6277C28.1658 37.4563 28.1025 37.2879 28.0265 37.1241C27.8744 36.7962 27.6716 36.4862 27.4182 36.2055C27.3758 36.1588 27.3323 36.1129 27.2872 36.0678C26.566 35.3466 25.621 34.9861 24.6758 34.9861C23.7307 34.9861 22.7857 35.3466 22.0646 36.0678C21.3436 36.7889 20.9829 37.7341 20.9831 38.6793V47.5944L27.2872 41.2903C28.2785 40.2988 28.5886 38.8837 28.2165 37.6277Z" fill="#D06E4B"/>
<path fill-rule="evenodd" clip-rule="evenodd" d="M26.8926 59.0897C27.0298 58.9865 27.162 58.8729 27.2872 58.7479C28.0083 58.0268 28.3688 57.0816 28.3688 56.1366V47.2213L22.0646 53.5255C21.3436 54.2463 20.9831 55.1914 20.9831 56.1365C20.9831 57.0815 21.3436 58.0268 22.0646 58.7479C23.2365 59.9197 24.9997 60.1395 26.3932 59.4071C26.5306 59.3348 26.664 59.2523 26.7933 59.1614C26.8268 59.1381 26.8599 59.1142 26.8926 59.0897Z" fill="#07996C"/>
<path fill-rule="evenodd" clip-rule="evenodd" d="M58.2285 42.7487C59.314 42.7487 60.1939 41.8687 60.1939 40.7831C60.1939 39.6978 59.314 38.818 58.2285 38.818C57.143 38.818 56.2629 39.6978 56.2629 40.7831C56.2629 41.8687 57.143 42.7487 58.2285 42.7487Z" fill="#38333A"/>
<path fill-rule="evenodd" clip-rule="evenodd" d="M43.0264 40.0665C43.0264 41.1219 43.8819 41.9774 44.9373 41.9774H49.2952L49.3203 42.0023C48.6238 43.0969 42.0756 54.6901 42.0756 54.6901H54.5943V53.4413C54.5943 52.3859 53.7387 51.5304 52.6834 51.5304H47.6533L54.8337 38.818H43.0264V40.0665Z" fill="#38333A"/>
<path fill-rule="evenodd" clip-rule="evenodd" d="M56.3877 45.0953V54.6903H60.0696V43.7119H57.7709C57.0069 43.7119 56.3877 44.3313 56.3877 45.0953Z" fill="#38333A"/>
<path fill-rule="evenodd" clip-rule="evenodd" d="M69.33 43.0721C67.5145 43.0721 66.3448 43.7437 65.897 44.938H65.872C65.872 44.261 65.3232 43.7119 64.6462 43.7119H62.5136V54.6902H66.1707V47.8238C66.1707 46.9281 66.8676 46.2316 67.9623 46.2316C69.0814 46.2316 69.6287 46.9534 69.6287 47.774V54.6902H73.2859V46.8537C73.2859 44.4654 71.7935 43.0721 69.33 43.0721Z" fill="#38333A"/>
<path fill-rule="evenodd" clip-rule="evenodd" d="M80.2784 48.3956C79.4574 48.3956 78.8355 47.7988 78.8355 47.0522C78.8355 46.3309 79.4574 45.709 80.2784 45.709C81.1238 45.709 81.7206 46.3309 81.7206 47.0522C81.7206 47.7988 81.0743 48.3956 80.2784 48.3956ZM81.2729 55.1378C81.9949 55.3366 82.3925 55.8839 82.3925 56.4066C82.3925 57.0531 81.6962 57.6501 80.4024 57.6501C79.0842 57.6501 78.4122 57.0034 78.4122 56.2321C78.4122 55.4113 79.0586 54.7896 79.9296 54.7644L81.2729 55.1378ZM85.9601 44.844C86.0814 44.0794 85.8884 42.9691 85.8884 42.9691C85.3166 43.3871 84.1841 43.47 83.5623 43.47C82.9899 43.47 82.4426 43.3952 81.9453 43.2706C81.472 43.1466 80.9497 43.0469 80.2784 43.0469C77.3421 43.0469 75.6261 44.7137 75.6261 47.1022C75.6261 48.52 76.4221 49.5899 77.2681 50.1123C76.6212 50.3856 75.9994 51.0078 75.8998 51.7295L77.3421 53.1722C76.1735 53.4709 75.0287 54.4909 75.0287 56.2074C75.0287 58.571 77.218 60.4367 80.502 60.4367C83.7864 60.4367 85.9006 58.6952 85.9006 56.3817C85.9006 54.3166 84.7064 53.1973 82.4921 52.4009L80.7511 51.7791C80.552 51.7043 80.4524 51.5552 80.4524 51.4309C80.4524 51.1323 80.7511 51.033 81.1989 51.0078C83.3876 50.8587 84.8805 49.2666 84.8805 47.3756C84.8805 46.9778 84.7315 46.4553 84.6074 46.2312L84.6219 46.2318C85.3806 46.2643 85.8389 45.6088 85.9601 44.844Z" fill="#38333A"/>
</svg>
