<svg width="96" height="96" viewBox="0 0 96 96" fill="none" xmlns="http://www.w3.org/2000/svg">
<circle cx="48" cy="48" r="47" fill="white" stroke="white" stroke-width="2"/>
<path d="M74.4757 21.5173H21.5223V74.3915H74.4757V21.5173Z" fill="url(#paint0_linear_1_2570)"/>
<path d="M29.9613 54.2788H30.0034L33.7114 64.3196H36.2759L39.9845 54.1721H40.0272V64.319H43.1421V49.2126H39.0196L35.111 59.2145H35.0677L30.9677 49.2126H26.8452V64.3196H29.9607L29.9613 54.2788Z" fill="white"/>
<path d="M19 19V76.9092H77V19H19ZM74.4794 69.3566L64.8988 55.6083L69.3523 49.214H65.843L63.1445 53.0896L60.4435 49.2127H56.9354L61.3883 55.6071L57.1207 61.7333L52.1996 49.2127H49.3487L43.3468 64.3197H46.6946L47.8833 60.9567H53.5376L54.6818 64.3197H58.8269L63.1445 58.1259L74.4764 74.391H21.5242V21.5181H74.4788V69.3572L74.4794 69.3566ZM52.6714 58.48H48.7507L50.7214 52.9366H50.7635L52.6714 58.48Z" fill="white"/>
<defs>
<linearGradient id="paint0_linear_1_2570" x1="51.8393" y1="51.8837" x2="21.5961" y2="20.8425" gradientUnits="userSpaceOnUse">
<stop stop-color="#0065A8"/>
<stop offset="0.24" stop-color="#0065A8"/>
<stop offset="0.34" stop-color="#0D6CAD"/>
<stop offset="0.53" stop-color="#317FBA"/>
<stop offset="0.79" stop-color="#699ECF"/>
<stop offset="1" stop-color="#9BB9E1"/>
</linearGradient>
</defs>
</svg>
