<svg width="96" height="96" viewBox="0 0 96 96" fill="none" xmlns="http://www.w3.org/2000/svg">
<circle cx="48" cy="48" r="47" fill="white" stroke="white" stroke-width="2"/>
<path d="M36.898 67.1803H47.0033V39.798H36.898V67.1803ZM50.8029 67.1803C55.3904 67.1803 59.102 63.4581 59.102 58.8812V39.798H48.9967V67.1803H50.8029ZM24.8 39.798V58.8812C24.8 63.4581 28.5222 67.1803 33.0991 67.1803H34.9053V39.798H24.8ZM61.0947 48.4365V67.1803H62.9009C67.4884 67.1803 71.2 63.4581 71.2 58.8812V48.4365H61.0947ZM71.2 35.9984V46.4437H61.0947V39.796C61.0947 38.6971 60.2029 37.8052 59.104 37.8052H24.8V35.9984C24.8 31.4155 28.5155 27.7 33.0991 27.7H62.9009C67.4884 27.7 71.2 31.4221 71.2 35.9984Z" fill="#004163"/>
<mask id="mask0_1_3044" style="mask-type:luminance" maskUnits="userSpaceOnUse" x="24" y="27" width="48" height="41">
<path d="M36.898 67.1803H47.0033V39.798H36.898V67.1803ZM50.8029 67.1803C55.3904 67.1803 59.102 63.4581 59.102 58.8812V39.798H48.9967V67.1803H50.8029ZM24.8 39.798V58.8812C24.8 63.4581 28.5222 67.1803 33.0991 67.1803H34.9053V39.798H24.8ZM61.0947 48.4365V67.1803H62.9009C67.4884 67.1803 71.2 63.4581 71.2 58.8812V48.4365H61.0947ZM71.2 35.9984V46.4437H61.0947V39.796C61.0947 38.6971 60.2029 37.8052 59.104 37.8052H24.8V35.9984C24.8 31.4155 28.5155 27.7 33.0991 27.7H62.9009C67.4884 27.7 71.2 31.4221 71.2 35.9984Z" fill="white"/>
</mask>
<g mask="url(#mask0_1_3044)">
<path d="M71.2 24.22H24.8V70.62H71.2V24.22Z" fill="#004163"/>
</g>
</svg>
