<svg width="96" height="96" viewBox="0 0 96 96" fill="none" xmlns="http://www.w3.org/2000/svg">
<circle cx="48" cy="48" r="47" fill="white" stroke="white" stroke-width="2"/>
<path d="M19 39H37.615V57.615H19V39Z" fill="white"/>
<path d="M30.0917 40.2895C30.5302 39.5077 30.7177 40.0298 30.7177 40.0298C31.2167 39.4702 30.9715 40.3962 30.9715 40.3962C31.3639 39.9116 31.1966 40.5693 31.1966 40.5693C30.9715 40.8289 29.9244 43.6819 29.9244 43.6819L29.5753 44.0742C29.5134 44.5601 29.3298 45.0224 29.0417 45.4185L29.284 44.2646L28.808 45.7387L28.6407 45.7906C28.6263 45.0435 28.4474 45.8454 28.4474 45.8454C28.3667 46.0877 28.0984 45.8079 28.0984 45.8079L27.9426 45.3666L27.8561 45.58C27.833 45.2079 27.2358 44.4261 27.2358 44.4261C27.0766 44.1494 26.9405 43.86 26.8291 43.5607C26.0156 40.7914 26.3964 41.253 26.3964 41.253C26.1887 40.5895 26.5002 40.5462 26.5002 40.5462C26.3127 40.0241 26.4714 39.9173 26.4714 39.9173C26.6099 39.8683 26.8637 40.2664 26.8637 40.2664C26.7541 39.6894 27.1724 39.9779 27.1724 39.9779C27.1468 39.6526 27.141 39.326 27.1551 39L19 39V57.615H22.9146C21.152 57.0381 19.7933 55.8525 19.5135 55.1948C19.1529 54.0611 21.5674 53.7322 23.8088 53.0976C24.5704 52.9014 26.607 52.3706 27.0108 52.1947C25.8714 51.9437 23.9877 51.5485 24.0079 50.5388C24.0207 50.2876 24.0834 50.0415 24.1925 49.8148C24.054 49.8552 23.0646 50.1725 23.0097 50.1811C22.9549 50.1898 22.9578 50.1811 22.9578 50.1407C22.9578 50.1004 22.978 50.0859 23.1424 50.0052C24.0598 49.5321 24.4175 49.3128 25.2973 48.8513C24.0194 49.0503 22.3088 49.3503 20.9703 49.6907C20.9703 49.6907 19.2798 50.1811 21.1924 49.2263C21.1924 49.2263 19.3981 49.9936 20.7741 49.1138C20.7741 49.1138 20.9414 48.8599 20.5087 49.0619C20.5087 49.0619 20.5087 48.4849 23.1453 47.9224H22.5684C22.5684 47.9224 22.8136 47.6022 24.3656 47.158C24.3656 47.158 23.379 46.8897 22.8453 46.9935C22.8453 46.9935 22.5742 46.9128 22.7819 46.7397C22.7819 46.7397 22.0664 46.7829 22.6405 46.5579C22.3729 46.5535 22.1056 46.5807 21.8443 46.6387C21.8443 46.6387 21.1087 46.7397 21.7491 46.3647C21.7491 46.3647 20.6299 46.6041 21.4895 46.1425C21.5523 46.0395 21.6493 45.9619 21.7636 45.9233C21.7636 45.9233 20.5635 46.0041 21.628 45.5685C21.628 45.5685 20.7799 45.456 20.8231 45.1617C20.8231 45.1617 20.0298 45.0377 20.8462 44.8992C20.8462 44.8992 21.0251 44.729 20.6847 44.5733C20.6847 44.5733 19.9548 44.2992 21.5501 44.2242C21.5501 44.2242 19.1356 43.6328 19.3664 43.428C19.3664 43.428 18.5759 43.1396 19.4212 43.1915C19.4212 43.1915 19.2077 42.903 19.3866 42.9376C19.3866 42.9376 18.1173 42.3059 20.3847 42.6492H20.7597C20.7597 42.6492 20.6645 42.3607 20.8664 42.3607C20.8664 42.3607 19.3346 41.9107 21.8559 42.0232C21.8559 42.0232 21.7809 41.6885 22.2597 41.8241C22.2597 41.8241 22.3982 41.5732 22.9232 42.0203C22.9232 42.0203 23.5578 42.453 23.6675 42.4068L23.4771 42.0895C23.4771 42.0895 23.2146 41.6337 23.7915 41.8443C23.7915 41.8443 23.9934 41.6424 24.3684 41.9366C25.8423 42.8029 26.9991 44.1195 27.6686 45.6925C27.6686 45.6925 27.8561 46.0127 27.5301 45.9435C27.5301 45.9435 28.0176 46.5666 27.357 46.1685L27.2964 46.3502L26.8493 46.2377L27.3657 46.5724L27.1291 46.7483C27.1823 46.767 27.2308 46.797 27.2712 46.8364C27.3115 46.8758 27.3428 46.9235 27.3628 46.9762C27.3628 46.9762 27.9888 47.3512 27.5387 47.4118C27.5468 47.4505 27.5635 47.4869 27.5874 47.5183C27.6114 47.5498 27.6421 47.5755 27.6772 47.5936C27.6772 47.5936 28.1907 47.7551 27.3714 47.8676L27.3282 48.058C27.8132 47.9632 28.3154 48.0155 28.7705 48.208C28.8417 48.2356 28.9023 48.2851 28.9436 48.3493C29.0244 48.4676 28.4186 48.6753 28.2138 48.7734C27.7061 48.9926 27.0772 49.0965 25.0233 49.5494C24.9782 49.6661 24.9567 49.7906 24.9598 49.9157C24.9598 50.634 26.2118 51.0119 27.4234 51.3206C28.2455 51.5225 28.3378 51.5398 28.3465 51.6552C28.3551 51.7706 28.309 51.7966 27.1926 52.3995C26.5233 52.763 26.4454 52.812 26.1108 52.9764C25.5656 53.1149 23.0963 53.6428 22.6088 53.7322C20.8779 54.1418 20.552 54.3813 20.6414 54.9409C20.9789 56.4121 24.4088 57.4621 26.1829 57.0554C27.0092 56.9366 27.812 56.6904 28.5628 56.3256C28.9724 56.1467 29.0273 56.115 29.108 56.089C29.1888 56.0631 29.1946 56.089 29.1888 56.089C29.1475 56.1404 29.0978 56.1843 29.0417 56.2188C28.984 56.2563 27.9859 56.8852 26.9474 57.5141C26.857 57.5468 26.7676 57.5756 26.6791 57.6006H37.615V47.7926C37.1263 47.7735 36.639 47.7272 36.1554 47.6541C36.1554 47.6541 36.7554 48.032 33.9716 47.6945L36.1208 48.032C36.1208 48.032 37.0467 48.2801 35.5438 48.1993C35.5438 48.1993 36.5015 48.6724 35.3534 48.5138C35.3534 48.5138 33.1149 48.159 32.3879 48.3176C32.3879 48.3176 32.1254 48.0638 31.987 48.1128C31.987 48.1128 32.1572 48.0897 32.2091 47.8503C32.2091 47.8503 31.3725 47.8503 32.2322 47.5907L32.3504 47.4003C32.3504 47.4003 31.6639 47.4378 32.2379 47.0108C32.4419 46.9242 32.6628 46.8848 32.8841 46.8955C32.8613 46.8591 32.8468 46.8181 32.8419 46.7755C32.8369 46.7329 32.8414 46.6897 32.8553 46.6491C32.8691 46.6085 32.8918 46.5714 32.9217 46.5407C32.9517 46.5099 32.9881 46.4863 33.0283 46.4714L31.361 47.3657V47.1926L32.9851 46.2118L31.1158 47.1522L31.6927 46.5233L31.185 46.8118C31.185 46.8118 32.8033 45.1762 36.5362 44.4608C36.5362 44.4608 37.7362 44.38 36.6919 44.7492C36.6919 44.7492 36.2275 44.9281 37.1304 44.804C37.1304 44.804 37.341 44.7694 37.6323 44.7319V39H30.3081C30.2504 39.6289 30.0917 40.2895 30.0917 40.2895ZM31.3754 48.3667C31.6769 48.3295 31.9828 48.3621 32.2697 48.4618C32.2697 48.4618 34.1592 49.4109 34.3755 49.9561C34.3755 49.9561 35.8813 51.687 34.638 51.0148L34.9438 51.5514L34.563 51.3148C34.563 51.3148 34.7736 51.8023 33.9341 51.1417C33.9341 51.1417 35.8409 53.2707 35.1775 53.4755C35.1775 53.4755 35.0938 53.4755 34.9294 53.337L34.7592 53.3601C34.7592 53.3601 35.3707 54.4592 33.9745 53.0947L35.4746 55.7313C35.4746 55.7313 35.6275 56.6313 34.788 55.3361C34.788 55.3361 35.1976 55.9996 34.8371 55.9131C34.8371 55.9131 35.2323 56.6948 34.5947 56.0342C34.5947 56.0342 34.514 56.5044 33.3976 54.2399C33.3976 54.2399 33.2707 54.3726 33.0716 53.9659L32.9851 54.1793C32.9851 54.1793 33.2476 55.0448 32.6331 54.3438C32.6331 54.3438 32.4803 54.4794 31.9552 53.4005C31.9552 53.4005 31.837 53.1582 31.7187 53.1437C31.7187 53.1437 32.0793 54.5082 32.2956 55.1082C32.2956 55.1082 32.7312 56.1727 31.9177 55.4803C31.8849 55.5934 31.8849 55.7135 31.9177 55.8265C31.9177 55.8265 31.9033 56.3458 31.5081 55.7659C31.5081 55.7659 31.2196 55.8352 30.7667 54.5717L29.0359 49.7398C29.0359 49.7398 28.883 49.0417 29.0013 49.0532C29.0013 49.0532 28.7821 48.1041 29.3186 48.8657C29.3186 48.8657 29.3186 48.433 29.6071 48.6522C29.6071 48.6522 29.8061 48.6263 29.8494 48.7359L30.0917 48.6147C30.0917 48.6147 30.5619 48.9032 30.6888 48.7647L30.66 48.5657C30.66 48.5657 29.9186 47.9888 30.784 48.2022L31.0956 48.159L31.3754 48.3667ZM32.7745 40.5231C32.7745 40.5231 33.1928 40.2058 33.063 40.5693C33.063 40.5693 34.0351 40.2808 33.4178 40.8376C33.4178 40.8376 33.8245 40.6645 33.5505 41.1664C33.5505 41.1664 35.2813 39.4875 35.7429 39.9404C35.7429 39.9404 36.6083 39.7904 35.8698 40.2289H36.1583L35.8698 40.4972C35.8698 40.4972 35.9304 40.7481 34.5976 42.1443C34.5976 42.1443 35.1255 41.8097 35.1226 42.1876C35.1226 42.1876 35.9361 41.6107 35.6361 42.3751C35.6361 42.3751 36.1929 42.4415 35.6679 42.802C35.6679 42.802 32.8062 44.8387 32.0245 45.8396L31.736 45.9666C31.736 45.9666 31.035 46.956 31.4475 46.007L31.1158 46.1714L31.5918 45.4416L30.9715 45.9608C30.8372 46.028 30.7213 46.127 30.634 46.2493C30.634 46.2493 30.1436 46.6618 30.5158 46.0041C30.5158 46.0041 29.7398 46.6589 30.5677 45.5656C31.3956 44.4723 30.2417 45.6954 30.2417 45.6954C30.2417 45.6954 29.8609 46.0675 30.6571 44.9483L30.6946 44.5963L30.4869 44.7694C30.4869 44.7694 30.2821 44.7406 30.4465 44.2559C30.4465 44.2559 29.8205 45.3521 29.359 45.9868C29.359 45.9868 29.333 45.5858 29.1542 45.756C29.1542 45.756 29.8407 44.2473 29.8407 44.0454C29.8292 44.0396 31.8802 40.7308 32.7745 40.5231Z" fill="#7F3035"/>
<path d="M37.6151 46.4425V46.3704L37.5112 46.4136L37.6151 46.4425Z" fill="#803037"/>
<path d="M44.3509 49.0763H42.2855V46.1339H44.0798V45.104H42.2855V42.5222H44.2471V41.4895H41.1777V50.109H44.3509V49.0763Z" fill="black"/>
<path d="M48.0923 44.7031C47.9926 44.5597 47.8598 44.4426 47.7051 44.3617C47.5504 44.2808 47.3784 44.2386 47.2038 44.2386C46.223 44.2386 45.5393 45.4762 45.5393 47.2705C45.5393 49.1946 46.3239 50.2013 47.1519 50.2013C47.3369 50.1996 47.5183 50.1501 47.6785 50.0576C47.8387 49.9651 47.9723 49.8328 48.0663 49.6734H48.0923V50.1119H49.099V41.4895H48.0923V44.7031ZM48.0923 48.6522C48.0432 48.8041 47.9489 48.9373 47.8221 49.0342C47.6954 49.1311 47.542 49.1871 47.3826 49.1946C46.8663 49.1946 46.5691 48.5368 46.5691 47.2964C46.5691 45.9666 46.8922 45.1935 47.4346 45.1935C47.592 45.2052 47.7413 45.2678 47.8599 45.3719C47.9786 45.476 48.0601 45.6159 48.0923 45.7704V48.6522Z" fill="black"/>
<path d="M53.5905 50.1089V44.3943H52.5837V48.6262C52.4019 49.0646 52.1048 49.2983 51.7962 49.2983C51.4875 49.2983 51.2538 49.0762 51.2538 48.4848V44.3943H50.2471V48.5598C50.2471 49.6704 50.8413 50.2012 51.5394 50.2012C51.9779 50.2012 52.2462 50.0195 52.5577 49.4916H52.5837V50.1089H53.5905Z" fill="black"/>
<path d="M55.7425 47.2706C55.7425 45.9927 56.1954 45.1936 56.9194 45.1936C57.1928 45.208 57.4545 45.3091 57.6666 45.4821V44.4436C57.3833 44.3127 57.0757 44.2429 56.7637 44.2388C55.5636 44.2388 54.7126 45.5167 54.7126 47.2966C54.7126 49.013 55.5781 50.2649 56.7637 50.2649C57.1176 50.2678 57.464 50.1621 57.756 49.962V48.987C57.5605 49.1839 57.2977 49.2994 57.0204 49.3101C56.2329 49.3101 55.7425 48.5197 55.7425 47.2706Z" fill="black"/>
<path d="M62.04 49.0503C61.8496 49.2321 61.7054 49.3388 61.6419 49.3388C61.5784 49.3388 61.4861 49.2609 61.4861 49.0042V45.7733C61.4955 45.5703 61.4625 45.3675 61.3894 45.1779C61.3164 44.9882 61.2047 44.8158 61.0615 44.6715C60.9183 44.5273 60.7468 44.4143 60.5577 44.3398C60.3686 44.2653 60.1661 44.2308 59.963 44.2386C59.4207 44.2386 59.0341 44.4204 58.4399 44.9742V46.1281C59.0341 45.4589 59.4611 45.1877 59.8822 45.1877C60.3034 45.1877 60.4592 45.4329 60.4592 45.9348V46.4772C58.887 47.406 58.2783 47.8734 58.2783 48.8138C58.2783 49.5869 58.7947 50.2561 59.4005 50.2561C59.7755 50.2561 60.1245 50.0109 60.4995 49.5061C60.6149 49.985 60.8717 50.2302 61.2351 50.2302C61.4544 50.2302 61.6736 50.1148 62.0198 49.8032L62.04 49.0503ZM60.4794 48.6522C60.3005 49.0763 60.0409 49.31 59.7841 49.31C59.5274 49.31 59.2937 49.0503 59.2937 48.6638C59.2937 48.1474 59.6543 47.683 60.4794 47.181V48.6522Z" fill="black"/>
<path d="M64.9967 49.1541C64.8295 49.2451 64.6444 49.2983 64.4544 49.3098C64.1313 49.3098 64.0534 49.0906 64.0534 48.5367V45.2712H64.9967V44.4058H64.0534V42.9231H63.964C63.4906 43.7098 62.9644 44.4635 62.3889 45.1789V45.2712H63.0466V48.9868C63.0466 49.9156 63.4476 50.2647 64.1053 50.2647C64.4149 50.2575 64.7191 50.1826 64.9967 50.0454V49.1541Z" fill="black"/>
<path d="M67.3563 44.2388C66.2457 44.2388 65.562 45.3927 65.562 47.2591C65.562 49.1255 66.2457 50.2649 67.3563 50.2649C68.4669 50.2649 69.1506 49.111 69.1506 47.2591C69.1506 45.4071 68.4669 44.2388 67.3563 44.2388ZM67.3707 49.3101C66.8544 49.3101 66.5947 48.6005 66.5947 47.2591C66.5947 45.9177 66.8544 45.1936 67.3448 45.1936C67.8352 45.1936 68.1179 45.9032 68.1179 47.2591C68.1179 48.6149 67.8611 49.3101 67.3707 49.3101Z" fill="black"/>
<path d="M71.2652 45.9405H71.2392V44.3943H70.2354V50.1089H71.2392V47.8387C71.2392 47.181 71.5508 45.3607 72.3239 45.3607C72.4813 45.3605 72.6347 45.4099 72.7624 45.5021L72.8402 44.4693C72.6905 44.3596 72.5095 44.301 72.3239 44.302C71.8479 44.302 71.6662 44.5732 71.2652 45.9405Z" fill="black"/>
<path d="M74.1556 45.5802C74.1501 45.5251 74.1566 45.4695 74.1745 45.4172C74.1924 45.3648 74.2214 45.3169 74.2594 45.2767C74.2974 45.2365 74.3436 45.205 74.3949 45.1842C74.4461 45.1633 74.5013 45.1538 74.5565 45.1561C74.8829 45.1825 75.1895 45.3235 75.4219 45.5542V44.5994C75.1534 44.3749 74.8169 44.2479 74.4671 44.2388C74.2959 44.2399 74.1267 44.2762 73.97 44.3453C73.8133 44.4144 73.6725 44.515 73.5563 44.6407C73.44 44.7664 73.3508 44.9147 73.2941 45.0763C73.2374 45.2379 73.2144 45.4094 73.2267 45.5802C73.2267 46.8696 74.669 47.9543 74.669 48.8197C74.6695 48.8854 74.6566 48.9506 74.6312 49.0112C74.6058 49.0719 74.5684 49.1268 74.5212 49.1726C74.4741 49.2184 74.4181 49.2542 74.3568 49.2778C74.2954 49.3014 74.2299 49.3124 74.1642 49.3101C73.8556 49.3101 73.5873 49.1428 73.1719 48.6899V49.8005C73.4776 50.0858 73.8762 50.2507 74.294 50.2649C74.4822 50.2638 74.6681 50.2241 74.8403 50.1484C75.0126 50.0727 75.1675 49.9626 75.2956 49.8248C75.4237 49.687 75.5222 49.5244 75.5851 49.3471C75.648 49.1698 75.674 48.9815 75.6614 48.7937C75.6527 47.4264 74.1556 46.4052 74.1556 45.5802Z" fill="black"/>
<path d="M41.5786 53.461C41.5786 52.5495 41.6997 52.036 42.1123 52.036C42.2904 52.0502 42.4564 52.1317 42.5767 52.2639V51.7908C42.4318 51.6816 42.2586 51.6165 42.0776 51.6033C41.3795 51.6033 41.0911 52.437 41.0911 53.4841C41.0911 54.6582 41.4459 55.3188 42.069 55.3188C42.2713 55.3189 42.4669 55.2462 42.62 55.114V54.6264C42.3921 54.8255 42.2796 54.8861 42.1267 54.8861C41.7199 54.8861 41.5786 54.4303 41.5786 53.461Z" fill="black"/>
<path d="M45.0979 53.4237C45.221 53.3368 45.3198 53.2199 45.3849 53.0841C45.4501 52.9483 45.4793 52.798 45.47 52.6477C45.47 52.1919 45.2652 51.6438 44.5181 51.6438H44.1257V55.2699H44.5931V53.6516C44.8584 53.6227 44.9681 53.94 45.1296 54.6468L45.271 55.2699H45.7585L45.5912 54.5285C45.4642 54.0006 45.3142 53.5852 45.0979 53.4237ZM44.6161 53.2131H44.5931V52.0852C44.8815 52.0852 45.0056 52.2727 45.0056 52.6621C45.0056 53.0515 44.87 53.2189 44.6161 53.2189V53.2131Z" fill="black"/>
<path d="M47.648 53.6024H48.4038V53.1697H47.648V52.085H48.4731V51.6494H47.1836V55.2726H48.5163V54.837H47.648V53.6024Z" fill="black"/>
<path d="M50.7317 51.6494H50.2183V55.2697H50.7952C51.3087 55.2697 51.9722 54.9611 51.9722 53.4552C51.9808 52.3879 51.6693 51.6494 50.7317 51.6494ZM50.7548 54.8226H50.6827V52.085H50.7664C51.3116 52.085 51.5077 52.4542 51.5077 53.4783C51.5135 54.4534 51.3087 54.837 50.7606 54.837L50.7548 54.8226Z" fill="black"/>
<path d="M53.5732 51.6523H54.0377V55.2727H53.5732V51.6523Z" fill="black"/>
<path d="M55.48 52.085H56.0396V55.2726H56.5041V52.085H57.0637V51.6494H55.48V52.085Z" fill="black"/>
<path d="M62.5361 54.3928C62.5361 54.7389 62.3745 54.8861 62.1957 54.8861C61.9678 54.8861 61.8524 54.6812 61.8524 54.3697V51.6494H61.3879V54.3784C61.3879 54.9553 61.7456 55.3188 62.1957 55.3188C62.4841 55.3188 63.0034 55.1197 63.0034 54.338V51.6494H62.5361V54.3928Z" fill="black"/>
<path d="M65.8911 53.8822H65.8796L65.0776 51.6494H64.6997V55.2726H65.1266V53.0168H65.1382L65.9401 55.2726H66.318V51.6494H65.8911V53.8822Z" fill="black"/>
<path d="M68.0256 51.6523H68.4901V55.2727H68.0256V51.6523Z" fill="black"/>
<path d="M71.0403 51.6033C70.3306 51.6033 70.0681 52.5783 70.0681 53.461C70.0681 54.6639 70.4922 55.3188 71.0403 55.3188C71.5393 55.3188 72.0095 54.7418 72.0095 53.461C72.0095 52.4687 71.6836 51.6033 71.0403 51.6033ZM71.0403 54.8861C70.7258 54.8861 70.5527 54.3697 70.5527 53.461C70.5527 52.8091 70.6479 52.036 71.0287 52.036C71.3374 52.036 71.5162 52.5495 71.5162 53.461C71.5162 54.3726 71.3432 54.8861 71.046 54.8861H71.0403Z" fill="black"/>
<path d="M74.7902 53.8822H74.7787L73.9767 51.6494H73.5959V55.2726H74.0258V53.0168H74.0373L74.8393 55.2726H75.2172V51.6494H74.7902V53.8822Z" fill="black"/>
<path d="M76.322 51.0814C76.1905 51.0836 76.0626 51.1248 75.9544 51.1996C75.8463 51.2745 75.7627 51.3797 75.7142 51.502C75.6657 51.6242 75.6545 51.7581 75.6819 51.8868C75.7094 52.0154 75.7743 52.1331 75.8685 52.2249C75.9628 52.3167 76.082 52.3785 76.2113 52.4027C76.3407 52.4268 76.4742 52.4121 76.5952 52.3605C76.7162 52.3089 76.8192 52.2226 76.8912 52.1125C76.9632 52.0024 77.0011 51.8735 76.9999 51.742C76.9988 51.6541 76.9804 51.5673 76.9457 51.4865C76.911 51.4057 76.8608 51.3326 76.7978 51.2712C76.7349 51.2099 76.6605 51.1616 76.5788 51.129C76.4972 51.0964 76.4099 51.0802 76.322 51.0814ZM76.322 52.3304C76.2079 52.3304 76.0964 52.2966 76.0015 52.2332C75.9066 52.1698 75.8327 52.0797 75.789 51.9743C75.7454 51.8689 75.7339 51.7529 75.7562 51.6409C75.7784 51.529 75.8334 51.4262 75.9141 51.3455C75.9948 51.2648 76.0976 51.2099 76.2095 51.1876C76.3214 51.1654 76.4374 51.1768 76.5428 51.2205C76.6483 51.2641 76.7384 51.3381 76.8018 51.433C76.8651 51.5278 76.899 51.6394 76.899 51.7535C76.899 51.9055 76.839 52.0514 76.732 52.1594C76.6251 52.2675 76.4798 52.3289 76.3278 52.3304H76.322Z" fill="black"/>
<path d="M76.4751 51.7618C76.5117 51.755 76.5451 51.7364 76.5701 51.7087C76.5951 51.6811 76.6104 51.646 76.6135 51.6089C76.6147 51.5816 76.6095 51.5544 76.5985 51.5294C76.5875 51.5044 76.5709 51.4823 76.5501 51.4647C76.4795 51.4262 76.3993 51.4092 76.3193 51.4156C76.2342 51.4145 76.1492 51.4213 76.0654 51.4358V52.0964H76.2183V51.831H76.2904C76.3741 51.831 76.4145 51.8628 76.4289 51.9349C76.4377 51.9911 76.4552 52.0456 76.4808 52.0964H76.6453C76.6186 52.0453 76.6019 51.9894 76.5962 51.932C76.5948 51.8949 76.5826 51.859 76.5611 51.8288C76.5395 51.7986 76.5096 51.7753 76.4751 51.7618ZM76.2962 51.7128H76.2212V51.5224H76.3077C76.4029 51.5224 76.4491 51.5599 76.4491 51.6205C76.4491 51.681 76.3799 51.7128 76.2962 51.7128Z" fill="black"/>
</svg>
