<svg width="96" height="96" viewBox="0 0 96 96" fill="none" xmlns="http://www.w3.org/2000/svg">
<circle cx="48" cy="48" r="47" fill="white" stroke="white" stroke-width="2"/>
<g clip-path="url(#clip0_1_311)">
<path fill-rule="evenodd" clip-rule="evenodd" d="M31.0317 66.9991H30.7697L25.3611 59.0582V66.3882H26.4074V66.8247H23.7908V66.3882H24.8371V58.2729H23.9652V57.9241H26.9314L30.6829 63.4213V58.2729H29.6357V57.9241H31.9912V58.2729H31.0317V66.9991ZM65.1424 66.8247V66.3882H66.0152V58.2727H64.968V57.9239H71.8601L71.9478 60.1931H71.5114C70.9882 58.6224 70.4642 58.2727 69.1559 58.2727H67.7599V62.0259C68.9806 62.0259 69.5046 61.7629 69.7667 60.4543H70.1154V64.1198H69.7667C69.5914 62.8103 68.9806 62.4615 67.7599 62.4615V66.3882H69.2426C71.1626 66.3882 71.5114 65.7773 71.8601 64.2066H72.2957L72.2089 66.8247H65.1424ZM78.3159 57.9241H78.7523V60.1933H78.3159C78.1415 59.0582 77.2696 58.0985 76.1348 58.0985C75.4372 58.0985 74.4777 58.5358 74.4777 59.408C74.4777 60.1933 75.0008 60.6298 75.6116 60.891C75.9604 60.9778 77.3563 61.3275 77.8795 61.6763C78.6655 62.026 79.2754 62.4617 79.2754 63.8579C79.2754 65.603 78.4035 66.9993 76.31 66.9993C75.6116 66.9993 75.0876 66.8249 74.5644 66.3884L73.9536 66.9125H73.4305V64.3812H73.9536C74.2157 65.603 75.0876 66.6496 76.3968 66.6496C77.7927 66.6496 78.4035 65.6907 78.4035 64.8177C78.4035 63.6835 77.1819 63.4214 75.9604 63.0726C74.7388 62.7237 73.5181 62.374 73.5181 60.3669C73.5181 58.8838 74.7388 57.662 76.1348 57.662C76.7455 57.662 77.3563 57.9241 77.8795 58.2729L78.3159 57.9241ZM80.1482 57.9241H87.9123L87.9999 60.6298H87.6512C87.2148 58.9715 86.604 58.1861 84.9469 58.2729V66.3884H85.9064V66.8249H82.155V66.3884H83.2022V58.2729C81.4566 58.1861 80.8458 58.9715 80.4103 60.6298H80.0606L80.1482 57.9241ZM38.185 57.9241H40.8892V58.2729H39.8428L37.4874 61.0654L40.8892 66.3882H41.6751V66.8247H37.4874V66.3882H38.5344L35.9171 62.1126L39.3189 58.2729H38.185V57.9241Z" fill="#114777"/>
<path fill-rule="evenodd" clip-rule="evenodd" d="M33.0383 66.8247V66.3882H33.8235V58.2729H33.0383V57.9241H36.6145V58.2729H35.7426V66.3882H36.6145V66.8247H33.0383Z" fill="#114777"/>
<path fill-rule="evenodd" clip-rule="evenodd" d="M30.8574 35.0626L29.4614 36.458C29.5482 36.6333 29.7226 36.9821 29.8102 36.9821C30.0722 37.0689 30.421 36.9821 30.683 36.9821C30.683 36.8945 30.8574 36.6333 30.8574 36.5456L31.2061 36.3712L32.5145 37.6798H31.7293L32.0781 38.3784H31.6425C31.8169 38.7272 31.9037 39.3381 32.0781 39.5993L32.9509 40.6467C33.1252 40.7344 34.3468 40.7344 34.5212 40.6467C34.7832 40.6467 35.5684 39.4258 35.6551 39.1637C36.0915 39.2505 36.3535 39.3381 36.7899 39.3381C36.8767 38.7272 36.7023 37.6798 36.7023 37.1565C37.0511 37.2442 37.3131 37.4186 37.6619 37.5054C37.5742 36.7201 37.3999 36.1091 37.2255 35.4982L38.447 35.1494L39.2322 36.2836C39.1446 36.5456 38.7958 37.6798 38.7958 37.6798L39.7554 40.2103C39.7554 40.2103 39.4066 41.2577 39.2322 42.6539L37.2255 42.2174L35.3931 41.3453L34.9576 41.6942C34.9576 41.6942 31.9037 41.9554 30.683 41.5197L30.2466 40.9956L28.763 40.8212L28.5019 40.3847C28.3275 40.2979 28.0655 40.3847 27.8911 40.2979C27.8034 40.2103 27.5414 39.5126 27.2803 39.2505C27.0183 39.0761 26.5827 38.7272 26.4951 38.4652L26.6695 38.204C26.8439 38.1163 27.8034 38.204 28.3275 38.2907L28.4142 38.5528L28.0655 38.9016C28.1522 39.1637 28.4142 39.8614 28.6762 39.9491C28.6762 39.9491 30.421 40.1235 31.3805 40.0358C31.3805 39.8614 31.2061 38.5528 31.2061 38.5528L30.5953 38.204C30.5086 38.204 30.3333 37.593 30.2466 37.5054H28.6762C28.8506 37.2442 29.1118 36.9821 29.1118 36.9821L28.8506 36.1968C29.3738 35.6735 29.8978 35.1494 30.5953 34.6261L30.5086 34.1896H31.2929L31.7293 34.9749L30.8574 35.0626ZM49.788 42.5661L48.1309 42.6537L48.7408 43.4391C48.7408 43.4391 48.8285 46.2316 48.4797 47.9767C48.4797 47.9767 48.2177 47.8023 48.0433 47.6278C47.9565 48.2379 47.7821 49.0241 47.6069 49.7218H42.4603C42.4603 49.7218 42.6347 48.9365 42.8091 48.762C43.0703 48.6744 45.077 47.8891 45.077 47.8891C45.339 47.3658 44.4662 43.7879 44.1174 43.7879C43.9431 43.7879 41.4132 48.1511 40.8891 48.6744L41.1511 49.1109L40.9768 49.7218H34.9574C35.045 49.373 35.5682 48.6744 35.5682 48.6744C35.5682 48.6744 37.7493 47.7146 37.9237 47.8023C38.2725 47.8891 39.232 48.4132 39.232 48.4132C39.5808 48.0635 40.8891 46.7549 42.4603 41.9552L43.5943 42.5661C44.0307 41.6063 44.2918 40.5598 44.4662 39.338L45.7754 39.8612C46.0366 38.9891 45.8622 35.7601 45.6878 35.3236L47.2581 35.5857L47.7821 36.6331C48.0433 36.7199 48.3929 36.7199 48.6541 36.7199C49.2649 36.8943 49.9624 37.0687 50.6608 37.1564C50.4864 36.9819 50.3988 36.7199 50.312 36.5455C50.2244 36.4578 50.2244 36.371 50.2244 36.1966C50.7476 36.2834 51.9691 36.5455 51.9691 36.5455C51.6204 35.2368 50.6608 33.9274 50.6608 33.9274L53.6271 34.7127L53.9759 35.4113C53.5395 35.8478 52.5799 37.9417 52.5799 37.9417L53.1907 41.3451L52.5799 43.177L49.788 42.5661Z" fill="#A91D35"/>
<path fill-rule="evenodd" clip-rule="evenodd" d="M62.1764 49.7219C62.6996 49.0242 64.0088 48.1512 64.7072 47.8023L64.5319 46.7549C64.0088 46.144 62.8748 44.8354 62.8748 44.8354L62.0897 41.2576L62.002 39.1636C62.002 39.1636 62.6996 37.1564 62.6996 36.6332C62.6996 36.1967 60.2573 32.0955 59.7342 31.7458C59.2978 31.4846 57.9894 31.0481 57.3787 30.8737C56.5059 30.6116 55.7207 30.4372 54.8479 30.2628C54.8479 30.0884 54.8479 30.1752 54.9355 30.0007C53.2776 30.3496 51.7081 30.6993 50.1369 31.1358C49.6137 31.3102 48.3054 31.7458 47.7822 31.9211L44.9903 32.0079L44.9027 31.7458C44.9027 31.7458 41.8497 30.6993 41.3256 30.6993C40.8892 30.7861 37.6618 32.6188 36.9643 33.3174L36.7022 33.1421C36.2658 33.2297 34.8699 34.1027 34.8699 34.1027L34.4344 34.2763L34.0847 34.626L34.4344 34.5383H34.6955L37.8362 34.1027L37.5742 33.9274C37.5742 33.9274 40.8025 32.0955 40.9769 32.0079C41.0645 31.9211 42.286 31.9211 42.3728 32.0079C42.5472 32.1823 45.3391 33.6662 45.6879 34.1027L45.4259 33.2297C46.473 33.3174 48.131 33.4918 49.1782 33.5786C48.9162 33.3174 48.7409 33.1421 48.4798 32.7932C49.9625 32.3568 51.3584 31.9211 53.0164 31.5714C53.5396 31.4846 53.976 31.3102 54.6744 31.397C54.6744 31.397 58.7746 32.5312 59.1234 32.9677C59.1234 32.9677 61.2177 36.109 61.2177 36.4579C61.2177 36.4579 60.5193 36.1967 60.2573 36.1967C60.2573 38.2038 60.3449 38.7271 59.3845 41.1708C58.949 41.0831 58.687 40.9955 58.2506 40.8211L57.553 43.0027L56.0703 42.3917C55.7207 42.4794 54.7611 44.5733 54.7611 44.8354C54.6744 45.0098 55.2843 48.238 55.3719 48.5877L53.714 47.7147C53.4528 47.7147 51.0973 48.7621 51.0097 48.9365C50.9229 49.1109 50.8353 49.5466 50.7477 49.7219H56.5059L57.029 48.5C56.9423 48.3256 56.3315 46.5805 56.3315 46.5805C56.5059 46.2317 57.553 44.4866 57.6398 44.4866C57.8151 44.5733 59.2101 46.3184 60.1706 46.9293L60.2573 47.9768L58.3382 48.6744L57.9018 49.7219H62.1764Z" fill="#A91D35"/>
<path fill-rule="evenodd" clip-rule="evenodd" d="M33.3873 35.0627L32.4277 34.8882C32.5145 34.713 32.6889 34.2765 32.6889 34.2765L33.2129 34.0153L33.9981 34.2765L34.1725 34.8006L34.0848 35.6736L33.3873 35.0627Z" fill="#A91D35"/>
<path fill-rule="evenodd" clip-rule="evenodd" d="M37.9239 47.8023C38.0983 47.4535 39.2322 42.6538 39.2322 42.6538C39.4066 41.2575 39.7554 40.2101 39.7554 40.2101L38.7958 37.6797C38.7958 37.6797 39.1446 36.5455 39.2322 36.2834L38.4471 35.1493L37.2255 35.4981C37.3999 36.109 37.5743 36.7199 37.6619 37.5053C37.3131 37.4185 37.0511 37.2441 36.7023 37.1564C36.7023 37.6797 36.8767 38.7271 36.79 39.338C36.3536 39.338 36.0916 39.2504 35.6552 39.1636C35.5684 39.4257 34.7832 40.6466 34.5212 40.6466C34.3468 40.7343 33.1253 40.7343 32.9509 40.6466L32.0781 39.5992C31.9037 39.338 31.8169 38.7271 31.6425 38.3783H32.0781L31.7293 37.6797H32.5145L31.2062 36.3711L30.8574 36.5455C30.8574 36.6332 30.683 36.8944 30.683 36.982C30.421 36.982 30.0722 37.0688 29.8102 36.982C29.7226 36.982 29.5482 36.6332 29.4614 36.4579L30.8574 35.0625L31.7293 34.9748L32.4277 34.8881L33.3873 35.0625L34.0848 35.6734L34.1724 34.8004L34.0848 34.626L34.4345 34.5383H34.6956L37.8363 34.1027L37.5743 33.9274C37.5743 33.9274 40.8026 32.0955 40.977 32.0079C41.0646 31.9211 42.2861 31.9211 42.3729 32.0079C42.5473 32.1823 45.3392 33.6662 45.688 34.1027L45.426 33.2297C46.4731 33.3174 48.1311 33.4918 49.1783 33.5786C48.9163 33.3174 48.741 33.1421 48.4799 32.7932C49.9626 32.3567 51.3585 31.9211 53.0165 31.5714C53.5397 31.4846 53.9761 31.3102 54.6745 31.397C54.6745 31.397 58.7747 32.5312 59.1235 32.9677C59.1235 32.9677 61.2178 36.109 61.2178 36.4579C61.2178 36.4579 60.5194 36.1967 60.2574 36.1967C60.2574 38.2038 60.345 38.7271 59.3846 41.1708C58.9491 41.0831 58.6871 40.9955 58.2507 40.8211L57.5531 43.0026L56.0704 42.3917C55.7208 42.4794 54.7612 44.5733 54.7612 44.8354C54.6745 45.0098 55.2844 48.238 55.372 48.5877L53.7141 47.7147C53.6273 47.3658 52.057 44.9222 52.057 44.8354C52.1437 44.661 52.5801 43.1771 52.5801 43.1771L53.1909 41.3452L52.5801 37.9418C52.5801 37.9418 53.5397 35.8478 53.9761 35.4113L53.6273 34.7128L50.661 33.9274C50.661 33.9274 51.6206 35.2369 51.9693 36.5455C51.9693 36.5455 50.7478 36.2834 50.2246 36.1967C50.2246 36.3711 50.2246 36.4579 50.3122 36.5455C50.399 36.7199 50.4866 36.982 50.661 37.1564C49.9626 37.0688 49.265 36.8944 48.6543 36.7199C48.3931 36.7199 48.0435 36.7199 47.7823 36.6332L47.2583 35.5857L45.688 35.3237C45.8624 35.7602 46.0367 38.9892 45.7756 39.8613L44.4664 39.338C44.292 40.5598 44.0309 41.6064 43.5945 42.5662L42.4605 41.9552C40.8893 46.7549 39.581 48.0635 39.2322 48.4132C39.2322 48.4132 38.2727 47.8891 37.9239 47.8023Z" fill="#B88444"/>
<path fill-rule="evenodd" clip-rule="evenodd" d="M27.2804 38.2038C27.2804 38.2038 27.8036 38.2038 28.3276 38.2906L28.4143 38.5527L28.0656 38.9015C28.1523 39.1636 28.4143 39.8613 28.6763 39.9489C28.6763 39.9489 30.4211 40.1233 31.3806 40.0357C31.3806 39.8613 31.2062 38.5527 31.2062 38.5527L30.5955 38.2038C30.5087 38.2038 30.3334 37.5929 30.2467 37.5052H28.6763C27.9779 37.6798 27.2804 38.2038 27.2804 38.2038ZM23.9653 49.7218V54.085H71.2495V49.7218H23.9653Z" fill="#B88444"/>
<path fill-rule="evenodd" clip-rule="evenodd" d="M10.5299 61.9382H11.4894C12.7986 61.9382 13.4094 61.7629 13.4094 60.0187C13.4094 58.4472 13.0598 58.2727 11.7515 58.2727H10.5299V61.9382ZM12.449 66.3882C13.5838 66.3882 13.6706 65.3417 13.6706 64.381C13.6706 62.8103 13.3218 62.3738 11.4894 62.3738H10.5299V66.3882H12.449ZM8 66.8247V66.3882H8.78517V58.2727H8V57.9239H12.6243C13.7582 57.9239 15.2409 58.4472 15.3285 59.8434C15.4162 60.8908 14.7178 61.7629 12.7986 62.1994C14.107 62.1994 15.7641 62.898 15.7641 64.4687C15.7641 65.4284 15.1542 66.127 14.369 66.475C13.7582 66.8247 12.8854 66.8247 12.1879 66.8247H8ZM17.7708 63.9445H20.0396L18.9056 60.6296L17.7708 63.9445ZM15.5897 66.8247V66.3882H16.3749L19.5164 57.662H19.8652L23.0058 66.3882H23.9654V66.8247H20.0394V66.3882H20.9113L20.2138 64.2942H17.5964L16.8989 66.3882H17.9452V66.8247H15.5897ZM42.5471 63.4213C42.4603 63.5957 42.3727 63.8577 42.286 64.0322H42.1107L42.1983 63.4213H42.5471ZM44.3795 63.4213V66.6494H44.9026V66.8247H43.0703V66.6494H43.5943V63.4213H44.3795ZM45.7754 63.4213V64.0322H45.6878C45.601 63.8577 45.5134 63.5957 45.4258 63.4213H45.7754ZM47.4325 63.4213V64.6431H48.9161V63.4213H49.7013V66.6494H50.2244V66.8247H48.4797V66.6494H48.9161V64.8175H47.4325V66.6494H47.9565V66.8247H46.2118V66.6494H46.6473V63.4213H47.4325ZM52.0568 63.4213V64.6431C52.5799 64.6431 52.8419 64.5554 52.9296 63.9445H53.1031V65.5161H52.9296C52.8419 64.9919 52.5799 64.8175 52.0568 64.8175V66.6494H52.6675C53.6271 66.6494 53.8015 66.3014 53.8882 65.6029H54.0635V66.8247H50.7476V66.6494H51.2716V63.4213H52.0568ZM53.9759 63.4213V63.7701H53.8015C53.7139 63.5957 53.6271 63.5089 53.6271 63.4213H53.9759Z" fill="#114777"/>
<path fill-rule="evenodd" clip-rule="evenodd" d="M42.1982 63.4213V62.7236H45.7753V63.4213H45.4257C45.2513 63.0724 44.9025 62.898 44.3794 62.898V63.4213H43.5942V62.898C43.0702 62.898 42.7214 63.0724 42.547 63.4213H42.1982ZM46.6472 63.4213V62.898H46.2117V62.7236H47.9564V62.898H47.4324V63.4213H46.6472ZM48.916 63.4213V62.898H48.4796V62.7236H50.2243V62.898H49.7012V63.4213H48.916ZM51.2715 63.4213V62.898H50.8351V62.7236H53.8882L53.9758 63.4213H53.627C53.4526 62.9848 53.1906 62.898 52.6675 62.898H52.0567V63.4213H51.2715ZM48.0432 62.0259V61.8506H48.4796V58.0983H48.0432V57.9239H51.1839V58.9713H51.0095C50.8351 58.186 50.4863 58.0983 49.9623 58.0983H49.2648V59.8434C49.7879 59.8434 50.0499 59.7558 50.1367 59.2334H50.3987V60.6296H50.1367C50.0499 60.0187 49.7879 60.0187 49.2648 60.0187V61.8506H49.7879V62.0259H48.0432ZM44.9901 60.3669C44.9901 61.6763 45.0769 61.9384 45.9497 61.9384C46.7349 61.9384 46.8216 61.6763 46.8216 60.3669V59.408C46.8216 58.2729 46.5605 58.0117 45.9497 58.0117C45.2513 58.0117 44.9901 58.2729 44.9901 59.408V60.3669ZM47.8688 59.9312C47.8688 61.1522 47.0836 62.1128 45.9497 62.1128C44.8158 62.1128 43.943 61.1522 43.943 59.9312C43.943 58.5358 45.1645 57.8373 45.9497 57.8373C46.6472 57.8373 47.8688 58.5357 47.8688 59.9312ZM58.5124 64.4687L59.2976 62.7236L57.5529 58.2727H56.0701L58.5124 64.4687ZM60.2571 60.3669L61.1299 58.2729H59.3843L60.2571 60.3669ZM53.4526 57.9241H62.2639V58.2729H61.4787L60.4324 60.891L61.8275 64.2944L63.9218 58.2729H62.787V57.9241H65.2302V58.2729H64.3574L61.3043 66.9991H61.0423L59.472 63.2468L57.9016 66.9991H57.5529L54.2378 58.2729H53.4526V57.9241Z" fill="#114777"/>
<path fill-rule="evenodd" clip-rule="evenodd" d="M73.2562 52.6888C73.4306 52.6888 73.6926 52.7755 73.6926 52.5143C73.6926 52.2523 73.5182 52.2523 73.343 52.2523H72.9942V52.6888H73.2562ZM73.867 53.4741H73.6926L73.2562 52.8632H72.9942V53.4741H72.8198V52.0778H73.4306C73.5182 52.0778 73.605 52.0778 73.7794 52.1646C73.867 52.2523 73.867 52.339 73.867 52.5143C73.867 52.7755 73.6926 52.8632 73.4306 52.8632L73.867 53.4741ZM74.3902 52.7755C74.3902 52.1646 73.867 51.729 73.2562 51.729C72.6455 51.729 72.1223 52.1646 72.1223 52.7755C72.1223 53.3865 72.6455 53.9106 73.2562 53.9106C73.867 53.9106 74.3902 53.3865 74.3902 52.7755ZM72.0347 52.7755C72.0347 52.0778 72.5587 51.5537 73.2562 51.5537C73.9538 51.5537 74.4778 52.0778 74.4778 52.7755C74.4778 53.4741 73.9538 54.085 73.2562 54.085C72.5587 54.085 72.0347 53.4741 72.0347 52.7755Z" fill="#B88444"/>
</g>
<defs>
<clipPath id="clip0_1_311">
<rect width="80" height="37" fill="white" transform="translate(8 30)"/>
</clipPath>
</defs>
</svg>
