<svg width="96" height="96" viewBox="0 0 96 96" fill="none" xmlns="http://www.w3.org/2000/svg">
<circle cx="48" cy="48" r="47" fill="white" stroke="white" stroke-width="2"/>
<g clip-path="url(#clip0_1_4612)">
<path d="M15.6137 43.3955V45.1298H15.6513C15.9899 44.1278 16.5917 43.2028 17.7577 43.2028L18.1715 43.2414V44.3205H17.9458C17.0807 44.3205 16.4788 44.7444 16.1027 45.4767C15.8018 46.0162 15.7642 46.4787 15.7642 47.0568V50.7951H14.6733V43.3955H15.6137Z" fill="#006937"/>
<path d="M23.513 48.9452C23.8139 48.3671 23.8515 47.712 23.8515 47.0568C23.8515 46.3631 23.7763 45.6308 23.4001 45.0142C23.0616 44.4746 22.4597 44.1278 21.8203 44.1278C21.1056 44.1278 20.5038 44.5517 20.2029 45.1684C19.9396 45.7079 19.8643 46.4016 19.8643 47.0183C19.8643 47.6734 19.9772 48.4442 20.2781 49.0609C20.579 49.6389 21.2185 49.9858 21.8579 49.9858C22.5726 50.0243 23.1744 49.6004 23.513 48.9452ZM18.623 47.0568C18.623 45.0142 19.7515 43.2414 21.9331 43.2414C24.0396 43.2414 25.0928 45.1298 25.0928 47.0953C25.0928 49.1765 23.9267 50.9878 21.7451 50.9878C19.5634 50.9493 18.623 49.0223 18.623 47.0568Z" fill="#006937"/>
<path d="M32.5403 50.7951H31.6376L30.0201 45.3225L28.5532 50.7951H27.6504L25.4688 43.3955H26.5972L28.177 48.9452L29.6816 43.3955H30.4715L32.0889 48.9452L33.7064 43.3955H34.6467L32.5403 50.7951Z" fill="#006937"/>
<path d="M41.455 44.3205H39.7623V50.8337H38.6715V44.3205H37.3926V43.4341H38.6715C38.5962 41.8925 39.1229 40.5051 40.8907 40.6978L41.8687 40.8134V41.7383C41.5678 41.6613 41.2669 41.6227 40.966 41.6227C39.7623 41.6227 39.7623 42.5091 39.7623 43.4726H41.455V44.3205Z" fill="#006937"/>
<path d="M42.9597 43.3955H44.0506V50.7951H42.9597V43.3955ZM42.8845 40.8134H44.0882V42.0852H42.8845V40.8134Z" fill="#006937"/>
<path d="M46.7964 44.783C47.2478 43.858 48.0377 43.2414 49.0533 43.2414C49.9184 43.2414 50.6331 43.6268 51.0845 44.3976C51.4606 45.0142 51.423 46.0162 51.423 46.7485V50.8337H50.3322V46.2475C50.3322 45.8235 50.3322 45.2454 50.1441 44.86C49.9184 44.4361 49.3918 44.2049 48.9028 44.2049C48.3386 44.2049 47.812 44.4746 47.3982 44.9371C46.9469 45.5152 46.834 46.1704 46.834 46.9412V50.8337H45.7056V43.3955H46.7588V44.783H46.7964Z" fill="#006937"/>
<path d="M57.8175 47.0953H56.8771C55.7487 47.0953 53.9432 47.2495 53.9432 48.7911C53.9432 49.716 54.6954 50.1014 55.523 50.1014C56.8771 50.1014 57.8175 48.9067 57.8175 47.5963V47.0953ZM57.8175 46.2089V45.9006C57.8175 44.5903 57.2532 44.1278 55.9743 44.1278C55.0716 44.1278 54.2065 44.4361 53.9808 45.4381L52.9276 45.2454C53.1156 43.7039 54.7331 43.2028 56.0496 43.2028C56.8395 43.2028 57.7422 43.2799 58.2688 43.9351C58.8707 44.5903 58.8707 45.5152 58.8707 46.3631V49.215C58.8707 49.7546 58.8707 50.2941 59.0211 50.7566H57.9303L57.8175 49.3692C57.2909 50.4483 56.4257 50.9107 55.2973 50.9107C53.9432 50.9107 52.7771 50.14 52.7771 48.6755C52.7771 47.789 53.3037 46.9797 54.1312 46.6329C54.9588 46.2475 56.012 46.2089 56.9147 46.2089H57.8175Z" fill="#006937"/>
<path d="M61.5413 44.783C61.9926 43.858 62.7825 43.2414 63.7981 43.2414C64.6633 43.2414 65.378 43.6268 65.8293 44.3976C66.2055 45.0142 66.1679 46.0162 66.1679 46.7485V50.8337H65.0394V46.2475C65.0394 45.8235 65.0394 45.2454 64.8514 44.86C64.6257 44.4361 64.0991 44.2049 63.6101 44.2049C63.0082 44.2049 62.5192 44.4746 62.1055 44.9371C61.6541 45.5152 61.5413 46.1704 61.5413 46.9412V50.8337H60.4504V43.3955H61.5036V44.783H61.5413Z" fill="#006937"/>
<path d="M73.2395 48.3671C72.9762 49.8702 71.9982 50.9493 70.456 50.9493C68.3119 50.9493 67.3716 49.0223 67.3716 47.0953C67.3716 45.1684 68.3119 43.2028 70.456 43.2028C72.0358 43.2028 72.9762 44.2434 73.2395 45.785L72.2239 45.9777C72.111 45.0142 71.5468 44.2049 70.4936 44.2049C68.989 44.2049 68.5753 45.8235 68.5753 47.0568C68.5753 48.2515 68.9138 49.9858 70.456 49.9858C71.5468 49.9858 72.0734 49.1765 72.2615 48.1744L73.2395 48.3671Z" fill="#006937"/>
<path d="M74.5559 43.3955H75.6468V50.7951H74.5559V43.3955ZM74.5183 40.8134H75.722V42.0852H74.5183V40.8134Z" fill="#006937"/>
<path d="M81.8908 47.0953H80.9505C79.822 47.0953 78.0165 47.2495 78.0165 48.7911C78.0165 49.716 78.7688 50.1014 79.5963 50.1014C80.9505 50.1014 81.8908 48.9067 81.8908 47.5963V47.0953ZM81.8908 46.2089V45.9006C81.8908 44.5903 81.3266 44.1278 80.0477 44.1278C79.145 44.1278 78.2798 44.4361 78.0541 45.4381L77.0009 45.2454C77.189 43.7039 78.8064 43.2028 80.1229 43.2028C80.9128 43.2028 81.8156 43.2799 82.3422 43.9351C82.944 44.5903 82.944 45.5152 82.944 46.3631V49.215C82.944 49.7546 82.944 50.2941 83.0945 50.7566H82.0037L81.8908 49.3692C81.3642 50.4483 80.4991 50.9107 79.3706 50.9107C78.0165 50.9107 76.8505 50.14 76.8505 48.6755C76.8505 47.789 77.3771 46.9797 78.2046 46.6329C79.0321 46.2475 80.0853 46.2089 80.9881 46.2089H81.8908Z" fill="#006937"/>
<path d="M85.6899 40.8134H84.5991V50.7951H85.6899V40.8134Z" fill="#006937"/>
<path d="M39.8001 54.2637H39.0854V57H38.634V54.2637H38.1074V53.8783H38.634C38.5964 53.2231 38.8221 52.645 39.5744 52.7221L39.9882 52.7606V53.146C39.8753 53.1075 39.7249 53.1075 39.612 53.1075C39.0854 53.1075 39.123 53.4929 39.123 53.8783H39.8377L39.8001 54.2637Z" fill="#006937"/>
<path d="M42.2825 55.1116C42.2825 54.6105 42.0192 54.1481 41.455 54.1481C40.966 54.1481 40.6275 54.6105 40.5898 55.1116H42.2825ZM42.7339 56.1521C42.5458 56.7302 42.0192 57.0771 41.455 57.0771C40.5522 57.0771 40.0632 56.3448 40.0632 55.4584C40.0632 54.6105 40.5522 53.8398 41.455 53.8398C42.3953 53.8398 42.8091 54.6491 42.7715 55.497H40.5522C40.5522 55.7282 40.5522 55.9594 40.6651 56.1907C40.8155 56.499 41.1164 56.6531 41.455 56.6531C41.8311 56.6531 42.132 56.4219 42.2825 56.0365L42.7339 56.1521Z" fill="#006937"/>
<path d="M45.2917 55.1501C45.2917 54.9189 45.2541 54.7262 45.1413 54.5335C44.9908 54.3022 44.7275 54.1866 44.4642 54.1866C44.2009 54.1866 43.9752 54.3408 43.8624 54.572C43.7119 54.8032 43.6743 55.1116 43.6743 55.3813C43.6743 55.8824 43.8248 56.6531 44.4642 56.6531C44.7275 56.6531 44.9908 56.499 45.1413 56.2678C45.2917 56.0751 45.3294 55.8824 45.3294 55.6126L45.2917 55.1501ZM45.2917 52.7992H45.7431V57H45.3294V56.4604C45.1413 56.8458 44.8404 57.0771 44.389 57.0771C43.9752 57.0771 43.6743 56.8844 43.4486 56.5375C43.2229 56.2292 43.1477 55.8438 43.1477 55.4584C43.1477 54.6876 43.5239 53.8398 44.389 53.8398C44.7651 53.8398 45.0661 54.0325 45.2541 54.3408L45.2917 52.7992Z" fill="#006937"/>
<path d="M48.6018 55.1116C48.6018 54.6105 48.3385 54.1481 47.7743 54.1481C47.2853 54.1481 46.9468 54.6105 46.9092 55.1116H48.6018ZM49.0532 56.1521C48.8651 56.7302 48.3385 57.0771 47.7743 57.0771C46.8716 57.0771 46.3826 56.3448 46.3826 55.4584C46.3826 54.6105 46.8716 53.8398 47.7743 53.8398C48.7147 53.8398 49.1284 54.6491 49.0908 55.497H46.8716C46.8716 55.7282 46.8716 55.9594 46.9844 56.1907C47.1349 56.499 47.4358 56.6531 47.7743 56.6531C48.1505 56.6531 48.4514 56.4219 48.6018 56.0365L49.0532 56.1521Z" fill="#006937"/>
<path d="M50.1064 53.8783V54.6105C50.2568 54.1866 50.5201 53.8012 51.0091 53.8012H51.1972V54.2637H51.0844C50.7082 54.2637 50.4825 54.4564 50.2945 54.7647C50.1816 54.9959 50.144 55.1886 50.144 55.4199V57H49.6926V53.8783H50.1064Z" fill="#006937"/>
<path d="M53.454 55.4199H53.0779C52.5889 55.4199 51.8366 55.497 51.8366 56.1136C51.8366 56.499 52.1751 56.6531 52.4761 56.6531C53.0403 56.6531 53.454 56.1521 53.454 55.6126V55.4199ZM53.454 55.073V54.9574C53.454 54.4178 53.2284 54.1866 52.7018 54.1866C52.3256 54.1866 51.9495 54.3022 51.8742 54.7262L51.4229 54.6491C51.4981 53.9939 52.1751 53.8012 52.7394 53.8012C53.0779 53.8012 53.454 53.8398 53.6797 54.1095C53.943 54.3793 53.943 54.7647 53.943 55.1501V56.3448C53.943 56.5761 53.943 56.8073 54.0183 57H53.5669L53.5293 56.4219C53.3036 56.8844 52.9651 57.0771 52.4761 57.0771C51.9118 57.0771 51.4229 56.7688 51.4229 56.1521C51.4229 55.7667 51.6485 55.4584 51.9871 55.3043C52.3256 55.1501 52.777 55.1116 53.1531 55.1116L53.454 55.073Z" fill="#006937"/>
<path d="M55.0339 52.7992H54.5825V57H55.0339V52.7992Z" fill="#006937"/>
<path d="M59.3219 55.9594C59.2091 56.5761 58.7953 57.0385 58.1558 57.0385C57.2531 57.0385 56.877 56.2292 56.877 55.4199C56.877 54.6105 57.2531 53.8012 58.1558 53.8012C58.7953 53.8012 59.2091 54.2252 59.3219 54.8803L58.9081 54.9574C58.8705 54.5335 58.6072 54.1866 58.1935 54.1866C57.554 54.1866 57.3659 54.8803 57.3659 55.3813C57.3659 55.8824 57.5164 56.6146 58.1558 56.6146C58.6072 56.6146 58.8329 56.2677 58.9081 55.8438L59.3219 55.9594Z" fill="#006937"/>
<path d="M60.3752 53.8783V54.6105C60.5256 54.1866 60.7889 53.8012 61.2779 53.8012H61.466V54.2637H61.3532C60.977 54.2637 60.7513 54.4564 60.5633 54.7647C60.4504 54.9959 60.4128 55.1886 60.4128 55.4199V57H59.9614V53.8783H60.3752Z" fill="#006937"/>
<path d="M63.8357 55.1116C63.8357 54.6105 63.5724 54.1481 63.0082 54.1481C62.5192 54.1481 62.1807 54.6105 62.1431 55.1116H63.8357ZM64.2871 56.1521C64.099 56.7302 63.5724 57.0771 63.0082 57.0771C62.1054 57.0771 61.6165 56.3448 61.6165 55.4584C61.6165 54.6105 62.1054 53.8398 63.0082 53.8398C63.9486 53.8398 64.3623 54.6491 64.3247 55.497H62.1054C62.1054 55.7282 62.1054 55.9594 62.2183 56.1907C62.3688 56.499 62.6697 56.6531 63.0082 56.6531C63.3843 56.6531 63.6853 56.4219 63.8357 56.0365L64.2871 56.1521Z" fill="#006937"/>
<path d="M66.9954 55.1501C66.9954 54.9189 66.9577 54.7262 66.8449 54.5335C66.6944 54.3022 66.4311 54.1866 66.1678 54.1866C65.9045 54.1866 65.6788 54.3408 65.566 54.572C65.4155 54.8032 65.3779 55.1116 65.3779 55.3813C65.3779 55.8824 65.4908 56.6531 66.1678 56.6531C66.4311 56.6531 66.6944 56.499 66.8449 56.2678C66.9954 56.0751 67.033 55.8824 67.033 55.6126V55.1501H66.9954ZM66.9954 52.7992H67.4467V57H67.033V56.4604C66.8449 56.8458 66.544 57.0771 66.0926 57.0771C65.6788 57.0771 65.3779 56.8844 65.1522 56.5375C64.9265 56.2292 64.8513 55.8438 64.8513 55.4584C64.8513 54.6876 65.2275 53.8398 66.0926 53.8398C66.4688 53.8398 66.7697 54.0325 66.9577 54.3408V52.7992H66.9954Z" fill="#006937"/>
<path d="M68.199 53.8783H68.6504V57H68.199V53.8783ZM68.1614 52.7992H68.688V53.3387H68.1614V52.7992Z" fill="#006937"/>
<path d="M71.0202 57.0385L70.5689 57.0771C69.8918 57.0771 69.7037 56.6917 69.7037 56.0751V54.2637H69.1771V53.8783H69.7037V53.1075L70.1551 53.069V53.8783H70.8322V54.2637H70.1551V56.1521C70.1551 56.499 70.2679 56.6917 70.6441 56.6917L71.0202 56.6531V57.0385Z" fill="#006937"/>
<path d="M74.5559 57V56.3834C74.4055 56.7688 74.0293 57.0771 73.6156 57.0771C73.3147 57.0771 73.0137 56.9615 72.8257 56.7302C72.6376 56.4604 72.6 56.1136 72.6 55.8053V53.9168H73.0514V55.8053C73.0514 55.998 73.0514 56.2292 73.1642 56.3834C73.2394 56.5375 73.4651 56.6917 73.6532 56.6917C73.9165 56.6917 74.1046 56.5761 74.2926 56.3834C74.4807 56.1521 74.5183 55.8824 74.5183 55.6126V53.9554H74.9697V57.0771H74.5559V57Z" fill="#006937"/>
<path d="M76.2862 54.4564C76.4743 54.071 76.8128 53.8012 77.2266 53.8012C77.6027 53.8012 77.9036 53.9554 78.0917 54.3022C78.2422 54.572 78.2422 54.9959 78.2422 55.3043V57.0385H77.7908V55.1116C77.7908 54.9189 77.7908 54.6876 77.7156 54.5335C77.6027 54.3408 77.377 54.2637 77.189 54.2637C76.9633 54.2637 76.7376 54.3793 76.5495 54.572C76.3614 54.8032 76.3238 55.1116 76.3238 55.4199V57.0385H75.8724V53.9168H76.3238V54.4564H76.2862Z" fill="#006937"/>
<path d="M78.9945 53.8783H79.4459V57H78.9945V53.8783ZM78.9569 52.7992H79.4835V53.3387H78.9569V52.7992Z" fill="#006937"/>
<path d="M82.1165 56.2292C82.2294 55.998 82.267 55.6897 82.267 55.4199C82.267 55.1116 82.2294 54.8032 82.0789 54.572C81.9285 54.3408 81.7028 54.1866 81.4395 54.1866C81.1386 54.1866 80.8753 54.3408 80.7624 54.6105C80.6496 54.8418 80.6119 55.1501 80.6119 55.3813C80.6119 55.6511 80.6496 55.998 80.8 56.2292C80.9129 56.4604 81.1762 56.6146 81.4771 56.6146C81.7028 56.6531 81.9661 56.499 82.1165 56.2292ZM80.0477 55.4199C80.0477 54.572 80.5367 53.8012 81.4395 53.8012C82.3422 53.8012 82.756 54.6105 82.756 55.4199C82.756 56.3063 82.267 57.0385 81.3642 57.0385C80.4615 57.0771 80.0477 56.2292 80.0477 55.4199Z" fill="#006937"/>
<path d="M83.7716 54.4564C83.9596 54.071 84.2982 53.8012 84.7119 53.8012C85.0881 53.8012 85.389 53.9554 85.5771 54.3022C85.7275 54.572 85.7275 54.9959 85.7275 55.3043V57.0385H85.2761V55.1116C85.2761 54.9189 85.2761 54.6876 85.2009 54.5335C85.0881 54.3408 84.8624 54.2637 84.6743 54.2637C84.4486 54.2637 84.2229 54.3793 84.0349 54.572C83.8468 54.8032 83.8092 55.1116 83.8092 55.4199V57.0385H83.3578V53.9168H83.8092V54.4564H83.7716Z" fill="#006937"/>
<path d="M15.0119 39.3489C13.5073 40.3509 12.9431 41.5842 12.7927 41.854C12.7927 41.854 13.056 40.1197 14.5982 39.2333C16.0651 38.4239 17.344 38.6166 17.344 38.6166C17.344 38.6166 16.1028 38.6166 15.0119 39.3489ZM10.1972 47.4037C9.21927 47.4037 8.57982 46.787 8.57982 45.785C8.57982 44.8215 9.25688 44.1663 10.1972 44.1663C11.0624 44.1663 11.8147 44.86 11.8147 45.785C11.8147 46.7485 11.1752 47.4037 10.1972 47.4037ZM8.84312 50.5254L10.5734 50.641H11.2881C11.8523 50.641 12.8303 50.7566 12.8303 51.5274C12.8303 51.9899 12.6046 52.2211 12.1908 52.4138C11.7018 52.645 10.8743 52.7221 10.3101 52.7221C9.5578 52.7221 8.05321 52.5294 8.05321 51.5274C8.05321 50.9878 8.42936 50.7181 8.84312 50.5254ZM12.3413 42.1623C12.3413 42.1623 12.2284 42.2394 11.9651 42.5862C11.8147 42.7789 11.5138 43.2028 11.3257 43.4341C10.9495 43.3185 10.5734 43.2414 10.1972 43.2414C8.73028 43.2414 7.41376 44.1663 7.41376 45.7465C7.41376 46.5558 7.75229 47.211 8.35413 47.712C7.75229 47.9817 7.37615 48.3286 7.37615 49.0223C7.37615 49.5619 7.67706 49.9087 8.09083 50.1785C7.41376 50.4097 7 50.9108 7 51.6815C7 52.4909 7.52661 53.0304 8.24128 53.3002C8.88073 53.5314 9.70826 53.6085 10.3477 53.6085C11.7394 53.6085 13.9211 53.3773 13.9211 51.4888C13.9211 50.7566 13.4697 50.1014 12.8303 49.8702C12.2661 49.6389 11.3257 49.6389 10.7239 49.6004C10.1972 49.6004 9.52018 49.6004 9.03119 49.4848C8.65505 49.3692 8.42936 49.215 8.42936 48.8296C8.42936 48.4442 8.84312 48.1359 9.18165 48.1359C9.2945 48.1359 9.52018 48.213 9.63303 48.213C9.8211 48.2515 9.97156 48.2515 10.1596 48.2515C10.7991 48.2515 11.4761 48.0974 12.0028 47.6734C12.5294 47.2495 12.9431 46.5558 12.9431 45.8235C12.9431 45.1684 12.6798 44.5132 12.2284 44.0122C12.1532 43.9351 12.078 43.858 12.0028 43.7809C12.078 43.5882 12.2284 43.2028 12.4541 42.8174C12.7174 42.3935 12.8679 42.355 12.8679 42.355C13.9211 42.4706 15.7266 41.931 16.4789 40.428C17.2312 38.9249 19.0743 38.4239 19.0743 38.4239C11.6642 36.5355 11.9275 41.43 12.3413 42.1623Z" fill="#006937"/>
<path d="M87.9845 41.6227H88.1725C88.3606 41.6227 88.4358 41.5842 88.4358 41.4686C88.4358 41.3529 88.3982 41.3144 88.2101 41.3144H88.0221L87.9845 41.6227ZM87.9845 42.2008H87.834V41.1988H88.2101C88.4358 41.1988 88.5487 41.2759 88.5487 41.5071C88.5487 41.6998 88.4358 41.7769 88.2854 41.7769L88.5863 42.2394H88.4358L88.1725 41.8154H87.9845V42.2008ZM88.1349 40.9675C87.7212 40.9675 87.4202 41.2759 87.4202 41.6998C87.4202 42.1237 87.7212 42.4321 88.1349 42.4321C88.5111 42.4321 88.8496 42.1237 88.8496 41.6998C88.8496 41.2759 88.5487 40.9675 88.1349 40.9675ZM88.1349 40.8134C88.5863 40.8134 89.0001 41.1988 89.0001 41.6998C89.0001 42.2008 88.5863 42.5862 88.1349 42.5862C87.6459 42.5862 87.2698 42.2008 87.2698 41.6998C87.2698 41.1988 87.6835 40.8134 88.1349 40.8134Z" fill="#006937"/>
</g>
<defs>
<clipPath id="clip0_1_4612">
<rect width="82" height="19" fill="white" transform="translate(7 38)"/>
</clipPath>
</defs>
</svg>
