<svg width="96" height="96" viewBox="0 0 96 96" fill="none" xmlns="http://www.w3.org/2000/svg">
<circle cx="48" cy="48" r="47" fill="white" stroke="white" stroke-width="2"/>
<path fill-rule="evenodd" clip-rule="evenodd" d="M65.7119 58.7754L71.5089 69.4128H59.9484L55.4785 60.9263C58.7489 60.068 62.2247 59.3232 65.7119 58.7754ZM43.173 58.2117L42.5613 59.4296C41.4428 60.2576 40.4609 61.0248 39.8154 61.5782L39.3991 61.9371L40.3848 63.7676L37.5538 69.4128H25.6377L29.2709 62.6445C34.2806 60.6886 38.8698 59.31 43.173 58.2117ZM48.394 27L63.4211 54.5729C60.4126 55.1072 57.3246 55.7803 54.2843 56.5678C55.2446 56.0025 56.0834 55.5359 56.5696 55.2816L56.986 55.0662L56.6091 51.04L55.8706 51.1537C54.1813 51.4228 52.4892 51.7018 50.7806 52.0072L48.4791 47.6336L45.7998 52.9749C41.6057 53.8636 37.2407 54.9951 32.5158 56.5969L48.394 27Z" fill="#09875F"/>
<path fill-rule="evenodd" clip-rule="evenodd" d="M77 53.8603C68.7369 53.9232 58.0881 55.9751 49.5454 58.6104C51.7517 57.2404 55.0247 55.2961 56.2434 54.665L55.979 51.8323C44.9929 53.5851 33.873 55.7807 19 62.873L20.4223 65.7655C31.3598 60.462 40.3128 58.066 48.4361 56.2384C45.7891 57.8656 41.9234 60.6893 40.2824 62.0982L41.8232 64.9698C50.3507 60.9017 65.1386 57.1896 76.8359 57.1088L77 53.8603Z" fill="#09875F"/>
</svg>
