<svg width="96" height="96" viewBox="0 0 96 96" fill="none" xmlns="http://www.w3.org/2000/svg">
<circle cx="48" cy="48" r="47" fill="white" stroke="white" stroke-width="2"/>
<g clip-path="url(#clip0_1_7039)">
<path d="M34.5247 54.7565H34.6628C34.7604 54.7565 34.8218 54.8069 34.8218 54.9352C34.8218 55.0229 34.7845 55.1347 34.6628 55.1347H34.5247V54.7565ZM34.5247 55.3265H34.6025C34.8415 55.3265 34.8163 55.4635 34.8163 55.6235C34.8163 55.7145 34.8163 55.8044 34.8568 55.8866H35.1572C35.1287 55.8307 35.1232 55.5764 35.1232 55.4887C35.1232 55.2465 34.9226 55.2289 34.8568 55.2257V55.2202C35.0574 55.1906 35.1287 55.0612 35.1287 54.8892C35.1287 54.6579 34.9949 54.5318 34.7845 54.5318H34.2189V55.8877H34.5258L34.5247 55.3265ZM34.6716 54.0496C34.0249 54.0496 33.5054 54.5658 33.5054 55.2136C33.5054 55.8614 34.0249 56.3831 34.6716 56.3831C35.3172 56.3831 35.8334 55.8614 35.8334 55.2136C35.8334 54.5658 35.3172 54.0496 34.6716 54.0496ZM34.6716 56.165C34.4198 56.1644 34.1784 56.0639 34.0007 55.8855C33.8229 55.7071 33.7232 55.4654 33.7235 55.2136C33.7318 54.9684 33.8351 54.7361 34.0115 54.5656C34.1879 54.3952 34.4236 54.2999 34.6689 54.2999C34.9142 54.2999 35.1499 54.3952 35.3262 54.5656C35.5026 54.7361 35.6059 54.9684 35.6142 55.2136C35.6142 55.4644 35.5152 55.7051 35.3387 55.8833C35.1621 56.0614 34.9224 56.1627 34.6716 56.165Z" fill="#F58025"/>
<path d="M27.6513 39.1188C25.3569 39.1188 23.1564 40.0302 21.5339 41.6527C19.9115 43.2751 19 45.4756 19 47.7701C19 50.0646 19.9115 52.2651 21.5339 53.8875C23.1564 55.51 25.3569 56.4214 27.6513 56.4214C29.946 56.4214 32.1466 55.5099 33.7691 53.8874C35.3917 52.2648 36.3032 50.0642 36.3032 47.7696C36.3032 45.4749 35.3917 43.2743 33.7691 41.6518C32.1466 40.0292 29.946 39.1177 27.6513 39.1177M22.9985 43.3146L23.0018 43.023C23.0051 42.0716 23.4007 41.2726 23.9444 41.129C24.6547 40.9405 25.6126 41.7866 26.5717 43.4472L27.4639 44.9926C27.2041 45.0365 26.9849 45.2097 26.815 45.5056L23.9038 50.5498C23.4775 51.2841 23.1837 51.9462 23.0171 52.5249V52.4975C22.9875 51.1647 22.9612 48.4924 22.9985 43.3146ZM26.119 54.0232L25.8647 54.169C25.0383 54.6425 24.1516 54.6995 23.7537 54.2994C23.2352 53.7788 23.4884 52.526 24.4475 50.8654L25.3419 49.3167C25.5129 49.5216 25.7694 49.6236 26.1092 49.6236H31.9326C32.7821 49.6236 33.5022 49.549 34.0864 49.4044C34.0776 49.4087 34.0711 49.412 34.0623 49.4186C32.9246 50.1091 30.6206 51.4716 26.119 54.0243M31.9315 48.9944H30.1449C30.2359 48.7445 30.1975 48.4694 30.0287 48.1768L27.1175 43.1337C26.6923 42.396 26.267 41.8118 25.8483 41.3789C25.857 41.3827 25.8654 41.3871 25.8735 41.392C27.0397 42.031 29.3678 43.3431 33.831 45.966L34.0864 46.1139C34.9096 46.5951 35.4017 47.335 35.2548 47.8786C35.063 48.5867 33.8529 48.9944 31.9337 48.9944" fill="#F58025"/>
<path d="M44.3434 47.5728H43.4753V43.468C43.4753 42.5035 43.4753 42.3566 45.3156 42.3566C47.3828 42.3566 48.5205 43.2861 48.5205 44.974C48.5205 47.2637 46.4084 47.5728 44.3434 47.5728ZM44.6207 41.3822H38.9058V41.9379L39.0187 41.9511C41.008 42.1922 41.2108 42.4542 41.2108 43.4691V54.0463H43.4753V48.5462H44.3894C46.5421 48.5462 51.0207 48.5462 51.0207 44.9729C51.0207 41.3811 46.8578 41.3822 44.6207 41.3822Z" fill="#0069AA"/>
<path d="M63.8361 41.3832H62.5055V51.2534L55.4204 41.3832H50.613V41.9367L50.7248 41.951C52.6693 42.2042 52.917 42.2908 52.917 43.6882V54.0462H54.377V43.4285L62.0144 54.044H63.9644V41.3832H63.8361ZM65.7016 47.2987C65.7016 50.7558 67.8105 54.2446 72.5236 54.2446C74.7618 54.2446 75.8645 53.9979 76.8882 53.7239L76.9835 53.6987V52.6596L76.8093 52.7068C75.722 52.9983 74.6522 53.1594 73.7984 53.1594C70.0322 53.1594 68.2018 51.0868 68.2018 46.8208C68.2018 43.9688 69.5576 42.2677 71.8287 42.2677C73.3522 42.2677 74.2445 42.8662 74.4845 44.0456L74.5053 44.1475H77L76.9814 44.0028C76.897 43.3419 76.2853 41.1826 71.9679 41.1826C67.8094 41.1826 65.7016 43.24 65.7016 47.2987Z" fill="#0069AA"/>
</g>
<defs>
<clipPath id="clip0_1_7039">
<rect width="58" height="17.5392" fill="white" transform="translate(19 39)"/>
</clipPath>
</defs>
</svg>
