<svg width="96" height="96" viewBox="0 0 96 96" fill="none" xmlns="http://www.w3.org/2000/svg">
<circle cx="48" cy="48" r="47" fill="white" stroke="white" stroke-width="2"/>
<g clip-path="url(#clip0_1_2033)">
<mask id="mask0_1_2033" style="mask-type:luminance" maskUnits="userSpaceOnUse" x="20" y="36" width="12" height="15">
<path d="M20.229 36.0049H31.3068V50.6679H20.229V36.0049Z" fill="white"/>
</mask>
<g mask="url(#mask0_1_2033)">
<path d="M31.07 48.8109C27.9226 43.8134 24.6331 36.3639 24.5262 36.2034C24.4558 36.0779 24.3577 35.9854 24.2339 36.0084C24.082 36.0539 24.0543 36.2594 24.0242 36.3889C23.8363 37.1559 21.6867 46.9894 20.2607 50.3239C20.0441 50.8269 20.9861 50.6624 21.4959 50.5489C22.0363 50.4309 25.8974 49.4074 26.6796 49.2839C27.2477 49.1949 29.6833 49.5664 30.3271 49.6559C30.9365 49.7384 31.1695 49.7524 31.2453 49.6419C31.4094 49.3819 31.2108 49.0334 31.07 48.8109Z" fill="#FAA928"/>
</g>
<path d="M20.1168 47.8643C19.8036 47.3943 19.2729 48.3893 19.017 48.7733C17.9876 50.3143 17.6764 48.8728 17.12 49.4183C16.4591 50.0658 16.4548 51.2908 15.5594 51.8268C14.5582 52.4243 14.6825 51.0598 13.7313 51.5978C13.2263 51.8833 12.2426 53.5923 11.4454 54.0438C10.8899 54.3573 10.9812 53.4938 10.2931 53.7663C9.57793 54.0488 9.09675 55.0978 8.70103 55.5098C7.9392 56.3063 6.04847 56.2733 6.10819 57.1098C6.20725 58.4748 8.67286 57.8998 9.24484 57.8008C11.9722 57.3278 14.8597 56.0918 16.9374 53.9273C17.8536 52.9738 18.4596 52.0323 19.1287 50.8473C19.5463 50.0873 20.2785 48.1278 20.1168 47.8643Z" fill="#0075BE"/>
<path d="M30.9159 54.0963C27.6253 52.3418 23.9886 51.7053 21.8245 51.4693C20.5451 51.3758 20.6514 51.4943 20.7966 51.5258C22.4023 51.8628 26.0696 52.6453 29.4457 54.6568C29.5379 54.7118 29.7516 54.8193 30.056 54.7103C30.4211 54.5903 30.5299 54.5618 30.9601 54.4288C31.0455 54.4023 31.2349 54.2673 30.9164 54.0963" fill="#7EA43F"/>
<path d="M28.2498 55.0811C24.9524 53.0211 21.6468 52.1946 20.1979 51.8981C20.0804 51.8746 19.7697 51.8321 19.6711 52.0086C19.5789 52.1926 19.7138 52.2321 19.809 52.2586C21.3404 52.8151 24.3406 54.2081 26.125 55.7776C26.2173 55.8476 26.43 56.0116 26.6849 55.8996C27.3273 55.6916 27.7045 55.5716 28.2241 55.3986C28.3323 55.3636 28.4872 55.2461 28.2498 55.0811Z" fill="#7EA43F"/>
<path d="M33.8413 53.2913C30.9105 52.2638 26.8557 51.2783 22.9917 51.1423C22.6543 51.1263 22.3061 51.1738 22.6329 51.2248C24.8344 51.5663 28.8066 52.2163 31.7889 53.8718C31.9151 53.9433 32.2259 54.0668 32.4755 53.9998C32.8022 53.9093 33.4616 53.7388 33.8709 53.6248C34.0957 53.5568 34.0768 53.3748 33.8413 53.2913Z" fill="#7EA43F"/>
<path d="M19.6677 52.794C19.4637 52.7075 19.2894 52.8205 19.22 52.9835C19.0437 53.3925 18.7461 54.172 18.3946 54.831C18.313 54.9575 18.3572 55.022 18.4344 55.091C18.7922 55.4155 19.9716 56.2795 21.437 57.103C21.9162 57.366 22.2862 57.247 22.4246 57.206C23.1812 56.9924 23.9357 56.7713 24.6882 56.543C24.9514 56.449 24.8742 56.2545 24.765 56.138C23.1253 54.5655 20.6975 53.1155 19.6677 52.794Z" fill="#7EA43F"/>
<path d="M49.6387 59.7782C49.4513 59.9337 49.2537 59.9992 48.9862 59.9992C48.3176 59.9992 47.849 59.4212 47.849 58.5142C47.849 57.5802 48.2957 56.9712 48.9862 56.9712C49.2037 56.9712 49.4222 57.0282 49.6188 57.1347V57.7012C49.4134 57.5762 49.278 57.5292 49.1386 57.5292C48.7725 57.5292 48.4962 57.8267 48.4962 58.4742C48.4962 59.1007 48.7108 59.4407 49.1056 59.4407C49.2707 59.4407 49.4586 59.3477 49.6387 59.2042V59.7782Z" fill="#0075BE"/>
<path d="M51.2856 59.9252V56.9712H52.2344C52.8297 56.9712 53.1705 57.3122 53.1705 57.7982C53.1705 58.1297 53.0254 58.3412 52.6801 58.4882C52.9399 58.6362 53.0428 59.2972 53.29 59.9252H52.6054L52.4481 59.3702C52.265 58.7317 52.2208 58.6797 51.9445 58.6797V59.9252H51.2856ZM52.1538 58.1692C52.3747 58.1692 52.5112 58.0472 52.5112 57.8152C52.5112 57.5812 52.3874 57.4812 52.1436 57.4812H51.9445V58.1692H52.1538Z" fill="#0075BE"/>
<path d="M54.7922 56.9712H56.4713V57.4817H55.4468V58.1697H56.3994V58.6797H55.4468V59.4137H56.5101V59.9252H54.7922V56.9712Z" fill="#0075BE"/>
<path d="M58.3732 59.9252V56.9712H59.2171C60.1105 56.9712 60.4494 57.7062 60.4494 58.4242C60.4494 59.1022 60.1318 59.9252 59.2501 59.9252H58.3732ZM59.1758 59.4277C59.6424 59.4277 59.789 59.0517 59.789 58.4592C59.789 57.9007 59.656 57.4697 59.2083 57.4697H59.0214V59.4277H59.1758Z" fill="#0075BE"/>
<mask id="mask1_1_2033" style="mask-type:luminance" maskUnits="userSpaceOnUse" x="6" y="36" width="84" height="24">
<path d="M6.03491 60H89.8018V36H6.0354L6.03491 60Z" fill="white"/>
</mask>
<g mask="url(#mask1_1_2033)">
<path d="M62.1659 59.9252H62.8102V56.9712H62.1659V59.9252Z" fill="#0075BE"/>
</g>
<mask id="mask2_1_2033" style="mask-type:luminance" maskUnits="userSpaceOnUse" x="6" y="36" width="84" height="24">
<path d="M6.03491 60H89.8018V36H6.0354L6.03491 60Z" fill="white"/>
</mask>
<g mask="url(#mask2_1_2033)">
<path d="M65.1044 57.4812H64.4581V56.9712H66.3906V57.4812H65.7448V59.9252H65.1039L65.1044 57.4812Z" fill="#0075BE"/>
</g>
<mask id="mask3_1_2033" style="mask-type:luminance" maskUnits="userSpaceOnUse" x="6" y="36" width="84" height="24">
<path d="M6.03491 60H89.8018V36H6.0354L6.03491 60Z" fill="white"/>
</mask>
<g mask="url(#mask3_1_2033)">
<path d="M70.9067 57.0454V59.0524C70.9067 59.2824 71.0286 59.4474 71.2593 59.4474C71.5098 59.4474 71.6113 59.2824 71.6113 59.0174V57.0454H72.2614V58.9629C72.2614 59.6029 71.939 59.9994 71.2593 59.9994C70.6625 59.9994 70.2566 59.6964 70.2566 58.9714V57.0449L70.9067 57.0454Z" fill="#0075BE"/>
</g>
<mask id="mask4_1_2033" style="mask-type:luminance" maskUnits="userSpaceOnUse" x="6" y="36" width="84" height="24">
<path d="M6.03491 60H89.8018V36H6.0354L6.03491 60Z" fill="white"/>
</mask>
<g mask="url(#mask4_1_2033)">
<path d="M74.0516 56.9712H74.6576L75.4335 58.6402H75.4403V56.9712H76.056V59.9252H75.4893L74.6736 58.1832H74.6639V59.9252H74.0511L74.0516 56.9712Z" fill="#0075BE"/>
</g>
<mask id="mask5_1_2033" style="mask-type:luminance" maskUnits="userSpaceOnUse" x="6" y="36" width="84" height="24">
<path d="M6.03491 60H89.8018V36H6.0354L6.03491 60Z" fill="white"/>
</mask>
<g mask="url(#mask5_1_2033)">
<path d="M77.8467 59.9252H78.491V56.9712H77.8467V59.9252Z" fill="#0075BE"/>
</g>
<mask id="mask6_1_2033" style="mask-type:luminance" maskUnits="userSpaceOnUse" x="6" y="36" width="84" height="24">
<path d="M6.03491 60H89.8018V36H6.0354L6.03491 60Z" fill="white"/>
</mask>
<g mask="url(#mask6_1_2033)">
<path d="M80.0667 58.4562C80.0667 57.4552 80.6275 56.9712 81.1766 56.9712C81.6986 56.9712 82.2861 57.3822 82.2861 58.4882C82.2861 59.6402 81.6549 59.9992 81.1766 59.9992C80.6304 59.9992 80.0667 59.5622 80.0667 58.4562ZM80.7183 58.4837C80.7183 59.0702 80.8256 59.4212 81.1766 59.4212C81.4723 59.4212 81.6335 59.1912 81.6335 58.4837C81.6335 57.9737 81.5553 57.5502 81.1771 57.5502C80.829 57.5502 80.7183 57.9042 80.7183 58.4837Z" fill="#0075BE"/>
</g>
<mask id="mask7_1_2033" style="mask-type:luminance" maskUnits="userSpaceOnUse" x="6" y="36" width="84" height="24">
<path d="M6.03491 60H89.8018V36H6.0354L6.03491 60Z" fill="white"/>
</mask>
<g mask="url(#mask7_1_2033)">
<path d="M83.8617 56.9712H84.4677L85.2445 58.6402H85.2528V56.9712H85.8665V59.9252H85.2994L84.4851 58.1832H84.4764V59.9252H83.8617V56.9712Z" fill="#0075BE"/>
</g>
<mask id="mask8_1_2033" style="mask-type:luminance" maskUnits="userSpaceOnUse" x="6" y="36" width="84" height="24">
<path d="M6.03491 60H89.8018V36H6.0354L6.03491 60Z" fill="white"/>
</mask>
<g mask="url(#mask8_1_2033)">
<path d="M58.5524 45.8805H56.5287V51.143C56.5287 52.7605 57.2764 53.0295 57.6823 53.0295C58.0067 53.0295 58.4709 52.9245 58.9166 52.677L59.1603 53.1945L57.3798 54.106C57.0749 54.273 56.8719 54.313 56.7107 54.313C55.1924 54.313 54.4423 53.5675 54.4423 51.848V45.8805H53.075V44.9275H54.4423V42.8875L56.5287 41.981V44.9275H58.5524V45.8805Z" fill="#0075BE"/>
</g>
<mask id="mask9_1_2033" style="mask-type:luminance" maskUnits="userSpaceOnUse" x="6" y="36" width="84" height="24">
<path d="M6.03491 60H89.8018V36H6.0354L6.03491 60Z" fill="white"/>
</mask>
<g mask="url(#mask9_1_2033)">
<path d="M69.3981 53.4836H68.9879C68.444 53.4836 68.3236 53.3386 68.3236 52.4686V44.9351L64.8777 45.3071V45.8051L65.4409 45.9076C66.127 46.0316 66.2469 46.1151 66.2469 46.8821V52.0161C65.6026 52.5966 64.9379 52.8651 64.3339 52.8651C63.5677 52.8651 62.7816 52.4101 62.7816 50.8776V44.9351L59.5182 45.3071V45.8051L60.062 45.9291C60.5048 46.0116 60.7058 46.1151 60.7058 46.8821V51.5196C60.7058 53.3226 61.7138 54.3136 63.3254 54.3136C63.8896 54.3136 64.3737 54.1071 64.9991 53.7146C65.4409 53.4246 65.8439 53.1141 66.2469 52.8026V54.0721L69.3981 54.0621V53.4836Z" fill="#0075BE"/>
</g>
<mask id="mask10_1_2033" style="mask-type:luminance" maskUnits="userSpaceOnUse" x="6" y="36" width="84" height="24">
<path d="M6.03491 60H89.8018V36H6.0354L6.03491 60Z" fill="white"/>
</mask>
<g mask="url(#mask10_1_2033)">
<path d="M71.5613 46.8861C71.5613 46.1171 71.3583 46.0126 70.9155 45.9306L70.3746 45.8056V45.3061L73.6292 44.9331L73.6268 46.8861H73.6817C74.1662 46.0961 74.9684 44.7891 75.955 44.7891C76.6775 44.7891 77.2014 45.4111 77.2014 45.9931C77.2014 46.5116 76.8387 47.1151 76.3779 47.3016C76.1546 47.3846 75.9142 47.3431 75.7938 47.2176C75.5112 46.9276 75.1898 46.7601 74.8688 46.7601C74.5265 46.7601 73.6219 47.9246 73.6219 47.9246V52.1216C73.6219 53.2641 73.7419 53.3881 75.2102 53.5131V54.0931H70.2566V53.5131C71.4423 53.3881 71.5613 53.2641 71.5613 52.1216V46.8866" fill="#0075BE"/>
</g>
<mask id="mask11_1_2033" style="mask-type:luminance" maskUnits="userSpaceOnUse" x="6" y="36" width="84" height="24">
<path d="M6.03491 60H89.8018V36H6.0354L6.03491 60Z" fill="white"/>
</mask>
<g mask="url(#mask11_1_2033)">
<path d="M86.0796 53.1931L84.0024 54.3151C83.076 54.2751 82.6725 53.5266 82.572 53.0061C81.7252 53.5261 80.6371 54.3151 80.2336 54.3151C78.7235 54.3151 77.7748 53.0061 77.7748 51.7991C77.7748 50.7806 78.239 50.0721 79.2868 49.6146C80.2749 49.1996 81.8854 48.5961 82.5322 48.1801V47.6181C82.5322 46.3896 82.0078 45.8291 81.0804 45.8291C80.7575 45.8291 80.4744 45.9946 80.2948 46.1826C79.9714 46.4536 79.7694 46.9316 79.6092 47.7216C79.548 48.0126 79.2868 48.1801 78.9644 48.1801C78.5211 48.1801 77.936 47.7641 77.936 47.2641C77.936 46.9741 78.1375 46.6406 78.5604 46.3071C79.1858 45.8496 80.4346 45.0811 81.9252 44.7891C82.6322 44.7891 83.2557 44.9771 83.6601 45.2881C84.4263 45.8926 84.5069 46.5781 84.5069 47.3071V51.7581C84.5069 52.5901 84.789 52.9226 85.0706 52.9226C85.3129 52.9226 85.6149 52.7976 85.8766 52.6736L86.0796 53.1931ZM82.5322 48.9491C82.1078 49.1571 81.3023 49.5736 80.9396 49.7816C80.2744 50.1566 79.9714 50.5941 79.9714 51.3426C79.9714 52.4256 80.657 52.9246 81.1804 52.9246C81.5436 52.9246 82.069 52.6761 82.5322 52.2596V48.9491Z" fill="#0075BE"/>
</g>
<mask id="mask12_1_2033" style="mask-type:luminance" maskUnits="userSpaceOnUse" x="6" y="36" width="84" height="24">
<path d="M6.03491 60H89.8018V36H6.0354L6.03491 60Z" fill="white"/>
</mask>
<g mask="url(#mask12_1_2033)">
<path d="M41.0921 43.825H41.1532L42.723 48.3805H39.5218L41.0921 43.825ZM47.9757 40.1V40.639C49.2847 40.762 49.3255 40.762 49.3255 41.983V52.1275C49.3255 53.1765 49.2206 53.365 48.2243 53.484L48.2258 53.482C48.1466 53.4915 47.7208 53.4795 47.7208 53.4795C46.789 53.3505 46.7895 53.0835 46.1651 51.4025C45.4406 49.444 42.2467 40.3945 42.2467 40.3945L41.4145 40.569L37.3475 51.4025C36.6425 53.265 36.423 53.349 35.1742 53.5125V54.092H39.6437V53.513L39.08 53.4515C38.1933 53.349 38.0321 53.0785 38.3948 51.9815C38.6765 51.112 39.0387 49.9535 39.3004 49.332H43.0246C43.448 50.4085 43.9316 51.692 44.1316 52.3125C44.3734 53.1005 44.3331 53.3065 43.5684 53.431L43.0051 53.513V54.092H52.7875V53.513C51.4789 53.3895 51.3983 53.265 51.3983 52.1275V39.396L47.9757 40.1Z" fill="#0075BE"/>
</g>
<mask id="mask13_1_2033" style="mask-type:luminance" maskUnits="userSpaceOnUse" x="6" y="36" width="84" height="24">
<path d="M6.03491 60H89.8018V36H6.0354L6.03491 60Z" fill="white"/>
</mask>
<g mask="url(#mask13_1_2033)">
<path d="M88.1927 41.981C88.6201 41.982 89.0296 42.1575 89.3316 42.4689C89.6336 42.7804 89.8034 43.2024 89.8038 43.6425C89.8035 44.0826 89.6338 44.5047 89.3318 44.8161C89.0298 45.1276 88.6201 45.303 88.1927 45.304C87.7653 45.303 87.3557 45.1276 87.0537 44.8161C86.7517 44.5047 86.5819 44.0826 86.5817 43.6425C86.5819 43.2023 86.7517 42.7802 87.0537 42.4688C87.3557 42.1573 87.7653 41.9819 88.1927 41.981ZM88.1927 42.303C87.5188 42.303 86.974 42.8645 86.974 43.6425C86.974 44.42 87.5188 44.9815 88.1927 44.9815C88.8662 44.9815 89.4105 44.42 89.4105 43.6425C89.4105 42.8645 88.8667 42.303 88.1927 42.303ZM87.5722 42.695H88.2505C88.688 42.695 88.9249 42.851 88.9249 43.2475C88.9249 43.57 88.7453 43.7275 88.4471 43.7545L88.9375 44.5795H88.5899L88.117 43.7685H87.9116V44.5795H87.5722V42.695ZM87.9116 43.5025H88.2117C88.4127 43.5025 88.5875 43.4745 88.5875 43.2205C88.5875 42.9985 88.3908 42.9615 88.2155 42.9615H87.9116V43.5025Z" fill="#0075BE"/>
</g>
</g>
<defs>
<clipPath id="clip0_1_2033">
<rect width="84" height="24" fill="white" transform="translate(6 36)"/>
</clipPath>
</defs>
</svg>
