<svg width="96" height="96" viewBox="0 0 96 96" fill="none" xmlns="http://www.w3.org/2000/svg">
<circle cx="48" cy="48" r="47" fill="white" stroke="white" stroke-width="2"/>
<path d="M42.2974 47.7742L27.9289 72.6838L19 57.4585L24.5814 47.7742L19 38.2253L27.7871 23L42.2974 47.7742Z" fill="#F7D60B"/>
<path d="M75.0767 52.2027L77.7291 47.7742L75.0767 43.2102C73.403 40.4432 70.6158 38.0899 65.3109 38.0899H54.4317L60.0132 47.7742L54.4317 57.4585L65.3109 57.323C70.6087 57.323 73.403 54.9697 75.0767 52.2027Z" fill="#738893"/>
<path d="M54.4317 38.0832H65.311C70.6087 38.0832 73.403 40.4366 75.0767 43.2035C75.2186 43.339 75.2186 43.4816 75.3533 43.4816L66.4244 28.2634C64.3323 24.8047 61.2614 23.0077 56.3821 23.0077H34.2052L43.1341 38.0832H54.4317ZM65.311 57.3235L54.4317 57.459H43.2688L34.347 72.6843H56.5239C61.4032 72.6843 64.4741 70.7446 66.5662 67.1504L75.3533 51.9251L75.0767 52.2032C73.403 54.9702 70.6087 57.3235 65.311 57.3235Z" fill="#0B2A45"/>
</svg>
