<svg width="96" height="96" viewBox="0 0 96 96" fill="none" xmlns="http://www.w3.org/2000/svg">
<circle cx="48" cy="48" r="47" fill="white" stroke="white" stroke-width="2"/>
<path d="M13.0096 43.9892C13.5421 43.4566 14.4192 43.4566 14.9518 43.9892L15.1397 44.1771L11.3181 47.9988L15.1397 51.8204L14.9518 52.0084C14.4192 52.5409 13.5421 52.5409 13.0096 52.0084L9 47.9988L13.0096 43.9892ZM15.312 41.6868L15.124 41.8747L21.2638 48.0144L16.2987 52.9795L15.1397 54.1385L15.3277 54.3264C15.8602 54.859 16.7373 54.859 17.2698 54.3264L23.5818 48.0144L17.2698 41.6868C16.7216 41.1386 15.8602 41.1386 15.312 41.6868Z" fill="#E40046"/>
<path d="M32.2432 51.9459C33.042 51.9459 33.6215 51.8206 33.9661 51.57C34.3263 51.3194 34.4986 50.8495 34.4986 50.1604C34.4986 49.4869 34.2793 49.017 33.8251 48.7664C33.3866 48.5158 32.6818 48.3905 31.7107 48.3905H29.9408V51.9303L32.2432 51.9459ZM31.883 47.3098C32.6818 47.3098 33.2613 47.1688 33.6215 46.9026C33.9817 46.6207 34.1697 46.1821 34.1697 45.5556C34.1697 45.305 34.1227 45.0857 34.0444 44.8978C33.9661 44.7098 33.8721 44.5689 33.7468 44.4592C33.6215 44.3496 33.4649 44.2713 33.2769 44.2086C33.089 44.146 32.8854 44.099 32.6974 44.0833C32.5095 44.0677 32.2745 44.052 32.0239 44.052H29.9408V47.3098H31.883ZM28.7348 52.8543C28.5938 52.7134 28.5312 52.5568 28.5312 52.3688V43.6291C28.5312 43.4412 28.5938 43.2689 28.7348 43.1436C28.8758 43.0183 29.0324 42.94 29.236 42.94H32.0866C33.2769 42.94 34.1384 43.1592 34.7179 43.5978C35.2817 44.0363 35.5637 44.6628 35.5637 45.4616C35.5637 46.0725 35.3914 46.5737 35.0311 47.0122C34.6709 47.4351 34.1697 47.6857 33.5275 47.7797V47.811C34.295 47.905 34.9058 48.1556 35.3287 48.5941C35.7673 49.0327 35.9865 49.6122 35.9865 50.364C35.9865 50.7242 35.9082 51.0532 35.7673 51.3664C35.6263 51.6797 35.4227 51.9772 35.1408 52.2278C34.8745 52.4784 34.5143 52.6821 34.0601 52.8387C33.6058 52.9953 33.089 53.0736 32.5095 53.0736H29.2203C29.0481 53.058 28.8758 52.9953 28.7348 52.8543ZM41.0455 51.6483C41.4528 51.1941 41.6564 50.6303 41.6564 49.9411V49.7218C41.0769 49.7218 40.5913 49.7375 40.2311 49.7532C39.8552 49.7688 39.5419 49.8158 39.26 49.8628C38.9781 49.9254 38.7588 50.0038 38.6179 50.0977C38.4769 50.2074 38.3673 50.3327 38.3046 50.4893C38.242 50.6459 38.195 50.8339 38.195 51.0688C38.195 51.4917 38.3203 51.8206 38.5709 52.0086C38.8215 52.2122 39.166 52.3062 39.6046 52.3062C40.1684 52.3218 40.6383 52.1025 41.0455 51.6483ZM37.6781 52.6507C37.2082 52.2905 36.9889 51.7893 36.9889 51.1471C36.9889 50.8809 37.0203 50.6459 37.0829 50.4423C37.1456 50.2387 37.2239 50.0664 37.3179 49.9098C37.4275 49.7532 37.5685 49.6279 37.7564 49.5182C37.9444 49.4086 38.148 49.3303 38.3829 49.252C38.6179 49.1893 38.8998 49.1267 39.2444 49.0953C39.5889 49.064 39.9492 49.0327 40.3251 49.017C40.701 49.0014 41.1395 49.0014 41.672 49.0014V48.2339C41.672 47.7327 41.5467 47.4194 41.2805 47.1688C41.0142 46.9339 40.6383 46.8086 40.1528 46.8086C39.8709 46.8086 39.5733 46.8399 39.2913 46.9026C39.0094 46.9652 38.7745 47.0279 38.6179 47.0905C38.4456 47.1532 38.2106 47.2785 37.9757 47.3881C37.9287 47.4194 37.866 47.4194 37.8034 47.4194C37.6781 47.4194 37.5685 47.3725 37.4901 47.2628C37.4118 47.1532 37.3492 46.9809 37.3492 46.8713C37.3492 46.7303 37.4432 46.5737 37.5841 46.511C38.2889 46.0881 39.1504 45.8845 40.1684 45.8845C41.0299 45.8845 41.7034 46.0881 42.1889 46.4797C42.6744 46.8869 42.925 47.4978 42.925 48.3279V52.4628C42.925 52.6507 42.8624 52.7917 42.7214 52.9013C42.5805 53.011 42.4395 53.058 42.2672 53.058C42.0949 53.058 41.954 53.011 41.8287 52.9013C41.7034 52.7917 41.6407 52.6507 41.6407 52.4784V51.805C41.2022 52.729 40.4817 53.1833 39.4636 53.1833C38.7432 53.1833 38.148 52.9953 37.6781 52.6507ZM44.5696 52.8857C44.4443 52.776 44.3817 52.6351 44.3817 52.4315V46.6207C44.3817 46.4327 44.4443 46.1351 44.5696 46.0255C44.6949 45.9158 44.8515 45.8689 45.0238 45.8689C45.1961 45.8689 45.3527 45.9158 45.478 46.0255C45.6033 46.1351 45.666 46.2761 45.666 46.4484V47.0749C45.8539 46.652 46.1359 46.4484 46.5431 46.2291C46.9503 45.9942 47.4202 45.8845 47.9684 45.8845C48.7515 45.8845 49.3623 46.1195 49.8322 46.558C50.3021 47.0122 50.5214 47.7014 50.5214 48.6098V52.4315C50.5214 52.6194 50.4587 52.776 50.3334 52.8857C50.2081 52.9953 50.0515 53.0423 49.8792 53.0423C49.7069 53.0423 49.5503 52.9953 49.425 52.8857C49.2997 52.776 49.237 52.6351 49.237 52.4315V48.6098C49.237 47.999 49.0647 47.67 48.7828 47.3568C48.5009 47.0435 48.1093 46.8869 47.5925 46.8869C47.0443 46.8869 46.5901 47.0749 46.2142 47.4664C45.8383 47.858 45.6347 48.3749 45.6033 49.0483L45.6347 52.4471C45.6347 52.6351 45.572 52.7917 45.431 52.9013C45.3057 53.011 45.1491 53.058 44.9768 53.058C44.8045 53.058 44.6949 52.9953 44.5696 52.8857ZM57.6321 52.1025C57.7418 52.2122 57.7888 52.3375 57.7888 52.4784C57.7888 52.6351 57.7261 52.7604 57.6008 52.8857C57.4755 53.011 57.3346 53.058 57.1779 53.058C57.0056 53.058 56.8647 52.9953 56.755 52.8543L53.4346 49.299L53.2936 49.1267L53.4346 48.9857L56.6454 46.0411C56.755 45.9472 56.8647 45.9002 56.9743 45.9002C57.1309 45.9002 57.2562 45.9628 57.3815 46.0725C57.4912 46.1978 57.5538 46.3231 57.5538 46.464C57.5538 46.605 57.4912 46.7146 57.3815 46.8243L54.8129 49.1267L57.6321 52.1025ZM52.6671 42.94C52.8394 42.94 52.9804 43.0026 53.1057 43.1123C53.231 43.2219 53.2936 43.3785 53.2936 43.5821V52.4158C53.2936 52.6194 53.231 52.776 53.09 52.8857C52.9491 52.9953 52.8081 53.058 52.6358 53.058C52.4635 53.058 52.3069 52.9953 52.1816 52.8857C52.0563 52.776 51.9936 52.6194 51.9936 52.4001V43.5821C51.9936 43.3785 52.0563 43.2219 52.1816 43.1123C52.3382 43.0026 52.4948 42.94 52.6671 42.94ZM67.061 50.7712C67.5309 50.1291 67.7658 49.205 67.7658 48.0146C67.7658 46.8243 67.5309 45.9002 67.0766 45.258C66.6068 44.6159 65.902 44.2869 64.9622 44.2869C64.0224 44.2869 63.3176 44.6159 62.8478 45.258C62.3779 45.9002 62.1429 46.8243 62.1429 48.0146C62.1429 49.2206 62.3779 50.1291 62.8321 50.7712C63.302 51.4134 64.0068 51.7423 64.9465 51.7423C65.8863 51.7266 66.5911 51.4134 67.061 50.7712ZM61.2815 51.8989C60.4201 50.9592 59.9972 49.6592 59.9972 47.999C59.9972 46.3387 60.4357 45.0387 61.2815 44.099C62.1429 43.1436 63.3646 42.6737 64.9309 42.6737C66.5128 42.6737 67.7345 43.1436 68.5959 44.099C69.4573 45.0544 69.8802 46.3544 69.8802 47.999C69.8802 49.6435 69.4573 50.9592 68.5959 51.8989C67.7345 52.8387 66.5128 53.3242 64.9309 53.3242C63.3646 53.3242 62.1429 52.8543 61.2815 51.8989ZM70.5694 52.823C70.4128 52.6664 70.3344 52.4784 70.3344 52.2592C70.3344 52.0399 70.4128 51.805 70.5694 51.5544L75.4404 44.5219H71.1646C70.9453 44.5219 70.7573 44.4436 70.632 44.2713C70.4911 44.1147 70.4284 43.9267 70.4284 43.7074C70.4284 43.4882 70.4911 43.3002 70.632 43.1436C70.773 42.987 70.9453 42.9086 71.1646 42.9086H77.0067C77.2729 42.9086 77.4922 42.987 77.6488 43.1279C77.8055 43.2689 77.8994 43.4568 77.8994 43.7074C77.8994 43.9424 77.8211 44.1773 77.6645 44.4122L72.7621 51.4604H77.132C77.3669 51.4604 77.5392 51.5387 77.6802 51.6953C77.8211 51.8519 77.8838 52.0399 77.8838 52.2435C77.8838 52.4628 77.8211 52.6351 77.6802 52.7917C77.5392 52.9483 77.3669 53.0266 77.1476 53.0266H71.2899C70.9609 53.058 70.726 52.9796 70.5694 52.823ZM86.7801 51.5387C87.109 51.9303 87.062 52.5098 86.6861 52.8387C86.5138 52.9953 86.2945 53.058 86.0753 53.058C85.809 53.058 85.5584 52.9483 85.3705 52.729L81.2042 47.999L85.3548 43.2532C85.6994 42.8773 86.2789 42.8303 86.6548 43.1749C87.0463 43.5195 87.0777 44.099 86.7331 44.4749L83.6476 48.0146L86.7801 51.5387ZM80.9066 43.2219C81.1103 43.4098 81.2042 43.6604 81.2042 43.9737V47.952V52.0242C81.2042 52.3218 81.0946 52.5724 80.9066 52.7604C80.703 52.9483 80.4681 53.0423 80.2018 53.0423C79.9199 53.0423 79.685 52.9483 79.497 52.7604C79.2934 52.5724 79.1994 52.3218 79.1994 52.0086V43.9737C79.1994 43.6604 79.2934 43.4098 79.497 43.2219C79.7006 43.0339 79.9356 42.94 80.2018 42.94C80.4681 42.94 80.703 43.0339 80.9066 43.2219Z" fill="black"/>
</svg>
