<svg width="96" height="96" viewBox="0 0 96 96" fill="none" xmlns="http://www.w3.org/2000/svg">
<circle cx="48" cy="48" r="47" fill="white" stroke="white" stroke-width="2"/>
<path d="M57.4503 44.4744C57.4503 41.942 57.4503 40.9054 57.0813 40.0034C57.4661 40.0479 57.7618 40.0778 58.2497 40.0778C59.0047 40.0778 59.6711 40.0479 61.0773 40.0181C61.8176 40.0034 62.7945 40.0181 63.6097 40.7871C64.2165 41.3798 64.2903 42.0902 64.2903 42.5347C64.2903 43.0524 64.172 43.6158 63.6537 44.1629C62.9866 44.844 62.1872 44.9482 61.4475 45.0361C62.1872 45.0952 63.3861 45.1843 64.0982 46.0288C64.5416 46.591 64.5855 47.2569 64.5855 47.5674C64.5855 48.5161 64.1258 50.5882 61.0773 50.5882C60.1004 50.5882 59.6565 50.5285 58.679 50.5285C58.279 50.5285 57.8345 50.5437 57.0356 50.5882C57.3331 50.2637 57.4503 48.7375 57.4503 46.5465V44.4744ZM58.9759 44.4744C59.6418 44.5476 60.2047 44.5476 60.4559 44.5476C60.7669 44.5476 61.3878 44.4445 61.7878 44.2372C62.6018 43.7933 62.6469 43.0524 62.6469 42.653C62.6469 41.2316 61.6255 40.9352 60.3821 40.9352C59.9224 40.9352 59.5669 40.9505 59.0193 40.9955C58.9759 41.4688 58.9759 42.1493 58.9759 42.9189V44.4744ZM58.9759 48.4423C58.9759 49.1375 58.9759 49.4338 59.7016 49.6113C59.8937 49.6558 60.2334 49.6699 60.4559 49.6699C61.9213 49.6699 62.9128 48.8992 62.9128 47.6276C62.9128 45.6874 61.2266 45.6136 60.3821 45.6136C60.1145 45.6136 59.7016 45.6288 58.9759 45.6434V48.4423Z" fill="#00386B"/>
<path d="M71.4541 48.56C71.4541 49.6546 71.4991 49.9955 71.9589 50.6028C71.6462 50.5577 71.3358 50.5138 71.0118 50.5138C70.7003 50.5138 70.3741 50.5577 70.0631 50.6028C70.0338 50.3808 70.0338 50.2039 70.0191 49.8034V48.7081C69.9296 48.9605 69.8417 49.2259 69.4715 49.6546C69.2631 49.8924 68.6276 50.6467 67.2958 50.6467C65.8445 50.6467 64.8665 49.6259 64.8665 48.1166C64.8665 47.5831 64.9707 46.8574 65.711 46.236C66.7921 45.3335 68.5087 45.3915 68.938 45.3915C69.1611 45.3915 69.5453 45.3915 69.9448 45.4062V45.0219C69.9296 44.0743 69.6924 43.1126 68.3904 43.1126C67.4276 43.1126 66.2591 43.6157 65.6659 44.3853C65.5481 43.8079 65.4884 43.6597 65.1774 43.0822C65.8445 42.787 67.0732 42.2236 68.7008 42.2236C69.1611 42.2236 69.8867 42.2687 70.5076 42.6541C71.3808 43.1864 71.4259 43.9262 71.4541 44.8287V48.56ZM67.7977 49.4918C68.4496 49.4918 68.88 49.1966 69.1898 48.8552C69.871 48.0856 69.9008 47.3312 69.9448 46.2952C69.6343 46.2512 69.2941 46.2214 68.9087 46.2214C68.5977 46.2214 68.08 46.2512 67.7239 46.369C67.3234 46.5025 66.4659 46.9465 66.4659 48.1166C66.4659 48.7374 66.8208 49.4918 67.7977 49.4918Z" fill="#00386B"/>
<path d="M79.0056 48.5455C79.0208 49.2419 79.0349 50.0847 79.2721 50.603C78.9616 50.5743 78.6343 50.5275 78.3092 50.5275C77.969 50.5275 77.6433 50.5743 77.3036 50.603C77.5244 49.7444 77.5244 49.256 77.5244 47.5236V45.2143C77.5244 44.3855 77.5244 43.3489 76.0585 43.3489C75.7036 43.3489 74.9329 43.3934 74.4016 43.9855C73.7492 44.696 73.7492 45.7326 73.7492 47.2278V48.1602C73.7492 49.2706 73.7492 49.9072 73.9864 50.603C73.676 50.5579 73.365 50.514 73.0523 50.514C72.7436 50.514 72.4168 50.5579 72.1205 50.603C72.2101 50.234 72.3137 49.5512 72.3137 48.367V46.0729C72.3137 45.3174 72.2985 44.5478 72.2247 43.8081C72.1205 42.9044 71.943 42.741 71.6771 42.5196C72.0918 42.5196 72.9205 42.4171 73.7943 42.0903C73.7802 42.4306 73.7802 42.7275 73.7802 43.2746V44.0301C74.4304 42.7123 75.2309 42.2086 76.7414 42.2086C77.1098 42.2086 78.0135 42.2086 78.5752 42.9495C78.947 43.4227 79.0056 43.8824 79.0056 45.3174V48.5455Z" fill="#00386B"/>
<path d="M79.7156 43.9109C79.7015 42.2827 79.6851 41.4094 79.5522 40.7875C79.4632 40.3289 79.3173 40.2094 79.0947 40.0624C80.1308 39.9142 80.3815 39.8404 81.3437 39.4111C81.1815 40.3875 81.1668 41.0247 81.1516 43.0078V46.7232L82.706 44.6506C83.1505 44.0151 83.3274 43.7627 83.4463 43.5706C83.8018 43.0078 83.9347 42.7266 83.9347 42.5047C83.9347 42.4455 83.9201 42.3565 83.9066 42.2675C84.319 42.3114 84.7359 42.3565 85.1336 42.3565C85.5781 42.3565 86.0068 42.3114 86.4975 42.2675C85.7702 42.801 85.253 43.1711 83.3274 45.6286C84.0992 46.8573 84.897 48.1458 87.0001 50.6038C86.6142 50.5587 86.2153 50.4996 85.8147 50.4996C85.4305 50.4996 85.0446 50.5435 84.6457 50.6038C84.4536 49.9807 84.2902 49.6258 83.1505 48.0117L82.3359 46.8714L81.1516 48.3666C81.1516 49.5063 81.1967 49.9514 81.4468 50.5875C81.1077 50.5435 80.7826 50.4996 80.4412 50.4996C80.1156 50.4996 79.7911 50.5435 79.4632 50.5875C79.5685 50.2032 79.6423 49.8179 79.6728 49.1227C79.7156 48.4269 79.7156 47.3306 79.7156 46.517V43.9109Z" fill="#00386B"/>
<path d="M33.2304 48.0563V44.5413C33.2304 44.0106 33.2304 42.8596 31.9459 42.4151C31.6958 42.3278 31.3408 42.2534 30.8682 42.2534C30.1442 42.2534 29.4214 42.4151 28.7285 43.0805C28.4028 43.4056 28.2704 43.6405 28.1228 43.9211C28.0783 43.5813 27.9904 42.7994 26.9566 42.4016C26.6456 42.2827 26.3065 42.2382 25.938 42.2382C25.0513 42.2382 24.2406 42.5639 23.7087 43.0805C23.3983 43.3751 23.2654 43.6264 23.1172 43.9363C23.1318 43.0946 23.1617 42.8433 23.2366 42.1205C22.5566 42.3413 21.9076 42.5334 20.9476 42.5334C20.6963 42.5334 20.4304 42.5194 20.1656 42.5042C20.4901 42.7695 20.8586 42.9774 20.8586 44.8963C20.8586 47.3701 20.8389 48.6084 20.778 49.3222C20.289 47.9532 19.8293 46.4095 18.8851 43.2411C18.0924 40.5999 17.9606 40.0523 17.6394 38.5627C16.9042 38.6371 16.1679 38.7126 15.4513 38.7126C14.7532 38.7126 14.0738 38.6371 13.3955 38.5627C13.2259 39.4489 12.3949 42.1656 12.1318 42.9949C11.4146 45.3351 10.7352 47.334 10.1696 48.9954C9.67831 50.4095 9.45239 50.9746 9 52.1081C9.52789 52.0501 10.0749 51.9943 10.6034 51.9943C11.2073 51.9943 11.7915 52.0704 12.3949 52.1081C12.3769 51.9768 12.3008 51.3723 12.942 48.8619H17.3008C18.0169 51.6929 17.9228 51.9571 17.9228 52.1081C18.5459 52.032 19.1865 51.9943 19.809 51.9943C20.5082 51.9943 21.1307 52.0501 21.8845 52.1081C21.6197 51.4844 21.4017 50.9577 21.2062 50.4602C21.4394 50.4439 21.6732 50.432 21.9076 50.432C22.409 50.432 22.911 50.4771 23.413 50.5216C23.2214 50.1954 23.1172 50.1808 23.1172 47.3025C23.1172 45.5464 23.1617 44.8225 23.6051 44.3791C23.9008 44.0844 24.4023 43.9211 24.8304 43.9211C25.0817 43.9211 25.6276 43.9503 25.8344 44.6151C25.9668 45.0134 25.9234 46.1363 25.9234 47.7892C25.9234 50.1667 25.6862 50.2563 25.5099 50.5064C25.9521 50.4484 26.4101 50.4022 26.8823 50.4022C27.4282 50.4022 27.96 50.4619 28.5363 50.5064C28.3149 50.2275 28.1668 50.1222 28.1668 48.1447C28.1668 47.1554 28.1814 46.5644 28.1814 46.3143C28.1814 45.4275 28.1814 44.8225 28.6687 44.3346C29.0676 43.9363 29.569 43.9075 29.8051 43.9075C30.9268 43.9075 30.9578 44.8811 30.9718 45.383C30.9865 45.9154 31.0017 47.214 31.0017 47.6123C31.0017 48.1881 31.0017 48.7644 30.9718 49.3402C30.9425 49.9751 30.8682 50.1374 30.6034 50.5509C31.031 50.4923 31.5183 50.4484 31.9904 50.4484C32.5217 50.4484 33.053 50.5064 33.5994 50.5509C33.3487 50.3002 33.2304 50.0929 33.2304 48.0563ZM13.489 46.6563L14.942 41.5616C15.0175 41.298 15.0749 41.0518 15.1301 40.6557C16.3194 44.7881 16.4507 45.2399 16.8096 46.6563H13.489Z" fill="#00386B"/>
<path d="M35.888 46.7264C35.888 47.1264 35.9026 47.9377 36.5674 48.5873C37.2316 49.2515 38.1471 49.2515 38.4423 49.2515C39.7111 49.2515 40.1843 48.7799 40.4789 48.4999C40.3173 49.3253 40.2874 49.5473 40.213 50.3444C39.4908 50.5366 39.1364 50.6256 38.2942 50.6256C36.8035 50.6256 33.3933 50.5366 33.3933 46.2847C33.3933 45.5168 33.4818 44.1737 34.515 43.1675C35.2829 42.4306 36.3612 42.1506 37.4237 42.1506C38.7826 42.1506 39.8299 42.5923 40.3764 43.8177C40.8192 44.7929 40.7899 45.9005 40.7753 46.7264H35.888ZM38.4863 45.487C38.4863 44.6008 38.3691 43.3467 37.2018 43.3467C35.8733 43.3467 35.8581 44.9996 35.8581 45.487H38.4863Z" fill="#00386B"/>
<path d="M55.6806 42.3349C55.3273 42.3394 55.0169 42.2983 54.6028 42.2594C54.6062 42.6132 54.5966 42.9687 54.4304 43.9744C54.1972 45.4544 53.6039 47.7056 53.2079 49.2161C52.9324 48.318 52.5256 47.4228 52.2355 46.54C51.8839 45.451 51.3916 43.9811 51.2642 43.0961C51.2158 42.7868 51.2135 42.6087 51.2248 42.2989C50.6214 42.3507 50.1031 42.4014 49.5425 42.4087C49.0856 42.4138 48.7499 42.3868 48.2924 42.3338C48.2924 42.3361 47.8 42.6363 46.8744 42.6814C46.653 42.5192 45.9594 42.1941 44.5561 42.1941C42.4901 42.1941 40.9696 42.9913 40.9696 44.8369C40.9696 46.6369 42.4456 47.0949 42.6665 47.1406C42.1656 47.2431 40.7031 47.864 40.7031 49.0437C40.7031 49.429 40.8648 49.8127 41.1617 50.0932C41.56 50.4921 42.1059 50.6099 42.4744 50.6825C42.0468 50.8611 40.4963 51.4656 40.4963 52.5873C40.4963 53.2668 41.0732 53.7699 41.7369 54.0194C42.2535 54.2268 42.933 54.3462 44.1718 54.3592C46.9769 54.3902 48.7194 52.9276 48.7194 51.0532C48.7194 49.0437 47.1251 48.9124 45.738 48.8228C43.2715 48.6758 42.5932 48.6758 42.5932 48.1006C42.5932 47.7749 43.0208 47.5242 43.2873 47.3609C43.6856 47.4211 43.9656 47.451 44.4676 47.451C46.2546 47.451 47.9972 46.8442 47.9972 44.9254C47.9972 44.3062 47.8344 43.9501 47.6423 43.5372C48.182 43.5659 48.3538 43.567 48.8665 43.6206C49.7808 45.7163 51.2338 49.269 51.7876 50.371C52.0231 50.8403 52.3972 51.073 52.622 50.9749C52.3487 51.7163 51.8394 52.5676 50.4738 52.5845C49.9707 52.5907 49.7194 52.4899 49.3927 52.3462C49.2563 53.1597 49.213 53.3817 48.96 54.3304C49.2687 54.3411 49.5634 54.3535 49.8738 54.3496C53.0473 54.3124 53.7831 52.7524 54.3639 50.7823C54.7054 49.5817 55.2124 47.6707 55.5538 46.4713C56.2338 44.042 56.4056 43.5958 56.9194 42.2313C56.5076 42.2809 56.0941 42.3304 55.6806 42.3349ZM43.1977 50.8009C43.6411 50.8307 45.5459 50.949 45.8851 50.993C46.3127 51.0375 47.022 51.1558 47.022 51.9225C47.022 52.8251 45.8997 53.3118 44.6592 53.3118C43.5228 53.3118 42.5194 52.9417 42.5194 52.0268C42.5194 51.4358 42.9031 51.0668 43.1977 50.8009ZM44.5273 46.3282C43.6699 46.3282 43.3155 45.664 43.3155 44.704C43.3155 43.7445 43.7149 43.1541 44.5273 43.1541C45.3825 43.1541 45.6789 43.8031 45.6789 44.8223C45.6789 45.5755 45.3825 46.3282 44.5273 46.3282Z" fill="#00386B"/>
<path d="M59.9385 53.9752C60.4433 54.4958 60.4433 55.2474 60.4433 55.471C60.4433 56.8361 59.7149 57.573 58.5571 57.573C58.2484 57.573 57.5966 57.529 57.1278 57.031C56.6512 56.5319 56.6304 55.8969 56.6304 55.5358C56.6304 55.2181 56.6428 54.4896 57.1492 53.9679C57.4529 53.6575 57.9363 53.4412 58.5357 53.4412C59.1588 53.4412 59.6484 53.6716 59.9385 53.9752ZM58.5808 53.9026C57.5042 53.9026 57.3802 54.8355 57.3802 55.5133C57.3802 56.0772 57.4816 57.1172 58.5504 57.1172C59.6056 57.1172 59.6783 56.0772 59.6783 55.5133C59.6783 55.124 59.6783 53.9026 58.5808 53.9026Z" fill="#00386B"/>
<path d="M61.3973 54.3289C61.1798 54.3368 60.9708 54.343 60.7539 54.3655C60.7612 54.2793 60.7686 54.1914 60.7686 54.1052C60.7686 54.019 60.7612 53.9244 60.7539 53.8449C60.964 53.8602 61.1798 53.8675 61.39 53.8675V53.6641C61.39 53.2393 61.404 52.6962 61.9967 52.3509C62.3432 52.1475 62.6615 52.1187 63.0942 52.0833C62.9939 52.3723 62.9793 52.4438 62.9432 52.7041C62.8643 52.6461 62.7618 52.6247 62.6469 52.6247C62.5302 52.6247 62.3939 52.6675 62.2931 52.7475C62.0976 52.9137 62.0902 53.2027 62.0902 53.441V53.8675C62.3432 53.8602 62.5967 53.8528 62.8491 53.8376C62.8491 53.9176 62.8356 54.0117 62.8356 54.1278C62.8356 54.1914 62.8491 54.2793 62.8491 54.3514C62.5967 54.3289 62.3432 54.3142 62.0902 54.3069V55.8106C62.0976 56.4883 62.0976 56.7993 62.1263 57.0596C62.1477 57.2771 62.1855 57.4055 62.2215 57.5362C62.0762 57.5142 61.924 57.5002 61.7804 57.5002C61.6204 57.5002 61.4542 57.521 61.2964 57.5362C61.3539 57.2833 61.3539 57.2264 61.368 57.0596C61.39 56.6985 61.39 56.4455 61.3973 55.8106V54.3289Z" fill="#00386B"/>
<path d="M65.0807 53.0085C64.4593 53.0152 64.3297 53.0738 64.0981 53.2462C64.1269 53.1099 64.1494 52.9803 64.1494 52.849C64.1494 52.6913 64.1196 52.5533 64.0981 52.3735C64.3229 52.4164 65.1021 52.4225 66.1274 52.4225C67.1325 52.4225 67.7314 52.4164 68.2953 52.3735C68.2739 52.5251 68.2593 52.6761 68.2593 52.8287C68.2593 52.9651 68.2739 53.1099 68.2953 53.2462C67.9917 53.0451 67.9055 53.0304 67.2052 53.0085H66.5979C66.5686 53.5786 66.555 54.1431 66.555 55.1893C66.555 55.8834 66.5612 56.6783 66.6266 57.1037C66.6627 57.3645 66.6987 57.4372 66.7562 57.5448C66.5765 57.5161 66.3877 57.5014 66.2086 57.5014C66.0058 57.5014 65.8114 57.5223 65.6086 57.5448C65.666 57.4733 65.817 57.3347 65.817 55.2766C65.817 53.8107 65.7894 53.3549 65.7596 53.0085H65.0807Z" fill="#00386B"/>
<path d="M68.5988 55.5509C68.6202 55.8111 68.6416 56.1362 68.8366 56.4686C69.1329 56.988 69.6168 57.0889 70.058 57.0889C70.7233 57.0889 70.9318 56.8641 71.1059 56.6849C70.9909 57.0252 70.9757 57.1401 70.9532 57.4213C70.7509 57.4787 70.4197 57.5666 69.9278 57.5666C68.6123 57.5666 67.8191 56.7937 67.8191 55.4861C67.8191 54.9362 67.934 54.3734 68.3092 53.9683C68.5554 53.7086 68.9966 53.4478 69.6467 53.4478C70.1081 53.4478 70.578 53.5931 70.8743 53.9469C71.1182 54.2432 71.2281 54.6911 71.2281 55.1244C71.2281 55.1959 71.2281 55.3047 71.2061 55.5509H68.5988ZM70.4681 55.1244C70.4681 54.8348 70.4681 54.4889 70.2816 54.2134C70.1368 53.9897 69.9064 53.8607 69.5881 53.8607C69.3064 53.8607 69.1115 53.9683 68.9813 54.0844C68.649 54.3807 68.6123 54.814 68.5915 55.1244H70.4681Z" fill="#00386B"/>
<path d="M74.0226 54.2056C74.2181 53.9256 74.3127 53.7875 74.3916 53.4777C74.5578 53.4918 74.7251 53.5064 74.8902 53.5064C75.0417 53.5064 75.1865 53.4991 75.3302 53.4766C75.0716 53.7661 74.9617 53.8957 74.5431 54.445L73.7696 55.4709L74.529 56.5543C74.6654 56.7571 74.8107 56.9583 74.9696 57.1532C75.0643 57.276 75.1431 57.3706 75.3375 57.543C75.1431 57.5149 74.9403 57.4861 74.7454 57.4861C74.5578 57.4861 74.3764 57.5149 74.1752 57.543C74.1392 57.3346 74.0885 57.2259 73.8276 56.7999L73.3364 56.0484L72.7076 56.9509C72.5138 57.2399 72.4564 57.3346 72.4119 57.5363C72.2389 57.5149 72.0659 57.4935 71.8924 57.4935C71.733 57.4935 71.5747 57.5075 71.4147 57.5363C71.4873 57.4788 71.6034 57.3847 71.7555 57.205C71.8119 57.1323 72.0795 56.7932 72.1459 56.7132L73.0113 55.5718L72.3324 54.5678C71.9212 53.9814 71.8271 53.8456 71.4648 53.4777C71.6688 53.4991 71.8637 53.5199 72.0586 53.5199C72.2609 53.5199 72.4564 53.4991 72.6575 53.4766C72.6502 53.5064 72.6434 53.5278 72.6434 53.5566C72.6434 53.6788 72.6935 53.7594 72.8823 54.0766L73.453 54.987L74.0226 54.2056Z" fill="#00386B"/>
<path d="M78.7978 56.5474C78.7978 57.0815 78.8198 57.2482 79.044 57.544C78.8913 57.5215 78.7409 57.5006 78.5826 57.5006C78.4299 57.5006 78.2721 57.5215 78.1195 57.544C78.1048 57.4364 78.1048 57.3491 78.0969 57.1542V56.6201C78.0524 56.7423 78.0096 56.8725 77.8299 57.0815C77.7285 57.1975 77.4186 57.5654 76.7679 57.5654C76.0592 57.5654 75.5831 57.0674 75.5831 56.3311C75.5831 56.0702 75.6338 55.7164 75.9944 55.4133C76.5228 54.9733 77.3612 55.0009 77.5696 55.0009C77.6783 55.0009 77.8671 55.0009 78.0609 55.0094V54.8212C78.0524 54.3592 77.9375 53.8882 77.302 53.8882C76.8333 53.8882 76.2631 54.1344 75.973 54.5108C75.9155 54.2285 75.8868 54.157 75.7352 53.8747C76.0592 53.7305 76.6592 53.4556 77.4541 53.4556C77.6783 53.4556 78.0321 53.4781 78.3358 53.6646C78.7612 53.9249 78.7837 54.286 78.7978 54.7271V56.5474ZM77.013 57.0026C77.3313 57.0026 77.5409 56.8578 77.6936 56.6922C78.0248 56.3164 78.04 55.9474 78.0609 55.442C77.9093 55.4201 77.7437 55.406 77.5555 55.406C77.4045 55.406 77.1505 55.4201 76.9769 55.4787C76.7831 55.5435 76.3645 55.7598 76.3645 56.3311C76.3645 56.6336 76.5358 57.0026 77.013 57.0026Z" fill="#00386B"/>
<path d="M80.4664 55.6731C80.1554 55.5418 79.6585 55.3266 79.6585 54.6106C79.6585 53.6866 80.5025 53.4478 81.2315 53.4478C81.7228 53.4478 82.0343 53.5706 82.1718 53.628C82.0484 53.8951 82.0202 53.9678 81.9391 54.2866C81.8743 54.1987 81.7892 54.0838 81.5645 53.9892C81.4343 53.939 81.2692 53.9103 81.1166 53.9103C80.7414 53.9103 80.3498 54.0838 80.3498 54.4731C80.3498 54.8855 80.734 55.0517 80.9999 55.1593C81.3983 55.3176 81.7667 55.4196 81.9983 55.6658C82.1853 55.868 82.2281 56.1283 82.2281 56.3379C82.2281 56.5683 82.1718 56.8861 81.925 57.1469C81.6366 57.4432 81.2467 57.5587 80.6394 57.5587C80.1628 57.5587 79.7515 57.4562 79.5352 57.3993C79.6349 57.0523 79.6501 56.9582 79.707 56.6185C79.845 56.7706 80.0912 57.0461 80.7628 57.0461C80.9864 57.0461 81.1814 57.001 81.3126 56.9159C81.4416 56.8218 81.5419 56.6472 81.5419 56.4596C81.5419 56.063 81.1881 55.9334 80.8991 55.832L80.4664 55.6731Z" fill="#00386B"/>
</svg>
