<svg width="96" height="96" viewBox="0 0 96 96" fill="none" xmlns="http://www.w3.org/2000/svg">
<circle cx="48" cy="48" r="47" fill="white" stroke="white" stroke-width="2"/>
<path d="M59.9562 72.5144H36.0438C31.53 72.5152 27.2002 70.7251 24.0048 67.537C20.8094 64.3488 19.0095 60.0231 19 55.5093C18.994 52.8113 19.64 50.1518 20.8831 47.7572C19.6397 45.3611 18.9936 42.7 19 40.0005C19.0111 35.4875 20.8117 31.1633 24.0069 27.9762C27.2021 24.7892 31.5309 22.9996 36.0438 23H59.9562C64.4691 22.9996 68.7979 24.7892 71.9931 27.9762C75.1883 31.1633 76.9889 35.4875 77 40.0005C77.0064 42.7 76.3604 45.3611 75.1169 47.7572C76.3601 50.1522 77.0062 52.8123 77 55.5108C76.9901 60.0244 75.19 64.3497 71.9946 67.5375C68.7993 70.7253 64.4698 72.5152 59.9562 72.5144ZM49.4978 57.0025V69.5219H59.9562C63.6762 69.5227 67.2447 68.0478 69.8786 65.4208C72.5126 62.7938 73.9969 59.2293 74.0059 55.5093C74.0032 53.8848 73.7157 52.2733 73.1564 50.7482C71.5588 52.7044 69.5458 54.2806 67.2634 55.3623C64.9811 56.4441 62.4866 57.0043 59.9608 57.0025H49.4978ZM22.8482 50.7466C22.0724 52.8639 21.8207 55.1376 22.1145 57.3733C22.4084 59.609 23.2391 61.7404 24.5358 63.5853C25.8324 65.4302 27.5563 66.9337 29.5604 67.9675C31.5644 69.0013 33.7889 69.5346 36.0438 69.5219H46.5022V57.0025H36.0438C33.5178 57.0052 31.0228 56.4452 28.7403 55.3631C26.4578 54.281 24.445 52.704 22.8482 50.7466ZM36.0438 41.4936C33.7296 41.4935 31.4512 42.0652 29.4112 43.158C27.3712 44.2507 25.6329 45.8306 24.3507 47.7572C25.6331 49.683 27.3713 51.2621 29.411 52.3543C31.4507 53.4465 33.7286 54.0179 36.0423 54.0177H59.9562C62.2699 54.018 64.5478 53.4467 66.5875 52.3545C68.6272 51.2623 70.3655 49.6831 71.6478 47.7572C70.3654 45.8314 68.6271 44.2523 66.5874 43.1601C64.5478 42.0679 62.2699 41.4965 59.9562 41.4967L36.0438 41.4936ZM49.5055 25.9863V38.5057H59.9639C62.4893 38.5045 64.9832 39.0652 67.265 40.1472C69.5468 41.2292 71.5592 42.8054 73.1564 44.7616C73.7168 43.2366 74.0053 41.6251 74.009 40.0005C74.0004 36.2802 72.5162 32.7152 69.8823 30.0879C67.2483 27.4606 63.6796 25.9855 59.9593 25.9863H49.5055ZM36.0438 25.9863C32.3235 25.9855 28.7548 27.4606 26.1208 30.0879C23.4869 32.7152 22.0027 36.2802 21.9941 40.0005C21.9977 41.6251 22.2863 43.2366 22.8467 44.7616C24.4437 42.8045 26.4565 41.2276 28.739 40.1455C31.0215 39.0634 33.5163 38.5033 36.0423 38.5057H46.5006V25.9879L36.0438 25.9863Z" fill="#009DFF"/>
</svg>
