<svg width="96" height="96" viewBox="0 0 96 96" fill="none" xmlns="http://www.w3.org/2000/svg">
<circle cx="48" cy="48" r="47" fill="white" stroke="white" stroke-width="2"/>
<path d="M29.0045 56.8097H25.0305V55.3739H26.8131C26.952 55.3739 27.0852 55.3175 27.1834 55.2172C27.2816 55.1169 27.3368 54.9809 27.3368 54.839V54.5762C27.3368 54.4344 27.2816 54.2983 27.1834 54.198C27.0852 54.0977 26.952 54.0413 26.8131 54.0413H25.0305V52.8355H28.8391C29.0121 52.8355 29.1781 52.7653 29.3004 52.6403C29.4228 52.5154 29.4915 52.3459 29.4915 52.1692C29.4915 51.9925 29.4228 51.823 29.3004 51.6981C29.1781 51.5731 29.0121 51.5029 28.8391 51.5029H24.3827C24.2129 51.5066 24.0512 51.5778 23.9319 51.7013C23.8127 51.8249 23.7453 51.991 23.7441 52.1645V57.4947C23.7441 57.5822 23.761 57.6689 23.7938 57.7497C23.8266 57.8305 23.8746 57.904 23.9352 57.9658C23.9958 58.0277 24.0677 58.0768 24.1469 58.1103C24.226 58.1438 24.3108 58.161 24.3965 58.161H28.9907C29.0776 58.1629 29.1639 58.147 29.2446 58.1144C29.3254 58.0817 29.3989 58.033 29.461 57.9709C29.523 57.9088 29.5723 57.8348 29.6059 57.753C29.6396 57.6712 29.6569 57.5834 29.6569 57.4947C29.6593 57.4057 29.6443 57.317 29.6126 57.234C29.5809 57.151 29.5333 57.0753 29.4724 57.0114C29.4116 56.9475 29.3389 56.8968 29.2585 56.8621C29.1781 56.8275 29.0917 56.8096 29.0045 56.8097Z" fill="#0093BD"/>
<path d="M36.8055 51.4983H32.0183C31.8453 51.4983 31.6794 51.5685 31.557 51.6934C31.4347 51.8184 31.366 51.9879 31.366 52.1646C31.366 52.3413 31.4347 52.5107 31.557 52.6357C31.6794 52.7606 31.8453 52.8308 32.0183 52.8308H33.7595V57.4948C33.7595 57.6715 33.8283 57.8409 33.9506 57.9659C34.073 58.0909 34.2389 58.161 34.4119 58.161C34.5849 58.161 34.7509 58.0909 34.8732 57.9659C34.9956 57.8409 35.0643 57.6715 35.0643 57.4948V52.8308H36.8055C36.9737 52.8248 37.1331 52.7526 37.2504 52.6293C37.3677 52.506 37.4338 52.3412 37.4349 52.1693C37.4362 51.9957 37.3712 51.8285 37.2536 51.7032C37.1361 51.5779 36.9753 51.5044 36.8055 51.4983Z" fill="#0093BD"/>
<path d="M76.0263 51.4983H73.1779C73.0049 51.4983 72.8389 51.5685 72.7166 51.6934C72.5942 51.8184 72.5255 51.9879 72.5255 52.1646V57.4948C72.5255 57.5823 72.5424 57.6689 72.5752 57.7497C72.608 57.8306 72.656 57.904 72.7166 57.9659C72.7772 58.0278 72.8491 58.0768 72.9282 58.1103C73.0074 58.1438 73.0922 58.161 73.1779 58.161H76.0263C77.9696 58.161 79.3112 56.9317 79.3112 54.7358C79.3295 52.2443 77.5378 51.4983 76.0263 51.4983ZM76.0263 56.8097H73.8073V52.8308H76.0263C77.0416 52.8308 78.0064 53.2297 78.0064 54.7921C78.0272 55.0629 77.9902 55.3351 77.898 55.5898C77.8058 55.8446 77.6605 56.0758 77.4723 56.2677C77.284 56.4595 77.0572 56.6073 76.8076 56.7009C76.5579 56.7945 76.2914 56.8316 76.0263 56.8097Z" fill="#0093BD"/>
<path d="M51.2451 51.4983H48.0016C47.8285 51.4983 47.6626 51.5685 47.5403 51.6934C47.4179 51.8184 47.3492 51.9879 47.3492 52.1646V57.4479C47.3467 57.6279 47.4138 57.8018 47.5359 57.9318C47.658 58.0617 47.8253 58.1374 48.0016 58.1423C48.1714 58.1423 48.3347 58.0747 48.4565 57.9538C48.5783 57.8329 48.6492 57.6682 48.6539 57.4948V55.7446H51.2497C52.5912 55.7446 53.5927 55.0924 53.5927 53.6003C53.5927 52.1083 52.5131 51.4983 51.2451 51.4983ZM51.2451 54.4121H48.6493V52.8308H51.2451C51.7045 52.8308 52.2834 52.8965 52.2834 53.6003C52.2834 54.3042 51.7504 54.4121 51.2451 54.4121Z" fill="#0093BD"/>
<path d="M20.8176 51.4608C20.7328 51.4608 20.6488 51.478 20.5704 51.5113C20.4921 51.5446 20.421 51.5934 20.3612 51.6549C20.3014 51.7164 20.2541 51.7894 20.2221 51.8696C20.19 51.9498 20.1738 52.0358 20.1744 52.1224V56.1951L16.7609 51.8221C16.645 51.6578 16.4801 51.5362 16.291 51.4755C16.1018 51.4148 15.8985 51.4182 15.7113 51.4853C15.5242 51.5523 15.3634 51.6794 15.2528 51.8475C15.1422 52.0156 15.0879 52.2158 15.0978 52.418V57.5418C15.0978 57.716 15.1656 57.8831 15.2862 58.0063C15.4069 58.1295 15.5704 58.1987 15.741 58.1987C15.8259 58.1987 15.9099 58.1815 15.9882 58.1482C16.0666 58.1149 16.1377 58.0661 16.1975 58.0046C16.2573 57.9431 16.3045 57.8701 16.3366 57.7899C16.3686 57.7097 16.3848 57.6237 16.3842 57.5371V53.455L19.8115 57.8327C19.9274 57.997 20.0923 58.1186 20.2815 58.1793C20.4707 58.24 20.674 58.2366 20.8611 58.1695C21.0482 58.1025 21.2091 57.9754 21.3197 57.8073C21.4302 57.6392 21.4846 57.439 21.4746 57.2368V52.1224C21.4752 52.0346 21.4586 51.9475 21.4257 51.8663C21.3928 51.7851 21.3443 51.7115 21.283 51.6498C21.2218 51.5881 21.149 51.5396 21.0691 51.5072C20.9891 51.4747 20.9036 51.4589 20.8176 51.4608Z" fill="#0093BD"/>
<path d="M69.6266 51.4609C69.5417 51.4609 69.4577 51.478 69.3794 51.5113C69.301 51.5446 69.2299 51.5934 69.1701 51.6549C69.1104 51.7164 69.0631 51.7894 69.031 51.8696C68.999 51.9499 68.9828 52.0358 68.9834 52.1225V56.1952L65.5561 51.8175C65.4402 51.6532 65.2753 51.5316 65.0861 51.4709C64.897 51.4102 64.6936 51.4136 64.5065 51.4806C64.3194 51.5477 64.1585 51.6748 64.048 51.8429C63.9374 52.011 63.883 52.2111 63.893 52.4134V57.5371C63.893 57.6234 63.9096 57.7088 63.942 57.7885C63.9743 57.8682 64.0217 57.9406 64.0814 58.0016C64.1411 58.0626 64.212 58.111 64.2901 58.144C64.3681 58.177 64.4517 58.194 64.5362 58.194C64.6211 58.194 64.7051 58.1769 64.7834 58.1436C64.8617 58.1103 64.9329 58.0615 64.9926 58C65.0524 57.9385 65.0997 57.8655 65.1318 57.7853C65.1638 57.705 65.18 57.6191 65.1794 57.5324V53.4503L68.6067 57.828C68.7226 57.9923 68.8875 58.1139 69.0767 58.1746C69.2658 58.2353 69.4692 58.2319 69.6563 58.1649C69.8434 58.0978 70.0042 57.9708 70.1148 57.8027C70.2254 57.6345 70.2798 57.4344 70.2698 57.2321V52.1178C70.2698 51.9436 70.202 51.7765 70.0814 51.6533C69.9608 51.5301 69.7972 51.4609 69.6266 51.4609Z" fill="#0093BD"/>
<path d="M41.7809 54.0086C40.9034 54.0086 40.5818 53.8021 40.467 53.6801C40.4177 53.6261 40.3817 53.561 40.3617 53.4901C40.3418 53.4191 40.3385 53.3444 40.3521 53.2719C40.3521 53.0842 40.3843 52.5916 41.8269 52.5916C42.3764 52.6006 42.9168 52.7369 43.4073 52.9904C43.5577 53.0738 43.7345 53.0927 43.8986 53.043C44.0628 52.9932 44.2008 52.879 44.2825 52.7253C44.3641 52.5716 44.3826 52.3911 44.3339 52.2235C44.2853 52.0558 44.1734 51.9148 44.0229 51.8314C43.3381 51.4754 42.5815 51.2874 41.8131 51.2825C39.4838 51.2825 39.0841 52.493 39.0566 53.2156C39.0364 53.464 39.0669 53.7139 39.1459 53.9497C39.225 54.1855 39.351 54.402 39.516 54.5857C39.9754 55.0831 40.7151 55.3224 41.7625 55.3224C43.0949 55.3224 43.6002 55.7165 43.6508 56.059C43.6715 56.1574 43.6699 56.2593 43.646 56.3569C43.6221 56.4545 43.5766 56.5453 43.5129 56.6221C43.1242 56.9392 42.6298 57.089 42.1347 57.0397C41.4009 57.072 40.6714 56.9104 40.0167 56.5704C39.9431 56.5276 39.862 56.5 39.7779 56.4892C39.6939 56.4784 39.6086 56.4846 39.5269 56.5075C39.4452 56.5304 39.3687 56.5695 39.3018 56.6225C39.2349 56.6756 39.1789 56.7416 39.137 56.8168C39.095 56.892 39.068 56.9748 39.0574 57.0607C39.0469 57.1465 39.0529 57.2336 39.0753 57.3171C39.0977 57.4005 39.136 57.4786 39.188 57.5469C39.2399 57.6153 39.3045 57.6725 39.3781 57.7153C40.2267 58.1707 41.1767 58.3922 42.1347 58.3581C42.7227 58.3581 43.8024 58.2455 44.4318 57.4995C44.6173 57.2837 44.7545 57.0291 44.8339 56.7536C44.9132 56.4781 44.9328 56.1882 44.8912 55.9042C44.8131 54.6795 43.6554 54.0086 41.7809 54.0086Z" fill="#0093BD"/>
<path d="M61.0124 56.8097H57.0522V55.3739H58.8898C59.0287 55.3739 59.162 55.3175 59.2602 55.2172C59.3584 55.1169 59.4136 54.9809 59.4136 54.839V54.5762C59.4136 54.4344 59.3584 54.2983 59.2602 54.198C59.162 54.0977 59.0287 54.0413 58.8898 54.0413H57.0522V52.8355H60.8654C61.0384 52.8355 61.2043 52.7653 61.3267 52.6403C61.449 52.5154 61.5177 52.3459 61.5177 52.1692C61.5177 51.9925 61.449 51.823 61.3267 51.6981C61.2043 51.5731 61.0384 51.5029 60.8654 51.5029H56.409C56.3233 51.5029 56.2385 51.5202 56.1593 51.5536C56.0802 51.5871 56.0082 51.6362 55.9477 51.6981C55.8871 51.7599 55.839 51.8334 55.8063 51.9142C55.7735 51.9951 55.7566 52.0817 55.7566 52.1692V57.4947C55.7566 57.5822 55.7735 57.6689 55.8063 57.7497C55.839 57.8305 55.8871 57.904 55.9477 57.9658C56.0082 58.0277 56.0802 58.0768 56.1593 58.1103C56.2385 58.1438 56.3233 58.161 56.409 58.161H61.0032C61.0896 58.1622 61.1754 58.1459 61.2557 58.113C61.3359 58.0801 61.4089 58.0312 61.4704 57.9692C61.532 57.9072 61.5809 57.8333 61.6142 57.7519C61.6476 57.6704 61.6648 57.583 61.6647 57.4947C61.6672 57.4057 61.6521 57.317 61.6205 57.234C61.5888 57.151 61.5411 57.0753 61.4803 57.0114C61.4195 56.9475 61.3467 56.8968 61.2663 56.8621C61.186 56.8275 61.0996 56.8096 61.0124 56.8097Z" fill="#0093BD"/>
<path d="M79.21 57.8748V57.8513C79.2125 57.8475 79.216 57.8443 79.22 57.8421C79.224 57.8399 79.2284 57.8388 79.233 57.8388C79.2375 57.8388 79.242 57.8399 79.246 57.8421C79.25 57.8443 79.2535 57.8475 79.256 57.8513C79.2994 57.8859 79.3525 57.9056 79.4076 57.9076C79.4811 57.9076 79.5316 57.8654 79.5316 57.8044C79.5316 57.6449 79.1917 57.6824 79.1917 57.4572C79.1933 57.4286 79.2007 57.4006 79.2133 57.375C79.226 57.3494 79.2435 57.3267 79.265 57.3083C79.2865 57.2898 79.3115 57.276 79.3384 57.2678C79.3652 57.2595 79.3935 57.2569 79.4214 57.2601C79.4838 57.2601 79.5448 57.2798 79.5959 57.3164C79.599 57.3195 79.6014 57.3232 79.6031 57.3272C79.6047 57.3312 79.6056 57.3355 79.6056 57.3399C79.6056 57.3443 79.6047 57.3486 79.6031 57.3526C79.6014 57.3567 79.599 57.3603 79.5959 57.3634V57.3868C79.5959 57.3868 79.5684 57.3868 79.55 57.3868C79.5119 57.3606 79.4673 57.346 79.4214 57.3446C79.3479 57.3446 79.2973 57.3821 79.2973 57.4431C79.2973 57.598 79.6373 57.5557 79.6373 57.7857C79.6374 57.8144 79.6316 57.8429 79.6203 57.8692C79.6091 57.8956 79.5925 57.9193 79.5717 57.9387C79.551 57.9581 79.5265 57.9729 79.4998 57.9821C79.4731 57.9913 79.4448 57.9947 79.4168 57.9921C79.3402 57.9914 79.2659 57.9651 79.2054 57.917C79.2012 57.9106 79.1993 57.9028 79.2001 57.8951C79.201 57.8873 79.2045 57.8801 79.21 57.8748Z" fill="#0093BD"/>
<path d="M79.8073 57.2978C79.8073 57.289 79.8107 57.2807 79.8167 57.2745C79.8228 57.2684 79.831 57.2649 79.8395 57.2649H79.8854C79.8938 57.2646 79.902 57.2673 79.9086 57.2724C79.9153 57.2775 79.9201 57.2848 79.9222 57.2931L80.0738 57.6544L80.1105 57.7529C80.1105 57.7529 80.1105 57.6966 80.1427 57.6544L80.2943 57.2931C80.2964 57.2848 80.3012 57.2775 80.3078 57.2724C80.3145 57.2673 80.3227 57.2646 80.3311 57.2649H80.377C80.3855 57.2649 80.3937 57.2684 80.3997 57.2745C80.4058 57.2807 80.4092 57.289 80.4092 57.2978L80.4597 57.95C80.4605 57.9545 80.4603 57.9591 80.4589 57.9635C80.4576 57.9678 80.4553 57.9718 80.4521 57.975C80.4489 57.9783 80.445 57.9807 80.4408 57.982C80.4365 57.9834 80.4319 57.9836 80.4275 57.9828H80.3954C80.3868 57.9828 80.3787 57.9793 80.3726 57.9732C80.3666 57.967 80.3632 57.9587 80.3632 57.95L80.3311 57.5324C80.3292 57.4964 80.3292 57.4604 80.3311 57.4244C80.3311 57.4244 80.3311 57.4901 80.2943 57.5324L80.1657 57.828C80.1636 57.8362 80.1588 57.8435 80.1521 57.8486C80.1454 57.8537 80.1373 57.8564 80.1289 57.8561H80.0968C80.0884 57.8564 80.0802 57.8537 80.0735 57.8486C80.0669 57.8435 80.0621 57.8362 80.06 57.828L79.9314 57.5324L79.8946 57.4244C79.8946 57.4244 79.8946 57.4901 79.8946 57.5324L79.8625 57.95C79.8625 57.9587 79.8591 57.967 79.853 57.9732C79.847 57.9793 79.8388 57.9828 79.8303 57.9828H79.7981C79.7937 57.9836 79.7892 57.9834 79.7849 57.982C79.7806 57.9807 79.7767 57.9783 79.7736 57.975C79.7704 57.9718 79.7681 57.9678 79.7667 57.9635C79.7654 57.9591 79.7651 57.9545 79.766 57.95L79.8073 57.2978Z" fill="#0093BD"/>
<path d="M49.4091 41.182L48.3341 40.3609C47.5608 39.7541 46.7539 39.1932 45.9175 38.6811C45.5759 38.4741 45.1867 38.3632 44.7894 38.3595C44.3922 38.3558 44.0011 38.4595 43.6558 38.6601C43.3105 38.8608 43.0234 39.1511 42.8235 39.5018C42.6236 39.8524 42.5182 40.2508 42.5178 40.6565V42.6506C43.6434 40.9286 45.6603 42.6506 47.2728 43.9128L48.3341 44.7527C49.1074 45.3595 49.9142 45.9203 50.7506 46.4324C51.0921 46.6371 51.4803 46.7461 51.8762 46.7486C52.2721 46.7511 52.6616 46.6469 53.0055 46.4466C53.3494 46.2462 53.6354 45.9568 53.8348 45.6075C54.0342 45.2582 54.1399 44.8614 54.1412 44.4571V42.4442C53.0202 44.1662 50.9987 42.4489 49.4091 41.182Z" fill="#F58020"/>
<path d="M47.4061 44.8839C46.8686 44.4616 46.3403 44.03 45.7706 43.6546C44.9712 43.1197 43.7124 42.2892 42.89 43.2652C42.631 43.6045 42.499 44.0271 42.5179 44.4569C42.5172 45.0147 42.6929 45.5577 43.0187 46.0053C43.3756 46.4626 43.8822 46.7728 44.4452 46.8788C45.0083 46.9849 45.5899 46.8796 46.083 46.5825C46.4597 46.3525 47.204 45.7942 47.9207 45.2874L47.838 45.2217L47.4061 44.8839Z" fill="#F05123"/>
<path d="M49.2575 40.2106C49.795 40.6329 50.3233 41.0646 50.893 41.44C51.6924 41.9702 52.9512 42.8007 53.7736 41.8294C54.0326 41.4901 54.1646 41.0675 54.1457 40.6376C54.1464 40.0799 53.9707 39.5368 53.6449 39.0892C53.2868 38.6335 52.7796 38.3252 52.2166 38.2208C51.6536 38.1165 51.0727 38.2233 50.5806 38.5215C50.2039 38.7514 49.4596 39.3098 48.7429 39.8165L48.821 39.8822L49.2575 40.2106Z" fill="#F05123"/>
</svg>
