<svg width="96" height="96" viewBox="0 0 96 96" fill="none" xmlns="http://www.w3.org/2000/svg">
<circle cx="48" cy="48" r="47" fill="white" stroke="white" stroke-width="2"/>
<g clip-path="url(#clip0_1_6120)">
<path fill-rule="evenodd" clip-rule="evenodd" d="M10.5996 37H33.5163C34.3856 37 35.1159 37.7055 35.1159 38.5874V58.1656C35.1159 59.0475 34.3856 59.7531 33.5163 59.7531H10.5996C9.73027 59.7531 9 59.0475 9 58.1656V38.5874C9 37.7055 9.73027 37 10.5996 37Z" fill="#004577"/>
<path fill-rule="evenodd" clip-rule="evenodd" d="M11.0169 37.8467H33.099C33.7597 37.8467 34.2813 38.3758 34.2813 39.0108V57.8129C34.2813 58.4479 33.7597 58.977 33.099 58.977H11.0169C10.3562 58.977 9.83459 58.4479 9.83459 57.8129V39.0108C9.83459 38.3758 10.391 37.8467 11.0169 37.8467Z" fill="white"/>
<path fill-rule="evenodd" clip-rule="evenodd" d="M11.6081 38.6932H32.5773C33.0642 38.6932 33.4815 39.0813 33.4815 39.5751V57.2132C33.4815 57.707 33.0642 58.0951 32.5773 58.0951H11.6081C11.1212 58.0951 10.7039 57.707 10.7039 57.2132V39.5751C10.6692 39.0813 11.0865 38.6932 11.6081 38.6932Z" fill="#CCDAE4"/>
<path fill-rule="evenodd" clip-rule="evenodd" d="M19.3977 47.0184L19.7106 46.842L19.9888 46.6303L20.3018 46.4187L20.6148 46.207L20.9278 45.9954L21.2407 45.819L21.5537 45.6073L21.8667 45.431L22.1797 45.2193L22.4926 45.0429L22.8056 44.8665L23.1186 44.7254L23.4315 44.5491L23.7445 44.4079L24.0575 44.2668L24.3705 44.1257L24.6834 43.9846L24.8225 43.9141H24.753L24.5443 43.8083L24.3357 43.7377L24.0923 43.7024L23.8836 43.6319L23.6402 43.5966L23.4315 43.5613H23.2577H23.0838L22.9447 43.5966L22.8404 43.6319H22.7708L22.736 43.6671L22.7013 43.7024L22.3188 44.6902L21.6233 43.6671L21.4842 43.4202L21.4146 43.138L21.3798 42.8558L21.4146 42.5736L21.5189 42.3267L21.6928 42.115L21.8667 41.9739L22.0753 41.8328L22.3188 41.727L22.5274 41.6564L22.7708 41.5859L23.049 41.5506L23.3272 41.5153H23.3968L23.5011 41.2331L23.6402 41.0214L23.8141 40.8098L24.0575 40.6687L24.2661 40.5629L24.5443 40.4923L24.7878 40.4218L25.066 40.3865H25.3442H25.6571L25.9701 40.4218L26.3179 40.457L26.6656 40.4923L27.0134 40.5276L27.3611 40.5981L27.7436 40.6687L28.1262 40.7745L28.5435 40.8451L28.926 40.9509L29.3433 41.0567L29.7606 41.1273L30.1779 41.2331L30.6299 41.3742L31.4645 41.5859L31.9166 41.6917L32.3339 41.7975L32.786 41.9033L33.2033 42.0092L34.0379 42.2208L33.9683 51.0751L33.0642 50.8987L32.7512 50.8282L32.473 50.7929L32.16 50.7224L31.8471 50.6871L31.5689 50.6165L31.2559 50.5813L30.9429 50.546L30.6647 50.5107L30.3517 50.4402H30.0388L29.7606 50.4049L29.4476 50.3696L29.1346 50.3343H28.8564H28.5435L28.2305 50.2991H27.9523L27.6393 50.3343H27.3263H27.0134L26.7004 50.3696L26.3874 50.4049L26.0744 50.4402L25.7615 50.5107L25.4485 50.546L25.1355 50.6165L24.8225 50.6871L24.4748 50.7929L24.1618 50.8635L23.8488 50.9693L23.5011 51.1104L23.3272 51.1457L23.1533 51.2162L23.0142 51.2515L22.8404 51.2868L22.6665 51.3221L22.5274 51.3573H22.3535L22.2144 51.3926L22.0753 51.4279H21.9015H21.7624L21.6233 51.4632H21.4842H21.3451H21.206H21.0669L20.9278 51.4279H20.7887H20.6496L20.5105 51.3926H20.3714L20.267 51.3573H20.1279L19.9888 51.3221H19.8845L19.7454 51.2868L19.6063 51.2515L19.502 51.2162H19.3629L19.2586 51.181L19.1195 51.1457L18.9108 51.0751L18.424 50.6871L18.3196 50.7224L17.9023 50.8635L17.485 51.0046L16.9634 51.181L16.6505 51.2162L16.3723 51.2515L16.0941 51.2868L15.8506 51.3221L15.6072 51.3573L15.3638 51.3926H15.1204L14.8769 51.4279H14.6683L14.4249 51.4632H14.2162H14.0076H13.7989H13.5903H13.4164H13.2077H13.0339L12.86 51.4279L12.6861 51.3926H12.5122L12.3384 51.3573L12.1645 51.3221L11.9906 51.2868L11.8515 51.2515L11.7124 51.181L11.5385 51.1457L11.3994 51.0751L11.2603 51.0399L11.1212 50.9693L10.9821 50.8987L10.843 50.7929L10.4605 50.546L10.3562 50.0521L10.5649 49.8052L11.2603 49.7346H11.5385L11.8515 49.6994L12.1297 49.6641L12.4079 49.6288L12.6861 49.5583L12.9643 49.523L13.2773 49.4524L13.5555 49.4172L13.8337 49.3466L14.1119 49.276L14.3901 49.2055L14.7031 49.0997L14.9813 49.0291L15.2595 48.9233L15.5377 48.8527L15.8506 48.7469L16.1288 48.6411L16.407 48.5L16.72 48.3941L16.9982 48.253L17.3112 48.1472L17.5894 48.0061L17.9023 47.865L18.1805 47.6886L18.4935 47.5475L18.7717 47.3711L19.0847 47.1948L19.3977 47.0184Z" fill="white"/>
<path fill-rule="evenodd" clip-rule="evenodd" d="M11.017 50.2991C14.1815 50.0875 17.2417 49.135 20.6148 46.8773C23.8837 44.5844 27.1525 43.2792 30.4909 43.2792C30.4909 43.2086 31.0473 43.2792 30.63 43.1381C28.6826 42.75 27.2916 43.1733 25.379 43.6319C24.301 43.1028 22.4231 42.6795 22.2145 43.6319C21.3799 42.5031 22.4579 42.0092 23.8489 42.0798C23.7098 39.7163 28.9608 41.6212 33.5163 42.6442L33.4815 50.4755C30.2475 49.8758 27.0482 49.3114 23.362 50.6519C21.6928 51.181 20.4062 50.9694 19.1891 50.6519C21.1712 50.0875 21.6928 49.77 23.4316 48.9586C24.1271 48.6059 25.2747 48.4648 27.0482 48.3942C26.2136 48.3237 27.6393 48.4648 27.535 48.2531C22.0058 47.6887 21.971 49.1703 16.8939 50.6872C13.8337 51.1105 12.1645 51.0752 11.017 50.2991Z" fill="#922C46"/>
<path fill-rule="evenodd" clip-rule="evenodd" d="M25.1007 41.5506C24.7182 41.9739 24.8921 42.1855 25.518 42.0797C25.6919 41.9739 25.9006 41.9033 26.0744 41.7975C26.6308 41.7622 26.7004 41.6211 26.1788 41.4095C25.8658 41.3036 25.518 41.3742 25.1007 41.5506Z" fill="white"/>
<path d="M39.6018 49.1702C40.3669 49.2408 41.0624 49.2761 41.6188 49.2761C42.4534 49.2761 43.1141 49.2408 43.6357 49.1702C44.1573 49.0997 44.6094 48.9586 44.9224 48.7469C45.2353 48.5353 45.5483 48.2531 45.7917 47.865C46.0352 47.477 46.2786 46.9479 46.522 46.3129H47.148L46.4872 50.0169C46.4177 50.3344 46.3481 50.546 46.209 50.6518C46.0699 50.7577 45.8613 50.8282 45.5483 50.8282H35.9852V50.0169C36.2287 49.6641 36.4721 49.3114 36.6807 48.9233C36.9242 48.5353 37.0285 48.3236 37.0632 48.3236L38.5586 45.9601L41.0276 41.9034L42.349 39.6457C42.5925 39.2224 42.8011 38.9049 42.9402 38.658C42.349 38.6227 41.6883 38.5874 40.9233 38.5874C40.1582 38.5874 39.567 38.658 39.1497 38.7638C38.7324 38.9049 38.3499 39.1166 38.0369 39.4341C37.724 39.7515 37.411 40.2454 37.098 40.9156H36.4721L37.0285 37.6702C37.098 37.4233 37.1676 37.2822 37.2719 37.1764C37.3762 37.0706 37.5501 37.0353 37.7935 37.0353H46.3481V37.7761C45.7917 38.5874 45.2353 39.4341 44.6789 40.316C44.1225 41.1979 43.6009 42.0798 43.0793 42.9264C42.5577 43.8083 42.0708 44.6549 41.584 45.5015C41.0971 46.3482 40.5407 47.3712 39.8452 48.6058L39.6018 49.1702Z" fill="#004577"/>
<path d="M51.5297 48.9586L50.4517 50.3696C50.2778 50.5813 50.1039 50.7224 49.9648 50.7929C49.8257 50.8635 49.5823 50.8988 49.2345 50.8988C48.6086 50.8988 48.0522 50.7577 47.5654 50.5107C47.0785 50.2638 46.696 49.911 46.4178 49.4524C46.1396 48.9939 46.0005 48.5 46.0005 47.9356C46.0005 47.2653 46.2091 46.7009 46.6264 46.1718C47.0437 45.6779 47.6697 45.2546 48.5043 44.9018C49.3389 44.5491 50.3473 44.3374 51.5297 44.1963C51.4949 43.6672 51.3558 43.2439 51.1124 42.9616C50.869 42.6794 50.4517 42.5383 49.8953 42.5383C49.3389 42.5383 48.852 42.6089 48.4695 42.7853C48.087 42.9616 47.6349 43.2439 47.2524 43.6672L46.8351 43.4555L47.6697 41.4095C47.8436 41.092 48.1218 40.8804 48.5043 40.7745C48.8868 40.6687 49.4432 40.6334 50.1387 40.6334C51.2167 40.6334 52.0513 40.8451 52.6773 41.2684C53.4771 41.7975 53.8596 42.6442 53.8596 43.8435V44.9724V46.6304C53.8596 47.4064 53.9292 47.9708 54.103 48.2883C54.2769 48.6411 54.5899 48.8527 55.0767 48.9586V49.3466C54.3812 49.8405 53.9292 50.158 53.6857 50.2991C53.4771 50.4402 53.2684 50.5813 53.1293 50.6518C52.9902 50.7224 52.8511 50.7929 52.7816 50.7929C52.5034 50.7929 52.2252 50.5813 51.9818 50.158C51.7383 49.7347 51.5992 49.3466 51.5297 48.9586ZM51.5297 45.0429C50.5212 45.2546 49.7562 45.5721 49.2345 45.9601C48.7477 46.3481 48.5043 46.842 48.5043 47.4064C48.5043 47.8297 48.6434 48.1825 48.9216 48.4294C49.1998 48.6764 49.5475 48.7822 49.93 48.7822C50.243 48.7822 50.5212 48.7116 50.7994 48.5353C51.0776 48.3589 51.2515 48.1472 51.3906 47.8297C51.4601 47.477 51.5297 46.842 51.5297 45.9954V45.0429Z" fill="#004577"/>
<path d="M69.6473 48.9586L68.604 50.3696C68.4302 50.5813 68.2563 50.7224 68.1172 50.7929C67.9781 50.8635 67.7347 50.8988 67.3869 50.8988C66.761 50.8988 66.2046 50.7577 65.7525 50.5107C65.2657 50.2638 64.8831 49.911 64.6397 49.4524C64.3615 48.9939 64.2224 48.5 64.2224 47.9356C64.2224 47.2653 64.4311 46.7009 64.8484 46.1718C65.2657 45.6779 65.8568 45.2546 66.6914 44.9018C67.4912 44.5491 68.4997 44.3374 69.6821 44.1963C69.6473 43.6672 69.5082 43.2439 69.2648 42.9616C69.0213 42.6794 68.604 42.5383 68.0476 42.5383C67.4912 42.5383 67.0392 42.6089 66.6219 42.7853C66.2046 42.9616 65.8221 43.2439 65.4048 43.6672L64.9875 43.4555L65.8221 41.4095C65.9959 41.092 66.2741 40.8804 66.6567 40.7745C67.0392 40.6687 67.5956 40.6334 68.2911 40.6334C69.3691 40.6334 70.1689 40.8451 70.7949 41.2684C71.5599 41.7975 71.9424 42.6442 71.9424 43.8435V44.9724V46.6304C71.9424 47.4064 72.012 47.9708 72.1859 48.2883C72.3597 48.6411 72.6727 48.8527 73.1595 48.9586V49.3466C72.4641 49.8405 72.012 50.158 71.8033 50.2991C71.5947 50.4402 71.386 50.5813 71.2469 50.6518C71.1078 50.7224 70.9687 50.7929 70.8992 50.7929C70.621 50.7929 70.3428 50.5813 70.1341 50.158C69.8907 49.7347 69.7168 49.3466 69.6473 48.9586ZM69.6473 45.0429C68.6388 45.2546 67.8738 45.5721 67.3869 45.9601C66.9001 46.3481 66.6567 46.842 66.6567 47.4064C66.6567 47.8297 66.7958 48.1825 67.0739 48.4294C67.3521 48.6764 67.6999 48.7822 68.0824 48.7822C68.3954 48.7822 68.6736 48.7116 68.9518 48.5353C69.23 48.3589 69.4039 48.1472 69.543 47.8297C69.6125 47.477 69.6821 46.842 69.6821 45.9954V45.0429H69.6473Z" fill="#004577"/>
<path d="M75.5591 42.0798C75.5243 42.75 75.5243 43.4908 75.5243 44.3022V46.066C75.5243 47.089 75.6982 47.7945 75.9764 48.2178C76.2546 48.6411 76.7067 48.888 77.3674 48.888C77.5065 48.888 77.7151 48.8528 78.0629 48.7822L78.2368 49.1703L75.8373 50.6518C75.6982 50.7577 75.5243 50.793 75.3504 50.793C75.0722 50.793 74.7593 50.6871 74.4463 50.4402C73.716 49.9111 73.3683 48.9586 73.3683 47.6534C73.3683 47.2653 73.3683 46.8773 73.403 46.5245C73.4378 44.6196 73.4726 43.3497 73.4726 42.8206L73.5074 42.0798C73.0553 42.0798 72.6032 42.115 72.2207 42.1856V41.6565C72.6032 41.4448 72.8814 41.2331 73.0553 41.0215C73.2292 40.8451 73.3335 40.5982 73.403 40.2807C73.4726 39.9632 73.4726 39.5399 73.4726 38.9402C73.4726 38.658 73.5074 38.4463 73.5421 38.3052C73.6117 38.1641 73.716 38.0583 73.8551 37.9877C74.8288 37.4233 75.3157 37.1411 75.42 37.1411C75.5591 37.1411 75.6634 37.2469 75.6982 37.4233C75.733 37.5997 75.7677 37.8466 75.7677 38.1641C75.6982 38.7285 75.6634 39.1166 75.6634 39.3635C75.6634 39.6104 75.6286 39.8221 75.6286 39.9985C75.6286 40.2101 75.6286 40.4571 75.6286 40.7393H77.9238L77.4022 42.0798C77.2631 42.0798 77.0892 42.0798 76.8805 42.0445C76.6719 42.0445 76.4632 42.0445 76.2546 42.0445C75.8721 42.0798 75.6634 42.0798 75.5591 42.0798Z" fill="#004577"/>
<path d="M83.5225 48.9586L82.4793 50.3696C82.3054 50.5813 82.1315 50.7224 81.9924 50.7929C81.8533 50.8635 81.6099 50.8988 81.2622 50.8988C80.6362 50.8988 80.1146 50.7577 79.6278 50.5107C79.1409 50.2638 78.7584 49.911 78.515 49.4524C78.2368 48.9939 78.0977 48.5 78.0977 47.9356C78.0977 47.2653 78.3063 46.7009 78.7236 46.1718C79.1409 45.6779 79.7321 45.2546 80.5667 44.9018C81.3665 44.5491 82.375 44.3374 83.5573 44.1963C83.5225 43.6672 83.3834 43.2439 83.14 42.9616C82.8966 42.6794 82.4793 42.5383 81.9229 42.5383C81.3665 42.5383 80.9144 42.6089 80.4971 42.7853C80.0798 42.9616 79.6973 43.2439 79.28 43.6672L78.8627 43.4555L79.6973 41.4095C79.8712 41.092 80.1494 40.8804 80.5319 40.7745C80.9144 40.6687 81.4708 40.6334 82.1663 40.6334C83.2096 40.6334 84.0442 40.8451 84.6353 41.2684C85.4004 41.7975 85.7829 42.6442 85.7829 43.8435V44.9724V46.6304C85.7829 47.4064 85.8524 47.9708 86.0263 48.2883C86.2002 48.6411 86.5132 48.8527 87 48.9586V49.3466C86.3045 49.8405 85.8524 50.158 85.6438 50.2991C85.4351 50.4402 85.2265 50.5813 85.0874 50.6518C84.9483 50.7224 84.8092 50.7929 84.7397 50.7929C84.4615 50.7929 84.1833 50.5813 83.9746 50.158C83.7312 49.7347 83.5921 49.3466 83.5225 48.9586ZM83.5225 45.0429C82.5141 45.2546 81.7838 45.5721 81.2622 45.9601C80.7753 46.3481 80.5319 46.842 80.5319 47.4064C80.5319 47.8297 80.671 48.1825 80.9492 48.4294C81.2274 48.6764 81.5751 48.7822 81.9229 48.7822C82.2359 48.7822 82.5141 48.7116 82.7923 48.5353C83.0705 48.3589 83.2443 48.1472 83.3834 47.8297C83.453 47.477 83.5225 46.842 83.5225 45.9954V45.0429Z" fill="#004577"/>
<path d="M35.881 53.2623H37.7588L37.9675 53.5798C38.0718 53.7209 38.1761 53.862 38.2804 54.0384C38.3848 54.1795 38.7325 54.6028 39.2541 55.3083C39.7758 56.0139 40.2974 56.6136 40.7495 57.1427C40.7495 56.8605 40.7495 56.6841 40.7495 56.5783V55.6258L40.7147 54.5675C40.7147 54.2853 40.6799 54.0737 40.6451 53.9679C40.6104 53.862 40.5408 53.7562 40.4017 53.7209C40.2626 53.6856 40.054 53.6151 39.7758 53.5445V53.2976H41.4102C41.5145 53.2976 41.6188 53.3329 41.6884 53.4034C41.7579 53.474 41.7927 53.5445 41.7927 53.6856L41.7579 54.109L41.7232 55.5906L41.6884 57.3896V59.4709V60.0353H41.3059C41.3059 60.0353 41.2363 59.9295 41.0624 59.6826C40.8886 59.4356 40.6799 59.1534 40.4365 58.8359C40.1931 58.5185 39.9844 58.2363 39.8801 58.0599C39.741 57.8835 39.6367 57.7424 39.5671 57.6366L37.6893 55.3436V56.3313C37.6893 57.2485 37.6893 57.8835 37.6893 58.2363C37.6893 58.589 37.724 58.8712 37.7936 59.0476C37.8631 59.224 37.9327 59.3651 38.0718 59.4004C38.2109 59.4356 38.4195 59.5062 38.7325 59.612V59.859H36.8895C36.646 59.859 36.5417 59.7179 36.5417 59.4004L36.5765 59.1182C36.646 58.589 36.6808 58.0599 36.6808 57.5307C36.6808 57.0016 36.7156 56.3666 36.7156 55.5553C36.7156 55.0261 36.7156 54.6381 36.7156 54.4264C36.7156 54.2148 36.6808 54.0384 36.646 53.9326C36.6113 53.8267 36.5417 53.7209 36.4374 53.6856C36.3331 53.6151 36.1592 53.5798 35.9505 53.5093V53.2623H35.881Z" fill="#004577"/>
<path d="M44.5398 59.0123L44.0182 59.6826C43.9139 59.7884 43.8443 59.8589 43.7748 59.8942C43.7052 59.9295 43.6009 59.9295 43.4271 59.9295C43.1141 59.9295 42.8707 59.8589 42.6272 59.7531C42.3838 59.6473 42.2099 59.4709 42.0708 59.2592C41.9317 59.0476 41.8622 58.8007 41.8622 58.5184C41.8622 58.201 41.9665 57.9188 42.1752 57.6718C42.3838 57.4249 42.662 57.2132 43.0793 57.0721C43.4966 56.931 43.9487 56.7899 44.5398 56.7194C44.5398 56.4724 44.4703 56.2608 44.3312 56.1197C44.1921 55.9786 44.0182 55.908 43.74 55.908C43.4618 55.908 43.2532 55.9433 43.0445 56.0138C42.8359 56.0844 42.662 56.2255 42.4534 56.4372L42.2447 56.3313L42.662 55.3436C42.7316 55.2025 42.8707 55.0967 43.0793 55.0261C43.2532 54.9908 43.5314 54.9556 43.8791 54.9556C44.4007 54.9556 44.7833 55.0614 45.0962 55.2378C45.4788 55.4847 45.6526 55.908 45.6526 56.4724V57.0369V57.8129C45.6526 58.1657 45.6874 58.4479 45.7917 58.6243C45.8613 58.8007 46.0352 58.9065 46.2786 58.9418V59.1181C45.9308 59.3651 45.7222 59.5062 45.6179 59.5767C45.5135 59.6473 45.4092 59.7178 45.3397 59.7531C45.2701 59.7884 45.2006 59.8237 45.1658 59.8237C45.0267 59.8237 44.8876 59.7178 44.7833 59.5062C44.6442 59.3651 44.5746 59.1887 44.5398 59.0123ZM44.5398 57.1074C44.053 57.2132 43.6705 57.3543 43.4618 57.5307C43.2184 57.7071 43.1141 57.954 43.1141 58.2362C43.1141 58.4479 43.1836 58.589 43.3227 58.7301C43.4618 58.8712 43.6357 58.9065 43.8096 58.9065C43.9487 58.9065 44.0878 58.8712 44.2269 58.8007C44.366 58.7301 44.4355 58.6243 44.5051 58.4479C44.5398 58.2715 44.5746 57.9893 44.5746 57.566V57.1074H44.5398Z" fill="#004577"/>
<path d="M47.3566 55.6963C47.3566 56.0137 47.3219 56.3665 47.3219 56.7545V57.6012C47.3219 58.095 47.4262 58.4478 47.5653 58.6595C47.7044 58.8711 47.9478 58.9769 48.2956 58.9769C48.3651 58.9769 48.4694 58.9769 48.6433 58.9417L48.7476 59.118L47.4957 59.8236C47.4262 59.8588 47.3219 59.8941 47.2175 59.8941C47.0784 59.8941 46.9046 59.8236 46.7307 59.7177C46.3482 59.4708 46.1395 59.0122 46.1395 58.3772C46.1395 58.2009 46.1395 57.9892 46.1743 57.8481C46.2091 56.9309 46.2091 56.3312 46.2091 56.049L46.2438 55.6963C46.0004 55.6963 45.757 55.6963 45.5483 55.7315V55.4846C45.757 55.3788 45.8961 55.2729 46.0004 55.2024C46.1047 55.1318 46.1395 54.9907 46.1743 54.8496C46.2091 54.7085 46.2091 54.4969 46.2091 54.2147C46.2091 54.0736 46.2091 53.9677 46.2438 53.8972C46.2786 53.8266 46.3134 53.7914 46.4177 53.7561C46.9046 53.4739 47.1828 53.368 47.2523 53.368C47.3219 53.368 47.3914 53.4033 47.3914 53.5091C47.4262 53.5797 47.4262 53.7208 47.4262 53.8619C47.3914 54.1441 47.3566 54.3205 47.3566 54.4263C47.3566 54.5322 47.3566 54.638 47.3219 54.7438C47.3219 54.8496 47.3219 54.9555 47.3219 55.0966H48.539L48.2608 55.7315C48.1912 55.7315 48.0869 55.7315 47.9826 55.7315C47.8783 55.7315 47.7739 55.7315 47.6696 55.7315C47.5305 55.661 47.4262 55.6963 47.3566 55.6963Z" fill="#004577"/>
<path d="M48.0869 55.0614H48.7476L48.6433 53.5798C48.6433 53.4387 48.6781 53.3682 48.7128 53.2976C48.7476 53.2271 48.8867 53.2271 49.0606 53.2271H49.7213C49.8604 53.2271 49.9647 53.2623 49.9995 53.2976C50.0343 53.3329 50.0691 53.4034 50.0691 53.5445L50.0343 54.1795C50.0343 54.3206 49.9647 54.3912 49.8952 54.4264C49.8256 54.4617 49.6865 54.4617 49.4779 54.4617C49.3388 54.4617 49.2345 54.497 49.1997 54.5675C49.1301 54.6381 49.0258 54.8145 48.9215 55.0614H49.6518C49.8256 55.0614 49.9647 55.0967 49.9995 55.2025C50.0343 55.3083 50.0691 55.4494 50.0691 55.6964L50.0343 56.4725L49.9995 57.8129C49.9995 58.201 49.9995 58.4832 50.0343 58.6948C50.0343 58.9065 50.0691 59.0476 50.1386 59.1534C50.1734 59.2593 50.2429 59.3651 50.3473 59.4004C50.4864 59.4709 50.695 59.5415 50.9732 59.612V59.859H49.1301C48.8867 59.859 48.7824 59.7178 48.7824 59.4356C48.7824 59.4356 48.7824 59.4004 48.7824 59.3298C48.7824 59.2593 48.7824 59.1887 48.7824 59.1182C48.7824 59.0476 48.7824 59.0123 48.7824 59.0123C48.8519 58.1657 48.8867 57.4955 48.8867 56.9663C48.8867 56.4724 48.8867 56.1197 48.8519 55.9433C48.8172 55.7669 48.7824 55.6258 48.6781 55.5553C48.6085 55.4847 48.5042 55.4494 48.3303 55.3789C48.1912 55.3436 48.0521 55.3083 48.0173 55.3083V55.0614H48.0869Z" fill="#004577"/>
<path d="M53.964 55.3083C54.3117 55.52 54.5899 55.8374 54.7985 56.2255C55.0072 56.6135 55.1115 57.0368 55.1115 57.5307C55.1115 57.9893 55.0072 58.3773 54.7985 58.7654C54.5899 59.1181 54.3117 59.4003 53.964 59.612C53.6162 59.8236 53.1989 59.9295 52.7468 59.9295C52.3295 59.9295 51.947 59.8236 51.5993 59.612C51.2515 59.4003 50.9733 59.0828 50.7994 58.6948C50.5908 58.3068 50.5212 57.8835 50.5212 57.4249C50.5212 57.0721 50.5908 56.7546 50.6951 56.4724C50.7994 56.1902 50.9733 55.908 51.1472 55.6963C51.3211 55.4847 51.5993 55.3083 51.8775 55.2025C52.1557 55.0966 52.4686 55.0261 52.7816 55.0261C53.1989 54.9908 53.6162 55.0966 53.964 55.3083ZM51.9122 55.9433C51.7384 56.1549 51.6688 56.4724 51.6688 56.8252C51.6688 57.1074 51.7036 57.3896 51.7731 57.7071C51.8427 58.0246 51.9122 58.3068 52.0166 58.5184C52.2948 59.0476 52.6077 59.2945 52.9903 59.2945C53.2685 59.2945 53.4771 59.1887 53.651 58.977C53.8248 58.7654 53.8944 58.4479 53.8944 58.0951C53.8944 57.7776 53.8596 57.4601 53.7901 57.1074C53.7205 56.7546 53.6162 56.4724 53.4771 56.2255C53.2337 55.8022 52.9555 55.5905 52.573 55.5905C52.2948 55.6258 52.0861 55.7316 51.9122 55.9433Z" fill="#004577"/>
<path d="M54.6942 55.0614H56.1895C56.3286 55.0614 56.4329 55.0967 56.4677 55.1672C56.5025 55.2378 56.5373 55.3436 56.5373 55.52V56.155L56.9893 55.3436C57.0589 55.2025 57.1632 55.132 57.2675 55.0967C57.4066 55.0614 57.5805 55.0261 57.8239 55.0261C58.3108 55.0261 58.6933 55.2378 58.9715 55.6611C59.0758 55.8727 59.1106 56.2961 59.1106 56.8605L59.1454 58.4832C59.1454 58.8007 59.1802 59.0123 59.2149 59.1534C59.2497 59.2945 59.3193 59.4004 59.4236 59.4709C59.5279 59.5415 59.7366 59.612 59.98 59.6826V59.9295H58.3803C58.1021 59.9295 57.963 59.7531 57.963 59.4356C57.963 59.3651 57.963 59.2593 57.9978 59.1181C57.9978 58.977 58.0326 58.8712 58.0326 58.7654C58.0674 58.0951 58.1021 57.566 58.1021 57.2485C58.1021 56.8605 58.0326 56.5783 57.9283 56.4019C57.7892 56.2255 57.6153 56.155 57.3371 56.155C57.0937 56.155 56.9198 56.2255 56.7807 56.3666C56.6764 56.5077 56.572 56.6841 56.5373 56.8958C56.5025 57.1074 56.5025 57.3191 56.5025 57.6013C56.5025 58.0951 56.5025 58.4832 56.5373 58.6948C56.5373 58.9418 56.572 59.1181 56.6068 59.224C56.6416 59.3298 56.7111 59.4356 56.8155 59.4709C56.9198 59.5415 57.1284 59.5767 57.4414 59.6473V59.8942H55.7374C55.4592 59.8942 55.3201 59.7178 55.3201 59.4004C55.3201 59.3298 55.3201 59.1887 55.3549 59.0123C55.3897 58.8359 55.3897 58.7301 55.3897 58.6596L55.4245 57.8129C55.4245 57.6013 55.4245 57.2485 55.4245 56.7194C55.4245 56.3313 55.4245 56.0491 55.3897 55.8727C55.3549 55.6964 55.3201 55.5905 55.2506 55.52C55.181 55.4494 55.0767 55.4142 54.9376 55.3789C54.7985 55.3436 54.6942 55.3083 54.6594 55.3083V55.0614H54.6942Z" fill="#004577"/>
<path d="M62.6576 59.0123L62.136 59.6826C62.0317 59.7884 61.9621 59.8589 61.8926 59.8942C61.823 59.9295 61.7187 59.9295 61.5448 59.9295C61.2319 59.9295 60.9885 59.8589 60.745 59.7531C60.5016 59.6473 60.3277 59.4709 60.1886 59.2592C60.0495 59.0476 59.98 58.8007 59.98 58.5184C59.98 58.201 60.0843 57.9188 60.293 57.6718C60.5016 57.4249 60.7798 57.2132 61.1971 57.0721C61.5796 56.8958 62.0665 56.7899 62.6576 56.7194C62.6576 56.4724 62.5881 56.2608 62.449 56.1197C62.3099 55.9786 62.136 55.908 61.8578 55.908C61.5796 55.908 61.371 55.9433 61.1623 56.0138C60.9537 56.0844 60.7798 56.2255 60.5712 56.4372L60.3625 56.3313L60.7798 55.3436C60.8493 55.2025 60.9885 55.0967 61.1971 55.0261C61.371 54.9908 61.6492 54.9556 61.9969 54.9556C62.5185 54.9556 62.9358 55.0614 63.214 55.2378C63.5966 55.4847 63.7704 55.908 63.7704 56.4724V57.0369V57.8129C63.7704 58.1657 63.8052 58.4479 63.9095 58.6243C63.9791 58.8007 64.153 58.9065 64.3964 58.9418V59.1181C64.0486 59.3651 63.84 59.5062 63.7357 59.5767C63.6313 59.6473 63.527 59.7178 63.4575 59.7531C63.3879 59.7884 63.3184 59.8237 63.2836 59.8237C63.1445 59.8237 63.0054 59.7178 62.9011 59.5062C62.762 59.3651 62.6924 59.1887 62.6576 59.0123ZM62.6576 57.1074C62.1708 57.2132 61.7883 57.3543 61.5448 57.5307C61.3014 57.7071 61.1971 57.954 61.1971 58.2362C61.1971 58.4479 61.2666 58.589 61.4057 58.7301C61.5448 58.8359 61.7187 58.9065 61.8926 58.9065C62.0317 58.9065 62.1708 58.8712 62.3099 58.8007C62.449 58.7301 62.5185 58.6243 62.5881 58.4479C62.6229 58.2715 62.6576 57.9893 62.6576 57.566V57.1074Z" fill="#004577"/>
<path d="M63.7356 53.2623H65.1614C65.3005 53.2623 65.4048 53.2976 65.4743 53.4034C65.5439 53.5093 65.5439 53.6151 65.5439 53.8267L65.5091 55.0261C65.5091 55.2731 65.4743 55.6258 65.4743 56.1197C65.4743 56.2961 65.4743 56.543 65.4743 56.8605C65.4743 57.178 65.4743 57.4249 65.4743 57.6013L65.5091 58.6243C65.5091 58.8359 65.5439 59.0123 65.5787 59.1534C65.6134 59.2593 65.6482 59.3651 65.7525 59.4356C65.8221 59.5062 65.9612 59.5415 66.1003 59.612L66.3089 59.6826V59.9295H64.7441C64.5702 59.9295 64.4659 59.8942 64.4311 59.8237C64.3615 59.7531 64.3615 59.6473 64.3615 59.5062V59.1182C64.4311 58.2363 64.4659 57.4602 64.4659 56.7899V55.1672C64.4659 54.7792 64.4659 54.5323 64.4659 54.3559C64.4659 54.2148 64.4311 54.0737 64.3963 53.9679C64.3615 53.862 64.292 53.7915 64.1877 53.7562C64.0833 53.7209 63.9442 53.6504 63.7356 53.5798V53.2623Z" fill="#004577"/>
<path d="M67.5261 53.227C67.9086 53.227 68.2564 53.2623 68.6389 53.2623C68.9867 53.2623 69.3692 53.2623 69.7517 53.227C70.169 53.227 70.4472 53.1918 70.5863 53.1918C70.7254 53.1918 70.795 53.1918 70.795 53.1918C71.0384 53.1918 71.247 53.2623 71.4557 53.3682C71.6643 53.474 71.8382 53.6151 71.9773 53.8267C72.1164 54.0384 72.186 54.2501 72.186 54.5323C72.186 54.7792 72.1164 55.0261 72.0121 55.2378C71.9078 55.4494 71.7339 55.6258 71.5252 55.7669C71.3166 55.908 71.0384 56.0139 70.7254 56.0491C71.2818 56.0491 71.6643 56.1197 71.9078 56.2255C72.1512 56.3313 72.3598 56.4724 72.4989 56.6841C72.638 56.8958 72.6728 57.1427 72.6728 57.3896C72.6728 57.7424 72.6032 58.0599 72.4294 58.4126C72.2555 58.7654 72.0469 59.0476 71.8382 59.2593C71.56 59.5062 71.2818 59.6473 70.9688 59.7531C70.6559 59.8589 70.2386 59.8942 69.7169 59.8942H68.6041C68.4303 59.8942 68.2912 59.8589 68.2216 59.7531C68.1521 59.6826 68.1521 59.5415 68.1521 59.3298L68.1868 58.6243L68.2564 57.3191C68.2912 56.6841 68.2912 56.1197 68.2912 55.6611C68.2912 55.132 68.2912 54.7439 68.2912 54.5323C68.2912 54.3206 68.2564 54.1442 68.2216 54.0031C68.1868 53.862 68.1173 53.7915 68.0477 53.7209C67.9782 53.6856 67.9086 53.6151 67.8043 53.5798C67.7 53.5445 67.6304 53.5093 67.5261 53.474V53.227ZM69.4735 59.1534C69.5431 59.1534 69.6126 59.1534 69.7169 59.1534C70.2038 59.1534 70.5863 59.0476 70.9341 58.8359C71.2818 58.6243 71.4209 58.2715 71.4209 57.7424C71.4209 56.931 71.0036 56.5077 70.1342 56.5077C69.8908 56.5077 69.7169 56.5077 69.6126 56.543C69.5083 56.5783 69.4387 56.6136 69.3692 56.7194C69.3344 56.7899 69.2996 56.8958 69.2996 57.0369V57.1074C69.2996 57.1074 69.2996 57.2838 69.3344 57.566C69.3344 57.8482 69.3344 58.0951 69.3692 58.3068C69.404 58.5185 69.4387 58.8007 69.4735 59.1534ZM69.404 53.8267C69.404 54.0031 69.404 54.2853 69.404 54.7086V56.1197C69.404 56.2608 69.4387 56.3313 69.5083 56.3313C69.5778 56.3313 69.6474 56.1197 69.7517 55.7316C70.0995 55.7316 70.4124 55.6611 70.6559 55.52C70.8993 55.3789 71.0384 55.0967 71.0384 54.7792C71.0384 54.1442 70.6559 53.862 69.856 53.862C69.6474 53.8267 69.5083 53.8267 69.404 53.8267Z" fill="#004577"/>
<path d="M75.4201 59.0123L74.9332 59.6826C74.8637 59.7884 74.7593 59.8589 74.7246 59.8942C74.655 59.9295 74.5507 59.9295 74.3768 59.9295C74.0986 59.9295 73.8552 59.8589 73.6465 59.7531C73.4379 59.6473 73.264 59.4709 73.1249 59.2592C72.9858 59.0476 72.951 58.8007 72.951 58.5184C72.951 58.201 73.0554 57.9188 73.2292 57.6718C73.4031 57.4249 73.6813 57.2132 74.0638 57.0721C74.4464 56.931 74.8984 56.7899 75.4201 56.7194C75.4201 56.4724 75.3505 56.2608 75.2462 56.1197C75.1419 55.9786 74.9332 55.908 74.6898 55.908C74.4464 55.908 74.2377 55.9433 74.0291 56.0138C73.8552 56.0844 73.6465 56.2255 73.4727 56.4372L73.2988 56.3313L73.6813 55.3436C73.7509 55.2025 73.89 55.0967 74.0638 55.0261C74.2377 54.9908 74.4811 54.9556 74.7941 54.9556C75.281 54.9556 75.6635 55.0614 75.9069 55.2378C76.2547 55.4847 76.4285 55.908 76.4285 56.4724V57.0369V57.8129C76.4285 58.1657 76.4633 58.4479 76.5329 58.6243C76.6024 58.8007 76.7415 58.9065 76.9849 58.9418V59.1181C76.672 59.3651 76.4633 59.5062 76.359 59.5767C76.2547 59.6473 76.1851 59.7178 76.1156 59.7531C76.046 59.7884 76.0112 59.8237 75.9417 59.8237C75.8026 59.8237 75.6983 59.7178 75.5939 59.5062C75.4896 59.2945 75.4548 59.1887 75.4201 59.0123ZM75.4201 57.1074C74.968 57.2132 74.6202 57.3543 74.4116 57.5307C74.2029 57.7071 74.0638 57.954 74.0638 58.2362C74.0638 58.4479 74.1334 58.589 74.2377 58.7301C74.3768 58.8359 74.5159 58.9065 74.6898 58.9065C74.8289 58.9065 74.968 58.8712 75.0723 58.8007C75.1766 58.7301 75.281 58.6243 75.3505 58.4479C75.3853 58.2715 75.4201 57.9893 75.4201 57.566V57.1074Z" fill="#004577"/>
<path d="M76.6719 55.0614H78.1324C78.2715 55.0614 78.3411 55.0967 78.4106 55.1672C78.4802 55.2378 78.4802 55.3436 78.4802 55.52V56.155L78.9322 55.3436C79.0018 55.2025 79.1061 55.132 79.2104 55.0967C79.3147 55.0614 79.5234 55.0261 79.7668 55.0261C80.2537 55.0261 80.6014 55.2378 80.8796 55.6611C80.9839 55.8727 81.0187 56.2961 81.0187 56.8605L81.0535 58.4832C81.0535 58.8007 81.0883 59.0123 81.123 59.1534C81.1578 59.2945 81.2274 59.4004 81.3317 59.4709C81.436 59.5415 81.6099 59.612 81.8881 59.6826V59.9295H80.3232C80.045 59.9295 79.9059 59.7531 79.9059 59.4356C79.9059 59.3651 79.9059 59.2593 79.9407 59.1181C79.9755 58.977 79.9755 58.8712 79.9755 58.7654C80.0102 58.0951 80.045 57.566 80.045 57.2485C80.045 56.8605 79.9755 56.5783 79.8711 56.4019C79.732 56.2255 79.5582 56.155 79.28 56.155C79.0366 56.155 78.8627 56.2255 78.7584 56.3666C78.654 56.5077 78.5497 56.6841 78.5497 56.8958C78.5149 57.1074 78.5149 57.3191 78.5149 57.6013C78.5149 58.0951 78.5149 58.4832 78.5497 58.6948C78.5497 58.9418 78.5845 59.1181 78.6193 59.224C78.654 59.3298 78.7236 59.4356 78.7931 59.4709C78.8974 59.5415 79.1061 59.5767 79.3843 59.6473V59.8942H77.7151C77.4369 59.8942 77.2978 59.7178 77.2978 59.4004C77.2978 59.3298 77.2978 59.1887 77.3326 59.0123C77.3674 58.8359 77.3674 58.7301 77.3674 58.6596L77.4021 57.8129C77.4021 57.6013 77.4021 57.2485 77.4021 56.7194C77.4021 56.3313 77.4021 56.0491 77.3674 55.8727C77.3326 55.6964 77.2978 55.5905 77.2283 55.52C77.1587 55.4494 77.0544 55.4142 76.9153 55.3789C76.7762 55.3436 76.6719 55.3083 76.6371 55.3083V55.0614H76.6719Z" fill="#004577"/>
<path d="M81.2622 53.2623H82.7227C82.8618 53.2623 82.9314 53.2976 82.9662 53.3329C83.0009 53.4034 83.0357 53.474 83.0357 53.6151V54.1442V55.3789V56.155V56.543C83.0357 56.7547 83.0705 56.8605 83.1053 56.8605C83.1401 56.8605 83.2444 56.8252 83.3487 56.7194C83.453 56.6488 83.5921 56.543 83.7312 56.4019C83.8703 56.2961 84.0094 56.155 84.1137 56.0844C84.2181 56.0139 84.2876 55.908 84.3572 55.8375C84.4267 55.7317 84.4615 55.6611 84.4615 55.5906C84.4615 55.4847 84.3919 55.4142 84.2528 55.4142C84.1137 55.3789 84.0094 55.3436 83.9399 55.3436C83.9399 55.3436 83.9051 55.3436 83.8703 55.3436V55.0967H85.47C85.5743 55.0967 85.6438 55.0967 85.7134 55.132C85.7482 55.1672 85.7829 55.2025 85.7829 55.3083C85.7829 55.3789 85.7134 55.4847 85.6091 55.5906C85.5047 55.6964 85.2961 55.8728 85.0179 56.0844C84.6006 56.4019 84.1833 56.6841 83.6964 56.9663L84.1485 57.0369C84.3572 57.0721 84.531 57.1427 84.6701 57.2485C84.7397 57.3191 84.8092 57.3896 84.844 57.4955C85.157 58.0599 85.3656 58.4479 85.5047 58.6948C85.6438 58.9418 85.7134 59.0829 85.7482 59.1534C85.7829 59.224 85.8177 59.2593 85.8525 59.3298C85.922 59.4004 85.9568 59.4709 86.0264 59.5062C86.0959 59.5415 86.2002 59.5767 86.3393 59.6473L86.548 59.6826V59.9295H85.0527C84.9483 59.9295 84.844 59.8942 84.7745 59.7884C84.7049 59.6826 84.6354 59.5415 84.5658 59.3298L84.1137 58.1657C84.0094 57.8835 83.9051 57.7071 83.8355 57.6013C83.766 57.4955 83.6964 57.4249 83.6269 57.3896C83.5573 57.3544 83.4182 57.3191 83.2791 57.3191C83.1748 57.3191 83.1053 57.3544 83.1053 57.4249C83.0705 57.4955 83.0705 57.6013 83.0705 57.7777C83.0705 58.2363 83.1053 58.589 83.1053 58.7654C83.1053 58.9418 83.14 59.1182 83.1748 59.224C83.2096 59.3298 83.2791 59.4004 83.3835 59.4709C83.4878 59.5062 83.6269 59.5767 83.8008 59.612C83.8355 59.6473 83.9051 59.6473 84.0094 59.6473V59.8942H82.2707C82.0273 59.8942 81.8882 59.7179 81.8882 59.3651C81.8882 59.2593 81.8882 59.1182 81.9229 58.9418C81.9577 58.7654 81.9577 58.6596 81.9577 58.589C81.9577 58.4126 81.9577 58.3068 81.9577 58.2363L81.9925 56.8605C81.9925 56.5077 82.0273 56.155 82.0273 55.7669C82.0273 55.4142 82.0273 55.0261 81.9925 54.6734C81.9925 54.3912 81.9577 54.1795 81.9577 54.0384C81.9229 53.8973 81.8882 53.8267 81.8186 53.7562C81.7491 53.7209 81.6795 53.6504 81.5404 53.6151C81.4013 53.5445 81.3318 53.5445 81.2622 53.5093V53.2623Z" fill="#004577"/>
<path fill-rule="evenodd" clip-rule="evenodd" d="M33.4815 54.2852V57.2484C33.4815 57.7423 33.0642 58.1303 32.5774 58.1303H11.6081C11.1213 58.1303 10.704 57.7423 10.704 57.2484V55.8021C10.704 55.661 12.6514 55.4846 16.7896 53.1564C16.8591 53.1211 16.9635 53.0153 16.9635 53.0506C16.268 58.5889 19.5716 55.026 22.9795 53.4033C23.0143 53.4033 23.0838 53.2975 23.0838 53.368C22.5622 58.6595 26.6656 54.5322 29.4476 53.2975C29.4824 53.2975 29.552 53.2622 29.552 53.2975C29.0999 58.9064 33.4815 54.1088 33.4815 54.2852Z" fill="white"/>
<path fill-rule="evenodd" clip-rule="evenodd" d="M33.4815 55.5552V57.2131C33.4815 57.707 33.0642 58.095 32.5774 58.095H11.6081C11.1213 58.095 10.704 57.707 10.704 57.2131V56.7546C10.704 56.6135 11.8863 56.7898 16.0245 54.4263C16.0941 54.3911 16.1984 54.25 16.1984 54.3205C15.8159 59.2944 20.4757 55.5199 22.2145 54.6733C22.2492 54.638 22.3188 54.5674 22.3188 54.638C23.0491 58.8358 25.9006 55.8021 28.6826 54.5674C28.7174 54.5674 28.7869 54.5322 28.7869 54.5674C28.8912 59.5061 33.4815 55.4141 33.4815 55.5552Z" fill="#004577"/>
<path d="M54.9029 52.0628L54.9376 51.8864V51.7453V51.569V51.4631H35.9506V52.2039H54.9029V52.0628Z" fill="#922C46"/>
<path d="M58.0326 51.4631V51.6748L58.0674 51.957L58.1369 52.1687V52.2039H86.9653V51.4631H58.0326Z" fill="#922C46"/>
<path d="M53.8596 40.7392H56.7112C57.1632 40.7392 57.4414 40.7745 57.5805 40.8804C57.7196 40.9862 57.7892 41.1626 57.7892 41.48V42.75L58.9715 40.9509C59.1454 40.704 59.5279 40.5981 60.1191 40.5981C60.6755 40.5981 61.1971 40.704 61.684 40.9509C62.1708 41.1978 62.5533 41.48 62.9011 41.9034C63.2488 42.3267 63.4923 42.8205 63.7009 43.385C63.8748 43.9494 63.9791 44.5843 63.9791 45.2546C63.9791 46.3129 63.7705 47.2653 63.3532 48.1119C62.9359 48.9586 62.3795 49.6288 61.6492 50.1227C60.9189 50.6166 60.0843 50.8282 59.1802 50.8282C58.7281 50.8282 58.2412 50.7577 57.6501 50.5813C57.6501 51.2162 57.6849 51.7101 57.7196 52.0276C57.7544 52.3451 57.824 52.592 57.8935 52.8037C57.9978 52.98 58.1022 53.1212 58.276 53.227C58.3803 53.2623 58.4847 53.2975 58.6933 53.3681C58.8672 53.4034 59.0411 53.4739 59.2149 53.5092C59.3888 53.5445 59.5279 53.5797 59.7018 53.5797V54.0736H56.12C55.8418 54.0736 55.6331 54.0383 55.494 53.9325C55.3549 53.8619 55.2854 53.7208 55.2506 53.5445C55.2158 53.3681 55.1811 53.1212 55.1811 52.8037L55.3202 50.7929C55.3549 49.7346 55.3897 48.8527 55.4245 48.1472C55.4593 47.477 55.4593 46.7362 55.494 45.9248C55.5288 45.1488 55.5288 44.3374 55.5288 43.5261C55.5288 42.9264 55.494 42.4678 55.4245 42.2208C55.3549 41.9386 55.2506 41.7623 55.042 41.6212C54.8681 41.5153 54.6594 41.4095 54.3812 41.3389C54.103 41.2684 53.9292 41.2331 53.8596 41.2331V40.7392ZM57.7544 43.5613L57.7196 46.2776V47.4064C57.7196 48.1825 57.824 48.7469 58.0674 49.0997C58.3108 49.4524 58.6933 49.6288 59.2149 49.6288C59.667 49.6288 60.1191 49.4877 60.4668 49.1702C60.8494 48.8527 61.1276 48.4294 61.3014 47.865C61.5101 47.3006 61.6144 46.6656 61.6144 45.9248C61.6144 45.431 61.5796 45.0077 61.4753 44.6196C61.371 44.2316 61.2319 43.9141 61.058 43.6319C60.8841 43.3497 60.6407 43.138 60.3973 42.9969C60.1539 42.8558 59.8409 42.7853 59.5279 42.7853C58.9367 42.7853 58.3456 43.0322 57.7544 43.5613Z" fill="#004577"/>
</g>
<defs>
<clipPath id="clip0_1_6120">
<rect width="78" height="23" fill="white" transform="translate(9 37)"/>
</clipPath>
</defs>
</svg>
