<svg width="96" height="96" viewBox="0 0 96 96" fill="none" xmlns="http://www.w3.org/2000/svg">
<circle cx="48" cy="48" r="47" fill="white" stroke="white" stroke-width="2"/>
<path d="M71.5399 31.7765C66.114 27.5735 61.3265 31.5804 56.8286 38.3264C52.3307 45.0724 50.7444 56.2408 50.7444 56.2408C50.4992 48.8185 52.0315 41.445 55.2136 34.7349C59.859 25.106 67.5006 26.534 67.5006 26.534C62.1632 21.686 55.2114 19 48.0009 19C40.7904 19 33.8386 21.686 28.5012 26.534C28.5012 26.534 36.141 25.0952 40.7846 34.7277C43.9682 41.44 45.5017 48.8158 45.2574 56.2408C45.2574 56.2408 43.6657 45.0724 39.1696 38.3264C34.6735 31.5804 29.8842 27.5735 24.4583 31.7765C19.0324 35.9795 19 48.0093 19 48.0093C19 55.7006 22.0553 63.0768 27.4939 68.5154C32.9325 73.9539 40.3087 77.0093 48 77.0093C55.6913 77.0093 63.0675 73.9539 68.5061 68.5154C73.9447 63.0768 77 55.7006 77 48.0093C77 48.0093 76.9658 35.9813 71.5399 31.7765ZM25.1939 50.5415C25.1939 50.5415 23.836 42.8675 29.5389 42.8675C35.2418 42.8675 38.8099 51.5918 38.8099 51.5918C41.1128 57.7074 42.7516 64.0528 43.6981 70.5187C38.8874 69.5955 34.4975 67.1594 31.1688 63.5657C27.84 59.972 25.7466 55.4087 25.1939 50.5415ZM70.8115 50.5415C70.2582 55.409 68.1644 59.9724 64.8354 63.5663C61.5065 67.1603 57.1164 69.5968 52.3055 70.5205C53.2528 64.0548 54.8916 57.7094 57.1937 51.5936C57.1937 51.5936 60.7582 42.8693 66.4629 42.8693C72.1676 42.8693 70.8115 50.5415 70.8115 50.5415Z" fill="#EDAA00"/>
</svg>
