<svg width="96" height="96" viewBox="0 0 96 96" fill="none" xmlns="http://www.w3.org/2000/svg">
<circle cx="48" cy="48" r="47" fill="white" stroke="white" stroke-width="2"/>
<path d="M7.04108 38.4269H14.0931V47.8432H20.4071L17.9471 52.6812H7.04108V38.4269Z" fill="#00529F"/>
<path d="M26.2975 38.4269L19.0542 52.6812H20.5028L27.7052 38.4269H26.2975Z" fill="#00529F"/>
<path d="M28.8666 38.4269L21.6232 52.6812H23.0719L30.2742 38.4269H28.8666Z" fill="#00529F"/>
<path d="M41.9048 52.6812V38.4269H55.1751V42.8275L48.9841 42.8412V43.9755H54.1228L52.8791 48.0892H48.9568V52.6812H41.9048Z" fill="#00529F"/>
<path d="M71.6707 40.3813C71.6707 40.3813 68.8417 38.2356 64.769 38.2356C60.6964 38.2356 55.3527 40.9006 55.3527 45.4379C55.3527 49.9753 60.6827 52.6676 64.769 52.6676C68.8417 52.6676 71.6434 50.5766 71.6434 50.5766L67.3247 46.3809C67.3247 46.3809 66.3134 47.2419 64.7827 47.2419C63.252 47.2419 62.1177 46.2306 62.1177 45.4379C62.1177 44.6453 63.2247 43.6613 64.7827 43.6613C66.3407 43.6613 67.3247 44.5496 67.3247 44.5496L71.6707 40.3813Z" fill="#00529F"/>
<path d="M72.2582 38.208L79.1325 39.1647V46.982C79.1325 48.581 80.6085 48.335 80.6085 48.335C80.6085 48.335 82.1392 48.6083 82.1392 46.982V38.3993H88.9452V46.982C88.9452 46.982 89.0955 50.0433 86.8268 51.4647C84.5582 52.8723 82.4672 53.0637 80.6085 53.0637C78.7362 53.0637 76.5905 52.9407 74.3492 51.41C72.1078 49.8793 72.2582 46.9957 72.2582 46.9957V38.208Z" fill="#00529F"/>
<path d="M30.0282 45.5607C30.2606 46.121 30.4656 46.5993 30.6432 47.023C30.1922 47.023 29.7549 47.023 29.2766 47.023C29.5089 46.5857 29.7412 46.1073 30.0282 45.5607Z" fill="white"/>
<path d="M28.7435 47.3649L30.0555 44.7682L31.1352 47.3649H28.7435ZM33.9368 38.4269H31.5862L24.3839 52.6812H26.0649L27.0625 50.6449H32.4609L33.3628 52.6812H41.2212L33.9368 38.4269Z" fill="#00529F"/>
<path d="M21.2134 56.5487L20.1884 55.3461H20.9947L21.5824 56.1387L22.1564 55.3461H22.8944L21.8694 56.5487V57.2184H21.2134V56.5487Z" fill="black"/>
<path d="M24.466 56.8906C24.9716 56.8906 25.1356 56.6173 25.1356 56.2893C25.1356 55.9613 24.9716 55.688 24.466 55.688C23.9603 55.688 23.7963 55.9613 23.7963 56.2893C23.7963 56.6173 23.9603 56.8906 24.466 56.8906ZM24.466 55.2916C25.4226 55.2916 25.819 55.7153 25.819 56.2893C25.819 56.8633 25.4226 57.287 24.466 57.287C23.5093 57.287 23.113 56.8633 23.113 56.2893C23.113 55.7153 23.5093 55.2916 24.466 55.2916Z" fill="black"/>
<path d="M28.7298 56.3712C28.7298 57.0272 28.2925 57.2869 27.4998 57.2869C26.7072 57.2869 26.2698 57.0545 26.2698 56.4532V55.3599H26.9258V56.4122C26.9258 56.7539 27.1308 56.9042 27.4998 56.9042C27.9372 56.9042 28.0738 56.6855 28.0738 56.3439V55.3599H28.7298V56.3712Z" fill="black"/>
<path d="M30.0011 56.1387H30.5341C30.8348 56.1387 30.9305 56.0567 30.9305 55.9201C30.9305 55.7424 30.7528 55.7014 30.4385 55.7014H30.0011V56.1387ZM29.3315 55.3461H30.7255C31.2721 55.3461 31.5865 55.5101 31.5865 55.8381C31.5865 56.0841 31.3541 56.2481 31.0125 56.2891C31.2038 56.3027 31.3815 56.3437 31.4635 56.4531C31.5728 56.6307 31.5865 57.0271 31.6821 57.2184H30.9851C30.9168 57.0407 30.9168 56.7674 30.8621 56.6307C30.8211 56.5487 30.7255 56.4941 30.4521 56.4941H30.0148V57.2047H29.3451V55.3461H29.3315Z" fill="black"/>
<path d="M34.9621 55.9613C34.9348 55.7563 34.7161 55.6743 34.4701 55.6743C34.0328 55.6743 33.8278 55.9203 33.8278 56.2756C33.8278 56.6036 34.0055 56.8906 34.4428 56.8906C34.6888 56.8906 34.9211 56.8223 34.9485 56.59H35.6455C35.6181 57.1503 35.0578 57.2733 34.3745 57.2733C33.6911 57.2733 33.1445 56.9863 33.1445 56.2893C33.1445 55.5786 33.6775 55.2916 34.4838 55.2916C35.0578 55.2916 35.6181 55.4556 35.6318 55.9613H34.9621Z" fill="black"/>
<path d="M36.7661 56.1387H37.2991C37.5998 56.1387 37.6955 56.0567 37.6955 55.9201C37.6955 55.7424 37.5178 55.7014 37.2035 55.7014H36.7661V56.1387ZM36.1101 55.3461H37.5041C38.0508 55.3461 38.3651 55.5101 38.3651 55.8381C38.3651 56.0841 38.1328 56.2481 37.7911 56.2891C37.9825 56.3027 38.1601 56.3437 38.2421 56.4531C38.3515 56.6307 38.3651 57.0271 38.4608 57.2184H37.7638C37.6955 57.0407 37.6955 56.7674 37.6408 56.6307C37.5998 56.5487 37.5041 56.4941 37.2308 56.4941H36.7935V57.2047H36.1238V55.3461H36.1101Z" fill="black"/>
<path d="M38.9118 55.3461H40.8662V55.7287H39.5678V56.0704H40.7978V56.4667H39.5678V56.8357H40.8935V57.2184H38.9118V55.3461Z" fill="black"/>
<path d="M42.1369 56.8631H42.4376C42.9706 56.8631 43.3396 56.7947 43.3396 56.2754C43.3396 55.8381 43.0252 55.7014 42.5332 55.7014H42.1232V56.8631H42.1369ZM41.4809 55.3461H42.7519C43.0526 55.3461 43.3396 55.3734 43.5719 55.4964C43.8589 55.6467 44.0502 55.9201 44.0502 56.2617C44.0502 56.5897 43.8999 56.8494 43.6812 56.9997C43.4899 57.1364 43.1756 57.2184 42.7109 57.2184H41.4946V55.3461H41.4809Z" fill="black"/>
<path d="M44.7882 57.2184V55.3461" stroke="black" stroke-width="4.8464"/>
<path d="M46.3191 55.7287H45.4444V55.3461H47.8634V55.7287H46.9887V57.2184H46.3191V55.7287Z" fill="black"/>
<path d="M51.8541 56.3712C51.8541 57.0272 51.4168 57.2869 50.6241 57.2869C49.8314 57.2869 49.3941 57.0545 49.3941 56.4532V55.3599H50.0501V56.4122C50.0501 56.7539 50.2551 56.9042 50.6241 56.9042C51.0614 56.9042 51.1844 56.6855 51.1844 56.3439V55.3599H51.8404V56.3712H51.8541Z" fill="black"/>
<path d="M52.4143 55.3461H53.289L54.3276 56.6991V55.3461H54.9153V57.2184H54.0406L53.002 55.8654V57.2184H52.4143V55.3461Z" fill="black"/>
<path d="M55.7628 57.2184V55.3461" stroke="black" stroke-width="4.8464"/>
<path d="M57.8672 56.8906C58.3728 56.8906 58.5368 56.6173 58.5368 56.2893C58.5368 55.9613 58.3728 55.688 57.8672 55.688C57.3615 55.688 57.1975 55.9613 57.1975 56.2893C57.1975 56.6173 57.3615 56.8906 57.8672 56.8906ZM57.8672 55.2916C58.8238 55.2916 59.2202 55.7153 59.2202 56.2893C59.2202 56.8633 58.8238 57.287 57.8672 57.287C56.9105 57.287 56.5142 56.8633 56.5142 56.2893C56.5142 55.7153 56.9242 55.2916 57.8672 55.2916Z" fill="black"/>
<path d="M59.6576 55.3461H60.5186L61.5709 56.6991V55.3461H62.1586V57.2184H61.2839L60.2453 55.8654V57.2184H59.6576V55.3461Z" fill="black"/>
<path d="M63.8945 55.3461H65.7258V55.7424H64.5505V56.1387H65.6711V56.5214H64.5505V57.2184H63.8945V55.3461Z" fill="black"/>
<path d="M67.4475 56.8906C67.9532 56.8906 68.1172 56.6173 68.1172 56.2893C68.1172 55.9613 67.9532 55.688 67.4475 55.688C66.9419 55.688 66.7779 55.9613 66.7779 56.2893C66.7779 56.6173 66.9419 56.8906 67.4475 56.8906ZM67.4475 55.2916C68.4042 55.2916 68.8005 55.7153 68.8005 56.2893C68.8005 56.8633 68.4042 57.287 67.4475 57.287C66.4909 57.287 66.0945 56.8633 66.0945 56.2893C66.0945 55.7153 66.4909 55.2916 67.4475 55.2916Z" fill="black"/>
<path d="M69.9487 56.1387H70.468C70.7687 56.1387 70.8644 56.0567 70.8644 55.9201C70.8644 55.7424 70.6867 55.7014 70.3724 55.7014H69.935V56.1387H69.9487ZM69.279 55.3461H70.673C71.2197 55.3461 71.534 55.5101 71.534 55.8381C71.534 56.0841 71.3017 56.2481 70.96 56.2891C71.1514 56.3027 71.329 56.3437 71.411 56.4531C71.5204 56.6307 71.534 57.0271 71.6297 57.2184H70.919C70.8507 57.0407 70.8507 56.7674 70.796 56.6307C70.755 56.5487 70.6457 56.4941 70.386 56.4941H69.9487V57.2047H69.279V55.3461Z" fill="black"/>
<path d="M73.256 55.3461H73.912V56.8357H75.1967V57.2184H73.256V55.3461Z" fill="black"/>
<path d="M75.8527 57.2184V55.3461" stroke="black" stroke-width="4.8408"/>
<path d="M76.7411 55.3461H78.5861V55.7424H77.3972V56.1387H78.5178V56.5214H77.3972V57.2184H76.7411V55.3461Z" fill="black"/>
<path d="M79.0917 55.3461H81.046V55.7287H79.7614V56.0704H80.9777V56.4667H79.7614V56.8357H81.0734V57.2184H79.0917V55.3461Z" fill="black"/>
<path d="M18.193 57.1636L19.0813 55.4143L7 55.4006V57.1636H18.193Z" fill="#00529F"/>
<path d="M89 55.4414H82.0846V57.2044H89V55.4414Z" fill="#00529F"/>
<path d="M87.9751 52.9679C88.0844 52.9679 88.1801 52.9542 88.1801 52.8312C88.1801 52.7219 88.0845 52.7082 87.9888 52.7082H87.8111V52.9679H87.9751ZM87.8248 53.4599H87.6881V52.5989H88.0161C88.2211 52.5989 88.3168 52.6672 88.3168 52.8449C88.3168 52.9952 88.2211 53.0635 88.0981 53.0772L88.3441 53.4599H88.1938L87.9615 53.0909H87.8111V53.4599H87.8248ZM87.9751 53.6512C88.3168 53.6512 88.5765 53.3915 88.5765 53.0225C88.5765 52.6672 88.3168 52.4075 87.9751 52.4075C87.6334 52.4075 87.3738 52.6672 87.3738 53.0225C87.3738 53.3779 87.6334 53.6512 87.9751 53.6512ZM87.2234 53.0225C87.2234 52.5989 87.5651 52.2845 87.9751 52.2845C88.3851 52.2845 88.7268 52.5989 88.7268 53.0225C88.7268 53.4462 88.3851 53.7605 87.9751 53.7605C87.5651 53.7605 87.2234 53.4599 87.2234 53.0225Z" fill="black"/>
</svg>
