<svg width="96" height="96" viewBox="0 0 96 96" fill="none" xmlns="http://www.w3.org/2000/svg">
<circle cx="48" cy="48" r="47" fill="white" stroke="white" stroke-width="2"/>
<g clip-path="url(#clip0_1_7190)">
<path d="M42.0479 57.6546C41.8719 57.1462 41.5201 56.781 40.95 56.781C40.1794 56.781 39.7096 57.4974 39.7096 58.9039C39.7096 60.3105 40.1125 61.0268 40.9834 61.0268C41.5113 61.0268 41.8227 60.8434 42.1658 60.1375L43.239 60.4188C42.8871 61.4672 42.0901 61.9913 40.9834 61.9913C39.4422 61.9913 38.5537 60.8661 38.5537 58.9022C38.5537 56.9382 39.4422 55.813 40.9834 55.813C42.1411 55.813 42.8115 56.3372 43.0947 57.396L42.0479 57.6546Z" fill="#231F20"/>
<path d="M44.2842 61.9163V57.5883H45.2395V58.3291H45.2554C45.507 57.8049 45.8588 57.5219 46.487 57.5044V58.5947C46.4255 58.5897 46.3637 58.5897 46.3022 58.5947C45.7744 58.5947 45.3293 59.187 45.3293 59.2936V61.9232L44.2842 61.9163Z" fill="#231F20"/>
<path d="M48.2305 59.9172C48.2481 60.817 48.6492 61.1665 49.1366 61.1665C49.6239 61.1665 49.8491 60.9516 50.1078 60.651L50.8625 61.1176C50.4596 61.7326 49.8738 61.9999 49.0345 61.9999C47.9032 61.9999 47.1907 61.1263 47.1907 59.7512C47.1907 58.3761 47.9032 57.5042 49.0856 57.5042C50.2256 57.4955 50.8625 58.453 50.8625 59.4943V59.9172H48.2305ZM49.9072 59.2183C49.8914 58.619 49.5711 58.2695 49.068 58.2695C48.5648 58.2695 48.2481 58.619 48.2305 59.2183H49.9072Z" fill="#231F20"/>
<path d="M55.6446 61.9161H54.7649L54.7157 61.4496C54.3462 61.8078 54.0031 62 53.5334 62C52.3757 62 51.7898 60.9848 51.7898 59.6359C51.7898 58.5701 52.4109 57.5043 53.5334 57.5043C53.7327 57.5113 53.9286 57.5576 54.1098 57.6403C54.291 57.7231 54.4539 57.8408 54.589 57.9865H54.6066V55.9055H55.6464L55.6446 61.9161ZM54.6048 58.7029C54.394 58.4819 54.1053 58.3504 53.799 58.336C53.1797 58.336 52.8278 58.8357 52.8278 59.7513C52.8278 60.6668 53.1797 61.1665 53.799 61.1665C54.2442 61.1665 54.3867 60.9516 54.6048 60.7839V58.7029Z" fill="#231F20"/>
<path d="M57.0381 56.7878V55.8215H58.0779V56.7878H57.0381ZM58.0779 61.916H57.0381V57.588H58.0779V61.916Z" fill="#231F20"/>
<path d="M59.7775 57.588V56.1553H60.8155V57.588H61.6706V58.4197H60.8155V60.8659C60.8155 61.0983 60.9334 61.1647 61.1938 61.1647C61.3552 61.1541 61.515 61.1266 61.6706 61.0826V61.9317C61.3983 61.9703 61.1239 61.9925 60.849 61.9981C60.0783 61.9981 59.7775 61.6155 59.7775 60.9987V58.4197H59.1722V57.588H59.7775Z" fill="#231F20"/>
<path d="M68.731 55.9055H69.887V59.6691C69.887 61.4251 68.7979 62 67.5663 62C66.3347 62 65.2439 61.4251 65.2439 59.6691V55.9055H66.3998V59.7198C66.3998 60.693 66.7869 61.0338 67.5663 61.0338C68.3457 61.0338 68.731 60.693 68.731 59.7198V55.9055Z" fill="#231F20"/>
<path d="M71.2821 61.9163V57.5883H72.2375V58.053C72.6228 57.7875 73.0661 57.5044 73.5781 57.5044C74.4578 57.5044 74.8695 58.0705 74.8695 58.9529V61.9232H73.8297V59.1101C73.8297 58.5265 73.645 58.3431 73.2931 58.3431C73.1078 58.3478 72.9255 58.391 72.7579 58.4698C72.5903 58.5487 72.4412 58.6614 72.3202 58.8009V61.9232L71.2821 61.9163Z" fill="#231F20"/>
<path d="M76.2648 56.7878V55.8215H77.3028V56.7878H76.2648ZM77.3028 61.916H76.2648V57.588H77.3028V61.916Z" fill="#231F20"/>
<path d="M80.336 57.5044C81.5184 57.5044 82.2309 58.378 82.2309 59.7514C82.2309 61.1247 81.5184 62.0001 80.336 62.0001C79.1537 62.0001 78.4412 61.1265 78.4412 59.7514C78.4412 58.3763 79.1537 57.5044 80.336 57.5044ZM80.336 58.3361C79.7572 58.3361 79.481 58.7869 79.481 59.7514C79.481 60.7159 79.7572 61.1667 80.336 61.1667C80.9149 61.1667 81.1911 60.7176 81.1911 59.7514C81.1911 58.7851 80.9149 58.3361 80.336 58.3361Z" fill="#231F20"/>
<path d="M83.2637 61.9163V57.5883H84.219V58.053C84.6043 57.7875 85.0495 57.5044 85.5615 57.5044C86.4412 57.5044 86.8511 58.0705 86.8511 58.9529V61.9232H85.8113V59.1101C85.8113 58.5265 85.6353 58.3431 85.2835 58.3431C85.0981 58.3476 84.9157 58.3907 84.7481 58.4695C84.5805 58.5484 84.4315 58.6613 84.3105 58.8009V61.9232L83.2637 61.9163Z" fill="#231F20"/>
<path d="M86.0541 49.7359C85.9221 49.6852 85.8905 49.666 85.8905 49.1034V36.4794C85.8905 34.1188 84.3123 34 84.0062 34C83.5138 34.0247 83.0357 34.1725 82.6162 34.4298L77.5667 37.1101C77.1216 37.36 76.1979 37.8807 76.1979 39.0164C76.1979 40.1521 77.1533 41.0135 78.4728 41.0223C78.6628 41.0223 79.2382 41.031 79.3138 41.1376C79.3895 41.2442 79.349 47.2094 79.349 47.2094C79.349 47.6305 79.349 48.0114 79.3279 48.3818C79.3218 48.6387 79.2219 48.8847 79.0468 49.074C78.8717 49.2633 78.6334 49.383 78.3761 49.4109C78.3761 49.4109 76.5428 49.7604 76.2877 49.7604C76.0118 49.7569 75.748 49.6477 75.5512 49.4556C75.3545 49.2635 75.2402 49.0033 75.232 48.7295C75.232 48.7295 75.2232 46.7184 75.2003 45.9793C75.1695 44.8301 74.6806 43.74 73.841 42.9485C73.0015 42.157 71.8799 41.7288 70.7227 41.7579C70.03 41.7625 69.3487 41.9327 68.7363 42.2541C68.5796 42.0732 68.3847 41.9287 68.1655 41.8309C67.9463 41.733 67.7081 41.6843 67.4678 41.688C67.1159 41.688 66.9259 41.7596 66.5247 41.971C66.1236 42.1825 63.6464 43.5104 63.6464 43.5104C63.48 43.5939 63.3256 43.6991 63.1872 43.8232C62.5217 42.9938 61.6547 42.3462 60.6677 41.9413C59.9227 41.637 59.1244 41.482 58.3189 41.4853C57.3098 41.4849 56.3147 41.7202 55.414 42.1721C54.5133 42.6241 53.7323 43.28 53.1339 44.087V38.7176C53.1339 37.6046 52.3792 36.7956 51.3745 36.7956C51.0885 36.8171 50.81 36.8968 50.5564 37.0298L47.8786 38.2703C47.0587 38.6512 46.647 39.2243 46.647 39.9739C46.6307 40.3326 46.7468 40.6848 46.9736 40.9644C47.2004 41.244 47.5222 41.4318 47.8786 41.4923V41.8103C47.4087 41.6927 46.9258 41.634 46.4412 41.6356C46.2242 41.636 46.0074 41.6489 45.792 41.674C44.9191 41.7873 44.0826 42.0919 43.3428 42.5657C42.6031 43.0395 41.9787 43.6708 41.5148 44.4137C41.5043 42.6542 41.5148 39.4882 41.5148 39.1859C41.5148 38.8836 41.5342 37.547 40.5296 37.0892C40.2817 36.9804 40.0113 36.9314 39.7407 36.9463C39.4701 36.9612 39.2068 37.0395 38.9725 37.1748C38.6699 37.3408 37.1392 38.2092 36.2894 38.6862C35.4396 39.1632 34.991 39.6944 34.991 40.4684C34.991 41.0118 35.2215 41.7124 36.2701 42.0252V44.1342C35.6612 43.2772 34.8518 42.58 33.9115 42.1025C32.9712 41.625 31.9282 41.3814 30.8722 41.3927C29.4467 41.3872 28.057 41.8368 26.9083 42.6752C26.7067 42.8042 26.4725 42.8738 26.2327 42.8761C25.9944 42.8747 25.7615 42.8059 25.5611 42.6778C25.3608 42.5497 25.2013 42.3676 25.1014 42.1528L23.342 37.8807C23.0095 36.9022 22.2863 36.3186 21.419 36.3186C21.1651 36.3264 20.9155 36.3854 20.6853 36.492C20.4551 36.5987 20.2492 36.7507 20.0801 36.9389C20.0801 36.9389 18.2098 36.7292 17.4814 36.7292C15.1589 36.7459 12.9102 37.5414 11.1001 38.9867C9.10139 40.5977 8 42.8115 8 45.2175C8 48.0568 9.40752 50.5991 11.7598 52.0196C14.1614 53.4768 17.0785 53.6603 19.3499 53.6603H85.4665C87.3349 53.6603 88 52.5875 88 51.5898C88 50.2182 86.7315 49.8774 86.0541 49.7359Z" fill="#231F20"/>
<path d="M23.5847 44.978H20.2419C19.6718 44.978 19.0578 44.9431 19.0578 45.6577C19.0578 46.7061 20.2419 45.7975 20.2419 47.405C20.2419 47.7946 20.2647 48.3834 20.2647 48.7084C20.2647 49.7271 20.073 50.4208 18.5722 50.4208C15.4792 50.4242 13.4066 48.0986 13.4066 44.9553C13.4066 42.2261 14.9496 39.7991 17.8051 39.7991C20.4741 39.7991 22.464 42.3868 23.1414 42.3868C23.209 42.3876 23.276 42.3742 23.3382 42.3476C23.4003 42.321 23.456 42.2817 23.5018 42.2322C23.5476 42.1828 23.5824 42.1243 23.604 42.0606C23.6256 41.997 23.6334 41.9295 23.6269 41.8626C23.602 41.6609 23.5535 41.4627 23.4827 41.272L22.2511 38.2807C22.1262 37.8911 21.8711 37.4805 21.4277 37.4805C20.9843 37.4805 20.7926 38.1095 20.3896 38.1095C19.4378 38.1095 18.442 37.8911 17.4902 37.8911C13.5121 37.8911 9.17346 40.7741 9.17346 45.2156C9.17346 47.5989 10.3575 49.811 12.3685 51.0236C14.4429 52.2798 16.9817 52.4983 19.3516 52.4983H23.0358C23.175 52.4982 23.3099 52.4503 23.4177 52.3627C23.5254 52.2752 23.5993 52.1533 23.6269 52.0178C23.6358 51.9265 23.6358 51.8347 23.6269 51.7434V47.3753C23.6269 46.8336 23.6269 46.3566 24.1988 46.2273C24.6017 46.119 24.8128 45.9809 24.8128 45.5686C24.7706 44.8784 24.1354 44.978 23.5847 44.978Z" fill="#FFCE34"/>
<path d="M40.4592 50.7459C40.329 49.9229 40.329 38.8837 40.329 38.8837L40.2656 38.4696C40.2058 38.2948 40.0897 38.1096 39.875 38.1096C39.736 38.1429 39.5996 38.1861 39.4669 38.2389L36.8981 39.6909C36.5744 39.8412 36.1645 40.0578 36.1645 40.4702C36.1645 41.1411 37.2008 40.748 37.3503 41.3753C37.4311 41.6647 37.4678 41.9644 37.4594 42.2646V49.3393C37.4594 52.1996 36.1205 50.9503 36.1205 52.0126C36.1645 52.556 36.7028 52.4984 37.1568 52.4984H40.6087C41.0415 52.4984 41.6468 52.5333 41.6468 51.9742C41.6468 51.3417 40.6316 51.4186 40.4592 50.7459Z" fill="#FFCE34"/>
<path d="M36.2103 47.4731C36.2041 47.2819 36.187 47.0911 36.1593 46.9018C35.869 44.9221 34.3717 43.3234 32.4065 42.766C31.858 42.6114 31.2891 42.5407 30.7192 42.5563C27.7634 42.6349 25.4287 44.9641 25.5026 47.7579C25.526 48.6116 25.776 49.444 26.2274 50.1709C26.6874 50.8997 27.3181 51.5072 28.0656 51.9417C28.8131 52.3761 29.6553 52.6247 30.5204 52.666C30.6752 52.666 30.83 52.6782 30.9884 52.666C33.9494 52.5961 36.2859 50.267 36.2103 47.4731ZM32.5472 50.1185C32.0933 51.0306 31.2013 51.6089 30.216 51.1249C28.1663 50.115 28.3739 46.5191 29.3222 44.709C29.7357 43.9209 30.677 43.3461 31.5285 43.7654C33.346 44.6583 33.3354 48.546 32.5472 50.1185Z" fill="#FFCE34"/>
<path d="M52.6237 51.4045C51.9323 51.0551 51.9974 49.5717 51.9763 48.9217C51.9552 48.2717 51.9569 41.2459 51.9569 41.2459C51.9569 40.3146 51.9323 39.6472 51.9323 38.7141C51.9323 38.3472 51.7828 37.9558 51.3728 37.9558C51.2252 38.0039 51.0811 38.0623 50.9418 38.1305L48.373 39.3222C48.0933 39.4515 47.8118 39.6245 47.8118 39.9704C47.8118 40.7951 48.9343 39.7957 49.0434 41.4399V43.5139C48.2473 43.0618 47.3509 42.8127 46.4342 42.7888C46.2625 42.7889 46.091 42.7988 45.9204 42.8185C43.401 43.1138 41.6046 45.5547 41.6046 48.0341C41.6046 50.6987 43.0931 52.6696 45.8272 52.6696C47.189 52.6696 48.1373 52.0633 49.0662 51.1757V51.7837C49.0662 52.1943 49.1085 52.6049 49.4973 52.6276H52.6044C53.0126 52.6276 53.2519 52.425 53.2519 52.0353C53.2061 51.6649 52.9053 51.5356 52.6237 51.4045ZM49.0416 47.9921C49.0416 49.0982 48.4557 50.3911 47.3367 50.5484C46.2178 50.7056 45.6688 50.3597 45.2026 49.7848C44.5674 49.0038 44.4478 47.7877 44.4988 46.8145C44.5481 45.532 45.2659 44.1342 46.6893 44.1342C48.6246 44.1342 49.0416 46.1505 49.0416 47.7108V47.9921Z" fill="#FFCE34"/>
<path d="M63.0781 46.0805C62.8619 45.3915 62.4936 44.759 61.9998 44.2294C61.5061 43.6998 60.8995 43.2864 60.2244 43.0193C57.7735 42.0042 54.64 43.1242 53.5897 45.6245C52.4302 48.3852 53.6811 51.0865 56.3695 52.1995C57.844 52.8179 59.4807 52.9442 61.0337 52.5594C61.4999 52.4004 62.3057 52.1471 62.5239 51.6281C62.571 51.4994 62.5655 51.3575 62.5086 51.2328C62.4518 51.1081 62.348 51.0104 62.2195 50.9607C61.8518 50.8331 60.1962 51.8832 58.5635 51.207C57.3319 50.6951 56.6669 49.5995 56.6581 48.2821L61.7462 48.2472C62.1351 48.2681 63.0957 48.2384 63.189 48.02C63.3561 47.6181 63.1327 46.3374 63.0781 46.0805ZM60.212 46.5803C60.2033 46.5995 60.1505 46.6711 60.1417 46.6921C59.9763 46.8668 59.6367 46.8336 59.4379 46.8476L57.2633 46.8319C57.1449 46.8429 57.0255 46.8317 56.9114 46.7987C56.4153 46.5925 56.9255 45.0514 57.0592 44.7229C57.3864 43.9436 58.2538 43.3862 59.0895 43.7322C59.9253 44.0782 60.5639 45.7328 60.212 46.5803Z" fill="#FFCE34"/>
<path d="M79.5021 52.4984C78.8617 52.4984 78.0946 52.5107 78.0946 51.7227C78.0946 50.5118 80.0722 50.9469 80.3396 49.8146C80.5525 48.9742 80.5525 48.0534 80.5525 47.213V41.6881C80.5525 40.0037 80.1795 39.9111 78.5222 39.8587C77.9943 39.8587 77.3997 39.6228 77.3997 39.0165C77.3997 38.4923 77.9275 38.2669 78.3357 38.031L83.1898 35.4556C83.4385 35.2928 83.7237 35.1932 84.0203 35.1655C84.6326 35.1655 84.7399 35.9291 84.7399 36.4812V49.1052C84.7399 49.9212 84.8472 50.5258 85.7023 50.8403C86.209 50.9993 86.7984 50.9853 86.8512 51.5916C86.8512 52.3534 86.1844 52.4984 85.4876 52.4984H79.5021Z" fill="#FFCE34"/>
<path d="M70.7244 42.9199C72.936 42.9199 73.9899 44.6165 74.0338 46.0143C74.0778 47.4121 74.0514 49.6539 74.0866 50.3388C74.1218 51.0238 74.4209 51.1198 75.0068 51.4711C75.1045 51.5198 75.1864 51.5947 75.2433 51.6874C75.3003 51.78 75.3298 51.8867 75.3288 51.9952C75.3288 52.4932 74.8766 52.5037 74.4667 52.5037H70.6241C70.281 52.5037 69.85 52.4722 69.85 52.0389C69.85 51.3243 70.9918 51.4676 70.9918 50.6219C70.9918 50.4262 70.9918 47.5886 71.0059 46.8687C71.0253 45.9147 70.4235 44.8314 69.4524 44.8314C68.3316 44.8314 67.9921 46.1978 67.9921 47.0417V48.6929C67.9806 49.3941 68.0242 50.0951 68.1223 50.7896C68.2718 51.3977 69.2219 51.3837 69.2219 52.0337C69.2219 52.5334 68.6395 52.4984 68.2507 52.4984H64.8286C64.4627 52.4984 63.8803 52.5334 63.8803 52.0337C63.8803 51.2334 65.1313 51.9306 65.1313 49.3935C65.1313 48.7226 65.1102 47.5222 65.1102 46.8513C65.1102 45.0725 63.8135 45.7662 63.8135 45.0079C63.8135 44.7895 64.0316 44.6305 64.2041 44.5449L67.2813 42.9199C67.3426 42.8824 67.4119 42.8597 67.4836 42.8535C67.89 42.8535 68.0009 43.203 68.0009 43.5524V44.3457C68.6237 43.5734 69.6037 42.9199 70.7244 42.9199Z" fill="#FFCE34"/>
</g>
<defs>
<clipPath id="clip0_1_7190">
<rect width="80" height="28" fill="white" transform="translate(8 34)"/>
</clipPath>
</defs>
</svg>
