<svg width="96" height="96" viewBox="0 0 96 96" fill="none" xmlns="http://www.w3.org/2000/svg">
<circle cx="48" cy="48" r="47" fill="white" stroke="white" stroke-width="2"/>
<path fill-rule="evenodd" clip-rule="evenodd" d="M44.8927 48.5779C44.0263 49.4743 43.0253 49.9075 41.8152 49.9075C40.5902 49.9075 39.5744 49.4743 38.7079 48.5779C37.8414 47.6816 37.4231 46.6209 37.4231 45.366C37.4231 44.0961 37.8414 43.0354 38.7079 42.1391C39.5744 41.2427 40.5753 40.8095 41.8152 40.8095C43.0253 40.8095 44.0263 41.2427 44.8927 42.1391C45.7592 43.0354 46.1925 44.0961 46.1925 45.366C46.1925 46.6209 45.7742 47.6816 44.8927 48.5779ZM41.8302 36.7908C40.2466 36.7908 38.7676 37.224 37.453 38.0606V31.3977L33.4642 33.8179V45.351C33.4642 50.0121 36.706 52.1335 36.9749 52.2978C38.424 53.3734 40.0524 53.9262 41.8302 53.9262C44.1159 53.9262 46.1028 53.0746 47.7462 51.3865C49.3745 49.7282 50.1962 47.6965 50.1962 45.351C50.1962 42.9906 49.3745 40.9589 47.7462 39.3006C46.1028 37.6423 44.1159 36.7908 41.8302 36.7908Z" fill="#010202"/>
<path fill-rule="evenodd" clip-rule="evenodd" d="M66.3904 36.9402H60.6836L55.6341 42.3034V31.3977L51.6304 33.7432V53.9411H55.6192V48.548L60.9973 53.9411H66.8983L58.1887 45.4407L66.3904 36.9402Z" fill="#010202"/>
<path fill-rule="evenodd" clip-rule="evenodd" d="M76.1905 48.2342C75.2941 49.4891 74.1139 50.1016 72.605 50.1016C71.3651 50.1016 70.3492 49.6684 69.4678 48.772C68.5863 47.8757 68.168 46.815 68.168 45.5302C68.168 44.2604 68.5863 43.1997 69.4678 42.2884C70.3342 41.392 71.3651 40.9588 72.605 40.9588C74.1139 40.9588 75.2941 41.5713 76.1905 42.8262L76.3697 43.0802L79.6713 40.7496L79.492 40.4957C77.789 38.1353 75.4734 36.9252 72.605 36.9252C70.2745 36.9252 68.2577 37.7767 66.6144 39.4499C64.971 41.1231 64.1344 43.1549 64.1344 45.5302C64.1344 47.9056 64.971 49.9373 66.6144 51.6105C68.2577 53.2837 70.2745 54.1353 72.605 54.1353C75.4734 54.1353 77.789 52.9401 79.492 50.5648L79.6713 50.3108L76.3697 47.9803L76.1905 48.2342Z" fill="#010202"/>
<path fill-rule="evenodd" clip-rule="evenodd" d="M23.8133 36.7758C22.394 36.7758 21.1092 37.1493 19.9589 37.8664V36.5518L16 38.8674V45.112C16 45.1419 16 45.1867 16 45.2166V53.9859H19.9589V45.2166C19.9589 43.9766 20.3473 42.9159 21.1092 42.0345C21.8711 41.168 22.7526 40.7348 23.8133 40.7348C24.874 40.7348 25.7554 41.1531 26.5173 42.0345C27.2792 42.901 27.6676 43.9766 27.6676 45.2166V53.9859H31.6265V45.2166C31.6265 42.901 30.8646 40.8991 29.3408 39.2707C27.8319 37.6124 25.9645 36.7758 23.8133 36.7758Z" fill="#010202"/>
<path fill-rule="evenodd" clip-rule="evenodd" d="M53.2736 59.9766C53.7666 59.4687 54.3791 59.2147 55.0664 59.2147C55.7536 59.2147 56.3661 59.4687 56.8591 59.9766C57.3521 60.4846 57.5911 61.112 57.5911 61.8142C57.5911 62.5163 57.3371 63.1438 56.8591 63.6368C56.3661 64.1447 55.7685 64.3987 55.0664 64.3987C54.3642 64.3987 53.7666 64.1447 53.2736 63.6368C52.7806 63.1288 52.5267 62.5163 52.5267 61.8142C52.5267 61.0971 52.7806 60.4846 53.2736 59.9766ZM55.0664 65.3847C56.0225 65.3847 56.8591 65.0261 57.5463 64.3389C58.2335 63.6517 58.5771 62.8002 58.5771 61.8142C58.5771 60.8282 58.2335 59.9766 57.5463 59.2894C56.8591 58.6022 56.0225 58.2437 55.0664 58.2437C54.1102 58.2437 53.2736 58.5873 52.6014 59.2745L52.5267 59.3342V55.8982L51.5407 56.5555V62.0233C51.5556 62.0383 51.705 65.3847 55.0664 65.3847Z" fill="#010202"/>
<path fill-rule="evenodd" clip-rule="evenodd" d="M64.478 63.6367C63.985 64.1447 63.3874 64.3986 62.7002 64.3986C61.9981 64.3986 61.4005 64.1447 60.9075 63.6367C60.4145 63.1288 60.1606 62.5163 60.1606 61.8141C60.1606 61.112 60.4145 60.4845 60.9075 59.9766C61.4005 59.4687 62.013 59.2147 62.7002 59.2147C63.3874 59.2147 64 59.4687 64.478 59.9766C64.971 60.4845 65.225 61.0971 65.225 61.7992C65.225 62.5163 64.971 63.1288 64.478 63.6367ZM66.211 65.3099V61.2315C66.211 60.0214 65.0905 58.2437 62.7002 58.2437C61.7292 58.2437 60.8926 58.6022 60.2054 59.2894C59.5182 59.9916 59.1746 60.8431 59.1746 61.8141C59.1746 62.7852 59.5182 63.6367 60.2054 64.3389C60.8926 65.0261 61.7292 65.3846 62.7002 65.3846C63.6414 65.3846 64.478 65.041 65.1503 64.3688L65.225 64.2941V65.3099H66.211Z" fill="#010202"/>
<path fill-rule="evenodd" clip-rule="evenodd" d="M75.7872 61.904L79.9553 58.3633H78.6705L75.1448 61.2616V56.1224L74.1738 56.6603V65.579H75.1149V62.5613L78.7004 65.579H80.0001L75.7872 61.904Z" fill="#010202"/>
<path fill-rule="evenodd" clip-rule="evenodd" d="M72.4855 59.3492C71.858 58.6769 71.0961 58.3184 70.2147 58.3035H70.1549H70.14C69.2586 58.3184 68.4967 58.6769 67.8692 59.3492C67.8543 59.3791 67.8244 59.394 67.8095 59.4239V58.7218L66.9131 59.2745L66.8982 65.5789H67.8842V61.9038C67.8842 61.1868 68.1082 60.5742 68.5564 60.0514C69.0046 59.5584 69.5424 59.3044 70.1549 59.2895C70.7824 59.3044 71.3202 59.5584 71.7534 60.0514C72.2016 60.5593 72.4257 61.1868 72.4257 61.9038V65.5789H73.4117V61.9038C73.4565 60.9178 73.1279 60.0514 72.4855 59.3492Z" fill="#010202"/>
<path fill-rule="evenodd" clip-rule="evenodd" d="M79.6266 37.2392C79.4473 37.2392 79.2979 37.3886 79.2979 37.5678C79.2979 37.7471 79.4473 37.8965 79.6266 37.8965C79.8059 37.8965 79.9553 37.7471 79.9553 37.5678C79.9702 37.3886 79.8208 37.2392 79.6266 37.2392ZM79.6266 37.9413C79.4324 37.9413 79.2681 37.777 79.2681 37.5828C79.2681 37.3886 79.4324 37.2242 79.6266 37.2242C79.8208 37.2242 79.9851 37.3886 79.9851 37.5828C80.0001 37.777 79.8357 37.9413 79.6266 37.9413Z" fill="#010202"/>
<path fill-rule="evenodd" clip-rule="evenodd" d="M79.6415 37.5527C79.6714 37.5527 79.7013 37.5527 79.7162 37.5377C79.7312 37.5228 79.7461 37.5079 79.7461 37.478C79.7461 37.4481 79.7312 37.4332 79.7162 37.4182C79.7013 37.4182 79.6863 37.4033 79.6565 37.4033H79.4921V37.5377H79.6415V37.5527ZM79.4324 37.3734H79.6565C79.6863 37.3734 79.7162 37.3734 79.7461 37.3884C79.7909 37.4033 79.8208 37.4332 79.8208 37.478C79.8208 37.5079 79.8208 37.5228 79.8059 37.5377C79.7909 37.5527 79.776 37.5676 79.761 37.5676C79.776 37.5676 79.7909 37.5826 79.8059 37.5975C79.8208 37.6124 79.8208 37.6274 79.8208 37.6423V37.7021C79.8208 37.717 79.8208 37.732 79.8208 37.732C79.8208 37.7469 79.8357 37.7469 79.8357 37.7618V37.7768H79.761V37.7618C79.761 37.7618 79.761 37.7469 79.761 37.732V37.6722C79.761 37.6423 79.7461 37.6274 79.7312 37.6124C79.7162 37.6124 79.7013 37.6124 79.6714 37.6124H79.522V37.7768H79.4622V37.3734H79.4324Z" fill="#010202"/>
</svg>
