<svg width="96" height="96" viewBox="0 0 96 96" fill="none" xmlns="http://www.w3.org/2000/svg">
<circle cx="48" cy="48" r="47" fill="white" stroke="white" stroke-width="2"/>
<g clip-path="url(#clip0_1_8964)">
<path d="M34.579 43C31.7652 43 29.9756 45.4219 29.9756 48.4854C29.9756 51.549 31.7652 53.9709 34.579 53.9709C37.3933 53.9709 39.1824 51.549 39.1824 48.4854C39.1824 45.4219 37.3928 43 34.579 43ZM34.579 52.2095C32.7193 52.2095 31.8358 50.541 31.8358 48.4854C31.8358 46.4298 32.7214 44.7614 34.579 44.7614C36.4366 44.7614 37.3222 46.4298 37.3222 48.4854C37.3222 50.541 36.4371 52.2095 34.579 52.2095ZM49.2196 49.7499C49.2196 51.2182 48.2456 52.2277 46.9623 52.2277C45.6769 52.2277 44.705 51.2198 44.705 49.7688V43.2566H42.9331V50.0091C42.9331 52.3563 44.74 53.973 46.9617 53.973C49.1846 53.973 50.9909 52.3584 50.9909 50.0091V43.256H49.2196V49.7494V49.7499ZM62.1786 49.891H61.4758L58.0617 43.256H55.6649V53.7138H57.315V46.4983H58.0162L61.7967 53.7143H63.8288V43.256H62.1786V49.891ZM21.1868 45.7427L21.9078 44.9809H27.2663V43.2566H19.4332V53.7143H21.1868V49.3445C21.6926 49.4626 22.202 49.5556 22.713 49.5989C23.3795 49.6565 24.0499 49.6537 24.7159 49.5906C25.3224 49.5303 25.9228 49.4202 26.5113 49.2614L26.0917 47.5663C25.5917 47.7026 25.0811 47.7961 24.5654 47.8459C23.9953 47.9025 23.4211 47.9053 22.8505 47.8542C22.2887 47.8044 21.7325 47.7039 21.1888 47.5538V45.7432L21.1868 45.7427ZM71.3066 43.2566H68.4066V53.7143H71.3066C74.7636 53.7143 76.7074 51.4764 76.7074 48.4854C76.7074 45.4945 74.7636 43.2566 71.3066 43.2566ZM71.3066 52.025H70.899L70.18 51.2632V45.7119L70.9053 44.9464H71.3087C73.672 44.9464 74.8519 46.4695 74.8519 48.4881C74.8519 50.506 73.67 52.0255 71.3066 52.0255V52.025Z" fill="#343239"/>
</g>
<defs>
<clipPath id="clip0_1_8964">
<rect width="58" height="10.973" fill="white" transform="translate(19 43)"/>
</clipPath>
</defs>
</svg>
