<svg width="96" height="96" viewBox="0 0 96 96" fill="none" xmlns="http://www.w3.org/2000/svg">
<circle cx="48" cy="48" r="47" fill="white" stroke="white" stroke-width="2"/>
<g clip-path="url(#clip0_1_9357)">
<path d="M13.1207 48.517C28.8545 42.7052 37.7027 38.7174 37.9933 37L38.1137 38.3844L33.4791 43.5543C36.2891 41.7058 38.9977 40.0327 41.2808 39.068L41.6574 40.1045C37.9905 42.0317 35.7915 43.4999 36.1879 44.1737L44.0067 39.5493L44.1473 40.9655C42.8499 42.1161 41.6383 43.3625 40.5225 44.6945C39.4806 45.8641 40.6405 46.6168 40.6405 46.6168C42.2928 47.7888 45.6938 47.8504 48.3486 48.011C60.3463 48.6625 71.6472 47.5174 82.7808 46.2144L82.8893 47.3595C62.2032 49.3115 57.46 49.1657 48.7426 48.8844C46.1591 48.6724 43.704 48.7563 41.1083 47.7913C38.2393 46.5574 39.9335 44.2823 41.4064 42.4093L35.0972 45.7456L34.8975 44.6128L35.432 43.4776C33.0964 44.6938 30.9458 46.2447 29.0466 48.0825L28.9801 46.6019C30.7285 45.6444 32.8095 43.1913 34.9076 40.6619C29.7631 43.7394 20.7695 46.6388 13.261 49.603L13.1207 48.517ZM18.2972 52.4974C18.2121 52.514 18.1293 52.5414 18.0509 52.5788C18.006 52.6044 17.9673 52.6398 17.9374 52.6824C17.9043 52.7384 17.8826 52.8005 17.8734 52.865C17.8593 52.9902 17.8536 53.1164 17.8563 53.2426V56.4505C17.8544 56.5715 17.859 56.6925 17.871 56.8135C17.8788 56.8759 17.897 56.937 17.9252 56.9933C17.9543 57.0393 17.9939 57.0775 18.0411 57.1044C18.1192 57.144 18.2017 57.174 18.2872 57.1933V57.3734H16.758V57.1908C16.8617 57.1717 16.9605 57.1315 17.0483 57.0725C17.1067 57.0219 17.1457 56.9532 17.1596 56.8773C17.1835 56.7356 17.1933 56.5919 17.1889 56.4483V55.0265C17.1889 54.6539 17.1889 54.2862 17.2038 53.8963C17.2185 53.5066 17.2309 53.2522 17.2456 53.1117H17.1816L15.7186 56.7808H15.2953L13.9333 53.0526H13.8717C13.8717 53.203 13.8962 53.4769 13.9038 53.8718C13.9111 54.2667 13.9236 54.6712 13.9236 55.0884V56.4455C13.9214 56.5665 13.9263 56.6875 13.9382 56.8085C13.9461 56.871 13.9643 56.932 13.9925 56.9884C14.0223 57.0338 14.0617 57.0717 14.1081 57.0995C14.1867 57.1388 14.2692 57.1685 14.3544 57.1883V57.3734H13.0073V57.1908C13.1171 57.1707 13.2213 57.1269 13.3128 57.0624C13.3687 57.0068 13.4043 56.9336 13.4138 56.8553C13.4336 56.7205 13.442 56.5841 13.4382 56.4483V53.2399C13.4412 53.1161 13.4355 52.9924 13.4211 52.8697C13.414 52.8039 13.3921 52.7405 13.3571 52.6846C13.3308 52.6399 13.2924 52.6039 13.2464 52.581C13.1679 52.5419 13.0852 52.5122 13 52.4924V52.3123H14.3175L15.6152 55.9148L17.0413 52.3123H18.2896L18.2972 52.4974ZM20.7179 57.4303C20.5016 57.445 20.2846 57.4122 20.0819 57.3342C19.8792 57.2562 19.6954 57.1349 19.5431 56.9785C19.2519 56.5996 19.1082 56.1254 19.1394 55.6461C19.1289 55.2894 19.2014 54.9352 19.351 54.6121C19.4757 54.3437 19.6796 54.1212 19.9346 53.9755C20.1932 53.8342 20.4833 53.7627 20.7771 53.7681C20.9976 53.7521 21.2189 53.7852 21.4256 53.8649C21.6323 53.9446 21.8193 54.069 21.9736 54.2296C22.267 54.6037 22.4119 55.0755 22.38 55.5523C22.3912 55.9089 22.3221 56.2633 22.1781 56.5888C22.0558 56.8566 21.8533 57.0785 21.5994 57.223C21.3281 57.3671 21.025 57.4383 20.7179 57.4303ZM19.8388 55.5548C19.8181 55.9614 19.9029 56.3664 20.0849 56.7293C20.1531 56.8525 20.253 56.9546 20.374 57.0246C20.495 57.0946 20.6326 57.1299 20.7719 57.1267C20.921 57.1319 21.068 57.0906 21.1933 57.0085C21.3119 56.925 21.4083 56.813 21.4738 56.6826C21.553 56.5366 21.6071 56.3781 21.6339 56.2137C21.6667 56.0278 21.6833 55.8397 21.6833 55.6511C21.691 55.3443 21.6494 55.0384 21.5601 54.7452C21.5042 54.5419 21.3912 54.3593 21.235 54.2197C21.1023 54.1079 20.9347 54.0475 20.7621 54.0492C20.6235 54.045 20.4863 54.0791 20.3653 54.1478C20.2443 54.2166 20.144 54.3173 20.0752 54.4394C19.8955 54.7784 19.8104 55.1606 19.8288 55.5449L19.8388 55.5548ZM23.0426 53.83H24.0942V55.7151C24.0877 55.9393 24.0966 56.1634 24.1213 56.3861C24.1333 56.5049 24.1666 56.6202 24.2198 56.7271C24.2665 56.8055 24.3316 56.8715 24.4095 56.9193C24.5116 56.9769 24.6276 57.0043 24.7443 56.9983C24.8373 56.9983 24.9296 56.979 25.015 56.9416C25.1203 56.8921 25.2174 56.8272 25.3032 56.7491C25.3954 56.6727 25.4714 56.5786 25.5273 56.4727C25.5782 56.3694 25.6027 56.2549 25.5986 56.1395V54.7526C25.5986 54.6121 25.5986 54.506 25.5864 54.4345C25.5821 54.3761 25.5697 54.3187 25.5495 54.264C25.5356 54.2244 25.5148 54.1876 25.4879 54.1556C25.4597 54.1241 25.4253 54.0988 25.387 54.0814C25.3205 54.0511 25.2514 54.028 25.18 54.0126V53.8297H26.2341V56.7714C26.236 56.8396 26.252 56.907 26.281 56.9686C26.3054 57.0203 26.345 57.0632 26.3941 57.0923C26.4826 57.1336 26.5762 57.1625 26.6725 57.1784V57.3736L25.845 57.408H25.6209L25.6431 56.8008L25.5986 56.7835C25.4308 56.9789 25.2329 57.1456 25.0126 57.2771C24.8425 57.3767 24.6501 57.4303 24.4537 57.4328C24.2605 57.4404 24.0688 57.3943 23.8997 57.2994C23.7514 57.2065 23.6372 57.0669 23.5746 56.902C23.4949 56.6639 23.459 56.413 23.4688 56.1617V54.7526C23.4732 54.6098 23.4641 54.4669 23.4417 54.3258C23.4319 54.2558 23.3999 54.1908 23.3505 54.1408C23.2636 54.0744 23.1621 54.0303 23.0548 54.0123L23.0426 53.83ZM30.9108 57.3734H29.4552V57.1908C29.5262 57.171 29.5954 57.1454 29.6622 57.1143C29.7037 57.0921 29.7392 57.0599 29.7653 57.0206C29.8008 56.9664 29.8236 56.9048 29.832 56.8404C29.8528 56.7157 29.8619 56.5893 29.8591 56.4629V55.488C29.8591 55.3153 29.8591 55.1599 29.8442 55.0191C29.8382 54.9025 29.8209 54.7869 29.7927 54.6737C29.7769 54.599 29.7477 54.5278 29.7064 54.4639C29.6756 54.4131 29.6354 54.3687 29.5881 54.3333C29.5421 54.2957 29.4895 54.2673 29.4332 54.2494C29.3585 54.2242 29.2801 54.2124 29.2015 54.2147C29.1073 54.2143 29.0141 54.2345 28.9283 54.2738C28.8235 54.325 28.7275 54.3916 28.6426 54.4713C28.5519 54.5489 28.476 54.6425 28.4185 54.7477C28.3696 54.8459 28.3452 54.9539 28.3471 55.0637V56.4455C28.3422 56.594 28.352 56.7431 28.3767 56.8897C28.3921 56.9628 28.4309 57.0285 28.4874 57.0772C28.5709 57.1306 28.6637 57.1682 28.7609 57.1883V57.3734H27.3226V57.1908C27.3931 57.1715 27.4612 57.146 27.5269 57.1143C27.5681 57.0912 27.6034 57.0593 27.6305 57.0206C27.6659 56.9664 27.6887 56.9048 27.697 56.8404C27.7168 56.7139 27.7252 56.5858 27.7214 56.4579V54.4592C27.7206 54.3798 27.703 54.3015 27.6699 54.2296C27.6416 54.1714 27.5934 54.1258 27.5342 54.1012C27.4557 54.0658 27.373 54.0409 27.2881 54.0272V53.83L28.1526 53.7981H28.3791L28.3078 54.4125L28.3593 54.4273C28.495 54.2796 28.6424 54.1434 28.8002 54.0203C28.9054 53.9451 29.0195 53.8837 29.1399 53.8374C29.2564 53.7928 29.38 53.7703 29.5045 53.7709C29.6245 53.7695 29.7441 53.786 29.8591 53.8204C30.064 53.8754 30.2368 54.0129 30.3367 54.2002C30.3923 54.3071 30.4303 54.4221 30.4501 54.5409C30.4805 54.7086 30.4946 54.8786 30.4921 55.0491V56.4461C30.49 56.5693 30.4948 56.693 30.5068 56.816C30.5122 56.8781 30.5298 56.9383 30.5583 56.9936C30.5847 57.0371 30.6207 57.0733 30.6641 57.0997C30.7428 57.1388 30.8253 57.1685 30.9108 57.1886V57.3734ZM31.3169 54.0148C31.4224 54.0035 31.5246 53.9708 31.6173 53.9186C31.6914 53.8721 31.7524 53.8077 31.7947 53.731C31.8449 53.635 31.8797 53.5319 31.8981 53.4252C31.9228 53.3067 31.9497 53.1364 31.9746 52.9118H32.4942V53.8248H33.6885V54.1999H32.4942V55.8485C32.4915 56.0396 32.5015 56.2308 32.5238 56.4208C32.5379 56.5382 32.5753 56.6518 32.6345 56.7541C32.6811 56.825 32.7446 56.8836 32.819 56.9243C32.9036 56.9617 32.9953 56.9793 33.0876 56.976C33.1825 56.9766 33.2769 56.9562 33.3635 56.9169C33.4536 56.8696 33.5363 56.8096 33.6096 56.7392L33.7773 56.9391C33.6335 57.0883 33.4671 57.2132 33.2845 57.3093C33.1316 57.3866 32.9629 57.4264 32.7921 57.4254C32.6606 57.4357 32.5285 57.4158 32.4057 57.3671C32.2829 57.3183 32.1725 57.2421 32.0829 57.144C31.9082 56.8833 31.8266 56.5699 31.8514 56.2558V54.2048H31.3169V54.0148ZM36.2324 56.8404L36.1757 56.8256C36.0015 57.0149 35.7966 57.1727 35.5698 57.292C35.3834 57.3836 35.1788 57.4309 34.9716 57.4303C34.8013 57.4331 34.6326 57.3959 34.4789 57.3217C34.3426 57.2533 34.2282 57.1472 34.149 57.0156C34.0724 56.8751 34.0334 56.7168 34.0358 56.5564C34.0353 56.3801 34.0853 56.2075 34.1797 56.0595C34.2741 55.9115 34.4088 55.7944 34.5676 55.7226C35.0713 55.4919 35.6181 55.3741 36.1708 55.3771V55.1302C36.1776 54.9252 36.1527 54.7204 36.097 54.5233C36.0594 54.3907 35.9775 54.2755 35.8653 54.1974C35.7386 54.127 35.594 54.0935 35.4494 54.1012C35.2809 54.0923 35.1151 54.1469 34.9838 54.2543C34.851 54.3754 34.7561 54.5331 34.7106 54.7081H34.2179V54.215C34.409 54.1118 34.6065 54.0212 34.8091 53.9436C34.9626 53.8858 35.1211 53.8405 35.2817 53.8077C35.4436 53.7723 35.6088 53.755 35.7744 53.756C35.9771 53.7472 36.1789 53.7877 36.3629 53.8743C36.507 53.9576 36.619 54.0871 36.6803 54.2422C36.7666 54.4738 36.8043 54.7207 36.7916 54.9677V56.6457C36.7935 56.7153 36.8008 56.7846 36.8133 56.8531C36.8233 56.9078 36.8423 56.9603 36.8703 57.0085C36.8979 57.0489 36.9351 57.0822 36.9785 57.1047C37.0531 57.1416 37.1315 57.1696 37.2124 57.1886V57.3736H36.2126L36.2324 56.8404ZM36.1684 55.6805C35.7838 55.6623 35.4002 55.7315 35.0454 55.8829C34.9331 55.9305 34.8376 56.0113 34.7713 56.1148C34.705 56.2182 34.671 56.3395 34.6737 56.4629C34.6669 56.5797 34.6962 56.6961 34.7572 56.7959C34.8093 56.8737 34.8842 56.9334 34.9716 56.9664C35.0709 56.9977 35.1751 57.0128 35.2793 57.0107C35.4382 57.012 35.5947 56.9702 35.7324 56.8897C35.8639 56.815 35.9748 56.7081 36.0552 56.5789C36.1263 56.4664 36.1657 56.3369 36.1684 56.2038V55.6805ZM38.8476 52.3788V53.0969H38.1582V52.3788H38.8476ZM37.7911 57.1886C37.8609 57.1693 37.9284 57.1438 37.9933 57.1116C38.035 57.0888 38.0711 57.0566 38.0991 57.0181C38.1346 56.9642 38.1566 56.9023 38.1631 56.8379C38.184 56.7115 38.1929 56.5836 38.1902 56.4554V54.4592C38.1894 54.3798 38.1718 54.3015 38.1387 54.2296C38.1094 54.1712 38.0602 54.1256 38.0003 54.1012C37.9219 54.0655 37.8391 54.0407 37.7542 54.0272V53.83L38.6138 53.7981H38.8403V56.4458C38.8354 56.5943 38.8452 56.7434 38.8699 56.8899C38.8853 56.9631 38.9241 57.0288 38.9806 57.0775C39.0641 57.1308 39.1569 57.1685 39.2541 57.1886V57.3736H37.806L37.7911 57.1886ZM43.4872 57.3734H42.0318V57.1908C42.1029 57.171 42.1721 57.1454 42.2386 57.1143C42.2803 57.0921 42.3159 57.0599 42.3422 57.0206C42.3776 56.9664 42.4004 56.9048 42.4087 56.8404C42.4295 56.7157 42.4386 56.5893 42.4358 56.4629V55.488C42.4358 55.3153 42.4358 55.1599 42.4209 55.0191C42.4149 54.9025 42.3976 54.7869 42.3693 54.6737C42.3536 54.599 42.3243 54.5278 42.2831 54.4639C42.2522 54.4131 42.2121 54.3687 42.1648 54.3333C42.1187 54.2957 42.066 54.2672 42.0096 54.2494C41.935 54.2242 41.8567 54.2125 41.7781 54.2147C41.6839 54.2143 41.5908 54.2345 41.5049 54.2738C41.4005 54.3248 41.3042 54.3914 41.2192 54.4713C41.1286 54.5489 41.0526 54.6425 40.9951 54.7477C40.9463 54.8459 40.9219 54.9539 40.9238 55.0637V56.4455C40.9189 56.594 40.9286 56.7431 40.9533 56.8897C40.9688 56.9628 41.0076 57.0285 41.064 57.0772C41.1476 57.1306 41.2404 57.1682 41.3372 57.1883V57.3734H39.8822V57.1908C39.9527 57.1715 40.0211 57.146 40.0867 57.1143C40.1283 57.0921 40.1638 57.0599 40.1898 57.0206C40.2246 56.9656 40.2471 56.9045 40.2566 56.8404C40.2764 56.7139 40.2848 56.5858 40.281 56.4579V54.4592C40.2802 54.3798 40.2626 54.3015 40.2295 54.2296C40.2012 54.1714 40.1529 54.1258 40.0938 54.1012C40.0152 54.0661 39.9325 54.0412 39.8477 54.0272V53.83L40.7121 53.7981H40.9387L40.8871 54.4125L40.9387 54.4273C41.0748 54.2837 41.2223 54.1517 41.3796 54.0324C41.4848 53.9573 41.5989 53.896 41.7193 53.8498C41.8358 53.8052 41.9594 53.7826 42.0839 53.7833C42.2038 53.7816 42.3235 53.7984 42.4385 53.8328C42.6431 53.8878 42.8162 54.0252 42.916 54.2125C42.9714 54.3195 43.0097 54.4345 43.0295 54.553C43.0598 54.7207 43.074 54.8912 43.0712 55.0615V56.4582C43.0693 56.5819 43.074 56.7054 43.0862 56.8283C43.0916 56.8905 43.1092 56.9507 43.1377 57.006C43.164 57.0494 43.2001 57.0857 43.2435 57.1121C43.3222 57.1512 43.4047 57.1809 43.4899 57.201L43.4874 57.3736L43.4872 57.3734ZM47.1787 52.317V52.4974C47.0938 52.5111 47.011 52.5359 46.9324 52.5713C46.8762 52.5981 46.8297 52.6421 46.7994 52.697C46.7669 52.7658 46.7517 52.8411 46.7552 52.9167C46.756 53.0089 46.766 53.1004 46.7848 53.1906C46.8043 53.2869 46.8339 53.3955 46.8708 53.5165L47.7352 56.5368L48.7941 53.4942C48.8091 53.448 48.824 53.3988 48.8386 53.346C48.8533 53.2943 48.8658 53.2426 48.8755 53.1931C48.8864 53.151 48.894 53.1081 48.8975 53.0647C48.8998 53.0302 48.8998 52.9957 48.8975 52.9613C48.9028 52.9031 48.8965 52.8444 48.8787 52.7888C48.861 52.7333 48.8323 52.6819 48.7944 52.6379C48.6979 52.5554 48.578 52.5062 48.452 52.4974V52.317H50.0034V52.4974C49.9148 52.516 49.831 52.5529 49.7571 52.6057C49.6822 52.6682 49.6196 52.7444 49.5726 52.8304C49.4879 52.9894 49.4146 53.1543 49.3533 53.324L47.8215 57.4278H47.329L46.0975 53.2992C46.0522 53.1351 45.9937 52.975 45.9228 52.8205C45.8841 52.7381 45.8286 52.665 45.76 52.606C45.6874 52.5503 45.6033 52.5123 45.5139 52.4949V52.3145L47.1787 52.317ZM52.0448 56.8404L51.9905 56.8256C51.816 57.0155 51.6103 57.1733 51.3825 57.292C51.1962 57.3842 50.9913 57.4315 50.784 57.4303C50.6138 57.4331 50.4452 57.3959 50.2915 57.3217C50.1554 57.254 50.0417 57.1476 49.9641 57.0156C49.9028 56.9044 49.8648 56.7815 49.8526 56.6547C49.8405 56.528 49.8543 56.4 49.8933 56.2789C49.9719 56.0341 50.1483 55.8328 50.38 55.7226C50.8845 55.4917 51.4322 55.3739 51.9857 55.3771V55.1302C51.9931 54.925 51.9673 54.72 51.9094 54.5233C51.8728 54.3903 51.7908 54.2748 51.678 54.1974C51.5495 54.1224 51.4025 54.0864 51.2545 54.0937C51.0851 54.0845 50.9185 54.1391 50.7864 54.2469C50.6581 54.3695 50.5675 54.5271 50.5254 54.7006H50.033V54.2073C50.224 54.1041 50.4214 54.0135 50.6239 53.9359C50.7786 53.8781 50.9376 53.8328 51.0993 53.8003C51.261 53.7646 51.4262 53.7472 51.5917 53.7483C51.7936 53.7394 51.9946 53.7799 52.1778 53.8666C52.3253 53.9444 52.4426 54.0695 52.5104 54.2222C52.5961 54.454 52.6338 54.7007 52.6211 54.9476V56.6257C52.6252 56.6952 52.6333 56.7645 52.6455 56.833C52.6547 56.8875 52.6729 56.9403 52.6998 56.9884C52.7283 57.0285 52.7652 57.0613 52.8083 57.0846C52.887 57.1218 52.9695 57.1498 53.0547 57.1685V57.3734H52.0426L52.0448 56.8404ZM51.9832 55.6805C51.5987 55.6623 51.215 55.7315 50.8602 55.8829C50.7475 55.9301 50.6514 56.0107 50.5846 56.1142C50.5178 56.2177 50.4833 56.3392 50.4858 56.4629C50.4793 56.58 50.5087 56.6963 50.5699 56.7959C50.6223 56.8731 50.6969 56.9326 50.784 56.9664C50.8836 56.9977 50.9875 57.0128 51.0919 57.0107C51.251 57.0123 51.4075 56.9705 51.545 56.8897C51.6769 56.8156 51.788 56.7087 51.8676 56.5789C51.9391 56.4668 51.979 56.3372 51.9832 56.2038V55.6805ZM54.5911 56.4455C54.5862 56.594 54.5963 56.7431 54.621 56.8897C54.6364 56.9628 54.6752 57.0285 54.7317 57.0772C54.8152 57.1306 54.908 57.1682 55.0049 57.1883V57.3734H53.5273V57.1908C53.6141 57.1715 53.6974 57.1383 53.7736 57.092C53.819 57.0618 53.855 57.0189 53.877 56.9686C53.9022 56.9067 53.9174 56.8407 53.9212 56.7739C53.9324 56.6655 53.9375 56.5566 53.9362 56.448V52.8527C53.9363 52.7694 53.9263 52.6865 53.9066 52.6057C53.8964 52.5495 53.8737 52.4963 53.8401 52.4503C53.8097 52.4111 53.7698 52.3805 53.7243 52.3615C53.6449 52.3303 53.5624 52.308 53.4782 52.295V52.1025L54.3695 52.0653H54.5911V56.4455ZM56.645 56.4455C56.6402 56.5942 56.6501 56.743 56.6746 56.8897C56.6903 56.9628 56.7291 57.0285 56.7853 57.0772C56.8691 57.1306 56.9616 57.1682 57.0588 57.1883V57.3734H55.5812V57.1908C55.668 57.1721 55.7516 57.1385 55.8275 57.092C55.8728 57.0618 55.9089 57.0189 55.9306 56.9686C55.9561 56.9067 55.9713 56.8407 55.9751 56.7739C55.9862 56.6655 55.9914 56.5566 55.99 56.448V52.8527C55.9901 52.7694 55.98 52.6865 55.9602 52.6057C55.9501 52.5495 55.9274 52.4963 55.894 52.4503C55.8636 52.4111 55.8237 52.3805 55.7781 52.3615C55.6988 52.33 55.6163 52.3077 55.5321 52.295V52.1025L56.4233 52.0653H56.645V56.4455ZM60.664 56.7417C60.5314 56.8836 60.3854 57.0126 60.228 57.1267C59.951 57.329 59.6166 57.4347 59.2752 57.4278C59.0624 57.443 58.849 57.4099 58.6505 57.3309C58.4519 57.252 58.2733 57.1291 58.1275 56.9713C57.8416 56.5826 57.7035 56.1024 57.7384 55.6189C57.7323 55.284 57.7996 54.9519 57.9354 54.6465C58.0567 54.3782 58.2528 54.1518 58.4995 53.995C58.7221 53.8662 58.9703 53.7894 59.2259 53.7702C59.4815 53.7511 59.7382 53.79 59.9771 53.8842C60.1417 53.9548 60.2858 54.0669 60.3957 54.2098C60.5116 54.3643 60.5951 54.5406 60.6418 54.7282C60.7083 54.9944 60.7411 55.268 60.7403 55.5422H58.4132V55.609C58.4072 55.8593 58.4396 56.109 58.5092 56.3493C58.5693 56.5335 58.6816 56.6957 58.8321 56.8157C59.004 56.9327 59.2085 56.9907 59.4154 56.9809C59.6018 56.9842 59.7867 56.9464 59.9572 56.8701C60.1429 56.7792 60.31 56.6537 60.4497 56.5L60.664 56.7417ZM60.0435 55.2388C60.0364 55.0177 60.0034 54.7981 59.945 54.5849C59.9056 54.4355 59.8242 54.3009 59.7109 54.1974C59.597 54.1021 59.4523 54.0529 59.3047 54.0594C59.1862 54.0563 59.0687 54.0829 58.9627 54.1366C58.8566 54.1904 58.7652 54.2697 58.6964 54.3676C58.5266 54.6259 58.4343 54.9285 58.4305 55.2388H60.0435ZM62.8953 57.6745C62.7853 57.9323 62.6534 58.18 62.5011 58.4148C62.3918 58.5904 62.2465 58.7402 62.0752 58.854C61.9104 58.9544 61.7207 59.0049 61.5285 58.9997C61.3746 58.9973 61.2213 58.9808 61.0705 58.9502V58.2099H61.4004C61.4178 58.2894 61.456 58.3626 61.5111 58.4222C61.5656 58.4651 61.634 58.486 61.7032 58.4813C61.7716 58.4825 61.8388 58.4673 61.9002 58.4371C61.9688 58.4007 62.0299 58.3512 62.08 58.2913C62.1646 58.1933 62.2389 58.0867 62.3017 57.9732C62.4059 57.7968 62.502 57.6156 62.5898 57.4303L61.5531 54.6418C61.5086 54.5118 61.4542 54.3856 61.3904 54.2642C61.358 54.2017 61.3137 54.1462 61.2601 54.1012C61.1957 54.0565 61.1226 54.0263 61.0458 54.0123V53.83H62.5505V54.0126C62.4652 54.0287 62.3824 54.0561 62.3041 54.094C62.2608 54.1159 62.2248 54.1504 62.2008 54.193C62.1764 54.2409 62.1642 54.2945 62.1663 54.3484C62.1677 54.4188 62.1753 54.4886 62.1883 54.5579C62.2105 54.6415 62.2369 54.724 62.267 54.8049L62.9247 56.6581L63.6635 54.8813C63.7014 54.7933 63.7337 54.7026 63.7595 54.6099C63.7829 54.5348 63.7953 54.4566 63.7964 54.3778C63.8045 54.2865 63.772 54.1963 63.708 54.1311C63.6201 54.0633 63.5166 54.0191 63.4073 54.0027V53.8201H64.7913V54.0027C64.7113 54.0154 64.6353 54.0467 64.5697 54.094C64.5056 54.1471 64.453 54.2125 64.4147 54.2865C64.3461 54.4056 64.2845 54.5285 64.23 54.6542L62.8951 57.6748L62.8953 57.6745ZM66.9043 57.3734V57.1908C67.0147 57.1705 67.1196 57.1267 67.212 57.0624C67.2663 57.0057 67.301 56.9331 67.3108 56.8553C67.3317 56.7205 67.3406 56.5844 67.3379 56.4483V53.2399C67.3401 53.1161 67.3336 52.9924 67.3181 52.8697C67.3113 52.8048 67.2903 52.7423 67.2565 52.6868C67.2296 52.6427 67.1912 52.6069 67.1455 52.5834C67.067 52.5446 66.9845 52.5148 66.8995 52.4946V52.3142H68.9213C69.2404 52.304 69.5589 52.3464 69.8644 52.4402C70.0766 52.5048 70.263 52.6354 70.3962 52.8128C70.5185 53.0003 70.5789 53.2224 70.5688 53.4469C70.5734 53.6405 70.5302 53.8319 70.4431 54.0046C70.3655 54.1572 70.2563 54.2911 70.123 54.3971C69.9642 54.5151 69.7913 54.6121 69.6083 54.6858V54.7205C69.9027 54.7958 70.1678 54.9591 70.3693 55.1893C70.539 55.3974 70.6306 55.6597 70.6279 55.9296C70.6413 56.2211 70.5619 56.5091 70.4014 56.7513C70.2473 56.969 70.0291 57.1314 69.7781 57.2153C69.4598 57.3171 69.127 57.3646 68.7933 57.3558L66.9043 57.3734ZM68.675 54.5849C68.9838 54.6067 69.2894 54.5108 69.5321 54.3159C69.6352 54.213 69.7152 54.0887 69.7666 53.9515C69.818 53.8143 69.8396 53.6676 69.83 53.5212C69.8355 53.3758 69.8067 53.2312 69.7461 53.0993C69.6953 52.9902 69.6162 52.8973 69.5171 52.8304C69.4175 52.7606 69.3055 52.7111 69.1872 52.6846C69.0447 52.6541 68.8993 52.6393 68.7536 52.6404H68.3844L68.0398 52.6552V54.5725L68.675 54.5849ZM68.0273 57.0206C68.2094 57.0379 68.4091 57.0478 68.6307 57.0478C68.8826 57.0575 69.1338 57.0155 69.3693 56.9243C69.5359 56.8552 69.6729 56.7284 69.7559 56.5665C69.8424 56.3787 69.8837 56.1733 69.8766 55.967C69.8855 55.7606 69.8406 55.5554 69.7464 55.3722C69.6544 55.2137 69.5118 55.0918 69.3421 55.0265C69.1008 54.9386 68.8449 54.8993 68.5887 54.9107H68.0148L68.0273 57.0206ZM73.5779 56.8404L73.5212 56.8256C73.3471 57.0149 73.1423 57.1726 72.9157 57.292C72.7291 57.3836 72.5244 57.4309 72.3171 57.4303C72.1469 57.4331 71.9784 57.3959 71.8247 57.3217C71.6886 57.254 71.5748 57.1476 71.4972 57.0156C71.4359 56.9044 71.398 56.7815 71.3858 56.6547C71.3736 56.528 71.3874 56.4 71.4264 56.2789C71.5051 56.0341 71.6814 55.8328 71.9134 55.7226C72.417 55.492 72.9638 55.3742 73.5164 55.3771V55.1302C73.5232 54.9252 73.4983 54.7204 73.4426 54.5233C73.405 54.3907 73.3232 54.2756 73.2111 54.1974C73.0818 54.1223 72.934 54.0863 72.7852 54.0937C72.6166 54.0849 72.4509 54.1394 72.3196 54.2469C72.1913 54.3695 72.1006 54.5271 72.0586 54.7006H71.5661V54.2073C71.7572 54.1041 71.9546 54.0135 72.1571 53.9359C72.313 53.8846 72.4727 53.8458 72.6346 53.8198C72.7924 53.7853 72.9534 53.768 73.1148 53.7681C73.3176 53.7592 73.5195 53.7998 73.7036 53.8864C73.8512 53.9639 73.9684 54.0893 74.0359 54.242C74.1219 54.4734 74.1597 54.7204 74.1469 54.9674V56.6455C74.1496 56.715 74.1578 56.7843 74.1713 56.8528C74.1805 56.9073 74.1987 56.9601 74.2256 57.0082C74.253 57.0481 74.2893 57.0811 74.3314 57.1044C74.4101 57.1416 74.4928 57.1699 74.5778 57.1883V57.3734H73.5657L73.5779 56.8404ZM73.5139 55.6805C73.1278 55.6651 72.7433 55.7376 72.3885 55.8928C72.2762 55.9404 72.1807 56.0212 72.1144 56.1247C72.0481 56.2281 72.0141 56.3494 72.0168 56.4727C72.01 56.5896 72.0393 56.706 72.1003 56.8058C72.1524 56.8836 72.2273 56.9433 72.3147 56.9763C72.4143 57.0076 72.5182 57.0228 72.6226 57.0203C72.7842 57.0163 72.9417 56.9678 73.0782 56.88C73.2096 56.8052 73.3205 56.6983 73.4008 56.569C73.4721 56.4568 73.5112 56.327 73.5139 56.1939V55.6805ZM78.7349 57.3734H77.2793V57.1908C77.3503 57.171 77.4195 57.1454 77.4863 57.1143C77.5278 57.0921 77.5633 57.0599 77.5894 57.0206C77.6249 56.9664 77.6477 56.9048 77.6561 56.8404C77.6769 56.7157 77.686 56.5893 77.6833 56.4629V55.488C77.6833 55.3153 77.6833 55.1599 77.6683 55.0191C77.6623 54.9025 77.6451 54.7869 77.6168 54.6737C77.601 54.599 77.5718 54.5278 77.5305 54.4639C77.4997 54.4131 77.4595 54.3687 77.4122 54.3333C77.3662 54.2957 77.3137 54.2673 77.2573 54.2494C77.1826 54.2242 77.1042 54.2124 77.0256 54.2147C76.9314 54.2143 76.8382 54.2345 76.7524 54.2738C76.6476 54.325 76.5516 54.3916 76.4667 54.4713C76.3755 54.549 76.2988 54.6426 76.2401 54.7477C76.1933 54.8462 76.1698 54.9543 76.1712 55.0637V56.4455C76.1663 56.594 76.1761 56.7431 76.2008 56.8897C76.2162 56.9628 76.255 57.0285 76.3115 57.0772C76.395 57.1306 76.4878 57.1682 76.585 57.1883V57.3734H75.1369V57.1908C75.2064 57.1715 75.274 57.1462 75.3388 57.1143C75.3814 57.0938 75.4173 57.0612 75.4422 57.0206C75.4776 56.9664 75.5003 56.9048 75.5086 56.8404C75.5298 56.7139 75.5388 56.5861 75.5358 56.4579V54.4592C75.5349 54.3798 75.5173 54.3015 75.4842 54.2296C75.455 54.1713 75.4059 54.1257 75.3461 54.1012C75.2678 54.0652 75.185 54.0403 75.1 54.0272V53.83L75.9642 53.7981H76.1907L76.1343 54.4125L76.1859 54.4273C76.322 54.2837 76.4694 54.1517 76.6267 54.0324C76.732 53.9573 76.8463 53.896 76.9667 53.8498C77.0831 53.8052 77.2066 53.7827 77.3311 53.7833C77.451 53.7816 77.5707 53.7984 77.6857 53.8328C77.8905 53.8878 78.0634 54.0252 78.1632 54.2125C78.2188 54.3195 78.2568 54.4345 78.2766 54.553C78.3073 54.7207 78.3211 54.8912 78.3187 55.0615V56.4582C78.3165 56.5819 78.3214 56.7054 78.3333 56.8283C78.3388 56.8905 78.3564 56.9507 78.3849 57.006C78.4112 57.0494 78.4473 57.0857 78.4907 57.1121C78.5694 57.1512 78.6521 57.1809 78.7373 57.201L78.7346 57.3736L78.7349 57.3734ZM80.3503 55.3078H80.4683C80.5362 55.3095 80.6032 55.3004 80.668 55.2809C80.7399 55.2543 80.8078 55.2177 80.8699 55.1723C80.9437 55.1154 81.0495 55.0265 81.1852 54.9009C81.2733 54.8162 81.3555 54.7254 81.4312 54.6294C81.4828 54.5692 81.5235 54.5007 81.552 54.427C81.5712 54.3775 81.5813 54.3247 81.5816 54.2714C81.5832 54.239 81.5777 54.2067 81.5653 54.1768C81.553 54.1469 81.5341 54.1202 81.5102 54.0987C81.4472 54.0467 81.3696 54.0165 81.2885 54.0123V53.83H82.8817V54.0126C82.7532 54.0407 82.6306 54.0917 82.5198 54.1633C82.378 54.2536 82.2452 54.3577 82.1234 54.4741L81.276 55.2812L82.3374 56.6754C82.4358 56.8083 82.5482 56.9299 82.6725 57.0381C82.7694 57.1118 82.8812 57.1633 83 57.1886V57.3736H81.5816V57.191C81.6307 57.1886 81.6787 57.1751 81.7218 57.1517C81.7385 57.1394 81.7518 57.1229 81.7604 57.1039C81.7691 57.0849 81.7728 57.064 81.7712 57.0431C81.7712 57.0065 81.7636 56.9704 81.749 56.937C81.7258 56.8842 81.6979 56.8337 81.6654 56.7862C81.6233 56.7271 81.5495 56.6185 81.4386 56.4656L81.0077 55.8708C80.9529 55.7935 80.8929 55.7202 80.8281 55.6513C80.7962 55.619 80.7574 55.5945 80.7147 55.5798C80.6644 55.5611 80.6109 55.5526 80.5573 55.5551H80.3503V56.4461C80.3454 56.5946 80.3552 56.7431 80.3799 56.8899C80.3954 56.9631 80.4342 57.0288 80.4906 57.0775C80.5742 57.1308 80.6669 57.1685 80.7641 57.1886V57.3736H79.2865V57.191C79.3733 57.1718 79.4563 57.1385 79.5326 57.0923C79.5781 57.0621 79.614 57.0192 79.6359 56.9688C79.6614 56.907 79.6764 56.841 79.6804 56.7742C79.6913 56.6658 79.6964 56.5569 79.6951 56.4483V52.8527C79.6952 52.7694 79.6853 52.6865 79.6655 52.6057C79.6553 52.5495 79.6326 52.4963 79.599 52.4503C79.5687 52.4111 79.5289 52.3805 79.4835 52.3615C79.4 52.3294 79.3133 52.3071 79.2249 52.295V52.1025L80.1162 52.0653H80.3378L80.3503 55.3078Z" fill="#02472D"/>
<path d="M61.5483 40.574C61.5412 41.4611 61.1513 42.3043 60.4749 42.8958C58.9935 44.1776 56.7674 44.1776 55.286 42.8958C54.602 42.3087 54.2097 41.4617 54.2097 40.5715C54.2097 39.6813 54.602 38.8343 55.286 38.2472C56.7674 36.9654 58.9938 36.9654 60.4749 38.2472C61.1519 38.8385 61.5417 39.6816 61.5483 40.569V40.574Z" fill="#FEA813"/>
</g>
<defs>
<clipPath id="clip0_1_9357">
<rect width="70" height="22" fill="white" transform="translate(13 37)"/>
</clipPath>
</defs>
</svg>
