<svg width="96" height="96" viewBox="0 0 96 96" fill="none" xmlns="http://www.w3.org/2000/svg">
<circle cx="48" cy="48" r="47" fill="white" stroke="white" stroke-width="2"/>
<path d="M19 20V75.1744H22.5905V75.1665H31.8085C31.823 75.1678 31.8217 75.1717 31.8415 75.1717C31.9551 75.1717 33.3514 75.1546 33.4927 75.1229C38.2444 74.1651 40.3646 70.1731 40.3646 63.0568V30.5971C40.3646 30.2985 40.1229 29.9181 39.6196 29.9181C39.1149 29.9181 38.0026 29.9181 38.0026 29.9181H32.2946C31.8824 29.9181 31.6156 30.1849 31.6156 30.5971V32.2814C31.6156 32.6935 31.8824 32.9604 32.2946 32.9604H37.3236V63.111C37.3236 68.6328 36.0885 70.4174 34.5601 71.2431C34.255 71.4082 33.7067 71.5073 33.0779 71.5707H22.5905V23.5905H73.4095V71.5799H44.3804L42.0198 75.1744H77V20H19ZM63.6724 38.7569C63.6724 32.8917 59.7583 29.9181 52.0396 29.9181H44.2378C43.8256 29.9181 43.5588 30.1849 43.5588 30.5971V64.4571C43.5588 64.8692 43.8256 65.1361 44.2378 65.1361H52.1453C61.1731 65.1361 65.1982 62.0845 65.1982 55.2417C65.1982 50.7147 62.8653 47.7675 58.432 46.6552C61.9115 45.2761 63.6724 42.6235 63.6724 38.7569ZM62.1585 55.0832C62.1585 60.2114 59.2589 62.3038 52.1466 62.3038H46.6037V48.2827H53.0964C57.2299 48.2827 62.1585 49.4624 62.1585 55.0832ZM52.9894 45.6103H46.6037V32.6962H51.6737C57.9538 32.6962 60.6328 34.5892 60.6328 39.0225C60.6314 43.2087 57.8468 45.6103 52.9894 45.6103Z" fill="#B5983E"/>
</svg>
