<svg width="96" height="96" viewBox="0 0 96 96" fill="none" xmlns="http://www.w3.org/2000/svg">
<circle cx="48" cy="48" r="47" fill="white" stroke="white" stroke-width="2"/>
<path d="M47.8872 57.226C49.7342 57.226 51.5398 56.6783 53.0755 55.6521C54.6113 54.6259 55.8083 53.1674 56.5151 51.461C57.2219 49.7545 57.4069 47.8768 57.0465 46.0652C56.6862 44.2537 55.7967 42.5897 54.4907 41.2836C53.1846 39.9776 51.5206 39.0881 49.7091 38.7278C47.8975 38.3674 46.0198 38.5524 44.3133 39.2592C42.6069 39.9661 41.1484 41.163 40.1222 42.6988C39.0961 44.2345 38.5483 46.0401 38.5483 47.8872C38.5483 49.1135 38.7899 50.3279 39.2592 51.461C39.7285 52.594 40.4164 53.6235 41.2836 54.4907C43.035 56.2421 45.4103 57.226 47.8872 57.226Z" fill="#373A36"/>
<path d="M61.9494 42.0623V33.8252H53.7193L61.9494 42.0623ZM42.0623 33.8252H33.8252V42.0623L42.0623 33.8252ZM33.8252 53.7193V61.9563H42.0623L33.8252 53.7193ZM53.7193 61.9494H61.9563V53.7193L53.7193 61.9494Z" fill="#373A36"/>
<path d="M42.0621 61.9492L47.8871 67.7742L53.7191 61.9492H42.0621ZM28 47.8871L33.825 53.7191V42.0621L28 47.8871ZM61.9492 53.7191L67.7742 47.8941L61.9492 42.0621V53.7191ZM47.8871 28L42.0621 33.825H53.7191L47.8871 28Z" fill="#F04E23"/>
</svg>
