<svg width="96" height="96" viewBox="0 0 96 96" fill="none" xmlns="http://www.w3.org/2000/svg">
<circle cx="48" cy="48" r="47" fill="white" stroke="white" stroke-width="2"/>
<g clip-path="url(#clip0_1_9314)">
<path d="M11.0388 53.934C11.0388 53.904 11.0704 53.892 11.1021 53.91C11.1338 53.928 11.1655 53.958 11.1655 53.976C11.1655 53.988 11.1401 54 11.1021 54C11.0704 54 11.0388 53.97 11.0388 53.934ZM65.4449 51.282C65.1472 51.0959 65.0079 50.802 65.0079 50.382C65.0079 49.77 65.1916 49.572 66.1417 49.1759C66.5028 49.0259 66.8068 48.8999 66.8195 48.8999C66.8322 48.8999 66.8448 49.3199 66.8448 49.8299C66.8448 50.8919 66.7878 51.1079 66.4521 51.2999C66.1607 51.468 65.7237 51.462 65.4449 51.282ZM41.3932 51.432C40.8041 51.228 40.3733 50.712 40.272 50.088C40.215 49.752 40.367 49.206 40.5761 49.002L40.7154 48.864L41.9253 50.022L43.1415 51.18L42.8058 51.336C42.3497 51.546 41.8366 51.582 41.3932 51.432ZM41.3298 47.286C40.8168 46.56 40.8421 45.714 41.3806 45.45C41.6403 45.324 41.7859 45.336 42.0076 45.516C42.4891 45.894 42.413 46.824 41.8556 47.454C41.7606 47.556 41.6593 47.64 41.6339 47.64C41.6023 47.64 41.4692 47.478 41.3298 47.286ZM58.3693 51.534C58.211 51.5159 58.04 51.444 57.9576 51.3659L57.8183 51.234L57.7993 47.886C57.7802 43.986 57.7106 44.34 58.5087 44.334C59.1802 44.328 59.5539 44.46 59.8706 44.802C60.2063 45.156 60.3077 45.57 60.2127 46.122C60.1683 46.338 60.0733 46.608 59.9846 46.734C59.7755 47.034 59.2688 47.286 58.7937 47.322C58.591 47.34 58.42 47.376 58.4136 47.394C58.4073 47.412 58.3946 47.556 58.382 47.706L58.3629 47.982L58.724 48.018C59.2054 48.0541 59.6742 48.252 59.9592 48.528C60.7446 49.29 60.6433 50.856 59.7755 51.336C59.4589 51.516 58.8572 51.6 58.3693 51.534ZM11.0388 42.06C11.0388 42.03 11.0704 42 11.1085 42C11.1401 42 11.1528 42.03 11.1338 42.06C11.1148 42.096 11.0831 42.12 11.0641 42.12C11.0514 42.12 11.0388 42.096 11.0388 42.06Z" fill="#FEFFFF"/>
<path d="M11.1148 53.9282C11.0641 53.8802 11.0388 53.5802 11.0388 52.9622V52.0682L11.2098 52.1162C11.5012 52.1942 23.1375 52.2122 23.3465 52.1342C23.4415 52.0922 23.5429 52.0861 23.5682 52.1102C23.5936 52.1282 23.6126 52.5242 23.6126 52.9742C23.6126 53.5861 23.5872 53.8261 23.5239 53.8981C23.4479 53.9942 22.9348 54.0001 17.3162 54.0001C12.635 54.0002 11.1718 53.9822 11.1148 53.9282ZM64.3554 52.2782C63.2405 51.9242 62.7401 50.4302 63.4622 49.6322C63.7663 49.2902 63.988 49.1761 64.8178 48.9242C65.2168 48.8042 65.8376 48.6002 66.1987 48.4681L66.8448 48.2281V47.7541C66.8448 46.9802 66.6357 46.6802 66.0847 46.6802C65.578 46.6802 65.2296 46.9922 64.9698 47.6882C64.7862 48.1802 64.6847 48.2702 64.33 48.2702C63.7156 48.2702 63.2468 47.8622 63.3292 47.4062C63.4939 46.5482 64.8494 45.9602 66.49 46.0382C67.5668 46.0802 68.1433 46.3382 68.4347 46.9022C68.5803 47.1842 68.5867 47.2382 68.6184 49.2961C68.65 51.2642 68.6564 51.4142 68.7703 51.5342C68.8527 51.6181 68.9667 51.6602 69.1377 51.6602H69.3786V51.9302C69.3786 52.1882 69.3722 52.1942 69.1442 52.2422C69.0111 52.2661 68.6628 52.2902 68.3651 52.2842C67.7633 52.2842 67.3452 52.1461 67.0729 51.8702L66.9209 51.7142L66.5599 51.9302C65.8439 52.3682 65.0395 52.4942 64.3554 52.2782ZM66.4521 51.3002C66.7878 51.1082 66.8448 50.8922 66.8448 49.8302C66.8448 49.3202 66.8322 48.9002 66.8195 48.9002C66.8068 48.9002 66.5028 49.0262 66.1417 49.1762C65.1916 49.5722 65.0079 49.7702 65.0079 50.3822C65.0079 50.8022 65.1472 51.0961 65.4449 51.2822C65.7237 51.4622 66.1607 51.4682 66.4521 51.3002ZM40.329 52.2062C39.835 52.0742 39.5562 51.9062 39.2015 51.5342C38.6758 50.9762 38.5364 50.1002 38.8721 49.4222C39.0558 49.0622 39.4929 48.6422 39.9616 48.3842L40.2277 48.2342L40.0123 47.8922C39.5372 47.1482 39.4866 46.4522 39.8666 45.7802C40.2277 45.1382 40.8675 44.8022 41.7289 44.8082C42.2483 44.8142 42.5714 44.8982 42.9451 45.1442C43.5533 45.5402 43.8066 46.4222 43.4772 47.0282C43.2998 47.3522 42.9007 47.7122 42.4763 47.9222C42.2926 48.0122 42.1406 48.1202 42.1406 48.1502C42.1406 48.1862 42.584 48.6422 43.1224 49.1702L44.1043 50.1302L44.231 49.9862C44.497 49.6923 44.6363 48.8462 44.5477 48.0302L44.516 47.7302L44.8644 47.5682C45.0544 47.4782 45.3268 47.4002 45.4662 47.3882C45.7005 47.3702 45.7259 47.3882 45.8588 47.6102C45.973 47.8022 46.0047 47.9402 46.0047 48.3002C45.9983 48.9902 45.6879 49.6022 44.9785 50.3162L44.6681 50.6282L45.0292 50.9282C45.5613 51.3662 45.9983 51.6002 46.3721 51.6422L46.7015 51.6782V52.1822L46.3911 52.2182C45.6436 52.3022 44.4907 52.0802 43.965 51.7502C43.6863 51.5762 43.6419 51.5702 43.5279 51.6962C43.3886 51.8582 42.7678 52.1222 42.2864 52.2242C41.6973 52.3502 40.8295 52.3442 40.329 52.2062ZM42.8058 51.3362L43.1415 51.1802L41.9253 50.0222L40.7154 48.8642L40.5761 49.0022C40.367 49.2061 40.215 49.7522 40.272 50.0882C40.4557 51.2462 41.6846 51.8522 42.8058 51.3362ZM41.8556 47.4542C42.4131 46.8242 42.4891 45.8942 42.0076 45.5162C41.7859 45.3362 41.6402 45.3242 41.3806 45.4502C41.0322 45.6182 40.8738 46.1222 41.0005 46.6202C41.0764 46.9142 41.5262 47.6402 41.6339 47.6402C41.6593 47.6402 41.7606 47.5562 41.8556 47.4542ZM83.365 52.1942C82.6175 52.0922 82.2817 51.8461 81.4203 50.7602C80.9136 50.1242 80.2104 49.0922 80.2104 48.9902C80.2104 48.9182 81.1923 47.6102 81.7433 46.9382C82.0537 46.5662 82.3261 46.2902 82.4591 46.2362C82.6238 46.1582 82.8899 46.1402 83.6563 46.1402H84.6445V46.3802C84.6445 46.6082 84.6381 46.6202 84.3785 46.6802C83.6183 46.8602 83.2129 47.1062 82.3071 47.9162L81.775 48.3962L82.1107 48.8402C82.5858 49.4702 83.0039 49.9742 83.6436 50.6762C84.258 51.3482 84.4798 51.5462 84.7712 51.6662C84.9422 51.7382 84.9612 51.7802 84.9612 52.0022V52.2602L84.3468 52.2542C84.0047 52.2482 83.5613 52.2242 83.365 52.1942ZM27.5082 51.9362C27.5082 51.6722 27.5082 51.6722 27.7679 51.6302C28.053 51.5822 28.2367 51.4322 28.3 51.1922C28.3634 50.9282 28.414 44.8142 28.3507 44.5802C28.2873 44.3402 28.0466 44.2322 27.5906 44.2262L27.3182 44.2202V43.6802L28.9398 43.6922L30.5551 43.7102L31.7523 46.5122C32.4047 48.0602 32.9558 49.3502 32.9684 49.3922C32.9875 49.4342 33.5449 48.1622 34.2163 46.5722L35.4388 43.6802H38.5934V44.2022L38.1753 44.2382C37.4532 44.3042 37.5166 43.9502 37.5166 47.9402C37.5166 51.8702 37.4658 51.5522 38.074 51.6302L38.4034 51.6722V52.2001H34.7294V51.9301C34.7294 51.6781 34.742 51.6601 34.9068 51.6601C35.1982 51.6601 35.5466 51.5401 35.6162 51.4201C35.6922 51.2821 35.7049 45.3601 35.6289 45.3601C35.5972 45.3601 34.9637 46.8541 34.21 48.6781L32.8417 51.9901L32.4681 52.0081L32.1007 52.0261L31.5939 50.8081C31.3152 50.1361 30.669 48.5942 30.156 47.3701L29.2248 45.1501V47.7901C29.2312 49.2421 29.2565 50.6341 29.2882 50.8801C29.3515 51.4321 29.4782 51.5641 30.004 51.6241L30.3587 51.6662V52.2002H27.5082V51.9362Z" fill="#048566"/>
<path d="M47.0815 51.936V51.672L47.4172 51.63C47.5946 51.606 47.81 51.552 47.8923 51.504L48.0317 51.42V44.34L47.7023 44.334C46.4987 44.316 46.1567 44.538 45.8716 45.528C45.8083 45.744 45.7386 45.936 45.7197 45.954C45.6943 45.972 45.5677 45.996 45.4282 46.002L45.1812 46.014V43.68H52.8458V46.02H52.5988C52.3074 46.02 52.3011 46.014 52.1554 45.516C51.883 44.592 51.5473 44.34 50.5781 44.34H49.9953L50.0079 47.892L50.027 51.444L50.1854 51.522C50.274 51.564 50.4767 51.612 50.6478 51.63L50.9455 51.666V52.2H47.0815V51.936ZM54.8095 51.936V51.678L55.2402 51.642C55.9433 51.5759 55.8863 51.894 55.8863 47.934C55.8863 44.598 55.8863 44.52 55.7596 44.4C55.6899 44.334 55.5569 44.28 55.4619 44.28C55.3605 44.28 55.1769 44.262 55.0502 44.244C54.8158 44.208 54.8095 44.196 54.8095 43.944V43.68H57.2102C60.2191 43.68 60.7258 43.746 61.4416 44.238C61.7393 44.436 61.9737 44.736 62.0877 45.072C62.1891 45.36 62.1954 45.978 62.1004 46.296C61.9547 46.794 61.4543 47.262 60.8018 47.508L60.5041 47.616L60.8715 47.724C61.581 47.934 62.0117 48.282 62.3537 48.9C62.4868 49.14 62.5058 49.248 62.5058 49.86C62.5058 50.496 62.4931 50.58 62.3283 50.892C62.1066 51.324 61.6316 51.732 61.1565 51.9059C60.4344 52.164 59.991 52.194 57.3306 52.2H54.8095V51.936ZM59.7757 51.336C60.6435 50.856 60.7448 49.29 59.9593 48.528C59.6743 48.252 59.2056 48.0541 58.7241 48.018L58.3631 47.982L58.3821 47.706C58.3947 47.556 58.4074 47.412 58.4138 47.394C58.4202 47.376 58.5911 47.34 58.7938 47.322C59.2689 47.286 59.7757 47.034 59.9847 46.734C60.0734 46.608 60.1684 46.338 60.2128 46.122C60.3078 45.57 60.2064 45.156 59.8707 44.802C59.554 44.46 59.1803 44.328 58.5088 44.334C57.7107 44.34 57.7804 43.986 57.7994 47.886L57.8184 51.234L57.9577 51.3659C58.2364 51.636 59.2752 51.618 59.7757 51.336ZM69.7587 51.936C69.7587 51.6841 69.765 51.6721 69.9804 51.636C70.3921 51.558 70.3921 51.57 70.3921 49.218C70.3921 47.178 70.3857 47.094 70.2654 46.98C70.1957 46.914 70.0754 46.86 69.9994 46.86C69.651 46.86 69.5686 46.8 69.5686 46.554C69.5686 46.362 69.5939 46.32 69.7143 46.29C69.8473 46.266 71.9377 45.96 71.9947 45.96C72.0074 45.96 72.0517 46.152 72.0961 46.38L72.1784 46.806L72.3304 46.71C73.2616 46.134 73.648 45.996 74.3828 45.996C75.1176 45.996 75.5293 46.14 75.8904 46.536C76.2894 46.962 76.3021 47.028 76.3401 49.326C76.3718 50.9041 76.3971 51.426 76.4605 51.498C76.5048 51.546 76.6568 51.606 76.7962 51.63C77.0432 51.672 77.0432 51.672 77.0432 51.936V52.2H73.7493V51.666L74.0597 51.6241C74.2307 51.606 74.408 51.5641 74.4524 51.5341C74.5221 51.4921 74.5411 51.1321 74.5411 49.578C74.5411 47.79 74.5347 47.652 74.4144 47.43C74.1103 46.854 73.2044 46.758 72.6281 47.238C72.2354 47.568 72.2227 47.628 72.229 49.638C72.229 50.856 72.2543 51.468 72.2987 51.522C72.3367 51.564 72.4444 51.6 72.5394 51.6C72.9195 51.6 72.9892 51.654 72.9892 51.936V52.2H69.7587V51.936ZM77.4233 51.936C77.4233 51.6721 77.4296 51.666 77.645 51.6241C78.082 51.546 78.0567 51.786 78.0567 47.7841C78.0567 44.2381 78.0567 44.1601 77.93 44.0401C77.8603 43.9741 77.74 43.9201 77.664 43.9201C77.3156 43.9201 77.2333 43.8601 77.2333 43.6141C77.2333 43.3441 77.1129 43.3801 78.6965 43.1701C79.2666 43.0981 79.7607 43.0561 79.7924 43.0861C79.881 43.1581 79.881 43.2001 79.8874 47.4781L79.8937 51.48L80.0394 51.54C80.1154 51.57 80.3118 51.612 80.4764 51.63L80.7679 51.666L80.7552 51.918L80.7362 52.17L79.0828 52.188L77.4233 52.2V51.936ZM11.0388 46.572C11.0388 43.206 11.0578 42.126 11.1148 42.072C11.1718 42.018 12.6414 42 17.3415 42H23.4985L23.5745 42.156C23.6632 42.342 23.6759 50.796 23.5872 50.934C23.4795 51.09 23.3718 50.9579 23.1057 50.34C22.6497 49.272 20.0905 43.368 19.9575 43.062C19.8879 42.906 19.7929 42.78 19.7548 42.78C19.6535 42.78 17.7912 47.13 17.8355 47.25C17.8672 47.322 17.9939 47.34 18.4753 47.34H19.0771L19.3621 46.77C19.5141 46.458 19.6852 46.2 19.7296 46.2C19.8372 46.2 21.7566 50.652 21.7312 50.838C21.7122 50.97 21.7059 50.97 20.021 50.988C17.9243 51.006 18.051 51.06 18.0826 50.118C18.108 49.26 18.108 49.26 19.2482 49.26C19.9386 49.26 20.1097 49.242 20.135 49.17C20.173 49.086 19.8816 48.276 19.7613 48.138C19.717 48.078 19.1595 48.06 17.3478 48.06C16.0557 48.06 14.9661 48.084 14.9218 48.108C14.8267 48.162 14.5227 48.912 14.5227 49.086C14.5227 49.1521 14.5607 49.218 14.6113 49.236C14.662 49.254 15.0801 49.272 15.5362 49.278C16.575 49.29 16.5497 49.272 16.5497 50.16C16.5497 50.706 16.5307 50.814 16.4357 50.904C16.328 50.994 16.1316 51 14.6494 50.988C13.2431 50.97 12.9771 50.958 12.9264 50.88C12.8441 50.76 14.7697 46.236 14.9091 46.212C14.9724 46.2 15.0991 46.38 15.2892 46.752L15.5679 47.31H16.1696C16.7333 47.31 16.7714 47.304 16.7904 47.184C16.8157 47.01 15.0041 42.816 14.8901 42.792C14.8331 42.786 14.51 43.476 13.8956 44.892C12.2296 48.756 11.3492 50.784 11.2858 50.892C11.2541 50.952 11.1845 51 11.1339 51C11.0514 51 11.0388 50.418 11.0388 46.572Z" fill="#048566"/>
</g>
<defs>
<clipPath id="clip0_1_9314">
<rect width="74" height="12" fill="white" transform="translate(11 42)"/>
</clipPath>
</defs>
</svg>
