<svg width="96" height="96" viewBox="0 0 96 96" fill="none" xmlns="http://www.w3.org/2000/svg">
<circle cx="48" cy="48" r="47" fill="white" stroke="white" stroke-width="2"/>
<path d="M58.989 48.9331H60.9302C62.4035 48.9331 63.1512 49.484 63.1512 50.5201C63.1571 50.8278 63.0581 51.1282 62.8706 51.3722C62.6831 51.6161 62.4182 51.789 62.1194 51.8623C62.4735 51.9255 62.7927 52.1149 63.0178 52.3955C63.2429 52.6761 63.3586 53.0288 63.3435 53.3882C63.3435 54.5861 62.4691 55.2157 60.6941 55.2157H58.989V48.9331ZM60.8515 51.4164C61.4461 51.4164 61.7915 51.1453 61.7915 50.6819C61.7915 50.2185 61.4723 49.9999 60.8165 49.9999H60.3574V51.4164H60.8515ZM60.9783 54.0789C61.5816 54.0789 61.9445 53.7685 61.9445 53.257C61.9445 52.7455 61.6078 52.4875 60.9783 52.4875H60.3574V54.1008L60.9783 54.0789Z" fill="#6A6A6D"/>
<path d="M66.7013 48.7412H66.7974L69.9278 55.2161H68.3582L67.9604 54.3024H65.4115L65.0268 55.2161H63.4966L66.7013 48.7412ZM67.497 53.2181L66.6838 51.2507L65.8487 53.2181H67.497Z" fill="#6A6A6D"/>
<path d="M70.5791 48.7324H70.7103L74.6451 52.3962V48.9335H76.031V55.4565H75.8954L71.9607 51.7928V55.2161H70.5791V48.7324Z" fill="#6A6A6D"/>
<path d="M77.4739 48.9331H78.956V51.6656L81.0327 48.9331H82.8165L80.4468 51.9235L83.0001 55.2157H81.2032L78.9691 52.3214V55.2157H77.487L77.4739 48.9331Z" fill="#6A6A6D"/>
<path d="M46.4543 43.7046C51.3116 43.7046 54.8967 47.2022 54.8967 52.2169C54.8967 57.2315 51.3116 60.7291 46.4543 60.7291C41.5971 60.7291 37.9771 57.2315 37.9771 52.2169C37.9771 47.2022 41.632 43.7046 46.4543 43.7046ZM46.4543 57.4633C48.8677 57.4633 50.6733 55.4084 50.6733 52.2518C50.6733 49.0253 48.8677 47.0054 46.4543 47.0054C44.041 47.0054 42.196 48.9947 42.196 52.2518C42.196 55.4434 44.006 57.4633 46.4543 57.4633Z" fill="#6A6A6D"/>
<path d="M34.7637 43.7046L55.9897 35H34.7637V43.7046Z" fill="#FF6600"/>
<path d="M34.7594 43.7046H30.5754V60.0209H34.7594V43.7046Z" fill="#6A6A6D"/>
<path d="M24.1704 43.6826L20.8827 51.3992L17.595 43.6826H13L20.5635 61.0482H20.9177L28.5031 43.6826H24.1704Z" fill="#6A6A6D"/>
</svg>
