<svg width="96" height="96" viewBox="0 0 96 96" fill="none" xmlns="http://www.w3.org/2000/svg">
<circle cx="48" cy="48" r="47" fill="white" stroke="white" stroke-width="2"/>
<path d="M75.3479 72.81C76.004 73.7352 75.6877 75.0994 74.5926 75.713C67.0257 79.9756 57.8068 79.7301 50.5798 75.241C49.5271 74.5896 49.31 73.249 50.0228 72.3615C50.7356 71.4741 51.944 71.2428 52.7795 71.7573C58.7367 75.444 66.3507 75.647 72.61 72.1066C73.4786 71.6157 74.6917 71.8801 75.3479 72.81Z" fill="#72BF44"/>
<path d="M38.689 62.4581C38.656 62.5148 38.6276 62.5809 38.604 62.6422C38.4294 63.1709 38.7126 63.7421 39.2413 63.9168C39.77 64.0914 40.3412 63.8082 40.5158 63.2795L41.7478 59.5928V57.1571L38.689 62.4581Z" fill="#FFCB05"/>
<path d="M43.3387 54.8301L43.6738 53.8199L43.0885 54.8301C43.1074 54.8301 43.1263 54.8301 43.1404 54.8301H43.3387Z" fill="#FFCB05"/>
<path d="M45.3353 54.0889V54.83H45.4864L45.3353 54.0889Z" fill="#FFCB05"/>
<path d="M46.9075 53.4945L47.6958 54.8634C48.1914 54.939 48.6776 55.2175 48.6776 56.1427V56.5581L49.8483 58.5831V56.813L46.9075 53.4945Z" fill="#FFCB05"/>
<path d="M47.9742 52.1915L49.8483 53.2725V52.8146L47.9742 52.1915Z" fill="#FFCB05"/>
<path d="M48.2434 50.5299H49.8484V50.2042L48.2434 50.5299Z" fill="#FFCB05"/>
<path d="M56.5182 50.5299H58.2223C58.2884 50.5299 58.3592 50.5252 58.4253 50.5111C58.9728 50.3978 59.3222 49.8691 59.2089 49.3215C59.0956 48.7739 58.5669 48.4246 58.0193 48.5379L56.5088 48.8448C56.5135 48.9014 56.5182 48.958 56.5182 49.0194V50.5299Z" fill="#FFCB05"/>
<path d="M56.2868 43.9682C56.3435 43.9351 56.4001 43.8926 56.452 43.8502C56.8674 43.482 56.9052 42.8447 56.537 42.4293C56.1688 42.0139 55.5315 41.9762 55.1161 42.3444L47.6484 48.9577L56.2868 43.9682Z" fill="#FFCB05"/>
<path d="M51.3351 39.2525C51.3682 39.1958 51.3965 39.1297 51.4201 39.0684C51.5947 38.5397 51.3115 37.9685 50.7828 37.7939C50.2541 37.6192 49.683 37.9024 49.5083 38.4311L46.3503 47.8956L51.3351 39.2525Z" fill="#FFCB05"/>
<path d="M43.4756 36.661C42.928 36.7743 42.5787 37.303 42.692 37.8506L44.6887 47.6266V37.6476C44.6887 37.5815 44.684 37.5107 44.6698 37.4446C44.5518 36.9018 44.0231 36.5477 43.4756 36.661Z" fill="#FFCB05"/>
<path d="M36.4988 40.7536L43.1122 48.2213L38.1227 39.5829C38.0896 39.5263 38.0471 39.4696 38.0047 39.4177C37.6365 39.0023 36.9992 38.9646 36.5838 39.3328C36.1684 39.6962 36.1259 40.3335 36.4988 40.7536Z" fill="#FFCB05"/>
<path d="M32.5856 46.3616L42.05 49.5196L33.4116 44.5301C33.355 44.497 33.2889 44.4687 33.2276 44.4451C32.6989 44.2704 32.1277 44.5537 31.953 45.0824C31.7737 45.6158 32.0569 46.1869 32.5856 46.3616Z" fill="#FFCB05"/>
<path d="M31.802 51.1811C31.7359 51.1811 31.6651 51.1858 31.599 51.2C31.0514 51.3133 30.7021 51.842 30.8154 52.3895C30.9287 52.9371 31.4574 53.2864 32.0049 53.1731L41.7809 51.1764L31.802 51.1811Z" fill="#FFCB05"/>
<path d="M33.7326 57.7424C33.6759 57.7755 33.6193 57.8179 33.5674 57.8604C33.152 58.2286 33.1142 58.8659 33.4824 59.2813C33.8506 59.6967 34.4879 59.7344 34.9033 59.3662L42.371 52.7529L33.7326 57.7424Z" fill="#FFCB05"/>
<path d="M22.9889 50.2984C22.9276 50.3598 22.8662 50.4306 22.8237 50.5061C22.5358 50.9828 22.6916 51.6059 23.1683 51.8939C23.6451 52.1818 24.2682 52.0261 24.5561 51.5493L28.4646 45.0587L22.9889 50.2984Z" fill="#00AEEF"/>
<path d="M27.4685 53.1118C27.4591 53.6688 27.9028 54.1314 28.4598 54.1408C29.0168 54.1503 29.4794 53.7065 29.4889 53.1495L29.6258 45.5732L27.5063 52.8474C27.4827 52.9277 27.4685 53.0221 27.4685 53.1118Z" fill="#00AEEF"/>
<path d="M21.5869 37.6997L28.0775 41.6082L22.8378 36.1325C22.7764 36.0711 22.7056 36.0098 22.6301 35.9673C22.1533 35.6793 21.5302 35.8351 21.2423 36.3119C20.9544 36.7886 21.1101 37.4117 21.5869 37.6997Z" fill="#00AEEF"/>
<path d="M27.5677 42.774L20.2935 40.6498C20.2086 40.6262 20.1189 40.6121 20.0292 40.6073C19.4722 40.6026 19.0096 41.0463 19.0001 41.6033C18.9907 42.1604 19.4344 42.623 19.9914 42.6324L27.5677 42.774Z" fill="#00AEEF"/>
<path d="M20.3501 45.8375C20.2652 45.8564 20.1802 45.8895 20.1 45.9367C19.609 46.2057 19.4344 46.8241 19.7034 47.3103C19.9725 47.8012 20.5909 47.9759 21.0771 47.7068L27.7046 44.0391L20.3501 45.8375Z" fill="#00AEEF"/>
<path d="M58.6565 28.3673C58.7178 28.306 58.7792 28.2352 58.8217 28.1596C59.1096 27.6829 58.9539 27.0598 58.4771 26.7718C58.0003 26.4839 57.3772 26.6397 57.0893 27.1164L53.1808 33.607L58.6565 28.3673Z" fill="#72BF44"/>
<path d="M54.1814 25.5539C54.1908 24.9968 53.7471 24.5342 53.1901 24.5248C52.6331 24.5154 52.1705 24.9591 52.1611 25.5161L52.0242 33.0924L54.1436 25.8182C54.1625 25.738 54.1767 25.6483 54.1814 25.5539Z" fill="#72BF44"/>
<path d="M60.0583 40.9661L53.5677 37.0576L58.8074 42.5333C58.8688 42.5947 58.9396 42.656 59.0151 42.6985C59.4919 42.9865 60.115 42.8307 60.4029 42.3539C60.6956 41.8772 60.5398 41.2541 60.0583 40.9661Z" fill="#72BF44"/>
<path d="M61.6539 36.0333L54.0776 35.8964L61.3518 38.0158C61.4368 38.0394 61.5265 38.0536 61.6162 38.0583C62.1732 38.0678 62.6358 37.624 62.6452 37.067C62.6594 36.5053 62.2156 36.0427 61.6539 36.0333Z" fill="#72BF44"/>
<path d="M61.2999 32.828C61.3848 32.8091 61.4698 32.7761 61.55 32.7289C62.041 32.4598 62.2156 31.8414 61.9466 31.3552C61.6775 30.8643 61.0591 30.6896 60.5729 30.9587L53.9454 34.6265L61.2999 32.828Z" fill="#72BF44"/>
<path d="M32.2551 41.4853C32.7885 41.6505 33.355 41.3578 33.5202 40.8244L36.0598 32.743L31.6934 40.0031C31.6556 40.0691 31.6179 40.1447 31.5943 40.2202C31.429 40.7489 31.7264 41.3153 32.2551 41.4853Z" fill="#0066B3"/>
<path d="M47.1764 35.8256C47.7098 35.9908 48.2762 35.6982 48.4414 35.1648C48.6067 34.6314 48.314 34.0649 47.7806 33.8997L39.6992 31.3601L46.9592 35.7265C47.0253 35.769 47.1008 35.802 47.1764 35.8256Z" fill="#0066B3"/>
<path d="M48.399 30.109C48.4745 30.109 48.5595 30.1043 48.635 30.0854C49.1779 29.9627 49.5224 29.4245 49.3997 28.8817C49.277 28.3388 48.7389 27.9943 48.196 28.117L39.9305 29.9579L48.399 30.109Z" fill="#0066B3"/>
<path d="M46.8318 24.5202C46.8978 24.4824 46.9687 24.4352 47.0253 24.3786C47.436 24.0009 47.4643 23.3637 47.0867 22.953C46.709 22.5423 46.0718 22.514 45.6611 22.8916L39.4254 28.6222L46.8318 24.5202Z" fill="#0066B3"/>
<path d="M42.7864 20.248C42.9517 19.7146 42.659 19.1482 42.1256 18.983C41.5922 18.8177 41.0257 19.1104 40.8605 19.6438L38.3209 27.7205L42.6873 20.4605C42.7251 20.3991 42.7628 20.3236 42.7864 20.248Z" fill="#0066B3"/>
<path d="M36.9142 27.494L37.0653 19.0256C37.0653 18.95 37.0606 18.8651 37.0417 18.7895C36.919 18.2467 36.3808 17.9021 35.838 18.0248C35.2951 18.1476 34.9506 18.6857 35.0733 19.2285L36.9142 27.494Z" fill="#0066B3"/>
<path d="M35.583 27.9991L31.481 20.5881C31.4432 20.522 31.396 20.4512 31.3394 20.3945C30.9617 19.9838 30.3245 19.9555 29.9138 20.3332C29.5031 20.7108 29.4748 21.348 29.8524 21.7587L35.583 27.9991Z" fill="#0066B3"/>
<path d="M26.6001 26.564L34.6815 29.1036L27.4215 24.7372C27.3554 24.6995 27.2799 24.6617 27.2043 24.6381C26.6709 24.4729 26.1045 24.7656 25.9393 25.299C25.774 25.8324 26.0667 26.3988 26.6001 26.564Z" fill="#0066B3"/>
<path d="M26.1846 32.3513L34.45 30.5103L25.9816 30.3593C25.9061 30.3593 25.8211 30.364 25.7456 30.3829C25.2027 30.5056 24.8581 31.0437 24.9809 31.5866C25.0989 32.1294 25.6417 32.474 26.1846 32.3513Z" fill="#0066B3"/>
<path d="M27.5489 35.9436C27.4828 35.9814 27.412 36.0286 27.3553 36.0852C26.9447 36.4628 26.9163 37.1001 27.294 37.5108C27.6716 37.9215 28.3089 37.9498 28.7195 37.5721L34.9552 31.8416L27.5489 35.9436Z" fill="#0066B3"/>
<path d="M48.0827 68.1981C48.0827 69.2319 48.0827 71.932 46.8742 74.0562C45.5242 76.44 43.2301 77.1575 41.6204 77.1575C41.1059 77.1575 39.6378 77.1575 39.6378 75.8074C39.6378 75.0899 40.124 74.802 40.3553 74.6604C40.9879 74.2875 41.7054 73.8579 42.05 72.9941C42.3096 72.3615 42.3096 72.2482 42.3379 68.4577V56.1091C42.3379 55.5049 42.5692 55.4199 43.1404 55.4199H47.3038C47.875 55.4199 48.0779 55.5332 48.0779 56.1374V68.1981H48.0827Z" fill="#0066B3"/>
<path d="M52.7937 70.124C53.8558 70.5253 55.1775 70.7282 56.4095 70.7282C57.4716 70.7282 61.0025 70.7282 62.7821 66.8245C63.4713 65.3328 63.7876 63.4069 63.7876 61.6839C63.7876 58.1814 62.5225 54.9951 59.2795 54.9951C57.4999 54.9951 56.5228 55.8872 55.9186 56.4301V49.019C55.9186 48.3865 55.6307 48.3298 55.1445 48.3298H51.1793C50.5468 48.3298 50.4335 48.5328 50.4335 49.104V66.6215C50.4665 68.0282 50.4665 69.2319 52.7937 70.124ZM55.9233 58.7525C56.0649 58.6959 56.2113 58.6392 56.4709 58.6392C57.2734 58.6392 58.2505 58.9555 58.2505 62.8027C58.2505 64.096 58.1372 67.4523 56.7305 67.4523C55.9564 67.4523 55.9564 66.6781 55.928 65.6444V58.7525H55.9233Z" fill="#0066B3"/>
<path d="M71.4016 57.6057V65.1584C71.4299 66.3951 71.4582 67.6555 73.0065 67.7404C73.521 67.7404 74.4132 67.7404 74.4132 68.8025C74.4132 69.7797 72.5439 70.7285 70.4811 70.7285C69.504 70.7285 68.3003 70.5538 67.2948 69.6664C66.1194 68.6609 65.9731 67.3675 65.9731 65.9325V57.6057H64.5664C64.1368 57.549 64.1368 57.2611 64.1368 57.0581V55.793C64.1368 55.5617 64.2785 55.4201 64.5098 55.4201H65.9731V54.0418C65.9731 53.4942 66.0014 53.3243 66.4876 53.093L70.2498 51.4266C70.4244 51.37 70.5377 51.3134 70.736 51.3134C71.3969 51.3134 71.3969 52.0025 71.3969 52.3471V55.4201H73.0915C73.521 55.4201 73.7807 55.4484 73.7807 55.9394C73.7807 56.3689 73.7807 57.2044 73.7523 57.2611C73.6957 57.6057 73.3794 57.6057 73.0915 57.6057H71.4016Z" fill="#0066B3"/>
<path d="M47.7476 50.9356C47.7476 52.399 46.5627 53.5885 45.0994 53.5885C43.6361 53.5885 42.4465 52.4037 42.4465 50.9356C42.4465 49.4723 43.6361 48.2875 45.0994 48.2875C46.5627 48.2875 47.7476 49.4723 47.7476 50.9356Z" fill="#72BF44"/>
<path d="M75.041 70.4595C75.041 69.9402 75.48 69.5154 76.0229 69.5154C76.561 69.5154 77 69.9402 77 70.4595C77 70.9882 76.5657 71.4177 76.0229 71.4177C75.4847 71.4177 75.041 70.9929 75.041 70.4595ZM75.2298 70.4595C75.2298 70.8937 75.5839 71.2289 76.0229 71.2289C76.4571 71.2289 76.8112 70.8937 76.8112 70.4595C76.8112 70.0393 76.4571 69.6995 76.0229 69.6995C75.5839 69.6995 75.2298 70.0393 75.2298 70.4595ZM76.5091 70.9976H76.325L76.0134 70.5067H75.8199V70.9976H75.6594V69.9355H76.1362C76.2258 69.9355 76.3203 69.9402 76.4052 69.9874C76.4855 70.0346 76.5279 70.129 76.5279 70.2187C76.5279 70.4311 76.3769 70.5067 76.1834 70.5114L76.5091 70.9976ZM75.9993 70.3745C76.1503 70.3745 76.3627 70.4028 76.3627 70.2093C76.3627 70.0724 76.24 70.0535 76.1031 70.0535H75.8199V70.3745H75.9993Z" fill="#72BF44"/>
</svg>
