<svg width="96" height="96" viewBox="0 0 96 96" fill="none" xmlns="http://www.w3.org/2000/svg">
<circle cx="48" cy="48" r="47" fill="white" stroke="white" stroke-width="2"/>
<g clip-path="url(#clip0_1_1382)">
<path d="M13.8845 57.9673L17.5719 37.8374H16.5304L12.843 57.9673H13.8845Z" fill="#25B570"/>
<path d="M19.7674 39.4248H18.7822L15.9111 54.8216H16.9245L19.7674 39.4248Z" fill="#25B570"/>
<path d="M14.5319 40.7612H13.4904L10.6475 56.158H11.6608L14.5319 40.7612Z" fill="#25B570"/>
<path d="M22.0474 57.1599L21.5126 55.1553H20.7808V57.9395H21.3437V57.1878L21.2874 56.0184L21.8785 57.9395H22.2445L22.8356 56.0184L22.7793 57.1878V57.9395H23.3422V55.1553H22.5822L22.0474 57.1599Z" fill="#18453B"/>
<path d="M25.3971 55.5729C25.5097 55.5729 25.5941 55.6008 25.6504 55.6843C25.7067 55.74 25.7349 55.8513 25.7349 55.9906H26.2978C26.2978 55.8235 26.2697 55.6843 26.1852 55.5451C26.1008 55.4059 26.0164 55.3223 25.8756 55.2388C25.7349 55.1553 25.5941 55.1274 25.3971 55.1274C25.1438 55.1274 24.9186 55.211 24.7497 55.3502C24.5808 55.4894 24.4964 55.6843 24.4964 55.907C24.4964 56.1019 24.5527 56.269 24.6934 56.4082C24.806 56.5474 25.0312 56.6866 25.3127 56.7701C25.4815 56.8258 25.566 56.8815 25.6223 56.965C25.6786 57.0207 25.7067 57.1042 25.7067 57.2156C25.7067 57.4383 25.5941 57.5219 25.3971 57.5219C25.2564 57.5219 25.1438 57.494 25.0875 57.4105C25.0312 57.327 25.003 57.2156 25.003 57.0486H24.4401C24.4401 57.2435 24.4964 57.4105 24.5808 57.5497C24.6652 57.6889 24.7778 57.8003 24.9467 57.8838C25.0875 57.9673 25.2564 57.9952 25.4534 57.9952C25.7349 57.9952 25.9319 57.9395 26.1008 57.8003C26.2697 57.6611 26.326 57.4662 26.326 57.2156C26.326 56.9929 26.2697 56.798 26.129 56.6588C26.0164 56.5196 25.7912 56.3803 25.5378 56.2968C25.369 56.2411 25.2564 56.1576 25.2001 56.1019C25.1438 56.0462 25.1156 55.9627 25.1156 55.8792C25.1156 55.7678 25.1438 55.7121 25.2001 55.6564C25.2001 55.6008 25.2845 55.5729 25.3971 55.5729Z" fill="#18453B"/>
<path d="M28.634 57.0764C28.634 57.2434 28.6059 57.3548 28.5496 57.4105C28.4933 57.4662 28.4089 57.5219 28.2681 57.5219C28.1274 57.5219 28.0429 57.494 27.9866 57.4105C27.9303 57.3548 27.9022 57.2156 27.9022 57.0764V55.1553H27.3392V57.0764C27.3392 57.3826 27.4237 57.6054 27.5926 57.7446C27.7615 57.8838 27.9866 57.9952 28.2963 57.9952C28.6059 57.9952 28.8311 57.9117 28.9718 57.7724C29.1407 57.6054 29.2252 57.3827 29.2252 57.1042V55.1553H28.6622V57.0764H28.634Z" fill="#18453B"/>
<path d="M31.9838 57.9395H32.5749V56.798H33.4475V56.3246H32.5749V55.6007H33.5601V55.1553H31.9838V57.9395Z" fill="#18453B"/>
<path d="M35.1645 56.7423H36.0653V56.269H35.1645V55.6007H36.206V55.1553H34.6016V57.9395H36.2342V57.4662H35.1645V56.7423Z" fill="#18453B"/>
<path d="M38.0074 55.1553H37.2474V57.9673H37.9793C38.3171 57.9673 38.5985 57.856 38.7956 57.6611C38.9926 57.4383 39.0771 57.1599 39.0771 56.798V56.3525C39.0771 55.9905 38.9645 55.7121 38.7674 55.4894C38.5985 55.2388 38.3452 55.1553 38.0074 55.1553ZM38.5423 56.8258C38.5423 57.0764 38.486 57.2434 38.4297 57.3548C38.3452 57.4662 38.2045 57.494 38.0356 57.494H37.8667V55.6286H38.0637C38.2326 55.6286 38.3734 55.6843 38.4297 55.7956C38.5141 55.907 38.5423 56.0741 38.5423 56.3525V56.8258Z" fill="#18453B"/>
<path d="M40.794 56.7423H41.6948V56.269H40.794V55.6007H41.8355V55.1553H40.2311V57.9395H41.8637V57.4662H40.794V56.7423Z" fill="#18453B"/>
<path d="M44.7066 55.9906C44.7066 55.7121 44.6222 55.5172 44.4814 55.3502C44.3126 55.211 44.1155 55.1274 43.8059 55.1274H42.9052V57.9395H43.4681V56.9093H43.7496L44.1718 57.9395H44.7911V57.9117L44.2844 56.7701C44.5659 56.6309 44.7066 56.3525 44.7066 55.9906ZM44.0592 56.3247C44.0029 56.4082 43.9185 56.436 43.8059 56.436H43.4681V55.6008H43.8059C44.0311 55.6008 44.1437 55.74 44.1437 56.0184C44.1437 56.1576 44.1155 56.269 44.0592 56.3247Z" fill="#18453B"/>
<path d="M46.5082 55.1274L45.6074 57.9395H46.2267L46.3674 57.3548H47.1556L47.2963 57.9395H47.9156L47.0148 55.1274H46.5082ZM46.5082 56.9093L46.7615 55.907L47.0148 56.9093H46.5082Z" fill="#18453B"/>
<path d="M49.4637 55.1553H48.9008V57.9395H50.4771V57.4662H49.4637V55.1553Z" fill="#18453B"/>
<path d="M53.7704 55.74C53.8267 55.6286 53.9393 55.5729 54.1082 55.5729C54.2489 55.5729 54.3615 55.6008 54.4178 55.6843C54.4741 55.7678 54.5023 55.907 54.5023 56.1019H55.0652C55.0371 55.7678 54.9526 55.5451 54.7837 55.378C54.6148 55.211 54.3897 55.1274 54.08 55.1274C53.7704 55.1274 53.5171 55.2388 53.3482 55.4337C53.1793 55.6286 53.0948 55.9349 53.0948 56.3247V56.798C53.0948 57.1878 53.1793 57.494 53.3482 57.6889C53.5171 57.9117 53.7704 57.9952 54.08 57.9952C54.3897 57.9952 54.6148 57.9117 54.7837 57.7446C54.9526 57.5776 55.0371 57.327 55.0652 57.0207H54.5023C54.5023 57.2156 54.4741 57.3548 54.4178 57.4105C54.3615 57.494 54.2489 57.5219 54.1082 57.5219C53.9674 57.5219 53.8548 57.4662 53.7704 57.3548C53.7141 57.2435 53.686 57.0486 53.686 56.7701V56.2411C53.6578 56.0184 53.7141 55.8513 53.7704 55.74Z" fill="#18453B"/>
<path d="M57.9364 55.9906C57.9364 55.7121 57.8519 55.5172 57.7112 55.3502C57.5423 55.211 57.3453 55.1274 57.0356 55.1274H56.1349V57.9395H56.6979V56.9093H56.9793L57.4016 57.9395H58.0208V57.9117L57.5141 56.7701C57.7956 56.6309 57.9364 56.3525 57.9364 55.9906ZM57.289 56.3247C57.2327 56.4082 57.1482 56.436 57.0356 56.436H56.6979V55.6008H57.0356C57.2608 55.6008 57.3734 55.74 57.3734 56.0184C57.3734 56.1576 57.3453 56.269 57.289 56.3247Z" fill="#18453B"/>
<path d="M59.6252 56.7423H60.4978V56.269H59.6252V55.6007H60.6667V55.1553H59.0341V57.9395H60.6667V57.4662H59.6252V56.7423Z" fill="#18453B"/>
<path d="M62.4681 55.1553H61.7081V57.9673H62.44C62.7778 57.9673 63.0592 57.856 63.2563 57.6611C63.4533 57.4383 63.5378 57.1599 63.5378 56.798V56.3525C63.5378 55.9905 63.4252 55.7121 63.2281 55.4894C63.0592 55.2388 62.7778 55.1553 62.4681 55.1553ZM62.9748 56.8258C62.9748 57.0764 62.9185 57.2434 62.8622 57.3548C62.7778 57.4662 62.637 57.494 62.4681 57.494H62.2992V55.6286H62.4963C62.6652 55.6286 62.8059 55.6843 62.8622 55.7956C62.9467 55.907 62.9748 56.0741 62.9748 56.3525V56.8258Z" fill="#18453B"/>
<path d="M65.2549 55.1274H64.6919V57.9395H65.2549V55.1274Z" fill="#18453B"/>
<path d="M66.2682 55.6008H66.9719V57.9395H67.5349V55.6008H68.2386V55.1274H66.2682V55.6008Z" fill="#18453B"/>
<path d="M72.0667 57.0764C72.0667 57.2435 72.0385 57.3548 71.9822 57.4105C71.9259 57.4662 71.8415 57.5219 71.7007 57.5219C71.56 57.5219 71.4756 57.494 71.4193 57.4105C71.363 57.3548 71.3348 57.2156 71.3348 57.0764V55.1553H70.7719V57.0764C70.7719 57.3827 70.8563 57.6054 71.0252 57.7446C71.1941 57.9117 71.4193 57.9674 71.7289 57.9674C72.0385 57.9674 72.2637 57.8838 72.4044 57.7446C72.5733 57.5776 72.6578 57.3548 72.6578 57.0764V55.1274H72.0948L72.0667 57.0764Z" fill="#18453B"/>
<path d="M75.1911 56.9929L74.3467 55.1553H73.7837V57.9395H74.3467V56.1019L75.1911 57.9395H75.7541V55.1553H75.1911V56.9929Z" fill="#18453B"/>
<path d="M77.5274 55.1274H76.9645V57.9395H77.5274V55.1274Z" fill="#18453B"/>
<path d="M79.6948 55.0996C79.3852 55.0996 79.1318 55.211 78.9348 55.4337C78.7659 55.6565 78.6533 55.9627 78.6533 56.3247V56.798C78.6533 57.1599 78.7378 57.4662 78.9348 57.6611C79.1037 57.856 79.357 57.9674 79.6948 57.9674C80.0044 57.9674 80.2578 57.856 80.4548 57.6611C80.6237 57.4662 80.7363 57.1599 80.7363 56.7701V56.3247C80.7363 55.9349 80.6518 55.6286 80.4548 55.4337C80.2578 55.211 80.0044 55.0996 79.6948 55.0996ZM80.1452 56.8258C80.1452 57.0764 80.117 57.2435 80.0326 57.3548C79.9481 57.4662 79.8355 57.5219 79.6948 57.5219C79.5541 57.5219 79.4133 57.4662 79.357 57.3548C79.2726 57.2435 79.2444 57.0486 79.2444 56.8258V56.3247C79.2444 56.0741 79.2726 55.907 79.357 55.7678C79.4415 55.6565 79.5541 55.6008 79.6948 55.6008C79.8355 55.6008 79.9481 55.6565 80.0326 55.7957C80.117 55.907 80.1452 56.1019 80.1452 56.3525V56.8258Z" fill="#18453B"/>
<path d="M83.2415 56.9929L82.3971 55.1553H81.8341V57.9395H82.3971V56.1019L83.2415 57.9395H83.8045V55.1553H83.2415V56.9929Z" fill="#18453B"/>
<path d="M55.9378 49.4756V49.5591L57.3733 41.4292H53.9674L52.7289 48.4733C52.0533 48.8074 51.4904 48.9745 50.8711 48.9745C50.5615 48.9745 50.4771 48.8909 50.5333 48.5847L51.8 41.4014H48.4222C48.4222 41.4014 47.2119 48.2227 47.1556 48.5568C46.7615 50.7564 47.0993 51.6751 48.6193 51.6751C50.3363 51.6751 51.2933 50.5615 52.6445 49.2807V49.3364L52.1659 51.6751H55.6H56.0785C56.0504 51.703 55.7126 50.8956 55.9378 49.4756Z" fill="#18453B"/>
<path d="M64.72 42.9325L65.0015 41.4012H63.2C63.2 41.4012 63.2282 40.9279 63.3689 40.4267C63.5378 39.7307 64.2978 39.4244 64.9452 39.6193C65.48 39.7864 66.1556 40.0369 66.1556 40.0369L66.6341 37.8374H62.9185C61.2859 37.8374 60.3289 38.617 60.0474 40.2875C60.0193 40.3989 59.9348 40.8722 59.8222 41.429H58.5837L58.3022 42.9604H59.5408L58.0208 51.7028H61.4548L63.003 42.9604H64.72V42.9325Z" fill="#18453B"/>
<path d="M34.7704 41.4014C33.0815 41.4014 32.2934 42.3202 31.0549 43.5731C31.1675 42.0696 30.7171 41.4014 29.4786 41.4014C27.7052 41.4014 26.9452 42.4315 25.566 43.7401L25.9882 41.4014H22.0756C22.0756 41.4014 22.3852 42.1253 22.16 43.5731C21.9349 44.993 20.7245 51.6751 20.7245 51.6751H24.1304L25.3971 44.6589V44.6311C26.0726 44.297 26.5793 44.1299 27.2267 44.1299C27.5363 44.1299 27.6208 44.2134 27.5645 44.5197L26.2978 51.703H29.6756C29.6756 51.703 30.8578 45.0765 30.9423 44.5475C31.5334 44.2691 31.9837 44.1299 32.5467 44.1299C32.8563 44.1299 32.9408 44.2134 32.8845 44.5197L31.6178 51.703H34.9956C34.9956 51.703 36.206 44.8816 36.2623 44.5475C36.6282 42.3202 36.2623 41.4014 34.7704 41.4014Z" fill="#18453B"/>
<path d="M69.6178 50.1717H67.9852C67.7037 50.1717 67.6474 50.0882 67.6755 49.7819L68.9141 42.9049H70.5185C70.8 42.9049 70.8844 42.9884 70.8281 43.2946L70.4622 45.355H73.8681L74.1496 43.8237C74.4311 42.1531 73.8118 41.3735 72.1511 41.3735H68.1541C66.5215 41.3735 65.6207 42.1531 65.3111 43.8237L64.3541 49.225C64.0444 50.8956 64.6918 51.6752 66.3244 51.6752H70.3215C71.9541 51.6752 72.8548 50.8956 73.1644 49.225L73.4459 47.6937H70.04L69.6178 50.1717Z" fill="#18453B"/>
<path d="M44.1156 45.6334L41.3289 45.1322C41.1037 45.1044 40.9911 44.9652 41.0474 44.4362C41.1319 43.935 41.3571 42.9327 41.3571 42.9327H42.7363C43.1585 42.9327 43.1304 43.1276 43.1022 43.3503C43.0178 43.768 42.9615 44.2134 42.9334 44.4083C42.9052 44.6032 42.9052 44.6868 42.9052 44.6868H46.283L46.3111 44.5475C46.7334 42.1809 46.1141 41.4014 44.4534 41.4014H40.6534C39.0208 41.4014 38.12 42.1809 37.6978 44.5475C37.3037 46.7192 37.8667 47.1369 39.3867 47.4153L42.1734 47.9164C42.3704 47.9443 42.5111 48.0557 42.4267 48.5568C42.3422 49.1137 42.1452 50.2274 42.1452 50.2274H40.6534C40.0341 50.2274 40.1185 49.9768 40.1748 49.6705C40.2311 49.225 40.3156 48.7517 40.3719 48.5568C40.4 48.3898 40.4282 48.2227 40.4282 48.2227H37.0504L36.9941 48.5011C36.5719 50.8956 37.1911 51.6751 38.8237 51.6751H42.8489C44.4815 51.6751 45.3822 50.8956 45.8045 48.5011C46.1985 46.2738 45.6074 45.9118 44.1156 45.6334Z" fill="#18453B"/>
<path d="M80.3141 49.3364L79.8355 51.6752H83.2696H83.7481C83.7481 51.6752 83.4104 50.8956 83.6355 49.4478V49.5313L85.0711 41.4014H81.6652L80.4267 48.4455C79.7511 48.7796 79.1881 48.9466 78.5689 48.9466C78.2593 48.9466 78.1748 48.8631 78.2311 48.5568L79.4978 41.3735H76.12C76.12 41.3735 74.9096 48.1949 74.8533 48.529C74.4592 50.7285 74.797 51.6473 76.317 51.6473C78.0341 51.6473 78.9911 50.5336 80.3422 49.2529L80.3141 49.3364Z" fill="#18453B"/>
<path d="M86 50.7562C86 51.2852 85.5778 51.675 85.043 51.675C84.5082 51.675 84.0859 51.2574 84.0859 50.7562C84.0859 50.255 84.5082 49.8374 85.043 49.8374C85.5778 49.8374 86 50.255 86 50.7562ZM84.3393 50.7562C84.3393 51.1738 84.6489 51.4801 85.0711 51.4801C85.4652 51.4801 85.7748 51.146 85.7748 50.7562C85.7748 50.3386 85.4652 50.0045 85.0711 50.0045C84.6489 50.0323 84.3393 50.3664 84.3393 50.7562ZM84.9022 51.2295H84.677V50.3107C84.7615 50.2829 84.8741 50.2829 85.043 50.2829C85.2119 50.2829 85.2963 50.3107 85.3526 50.3386C85.4089 50.3664 85.437 50.4499 85.437 50.5335C85.437 50.6448 85.3526 50.7005 85.24 50.7562C85.3244 50.784 85.3807 50.8676 85.4089 50.9789C85.437 51.1181 85.4652 51.1738 85.4652 51.2017H85.24C85.2119 51.1738 85.1837 51.0903 85.1556 50.9789C85.1274 50.8676 85.0711 50.8397 84.9585 50.8397H84.8459V51.2295H84.9022ZM84.9022 50.7284H85.0148C85.1274 50.7284 85.24 50.7005 85.24 50.5891C85.24 50.5056 85.1837 50.4499 85.043 50.4499C84.9867 50.4499 84.9585 50.4499 84.9304 50.4499V50.7284H84.9022Z" fill="#18453B"/>
</g>
<defs>
<clipPath id="clip0_1_1382">
<rect width="76" height="24" fill="white" transform="translate(10 36)"/>
</clipPath>
</defs>
</svg>
