<svg width="96" height="96" viewBox="0 0 96 96" fill="none" xmlns="http://www.w3.org/2000/svg">
<circle cx="48" cy="48" r="47" fill="white" stroke="white" stroke-width="2"/>
<g clip-path="url(#clip0_1_5853)">
<path d="M36.0832 47.8905C36.0976 47.2432 35.9857 46.5994 35.7539 45.9959C35.5221 45.3923 35.175 44.8409 34.7323 44.373C34.2897 43.9051 33.7602 43.53 33.1741 43.2691C32.588 43.0082 31.9568 42.8666 31.3166 42.8524C30.6814 42.8522 30.0526 42.9804 29.4671 43.2294C28.8816 43.4784 28.3512 43.8432 27.9071 44.3023C27.4631 44.7615 27.1142 45.3057 26.8812 45.9031C26.6481 46.5005 26.5355 47.1389 26.5499 47.7809V47.8905C26.5282 48.5423 26.6348 49.1919 26.8633 49.8018C27.0918 50.4117 27.4378 50.9696 27.8811 51.4434C28.3245 51.9171 28.8565 52.2971 29.4462 52.5615C30.0359 52.8258 30.6716 52.9692 31.3166 52.9833C31.9661 52.9764 32.6077 52.8383 33.2037 52.5771C33.7997 52.316 34.3381 51.9371 34.7872 51.4626C35.2363 50.9882 35.5871 50.4278 35.8189 49.8143C36.0508 49.2009 36.1591 48.5468 36.1374 47.8905H36.0832ZM31.3707 56.2143C30.2675 56.259 29.1669 56.076 28.136 55.6764C27.1051 55.2767 26.1656 54.6689 25.3748 53.8899C24.584 53.1109 23.9585 52.1772 23.5366 51.1457C23.1147 50.1142 22.9051 49.0066 22.9207 47.8905V47.8357C22.9207 43.2905 26.4957 39.5119 31.3707 39.5119C32.4692 39.46 33.5666 39.6341 34.5966 40.0236C35.6266 40.4131 36.5676 41.0099 37.3627 41.7779C38.1578 42.5459 38.7904 43.4691 39.2222 44.4916C39.6541 45.514 39.8761 46.6144 39.8749 47.7262V47.8357C39.8681 48.9572 39.64 50.0661 39.2041 51.0975C38.7682 52.1288 38.1332 53.0619 37.3363 53.8421C36.5393 54.6223 35.5964 55.234 34.5628 55.6413C33.5292 56.0486 32.4256 56.2434 31.3166 56.2143H31.3707ZM49.4624 56.2143C44.7499 56.2143 41.3374 52.6 41.3374 48V47.8905C41.3226 46.7886 41.5273 45.695 41.9393 44.6748C42.3512 43.6545 42.962 42.7285 43.7353 41.9519C44.5085 41.1752 45.4285 40.5638 46.4403 40.154C47.4521 39.7443 48.5351 39.5445 49.6249 39.5666C50.7897 39.506 51.9538 39.6996 53.038 40.1342C54.1222 40.5689 55.1011 41.2345 55.9082 42.0857L53.6332 44.6595C52.4416 43.5643 51.1957 42.8524 49.6249 42.8524C46.9166 42.8524 44.9666 45.0976 44.9666 47.7809V47.8905C44.9666 50.6285 46.8624 52.9833 49.6249 52.9833C51.4124 52.9833 52.5499 52.2166 53.7957 51.0666L56.0707 53.3666C55.2415 54.3 54.2202 55.0386 53.0786 55.5305C51.937 56.0224 50.7027 56.2558 49.4624 56.2143ZM64.8999 56.2143C60.1874 56.2143 56.7749 52.6 56.7749 48V47.8905C56.7601 46.7886 56.9648 45.695 57.3768 44.6748C57.7887 43.6545 58.3995 42.7285 59.1728 41.9519C59.946 41.1752 60.866 40.5638 61.8778 40.154C62.8896 39.7443 63.9726 39.5445 65.0624 39.5666C66.2272 39.506 67.3913 39.6996 68.4755 40.1342C69.5597 40.5689 70.5386 41.2345 71.3457 42.0857L69.0707 44.6595C67.8791 43.5643 66.6332 42.8524 65.0624 42.8524C62.3541 42.8524 60.4041 45.0976 60.4041 47.7809V47.8905C60.4041 50.6285 62.2999 52.9833 65.0624 52.9833C66.8499 52.9833 67.9874 52.2166 69.2332 51.0666L71.5082 53.3666C70.679 54.3 69.6577 55.0386 68.5161 55.5305C67.3745 56.0224 66.1402 56.2558 64.8999 56.2143ZM79.9582 56.1595C75.6791 56.1595 73.0791 53.6952 73.0791 49.0405V39.7857H76.5999V48.8762C76.5999 51.5047 77.8457 52.8738 80.0124 52.8738C82.1791 52.8738 83.4791 51.6143 83.4791 49.0405V39.7857H86.9999V48.8762C86.9457 53.8047 84.2374 56.1595 79.9582 56.1595Z" fill="#003366"/>
<path d="M40.9583 37.7595H44.2083L31.5333 25L9 47.8357L31.5333 70.5619L44.2083 57.8571H40.9583L31.5333 67.331L12.25 47.8357L31.5333 28.231L41.0125 37.7595H40.9583Z" fill="#88CC33"/>
</g>
<defs>
<clipPath id="clip0_1_5853">
<rect width="78" height="46" fill="white" transform="translate(9 25)"/>
</clipPath>
</defs>
</svg>
