<svg width="96" height="96" viewBox="0 0 96 96" fill="none" xmlns="http://www.w3.org/2000/svg">
<circle cx="48" cy="48" r="47" fill="white" stroke="white" stroke-width="2"/>
<g clip-path="url(#clip0_1_8652)">
<path d="M60.3163 44.3001C59.2314 44.3001 57.9379 44.6895 56.693 46.0387C55.4482 44.6895 54.1408 44.3001 53.0698 44.3001C51.9988 44.3001 48.918 43.9871 48.918 48.8552V56.7276H51.8597V49.2933C51.8597 47.1166 53.3201 47.0749 53.6053 47.1375C53.6053 47.1375 54.1338 47.1653 54.6137 47.666C54.6137 47.666 53.654 48.9178 53.5775 50.4965C53.5775 50.4965 53.3688 54.5857 56.6444 54.5857C59.9199 54.5857 59.7182 50.4965 59.7182 50.4965C59.6417 48.9178 58.682 47.666 58.682 47.666C59.1619 47.1653 59.6904 47.1375 59.6904 47.1375C59.9616 47.0749 61.436 47.1166 61.436 49.2933V56.7276H64.4681V48.8552C64.4612 43.9871 60.3163 44.3001 60.3163 44.3001ZM56.6583 52.3394C56.0115 52.3394 55.8029 51.5327 55.789 50.7538C55.7751 49.4046 56.6444 48.438 56.6583 48.4171C56.6722 48.3962 57.5415 49.4046 57.5206 50.7538C57.5206 51.5327 57.2981 52.3394 56.6583 52.3394ZM44.1264 44.4531H47.1655V56.7276H44.1264V44.4531ZM45.6911 39.1816C45.3296 39.1788 44.9754 39.2837 44.6736 39.4829C44.3719 39.682 44.1362 39.9664 43.9966 40.2999C43.8569 40.6334 43.8197 41.0009 43.8895 41.3557C43.9594 41.7104 44.1332 42.0363 44.3889 42.292C44.6445 42.5477 44.9705 42.7215 45.3252 42.7913C45.6799 42.8612 46.0474 42.8239 46.3809 42.6843C46.7144 42.5447 46.9989 42.309 47.198 42.0072C47.3972 41.7055 47.502 41.3513 47.4993 40.9898C47.4939 40.5119 47.3016 40.0551 46.9637 39.7172C46.6258 39.3793 46.169 39.187 45.6911 39.1816ZM34.6475 45.3154V39.0981H31.7058V56.7276H34.6475V47.9094C39.6199 45.5032 39.4321 49.3142 39.4321 49.3142V56.7276H42.3808V49.3142C42.3739 42.1511 36.1427 44.5157 34.6475 45.3154ZM68.5365 51.1919C70.1429 51.7483 72.1736 51.7065 72.1736 51.7065C77 51.6787 76.8609 48.1598 76.8609 48.1598C76.7427 44.2027 72.1041 44.2792 72.1041 44.2792C68.2652 44.2792 65.5739 46.9149 65.5739 50.6912C65.5739 54.4675 68.2096 56.9015 72.2779 56.9015C74.0096 56.9015 75.6578 56.4216 76.8053 55.5802V52.6732C75.6022 53.7164 74.1556 54.2727 72.6257 54.2727C72.6326 54.2727 68.46 54.4814 68.5365 51.1919ZM68.9468 48.6118C69.4475 47.3322 70.4976 46.6576 71.9928 46.6576C73.2168 46.6576 73.9261 47.1722 73.9261 47.9929C73.9261 49.1473 72.6257 49.2516 71.4086 49.2516C70.1916 49.2516 69.4753 49.1195 69.1484 49.036L68.8216 48.9665L68.9468 48.6118ZM25.4954 56.9015C27.6165 56.9015 29.1187 56.1017 29.9532 55.4272V52.4993C28.6945 53.5425 27.1436 54.1406 25.7736 54.1406C23.583 54.1406 22.046 52.6315 22.046 50.4478C22.046 48.3823 23.4439 46.9427 25.4398 46.9427C26.0935 46.9427 26.6568 47.1097 27.2549 47.2766C27.853 47.4435 28.5206 47.6451 29.2787 47.6451C29.5346 47.6424 29.79 47.6239 30.0436 47.5895V44.8008C29.8002 44.8216 29.6055 44.8356 29.4038 44.8356C28.7084 44.8356 28.0825 44.7104 27.4288 44.5713C26.7751 44.4322 26.0309 44.2792 25.1964 44.2792C23.5273 44.2792 21.9835 44.8634 20.8499 45.9552C19.7163 47.0471 19 48.7161 19 50.5869C19 54.3075 21.6705 56.9015 25.4954 56.9015Z" fill="#1EC677"/>
</g>
<defs>
<clipPath id="clip0_1_8652">
<rect width="58" height="58" fill="white" transform="translate(19 19)"/>
</clipPath>
</defs>
</svg>
