<svg width="96" height="96" viewBox="0 0 96 96" fill="none" xmlns="http://www.w3.org/2000/svg">
<circle cx="48" cy="48" r="47" fill="white" stroke="white" stroke-width="2"/>
<path d="M43.5822 41.4564C43.5822 41.4453 43.5822 41.4453 43.5822 41.4564H43.5463H37.7463H37.2349C38.3711 42.6977 39.4631 44.1131 40.9228 44.1131C41.5365 44.1131 42.0949 43.903 42.5345 43.5574L44.5305 47.2923V42.4323C44.5332 41.8987 44.1047 41.4702 43.5822 41.4564Z" fill="#E21238"/>
<path d="M52.4564 41.4453H52.4205C51.8869 41.4563 51.4695 41.8986 51.4695 42.4322V47.2812L53.4655 43.5352C53.905 43.8725 54.4635 44.0799 55.0661 44.0799C56.5286 44.0799 57.6068 42.6755 58.743 41.448H58.2675H52.4564V41.4453Z" fill="#E21238"/>
<path d="M48 19C32.0044 19 19 32.0154 19 48C19 63.9846 32.0154 77 48 77C63.9846 77 77 63.9846 77 48C77 32.0154 63.9846 19 48 19ZM74.6114 44.4614C71.8165 40.7846 68.1507 37.7795 63.9735 35.7835C64.0205 35.5153 64.0426 35.2389 64.0426 34.9707C64.0426 34.2271 63.8795 33.5083 63.5892 32.8724C66.8376 33.7654 69.9007 35.261 72.6265 37.304C73.6024 39.5543 74.2742 41.9567 74.6114 44.4614ZM70.5061 33.3728C67.1306 31.504 63.4178 30.3346 59.5558 29.9282V29.9393C59.3705 29.9172 59.1743 29.9033 58.9752 29.9033C57.4215 29.9033 55.9812 30.6111 55.0302 31.7832L52.9651 30.0554C56.5728 28.1644 60.5869 27.1084 64.6812 26.9923C66.9564 28.7892 68.9165 30.9483 70.5061 33.3728ZM61.8973 34.9735C61.8973 35.7033 61.6292 36.3889 61.1537 36.9114L56.6889 33.1655C57.2335 32.4688 58.0684 32.0514 58.9752 32.0514C60.5869 32.0486 61.8973 33.3618 61.8973 34.9735ZM61.8973 25.0433C58.1376 25.5077 54.4967 26.702 51.2013 28.557L49.6698 27.2687L55.6439 22.2566C57.8611 22.9201 59.9594 23.8601 61.8973 25.0433ZM48 21.1563C49.7278 21.1563 51.4114 21.3194 53.0563 21.6318L48 25.8671L42.9437 21.6318C44.5803 21.3194 46.2722 21.1563 48 21.1563ZM40.345 22.2594L46.3192 27.2715L44.7876 28.5598C41.4923 26.6909 37.8514 25.5077 34.0916 25.046C36.0295 23.8601 38.1306 22.9201 40.345 22.2594ZM31.3077 26.9923C35.402 27.1084 39.4161 28.1534 43.0238 30.0554L40.9117 31.8192C39.9607 30.6249 38.5232 29.9061 36.9446 29.9061C36.6765 29.9061 36.4111 29.9282 36.1567 29.9642C32.3969 30.3927 28.7782 31.5648 25.4967 33.3756C27.0752 30.9483 29.0463 28.7892 31.3077 26.9923ZM36.6682 32.0624C36.7622 32.0514 36.8534 32.0514 36.9584 32.0514C37.8873 32.0514 38.7333 32.4799 39.2779 33.1987L34.7993 36.9446C34.3128 36.4111 34.0336 35.7144 34.0336 34.9735C34.0336 33.4889 35.1366 32.2698 36.5742 32.0846C36.599 32.0735 36.6322 32.0735 36.6682 32.0624ZM23.3735 37.304C26.0634 35.2748 29.1044 33.7765 32.3278 32.8835C32.0376 33.5221 31.8745 34.2188 31.8745 34.9597C31.8745 35.2499 31.8966 35.5292 31.9436 35.8056C27.7912 37.8016 24.1586 40.7928 21.3747 44.4586C21.7148 41.9567 22.4004 39.5543 23.3735 37.304ZM21.1591 48.7077C23.8269 44.0108 27.9101 40.1819 32.7591 37.8154C32.8752 37.9896 33.0134 38.1638 33.1544 38.3269L32.8531 38.5812C32.2615 39.0788 31.692 39.5903 31.1584 40.1238H31.1474L31.1114 40.1598C31.1004 40.1819 31.0755 40.1957 31.0644 40.2178C26.4698 44.7655 23.5477 50.6927 22.7238 57.0732C21.7839 54.4497 21.2393 51.6437 21.1591 48.7077ZM29.848 67.7664C27.794 65.8755 26.033 63.6722 24.6507 61.2366C24.6507 61.0846 24.6397 60.9463 24.6397 60.797C24.6397 55.3785 26.2624 50.184 29.2205 45.7994C29.3007 46.7864 29.5688 47.7484 30.0084 48.6192C28.8722 51.7625 28.3027 55.0579 28.3027 58.4223C28.3054 61.596 28.8252 64.7614 29.848 67.7664ZM35.4269 71.7114C34.697 71.3299 33.9893 70.8987 33.3037 70.4591C31.4128 66.6993 30.4507 62.652 30.4507 58.4195C30.4507 55.7988 30.8212 53.2222 31.5648 50.7397C31.9823 51.135 32.4357 51.4944 32.9443 51.7846C32.9913 51.8068 33.0245 51.8316 33.0715 51.8538C34.0916 52.4343 34.9154 53.2581 35.496 54.2313C34.5809 57.0953 34.1165 60.0783 34.1165 63.1054C34.1275 66.0497 34.5561 68.9386 35.4269 71.7114ZM57.839 72.9748C54.7869 74.1802 51.4695 74.8436 47.9917 74.8436C44.5112 74.8436 41.1937 74.1829 38.1444 72.9748C36.9031 69.8315 36.2645 66.5141 36.2645 63.1027C36.2645 61.7453 36.3696 60.3989 36.5659 59.0664C36.9253 60.8413 38.0283 62.3618 39.5129 63.2768C39.6511 67.7996 40.9615 71.7667 47.6434 71.7667H48.3041C54.9749 71.7667 56.2853 67.8107 56.4346 63.2879C57.9302 62.3728 59.0333 60.8523 59.4037 59.0664C59.6 60.4017 59.705 61.7453 59.705 63.1027C59.7161 66.5141 59.0913 69.8315 57.839 72.9748ZM41.7245 64.1117C42.0037 64.1587 42.294 64.1919 42.5843 64.1919C42.6423 64.1919 42.7004 64.1919 42.7584 64.1919C44.4172 64.1919 45.9708 63.5643 47.154 62.406C47.4664 62.1047 47.7457 61.7674 47.9889 61.408C48.2322 61.7674 48.5114 62.0936 48.8238 62.406C50.007 63.5671 51.5718 64.1919 53.2194 64.1919C53.2775 64.1919 53.3356 64.1919 53.3936 64.1919C53.6839 64.1808 53.9631 64.156 54.2396 64.1117C53.9714 67.7664 52.6969 69.6104 48.3124 69.6104H47.6517C43.2671 69.6214 41.9927 67.7664 41.7245 64.1117ZM57.3967 57.5349V57.7782C57.3967 60.0755 55.5859 61.9886 53.3604 62.0466C52.2242 62.0687 51.1571 61.6651 50.3443 60.8744C49.6255 60.1667 49.1832 59.2517 49.103 58.2647C49.9269 57.4879 50.7258 56.7691 51.5054 56.1305C50.3803 55.8181 49.2081 55.6439 48.0028 55.6439C46.8085 55.6439 45.6363 55.8181 44.5112 56.1305C45.2769 56.7802 46.0897 57.4989 46.9135 58.2758C46.8334 59.2738 46.391 60.1888 45.6723 60.8855C44.8595 61.6734 43.7924 62.0908 42.6561 62.0577C40.4279 61.9996 38.6199 60.0866 38.6199 57.7892V57.5459H38.6089C38.5867 54.4497 36.9142 51.5828 34.2354 50.0402C34.2132 50.0292 34.1884 50.0181 34.1663 49.9932L34.1552 49.9822C34.1331 49.9711 34.0971 49.9462 34.075 49.9352C32.4163 48.9482 31.3851 47.1513 31.3851 45.2133C31.3851 43.9251 31.8385 42.6727 32.6734 41.6858C33.1848 41.1882 33.7184 40.6989 34.2741 40.2234L48.0442 28.6703L61.7674 40.2234C62.2899 40.6629 62.7986 41.1274 63.2879 41.6029C63.31 41.625 63.3238 41.6388 63.3459 41.6609C64.1808 42.6479 64.6453 43.9002 64.6453 45.1995C64.6453 47.1264 63.6141 48.9344 61.9554 49.9214C61.9333 49.9324 61.8973 49.9573 61.8752 49.9683C61.8642 49.9683 61.8642 49.9794 61.8531 49.9794C61.831 49.9905 61.8061 50.0015 61.784 50.0153C59.0913 51.5718 57.4215 54.4386 57.3967 57.5349ZM62.6742 70.4702C61.9886 70.9097 61.2947 71.3299 60.5759 71.7114C61.4357 68.9386 61.8752 66.0497 61.8752 63.1054C61.8752 60.0783 61.4108 57.0843 60.4819 54.2202C61.0624 53.2581 61.8863 52.4343 62.9064 51.8538C62.9534 51.8316 63.0004 51.8068 63.0336 51.7846C63.5312 51.4833 63.9956 51.135 64.4131 50.7397C65.1567 53.2222 65.5272 55.796 65.5272 58.4195C65.5299 62.6631 64.5651 66.7104 62.6742 70.4702ZM71.352 61.2366C69.9587 63.6832 68.1977 65.8893 66.1326 67.7913C67.1527 64.7863 67.6863 61.6098 67.6863 58.4195C67.6863 55.0551 67.1168 51.7598 65.9805 48.6165C66.4201 47.7346 66.6883 46.7836 66.7684 45.7856C69.7376 50.1702 71.3631 55.3785 71.3631 60.797C71.352 60.9463 71.352 61.0846 71.352 61.2366ZM63.1497 38.5812L62.8013 38.2909C62.9396 38.1278 63.0695 37.9675 63.1828 37.7933C68.054 40.1598 72.151 43.9997 74.8298 48.7077C74.7497 51.6298 74.2023 54.4497 73.2651 57.0704C72.339 49.902 68.7644 43.303 63.1497 38.5812Z" fill="#E21238"/>
</svg>
