<svg width="96" height="96" viewBox="0 0 96 96" fill="none" xmlns="http://www.w3.org/2000/svg">
<circle cx="48" cy="48" r="47" fill="white" stroke="white" stroke-width="2"/>
<path d="M53.7849 42.2837L50.9925 39.5034L48.9042 41.6888L51.6724 44.4084C52.5354 45.2812 53.0194 46.4591 53.0194 47.6865C53.0194 48.9139 52.5354 50.0918 51.6724 50.9645L40.624 62.0129C39.7544 62.8818 38.5753 63.3699 37.346 63.3699C36.1166 63.3699 34.9375 62.8818 34.0679 62.0129L30.0128 57.9335L27.9245 59.9853L32.0039 64.0647C32.7086 64.7696 33.5452 65.3287 34.4659 65.7101C35.3867 66.0916 36.3736 66.2879 37.3703 66.2879C38.3669 66.2879 39.3538 66.0916 40.2746 65.7101C41.1953 65.3287 42.0319 64.7696 42.7366 64.0647L53.7849 53.0164C55.2025 51.5901 55.9981 49.6609 55.9981 47.65C55.9981 45.6392 55.2025 43.71 53.7849 42.2837Z" fill="#DD5427" fill-opacity="0.8"/>
<path d="M23.7602 55.821L20.9313 53.0042C18.4667 49.884 18.2481 45.1854 20.9313 42.2716L31.9796 31.2232C32.6843 30.5184 33.5209 29.9593 34.4417 29.5778C35.3624 29.1963 36.3493 29 37.346 29C38.3426 29 39.3295 29.1963 40.2503 29.5778C41.1711 29.9593 42.0077 30.5184 42.7123 31.2232L46.7917 35.3026L44.7034 37.3909L40.624 33.3115C39.7544 32.4426 38.5753 31.9545 37.346 31.9545C36.1166 31.9545 34.9375 32.4426 34.0679 33.3115L23.0196 44.3598C22.1565 45.2326 21.6725 46.4105 21.6725 47.6379C21.6725 48.8653 22.1565 50.0432 23.0196 50.916L25.8484 53.7934L23.7602 55.821Z" fill="#DD5427" fill-opacity="0.8"/>
<path d="M72.6764 44.3962L69.8597 41.5795L71.9479 39.4791L74.7768 42.308C75.4816 43.0126 76.0407 43.8492 76.4222 44.77C76.8037 45.6908 77 46.6777 77 47.6743C77 48.671 76.8037 49.6579 76.4222 50.5786C76.0407 51.4994 75.4816 52.336 74.7768 53.0407L63.7284 64.089C63.0238 64.7938 62.1872 65.353 61.2664 65.7344C60.3457 66.1159 59.3588 66.3122 58.3621 66.3122C57.3654 66.3122 56.3785 66.1159 55.4578 65.7344C54.537 65.353 53.7004 64.7938 52.9958 64.089L48.9042 60.0218L50.9925 57.9335L55.0719 62.0007C55.9446 62.8638 57.1225 63.3478 58.35 63.3478C59.5774 63.3478 60.7553 62.8638 61.628 62.0007L72.6764 50.9524C73.5453 50.0827 74.0334 48.9037 74.0334 47.6743C74.0334 46.445 73.5453 45.2659 72.6764 44.3962Z" fill="#DD5427" fill-opacity="0.8"/>
<path d="M44.7156 55.8695L41.9353 53.0771L41.9474 52.9921C41.2411 52.2883 40.6807 51.4519 40.2984 50.531C39.916 49.6102 39.7192 48.6229 39.7192 47.6258C39.7192 46.6287 39.916 45.6413 40.2984 44.7205C40.6807 43.7996 41.2411 42.9633 41.9474 42.2594L52.9958 31.2232C54.4169 29.8145 56.3368 29.0242 58.3378 29.0242C60.3388 29.0242 62.2588 29.8145 63.6799 31.2232L67.7228 35.3512L65.6346 37.4394L61.628 33.3965C60.7584 32.5276 59.5793 32.0395 58.35 32.0395C57.1206 32.0395 55.9415 32.5276 55.0719 33.3965L44.0235 44.4327C43.1546 45.3023 42.6665 46.4814 42.6665 47.7107C42.6665 48.9401 43.1546 50.1192 44.0235 50.9888L46.8038 53.7813L44.7156 55.8695Z" fill="#DD5427" fill-opacity="0.8"/>
<path d="M30.6805 44.2141L27.9974 41.531L30.0856 39.4427L32.7688 42.1259C34.2323 43.5918 35.0543 45.5786 35.0543 47.65C35.0543 49.7215 34.2323 51.7083 32.7688 53.1742L23.4445 62.5107C23.1657 62.7802 22.7923 62.9297 22.4045 62.9271C22.0168 62.9244 21.6455 62.7697 21.3705 62.4963C21.0955 62.2229 20.9387 61.8525 20.9337 61.4647C20.9288 61.077 21.0761 60.7027 21.3441 60.4224L30.6805 51.086C31.1321 50.6349 31.4903 50.0993 31.7347 49.5098C31.9791 48.9202 32.1049 48.2883 32.1049 47.65C32.1049 47.0118 31.9791 46.3799 31.7347 45.7903C31.4903 45.2008 31.1321 44.6652 30.6805 44.2141Z" fill="#DD5427" fill-opacity="0.8"/>
<path d="M23.7723 37.2937L21.3441 34.8655H21.2955C21.16 34.7252 21.0534 34.5596 20.9819 34.3781C20.9104 34.1966 20.8753 34.0028 20.8787 33.8078C20.8821 33.6128 20.9239 33.4203 21.0016 33.2414C21.0794 33.0625 21.1916 32.9007 21.3319 32.7651C21.4723 32.6296 21.6379 32.5231 21.8194 32.4515C22.0009 32.38 22.1947 32.345 22.3897 32.3483C22.5847 32.3517 22.7772 32.3935 22.9561 32.4713C23.135 32.549 23.2968 32.6613 23.4323 32.8016L25.8606 35.2298L23.7723 37.2937Z" fill="#DD5427" fill-opacity="0.8"/>
<path d="M65.1368 51.1345L67.7714 53.7934L65.6346 55.8088L63.0243 53.1985C61.5607 51.7326 60.7387 49.7458 60.7387 47.6743C60.7387 45.6029 61.5607 43.6161 63.0243 42.1502L72.3729 32.8501C72.6519 32.5772 73.0267 32.4244 73.417 32.4244C73.8073 32.4244 74.1821 32.5772 74.4611 32.8501C74.5988 32.9857 74.7081 33.1473 74.7827 33.3255C74.8573 33.5037 74.8958 33.695 74.8958 33.8882C74.8958 34.0814 74.8573 34.2727 74.7827 34.4509C74.7081 34.6291 74.5988 34.7907 74.4611 34.9262L65.1368 44.2627C64.6853 44.7137 64.3271 45.2493 64.0827 45.8389C63.8383 46.4284 63.7125 47.0604 63.7125 47.6986C63.7125 48.3368 63.8383 48.9688 64.0827 49.5583C64.3271 50.1479 64.6853 50.6835 65.1368 51.1345Z" fill="#DD5427" fill-opacity="0.8"/>
<path d="M72.0208 58.0428L74.449 60.471H74.4368C74.6788 60.7544 74.8051 61.1186 74.7904 61.491C74.7758 61.8634 74.6213 62.2166 74.3577 62.4801C74.0942 62.7437 73.741 62.8982 73.3686 62.9128C72.9962 62.9275 72.632 62.8012 72.3486 62.5592L69.9204 60.131L72.0208 58.0428Z" fill="#DD5427" fill-opacity="0.8"/>
</svg>
