<svg width="96" height="96" viewBox="0 0 96 96" fill="none" xmlns="http://www.w3.org/2000/svg">
<circle cx="48" cy="48" r="47" fill="white" stroke="white" stroke-width="2"/>
<path d="M69.0466 42.7273C70.847 40.4767 71.7472 37.7118 71.7472 34.4324C71.7472 30.3171 70.1397 26.459 67.2461 23.5011C64.3525 20.6075 60.4302 19 56.3149 19C52.2639 19 48.4701 20.4789 45.6408 23.1153C43.2616 25.3016 41.7184 28.1951 41.1397 31.4745C37.6674 32.5676 34.5166 34.561 31.8803 37.1973C27.4435 41.5698 25 47.4213 25 53.6585C25 59.8958 27.4435 65.7472 31.816 70.184C36.2528 74.6208 42.1042 77 48.3415 77C54.5787 77 60.4302 74.5565 64.867 70.184C66.6031 68.4479 68.082 66.4545 69.1752 64.2683C69.4967 63.6896 69.7539 63.1109 69.9468 62.5322H42.6186V59.8958C42.6186 54.3659 44.2262 50.1863 47.4412 47.1641C50.2062 44.592 53.6785 43.2417 56.765 42.0843C56.8936 42.02 57.0222 42.02 57.1508 41.9557C57.6652 42.3415 58.1796 42.7916 58.6297 43.2417C58.2439 43.3703 57.7938 43.5632 57.408 43.6918C54.3215 44.8492 51.1707 46.071 48.663 48.3858C45.7694 51.0865 44.4191 54.816 44.4191 59.8315V60.7317H70.6541C70.847 60.153 70.9756 59.5743 71.1042 58.9956H46.1552C46.2838 54.9446 47.5055 51.8581 49.8847 49.6718C52.1353 47.5499 55.1574 46.3925 58.051 45.2993C58.694 45.0421 59.2727 44.8492 59.9157 44.592C60.3016 45.0421 60.6231 45.5565 60.9446 46.071C60.173 46.3925 59.4013 46.6497 58.694 46.9712C55.8004 48.0643 53.0998 49.0931 51.1064 50.9579C50.2062 51.7938 48.9202 53.337 48.2772 56.2306L48.0843 57.2594H71.5543C71.6186 56.9379 71.6186 56.6807 71.6829 56.3592C71.6829 56.2306 71.6829 56.102 71.7472 55.9734C71.7472 55.9091 71.7472 55.9091 71.7472 55.8448C71.7472 55.7162 71.7472 55.6519 71.7472 55.5233C71.7472 55.5233 71.7472 55.5233 71.7472 55.459C71.8115 54.816 71.8115 54.2373 71.8115 53.5942C71.7472 49.8004 70.847 46.071 69.0466 42.7273ZM69.9468 55.5233H68.2106C68.2749 54.8803 68.2749 54.3016 68.2749 53.6585C68.2749 48.3215 66.2173 43.3703 62.4235 39.5765C58.9512 36.1042 54.4501 34.1109 49.6275 33.7894C49.6918 33.1463 49.7561 32.5676 49.949 32.0532C55.1574 32.439 59.98 34.6253 63.6452 38.3548C67.7605 42.4701 70.0111 47.8714 70.0111 53.6585C70.0111 54.3016 70.0111 54.9446 69.9468 55.5233ZM49.6275 37.3259V35.5898C54 35.9113 58.1153 37.7118 61.2018 40.8625C64.6098 44.2705 66.5388 48.8359 66.5388 53.6585C66.5388 54.3016 66.4745 54.9446 66.4102 55.5233H64.6741C64.7384 54.8803 64.8027 54.3016 64.8027 53.6585C64.8027 45.0421 58.051 37.969 49.6275 37.3259ZM62.9379 35.3969C59.4013 32.5676 55.2217 30.8958 50.7849 30.4457C51.0421 30.1242 51.2993 29.8027 51.6208 29.5455C52.8426 28.388 54.5144 27.745 56.3149 27.745C58.1153 27.745 59.7871 28.4523 61.0732 29.7384C62.3592 31.0244 63.0665 32.6962 63.0665 34.4967C63.0022 34.7539 63.0022 35.0754 62.9379 35.3969ZM40.8825 39.1264C35.6098 41.8271 32.0089 47.357 32.0089 53.6585C32.0089 62.7251 39.3392 70.0554 48.4058 70.0554C53.4213 70.0554 57.8581 67.8049 60.8803 64.2683H63.1308C62.5521 65.0399 61.9091 65.8115 61.2661 66.4545C57.8581 69.8625 53.2927 71.7916 48.4701 71.7916C43.6474 71.7916 39.082 69.9268 35.6741 66.4545C32.2661 63.0466 30.337 58.4812 30.337 53.6585C30.337 48.8359 32.2018 44.2705 35.6741 40.8625C37.2173 39.3193 39.0177 38.0333 41.0111 37.1973V39.1264H40.8825ZM63.7095 68.9623C59.5942 73.0776 54.1929 75.3282 48.4058 75.3282C42.6186 75.3282 37.2173 73.0776 33.102 68.9623C28.9867 64.9113 26.7361 59.4457 26.7361 53.6585C26.7361 47.8714 28.9867 42.4701 33.102 38.3548C35.3525 36.1042 37.9889 34.4324 40.8825 33.3392C40.8825 33.6608 40.8182 34.0466 40.8182 34.3681V35.204C38.3747 36.1685 36.1885 37.6474 34.2594 39.5765C30.5299 43.306 28.408 48.3215 28.408 53.6585C28.408 58.9956 30.4656 63.9468 34.2594 67.7406C37.9889 71.4701 43.0044 73.592 48.3415 73.592C53.6785 73.592 58.6297 71.5344 62.4235 67.7406C63.4523 66.7118 64.4169 65.5543 65.1885 64.2683H67.2461C66.2816 66.0044 65.0599 67.5477 63.7095 68.9623ZM46.2195 45.878C42.6186 49.286 40.8182 53.8514 40.8182 59.8958V64.2683H58.4368C55.8004 66.7761 52.2639 68.3193 48.3415 68.3193C40.2395 68.3193 33.6807 61.7605 33.6807 53.6585C33.6807 48.2572 36.5743 43.5632 40.8825 41.0554C40.9468 40.9911 41.0111 40.9911 41.0754 40.9268C41.1397 40.8625 41.204 40.8625 41.2683 40.7982C41.3326 40.7339 41.3969 40.7339 41.4612 40.6696C41.5255 40.6053 41.5898 40.6053 41.6541 40.541C41.9113 40.4124 42.1685 40.2838 42.4257 40.1552V34.3681C42.4257 30.3814 43.9047 26.8448 46.6696 24.2727C49.1774 21.9579 52.5854 20.6075 56.122 20.6075C59.7871 20.6075 63.1951 22.0222 65.8315 24.5942C68.4035 27.1663 69.8182 30.6386 69.8182 34.3038C69.8182 36.8758 69.1752 39.1264 67.8891 40.9268C67.5676 40.4124 67.1818 39.898 66.796 39.3836C67.5676 38.0333 68.082 36.3614 68.082 34.3038C68.082 31.0887 66.8603 28.1308 64.6098 25.8803C62.4878 23.694 59.5299 22.4723 56.3149 22.4723C53.1641 22.4723 50.2062 23.6297 48.02 25.6231C45.6408 27.8736 44.3548 30.8958 44.3548 34.4324V39.5765C44.9335 39.3836 45.5122 39.255 46.0909 39.1907V34.4324C46.0909 31.4102 47.184 28.8381 49.1774 26.9091C51.0421 25.1729 53.5499 24.2084 56.2506 24.2084C58.9512 24.2084 61.5233 25.3016 63.4523 27.1663C65.3814 29.0953 66.4102 31.6674 66.4102 34.3681C66.4102 35.7827 66.153 37.0044 65.7029 38.0333C65.4457 37.7118 65.1242 37.3902 64.8027 37.133C64.6741 37.0044 64.4812 36.8115 64.3526 36.6829C64.5455 36.0399 64.6741 35.2683 64.6741 34.4324C64.6741 32.1818 63.7738 30.0599 62.1663 28.4523C60.5588 26.8448 58.4368 25.9446 56.1863 25.9446C53.9357 25.9446 51.8137 26.7162 50.2705 28.1951C48.5987 29.7384 47.6984 31.8603 47.6984 34.4324V39.0621C47.8914 39.0621 48.02 39.0621 48.2129 39.0621C48.4058 39.0621 48.5987 39.0621 48.7916 39.0621C48.9202 39.0621 48.9845 39.0621 49.1131 39.0621C49.1774 39.0621 49.306 39.0621 49.3703 39.0621C51.4279 39.255 53.357 39.8337 55.0931 40.7339C52.2639 41.9557 48.9845 43.306 46.2195 45.878ZM52.1996 52.2439C53.9357 50.6364 56.5078 49.6075 59.2084 48.5787C60.0443 48.2572 60.8803 47.9357 61.6519 47.6142C62.4878 49.4789 62.9379 51.4723 62.9379 53.6585C62.9379 54.3016 62.8736 54.9446 62.8093 55.5233H50.2062C50.7206 53.7871 51.6208 52.8869 52.1996 52.2439Z" fill="#54B093"/>
</svg>
