<svg width="96" height="96" viewBox="0 0 96 96" fill="none" xmlns="http://www.w3.org/2000/svg">
<circle cx="48" cy="48" r="47" fill="white" stroke="white" stroke-width="2"/>
<path fill-rule="evenodd" clip-rule="evenodd" d="M60.4467 63.6104V61.7732H60.7926L61.6584 62.8844L62.5046 61.7732H62.847V63.6104H62.4514V62.4751C62.4514 62.4533 62.4514 62.4255 62.455 62.3914L62.4664 62.2785C62.4423 62.3258 62.4236 62.3654 62.4068 62.3964C62.3918 62.422 62.3759 62.4471 62.359 62.4715L61.6689 63.3896H61.5829L60.8919 62.4688C60.8677 62.4372 60.8457 62.404 60.8259 62.3695C60.8072 62.3404 60.794 62.309 60.7794 62.2803C60.7849 62.3195 60.7885 62.354 60.7885 62.3845C60.7904 62.4169 60.7922 62.446 60.7922 62.4751V63.6104H60.4467ZM63.6126 63.6104V62.1051H65.229V62.3704H63.9822V62.6995H64.7078V62.9576H63.9822V63.33H65.2477V63.6104H63.6126ZM65.7784 63.6104V62.1051H66.0716L66.8095 62.9991L67.5437 62.1051H67.8382V63.6104H67.4977V62.5748L66.8245 63.4306H66.7526L66.0716 62.598V63.6104H65.7784ZM68.5096 63.6104V62.1051H69.8629C69.9899 62.1051 70.081 62.1274 70.1351 62.1738C70.192 62.2198 70.2198 62.2931 70.2198 62.3959V62.5771C70.2198 62.6454 70.1975 62.7023 70.1547 62.7464C70.1092 62.7915 70.0446 62.8183 69.9617 62.8356C70.0464 62.8493 70.1128 62.8798 70.1593 62.9312C70.2071 62.9813 70.2294 63.0446 70.2294 63.1215V63.3154C70.2318 63.3593 70.2223 63.4031 70.2017 63.442C70.1812 63.4809 70.1505 63.5135 70.1128 63.5362C70.0355 63.5854 69.9189 63.6095 69.7623 63.6095H68.5096V63.6104ZM69.6945 62.35H68.8711V62.7064H69.6945C69.7587 62.7064 69.801 62.6991 69.8242 62.6818C69.8475 62.6668 69.8588 62.639 69.8588 62.5976V62.4556C69.8588 62.416 69.8475 62.3891 69.8242 62.3732C69.8019 62.3568 69.7596 62.35 69.6945 62.35ZM69.6945 62.9563H68.8711V63.34H69.6945C69.7628 63.34 69.811 63.33 69.8352 63.3109C69.8611 63.2904 69.8725 63.2563 69.8725 63.2066V63.0915C69.8725 63.0423 69.8611 63.0059 69.8352 62.9859C69.811 62.9649 69.7632 62.9563 69.6945 62.9563ZM70.8503 63.6104V62.1051H72.4649V62.3704H71.2203V62.6995H71.9464V62.9576H71.2203V63.33H72.4853V63.6104H70.8503ZM74.2155 62.3641H73.3762V62.7819H74.2155C74.2788 62.7819 74.323 62.7719 74.3471 62.7528C74.3712 62.736 74.3835 62.7036 74.3835 62.6604V62.4861C74.3835 62.4424 74.3712 62.41 74.3471 62.3932C74.323 62.3741 74.2784 62.3641 74.2155 62.3641ZM73.0143 63.6104V62.1051H74.3708C74.4959 62.1051 74.587 62.1274 74.6421 62.1738C74.6962 62.2198 74.7258 62.2931 74.7258 62.3977V62.7501C74.7258 62.8534 74.6967 62.9267 74.6421 62.9727C74.587 63.0177 74.4964 63.0396 74.3708 63.0396H74.1655L74.8811 63.6095H74.3539L73.7235 63.0396H73.3757V63.6095H73.0143V63.6104ZM76.8416 63.6104V61.7732H78.7015V62.095H77.2704V62.5776H78.0456V62.9139H77.2704V63.6104H76.8416ZM79.6611 63.2644H80.2142C80.5082 63.2644 80.7172 63.218 80.8392 63.127C80.9625 63.035 81.024 62.8844 81.024 62.6741C81.024 62.4856 80.9725 62.3431 80.8719 62.2471C80.7686 62.1492 80.6175 62.1014 80.4195 62.1014H79.6611V63.2644ZM79.2323 63.6104V61.7732H80.4158C80.7527 61.7732 81.0117 61.852 81.1937 62.0099C81.3749 62.167 81.466 62.3918 81.466 62.6813C81.466 62.8525 81.4295 63.0063 81.3594 63.1456C81.2893 63.2822 81.1906 63.3901 81.0599 63.4693C80.9683 63.5235 80.8673 63.5601 80.7622 63.5772C80.6439 63.6008 80.4918 63.6109 80.307 63.6109L79.2323 63.6104ZM82.2498 63.6104V61.7709H82.6786V63.6104H82.2498ZM85.159 62.1014H84.0069V63.2644H85.159V62.8707L85.5864 62.9576V63.177C85.5864 63.345 85.5564 63.4593 85.4931 63.5194C85.4298 63.5808 85.3083 63.6099 85.1312 63.6099H84.0342C83.8562 63.6099 83.7365 63.5808 83.6723 63.5194C83.609 63.4593 83.5781 63.345 83.5781 63.177V62.2075C83.5781 62.04 83.609 61.9253 83.6723 61.8633C83.7365 61.8037 83.8562 61.7728 84.0342 61.7728H85.1312C85.3083 61.7728 85.4298 61.8037 85.4931 61.8633C85.5564 61.9253 85.5864 62.04 85.5864 62.2075V62.3805L85.159 62.4487V62.1014ZM8.61771 63.6104L8 62.0914H8.38692L8.78567 63.1516L9.21402 62.0914H9.46938L9.89363 63.1516L10.2842 62.0914H10.6197L10.0088 63.6104H9.75661L9.31689 62.5366L8.87125 63.6104H8.61771ZM11.043 63.6104V62.0914H11.4108V63.6104H11.043ZM12.0891 63.6104V62.0914H12.4623V63.3264H13.6536V63.6104H12.0891ZM15.4762 62.3641H14.4301V62.6841H15.4202C15.5759 62.6841 15.6801 62.71 15.7334 62.7596C15.7885 62.8088 15.8162 62.903 15.8162 63.0419V63.2508C15.8162 63.3919 15.7885 63.4857 15.732 63.5348C15.6769 63.5863 15.5741 63.6104 15.4202 63.6104H14.4338C14.2781 63.6104 14.1716 63.5863 14.1147 63.5348C14.0601 63.4857 14.0309 63.3919 14.0309 63.2508V63.2098L14.361 63.1479V63.3264H15.4794V62.9786H14.4952C14.3391 62.9786 14.2344 62.9545 14.178 62.903C14.1229 62.852 14.096 62.7574 14.096 62.619V62.4492C14.096 62.3122 14.1233 62.2179 14.178 62.1665C14.2344 62.1173 14.3391 62.0914 14.4952 62.0914H15.3974C15.5499 62.0914 15.6555 62.116 15.7124 62.1651C15.7689 62.2129 15.7967 62.299 15.7967 62.4219V62.4578L15.4762 62.5261V62.3641ZM18.0135 63.3195V62.3704H16.7894V63.3195H18.0135ZM16.418 62.4492C16.418 62.3108 16.4458 62.2166 16.4986 62.1665C16.5536 62.1173 16.6579 62.0914 16.8136 62.0914H17.988C18.1459 62.0914 18.2502 62.1173 18.303 62.1665C18.3562 62.2166 18.3835 62.3108 18.3835 62.4492V63.2508C18.3835 63.3919 18.3562 63.4857 18.3016 63.5348C18.2465 63.5863 18.1423 63.6104 17.988 63.6104H16.8136C16.6574 63.6104 16.5532 63.5863 16.4986 63.5348C16.4458 63.4857 16.418 63.3919 16.418 63.2508V62.4492ZM19.0245 63.6104V62.0914H19.2776L20.5667 63.1001V62.0914H20.9026V63.6104H20.6454L19.3595 62.5867V63.6104H19.0245ZM21.5809 63.6104V62.0914H22.9456C23.0744 62.0914 23.165 62.116 23.221 62.162C23.2779 62.2079 23.3052 62.2817 23.3052 62.3859V62.5689C23.3052 62.6372 23.2829 62.6941 23.2382 62.7387C23.1941 62.7828 23.1304 62.812 23.0452 62.8275C23.1207 62.8378 23.1908 62.8719 23.2455 62.9249C23.2929 62.9781 23.318 63.0475 23.3156 63.1188V63.3118C23.3156 63.4115 23.2783 63.4866 23.1991 63.5367C23.1204 63.5858 23.0025 63.6099 22.845 63.6099H21.5809V63.6104ZM22.7758 62.3381H21.9455V62.6995H22.7762C22.8395 62.6995 22.8841 62.6909 22.9082 62.6741C22.9301 62.6581 22.9419 62.629 22.9419 62.5898V62.4455C22.9419 62.4064 22.9319 62.3791 22.9082 62.3618C22.8859 62.3472 22.8409 62.3381 22.7758 62.3381ZM22.7758 62.9499H21.9455V63.3382H22.7762C22.8463 63.3382 22.8928 63.3282 22.9182 63.3077C22.9437 63.2877 22.9556 63.2531 22.9556 63.2034V63.0869C22.9556 63.0373 22.9437 63.0009 22.9182 62.9804C22.8923 62.9595 22.8463 62.9499 22.7758 62.9499ZM23.7107 63.6104L24.613 62.0914H24.9689L25.8852 63.6104H25.4692L25.2775 63.2786H24.2725L24.0808 63.6104H23.7107ZM24.43 62.9991H25.1269L24.7723 62.3668L24.43 62.9991ZM26.264 63.6104V62.0914H26.5175L27.8071 63.1001V62.0914H28.1421V63.6104H27.8872L26.6013 62.5867V63.6104H26.264ZM28.8226 63.6104V62.0914H29.1954V62.7046L30.0803 62.0914H30.6184L29.5669 62.7951L30.7349 63.6104H30.1495L29.1954 62.9253V63.6104H28.8226ZM31.4332 63.0537H31.4983C31.5306 63.0537 31.5529 63.0637 31.5652 63.0815C31.5789 63.1001 31.5852 63.1347 31.5852 63.1857V63.4775C31.5852 63.5339 31.577 63.5717 31.5634 63.5867C31.5493 63.6022 31.5065 63.6109 31.4327 63.6109H31.1127C31.0804 63.6109 31.0595 63.6022 31.0458 63.5835C31.0307 63.5503 31.0241 63.5139 31.0267 63.4775V63.1857C31.0267 63.1315 31.0335 63.0951 31.0476 63.0801C31.0613 63.0628 31.1041 63.0541 31.1778 63.0541H31.4332V63.0537ZM33.5704 62.3704H32.5721V63.3195H33.5704V62.9972L33.9454 63.0728V63.2508C33.9454 63.3896 33.9163 63.4839 33.8612 63.5348C33.808 63.5863 33.7019 63.6104 33.5467 63.6104H32.5976C32.4437 63.6104 32.3395 63.5863 32.2844 63.5348C32.2293 63.4857 32.202 63.3919 32.202 63.2508V62.4492C32.202 62.3108 32.2298 62.2166 32.2844 62.1665C32.3395 62.1173 32.4419 62.0914 32.5976 62.0914H33.5467C33.7037 62.0914 33.8084 62.1173 33.8631 62.1665C33.9177 62.2166 33.9454 62.3108 33.9454 62.4492V62.5967L33.5704 62.6513V62.3704ZM36.1117 63.3195V62.3704H34.8877V63.3195H36.1117ZM34.5176 62.4492C34.5176 62.3108 34.5431 62.2166 34.5982 62.1665C34.651 62.1173 34.7557 62.0914 34.9114 62.0914H36.0881C36.2437 62.0914 36.348 62.1173 36.4031 62.1665C36.4559 62.2166 36.4818 62.3108 36.4818 62.4492V63.2508C36.4818 63.3919 36.4545 63.4857 36.3999 63.5348C36.3471 63.5863 36.2419 63.6104 36.0881 63.6104H34.9114C34.7557 63.6104 34.6515 63.5863 34.5982 63.5348C34.5431 63.4857 34.5176 63.3919 34.5176 63.2508V62.4492ZM37.1223 63.6104V62.0914H37.4182L38.1633 62.9936L38.903 62.0914H39.2007V63.6104H38.8566V62.5657L38.1783 63.4288H38.1064L37.4182 62.5903V63.6104H37.1223ZM35.3393 44.934C35.3393 44.9117 35.2195 44.6787 35.3789 44.6787C35.3789 44.6595 35.8136 44.3086 35.8136 44.0464C35.85 44.0464 35.9884 43.0208 35.9114 43.0208V35.2096C35.8718 35.2096 35.7831 33.9269 35.4385 33.9269C35.4385 33.8381 34.8786 33.5522 35.3201 33.5522C35.3201 33.6018 38.3459 33.5522 39.0277 33.5522C39.0277 33.8795 38.4952 33.9665 38.4952 34.3807C38.283 34.3807 38.3372 37.0436 38.3372 39.6082C38.3955 39.6082 38.3372 44.0864 38.5944 44.0864C38.5944 44.3637 39.3937 44.934 38.7328 44.934C38.7332 44.8803 35.6752 44.934 35.3393 44.934ZM51.9499 45.2299C51.9499 45.1958 50.4705 44.975 50.4705 44.8753C50.2784 44.8753 49.1291 44.4046 49.1291 44.3036C48.7253 44.3036 48.9138 42.3312 48.5573 42.3312C48.5573 42.562 48.073 44.7365 48.0644 44.7365C48.0644 44.9181 46.7616 44.8753 46.4857 44.8753C46.4857 44.7333 40.7643 45.011 40.7643 44.8362C40.686 44.8362 40.8035 44.6477 40.8035 44.6377C41.0488 44.6377 41.4357 43.9763 41.4357 43.7109C41.525 43.7109 41.4458 40.1012 41.4357 40.1012C41.4357 39.5909 41.3829 34.7744 41.2969 34.7744C41.2969 34.413 40.8294 33.651 40.5076 33.651C40.5076 33.4421 40.6073 33.5927 40.6073 33.4935C40.8727 33.4935 44.5133 33.5668 44.5133 33.3938C45.1725 33.3938 44.1191 33.961 44.1191 34.1235C43.8365 34.1235 43.684 36.2538 43.8028 36.2538C43.8028 38.3632 43.8233 40.4917 43.8233 42.5274C43.8711 42.5274 43.8041 43.7501 43.9207 43.7501C43.9207 44.721 46.7821 44.0537 46.7821 43.8101C47.1467 43.8101 48.2014 42.5702 48.2014 42.2311C48.292 42.2311 48.3061 41.8769 48.6557 41.8769C48.6557 41.5892 49.2274 42.5665 49.2479 42.5665C49.2479 42.6644 50.1282 43.6508 50.2143 43.6508C50.2143 43.7669 51.3737 44.4005 51.6145 44.4005C51.6145 44.589 53.5286 44.6127 53.5286 44.4788C53.8408 44.4788 54.87 43.9308 54.87 43.6504C55.1928 43.6504 55.5547 42.013 55.2647 42.013C55.2647 41.7922 54.8992 41.1445 54.7517 41.1445C54.7517 41.0166 53.4207 40.3966 53.1726 40.3966C53.1726 40.2778 50.6672 39.8158 50.6672 39.6651C50.4564 39.6651 49.4259 39.1999 49.4259 39.0742C49.2711 39.0742 48.5965 38.2872 48.5965 38.0878C48.378 38.0878 48.0744 36.095 48.3006 36.095C48.3006 35.937 48.5505 35.1086 48.6552 35.1086C48.6552 34.9697 49.2989 34.1426 49.4259 34.1426C49.4259 33.9888 50.7095 33.3533 50.9631 33.3533C50.9631 33.1202 53.9228 33.0775 53.9228 33.2937C54.1431 33.2937 55.4413 33.7389 55.4413 33.3925C55.475 33.3925 55.7977 33.0552 55.7977 33.2536C55.8109 33.2536 56.2734 35.8191 56.1906 35.8191C56.1906 36.3121 55.5574 35.2078 55.5005 35.2078C55.5005 35.0143 54.4481 34.1818 54.1581 34.1818C54.1581 34.1567 53.3897 33.7867 53.3897 33.8859C53.2591 33.8859 52.345 33.646 52.345 33.7867C51.9663 33.7867 50.8051 34.1781 50.8051 34.5364C50.5429 34.5364 50.4182 36.115 50.5684 36.115C50.5684 36.5383 51.2985 37.2985 51.7128 37.2985C51.7128 37.4319 54.7107 38.0796 54.7107 38.1852C54.8395 38.1852 56.0326 38.6937 56.0326 38.7183C56.1578 38.7183 57.0186 39.4885 57.0186 39.6064C57.1492 39.6064 57.5307 40.6269 57.5307 40.8482C57.7155 40.8482 57.5102 42.862 57.2762 42.862C57.2762 43.0695 56.7054 43.8875 56.5839 43.8875C56.5839 44.0264 55.2556 44.8343 55.0653 44.8343C55.0653 44.8412 54.611 44.9918 54.5532 44.9918C54.5537 45.1525 52.3382 45.2299 51.9499 45.2299ZM71.183 47.302C71.183 47.2628 70.95 47.0452 71.2222 47.0452C71.2222 46.9815 71.7752 46.6906 71.7752 46.5122C72.0579 46.5122 72.2946 44.4797 72.169 44.4797C72.169 41.1782 72.072 38.0414 72.072 34.7744C72.0524 34.7744 71.9814 34.1831 71.8726 34.1831C71.8726 34.0484 70.843 33.295 70.6891 33.295C70.6891 32.9468 73.2933 33.3123 73.2933 33.0979C73.4071 33.0979 74.3781 33.021 74.3781 33.1576C74.6689 33.1576 83.0186 43.6067 83.0186 43.0204C83.0318 43.0204 82.9895 34.5377 82.7219 34.5377C82.7219 34.1745 82.2444 33.2946 81.8934 33.2946C81.8934 33.1862 81.6968 33.2636 81.6968 33.0579C82.7032 33.0579 83.6555 32.9586 84.7552 32.9586C84.7552 33.2086 84.0642 33.6196 84.0642 33.986C83.5612 33.986 83.8075 46.0069 83.8075 46.3147C83.8344 46.3147 83.8922 47.1622 83.7479 47.1622C83.7479 47.4859 82.5252 47.1276 82.5252 46.8472C82.5252 46.8472 74.2989 37.3418 74.2989 37.2785C74.0785 37.2785 73.5095 36.1155 73.2542 36.1155C73.2542 35.9853 72.9583 35.6566 72.9583 35.8587C72.9173 35.8587 73.0507 45.7802 73.215 45.7802C73.215 46.2136 73.6347 47.0625 74.0417 47.0625C74.0417 47.1094 74.0835 47.1499 74.0835 47.2619C73.0116 47.2628 72.2095 47.302 71.183 47.302ZM18.75 47.6561C18.75 47.6356 18.415 47.591 18.415 47.4385C18.348 47.4385 17.4185 45.0906 17.3685 45.0906C17.3685 44.8953 16.4107 42.9025 16.403 42.9025C16.403 42.7591 15.8394 41.5801 15.8103 41.5801C15.8103 41.4417 15.3137 40.3561 15.2982 40.3561C15.2982 40.2519 14.5294 38.5817 14.5089 38.5817C14.5089 38.4998 13.8375 37.0035 13.8188 37.0035C13.8188 36.928 13.3258 35.82 13.2862 35.82C13.2862 35.5119 12.3667 33.7876 12.1027 33.7876C12.1027 33.7207 12.0431 33.7785 12.0431 33.6296C12.4623 33.6296 15.3979 33.585 15.3979 33.5509C17.0981 33.5509 15.6137 33.7989 15.6137 34.3402C15.2536 34.3402 16.6001 37.0887 16.6001 37.1815C16.6379 37.1815 17.3898 38.7957 17.3898 38.9568C17.4408 38.9568 18.3471 41.1267 18.3763 41.1267C18.3763 41.2483 18.9275 42.5065 18.948 42.5065C18.948 42.6503 19.8347 44.4993 19.8347 44.4993C19.8347 44.6586 20.2303 45.3865 20.2303 44.9331C20.2494 44.9331 20.8421 43.2858 20.8421 43.1178C20.9463 43.1178 21.7461 40.5341 21.8285 40.5341C21.8285 40.3547 22.3725 38.8785 22.4002 38.8785C22.4002 38.7242 23.0798 36.9844 23.0903 36.9844C23.0903 36.8424 22.972 36.0959 22.8541 36.0959C22.8541 35.7722 21.9441 33.9469 21.7101 33.9469C21.7101 33.9378 21.3678 33.6506 21.5713 33.6506C21.5713 33.529 24.4327 33.6974 24.4327 33.5513C24.6676 33.5513 25.6162 33.392 25.6162 33.6506C25.4469 33.6506 25.1232 34.3047 25.1232 34.5377C24.8647 34.5377 26.1096 37.2412 26.1096 37.4387C26.1711 37.4387 26.7574 39.0547 26.8393 39.0547C26.8393 39.2245 27.5299 40.8491 27.5503 40.8491C27.5503 40.9333 28.0825 42.2702 28.1221 42.2702C28.1221 42.44 28.915 44.2039 28.9301 44.2039C28.9301 44.4829 29.266 44.8617 29.266 45.0724C29.5569 45.0724 29.5892 44.1443 29.7198 44.1443C29.7198 43.9763 30.2916 42.3312 30.2916 42.3312C30.2916 42.2265 30.7845 40.7316 30.805 40.7316C30.805 40.6219 31.2329 39.3719 31.2388 39.3719C31.2388 39.2381 31.7286 37.7929 31.7318 37.7929C31.7318 37.6231 32.2844 35.9589 32.324 35.9589C32.324 35.8009 32.7059 34.5186 32.482 34.5186C32.482 34.1007 31.9285 33.8595 31.9285 33.5905C32.939 33.5905 34.0196 33.5513 34.9869 33.5513C34.9869 33.7789 34.2969 34.1485 34.2969 34.3406C34.2113 34.3406 33.5075 35.495 33.5075 35.7021C33.4975 35.7021 32.4214 38.6163 32.4214 38.9177C32.4183 38.9177 31.4751 41.4126 31.4751 41.678C31.415 41.678 31.141 42.4878 31.141 42.6248C31.0467 42.6248 30.1341 45.4657 30.0945 45.4657C30.0945 45.6009 29.5673 46.9656 29.5619 46.9656C29.5619 47.0425 29.4007 47.5378 29.3648 47.5378C29.3648 47.632 27.4315 47.7754 27.4315 47.4586C27.3323 47.4586 26.4178 44.8353 26.3459 44.8353C26.3459 44.746 25.8784 43.69 25.8729 43.69C25.8729 43.5543 25.2621 42.0335 25.2206 42.0335C25.2206 41.907 24.6175 40.5541 24.5906 40.5541C24.5906 40.3971 24.0694 39.1539 24.0371 39.1539C24.0371 39.0128 23.6074 37.9891 23.5837 37.9891C23.5837 37.8402 23.2082 38.523 23.2082 38.7187C23.1622 38.7187 22.215 41.6379 22.1244 41.6379C22.1244 41.8555 21.3209 43.9467 21.3141 43.9467C21.3141 44.1006 20.5453 46.1758 20.5262 46.1758C20.5262 46.2819 20.0519 47.556 20.0332 47.556C20.0323 47.6907 18.983 47.6561 18.75 47.6561ZM85.8204 59.3343C85.8204 59.3106 84.9519 59.1599 84.9519 59.0384C84.6879 59.0384 84.3401 58.2099 84.3401 57.8945C84.1321 57.8945 84.3765 53.1203 84.1621 53.1203C84.1621 52.8208 83.1566 53.3912 83.1566 52.9628C83.3414 52.9628 85.8796 51.2608 85.8796 51.0087C86.3694 51.0087 85.8004 52.3702 86.1736 52.3702C86.1736 52.4903 87.7919 52.199 87.7919 52.3702C87.821 52.3702 87.7527 52.7848 87.7527 52.8631C87.7527 53.2278 86.1158 52.824 86.1158 53.1199C85.9647 53.1199 86.1418 57.5585 86.2137 57.5585C86.2137 57.7351 86.3398 58.3082 86.4704 58.3082C86.4986 58.5499 87.4172 58.4676 87.3986 58.2878C87.3958 58.2777 87.9498 57.7638 87.9498 57.9919C88.2075 57.9919 87.4031 58.9983 87.1204 58.9983C87.1209 59.2264 86.063 59.3343 85.8204 59.3343ZM79.9224 59.4326C79.8832 59.4248 78.7184 59.1895 78.7184 59.0985C78.1093 59.0985 78.0479 58.8194 78.0479 58.1908C78.0283 58.1908 77.8398 57.2048 78.0283 57.2048C78.0283 57.1379 78.1466 57.1366 78.1466 57.2048C78.1708 57.2048 78.6792 58.1271 78.7771 58.2887C78.9396 58.554 80.1746 59.0384 80.7099 58.9C81.2461 58.763 81.4236 58.4958 81.5784 58.2887C81.6949 58.1343 81.6043 57.2048 81.303 57.2048C81.303 56.9103 79.4085 56.2953 79.4085 56.1788C79.2687 56.1788 78.5204 55.5575 78.443 55.5265C78.2395 55.4473 77.9691 54.9489 77.9291 54.343C77.8899 53.7367 78.5886 52.7671 78.9346 52.5673C79.2824 52.3683 80.5765 52.1439 80.6912 52.1945C80.9598 52.3069 82.8215 52.4252 82.8215 52.6274C82.9062 52.6274 82.8607 53.1035 82.8607 54.1464C82.568 54.1464 82.5307 53.4745 82.3682 53.4745C82.3682 53.317 81.4418 52.7248 81.2425 52.7248C81.2425 52.5554 79.7754 52.6465 79.5664 53.1786C79.4981 53.3516 79.3966 53.7358 79.5273 54.0075C79.7444 54.4664 81.796 55.1478 81.796 55.2507C81.9576 55.2507 82.7819 55.776 82.7819 55.882C82.8967 55.882 83.2754 56.5553 83.2754 56.7301C83.3696 56.7301 83.3036 57.7452 83.2549 57.8549C83.1447 58.0979 82.8857 58.4748 82.4674 58.8995C82.0463 59.3265 80.333 59.5027 79.9224 59.4326ZM72.5627 59.4922C72.5627 59.4867 71.518 59.1977 71.518 59.078C71.2586 59.078 70.828 58.2404 70.828 57.9131C70.5922 57.9131 70.9586 53.0216 70.5922 53.0216C70.5922 52.8513 70.2562 52.6874 70.2562 53.1599C70.0605 53.1599 69.8552 54.0467 69.3672 54.0467C69.3672 53.8154 68.2238 53.6119 68.2238 53.87C67.9065 53.87 67.9766 59.0384 68.4605 59.0384C68.4605 59.1604 68.7172 59.0762 68.7172 59.3343C68.4905 59.3343 67.3366 59.4594 67.3366 59.235C67.2769 59.235 67.1977 59.3292 67.1977 59.3739C66.6765 59.3739 66.027 59.3925 65.6187 59.3925C65.6187 59.1581 66.0534 59.1221 66.0534 58.8995C66.4207 58.8995 66.1904 54.7522 66.1904 53.87C66.0916 53.87 66.0675 53.4745 65.8963 53.4745C65.8963 53.4317 65.5613 53.3734 65.5613 53.2196C65.7411 53.2196 67.5332 52.6888 67.5332 52.6269C67.6693 52.6269 68.0267 52.4439 68.0267 52.6269C68.2447 52.6269 67.7918 53.2196 68.1851 53.2196C68.1851 53.0393 69.7632 52.2691 69.7632 52.6269C70.0514 52.6269 72.6046 52.473 72.6046 52.666C72.7585 52.666 72.4571 58.2486 72.8591 58.2486C72.8591 58.7352 74.2014 58.8809 74.2014 58.6838C74.5001 58.6838 75.1883 58.2195 75.1883 57.9131C75.2807 57.9131 75.2825 53.2196 75.1678 53.2196C75.1678 52.9027 74.6744 52.8531 74.6744 52.5873C74.9644 52.5873 77.0036 52.4876 77.0036 52.5873C77.1111 52.5873 76.9914 58.3082 77.1407 58.3082C77.1407 58.5959 77.3774 58.9983 77.6537 58.9983C77.6537 59.4198 76.3113 59.0311 76.3113 59.3734C76.2926 59.3734 75.4828 59.2551 75.4828 59.3921C74.9334 59.3921 75.608 58.702 75.0294 58.702C75.0294 58.8527 73.8487 59.3921 73.6097 59.3921C73.6092 59.4836 72.7494 59.4922 72.5627 59.4922Z" fill="#AB3C5A"/>
<path fill-rule="evenodd" clip-rule="evenodd" d="M61.3795 59.492C61.3795 59.4324 61.3021 59.2353 61.5165 59.2353C61.5165 59.1633 61.8525 58.9717 61.8525 58.8019C62.162 58.8019 61.928 50.7936 61.8525 50.7936C61.8525 50.5041 60.7873 50.8032 60.7873 50.8123C60.4914 50.8123 59.2474 51.5196 59.2474 51.7404C59.0972 51.7404 58.6961 52.6836 58.6961 51.8979C58.8259 51.8979 59.0748 50.0225 59.4067 50.0225C59.4067 50.2883 65.1276 50.0248 65.1276 50.0043C65.2496 50.0043 67.5939 49.8654 67.5939 49.9642C67.8179 49.9642 67.0986 51.4341 67.0986 51.6412C67.08 51.6412 66.7841 52.3294 66.7841 51.7409C66.745 51.7409 66.6125 50.6548 66.0153 50.6548C66.0153 50.5605 64.022 50.3894 64.022 50.713C63.9901 50.713 64.1107 58.506 64.3383 58.506C64.3383 59.009 65.0088 59.1897 65.0088 59.3928C63.874 59.3923 62.5954 59.492 61.3795 59.492ZM9.87328 59.827C9.87328 59.807 9.74856 59.5707 9.97115 59.5707C9.97115 59.4524 10.2279 59.3878 10.2279 59.1961C10.603 59.1961 10.3667 55.3328 10.3667 54.6601C10.3877 54.6601 10.4177 50.891 9.99209 50.891C9.99209 50.6666 9.67664 50.7112 9.67664 50.4181C10.3549 50.4181 14.6269 50.2656 14.6269 50.4181C14.814 50.4181 15.8496 50.566 15.8496 50.6939C16.0039 50.6939 16.7777 51.2898 16.7777 51.4436C16.9334 51.4436 17.309 52.6868 17.0927 52.6868C17.0927 52.8716 16.9129 53.5735 16.7969 53.5735C16.7969 53.7811 15.9698 54.3628 15.6925 54.3628C15.6925 54.529 14.8054 54.4812 14.8054 54.7379C15.033 54.7379 16.1459 54.8904 16.1459 55.032C16.3535 55.032 17.232 55.6173 17.232 55.7817C17.3499 55.7817 17.6859 56.4121 17.6859 56.571C17.7728 56.571 17.8502 57.7154 17.6859 57.7154C17.6859 57.8915 17.5074 58.5042 17.3895 58.5042C17.3895 58.6276 16.612 59.2935 16.4423 59.2935C16.4423 59.4287 15.1154 59.7269 14.9028 59.7269C14.9023 59.8156 10.2912 59.827 9.87328 59.827ZM13.2859 59.4715C13.2859 59.4324 12.7538 59.3363 12.7538 59.2744C12.3236 59.2744 12.4388 55.7088 12.4388 55.0534C12.4952 55.0534 12.411 54.9937 12.497 54.9937C12.497 54.8153 14.4303 55.0106 14.4303 55.1904C14.6101 55.1904 15.1991 55.646 15.1991 55.8431C15.5637 55.8431 15.6051 57.9926 15.3976 57.9926C15.3976 58.0982 14.9761 58.8811 14.9028 58.8811C14.9028 59.1087 13.7793 59.4328 13.7793 59.472L13.2859 59.4715ZM12.5362 54.5399C12.5362 54.5308 12.3974 54.3683 12.3974 54.2062C12.1921 54.2062 12.5071 51.8378 12.3396 51.8378C12.3396 50.5883 12.1971 50.754 13.3861 50.754C13.3861 50.7554 14.1339 50.8327 14.1339 50.9506C14.4184 50.9506 14.9237 51.6617 14.9237 51.9771C15.1905 51.9771 14.804 54.0674 14.3124 54.0674C14.3119 54.4352 12.8785 54.5399 12.5362 54.5399ZM19.5003 59.8857C19.5003 59.8671 18.3568 59.6277 18.3568 59.2949C18.0232 59.2949 17.9972 57.6971 18.2763 57.6971C18.2763 57.1905 20.2486 56.4335 20.7812 56.4335C20.7812 56.3616 21.9661 56.3256 21.9661 56.1395C22.0421 56.1395 22.033 53.9677 21.7695 53.9677C21.7695 53.5981 20.6237 53.3149 20.6237 53.6136C20.0402 53.6136 20.1494 54.7971 20.0324 54.7971C20.0324 54.8435 18.4542 55.4048 18.4542 54.9942C18.1001 54.9942 18.7019 53.9495 18.9081 53.9495C18.9081 53.7214 20.3087 53.1602 20.6442 53.1602C20.6442 52.9649 22.795 53.0336 22.795 53.2785C23.242 53.2785 23.8006 54.1024 23.8006 54.6C23.9817 54.6 23.689 59.2954 23.9781 59.2954C23.9781 59.4478 24.4665 59.7287 23.9389 59.7287C23.9389 59.7678 22.1036 59.8466 22.1036 59.6704C21.9324 59.6704 22.2319 59.177 21.8277 59.177C21.8277 59.3072 20.7107 59.8275 20.4867 59.8275C20.4863 59.9081 19.5258 59.8857 19.5003 59.8857ZM20.723 59.0983C20.723 59.0778 20.0324 58.9171 20.0324 58.446C19.8048 58.446 20.0907 57.165 20.3479 57.165C20.3479 57.0576 21.134 56.7303 21.3133 56.7303C21.3133 56.728 21.9656 56.5127 21.9656 56.7112C22.0444 56.7112 22.1354 58.7423 21.8086 58.7423C21.8086 58.852 21.1372 59.0778 21.1372 59.0983H20.723ZM24.629 59.7879C24.629 59.7674 24.4114 59.5703 24.6682 59.5703C24.6682 59.4538 24.964 59.3459 24.964 59.0978C25.2162 59.0978 25.0637 54.4602 25.0624 54.4602C25.0624 54.3528 25.0055 54.0068 24.8857 54.0068C24.8857 53.7943 23.9012 53.553 24.8261 53.553C24.8261 53.5171 26.5022 53.1816 26.5022 53.0805C27.0129 53.0805 26.8977 53.0341 26.8977 53.6732C26.9009 53.6732 27.1531 53.9554 27.1531 53.7123C27.3825 53.7123 27.7795 53.1779 28.1395 53.1779C28.1395 52.954 30.2903 52.8629 30.2903 53.0805C30.7305 53.0805 31.3755 53.9368 31.3755 54.402C31.482 54.402 31.3364 59.0377 31.4939 59.0377C31.4939 59.3186 32.1375 59.7674 31.6327 59.7674C31.6327 59.4815 29.1259 60.0241 29.1259 59.5703C29.8365 59.5703 29.4291 56.2369 29.5606 56.2369C29.5606 54.8326 29.7477 53.8102 28.2783 53.8102C28.2783 53.8184 27.3912 54.0546 27.3912 54.1457C26.6706 54.1457 26.956 56.3748 26.9956 56.3748C26.9956 57.8323 26.9719 59.0773 27.0557 59.0773C27.0557 59.5275 28.0403 59.7674 26.799 59.7674C26.7985 59.6973 24.8776 59.7879 24.629 59.7879ZM38.2404 59.9645C38.2404 59.893 37.2148 59.9172 37.2148 59.7879C36.9185 59.7879 35.9717 58.6972 35.9717 58.446C35.9152 58.446 34.8856 56.9798 34.8856 56.8682C34.8787 56.8682 34.6498 56.4185 34.6498 56.7107C34.571 56.7107 34.4472 59.2949 34.8278 59.2949C34.8278 59.4829 35.0849 59.4697 35.0849 59.6886C35.0763 59.6886 32.2627 59.6923 32.2627 59.7282C31.9646 59.7282 32.2236 59.5075 32.2236 59.4915C32.3861 59.4915 32.6587 59.0445 32.6587 58.8802C32.7543 58.8802 32.8627 50.3575 32.6587 50.3575C32.6587 50.0148 31.2613 49.667 32.7766 49.667C32.7766 49.6278 33.8996 49.4699 33.8996 49.4303C34.1204 49.4303 34.2456 49.3124 34.5314 49.3124C34.5314 49.6328 34.576 55.9392 34.6288 55.9392C34.6288 56.1536 35.689 55.092 35.7145 55.092C35.7145 54.8731 36.5038 54.3915 36.5038 54.1657C36.649 54.1657 36.7883 53.6518 36.7009 53.6518C36.7009 53.0496 35.3034 53.0596 37.4902 53.0596C37.4902 53.0204 39.0265 52.9617 39.3843 52.9617C39.3843 53.2649 38.1803 53.6482 38.1803 53.8484C37.9918 53.8484 36.365 55.1207 36.365 55.2304C35.872 55.2304 36.6372 56.2168 36.7009 56.2168C36.7009 56.2906 37.8189 57.7937 37.8448 57.7937C37.8448 57.9015 39.2081 59.4706 39.2851 59.4706C39.2851 59.4788 39.8208 59.8261 39.5213 59.8261C39.5209 59.8416 38.3651 59.9645 38.2404 59.9645ZM48.3003 64.1669C48.3003 64.1277 46.4854 63.8419 46.4854 63.7335C46.3256 63.7335 45.3998 63.3466 45.3998 63.2797C45.3215 63.2797 44.513 62.804 44.513 62.7471C44.3824 62.7471 43.2303 61.6979 43.2303 61.5641C43.116 61.5641 42.3604 60.071 42.2252 59.8857C42.1264 59.7506 41.7614 58.7396 41.6931 57.815C41.6248 56.8892 41.8883 55.4212 42.0272 55.0534C42.1678 54.6837 43.0751 53.1301 43.2307 53.0213C43.3404 52.9453 44.2754 51.8374 44.4142 51.8374C44.4142 51.7154 46.3406 50.5155 46.5651 50.5155C46.5651 50.4968 46.8509 50.2587 46.6247 50.2005C46.5651 50.1855 46.0753 49.3137 46.3288 48.5426C46.5819 47.7743 47.2055 47.1438 47.5515 46.9453C47.75 46.8306 48.6986 46.4419 49.4269 46.4519C50.1507 46.4642 50.5927 46.5653 50.7078 46.6695C50.8357 46.786 51.5559 47.3118 51.5559 46.8666C51.6528 46.8666 51.5477 46.7692 51.6146 46.7692C51.6146 46.3923 52.3047 46.5429 52.3047 46.7091C52.4148 46.7091 51.8422 49.9638 51.7534 49.9638C51.7534 50.1304 51.1526 49.9041 51.0633 49.9041C51.0633 49.7862 51.234 48.6218 51.1025 48.6218C51.1025 47.6905 49.9627 47.1816 49.2881 47.1629C49.2366 47.1611 48.6185 47.4948 48.44 47.7556C48.2602 48.016 47.9589 49.0019 48.3599 49.4316C48.4086 49.4831 48.7965 50.16 48.7555 50.3193C48.7264 50.4322 48.639 50.8123 48.5579 50.8123C48.5579 50.901 46.6638 51.0963 46.6638 51.3057C46.4431 51.3057 45.2031 52.237 45.2031 52.3909C45.0169 52.3909 44.0988 53.9081 44.0988 54.2062C43.8949 54.2062 43.5544 56.5724 43.6654 56.5724C43.6654 56.7144 43.6964 58.0914 43.8029 58.0914C43.8029 58.4355 44.4844 60.3601 44.691 60.3601C44.691 60.5035 45.397 61.4444 45.4808 61.4444C45.4808 61.5964 46.7717 62.6292 46.9602 62.6292C46.9602 62.8345 48.8333 63.3198 49.1879 63.3198C49.1879 63.4085 51.0237 63.2237 51.0237 63.0831C51.1598 63.0831 52.0097 62.7685 52.0097 62.6875C52.1504 62.6875 53.1932 61.9596 53.1932 61.8586C53.3489 61.8586 54.2192 60.8967 54.2192 60.7147C54.3321 60.7147 55.0477 59.2234 55.0477 58.9986C55.2462 58.9986 55.1997 56.4149 55.0076 56.4149C55.0076 56.1959 54.4295 54.8563 54.3157 54.8563C54.3157 54.6887 53.3448 53.3769 53.2319 53.3769C53.2319 53.1661 51.9651 52.3904 51.7134 52.3904C51.7134 52.3117 50.8244 52.2534 50.8244 52.0946C50.6705 52.0946 50.8057 51.5415 50.8057 51.4436C52.7216 51.4436 54.5816 51.3835 56.4866 51.3835C56.4866 51.4027 56.7579 52.1332 56.5453 52.1332C56.5453 52.2739 54.6517 52.049 54.6517 52.2329C54.3262 52.2329 55.1451 53.2453 55.1451 53.3769C55.227 53.3769 55.8557 54.9896 55.8557 55.2313C55.9704 55.2313 56.3145 58.4846 56.0523 58.4846C56.0523 58.8288 55.5625 60.5754 55.3418 60.5754C55.3418 60.8767 53.9621 62.4899 53.7253 62.4899C53.7253 62.6301 52.1189 63.576 51.9109 63.576C51.9109 63.6958 50.107 64.1082 49.8794 64.1082C49.8794 64.115 49.304 64.1669 48.3003 64.1669ZM64.2787 44.7759C64.2787 44.7363 62.6017 44.5911 62.6017 44.5392C62.2371 44.5392 60.3931 43.7521 60.3931 43.5136C60.1655 43.5136 59.1104 42.4471 59.1104 42.2313C58.9324 42.2313 58.2223 40.5311 58.2223 40.2384C58.0411 40.2384 57.8809 37.6352 58.1039 37.6352C58.1039 37.4162 58.4585 36.1954 58.5573 36.1954C58.5573 35.9177 59.7408 34.3218 59.9789 34.3218C59.9789 34.1939 61.4687 33.2548 61.7136 33.2548C61.7136 33.0631 64.2787 32.5292 64.2787 32.7035C64.4803 32.7035 65.8177 32.6626 65.8177 32.8014C66.0016 32.8014 67.1778 33.0458 67.1778 33.1369C67.359 33.1369 68.6199 33.7687 68.6199 33.8474C68.7055 33.8474 69.5062 34.5275 69.5062 34.6163C69.7224 34.6163 70.5509 35.8954 70.5509 36.1553C70.8131 36.1553 71.2391 38.6612 71.0853 38.6612C71.0853 42.56 68.0464 44.7759 64.2787 44.7759ZM64.6333 44.0462C64.6333 44.0312 63.6482 43.9847 63.6482 43.8891C63.1967 43.8891 61.8525 42.8445 61.8525 42.4284C61.6722 42.4284 61.1223 40.7451 61.1223 40.4369C60.9703 40.4369 60.8761 37.8714 61.0226 37.8714C61.0226 37.6952 61.1624 36.6487 61.2593 36.6487C61.2593 36.5017 61.7751 35.2672 61.8133 35.2672C61.8133 35.1693 62.4756 34.3218 62.5626 34.3218C62.5626 34.1401 63.5645 33.5516 63.8249 33.5516C63.8249 33.3185 65.7185 33.4318 65.7185 33.6303C65.9443 33.6303 66.9807 34.3427 66.9807 34.5189C67.105 34.5189 68.0263 36.0756 68.0263 36.3133C68.1829 36.3133 68.5457 39.0158 68.3614 39.0158C68.3614 39.2502 68.1479 41.1857 67.9872 41.1857C67.9872 41.5603 67.0108 43.1185 66.7054 43.1185C66.7054 43.3584 65.3621 43.9865 65.0284 43.9865C65.0289 44.0325 64.6797 44.0462 64.6333 44.0462ZM83.8104 50.3598V49.7676H71.1731V50.3598H83.8104ZM29.3927 50.754V50.1613H18.4743V50.754H29.3927Z" fill="#AB3C5A"/>
</svg>
