<svg width="96" height="96" viewBox="0 0 96 96" fill="none" xmlns="http://www.w3.org/2000/svg">
<circle cx="48" cy="48" r="47" fill="white" stroke="white" stroke-width="2"/>
<path d="M48.016 34L77 63L19 62.9681L48.016 34Z" fill="#FFFFFD"/>
<path d="M66.2267 52.2108L55.4375 63H58.5179L67.7589 53.743L66.2267 52.2108Z" fill="#B81237"/>
<path d="M68.0461 54.0303L59.0764 63H62.1568L69.5783 55.5784L68.0461 54.0303Z" fill="#B81237"/>
<path d="M69.8658 55.8497L62.7156 63H65.7959L71.398 57.3979L69.8658 55.8497Z" fill="#B81237"/>
<path d="M71.6853 57.6692L66.3545 63H69.4348L73.2175 59.2173L71.6853 57.6692Z" fill="#B81237"/>
<path d="M73.5046 59.4887L70.0093 63H73.0896L75.0368 61.0369L73.5046 59.4887Z" fill="#B81237"/>
<path d="M45.3505 59.4887C44.8078 60.3027 44.0577 62.1062 43.7864 62.9841H43.946L53.0274 53.9026C51.99 54.0622 51.0005 54.4453 50.1067 55.0039C48.4628 56.0573 46.5954 57.6214 45.3505 59.4887Z" fill="#B81237"/>
<path d="M75.3243 61.3082L73.6484 63H77.0001L76.1702 62.1541L75.3243 61.3082Z" fill="#B81237"/>
<path d="M51.3677 37.3676L49.8196 35.8354L22.655 63H22.9423L43.0205 42.9059C43.9621 42.9378 44.824 42.9857 45.638 43.0815L51.3677 37.3676Z" fill="#B81237"/>
<path d="M49.5481 35.5482L48.1435 34.1436L47.9999 34L19.0159 63H19.3032L39.3494 42.9697C40.3868 42.9219 41.3285 42.9059 42.2063 42.9059L49.5481 35.5482Z" fill="#B81237"/>
<path d="M53.1872 39.1871L51.639 37.6549L26.2939 63H26.5812L46.3721 43.2091C47.1542 43.3368 47.9203 43.4964 48.6863 43.7039L53.1872 39.1871Z" fill="#B81237"/>
<path d="M51.4154 44.5977L55.0065 41.0066L53.4743 39.4585L29.9487 63H30.236L46.8029 46.4172C47.4094 46.7364 47.9999 47.0716 48.5745 47.4546L49.7236 46.3055C48.8139 46.2576 47.8243 46.1937 46.9306 46.2895L49.3406 43.8795C50.0109 44.087 50.6972 44.3264 51.4154 44.5977Z" fill="#B81237"/>
<path d="M55.294 41.278L33.5879 62.9841H33.8752L49.0854 47.7738C49.3727 47.9653 49.6759 48.125 49.9792 48.2846C50.6815 47.7259 50.6814 47.4387 51.5273 47.0237C51.9902 46.8322 52.469 46.7204 52.9638 46.7045L56.8422 42.8261L55.294 41.278ZM50.5218 46.3374L52.0221 44.8371C52.3094 44.9488 52.6127 45.0765 52.9159 45.2042C52.9957 46.2576 51.9264 46.3853 50.5218 46.3374Z" fill="#B81237"/>
<path d="M57.1134 43.0974L37.2268 63H37.5141L53.8416 46.6725C54.7194 46.6725 55.5972 46.7204 56.475 46.8321L58.6775 44.6456L57.1134 43.0974Z" fill="#B81237"/>
<path d="M60.3214 57.5416L65.9395 51.9235L64.4073 50.3754L61.5823 53.1844L59.1084 55.6583L51.7986 63H54.8789L60.1778 57.7012C60.0022 57.0149 59.683 56.3765 59.2361 55.8338L61.5344 53.5355C61.4865 53.8228 61.4227 54.1261 61.3269 54.4293C60.9439 55.8657 60.7843 56.568 60.3214 57.5416Z" fill="#B81237"/>
<path d="M64.1199 50.104L62.7154 48.6995L62.5717 48.5559L54.8948 56.2328L48.1436 62.9841H51.2239L58.8051 55.3869C58.3103 54.9241 57.7198 54.557 57.0814 54.3016L61.2949 50.104C61.5981 50.8861 61.7258 51.732 61.6301 52.5619L64.1199 50.104Z" fill="#B81237"/>
<path d="M60.8959 46.88L60.7523 46.7364L53.6659 53.8228L44.5046 62.984H47.585L56.4749 54.0781C55.6609 53.8387 54.7991 53.743 53.9532 53.7908L59.651 48.093C60.1937 48.476 60.6565 48.9708 61.0077 49.5294L62.2845 48.2526L60.8959 46.88Z" fill="#B81237"/>
<path d="M58.9329 44.9329L40.8657 63H41.153L57.1932 46.9598C57.4485 47.0077 57.7199 47.0716 57.9593 47.1673C58.3743 47.3429 58.7733 47.5504 59.1723 47.7898L60.481 46.481L58.9329 44.9329Z" fill="#B81237"/>
</svg>
