<svg width="96" height="96" viewBox="0 0 96 96" fill="none" xmlns="http://www.w3.org/2000/svg">
<circle cx="48" cy="48" r="47" fill="white" stroke="white" stroke-width="2"/>
<path d="M45.4226 24.6226C61.3936 59.8472 57.0748 76.2543 57.0748 76.2543C52.4448 38.7907 29.5599 21.3967 25.1962 19C25.1962 19 35.3599 19.8798 45.4226 24.6226ZM19 20.5332C19 20.5332 27.2524 32.303 28.3979 44.4433C28.3979 44.4433 46.1199 51.539 52.7736 71.5245C52.7736 71.5245 46.224 38.4199 19 20.5332ZM29.6813 51.4687C29.6813 51.4687 30.5542 57.4479 28.9748 61.8735C28.9748 61.8735 34.5227 60.0026 47.2133 67.1231C47.2133 67.1231 40.1543 56.845 29.6813 51.4687ZM63.4243 34.7265C63.4243 34.7265 56.5807 31.3414 52.9032 29.7179C52.9032 29.7179 62.8883 47.6045 61.2046 74.4443C61.2046 74.4443 67.3232 63.1976 63.4243 34.7265ZM77 41.7592C74.0709 41.7299 72.0912 40.9047 69.2774 39.7482C69.2774 39.7482 70.5189 52.6236 66.5239 67.506C66.5239 67.506 74.2495 57.6475 77 41.7592Z" fill="#009CA2"/>
<path d="M45.4226 24.6226C61.3936 59.8472 57.0748 76.2543 57.0748 76.2543C52.4448 38.7907 29.5599 21.3967 25.1962 19C25.1962 19 35.3599 19.8798 45.4226 24.6226ZM19 20.5332C19 20.5332 27.2524 32.303 28.3979 44.4433C28.3979 44.4433 46.1199 51.539 52.7736 71.5245C52.7736 71.5245 46.224 38.4199 19 20.5332ZM29.6813 51.4687C29.6813 51.4687 30.5542 57.4479 28.9748 61.8735C28.9748 61.8735 34.5227 60.0026 47.2133 67.1231C47.2133 67.1231 40.1543 56.845 29.6813 51.4687ZM63.4243 34.7265C63.4243 34.7265 56.5807 31.3414 52.9032 29.7179C52.9032 29.7179 62.8883 47.6045 61.2046 74.4443C61.2046 74.4443 67.3232 63.1976 63.4243 34.7265ZM77 41.7592C74.0709 41.7299 72.0912 40.9047 69.2774 39.7482C69.2774 39.7482 70.5189 52.6236 66.5239 67.506C66.5239 67.506 74.2495 57.6475 77 41.7592Z" fill="url(#paint0_linear_1_3852)"/>
<defs>
<linearGradient id="paint0_linear_1_3852" x1="42.5507" y1="18.9576" x2="62.2554" y2="77.5611" gradientUnits="userSpaceOnUse">
<stop stop-color="#66CEF6" stop-opacity="0"/>
<stop offset="0.15327" stop-color="#66CEF6" stop-opacity="0.01376"/>
<stop offset="0.28429" stop-color="#66CEF6" stop-opacity="0.05645"/>
<stop offset="0.40713" stop-color="#66CEF6" stop-opacity="0.12827"/>
<stop offset="0.52505" stop-color="#66CEF6" stop-opacity="0.22939"/>
<stop offset="0.63943" stop-color="#66CEF6" stop-opacity="0.35991"/>
<stop offset="0.7512" stop-color="#66CEF6" stop-opacity="0.52007"/>
<stop offset="0.86086" stop-color="#66CEF6" stop-opacity="0.71007"/>
<stop offset="0.96613" stop-color="#66CEF6" stop-opacity="0.92427"/>
<stop offset="1" stop-color="#66CEF6"/>
</linearGradient>
</defs>
</svg>
