<svg width="96" height="96" viewBox="0 0 96 96" fill="none" xmlns="http://www.w3.org/2000/svg">
<circle cx="48" cy="48" r="47" fill="white" stroke="white" stroke-width="2"/>
<path d="M29.1657 34.4421H35.4738L35.0651 37.0058H32.1936L32.0523 37.904H34.6765L34.293 40.3415H31.6637L31.5174 41.26H34.4948L34.0861 43.8236H27.677L29.1657 34.4421Z" fill="#1C437C"/>
<path d="M36.4831 34.4421H40.601C42.7155 34.4421 44.3657 35.3354 43.9923 37.7022C43.7652 39.1202 43.1243 39.7208 41.792 40.1396L41.7819 40.2153C41.9333 40.3516 42.1251 40.503 42.2664 40.7755L43.8258 43.8236H39.8945L38.8802 40.8108H38.8196L38.3453 43.8236H34.9944L36.4831 34.4421ZM39.1577 38.6005H39.3949C39.9551 38.6005 40.5304 38.5147 40.6414 37.8182C40.7575 37.0966 40.2579 37.0108 39.6725 37.0108H39.4101L39.1577 38.6005Z" fill="#1C437C"/>
<path d="M54.5244 34.4421L49.4073 43.8236H46.5207L44.3708 34.4421H47.9286L48.4989 38.7115C48.5645 39.1707 48.5897 39.6299 48.514 40.1043H48.5897C48.6654 39.6299 48.837 39.1707 49.049 38.7115L50.9717 34.4421H54.5244Z" fill="#1C437C"/>
<path d="M54.812 34.4421H58.2235L56.7348 43.8236H53.3284L54.812 34.4421Z" fill="#1C437C"/>
<path d="M65.6569 38.2524C65.1926 37.7427 64.5769 37.3087 63.8048 37.3087C62.7854 37.3087 61.8215 38.1161 61.66 39.1405C61.4985 40.1751 62.2555 40.9674 63.2749 40.9674C64.0571 40.9674 64.7334 40.6293 65.3642 40.0943L64.7081 43.6016C64.1177 43.8641 62.8308 43.9751 62.2252 43.9751C59.5506 43.9751 57.7894 41.8959 58.2133 39.2213C58.6473 36.4861 61.1453 34.2959 63.8956 34.2959C64.6678 34.2959 65.4399 34.4322 66.1211 34.6794L65.6569 38.2524Z" fill="#1C437C"/>
<path d="M66.9185 34.4421H73.2317L72.8229 37.0058H69.9514L69.8101 37.904H72.4343L72.0457 40.3415H69.4215L69.2752 41.26H72.2476L71.8439 43.8236H65.4348L66.9185 34.4421Z" fill="#1C437C"/>
<path d="M25.3557 56.6215L28.8125 56.6618L26.0168 58.6956L27.0513 61.996L24.2505 59.9723L21.4295 61.9707L22.4943 58.6804L19.7188 56.6164L23.1756 56.6114L24.2808 53.3362L25.3557 56.6215Z" fill="#1C437C"/>
<path d="M36.2812 56.6215L39.7381 56.6618L36.9474 58.6956L37.9768 61.996L35.176 59.9723L32.3601 61.9707L33.4199 58.6804L30.6443 56.6164L34.1062 56.6114L35.2114 53.3362L36.2812 56.6215Z" fill="#1C437C"/>
<path d="M46.9243 56.6215L50.3761 56.6618L47.5854 58.6956L48.6149 61.996L45.8141 59.9723L42.9981 61.9707L44.0579 58.6804L41.2874 56.6164L44.7442 56.6114L45.8494 53.3362L46.9243 56.6215Z" fill="#1C437C"/>
<path d="M57.2444 56.6215L60.7012 56.6618L57.9054 58.6956L58.9349 61.996L56.1341 59.9723L53.3182 61.9707L54.383 58.6804L51.6074 56.6164L55.0643 56.6114L56.1695 53.3362L57.2444 56.6215Z" fill="#1C437C"/>
<path d="M75.1191 37.0966C74.3874 37.0966 73.7919 36.5011 73.7919 35.7694C73.7919 35.0326 74.3823 34.4421 75.1191 34.4421C75.8559 34.4421 76.4514 35.0326 76.4514 35.7694C76.4514 36.5011 75.8559 37.0966 75.1191 37.0966ZM75.1191 34.6591C74.5085 34.6591 74.0139 35.1537 74.0139 35.7643C74.0139 36.38 74.5085 36.8746 75.1191 36.8746C75.7348 36.8746 76.2293 36.3749 76.2293 35.7643C76.2293 35.1587 75.7348 34.6591 75.1191 34.6591ZM74.5388 35.078H75.1696C75.5228 35.078 75.6439 35.3 75.6439 35.4514C75.6439 35.6836 75.4774 35.8501 75.2352 35.8653V35.8703C75.3563 35.9157 75.4522 36.0368 75.5682 36.2286L75.7398 36.5062H75.4572L75.3311 36.2841C75.1544 35.9662 75.0838 35.9056 74.9071 35.9056H74.7709V36.5112H74.5438V35.078H74.5388ZM75.104 35.6987C75.2806 35.6987 75.3967 35.6331 75.3967 35.4817C75.3967 35.3505 75.2907 35.2698 75.1443 35.2698H74.7709V35.6987H75.104Z" fill="#1C437C"/>
<path d="M68.1702 56.6215L71.6271 56.6618L68.8364 58.6956L69.8658 61.996L67.065 59.9723L64.244 61.9707L65.3089 58.6804L62.5383 56.6164L65.9901 56.6114L67.1004 53.3362L68.1702 56.6215Z" fill="#1C437C"/>
<path d="M23.554 48.3201C23.3068 48.0274 22.9737 47.7801 22.5649 47.7801C22.0199 47.7801 21.5052 48.2444 21.4194 48.8247C21.3285 49.4202 21.7373 49.8744 22.2823 49.8744C22.7012 49.8744 23.0645 49.6826 23.4026 49.3748L23.0494 51.3833C22.7365 51.5296 22.0451 51.5953 21.7222 51.5953C20.294 51.5953 19.3503 50.4043 19.5774 48.8752C19.8095 47.3057 21.1469 46.0542 22.6154 46.0542C23.0292 46.0542 23.443 46.1349 23.8064 46.2762L23.554 48.3201Z" fill="#1C437C"/>
<path d="M24.3565 46.1399H26.5618C27.6922 46.1399 28.5754 46.6546 28.3735 48.0071C28.2524 48.8196 27.9092 49.1627 27.1977 49.405L27.1926 49.4453C27.2734 49.5261 27.3743 49.6068 27.45 49.7633L28.2827 51.5094H26.1783L25.6333 49.7835H25.5979L25.3456 51.5094H23.5642L24.3565 46.1399ZM25.7897 48.5218H25.9159C26.2136 48.5218 26.5215 48.4714 26.582 48.0727C26.6426 47.6589 26.3802 47.6084 26.0673 47.6084H25.926L25.7897 48.5218Z" fill="#1C437C"/>
<path d="M29.201 46.1399H32.5721L32.3551 47.6084H30.8209L30.7452 48.1232H32.1481L31.9412 49.521H30.5383L30.4626 50.0459H32.0472L31.8302 51.5144H28.4087L29.201 46.1399Z" fill="#1C437C"/>
<path d="M33.2283 46.1399H35.0854C36.7658 46.1399 37.9417 46.9322 37.649 48.9054C37.4118 50.5001 36.2107 51.5144 34.7422 51.5144H32.4309L33.2283 46.1399ZM34.4949 49.9046H34.6059C35.2115 49.9046 35.7212 49.6068 35.8272 48.9003C35.9382 48.1434 35.5799 47.8254 34.9138 47.8254H34.7977L34.4949 49.9046Z" fill="#1C437C"/>
<path d="M38.5623 46.1399H40.3841L39.5918 51.5144H37.77L38.5623 46.1399Z" fill="#1C437C"/>
<path d="M42.7508 51.5144H40.929L41.4741 47.8355L40.4597 47.886L40.7171 46.1399H44.5524L44.29 47.886L43.2958 47.8355L42.7508 51.5144Z" fill="#1C437C"/>
<path d="M52.0819 46.1399L51.6125 49.3192C51.3804 50.8836 50.356 51.6002 48.953 51.6002C47.5501 51.6002 46.7376 50.8886 46.9698 49.3192L47.4391 46.1399H49.2609L48.8168 49.1325C48.7562 49.5513 48.7158 49.9248 49.2003 49.9248C49.6848 49.9248 49.7554 49.5564 49.816 49.1325L50.2601 46.1399H52.0819Z" fill="#1C437C"/>
<path d="M52.6924 46.1399H54.4436L55.6396 49.1173H55.6901C55.685 48.6682 55.6699 48.2039 55.7405 47.7497L55.9777 46.1399H57.7188L56.9265 51.5144H55.1854L53.9995 48.6934H53.944C53.949 49.0618 53.949 49.4151 53.8986 49.7683L53.6412 51.5144H51.9001L52.6924 46.1399Z" fill="#1C437C"/>
<path d="M58.3699 46.1399H60.1917L59.3994 51.5144H57.5776L58.3699 46.1399Z" fill="#1C437C"/>
<path d="M65.8437 48.8447C65.5914 50.5707 64.1935 51.6001 62.6644 51.6001C61.1353 51.6001 60.0453 50.5656 60.2976 48.8447C60.5449 47.1542 61.9579 46.0591 63.4819 46.0591C65.0009 46.0591 66.091 47.1542 65.8437 48.8447ZM62.1244 48.87C62.0336 49.4857 62.3566 49.9045 62.9117 49.9045C63.4617 49.9045 63.9109 49.4857 64.0017 48.87C64.0875 48.2997 63.7948 47.8203 63.2195 47.8203C62.6392 47.8254 62.2102 48.2997 62.1244 48.87Z" fill="#1C437C"/>
<path d="M66.6914 46.1399H68.4425L69.6385 49.1173H69.6941C69.684 48.6682 69.6739 48.2039 69.7445 47.7497L69.9817 46.1399H71.7278L70.9304 51.5144H69.1894L68.0035 48.6934H67.953C67.9581 49.0618 67.9581 49.4151 67.9076 49.7683L67.6502 51.5144H65.9092L66.6914 46.1399Z" fill="#1C437C"/>
<path d="M21.066 40.4677L21.2174 40.6039C21.7523 41.0783 22.4235 41.4618 23.2108 41.4618C23.5439 41.4618 24.104 41.3256 24.1696 40.9017C24.2352 40.4778 23.7962 40.4425 23.4934 40.3768L22.8273 40.2507C21.5353 40.0135 20.5361 39.2313 20.7683 37.7628C21.1215 35.5373 23.347 34.2908 25.3858 34.2908C26.4557 34.2908 27.3994 34.5532 28.227 35.1134L26.925 37.5155C26.4052 37.1168 25.7946 36.8039 25.0578 36.8039C24.7601 36.8039 24.3059 36.9149 24.2453 37.3035C24.1898 37.6517 24.6036 37.7022 24.8559 37.7628L25.5978 37.9343C26.9906 38.2573 27.9141 39.0294 27.6618 40.6241C27.3085 42.8648 25.0931 43.97 23.0594 43.97C21.8785 43.97 20.5614 43.647 19.5874 43.112L21.066 40.4677Z" fill="#1C437C"/>
</svg>
