<svg width="96" height="96" viewBox="0 0 96 96" fill="none" xmlns="http://www.w3.org/2000/svg">
<circle cx="48" cy="48" r="47" fill="white" stroke="white" stroke-width="2"/>
<g clip-path="url(#clip0_1_2837)">
<path d="M43.0149 40.2258C43.0166 40.1533 43.0461 40.0842 43.0975 40.0328C43.1488 39.9814 43.218 39.9516 43.2907 39.9497H44.6716C44.745 39.9497 44.8153 39.9788 44.8672 40.0306C44.9191 40.0824 44.9483 40.1526 44.9483 40.2258V46.1576C44.9483 47.3903 45.7908 48.362 47.0555 48.362C48.3202 48.362 49.1807 47.3903 49.1807 46.1717V40.2258C49.1805 40.1896 49.1876 40.1537 49.2014 40.1202C49.2152 40.0867 49.2355 40.0563 49.2611 40.0306C49.2867 40.005 49.3172 39.9846 49.3507 39.9707C49.3842 39.9569 49.4202 39.9497 49.4565 39.9497H50.8373C50.9102 39.9514 50.9796 39.981 51.0312 40.0324C51.0827 40.0839 51.1124 40.1531 51.1141 40.2258V46.2575C51.1141 48.4619 49.3554 50.2459 47.0583 50.2459C44.7764 50.2459 43.0177 48.4619 43.0177 46.2575L43.0149 40.2258Z" fill="#231F20"/>
<path d="M54.3367 40.0655C54.3397 39.9948 54.3701 39.9279 54.4216 39.8792C54.4731 39.8305 54.5416 39.8037 54.6125 39.8045H54.9762L61.021 46.2131H61.0352V40.2257C61.0352 40.1525 61.0644 40.0823 61.1163 40.0305C61.1681 39.9787 61.2385 39.9496 61.3119 39.9496H62.6494C62.7221 39.9515 62.7912 39.9812 62.8426 40.0327C62.8939 40.0841 62.9235 40.1532 62.9252 40.2257V49.9866C62.922 50.0573 62.8915 50.124 62.84 50.1727C62.7886 50.2213 62.7203 50.2482 62.6494 50.2477H62.3008L56.2267 43.5903H56.2116V49.8264C56.2117 49.8626 56.2047 49.8985 56.1909 49.932C56.1771 49.9655 56.1568 49.996 56.1311 50.0216C56.1055 50.0473 56.0751 50.0676 56.0415 50.0815C56.008 50.0954 55.9721 50.1025 55.9358 50.1025H54.6135C54.5408 50.1006 54.4716 50.0709 54.4203 50.0195C54.3689 49.9681 54.3393 49.899 54.3377 49.8264L54.3367 40.0655Z" fill="#231F20"/>
<path d="M66.298 40.2258C66.2997 40.1531 66.3294 40.0839 66.3809 40.0324C66.4324 39.981 66.5019 39.9514 66.5747 39.9497H67.9263C67.999 39.9516 68.0682 39.9814 68.1195 40.0328C68.1709 40.0842 68.2005 40.1533 68.2021 40.2258V49.8265C68.2005 49.8991 68.1709 49.9682 68.1195 50.0196C68.0682 50.071 67.999 50.1007 67.9263 50.1027H66.5747C66.5019 50.101 66.4324 50.0713 66.3809 50.0199C66.3294 49.9685 66.2997 49.8992 66.298 49.8265V40.2258Z" fill="#231F20"/>
<path d="M71.574 40.2258C71.5739 40.1897 71.5809 40.1539 71.5947 40.1205C71.6084 40.087 71.6286 40.0566 71.6541 40.031C71.6797 40.0053 71.71 39.985 71.7434 39.971C71.7768 39.9571 71.8127 39.9498 71.8489 39.9497H77.7653C77.8016 39.9497 77.8375 39.9569 77.8711 39.9707C77.9046 39.9846 77.935 40.005 77.9607 40.0306C77.9863 40.0563 78.0066 40.0867 78.0204 40.1202C78.0342 40.1537 78.0412 40.1896 78.0411 40.2258V41.4152C78.0411 41.4882 78.012 41.5582 77.9603 41.6098C77.9086 41.6614 77.8384 41.6904 77.7653 41.6904H73.464V44.4169H77.0531C77.1257 44.4188 77.1947 44.4484 77.246 44.4996C77.2974 44.5508 77.327 44.6197 77.3289 44.6921V45.8814C77.3273 45.954 77.2977 46.0231 77.2464 46.0745C77.195 46.1259 77.1258 46.1557 77.0531 46.1576H73.464V49.8265C73.4623 49.8992 73.4326 49.9685 73.3811 50.0199C73.3295 50.0713 73.2601 50.101 73.1873 50.1027H71.8489C71.8126 50.1027 71.7766 50.0955 71.7431 50.0816C71.7096 50.0677 71.6792 50.0474 71.6535 50.0217C71.6279 49.9961 71.6076 49.9656 71.5938 49.9321C71.58 49.8986 71.573 49.8627 71.5731 49.8265L71.574 40.2258Z" fill="#231F20"/>
<path d="M82.7107 45.2152L79.3965 40.371C79.3682 40.3299 79.3519 40.2817 79.3495 40.2319C79.3471 40.182 79.3587 40.1325 79.3829 40.0889C79.4072 40.0453 79.4431 40.0092 79.4867 39.9848C79.5303 39.9604 79.5798 39.9486 79.6298 39.9507H81.1051C81.1516 39.9523 81.1971 39.965 81.2377 39.9878C81.2783 40.0106 81.3128 40.0428 81.3384 40.0817L83.6638 43.417L85.9891 40.0817C86.0141 40.0425 86.0484 40.01 86.0889 39.9872C86.1294 39.9643 86.175 39.9518 86.2215 39.9507H87.7185C87.7685 39.9486 87.818 39.9604 87.8616 39.9848C87.9052 40.0092 87.9411 40.0453 87.9654 40.0889C87.9896 40.1325 88.0011 40.182 87.9988 40.2319C87.9964 40.2817 87.9801 40.3299 87.9518 40.371L84.5998 45.2001V49.8265C84.5981 49.8993 84.5684 49.9685 84.5168 50.0199C84.4653 50.0714 84.3959 50.101 84.323 50.1027H82.9837C82.9103 50.1027 82.8399 50.0736 82.788 50.0218C82.7361 49.97 82.707 49.8998 82.707 49.8265L82.7107 45.2152Z" fill="#231F20"/>
<path d="M43.3577 54.2278V54.8875H44.2333V55.2258H43.3577V56.1683H42.9554V53.8904H44.3636V54.2278H43.3577Z" fill="#8C83BE"/>
<path d="M45.4026 56.1664H45.0002V53.8904H45.4026V56.1664Z" fill="#8C83BE"/>
<path d="M48.1341 53.8904V56.1664H47.7318L46.5511 54.47V56.1664H46.195V53.8904H46.6305L47.778 55.5576V53.8904H48.1341Z" fill="#8C83BE"/>
<path d="M50.0354 55.6301H49.2307L49.0692 56.1664H48.6734L49.3979 53.8904H49.9079L50.6323 56.1664H50.1969L50.0354 55.6301ZM49.9514 55.3361L49.6331 54.2749L49.3148 55.3361H49.9514Z" fill="#8C83BE"/>
<path d="M53.1117 53.8904V56.1664H52.7093L51.5277 54.47V56.1664H51.1726V53.8904H51.609L52.7556 55.5576V53.8904H53.1117Z" fill="#8C83BE"/>
<path d="M54.7712 55.8646C54.9624 55.8635 55.1527 55.8388 55.3379 55.7911V56.1059C55.3379 56.1059 55.149 56.2001 54.7107 56.2001C54.043 56.2001 53.7813 55.7845 53.7813 55.0852C53.7813 54.3859 54.0326 53.8601 54.7778 53.8601C54.9788 53.8575 55.1793 53.88 55.3747 53.927V54.7535H55.0564L55.0158 54.2078C54.9149 54.1918 54.8129 54.1842 54.7107 54.1852C54.3018 54.1852 54.1969 54.5226 54.1969 55.0334C54.1969 55.5442 54.3018 55.8646 54.7712 55.8646Z" fill="#8C83BE"/>
<path d="M56.4713 56.1664H56.0689V53.8904H56.4713V56.1664Z" fill="#8C83BE"/>
<path d="M58.3736 55.6301H57.5688L57.4073 56.1664H57.0116L57.736 53.8904H58.2479L58.9724 56.1664H58.5313L58.3736 55.6301ZM58.2895 55.3361L57.9712 54.2749L57.6519 55.3361H58.2895Z" fill="#8C83BE"/>
<path d="M60.8321 55.828V56.1664H59.5098V53.8904H59.9122V55.828H60.8321Z" fill="#8C83BE"/>
<path d="M63.4012 55.8646C63.5924 55.8635 63.7827 55.8388 63.9679 55.7911V56.1059C63.9679 56.1059 63.779 56.2001 63.3398 56.2001C62.673 56.2001 62.4113 55.7845 62.4113 55.0852C62.4113 54.3859 62.6626 53.8601 63.4078 53.8601C63.6088 53.8575 63.8093 53.88 64.0047 53.927V54.7535H63.6855L63.6458 54.2078C63.5446 54.1917 63.4423 54.1842 63.3398 54.1852C62.9308 54.1852 62.8269 54.5226 62.8269 55.0334C62.8269 55.5442 62.9318 55.8646 63.4012 55.8646Z" fill="#8C83BE"/>
<path d="M65.5207 55.2494H65.0975V56.1664H64.6989V53.8904H65.6378C66.1176 53.8904 66.3792 54.0412 66.3792 54.519C66.3792 54.8875 66.2253 55.1184 65.9334 55.2023L66.4869 56.1664H66.0307L65.5207 55.2494ZM65.0975 54.9346H65.5906C65.8862 54.9346 65.9599 54.8168 65.9599 54.5727C65.9599 54.3286 65.8862 54.2118 65.5906 54.2118H65.0975V54.9346Z" fill="#8C83BE"/>
<path d="M67.4796 54.2278V54.8281H68.4241V55.1533H67.4796V55.829H68.5497V56.1673H67.0772V53.8904H68.5497V54.2278H67.4796Z" fill="#8C83BE"/>
<path d="M69.9778 53.8904C70.6626 53.8904 70.9072 54.2674 70.9072 54.9714C70.9072 55.6754 70.6626 56.1664 69.9778 56.1664H69.2222V53.8904H69.9778ZM69.9778 55.8346C70.4113 55.8346 70.4916 55.5133 70.4916 55.0279C70.4916 54.5426 70.4113 54.2212 69.9778 54.2212H69.6255V55.8346H69.9778Z" fill="#8C83BE"/>
<path d="M71.9839 56.1664H71.5816V53.8904H71.9839V56.1664Z" fill="#8C83BE"/>
<path d="M74.1913 54.2278H73.5773V56.1664H73.1712V54.2278H72.5573V53.8904H74.1913V54.2278Z" fill="#8C83BE"/>
<path d="M77.6019 53.8904V55.2098C77.6019 55.9223 77.2496 56.1975 76.7396 56.1975C76.2295 56.1975 75.8744 56.0297 75.8744 55.3097V53.8904H76.2881V55.2626C76.2881 55.7479 76.459 55.8686 76.7603 55.8686C77.0616 55.8686 77.226 55.7479 77.226 55.2626V53.8904H77.6019Z" fill="#8C83BE"/>
<path d="M80.3155 53.8904V56.1664H79.9131L78.7315 54.47V56.1664H78.3764V53.8904H78.8128L79.9594 55.5576V53.8904H80.3155Z" fill="#8C83BE"/>
<path d="M81.5093 56.1664H81.1051V53.8904H81.5084L81.5093 56.1664Z" fill="#8C83BE"/>
<path d="M83.1122 56.2002C82.4274 56.2002 82.1828 55.7846 82.1828 55.0853C82.1828 54.386 82.4274 53.8601 83.1122 53.8601C83.7969 53.8601 84.0416 54.2757 84.0416 54.9778C84.0416 55.68 83.7998 56.2002 83.1122 56.2002ZM83.1122 54.1909C82.6796 54.1909 82.6021 54.5424 82.6021 55.0278C82.6021 55.5132 82.6796 55.8685 83.1122 55.8685C83.5448 55.8685 83.625 55.5132 83.625 55.0278C83.625 54.5424 83.5448 54.1909 83.1122 54.1909Z" fill="#8C83BE"/>
<path d="M86.6541 53.8904V56.1664H86.2517L85.0711 54.47V56.1664H84.715V53.8904H85.1514L86.2999 55.5576V53.8904H86.6541Z" fill="#8C83BE"/>
<path d="M34.4094 43.2727C33.5518 42.2068 32.0179 40.9656 29.4168 40.6339C29.0805 38.0374 27.8366 36.5078 26.7721 35.6521C24.9115 34.1602 22.8364 34 22.0307 34C21.225 34 19.1499 34.1602 17.293 35.6483C16.2248 36.5041 14.9809 38.0337 14.6484 40.6301C12.0463 40.9656 10.5133 42.2068 9.65573 43.2689C8.16057 45.1255 8 47.1942 8 48C8 48.8058 8.16057 50.8745 9.65195 52.7273C10.5096 53.7932 12.0425 55.0335 14.6446 55.3661C14.9809 57.9616 16.2248 59.4922 17.2893 60.3479C19.1462 61.8351 21.2213 61.9962 22.0269 61.9962C22.8326 61.9962 24.9077 61.8351 26.7646 60.3479C27.8328 59.4922 29.0767 57.9616 29.4092 55.3661C32.0104 55.0297 33.5443 53.7894 34.4019 52.7273C35.8923 50.8745 36.0538 48.8039 36.0538 48C36.0538 47.1961 35.8999 45.1255 34.4094 43.2727ZM23.6307 46.4007C23.9924 46.7635 24.3702 47.1735 24.7433 47.6259C24.8472 47.7515 24.9473 47.8772 25.0437 48.0028C24.9473 48.1285 24.8472 48.2541 24.7433 48.3798C24.3655 48.8303 23.9877 49.2403 23.6307 49.605C23.2737 49.9697 22.8581 50.341 22.4028 50.7114C22.2769 50.8151 22.151 50.915 22.025 51.0111C21.8991 50.915 21.7732 50.8151 21.6472 50.7114C21.1967 50.3401 20.7868 49.9641 20.4194 49.604C20.0519 49.244 19.6798 48.8312 19.3077 48.3789C19.2028 48.2526 19.1037 48.1272 19.0073 48.0019C19.1018 47.8775 19.2028 47.7521 19.3077 47.6249C19.6798 47.1744 20.0576 46.7654 20.4194 46.3997C20.7811 46.0341 21.1929 45.6637 21.6472 45.2924C21.7738 45.1877 21.8994 45.0888 22.025 44.9927C22.1497 45.0869 22.2753 45.1877 22.4028 45.2924C22.8581 45.6637 23.2671 46.0407 23.6307 46.4007ZM18.9563 44.9267C18.5105 45.3687 18.1223 45.7928 17.8021 46.1669C17.0465 44.7891 16.7537 43.5922 16.6687 42.6526C17.6132 42.7374 18.8109 43.0296 20.1908 43.7835C19.8215 44.1011 19.3993 44.4847 18.9563 44.9267ZM17.805 49.8331C18.1251 50.21 18.5133 50.6304 18.9591 51.0733C19.405 51.5163 19.8215 51.8989 20.1936 52.2165C18.8137 52.9704 17.6132 53.2626 16.6715 53.3474C16.7566 52.4078 17.0531 51.21 17.805 49.8331ZM25.1022 51.0724C25.549 50.6304 25.9362 50.2063 26.2564 49.8331C27.012 51.21 27.3048 52.4078 27.3898 53.3474C26.4453 53.2626 25.2477 52.9704 23.8678 52.2165C24.2399 51.8979 24.6621 51.5144 25.1022 51.0724ZM26.2564 46.1669C25.9344 45.79 25.5462 45.3668 25.0985 44.9229C24.6508 44.479 24.239 44.1002 23.8706 43.7835C25.2505 43.0296 26.451 42.7374 27.3927 42.6526C27.3048 43.5922 27.0083 44.7891 26.2564 46.1669ZM18.5983 37.2712C19.9773 36.1667 21.5736 36.0809 22.0307 36.0809C22.4878 36.0809 24.0841 36.1667 25.463 37.2712C26.4434 38.0563 27.0583 39.1627 27.3011 40.5698C25.5679 40.7074 23.7733 41.3511 22.0335 42.449C20.2843 41.3511 18.4982 40.7074 16.7603 40.5707C17.0031 39.1627 17.6179 38.0525 18.5983 37.2712ZM11.2784 51.4248C10.1724 50.0489 10.0855 48.4552 10.0855 48C10.0855 47.5448 10.1714 45.9511 11.2784 44.5752C12.0652 43.5969 13.174 42.9834 14.5842 42.7412C14.7221 44.4753 15.3615 46.2574 16.4666 47.9972C15.3672 49.7388 14.723 51.5295 14.5851 53.2588C13.174 53.0166 12.0614 52.4031 11.2784 51.4248ZM25.463 58.7288C24.0841 59.8324 22.4869 59.9172 22.0307 59.9172C21.5745 59.9172 19.9773 59.8314 18.5983 58.7278C17.6179 57.9428 17.0031 56.8364 16.7603 55.4293C18.4982 55.2917 20.2843 54.6527 22.0279 53.551H22.0335C23.7733 54.6527 25.5679 55.2917 27.3011 55.4293C27.0583 56.8373 26.4434 57.9437 25.463 58.7288ZM32.783 51.4248C31.9962 52.4031 30.8874 53.0166 29.4772 53.2588C29.3393 51.5247 28.6989 49.7426 27.5948 48.0019C28.6989 46.2621 29.3393 44.48 29.4772 42.7459C30.8883 42.9881 31.9972 43.6016 32.783 44.5799C33.889 45.9558 33.975 47.5486 33.975 48.0047C33.975 48.4609 33.889 50.0489 32.783 51.4248Z" fill="url(#paint0_linear_1_2837)"/>
<g opacity="0.7">
<path style="mix-blend-mode:multiply" d="M20.1936 52.2165C19.8215 51.8989 19.4002 51.5153 18.9601 51.0743C18.52 50.6332 18.1261 50.21 17.805 49.8331L17.8106 49.8217C18.1603 49.1894 18.5595 48.5856 19.0045 48.016L19.0177 48C19.1122 48.1244 19.2132 48.2497 19.3181 48.377C19.6902 48.8275 20.068 49.2365 20.4298 49.6022C20.7915 49.9678 21.2033 50.3382 21.6576 50.7095L20.1936 52.2165Z" fill="url(#paint1_linear_1_2837)"/>
<path style="mix-blend-mode:multiply" d="M34.4094 52.7274C33.5518 53.7933 32.0179 55.0335 29.4167 55.3662C29.4762 54.9008 29.5055 54.4321 29.5046 53.9629C29.5046 53.7273 29.4951 53.4914 29.4763 53.2551C30.8874 53.0129 31.9962 52.3994 32.782 51.4211L34.4094 52.7274Z" fill="url(#paint2_linear_1_2837)"/>
<path style="mix-blend-mode:multiply" d="M27.3011 40.5708C25.5679 40.7084 23.7733 41.3511 22.0335 42.4491L22.5899 42.8016C23.0355 43.1026 23.4623 43.4305 23.8678 43.7836C25.2477 43.0296 26.4482 42.7375 27.3899 42.6527L27.3011 40.5708Z" fill="url(#paint3_linear_1_2837)"/>
<path style="mix-blend-mode:multiply" d="M26.2508 46.1783L26.2564 46.167C27.012 44.7891 27.3048 43.5922 27.3898 42.6526C27.6109 42.6319 27.8187 42.6234 28.0104 42.6234C28.5015 42.6212 28.9919 42.6606 29.4763 42.7412C29.3384 44.4753 28.698 46.2574 27.5939 47.9972L26.2508 46.1783Z" fill="url(#paint4_linear_1_2837)"/>
<path style="mix-blend-mode:multiply" d="M20.2021 43.7892L20.1917 43.7836C18.8109 43.0296 17.6104 42.7375 16.6687 42.6527C16.6489 42.4321 16.6394 42.2248 16.6394 42.0335C16.637 41.5434 16.6769 41.0541 16.7585 40.5708C18.4964 40.7084 20.2786 41.3511 22.026 42.4491H22.0307L20.2021 43.7892Z" fill="url(#paint5_linear_1_2837)"/>
<path style="mix-blend-mode:multiply" d="M22.0279 53.5511C23.7733 54.6528 25.5679 55.2917 27.3011 55.4293C27.3818 54.946 27.4213 54.4567 27.4191 53.9667C27.4191 53.7782 27.4106 53.568 27.3898 53.3475C26.4453 53.2627 25.2477 52.9705 23.8678 52.2166L22.0279 53.5511Z" fill="url(#paint6_linear_1_2837)"/>
<path style="mix-blend-mode:multiply" d="M25.463 37.2713C26.4434 38.0563 27.0583 39.1628 27.3011 40.5698C27.5384 40.551 27.7749 40.5416 28.0104 40.5416C28.4806 40.5406 28.9503 40.5699 29.4168 40.6292C29.0796 38.0328 27.8366 36.5032 26.7721 35.6475L25.463 37.2713Z" fill="url(#paint7_linear_1_2837)"/>
<path style="mix-blend-mode:multiply" d="M22.0307 44.9936C22.1554 45.0879 22.281 45.1887 22.4085 45.2933C22.859 45.6647 23.269 46.0407 23.6364 46.4007C24.0038 46.7607 24.3759 47.1735 24.7481 47.6259C24.852 47.7516 24.9521 47.8772 25.0484 48.0029L25.0607 47.9868C25.5061 47.4173 25.9056 46.8135 26.2555 46.1811L26.2612 46.1698C25.94 45.7928 25.5528 45.3716 25.106 44.9286C24.6593 44.4857 24.2446 44.104 23.8725 43.7864L22.0307 44.9936Z" fill="url(#paint8_linear_1_2837)"/>
<path style="mix-blend-mode:multiply" d="M17.293 60.3516C16.2248 59.4959 14.9809 57.9654 14.6484 55.3699C15.1148 55.4292 15.5846 55.4585 16.0548 55.4575C16.29 55.4575 16.527 55.4481 16.7641 55.4292C17.0068 56.8373 17.6217 57.9437 18.6021 58.7278L17.293 60.3516Z" fill="url(#paint9_linear_1_2837)"/>
<path style="mix-blend-mode:multiply" d="M29.4763 53.2589C29.3384 51.5248 28.698 49.7426 27.5939 48.002L27.2406 48.558C26.9386 49.0024 26.6099 49.4283 26.2564 49.8331C27.012 51.21 27.3048 52.4079 27.3899 53.3475L29.4763 53.2589Z" fill="url(#paint10_linear_1_2837)"/>
<path style="mix-blend-mode:multiply" d="M16.4694 48C15.3672 49.7388 14.7221 51.5295 14.5851 53.2588C15.0695 53.3395 15.5599 53.3789 16.051 53.3766C16.2399 53.3766 16.4505 53.3682 16.6715 53.3474C16.7565 52.405 17.0493 51.21 17.8049 49.8331L16.4694 48Z" fill="url(#paint11_linear_1_2837)"/>
<path style="mix-blend-mode:multiply" opacity="0.75" d="M14.5851 42.7412C14.7221 44.4753 15.3624 46.2574 16.4675 47.9972L16.8208 47.4421C17.1225 46.9974 17.4511 46.5716 17.8049 46.167C17.0493 44.7901 16.7565 43.5922 16.6715 42.6526L14.5851 42.7412Z" fill="url(#paint12_linear_1_2837)"/>
<path style="mix-blend-mode:multiply" d="M16.7603 55.4293C18.4982 55.2917 20.2843 54.6528 22.0279 53.5511L21.4715 53.1986C21.0261 52.8972 20.5994 52.5693 20.1936 52.2166C18.8137 52.9705 17.6132 53.2627 16.6715 53.3475L16.7603 55.4293Z" fill="url(#paint13_linear_1_2837)"/>
<path style="mix-blend-mode:multiply" d="M9.65195 43.2729C10.5096 42.207 12.0425 40.9658 14.6446 40.634C14.5849 41.0994 14.5552 41.5681 14.5558 42.0373C14.5558 42.272 14.5662 42.5086 14.5851 42.7451C13.174 42.9873 12.0652 43.6008 11.2793 44.5791L9.65195 43.2729Z" fill="url(#paint14_linear_1_2837)"/>
</g>
</g>
<defs>
<linearGradient id="paint0_linear_1_2837" x1="8" y1="48" x2="36.0614" y2="48" gradientUnits="userSpaceOnUse">
<stop stop-color="#58C1E9"/>
<stop offset="0.04" stop-color="#5AB6E2"/>
<stop offset="0.18" stop-color="#5F93CC"/>
<stop offset="0.26" stop-color="#6185C4"/>
<stop offset="0.34" stop-color="#6264B1"/>
<stop offset="0.44" stop-color="#63419B"/>
<stop offset="0.5" stop-color="#633393"/>
<stop offset="0.56" stop-color="#63479F"/>
<stop offset="0.75" stop-color="#6185C4"/>
<stop offset="0.79" stop-color="#5F90CB"/>
<stop offset="0.92" stop-color="#5AB3E1"/>
<stop offset="1" stop-color="#58C1E9"/>
</linearGradient>
<linearGradient id="paint1_linear_1_2837" x1="18.0213" y1="49.3703" x2="21.5151" y2="51.0038" gradientUnits="userSpaceOnUse">
<stop offset="0.04" stop-color="#232C68" stop-opacity="0.97"/>
<stop offset="0.39" stop-color="#858AAC" stop-opacity="0.53"/>
<stop offset="0.79" stop-color="white" stop-opacity="0"/>
</linearGradient>
<linearGradient id="paint2_linear_1_2837" x1="34.2763" y1="52.3608" x2="29.019" y2="54.2785" gradientUnits="userSpaceOnUse">
<stop offset="0.17" stop-color="white" stop-opacity="0"/>
<stop offset="0.28" stop-color="#D0D2DF" stop-opacity="0.21"/>
<stop offset="0.49" stop-color="#858AAB" stop-opacity="0.55"/>
<stop offset="0.68" stop-color="#4F5686" stop-opacity="0.8"/>
<stop offset="0.86" stop-color="#2E3770" stop-opacity="0.95"/>
<stop offset="1" stop-color="#232C68"/>
</linearGradient>
<linearGradient id="paint3_linear_1_2837" x1="27.5806" y1="41.337" x2="22.3262" y2="43.2529" gradientUnits="userSpaceOnUse">
<stop offset="0.21" stop-color="white" stop-opacity="0"/>
<stop offset="0.37" stop-color="#B3B6CB" stop-opacity="0.35"/>
<stop offset="0.53" stop-color="#747AA0" stop-opacity="0.63"/>
<stop offset="0.7" stop-color="#474F81" stop-opacity="0.84"/>
<stop offset="0.85" stop-color="#2C356E" stop-opacity="0.96"/>
<stop offset="1" stop-color="#232C68"/>
</linearGradient>
<linearGradient id="paint4_linear_1_2837" x1="26.3745" y1="47.2677" x2="29.1196" y2="42.5032" gradientUnits="userSpaceOnUse">
<stop offset="0.17" stop-color="white" stop-opacity="0"/>
<stop offset="0.41" stop-color="#B5B8CC" stop-opacity="0.34"/>
<stop offset="0.8" stop-color="#4C5384" stop-opacity="0.81"/>
<stop offset="0.99" stop-color="#232C68"/>
</linearGradient>
<linearGradient id="paint5_linear_1_2837" x1="21.2968" y1="43.6648" x2="16.5323" y2="40.9076" gradientUnits="userSpaceOnUse">
<stop offset="0.2" stop-color="white" stop-opacity="0"/>
<stop offset="0.43" stop-color="#B5B8CC" stop-opacity="0.34"/>
<stop offset="0.78" stop-color="#4C5384" stop-opacity="0.81"/>
<stop offset="0.96" stop-color="#232C68"/>
</linearGradient>
<linearGradient id="paint6_linear_1_2837" x1="27.4191" y1="53.8225" x2="22.0279" y2="53.8225" gradientUnits="userSpaceOnUse">
<stop stop-color="#232C68" stop-opacity="0.97"/>
<stop offset="0.16" stop-color="#4C5384" stop-opacity="0.79"/>
<stop offset="0.49" stop-color="#B6B9CD" stop-opacity="0.32"/>
<stop offset="0.69" stop-color="white" stop-opacity="0"/>
</linearGradient>
<linearGradient id="paint7_linear_1_2837" x1="25.566" y1="36.2619" x2="29.1101" y2="40.4946" gradientUnits="userSpaceOnUse">
<stop offset="0.19" stop-color="white" stop-opacity="0"/>
<stop offset="1" stop-color="#232C68"/>
</linearGradient>
<linearGradient id="paint8_linear_1_2837" x1="22.1185" y1="44.8042" x2="26.0371" y2="46.6354" gradientUnits="userSpaceOnUse">
<stop offset="0.47" stop-color="white" stop-opacity="0.15"/>
<stop offset="0.69" stop-color="#9A9EB9" stop-opacity="0.53"/>
<stop offset="0.97" stop-color="#232C68" stop-opacity="0.97"/>
</linearGradient>
<linearGradient id="paint9_linear_1_2837" x1="16.2692" y1="55.0834" x2="17.1993" y2="60.3683" gradientUnits="userSpaceOnUse">
<stop stop-color="#232C68"/>
<stop offset="0.66" stop-color="white" stop-opacity="0"/>
</linearGradient>
<linearGradient id="paint10_linear_1_2837" x1="27.3832" y1="53.3456" x2="28.7303" y2="48.3058" gradientUnits="userSpaceOnUse">
<stop offset="0.2" stop-color="#FDFDFD" stop-opacity="0.01"/>
<stop offset="0.45" stop-color="#9FA3BD" stop-opacity="0.44"/>
<stop offset="0.68" stop-color="#5B628F" stop-opacity="0.74"/>
<stop offset="0.87" stop-color="#323A72" stop-opacity="0.93"/>
<stop offset="1" stop-color="#232C68"/>
</linearGradient>
<linearGradient id="paint11_linear_1_2837" x1="16.1946" y1="53.3766" x2="16.1946" y2="48" gradientUnits="userSpaceOnUse">
<stop stop-color="#232C68" stop-opacity="0.97"/>
<stop offset="0.1" stop-color="#363E75" stop-opacity="0.89"/>
<stop offset="0.26" stop-color="#696F98" stop-opacity="0.66"/>
<stop offset="0.45" stop-color="#BCBFD1" stop-opacity="0.3"/>
<stop offset="0.59" stop-color="white" stop-opacity="0"/>
</linearGradient>
<linearGradient id="paint12_linear_1_2837" x1="17.3761" y1="46.7315" x2="15.9301" y2="44.2228" gradientUnits="userSpaceOnUse">
<stop offset="0.06" stop-color="#232C68"/>
<stop offset="0.18" stop-color="#363E75" stop-opacity="0.91"/>
<stop offset="0.36" stop-color="#6A7099" stop-opacity="0.68"/>
<stop offset="0.6" stop-color="#BFC1D3" stop-opacity="0.29"/>
<stop offset="0.76" stop-color="white" stop-opacity="0"/>
</linearGradient>
<linearGradient id="paint13_linear_1_2837" x1="16.8529" y1="55.5396" x2="20.8645" y2="52.1664" gradientUnits="userSpaceOnUse">
<stop offset="0.27" stop-color="white" stop-opacity="0"/>
<stop offset="1" stop-color="#232C68"/>
</linearGradient>
<linearGradient id="paint14_linear_1_2837" x1="9.78512" y1="43.6395" x2="15.0424" y2="41.7218" gradientUnits="userSpaceOnUse">
<stop offset="0.26" stop-color="white" stop-opacity="0"/>
<stop offset="0.35" stop-color="#D5D7E2" stop-opacity="0.19"/>
<stop offset="0.54" stop-color="#888DAE" stop-opacity="0.54"/>
<stop offset="0.72" stop-color="#515887" stop-opacity="0.79"/>
<stop offset="0.88" stop-color="#2F3770" stop-opacity="0.95"/>
<stop offset="1" stop-color="#232C68"/>
</linearGradient>
<clipPath id="clip0_1_2837">
<rect width="80" height="28" fill="white" transform="translate(8 34)"/>
</clipPath>
</defs>
</svg>
