<svg width="96" height="96" viewBox="0 0 96 96" fill="none" xmlns="http://www.w3.org/2000/svg">
<circle cx="48" cy="48" r="47" transform="rotate(180 48 48)" fill="white" stroke="white" stroke-width="2"/>
<g clip-path="url(#clip0_1_3161)">
<path d="M20.2164 53.989C20.232 54.0046 20.3256 53.989 20.232 54.0357C20.0292 54.1292 19.8264 54.1603 19.608 54.1914C19.296 54.2382 18.9684 54.2849 18.6564 54.2693C18.4224 54.2693 18.204 54.2226 17.97 54.2382C17.9232 54.2382 17.8764 54.2226 17.8452 54.1603C17.9232 54.1603 18.0012 54.1447 18.0636 54.1447C18.7032 54.1603 19.3584 54.1759 19.9824 54.0202C20.0604 54.0202 20.1384 54.0046 20.2164 53.989Z" fill="#007AC2"/>
<path d="M19.1556 56.0911C19.2492 56.0288 19.3584 56.0288 19.4676 56.0132C20.076 55.9509 20.6688 55.8731 21.2304 55.6239C21.2928 55.5928 21.3396 55.6239 21.3864 55.6395C21.402 55.6551 21.402 55.6551 21.402 55.6706C21.402 55.6862 21.3864 55.6862 21.3864 55.6862C20.6688 55.9665 19.9356 56.1222 19.1556 56.1378C19.14 56.1222 19.14 56.1066 19.1556 56.0911Z" fill="#007AC2"/>
<path d="M14.9124 55.1724C15.1152 55.1257 15.24 55.2658 15.396 55.3437C15.8328 55.5461 16.2852 55.7018 16.7688 55.8108C16.8468 55.8264 16.9248 55.8576 16.9872 55.9198C17.0028 55.9354 17.0028 55.9354 17.0028 55.951C17.0028 55.9666 16.9872 55.9666 16.9872 55.9666C16.5036 55.8887 16.0512 55.7018 15.5988 55.515C15.3648 55.4216 15.1308 55.3125 14.9124 55.1724Z" fill="#007AC2"/>
<path d="M16.9716 55.9666C16.9716 55.951 16.9716 55.9354 16.9716 55.9199C17.1432 55.842 17.2836 55.951 17.4396 55.9666C17.7048 55.9977 17.9856 55.9666 18.2352 56.0911C18.2196 56.1067 18.204 56.1223 18.1884 56.1379C17.7984 56.1379 17.3772 56.06 16.9716 55.9666Z" fill="#007AC2"/>
<path d="M22.9152 54.9076C22.9464 54.7519 23.1024 54.6896 23.196 54.6273C23.4456 54.4716 23.664 54.2692 23.8824 54.0667C23.9448 54.0045 24.0072 53.9422 24.1008 53.9577C23.7576 54.3315 23.352 54.6429 22.9152 54.9076Z" fill="#007AC2"/>
<path d="M17.5488 54.0825C17.58 54.1292 17.658 54.1136 17.7048 54.1603C17.5644 54.2693 17.424 54.1603 17.3304 54.1292C17.0808 54.0358 16.8 54.0046 16.566 53.8645C16.5192 53.8333 16.4412 53.8178 16.566 53.7866C16.8936 53.9268 17.2212 53.9735 17.5488 54.0825Z" fill="#007AC2"/>
<path d="M21.3864 55.6707C21.3864 55.6551 21.3864 55.6395 21.3864 55.624C21.6672 55.4527 21.9792 55.3125 22.2912 55.188C22.3224 55.1724 22.3536 55.1724 22.3848 55.2035C22.0572 55.4215 21.7296 55.5617 21.3864 55.6707Z" fill="#007AC2"/>
<path d="M18.204 56.1223C18.2196 56.1067 18.2352 56.0912 18.2508 56.0756C18.2976 56.0756 18.3288 56.0756 18.3756 56.0756C18.594 56.0445 18.8124 56.0445 19.0308 56.0756C19.0776 56.0756 19.1088 56.0756 19.1556 56.0756C19.1556 56.0912 19.1556 56.1067 19.1556 56.1223C18.8436 56.169 18.5316 56.169 18.204 56.1223Z" fill="#007AC2"/>
<path d="M19.0308 56.0911C18.8124 56.0911 18.594 56.0911 18.3756 56.0911C18.594 56.0289 18.8124 56.0289 19.0308 56.0911Z" fill="#007AC2"/>
<path d="M22.9932 54.5652C23.04 54.5963 23.0556 54.6275 23.04 54.6586H23.0088C22.9932 54.6275 22.9932 54.5963 22.9932 54.5652Z" fill="#007AC2"/>
<path d="M14.5536 63.8148C14.3196 63.8926 13.8828 64.0172 13.3524 64.0172C12.7596 64.0172 12.2604 63.877 11.886 63.5189C11.5428 63.2075 11.34 62.7092 11.34 62.133C11.34 61.0119 12.1512 60.2021 13.4616 60.2021C13.914 60.2021 14.2728 60.2956 14.4444 60.3734L14.3196 60.7627C14.1168 60.6693 13.8516 60.607 13.446 60.607C12.4944 60.607 11.8704 61.1676 11.8704 62.1175C11.8704 63.0673 12.4632 63.6279 13.3836 63.6279C13.7112 63.6279 13.9452 63.5812 14.0544 63.5345V62.4133H13.2588V62.024H14.5536V63.8148Z" fill="#007AC2"/>
<path d="M16.3164 60.2488V62.4599C16.3164 63.3008 16.7064 63.659 17.2368 63.659C17.814 63.659 18.1884 63.2852 18.1884 62.4599V60.2488H18.7032V62.4288C18.7032 63.5811 18.0636 64.0482 17.2212 64.0482C16.41 64.0482 15.8172 63.6122 15.8172 62.4444V60.2488H16.3164Z" fill="#007AC2"/>
<path d="M20.4817 62.8025L20.0761 63.986H19.5457L20.8873 60.2488H21.4957L22.8373 63.986H22.2913L21.8701 62.8025H20.4817ZM21.7765 62.4288L21.3865 61.3544C21.2929 61.1052 21.2461 60.8872 21.1837 60.6692H21.1681C21.1057 60.8872 21.0433 61.1208 20.9653 61.3388L20.5753 62.4132H21.7765V62.4288Z" fill="#007AC2"/>
<path d="M23.898 60.2954C24.1476 60.2487 24.522 60.2175 24.8652 60.2175C25.4112 60.2175 25.7544 60.311 26.004 60.529C26.2068 60.7002 26.316 60.9494 26.316 61.2453C26.316 61.7435 25.9884 62.0706 25.5828 62.1951V62.2107C25.8792 62.3041 26.0664 62.5844 26.16 62.9581C26.2848 63.472 26.3784 63.8457 26.4564 63.9859H25.926C25.8636 63.8769 25.77 63.5654 25.6608 63.0983C25.5516 62.5844 25.3332 62.382 24.8808 62.3664H24.3972V63.9859H23.8824V60.2954H23.898ZM24.3972 61.9927H24.912C25.458 61.9927 25.8012 61.7124 25.8012 61.2764C25.8012 60.7937 25.4268 60.5757 24.8964 60.5757C24.6468 60.5757 24.4752 60.5912 24.3972 60.6224V61.9927Z" fill="#007AC2"/>
<path d="M27.5016 60.2954C27.8136 60.2487 28.1724 60.2175 28.578 60.2175C29.3112 60.2175 29.826 60.3732 30.1692 60.6847C30.5124 60.9961 30.7308 61.4165 30.7308 62.0238C30.7308 62.6311 30.528 63.1294 30.1692 63.472C29.7948 63.8146 29.202 64.017 28.4376 64.017C28.0788 64.017 27.7668 64.0014 27.5172 63.9703V60.2954H27.5016ZM28.0164 63.5966C28.1412 63.6121 28.3284 63.6277 28.5312 63.6277C29.6232 63.6277 30.2004 63.0516 30.2004 62.0394C30.2004 61.1518 29.6856 60.5912 28.6092 60.5912C28.344 60.5912 28.1412 60.6068 28.0164 60.638V63.5966Z" fill="#007AC2"/>
<path d="M32.3688 60.2488V63.986H31.854V60.2488H32.3688Z" fill="#007AC2"/>
<path d="M34.3656 62.8025L33.96 63.986H33.4296L34.7712 60.2488H35.3796L36.7212 63.986H36.1752L35.754 62.8025H34.3656ZM35.6448 62.4288L35.2548 61.3544C35.1612 61.1052 35.1144 60.8872 35.052 60.6692C34.9896 60.8872 34.9272 61.1208 34.8492 61.3388L34.4592 62.4132H35.6448V62.4288Z" fill="#007AC2"/>
<path d="M37.7664 63.986V60.2488H38.328L39.5916 62.1485C39.888 62.5845 40.1064 62.9738 40.2936 63.3631H40.3092C40.2624 62.8648 40.2468 62.4132 40.2468 61.8215V60.2643H40.7304V64.0015H40.2L38.952 62.1018C38.6712 61.6814 38.4216 61.2609 38.2188 60.8561H38.2032C38.2344 61.3232 38.25 61.7748 38.25 62.3977V64.0015H37.7664V63.986Z" fill="#007AC2"/>
<path d="M46.5336 63.8614C46.3464 63.9548 45.972 64.0327 45.4884 64.0327C44.3808 64.0327 43.554 63.3631 43.554 62.1329C43.554 60.965 44.3808 60.1709 45.6132 60.1709C46.0968 60.1709 46.4088 60.2643 46.5492 60.3422L46.4244 60.7315C46.2372 60.638 45.9564 60.5758 45.6288 60.5758C44.7084 60.5758 44.1 61.1363 44.1 62.1173C44.1 63.0361 44.6616 63.6278 45.6132 63.6278C45.9252 63.6278 46.2372 63.5655 46.44 63.4721L46.5336 63.8614Z" fill="#007AC2"/>
<path d="M47.6412 60.2954C47.8908 60.2487 48.2652 60.2175 48.6084 60.2175C49.1544 60.2175 49.4976 60.311 49.7472 60.529C49.95 60.7002 50.0592 60.9494 50.0592 61.2453C50.0592 61.7435 49.7316 62.0706 49.326 62.1951V62.2107C49.6224 62.3041 49.8096 62.5844 49.9032 62.9581C50.028 63.472 50.1216 63.8457 50.1996 63.9859H49.6692C49.6068 63.8769 49.5132 63.5654 49.404 63.0983C49.2948 62.5844 49.0764 62.382 48.624 62.3664H48.1404V63.9859H47.6256V60.2954H47.6412ZM48.1404 61.9927H48.6552C49.2012 61.9927 49.5444 61.7124 49.5444 61.2764C49.5444 60.7937 49.17 60.5757 48.6396 60.5757C48.39 60.5757 48.2184 60.5912 48.1404 60.6224V61.9927Z" fill="#007AC2"/>
<path d="M53.2884 62.2264H51.7596V63.5811H53.46V63.986H51.2448V60.2488H53.3664V60.6536H51.744V61.8371H53.2728V62.2264H53.2884Z" fill="#007AC2"/>
<path d="M54.5833 60.2954C54.8953 60.2487 55.2541 60.2175 55.6597 60.2175C56.3929 60.2175 56.9076 60.3732 57.2508 60.6847C57.594 60.9961 57.8124 61.4165 57.8124 62.0238C57.8124 62.6311 57.6096 63.1294 57.2508 63.472C56.8764 63.8146 56.2837 64.017 55.5193 64.017C55.1605 64.017 54.8484 64.0014 54.5988 63.9703V60.2954H54.5833ZM55.0981 63.5966C55.2229 63.6121 55.41 63.6277 55.6128 63.6277C56.7048 63.6277 57.2821 63.0516 57.2821 62.0394C57.2821 61.1518 56.7672 60.5912 55.6908 60.5912C55.4256 60.5912 55.2229 60.6068 55.0981 60.638V63.5966Z" fill="#007AC2"/>
<path d="M59.4504 60.2488V63.986H58.9356V60.2488H59.4504Z" fill="#007AC2"/>
<path d="M61.5564 60.6536H60.3552V60.2488H63.2724V60.6536H62.0712V63.986H61.5564V60.6536Z" fill="#007AC2"/>
<path d="M66.3924 60.2488V62.4599C66.3924 63.3008 66.7824 63.659 67.3128 63.659C67.89 63.659 68.2644 63.2852 68.2644 62.4599V60.2488H68.7792V62.4288C68.7792 63.5811 68.1396 64.0482 67.2972 64.0482C66.486 64.0482 65.8932 63.6122 65.8932 62.4444V60.2488H66.3924Z" fill="#007AC2"/>
<path d="M70.1364 63.986V60.2488H70.698L71.9616 62.1485C72.258 62.5845 72.4764 62.9738 72.6636 63.3631H72.6792C72.6324 62.8648 72.6168 62.4132 72.6168 61.8215V60.2643H73.1004V64.0015H72.5856L71.3376 62.1018C71.0568 61.6814 70.8072 61.2609 70.6044 60.8561H70.5888C70.62 61.3232 70.6356 61.7748 70.6356 62.3977V64.0015H70.1364V63.986Z" fill="#007AC2"/>
<path d="M74.9568 60.2488V63.986H74.442V60.2488H74.9568Z" fill="#007AC2"/>
<path d="M79.668 62.0707C79.668 63.3631 78.8412 64.0483 77.8428 64.0483C76.7976 64.0483 76.08 63.2853 76.08 62.1485C76.08 60.9651 76.86 60.1865 77.9052 60.1865C78.9816 60.1865 79.668 60.9651 79.668 62.0707ZM76.626 62.133C76.626 62.9271 77.0784 63.6434 77.874 63.6434C78.6852 63.6434 79.1376 62.9427 79.1376 62.0863C79.1376 61.3388 78.732 60.5602 77.8896 60.5602C77.0472 60.5758 76.626 61.3232 76.626 62.133Z" fill="#007AC2"/>
<path d="M80.8068 63.986V60.2488H81.3684L82.632 62.1485C82.9284 62.5845 83.1468 62.9738 83.334 63.3631H83.3496C83.3028 62.8648 83.2872 62.4132 83.2872 61.8215V60.2643H83.7708V64.0015H83.256L82.008 62.1018C81.7272 61.6814 81.4776 61.2609 81.2748 60.8561H81.2592C81.2904 61.3232 81.306 61.7748 81.306 62.3977V64.0015H80.8068V63.986Z" fill="#007AC2"/>
<path d="M11.34 58.0842H83.7552" stroke="#58595B" stroke-width="0.5" stroke-miterlimit="10"/>
<path d="M11.34 66.1191H83.7552" stroke="#58595B" stroke-width="0.5" stroke-miterlimit="10"/>
<path d="M73.1472 31.0364C66.7512 31.0364 61.5564 36.2373 61.5564 42.6528C61.5564 49.0683 66.7512 54.2692 73.1472 54.2692C79.5432 54.2692 84.738 49.0683 84.738 42.6528C84.738 36.2373 79.5432 31.0364 73.1472 31.0364ZM79.9488 40.3326L79.4652 39.1647C77.7492 39.1647 76.3296 41.2981 76.3296 43.2445C76.3296 44.6148 77.0316 47.0284 78.03 49.769C77.3124 49.8469 76.1112 48.9904 75.0036 47.9783C74.6292 48.5856 73.6776 49.7067 73.6776 49.7067L72.2424 47.7758C71.7432 48.4298 70.2612 49.7067 70.2612 49.7067L69.2004 47.8693C68.6856 48.5077 67.0632 49.8313 65.9868 49.9247C66.8916 47.1374 67.188 44.1788 67.2972 42.9954C67.4064 41.8275 67.422 40.0056 67.5156 38.0747C67.6092 36.1439 68.6388 35.3341 72.3204 35.3341C76.002 35.3341 76.2984 36.066 76.86 36.7823C80.1204 36.7823 80.292 37.81 80.292 38.6197C80.3076 39.4606 79.9488 40.3326 79.9488 40.3326Z" fill="#007AC2"/>
<path d="M24.522 35.6767H26.5032V42.4192V48.3675C26.5032 49.442 26.3004 50.4541 25.8948 51.404C25.4892 52.3539 24.9276 53.1792 24.2256 53.8799C23.5236 54.5806 22.6968 55.1412 21.7608 55.546C20.8248 55.9509 19.8108 56.1533 18.7344 56.1533C17.658 56.1533 16.6596 55.9509 15.708 55.546C14.772 55.1412 13.9452 54.5806 13.2276 53.8643C12.8532 53.4906 12.51 53.0546 12.2136 52.5874L13.6488 51.1393C13.914 51.6376 14.2416 52.0736 14.6316 52.4784C15.162 53.0079 15.7704 53.4283 16.488 53.7242C17.19 54.02 17.9388 54.1757 18.7344 54.1757C19.53 54.1757 20.2788 54.02 20.9808 53.7242C21.6828 53.4283 22.3068 53.0079 22.8372 52.4784C23.3676 51.949 23.7732 51.3261 24.0852 50.6254C24.3816 49.9247 24.5376 49.1617 24.5376 48.3675V47.9471C24.444 48.0405 24.3348 48.1495 24.2256 48.2585C23.5236 48.9593 22.7124 49.5043 21.7608 49.9091C20.8248 50.314 19.8108 50.5164 18.7344 50.5164C17.658 50.5164 16.6596 50.314 15.708 49.9091C14.772 49.5043 13.9452 48.9437 13.2432 48.243C12.5412 47.5422 11.9796 46.7014 11.574 45.7671C11.1684 44.8172 10.9656 43.8051 10.9656 42.7306C10.9656 41.6562 11.1684 40.644 11.574 39.6942C11.9796 38.7443 12.5412 37.919 13.2432 37.2183C13.9452 36.5176 14.772 35.957 15.708 35.5521C16.644 35.1473 17.658 34.9448 18.7344 34.9448C19.8108 34.9448 20.8092 35.1473 21.7608 35.5521C22.6968 35.957 23.5236 36.5176 24.2256 37.2338C24.3348 37.3273 24.444 37.4363 24.5376 37.5453V35.6767H24.522ZM12.9468 42.7306C12.9468 43.5248 13.1028 44.2722 13.3992 44.9885C13.6956 45.6892 14.1168 46.3121 14.6472 46.8415C15.1776 47.371 15.786 47.7914 16.5036 48.0872C17.2056 48.3831 17.9544 48.5388 18.75 48.5388C19.5456 48.5388 20.2944 48.3831 20.9964 48.0872C21.6984 47.7914 22.3224 47.371 22.8528 46.8415C23.3832 46.3121 23.7888 45.6892 24.1008 44.9885C24.3972 44.2878 24.5532 43.4469 24.5532 42.5126C24.5532 41.7808 24.4284 41.0956 24.1632 40.4727C23.82 39.772 23.3988 39.1647 22.8684 38.6353C22.338 38.1059 21.7296 37.6854 21.012 37.3896C20.31 37.0937 19.5612 36.938 18.7656 36.938C17.97 36.938 17.2212 37.0937 16.5192 37.3896C15.8172 37.6854 15.1932 38.1059 14.6628 38.6353C14.1324 39.1647 13.7268 39.7876 13.4148 40.4883C13.0872 41.189 12.9468 41.9365 12.9468 42.7306Z" fill="#007AC2"/>
<path d="M30.2316 42.7306C30.2316 43.5248 30.3876 44.2722 30.684 44.9885C30.9804 45.6892 31.4016 46.3121 31.932 46.8415C32.4624 47.371 33.0708 47.7914 33.7884 48.0872C34.4904 48.3831 35.2392 48.5388 36.0348 48.5388C36.8304 48.5388 37.5792 48.3831 38.2812 48.0872C38.9832 47.7914 39.6072 47.371 40.1376 46.8415C40.512 46.4678 40.8396 46.0318 41.1048 45.5335H43.2732L43.1952 45.7671C42.8052 46.7169 42.2436 47.5422 41.5416 48.243C40.8396 48.9437 40.0128 49.5043 39.0768 49.9091C38.1408 50.314 37.1268 50.5164 36.0504 50.5164C34.974 50.5164 33.9756 50.314 33.024 49.9091C32.088 49.5043 31.2612 48.9437 30.5592 48.243C29.8572 47.5422 29.2956 46.7014 28.89 45.7671C28.4844 44.8172 28.2816 43.8051 28.2816 42.7306C28.2816 41.6562 28.4844 40.644 28.89 39.6942C29.2956 38.7443 29.8572 37.919 30.5592 37.2183C31.2612 36.5176 32.088 35.957 33.024 35.5521C33.96 35.1473 34.974 34.9448 36.0504 34.9448C37.1268 34.9448 38.1252 35.1473 39.0768 35.5521C40.0128 35.957 40.8396 36.5176 41.5416 37.2183C42.2436 37.919 42.8052 38.7599 43.1952 39.6942L43.2732 39.8966H41.0736C40.824 39.4294 40.512 38.9934 40.1376 38.6197C39.6072 38.0903 38.9988 37.6699 38.2812 37.374C37.5792 37.0781 36.8304 36.9224 36.0348 36.9224C35.2392 36.9224 34.4904 37.0781 33.7884 37.374C33.0864 37.6699 32.4624 38.0903 31.932 38.6197C31.4016 39.1492 30.996 39.772 30.684 40.4727C30.3876 41.189 30.2316 41.9365 30.2316 42.7306Z" fill="#007AC2"/>
<path d="M55.5348 43.4625V35.6767H57.516V43.4625C57.516 44.3345 57.3444 45.1598 57.0168 45.9228C56.6892 46.7014 56.2368 47.371 55.6596 47.9471C55.0824 48.5233 54.4116 48.9748 53.6472 49.3174C52.8672 49.66 52.056 49.8313 51.1824 49.8313C50.3088 49.8313 49.4976 49.66 48.7176 49.3174C47.9376 48.9748 47.2668 48.5233 46.7052 47.9471C46.128 47.371 45.6756 46.7014 45.3324 45.9228C44.9892 45.1442 44.8176 44.3345 44.8176 43.4625V43.4314L44.7864 35.6611H46.8144L46.8456 43.4314V43.4625C46.8456 44.0698 46.9548 44.6304 47.1888 45.1598C47.4072 45.6892 47.7192 46.1408 48.1248 46.5301C48.5148 46.9194 48.9828 47.2308 49.4976 47.4488C50.0124 47.6824 50.574 47.7914 51.1824 47.7914C51.7908 47.7914 52.3524 47.6824 52.8828 47.4488C53.4132 47.2153 53.8656 46.9194 54.2712 46.5301C54.6612 46.1408 54.9732 45.6892 55.2072 45.1598C55.4256 44.6304 55.5348 44.0698 55.5348 43.4625Z" fill="#007AC2"/>
</g>
<defs>
<clipPath id="clip0_1_3161">
<rect width="78" height="41" fill="white" transform="translate(9 28)"/>
</clipPath>
</defs>
</svg>
