<svg width="96" height="96" viewBox="0 0 96 96" fill="none" xmlns="http://www.w3.org/2000/svg">
<circle cx="48" cy="48" r="47" fill="white" stroke="white" stroke-width="2"/>
<g clip-path="url(#clip0_1_246)">
<mask id="mask0_1_246" style="mask-type:luminance" maskUnits="userSpaceOnUse" x="10" y="37" width="76" height="23">
<path d="M86 37H10V59.9333H86V37Z" fill="white"/>
</mask>
<g mask="url(#mask0_1_246)">
<path d="M85.0757 37.6304C85.2296 37.6304 85.384 37.6736 85.5261 37.754C85.6681 37.8343 85.7928 37.9517 85.8697 38.1062C85.9528 38.2607 85.9943 38.4214 85.9943 38.5882C85.9943 38.7613 85.9528 38.9158 85.8697 39.0703C85.7928 39.2248 85.6743 39.3484 85.5261 39.4287C85.3778 39.5152 85.2296 39.5523 85.0701 39.5523C84.91 39.5523 84.7557 39.5152 84.6018 39.4287C84.4536 39.3422 84.3469 39.2248 84.2643 39.0703C84.1868 38.9158 84.1396 38.7613 84.1396 38.5882C84.1396 38.4276 84.1812 38.2669 84.2643 38.1062C84.3469 37.9517 84.4597 37.8343 84.6079 37.754C84.7736 37.6736 84.9218 37.6304 85.0757 37.6304ZM85.0757 37.791C84.9393 37.791 84.8208 37.8281 84.6905 37.9023C84.5664 37.9703 84.4654 38.0691 84.4002 38.1927C84.3351 38.3163 84.2997 38.4585 84.2997 38.5944C84.2997 38.7366 84.3351 38.8725 84.4002 38.9961C84.4654 39.1259 84.5664 39.2248 84.6905 39.2927C84.8151 39.3607 84.9393 39.3978 85.0757 39.3978C85.2121 39.3978 85.3306 39.3607 85.4609 39.2927C85.5794 39.2186 85.6743 39.1259 85.7451 38.9961C85.8102 38.8725 85.8461 38.7304 85.8461 38.5944C85.8461 38.4646 85.8102 38.3225 85.7451 38.1927C85.6743 38.0691 85.5733 37.9703 85.4548 37.9023C85.3306 37.8219 85.2121 37.791 85.0757 37.791ZM84.6731 39.1259V38.0939H85.0106C85.1291 38.0939 85.2178 38.1062 85.2655 38.1248C85.3188 38.1371 85.3604 38.1742 85.3896 38.2236C85.4194 38.2669 85.4373 38.3163 85.4373 38.3781C85.4373 38.4523 85.4076 38.5203 85.3604 38.5759C85.3127 38.6377 85.2419 38.6624 85.1527 38.6686C85.1885 38.6871 85.2178 38.7057 85.2357 38.7242C85.2773 38.7675 85.3306 38.8354 85.384 38.9281L85.5025 39.1321H85.3127L85.2239 38.9714C85.1527 38.8416 85.0937 38.7613 85.0578 38.7304C85.0285 38.7057 84.987 38.6933 84.9275 38.6933H84.8387V39.1321L84.6731 39.1259ZM84.8331 38.5388H85.0224C85.1173 38.5388 85.1763 38.5264 85.2178 38.4955C85.2537 38.4708 85.2655 38.4276 85.2655 38.3781C85.2655 38.3472 85.2593 38.3225 85.2419 38.304C85.2296 38.2793 85.206 38.2545 85.1706 38.2484C85.1409 38.236 85.0875 38.2236 85.0106 38.2236H84.8269V38.5388H84.8331Z" fill="#222222"/>
<path d="M33.0522 47.9261H32.8982C32.8982 47.9261 32.2879 48.8779 30.9194 48.8779C28.7866 48.8779 27.572 47.129 27.572 44.7497C27.572 42.3705 28.7925 40.6216 30.9194 40.6216C32.2879 40.6216 32.8982 41.5733 32.8982 41.5733H33.0522L33.2063 40.9368L33.3603 40.7761H34.4267L34.5807 40.9368V47.7655C34.5807 50.9419 32.9041 52.0543 31.0794 52.0543C29.2546 52.0543 28.1882 51.1026 28.0342 49.8295L28.1882 49.6689H29.4086L29.5508 49.8295C29.853 50.4661 30.3092 50.6206 31.0734 50.6206C32.442 50.6267 33.0522 49.6689 33.0522 47.9261ZM31.0734 42.0491C29.853 42.0491 29.0946 43.0008 29.0946 44.7497C29.0946 46.4986 29.853 47.4503 31.0734 47.4503C32.2939 47.4503 33.0522 46.6593 33.0522 44.7497C33.0522 42.8463 32.2879 42.0491 31.0734 42.0491Z" fill="#222222"/>
<path d="M40.2505 42.2096H39.4922C38.2717 42.2096 37.5134 42.6854 37.5134 44.5889V48.5563L37.3593 48.717H36.1389L35.9849 48.5563V40.9366L36.1389 40.7759H37.2053L37.3593 40.9366L37.5134 41.5731H37.6674C38.1236 41.0972 38.5798 40.7821 39.6462 40.7821H40.2564L40.4105 40.9427V42.0551L40.2505 42.2096Z" fill="#222222"/>
<path d="M40.6296 44.7497C40.6296 42.525 41.696 40.6216 44.1311 40.6216C46.566 40.6216 47.6324 42.525 47.6324 44.7497V45.2256L47.4784 45.3863H42.4544L42.3004 45.5469C42.3004 45.8621 42.4544 47.4503 44.2791 47.4503C44.8894 47.4503 45.4996 47.2896 45.8018 46.4986L45.9558 46.3379H47.1763L47.3303 46.4986C47.1763 47.7717 46.1099 48.8779 44.2851 48.8779C41.8501 48.8779 40.6296 47.129 40.6296 44.7497ZM45.9558 43.9525C45.9558 43.4767 45.8018 42.0491 44.1311 42.0491C42.4544 42.0491 42.3063 43.4767 42.3063 43.9525L42.4603 44.1132H45.8077L45.9558 43.9525Z" fill="#222222"/>
<path d="M48.397 44.7497C48.397 42.525 49.4634 40.6216 51.8984 40.6216C54.3334 40.6216 55.3998 42.525 55.3998 44.7497V45.2256L55.2458 45.3863H50.2217L50.0677 45.5469C50.0677 45.8621 50.2217 47.4503 52.0465 47.4503C52.6567 47.4503 53.267 47.2896 53.5691 46.4986L53.7232 46.3379H54.9436L55.0976 46.4986C54.9436 47.7717 53.8772 48.8779 52.0524 48.8779C49.6115 48.8779 48.397 47.129 48.397 44.7497ZM53.7232 43.9525C53.7232 43.4767 53.5691 42.0491 51.8984 42.0491C50.2277 42.0491 50.0736 43.4767 50.0736 43.9525L50.2277 44.1132H53.575L53.7232 43.9525Z" fill="#222222"/>
<path d="M63.007 48.7171H61.7863L61.6324 48.5565V43.9525C61.6324 43.1615 61.4785 42.0491 60.1101 42.0491C58.7411 42.0491 58.1312 42.8402 58.1312 44.7497V48.5627L57.9769 48.7234H56.7566L56.6025 48.5627V40.9368L56.7566 40.7761H57.823L57.9769 40.9368L58.1312 41.5733H58.2851C58.2851 41.5733 58.8955 40.6216 60.2639 40.6216C62.3967 40.6216 63.1553 42.0491 63.1553 43.9587V48.5627L63.007 48.7171Z" fill="#222222"/>
<path d="M71.0761 48.7171H70.0097L69.8554 48.5565L69.7015 47.92H69.5476C69.5476 47.92 68.9372 48.8716 67.5687 48.8716C65.436 48.8716 64.2214 47.1227 64.2214 44.7435C64.2214 42.3643 65.4417 40.6154 67.5687 40.6154C68.9372 40.6154 69.5476 41.5671 69.5476 41.5671H69.7015V37.7603L69.8554 37.5996H71.0761L71.23 37.7603V48.5565L71.0761 48.7171ZM67.7226 42.0491C66.5024 42.0491 65.7438 43.0008 65.7438 44.7497C65.7438 46.4986 66.5024 47.4503 67.7226 47.4503C68.9433 47.4503 69.7015 46.6593 69.7015 44.7497C69.7015 42.8463 68.9433 42.0491 67.7226 42.0491Z" fill="#222222"/>
<path d="M76.0997 40.6216C78.3806 40.6216 79.7552 42.2098 79.7552 44.7497C79.7552 47.2896 78.3867 48.8779 76.0997 48.8779C73.8187 48.8779 72.4446 47.2896 72.4446 44.7497C72.4446 42.2098 73.8131 40.6216 76.0997 40.6216ZM76.0997 47.4503C77.4686 47.4503 78.2329 46.4986 78.2329 44.7497C78.2329 43.0008 77.4743 42.0491 76.0997 42.0491C74.7312 42.0491 73.9669 43.0008 73.9669 44.7497C73.9669 46.4924 74.7255 47.4503 76.0997 47.4503Z" fill="#222222"/>
<path d="M85.0757 48.717H83.855C82.7886 48.717 81.7223 48.0805 81.7223 46.653V42.3641L81.5684 42.2034H80.502L80.3477 42.0428V40.9304L80.502 40.7697H81.5684L81.7223 40.6091V39.1939L81.8762 39.0332H83.0969L83.2508 39.1939V40.6214L83.4051 40.7821H85.0814L85.2357 40.9428V42.0552L85.0814 42.2158H83.4051L83.2508 42.3765V46.6653C83.2508 47.1411 83.5529 47.3018 83.8611 47.3018H85.0814L85.2357 47.4625V48.5749L85.0757 48.717Z" fill="#222222"/>
<path d="M67.3376 56.5221C67.3376 58.4873 66.4548 59.9334 64.6955 59.9334C63.564 59.9334 62.9357 59.4081 62.6813 58.8828H62.5566L62.4325 59.6676L62.3079 59.7974H61.9288L61.8042 59.6676V50.7501L61.9288 50.6204H62.4325L62.5566 50.7501V54.1614H62.6813C62.93 53.6361 63.564 53.1108 64.6955 53.1108C66.4548 53.117 67.3376 54.5569 67.3376 56.5221ZM62.5566 56.5221C62.5566 58.3575 63.3091 59.2783 64.5709 59.2783C65.827 59.2783 66.5856 58.3575 66.5856 56.5221C66.5856 54.6867 65.8331 53.7659 64.5709 53.7659C63.3091 53.7721 62.5566 54.6867 62.5566 56.5221Z" fill="#222222"/>
<path d="M72.8653 59.8035H72.4862L72.3616 59.6738L72.2374 59.0187H72.1128C71.864 59.4142 71.3604 59.9395 70.0986 59.9395C68.7183 59.9395 67.9597 59.1546 67.9597 57.9743C67.9597 56.5344 68.9671 55.8732 70.6023 55.8732C71.3547 55.8732 72.1128 56.003 72.1128 56.003L72.2374 55.8732V55.4777C72.2374 54.2973 71.8584 53.772 70.6023 53.772C69.3461 53.772 68.9671 54.4271 68.9671 55.0821L68.8425 55.2119H68.3388L68.2146 55.0821C68.2146 54.0316 68.9671 53.1169 70.6023 53.1169C72.4862 53.1169 72.9899 54.0377 72.9899 55.4777V59.6738L72.8653 59.8035ZM72.2374 56.7878L72.1128 56.658C72.1128 56.658 71.485 56.5282 70.7325 56.5282C69.2215 56.5282 68.7183 57.0535 68.7183 57.9681C68.7183 58.753 69.0974 59.2783 70.2289 59.2783C71.6091 59.2783 72.2431 58.2277 72.2431 57.3131V56.7878H72.2374Z" fill="#222222"/>
<path d="M79.2819 59.8036H78.7782L78.6536 59.6738V55.7372C78.6536 54.4271 78.0257 53.7721 77.0184 53.7721C75.6381 53.7721 75.0042 54.6928 75.0042 56.1327V59.6738L74.88 59.8036H74.3763L74.2517 59.6738V53.3766L74.3763 53.2468H74.7554L74.88 53.3766L75.0042 54.1614H75.1288C75.5078 53.5063 76.2603 53.1108 77.143 53.1108C78.5233 53.1108 79.406 54.0316 79.406 55.7311V59.6676L79.2819 59.8036Z" fill="#222222"/>
<path d="M85.3127 59.8036H85.0639L84.8152 59.6738L82.5517 56.6581H82.4275L81.5448 57.5788L81.4202 57.8384V59.6738L81.2956 59.8036H80.7923L80.6677 59.6738V50.7501L80.7923 50.6204H81.2956L81.4202 50.7501V56.5221H81.5448L84.5602 53.3766L84.809 53.2468H85.0578L85.1824 53.3766V53.7721L83.0436 56.003V56.1328L85.4312 59.2783V59.6738L85.3127 59.8036Z" fill="#222222"/>
<path d="M17.4531 52.5485C21.5693 52.5485 24.9061 49.0678 24.9061 44.7742C24.9061 40.4806 21.5693 37 17.4531 37C13.3369 37 10 40.4806 10 44.7742C10 49.0678 13.3369 52.5485 17.4531 52.5485Z" fill="url(#paint0_radial_1_246)"/>
</g>
</g>
<defs>
<radialGradient id="paint0_radial_1_246" cx="0" cy="0" r="1" gradientUnits="userSpaceOnUse" gradientTransform="translate(19.2166 42.5253) scale(9.82198 10.2452)">
<stop stop-color="#8CFF40"/>
<stop offset="0.1742" stop-color="#8CFF40"/>
<stop offset="0.2498" stop-color="#85FB3F"/>
<stop offset="0.3578" stop-color="#72F03A"/>
<stop offset="0.4853" stop-color="#54DE34"/>
<stop offset="0.6264" stop-color="#29C52A"/>
<stop offset="0.744" stop-color="#00AD21"/>
<stop offset="0.8471" stop-color="#02AE20"/>
<stop offset="0.898" stop-color="#0AB31C"/>
<stop offset="0.9375" stop-color="#17BC15"/>
<stop offset="0.9708" stop-color="#2AC80C"/>
<stop offset="1" stop-color="#41D700"/>
</radialGradient>
<clipPath id="clip0_1_246">
<rect width="76" height="23" fill="white" transform="translate(10 37)"/>
</clipPath>
</defs>
</svg>
