<svg width="96" height="96" viewBox="0 0 96 96" fill="none" xmlns="http://www.w3.org/2000/svg">
<circle cx="48" cy="48" r="47" fill="white" stroke="white" stroke-width="2"/>
<g clip-path="url(#clip0_1_8909)">
<path fill-rule="evenodd" clip-rule="evenodd" d="M19 19H77V77H19V19Z" fill="white"/>
<path fill-rule="evenodd" clip-rule="evenodd" d="M24.9548 23.2527H72.0081V72.4836H24.9548V23.2527Z" fill="#2C153B"/>
<path fill-rule="evenodd" clip-rule="evenodd" d="M71.1499 72.4834C71.1499 66.5443 66.3325 61.6604 60.3269 61.6604C54.3213 61.6604 49.438 66.544 49.438 72.4834H56.3668C56.3668 68.5242 59.6008 65.2242 63.6266 65.2242C67.6517 65.2242 70.9516 68.5242 70.9516 72.4834H71.1499Z" fill="#F6D33C"/>
<path fill-rule="evenodd" clip-rule="evenodd" d="M71.876 72.4834C71.8101 64.3005 65.1446 57.5691 56.8957 57.5691C48.6463 57.5691 41.9811 64.3005 41.9811 72.4834H49.0423C49.0423 66.2804 54.1235 61.2644 60.3272 61.2644C66.5967 61.2644 71.6121 66.2804 71.6121 72.4834H71.876Z" fill="#CC2131"/>
<path fill-rule="evenodd" clip-rule="evenodd" d="M57.0272 72.4836C57.0272 70.7017 58.5453 69.2502 60.3272 69.2502C62.175 69.2502 63.6271 70.7017 63.6271 72.4836H57.0272ZM39.6052 34.8015H40.3972C40.4631 34.8674 40.4631 35.2634 40.8591 35.4614C41.1229 35.5935 41.5851 35.5935 41.7169 35.2634C41.7828 35.1313 41.7828 34.9333 41.5851 34.8015C40.9912 34.2734 40.2651 34.2075 39.8032 33.5477C39.5393 33.2176 39.5393 32.6895 39.7373 32.3597C40.3972 31.3701 42.1132 31.6998 42.9711 32.0296V32.8878H42.1132C42.0473 32.6239 41.9814 32.4259 41.7172 32.2279C41.5192 32.1617 41.1232 32.0958 40.9912 32.3597C40.7273 32.6898 41.0573 32.8878 41.1229 32.9537C41.9149 33.4156 43.4988 33.8774 43.1029 35.1313C42.9708 35.6591 42.443 35.9233 41.849 35.9891C41.0573 36.1212 40.2651 35.9891 39.6052 35.6591V34.8015ZM46.0724 35.0654L46.1383 35.1313C45.8085 35.6591 45.2143 36.1215 44.5547 35.9891C44.2905 35.9891 44.0266 35.8574 43.8948 35.5273C43.763 35.2634 43.763 34.8674 43.763 34.4055V32.2935H43.1688V32.0955C43.1688 32.0296 43.235 32.0296 43.3005 32.0296C44.3567 31.7657 44.7527 30.9738 44.9504 30.5778H45.1484V31.7657H46.0062V32.2935H45.1484V34.7353C45.1484 34.8674 45.1484 34.9992 45.2143 35.1313C45.3467 35.2634 45.6767 35.3296 46.0724 35.0654ZM33.2698 30.3798C33.2698 30.0497 33.6658 29.7199 34.128 29.7199C34.5898 29.7199 34.9199 30.0497 34.9199 30.3798C34.9199 30.7099 34.5898 30.9738 34.128 30.9738C33.6658 30.9738 33.2698 30.7099 33.2698 30.3798ZM33.4678 32.8878C33.4678 32.5577 33.4019 32.1617 32.9397 32.0958V31.964L34.8534 31.766V34.9998C34.8534 35.5276 34.9855 35.7918 35.3815 35.8577V35.9239H32.9397V35.8577C33.3357 35.7918 33.4678 35.5276 33.4678 34.9998V32.8878ZM37.4932 33.1517V34.9995C37.5591 35.5273 37.625 35.7915 38.0872 35.8574V35.9236H35.5795V35.8574C35.9755 35.7915 36.1076 35.5273 36.1076 34.9995V32.8878C36.1735 32.4918 36.1076 32.1617 35.5795 32.0296V31.9637L37.4932 31.7657V32.2935C37.8233 32.0955 38.1531 31.8978 38.417 31.8316C38.615 31.7657 39.0768 31.6998 39.3407 31.6998C39.3407 31.7657 39.4069 31.7657 39.4069 31.8316V32.7557H38.615C38.615 32.7557 38.4832 32.4918 38.0869 32.5577C37.9551 32.5577 37.4929 32.6239 37.4929 33.0855L37.4932 33.1517ZM32.0821 33.7456H31.8183C31.8183 33.7456 31.8183 33.4818 31.7524 33.2838C31.6862 33.1517 31.5544 32.9537 31.2902 32.9537H30.2343V34.9995C30.2343 35.5273 30.4982 35.7915 30.8942 35.8574V35.9236H27.7922V35.8574C28.2541 35.7915 28.4521 35.5273 28.5183 34.9995V30.5119C28.4521 30.0497 28.2541 29.7858 27.7922 29.7199V29.5881H32.8738L32.9397 31.04H32.6758C32.6099 30.644 32.4781 30.248 32.148 30.1159C32.0821 30.1159 32.0159 30.1159 31.8842 30.05H30.2343V32.4918H31.2902C31.5541 32.4918 31.6862 32.2935 31.7524 32.1617C31.8183 32.0299 31.8183 31.6998 31.8183 31.6998H32.0821V33.7456ZM35.7116 40.9389C36.5033 40.5429 37.4932 40.4112 38.2852 40.675C38.6812 40.7409 38.945 41.0051 39.0771 41.2031C39.2089 41.467 39.2089 41.5988 39.2089 41.9289V43.7108C39.2089 43.8426 39.2089 44.0406 39.3407 44.1065C39.4728 44.1727 39.6049 44.1065 39.8029 43.9747V44.0406C39.4728 44.6346 38.8129 44.9647 38.219 44.7667C37.9551 44.6349 37.823 44.2386 37.823 44.1727L37.0972 44.7667C36.7012 44.8329 35.9093 44.8329 35.5792 44.5687C35.3812 44.5028 35.2494 44.3707 35.1835 44.173C35.1173 44.0409 35.1173 43.9091 35.1173 43.8429C35.1173 43.1168 35.7113 42.7209 36.5029 42.5229C37.229 42.259 37.823 42.1272 37.823 42.1272V41.7312C37.823 41.3355 37.6909 41.0054 37.2952 41.0054C36.8333 40.9392 36.635 41.3355 36.5691 41.7312C36.5691 41.7971 36.5691 41.7971 36.4371 41.7971H35.4471V41.071C35.6457 40.9389 35.7116 40.9389 35.7116 40.9389ZM37.8233 42.5888C37.3614 42.6547 36.7012 42.8526 36.5694 43.3148C36.5032 43.5128 36.5033 43.7108 36.6353 43.8429C36.8995 44.173 37.5594 44.0409 37.7574 43.777C37.8233 43.6449 37.8233 43.579 37.8233 43.4469V42.5888ZM46.8644 40.9389C47.6564 40.5429 48.646 40.4112 49.4383 40.675C49.8337 40.7409 50.0981 41.0051 50.2299 41.2031C50.2964 41.467 50.2964 41.5988 50.2964 41.9289V43.7108C50.2964 43.8426 50.2964 44.0406 50.4282 44.1065C50.6262 44.1727 50.758 44.1065 50.8901 43.9747L50.956 44.0406C50.5606 44.6346 49.9664 44.9647 49.3727 44.7667C49.0423 44.6349 48.9767 44.2386 48.9767 44.1727L48.2509 44.7667C47.7884 44.8329 47.0627 44.8329 46.6667 44.5687C46.5349 44.5028 46.4028 44.3707 46.271 44.173C46.2048 44.0409 46.2048 43.9091 46.2048 43.8429C46.271 43.1168 46.8647 42.7209 47.6567 42.5229C48.3168 42.259 48.9767 42.1272 48.9767 42.1272V41.7312C48.9767 41.3355 48.7787 41.0054 48.4483 41.0054C47.9864 40.9392 47.7885 41.3355 47.7226 41.7312C47.6564 41.7971 47.6564 41.7971 47.5905 41.7971H46.6005V41.071C46.7326 40.9389 46.8644 40.9389 46.8644 40.9389ZM48.9764 42.5888C48.5145 42.6547 47.7881 42.8526 47.6564 43.3148C47.5905 43.5128 47.6564 43.7108 47.7226 43.8429C48.0523 44.173 48.7122 44.0409 48.9102 43.777C48.9767 43.6449 48.9767 43.579 48.9767 43.4469L48.9764 42.5888ZM51.2861 39.157C51.2861 38.8269 51.6821 38.563 52.1443 38.563C52.6064 38.563 53.0024 38.8269 53.0024 39.157C53.0024 39.4868 52.6064 39.8169 52.1443 39.8169C51.6821 39.8169 51.2861 39.4868 51.2861 39.157Z" fill="white"/>
<path fill-rule="evenodd" clip-rule="evenodd" d="M51.4841 41.7305C51.4841 41.3348 51.4841 41.0047 50.9557 40.8726V40.8067L52.8697 40.6088V43.8425C52.8697 44.3044 53.0018 44.5683 53.3975 44.6345V44.7663H50.9557V44.6345C51.3517 44.5683 51.4841 44.3044 51.4841 43.8425V41.7305ZM53.9259 39.1569C53.9259 38.8268 54.3213 38.5629 54.784 38.5629C55.2453 38.5629 55.6416 38.8268 55.6416 39.1569C55.6416 39.4867 55.2456 39.8168 54.784 39.8168C54.3216 39.8168 53.9259 39.4867 53.9259 39.1569ZM54.1236 41.7305C54.1236 41.3348 54.1236 41.0047 53.5958 40.8726V40.8067L55.5098 40.6088V43.8425C55.5098 44.3044 55.6416 44.5683 56.0376 44.6345V44.7663H53.5958V44.6345C53.9918 44.5683 54.1236 44.3044 54.1236 43.8425V41.7305ZM64.287 42.1927V43.8425C64.287 44.3044 64.1549 44.5683 63.7586 44.6345V44.7663H66.2004V44.6345C65.8045 44.5683 65.6727 44.3044 65.6727 43.8425V41.9288C65.6727 40.7408 65.0128 40.5429 64.6165 40.4767C64.2867 40.4108 63.8907 40.4767 63.7583 40.4767L62.7022 41.1368V40.6088L60.7888 40.8067V40.8726C61.3165 41.0047 61.3165 41.3348 61.3165 41.7305V43.8425C61.3165 44.3044 61.1848 44.5683 60.7888 44.6345V44.7663H63.2306V44.6345C62.8346 44.5683 62.7022 44.3044 62.7022 43.8425V41.5987C62.7687 41.5328 63.1647 41.4007 63.3627 41.3348C64.3529 41.1368 64.287 41.9288 64.287 42.1927ZM30.234 41.7967V43.8425C30.234 44.3044 30.4979 44.5683 30.8939 44.6345V44.7663H27.7922V44.6345C28.2541 44.5683 28.4521 44.3044 28.5183 43.8425V39.3549C28.4521 38.8268 28.2541 38.5629 27.7922 38.497V38.4312H30.8939V38.497C30.4979 38.5629 30.234 38.8268 30.234 39.3549V41.203H32.6755V39.3549C32.6755 38.8268 32.4116 38.5629 32.0156 38.497V38.4312H35.0514V38.497C34.6554 38.5629 34.3915 38.8268 34.3915 39.3549V43.8425C34.3915 44.3044 34.6554 44.5683 35.0514 44.6345V44.7663H32.0159V44.6345C32.4119 44.5683 32.6758 44.3044 32.6758 43.8425V41.7967H30.234ZM44.8186 44.7663C44.8186 44.7663 45.5443 42.5884 46.0065 41.4666C46.0724 41.2686 46.2704 40.8067 46.5343 40.6746V40.6088H44.9504V40.6746C45.6105 40.8067 45.3464 41.5328 45.2143 42.1268L44.6865 43.5786L43.8945 41.6649C43.7627 41.3351 43.4985 40.8729 43.9604 40.675V40.6091H41.9805C42.1123 40.9391 42.3762 41.599 42.6404 42.1271L42.0464 43.5789L41.2544 41.6652C41.1226 41.3354 40.8588 40.8732 41.3865 40.6753V40.6094H39.143V40.6753C39.4069 40.7412 39.6049 41.2692 39.737 41.4672C40.1989 42.589 41.057 44.7669 41.057 44.7669H42.1788L42.9049 42.8532C43.3005 43.8431 43.6968 44.7669 43.6968 44.7669H44.8186V44.7663Z" fill="white"/>
<path fill-rule="evenodd" clip-rule="evenodd" d="M56.7633 40.9388C57.5556 40.5428 58.5453 40.411 59.3369 40.6749C59.7329 40.7408 59.9974 41.005 60.1292 41.203C60.1951 41.4669 60.2613 41.5987 60.2613 41.9288V43.7107C60.2613 43.8425 60.2613 44.0405 60.3931 44.1064C60.5252 44.1726 60.6576 44.1064 60.7891 43.9746L60.855 44.0405C60.5252 44.6344 59.8653 44.9645 59.271 44.7665C59.0071 44.6348 58.8757 44.2385 58.8757 44.1726L58.1493 44.7665C57.7539 44.8327 56.9616 44.8327 56.6319 44.5686C56.4339 44.5027 56.3015 44.3706 56.2359 44.1729C56.1694 44.0408 56.1038 43.909 56.1038 43.8428C56.1697 43.1167 56.7636 42.7207 57.5559 42.5227C58.2158 42.2589 58.876 42.1271 58.876 42.1271V41.7311C58.876 41.3354 58.7439 41.0053 58.3476 41.0053C57.8857 40.9391 57.6877 41.3354 57.6218 41.7311C57.6218 41.797 57.6218 41.797 57.4897 41.797H56.5001V41.0709C56.6975 40.9388 56.7633 40.9388 56.7633 40.9388ZM58.8754 42.5886C58.4129 42.6545 57.7533 42.8525 57.5553 43.3147C57.5553 43.5127 57.5553 43.7107 57.6871 43.8428C57.9516 44.1729 58.6109 44.0408 58.8092 43.7769C58.8757 43.6448 58.8757 43.5789 58.8757 43.4468L58.8754 42.5886ZM42.5748 51.0358V52.6197C42.5748 53.0816 42.443 53.412 42.047 53.4779V53.5438H44.5547V53.4779C44.0925 53.412 43.9607 53.0819 43.9607 52.6197V50.7063C43.9607 49.5842 43.3005 49.3862 42.9049 49.32C42.5748 49.2541 42.1788 49.2541 42.047 49.32L40.9911 49.9143V49.3865L39.0774 49.5845V49.7163C39.6055 49.7822 39.6055 50.1782 39.6055 50.5086V52.6203C39.6055 53.0822 39.4734 53.4126 39.0774 53.4785V53.5444H41.5851V53.4785C41.1229 53.4126 40.9911 53.0825 40.9911 52.6203V50.443C41.0573 50.3765 41.453 50.1785 41.651 50.1785C42.7069 49.9796 42.5748 50.7719 42.5748 51.0358ZM47.1945 50.3756C46.9306 50.6395 46.8644 50.706 46.4684 51.0355V46.9441L44.5547 47.1421V47.208C45.0825 47.3401 45.0825 47.6702 45.0825 48.0662V52.6197C45.0825 53.0816 44.9507 53.412 44.5547 53.4779V53.5438H46.9962V53.4779C46.5343 53.412 46.4684 53.0819 46.4684 52.6197V51.4976C46.7323 51.828 47.1945 52.4879 47.3925 52.9492C47.5905 53.3452 47.3925 53.4117 47.2607 53.4776V53.5435H49.5701V53.4776C49.1747 53.2796 48.9764 52.9492 48.7784 52.6194C48.3165 52.0251 47.9864 51.4973 47.5246 50.8375C47.8546 50.5736 48.1185 50.3097 48.4483 50.0458C48.7122 49.7813 48.9102 49.5839 49.2406 49.5174V49.3856H47.0627V49.5174C47.5905 49.6498 47.5905 50.0461 47.1945 50.3756ZM30.234 53.5435H27.7922V53.4776C28.2541 53.4117 28.4521 53.0816 28.5183 52.6194V48.1318C28.4521 47.6699 28.2541 47.3401 27.7922 47.2739V47.208H31.5538C32.0156 47.208 32.2798 47.208 32.8076 47.3401C33.0637 47.4019 33.2977 47.5331 33.484 47.7194C33.6703 47.9056 33.8016 48.1396 33.8635 48.3957C33.9297 48.7261 33.8635 49.4518 33.3354 49.8478C33.1374 50.0458 32.7414 50.1776 32.4775 50.2438C33.2692 50.3097 34.0615 50.7057 34.1933 51.5638C34.2591 52.1575 34.0615 52.7515 33.5334 53.1472C33.1374 53.4117 32.6752 53.5432 32.1477 53.5432L30.234 53.5435ZM30.234 49.9796C30.6959 50.0461 31.0919 50.0461 31.5538 49.9137C32.1477 49.7157 32.4116 48.99 32.1477 48.3957C31.8839 47.6699 31.0916 47.7358 30.234 47.7358V49.9796ZM30.234 50.5739V53.0157C31.0919 53.0816 31.5538 53.0157 31.818 52.8836C32.148 52.7518 32.3457 52.4882 32.4119 52.0919C32.6099 51.3661 32.2139 50.7063 31.5541 50.5739C31.224 50.508 30.6962 50.508 30.234 50.5739Z" fill="white"/>
<path fill-rule="evenodd" clip-rule="evenodd" d="M35.0517 49.7158C35.8437 49.3198 36.8336 49.2539 37.6253 49.4519C38.0213 49.584 38.2852 49.7817 38.4173 50.0462C38.4835 50.2442 38.5491 50.376 38.5491 50.706V52.5539C38.5491 52.6198 38.4832 52.8177 38.6811 52.8836C38.8129 52.9495 38.945 52.8836 39.0768 52.8177L39.143 52.8836C38.747 53.412 38.1531 53.8074 37.5591 53.5435C37.2293 53.4117 37.1631 53.0816 37.1631 52.9492L36.437 53.5435C36.0411 53.6756 35.2494 53.6094 34.8531 53.4117C34.7213 53.2796 34.5892 53.1472 34.4571 52.9492C34.3912 52.8833 34.3912 52.7518 34.3912 52.6195C34.4571 51.8937 35.0511 51.5639 35.8434 51.2994L37.1631 50.9034V50.5736C37.1631 50.1118 36.9651 49.7814 36.635 49.7814C36.1732 49.7155 35.9755 50.1118 35.9093 50.5077C35.8434 50.6395 35.8434 50.6395 35.7772 50.6395H34.7872V49.8479L35.0517 49.7158ZM37.1634 51.3659C36.7015 51.4977 36.0414 51.6957 35.8437 52.0917C35.7775 52.2897 35.8437 52.4877 35.9755 52.6853C36.2394 52.9492 36.8992 52.8174 37.0975 52.5536C37.1634 52.4877 37.1634 52.3556 37.1634 52.2897V51.3659Z" fill="white"/>
<path fill-rule="evenodd" clip-rule="evenodd" d="M74.7797 72.7474C74.9359 72.7481 75.0906 72.7179 75.235 72.6584C75.3794 72.599 75.5106 72.5115 75.621 72.4011C75.7314 72.2907 75.8189 72.1595 75.8783 72.0151C75.9378 71.8707 75.968 71.7159 75.9673 71.5598C75.9673 70.9655 75.4396 70.4377 74.7797 70.4377C74.1198 70.4377 73.5921 70.9655 73.5921 71.5598C73.5914 71.7159 73.6216 71.8707 73.6811 72.0151C73.7405 72.1595 73.828 72.2907 73.9384 72.4011C74.0488 72.5115 74.18 72.599 74.3244 72.6584C74.4688 72.7179 74.6235 72.7481 74.7797 72.7474ZM74.7797 72.6159C74.1854 72.6159 73.79 72.1535 73.79 71.5598C73.79 71.032 74.1854 70.5701 74.7797 70.5701C75.3734 70.5701 75.7694 71.032 75.7694 71.5598C75.7694 72.1532 75.3734 72.6159 74.7797 72.6159ZM74.9777 71.6257C75.2416 71.6257 75.3731 71.5598 75.3731 71.2959C75.3731 71.032 75.2413 70.9655 74.9118 70.9655H74.3834V72.2197H74.5155V71.6254H74.7794L75.1754 72.2197H75.3728L74.9777 71.6257ZM74.5158 71.4939V71.032H74.9118C75.0436 71.032 75.2416 71.0979 75.2416 71.2959C75.2416 71.5598 74.9118 71.4939 74.7797 71.4939H74.5158Z" fill="#2C153B"/>
</g>
<defs>
<clipPath id="clip0_1_8909">
<rect width="58" height="58" fill="white" transform="translate(19 19)"/>
</clipPath>
</defs>
</svg>
