<svg width="96" height="96" viewBox="0 0 96 96" fill="none" xmlns="http://www.w3.org/2000/svg">
<circle cx="48" cy="48" r="47" fill="white" stroke="white" stroke-width="2"/>
<g clip-path="url(#clip0_1_8677)">
<path d="M63.7568 35.0327C62.6578 35.0327 61.7655 35.925 61.7655 37.0241C61.7655 38.2755 62.9189 39.2549 64.2248 38.961C64.943 38.7978 65.5306 38.2102 65.6938 37.492C65.9876 36.1862 65.0083 35.0327 63.7568 35.0327ZM62.2878 60.5288H65.2259V44.859H62.2878V60.5288ZM69.1651 52.6939V60.5288H72.1032V52.6939C72.1032 49.9952 74.2904 47.7971 77 47.7971V44.859C72.669 44.859 69.1651 48.3629 69.1651 52.6939ZM26.8567 47.9168C27.9557 47.9168 28.9568 48.2759 29.773 48.8852L31.8732 46.7851C30.5129 45.6534 28.761 44.9678 26.8567 44.9678C22.5148 44.9678 19 48.4826 19 52.8245C19 57.1663 22.5148 60.6811 26.8567 60.6811C28.761 60.6811 30.5129 59.9956 31.8732 58.8639L29.773 56.7637C28.9568 57.3731 27.9448 57.7322 26.8567 57.7322C24.1471 57.7322 21.949 55.534 21.949 52.8245C21.949 50.1149 24.1471 47.9168 26.8567 47.9168ZM36.9876 52.8462V35.1415H34.0495V52.8462C34.0495 57.1772 37.5535 60.6811 41.8844 60.6811V57.743C39.1749 57.743 36.9876 55.5558 36.9876 52.8462ZM57.4236 54.3153V44.859H54.4856V46.5783C53.1471 45.501 51.4386 44.859 49.5887 44.859C45.2578 44.859 41.7538 48.3629 41.7538 52.6939C41.7538 57.0248 45.2578 60.5288 49.5887 60.5288C51.7542 60.5288 53.7129 59.6473 55.1276 58.2327C55.2146 58.1457 55.3017 58.0586 55.3887 57.9607C55.922 58.9618 56.6619 59.8432 57.5542 60.5288L59.6653 58.4177C58.3159 57.5472 57.4236 56.0346 57.4236 54.3153ZM53.9306 54.9246C53.1253 56.5025 51.4822 57.5798 49.5887 57.5798C46.8901 57.5798 44.7028 55.3926 44.7028 52.6939C44.7028 49.9952 46.8901 47.8079 49.5887 47.8079C50.2634 47.8079 50.9163 47.9494 51.5039 48.1997C53.2559 48.9397 54.4747 50.6807 54.4747 52.6939C54.4747 53.4991 54.2788 54.25 53.9306 54.9246Z" fill="black"/>
</g>
<defs>
<clipPath id="clip0_1_8677">
<rect width="58" height="25.6811" fill="white" transform="translate(19 35)"/>
</clipPath>
</defs>
</svg>
