<svg width="96" height="96" viewBox="0 0 96 96" fill="none" xmlns="http://www.w3.org/2000/svg">
<circle cx="48" cy="48" r="47" fill="white" stroke="white" stroke-width="2"/>
<path d="M62.6075 19H34.1183C32.2059 19.0281 30.3826 19.8135 29.0484 21.1838C27.7141 22.5541 26.9776 24.3976 27.0005 26.3101V69.6899C26.9918 70.6442 27.1717 71.5909 27.5299 72.4754C27.8882 73.36 28.4177 74.1651 29.088 74.8444C29.7584 75.5237 30.5564 76.0638 31.4361 76.4337C32.3159 76.8037 33.2601 76.9961 34.2144 77H62.6075C63.5619 76.9961 64.5061 76.8037 65.3858 76.4337C66.2656 76.0638 67.0636 75.5237 67.7339 74.8444C68.4043 74.1651 68.9338 73.36 69.292 72.4754C69.6503 71.5909 69.8302 70.6442 69.8214 69.6899V26.3101C69.792 24.397 69.0255 22.5691 67.6815 21.2073C66.3376 19.8455 64.52 19.0548 62.6075 19Z" fill="#0054A4"/>
<path d="M49.0128 32.9665V29.5442H48.0913L47.9951 32.8741V32.9703L49.0128 32.9665Z" fill="white"/>
<path d="M51.5097 37.5939L51.1394 37.4977V38.6077H51.4164L51.5097 37.5939Z" fill="white"/>
<path d="M50.1217 29.7287H49.4744V33.0586L50.1217 33.1548V29.7287Z" fill="white"/>
<path d="M63.9907 26.5844L63.8099 25.5667L52.0637 28.8034L52.3407 29.7287L63.9907 26.5844Z" fill="white"/>
<path d="M66.2147 30.5605H52.3418V31.5781H66.2147V30.5605Z" fill="white"/>
<path d="M43.7407 38.4219H44.4804L44.5766 37.1272L43.8369 37.031L43.7407 38.4219Z" fill="white"/>
<path d="M63.9907 36.0173L52.2484 32.4103L52.0637 33.428L63.8099 37.0349L63.9907 36.0173Z" fill="white"/>
<path d="M49.3821 36.9425V38.3295H50.1217V36.9425H49.3821Z" fill="white"/>
<path d="M47.1621 33.705V35.7393L50.3988 36.2019V34.1676L47.6248 33.8011L47.1621 33.705Z" fill="white"/>
<path d="M45.4048 38.0516H46.1445L46.2406 36.757L45.501 36.6608L45.4048 38.0516Z" fill="white"/>
<path d="M47.994 26.1257C47.8978 26.0295 47.8978 26.0295 47.8093 26.0295C47.9055 26.1257 47.9055 26.1257 47.994 26.1257Z" fill="white"/>
<path d="M47.3477 38.0514H48.0873L48.1835 36.6644H47.3477V38.0514Z" fill="white"/>
<path d="M47.7181 29.3582H46.7004V32.7805H47.6257L47.7181 29.3582Z" fill="white"/>
<path d="M54.9309 72.7342H53.9143C53.6372 72.7342 53.2669 72.7342 53.2669 72.2716C53.2669 71.8089 50.769 41.4739 50.6805 40.5457C50.592 39.6175 50.4035 39.6204 50.1255 39.6204C49.6629 39.5242 47.2582 39.2501 47.1659 39.2501V72.8189H40.5031L43.4666 39.6242L43.0039 38.9769V36.7579L43.7436 36.1106L43.9283 34.3533V34.2571C43.6512 34.2571 43.5579 33.9801 43.5579 33.7021C43.5579 33.3318 43.7426 32.9624 44.1129 32.9624C44.1129 31.9448 44.2091 30.2807 44.2091 30.2807C44.0508 29.9304 43.957 29.5544 43.9321 29.1708C43.9263 29.0389 43.9581 28.9081 44.0236 28.7935C44.0892 28.679 44.1858 28.5853 44.3024 28.5234L47.0774 26.215H47.1736V27.88L49.6744 28.712L50.3217 28.8966V28.6187L48.1797 26.3987L47.995 26.214L47.8988 26.1178C48.0077 25.8941 48.0482 25.6432 48.0154 25.3965C47.9825 25.1499 47.8777 24.9183 47.7141 24.7308C47.6179 23.8988 47.2515 21.4009 47.2515 21.4009C47.2515 21.4009 46.9745 23.9017 46.7888 24.7308C46.5837 24.8927 46.4499 25.1283 46.4159 25.3874C46.382 25.6465 46.4506 25.9086 46.607 26.1178C46.607 26.1178 44.2024 28.1522 43.6474 28.5225C43.0924 28.9851 42.7221 29.5401 43.4627 30.2798C43.3561 31.045 43.2944 31.8158 43.278 32.5882C42.2604 32.5882 42.446 34.0676 43.001 34.0676L42.724 35.5469L41.892 36.0096V38.8769L42.3547 39.5242L39.3931 72.7342H31.3472V74.0289H62.9778V72.7342H54.9309ZM50.3996 60.2493H48.9193V56.4567H50.3987L50.3996 60.2493Z" fill="white"/>
</svg>
