<svg width="96" height="96" viewBox="0 0 96 96" fill="none" xmlns="http://www.w3.org/2000/svg">
<circle cx="48" cy="48" r="47" fill="white" stroke="white" stroke-width="2"/>
<g clip-path="url(#clip0_1_5608)">
<mask id="mask0_1_5608" style="mask-type:luminance" maskUnits="userSpaceOnUse" x="6" y="31" width="84" height="34">
<path d="M6 31H90V65H6V31Z" fill="white"/>
</mask>
<g mask="url(#mask0_1_5608)">
<path d="M88.1439 52.3471H88.0584V52.6211H88.1439C88.2504 52.6211 88.3359 52.5788 88.3359 52.4737C88.3571 52.4105 88.2931 52.3471 88.1439 52.3471ZM49.4189 51.0631C49.4189 50.7894 49.4189 50.6 49.3977 50.4949C49.3981 50.4732 49.3923 50.4518 49.381 50.4332C49.3697 50.4145 49.3533 50.3994 49.3337 50.3895C49.1629 50.2843 48.9707 50.242 48.736 50.242C48.6235 50.2401 48.5126 50.2693 48.4161 50.3263C48.3094 50.3895 48.2454 50.4315 48.2026 50.4949C48.0747 50.6632 48.0107 50.9157 48.0107 51.2526C48.0107 51.5474 48.0747 51.8 48.2026 51.9894C48.3094 52.1788 48.5013 52.2631 48.7575 52.2631C49.0347 52.2631 49.2482 52.2 49.4189 52.0737C49.4401 52.0525 49.4616 52.0105 49.4616 51.9474V51.6317C49.4189 51.3791 49.4189 51.2106 49.4189 51.0631ZM43.2741 50.958C43.3808 50.958 43.5088 50.958 43.6795 50.9369C43.7435 50.9369 43.8502 50.9157 44.0209 50.8737C44.1916 50.8315 44.2984 50.8106 44.3409 50.7894C44.3623 50.7683 44.3836 50.7683 44.3836 50.7474C44.3836 50.7474 44.3836 50.7263 44.3623 50.6843C44.3196 50.6 44.2984 50.558 44.2769 50.5369C44.2341 50.4737 44.1701 50.4315 44.1061 50.3474C43.9994 50.2632 43.8714 50.2212 43.7222 50.2212C43.5942 50.2212 43.4875 50.2843 43.402 50.4106C43.3808 50.4526 43.338 50.5369 43.2955 50.642C43.2528 50.7474 43.2528 50.8526 43.2528 50.9157C43.2528 50.9369 43.2528 50.958 43.2741 50.958Z" fill="#004D71"/>
<path d="M88.1864 52.0314C87.8452 52.0314 87.589 52.3054 87.589 52.6422C87.589 52.9999 87.8664 53.2736 88.1864 53.2736C88.5066 53.2736 88.7838 52.9999 88.7838 52.6631C88.7838 52.3054 88.5278 52.0314 88.1864 52.0314ZM88.3786 53.0842C88.3571 53.0631 88.3359 52.9791 88.3146 52.8737C88.2931 52.7685 88.2504 52.7262 88.1439 52.7262H88.0584V53.0842H87.9304V52.2634C87.9944 52.2634 88.0584 52.242 88.1651 52.242C88.2931 52.242 88.3786 52.2631 88.4211 52.3051C88.4638 52.3474 88.5066 52.3894 88.5066 52.4737C88.5066 52.5788 88.4426 52.6422 88.3359 52.6631C88.3998 52.6842 88.4638 52.7474 88.4851 52.8525C88.5066 52.9788 88.5278 53.0211 88.5278 53.0631H88.3786V53.0842Z" fill="#004D71"/>
<path d="M31.2618 54.2842H89.5307V47.1685H31.2618V54.2842ZM75.4915 49.0421C75.577 48.9369 75.6835 48.8947 75.8115 48.8947C75.961 48.8947 76.0249 48.9578 76.0249 49.1052C76.0249 49.2104 75.961 49.3158 75.8542 49.4001C75.8216 49.4345 75.7819 49.4616 75.7378 49.4797C75.6936 49.4979 75.6461 49.5066 75.5983 49.5052C75.4488 49.5052 75.3636 49.4421 75.3636 49.2947C75.3636 49.2104 75.4063 49.1264 75.4915 49.0421ZM53.3447 49.0421C53.4302 48.9369 53.5367 48.8947 53.6649 48.8947C53.8141 48.8947 53.8781 48.9578 53.8781 49.1052C53.8781 49.2104 53.8141 49.3158 53.7074 49.4001C53.6748 49.4345 53.6351 49.4616 53.5909 49.4797C53.5468 49.4979 53.4992 49.5066 53.4514 49.5052C53.302 49.5052 53.2167 49.4421 53.2167 49.2947C53.2167 49.2104 53.2595 49.1264 53.3447 49.0421ZM35.7637 52.2842C35.4438 52.5157 35.1451 52.6211 34.8252 52.6211C34.569 52.6211 34.377 52.5788 34.249 52.5157C34.0356 52.4105 33.8649 52.2422 33.7369 52.0526C33.6301 51.8843 33.5662 51.6317 33.5662 51.3369C33.5662 51.1683 33.5877 50.9789 33.6516 50.7895C33.7156 50.6 33.8224 50.4315 34.0143 50.2632C34.2063 50.0946 34.4622 50.0106 34.8037 50.0106C35.1239 50.0106 35.3798 50.1158 35.5933 50.3052C35.7213 50.4315 35.7852 50.5369 35.7852 50.642C35.7852 50.7474 35.7425 50.7895 35.6573 50.7895C35.529 50.7895 35.4011 50.7474 35.3158 50.642C35.2303 50.5578 35.1879 50.4526 35.1451 50.3052C35.1239 50.2421 35.0811 50.1789 34.9956 50.1789C34.9317 50.1578 34.8677 50.1578 34.8252 50.1578C34.6969 50.1578 34.633 50.1578 34.5905 50.1789C34.4837 50.2212 34.377 50.3052 34.2918 50.4106C34.185 50.5789 34.1211 50.8315 34.1211 51.1263C34.1211 51.4843 34.2063 51.7577 34.3983 51.9894C34.5477 52.158 34.7824 52.2631 35.1024 52.2631C35.3586 52.2631 35.5718 52.2 35.7425 52.0948C35.7637 52.0737 35.7852 52.0737 35.828 52.0317C35.8492 52.0105 35.8705 52.0105 35.892 52.0526C35.9132 52.0737 35.9132 52.0737 35.9132 52.0948C35.892 52.158 35.8492 52.2 35.7637 52.2842ZM40.3296 50.3263C40.313 50.4503 40.2771 50.5711 40.2232 50.6843C40.2232 50.7052 40.2017 50.7263 40.1592 50.7474C40.1377 50.7474 40.1164 50.7474 40.0952 50.7263C40.0309 50.6212 39.967 50.5789 39.9457 50.5578C39.8605 50.4946 39.775 50.4737 39.6683 50.4737C39.4763 50.4737 39.3483 50.5158 39.2416 50.6C39.2203 50.6212 39.2203 50.642 39.2203 50.6843V51.9685C39.2203 52.2842 39.2628 52.4317 39.3271 52.4317L39.8177 52.4525C39.839 52.4525 39.8605 52.4737 39.8605 52.4948V52.6C39.8605 52.6211 39.8605 52.6211 39.839 52.6211L38.3668 52.6C38.3455 52.6 38.3243 52.6 38.3243 52.5788V52.4737C38.3243 52.4525 38.3455 52.4317 38.3668 52.4317H38.6655C38.7082 52.4317 38.7294 52.4105 38.7294 52.3894V50.6212C38.7294 50.3686 38.6869 50.2423 38.6442 50.2423H38.3455C38.3243 50.2423 38.3243 50.2423 38.3243 50.2209V50.1158C38.3243 50.0946 38.3243 50.0946 38.3455 50.0946H38.7509C38.9002 50.0946 39.0069 50.0946 39.0924 50.0738C39.1776 50.0526 39.2203 50.0315 39.2628 50.0315C39.2843 50.0315 39.3056 50.0526 39.3056 50.1158V50.3683C39.3056 50.4106 39.3271 50.4315 39.3483 50.4106C39.4763 50.3052 39.5618 50.2421 39.583 50.2212C39.7323 50.1158 39.8817 50.0738 40.0097 50.0738C40.1804 50.0738 40.3296 50.1369 40.4151 50.2843C40.3296 50.2843 40.3296 50.3052 40.3296 50.3263ZM45.0238 52.1788C44.8847 52.317 44.7174 52.4246 44.5329 52.4946C44.3196 52.5788 44.1062 52.6422 43.893 52.6422C43.5515 52.6422 43.2741 52.5368 43.0821 52.3474C42.8474 52.1368 42.7194 51.8422 42.6979 51.5052C42.6767 51.3157 42.6979 51.1474 42.7622 50.9369C42.8262 50.6632 42.9541 50.4526 43.1249 50.3054C43.2956 50.1369 43.5088 50.0526 43.7647 50.0526C43.957 50.0526 44.1489 50.0946 44.3624 50.1578C44.5329 50.2209 44.6823 50.3263 44.8315 50.4526C44.9383 50.5578 45.0023 50.642 45.045 50.7052C45.0663 50.7263 45.0663 50.7474 45.0663 50.7895C45.0663 50.8106 45.045 50.8315 45.0238 50.8315C45.0023 50.8526 44.8743 50.8737 44.6611 50.9157C44.4476 50.958 44.3196 50.9789 44.2769 51C44.1702 51.0211 44.0422 51.042 43.9355 51.042C43.7223 51.0632 43.5728 51.0843 43.5088 51.0843H43.2956C43.2741 51.0843 43.2741 51.1263 43.2741 51.2106C43.2956 51.5685 43.4021 51.842 43.5943 52.0737C43.6583 52.1368 43.7647 52.2 43.9142 52.2422C44.0422 52.2842 44.1917 52.2842 44.3196 52.2842C44.5329 52.2842 44.7036 52.242 44.8103 52.1788C44.8958 52.1368 44.9383 52.0948 44.981 52.0526L45.0023 52.0317L45.045 52.0737L45.0663 52.0948C45.0238 52.158 45.0238 52.158 45.0238 52.1788ZM50.507 52.3051C50.3363 52.3683 50.1016 52.4525 49.8669 52.5368C49.6749 52.6211 49.5469 52.6631 49.4829 52.6631C49.4617 52.6631 49.4402 52.6422 49.4402 52.6V52.242C49.4189 52.2 49.3977 52.2 49.3762 52.2211C49.2695 52.3054 49.1415 52.4105 49.0135 52.4737C48.8643 52.5579 48.6721 52.6 48.4374 52.6C48.2881 52.6 48.1387 52.5579 47.9895 52.4737C47.8187 52.3685 47.712 52.2631 47.6268 52.0948C47.5151 51.8572 47.4569 51.5986 47.4561 51.3369C47.4561 50.8949 47.584 50.558 47.8187 50.3263C48.0322 50.1369 48.3094 50.0315 48.6936 50.0315C48.8855 50.0315 49.099 50.0946 49.3549 50.2209C49.3762 50.2421 49.3977 50.2209 49.3977 50.1789V49.1895C49.3977 48.8738 49.3549 48.7053 49.2695 48.7053H48.8855C48.8643 48.7053 48.8643 48.6841 48.8643 48.6632V48.579C48.8643 48.5578 48.8643 48.5367 48.8855 48.5367H49.0135C49.2695 48.5367 49.4829 48.5158 49.6536 48.4527C49.8244 48.3895 49.9096 48.3684 49.9311 48.3684C49.9523 48.3684 49.9736 48.3895 49.9736 48.4527V51.8C49.9736 52.1368 50.0163 52.3051 50.1231 52.2842C50.187 52.2631 50.2723 52.242 50.379 52.2C50.443 52.1788 50.4857 52.158 50.507 52.158C50.5285 52.158 50.5285 52.1788 50.5285 52.2422C50.5285 52.2842 50.5285 52.3051 50.507 52.3051ZM54.3048 52.5577C54.3048 52.5791 54.3048 52.5791 54.2835 52.5791H52.8753V52.4525C52.8753 52.4317 52.8753 52.4317 52.8968 52.4317H53.238C53.2595 52.4317 53.2807 52.4105 53.2807 52.3894C53.302 51.5685 53.302 51 53.302 50.6843C53.302 50.4106 53.2595 50.2632 53.1955 50.2632H52.8968C52.8753 50.2632 52.854 50.2421 52.854 50.2209V50.0946C52.854 50.0738 52.854 50.0738 52.8753 50.0738H53.5367C53.7074 50.0526 53.8141 50.0526 53.8354 50.0526C53.8569 50.0526 53.8781 50.0738 53.8781 50.1158V50.6209C53.8569 50.7472 53.8569 51.1894 53.8569 51.9263C53.8569 52.3051 53.8996 52.4737 53.9636 52.4737H54.3048C54.3263 52.4737 54.3263 52.4737 54.3263 52.4948V52.5579L54.3048 52.5577ZM58.572 52.2842C58.4867 52.3474 58.38 52.4105 58.2308 52.4737C58.0173 52.5579 57.8039 52.6 57.6119 52.6C57.3987 52.6 57.2492 52.5368 57.1212 52.4317C57.0145 52.3263 56.9505 52.1791 56.9505 52.0105C56.9505 51.9894 56.9505 51.7789 56.9718 51.4211C56.9718 51.0423 56.9933 50.8528 56.9933 50.8315C56.9933 50.5789 56.9933 50.4526 56.9718 50.4106C56.9718 50.3895 56.9505 50.3475 56.9078 50.3052C56.8438 50.2843 56.7798 50.2421 56.6946 50.2C56.6731 50.1789 56.6518 50.1578 56.6518 50.1369C56.6518 50.1158 56.6731 50.0946 56.6946 50.0738C56.7371 50.0526 56.8438 49.9684 57.0573 49.8212C57.2492 49.6738 57.3559 49.5895 57.3772 49.5686C57.3987 49.5472 57.4412 49.5264 57.4627 49.5264C57.5052 49.5264 57.5267 49.5475 57.5267 49.6106C57.5267 49.7158 57.5052 49.8209 57.4839 49.9684C57.4839 50.0315 57.4839 50.0526 57.5052 50.0526C57.7826 50.0738 58.0813 50.0946 58.4227 50.0946C58.4655 50.0946 58.4655 50.1158 58.4655 50.1578C58.4655 50.2 58.444 50.2632 58.4227 50.3472C58.4227 50.3683 58.4015 50.3895 58.38 50.3895C58.3588 50.3895 58.2093 50.3895 57.9321 50.3683C57.6546 50.3475 57.5267 50.3475 57.5052 50.3475C57.4839 50.3475 57.4627 50.3683 57.4627 50.3895V51.8C57.4627 52.0317 57.5052 52.1788 57.5694 52.2211C57.6334 52.2631 57.7614 52.2842 57.9321 52.2842C58.1028 52.2842 58.2733 52.2631 58.4015 52.2L58.5295 52.1368C58.5295 52.1368 58.5507 52.158 58.5935 52.2211C58.6147 52.2422 58.5935 52.2631 58.572 52.2842ZM67.2346 52.5157C67.1491 52.5368 67.0424 52.5579 66.9144 52.5788C66.8664 52.6037 66.8165 52.6248 66.7652 52.642C66.7437 52.6631 66.7224 52.6631 66.7224 52.6631C66.7012 52.6631 66.6797 52.6422 66.6372 52.6211C66.5732 52.5788 66.4877 52.4525 66.4025 52.2422C66.4025 52.2211 66.381 52.2211 66.3385 52.2422C66.2743 52.3054 66.1038 52.4105 65.8264 52.5579C65.7196 52.6 65.5489 52.6211 65.293 52.6211C65.1222 52.6211 64.9943 52.5579 64.8875 52.4317C64.7808 52.3054 64.7383 52.158 64.7383 52.0105V50.9369C64.7383 50.4737 64.6956 50.2423 64.6101 50.2423H64.2901C64.2689 50.2423 64.2474 50.2423 64.2474 50.2209V50.1158C64.2474 50.0946 64.2474 50.0946 64.2689 50.0946H64.6316C64.8023 50.0946 64.9515 50.0946 65.0583 50.0738C65.1435 50.0738 65.2075 50.0526 65.229 50.0526C65.2502 50.0526 65.2717 50.0738 65.2717 50.1369V51.8843C65.2717 52.0526 65.293 52.1788 65.3569 52.2422C65.4209 52.3054 65.5277 52.3263 65.6984 52.3263C65.8476 52.3263 65.9971 52.2842 66.1463 52.2211C66.2145 52.1744 66.2858 52.1322 66.3598 52.0948C66.381 52.0948 66.381 52.0737 66.381 52.0526V50.6632C66.381 50.4106 66.3385 50.2843 66.2743 50.2843H65.9756C65.9543 50.2843 65.9331 50.2843 65.9331 50.2632V50.1578C65.9331 50.1369 65.9331 50.1369 65.9543 50.1369H66.381C66.509 50.1369 66.6157 50.1369 66.7012 50.1158C66.7224 50.1158 66.7437 50.1158 66.7864 50.0946C66.8292 50.0946 66.8719 50.0946 66.8719 50.0738C66.8932 50.0738 66.9144 50.0946 66.9144 50.1578V51.9263C66.9144 52.1788 66.9999 52.3683 67.1919 52.4737C67.2131 52.4948 67.2346 52.4948 67.2346 52.5157C67.2558 52.4948 67.2558 52.4737 67.2346 52.5157ZM72.6326 52.5368C72.6326 52.5579 72.6326 52.5791 72.6111 52.5791H71.4163C71.3951 52.5791 71.3951 52.5791 71.3951 52.5579V52.4525C71.3951 52.4317 71.3951 52.4317 71.4163 52.4317H71.6298C71.651 52.4317 71.6725 52.4105 71.6725 52.3894C71.6938 52.158 71.715 51.758 71.715 51.1683C71.715 50.8737 71.6725 50.6632 71.587 50.5789C71.5018 50.4737 71.3738 50.4315 71.2031 50.4315C71.0324 50.4315 70.8617 50.4526 70.6909 50.5158C70.6697 50.5369 70.6482 50.558 70.6482 50.6C70.627 50.6843 70.627 51.1052 70.627 51.9051C70.627 52.284 70.6482 52.4737 70.7122 52.4737H70.9896C71.0109 52.4737 71.0109 52.4737 71.0109 52.4948V52.6C71.0109 52.6211 71.0109 52.6211 70.9896 52.6211H69.6669V52.4948C69.6669 52.4737 69.6669 52.4737 69.6881 52.4737H70.0083C70.0296 52.4737 70.0508 52.4525 70.0508 52.4317C70.0723 51.6106 70.0723 51.0211 70.0723 50.6843C70.0723 50.4106 70.0508 50.2843 69.9868 50.2843H69.6669C69.6454 50.2843 69.6241 50.2632 69.6241 50.2421V50.1371C69.6241 50.116 69.6241 50.116 69.6454 50.116H70.0296C70.1575 50.116 70.2428 50.116 70.307 50.0949C70.4775 50.074 70.5842 50.074 70.6057 50.074C70.627 50.074 70.6482 50.0949 70.6482 50.1371V50.3477C70.6482 50.4108 70.6697 50.4317 70.6909 50.4108C70.7762 50.3477 70.9044 50.2846 71.0324 50.2214C71.2031 50.1371 71.3311 50.0951 71.4803 50.0951C71.715 50.0951 71.9072 50.1583 72.0352 50.2846C72.1844 50.4317 72.2699 50.6845 72.2699 51.0423C72.2699 51.1686 72.2699 51.3791 72.2484 51.6528C72.2484 51.9476 72.2272 52.0948 72.2272 52.0739V52.3265C72.2272 52.4108 72.2484 52.4528 72.2912 52.4528H72.5898C72.6111 52.4528 72.6326 52.4528 72.6326 52.4739V52.5368ZM76.4516 52.5579C76.4516 52.5791 76.4516 52.5791 76.4304 52.5791H75.0221V52.4525C75.0221 52.4317 75.0221 52.4317 75.0436 52.4317H75.3848C75.4063 52.4317 75.4276 52.4105 75.4276 52.3894C75.4488 51.5685 75.4488 51 75.4488 50.6843C75.4488 50.4106 75.4063 50.2632 75.3423 50.2632H75.0436C75.0221 50.2632 75.0009 50.2421 75.0009 50.2209V50.0946C75.0009 50.0738 75.0009 50.0738 75.0221 50.0738H75.6835C75.8542 50.0526 75.961 50.0526 75.9822 50.0526C76.0037 50.0526 76.0249 50.0738 76.0249 50.1158V50.6209C76.0037 50.7472 76.0037 51.1894 76.0037 51.9263C76.0037 52.3051 76.0462 52.4737 76.1104 52.4737H76.4516C76.4731 52.4737 76.4731 52.4737 76.4731 52.4948V52.5579H76.4516ZM81.3377 51.9265C81.2406 52.1402 81.076 52.3173 80.8683 52.4317C80.6763 52.5579 80.4416 52.6211 80.1642 52.6211C79.9082 52.6211 79.716 52.5788 79.588 52.5157C79.3108 52.3894 79.1401 52.2211 79.0334 52.0317C78.9273 51.8059 78.8623 51.5636 78.8414 51.3157C78.8414 51.042 78.9054 50.7895 79.0334 50.5789C79.1612 50.3896 79.338 50.237 79.5455 50.1369C79.716 50.0526 79.9722 50.0106 80.2709 50.0106C80.5269 50.0106 80.7188 50.0526 80.8895 50.1578C81.0787 50.2631 81.2284 50.4256 81.3162 50.6212C81.4017 50.8106 81.4444 51.042 81.4444 51.2948C81.4869 51.5474 81.4444 51.7582 81.3377 51.9265ZM86.9064 52.5368C86.9064 52.5579 86.9064 52.5791 86.8849 52.5791H85.6901C85.6689 52.5791 85.6689 52.5791 85.6689 52.5579V52.4525C85.6689 52.4317 85.6689 52.4317 85.6901 52.4317H85.9036C85.9248 52.4317 85.9463 52.4105 85.9463 52.3894C85.9676 52.158 85.9888 51.758 85.9888 51.1683C85.9888 50.8737 85.9463 50.6632 85.8609 50.5789C85.7756 50.4737 85.6476 50.4315 85.4769 50.4315C85.3062 50.4315 85.1567 50.4526 84.9648 50.5158C84.9435 50.5369 84.922 50.558 84.922 50.6C84.9008 50.6843 84.9008 51.1052 84.9008 51.9051C84.9008 52.284 84.922 52.4737 84.986 52.4737H85.2635C85.2847 52.4737 85.2847 52.4737 85.2847 52.4948V52.6C85.2847 52.6211 85.2847 52.6211 85.2635 52.6211H83.9407V52.4948C83.9407 52.4737 83.9407 52.4737 83.962 52.4737H84.2819C84.3034 52.4737 84.3246 52.4525 84.3246 52.4317C84.3461 51.6106 84.3461 51.0211 84.3461 50.6843C84.3461 50.4106 84.3246 50.2843 84.2607 50.2843H83.9407C83.9192 50.2843 83.898 50.2632 83.898 50.2421V50.1371C83.898 50.116 83.898 50.116 83.9192 50.116H84.3034C84.4314 50.116 84.5166 50.116 84.5806 50.0949C84.7513 50.074 84.858 50.074 84.8795 50.074C84.9008 50.074 84.922 50.0949 84.922 50.1371V50.3477C84.922 50.4108 84.9435 50.4317 84.9648 50.4108C85.05 50.3477 85.1782 50.2846 85.3062 50.2214C85.4554 50.1371 85.6049 50.0951 85.7541 50.0951C85.9888 50.0951 86.181 50.1583 86.309 50.2846C86.4582 50.4317 86.5437 50.6845 86.5437 51.0423C86.5437 51.1686 86.5437 51.3791 86.5222 51.6528C86.5222 51.9476 86.501 52.0948 86.501 52.0739V52.3265C86.501 52.4108 86.5222 52.4528 86.565 52.4528H86.8637C86.8849 52.4528 86.9064 52.4528 86.9064 52.4739V52.5368ZM88.1864 53.3999C88.088 53.4003 87.9905 53.3815 87.8996 53.3446C87.8086 53.3076 87.726 53.2533 87.6566 53.1848C87.5871 53.1163 87.5322 53.0349 87.495 52.9453C87.4578 52.8558 87.439 52.7598 87.4398 52.6631C87.4398 52.2631 87.7598 51.9263 88.1864 51.9263C88.5918 51.9263 88.912 52.242 88.912 52.6631C88.9333 53.0631 88.5918 53.3999 88.1864 53.3999Z" fill="#004D71"/>
<path d="M80.0147 50.2209C79.8227 50.2209 79.6735 50.2841 79.6095 50.4103C79.5028 50.5789 79.4388 50.8106 79.4388 51.1052C79.4388 51.4 79.5028 51.6948 79.6095 51.9685C79.6735 52.1368 79.78 52.2631 79.9082 52.3474C80.0147 52.4105 80.1214 52.4525 80.2709 52.4525C80.4201 52.4525 80.5268 52.4316 80.6123 52.3685C80.7188 52.2842 80.8043 52.1791 80.8683 52.0105C80.9323 51.8631 80.9535 51.6737 80.9535 51.4211C80.9535 51.0631 80.8683 50.7683 80.6975 50.5578C80.4841 50.3052 80.2709 50.2 80.0147 50.2212V50.2209ZM35.7425 40.7684C35.7425 40.3473 35.5718 39.9685 35.2303 39.5894C34.8891 39.2105 34.3342 39.0211 33.5876 39.0211C33.4597 39.0211 33.3954 39.0211 33.3742 39.0422C33.3529 39.0631 33.3314 39.0842 33.3314 39.1474C33.3102 39.3579 33.3102 39.8631 33.3102 40.663V42.0524C33.3102 42.0947 33.3314 42.1369 33.3742 42.1369C33.6089 42.221 33.8863 42.2632 34.185 42.2632C34.7184 42.2632 35.1024 42.1369 35.3371 41.9052C35.5933 41.6315 35.7425 41.2527 35.7425 40.7684ZM36.8305 40.6842C36.8305 41.2104 36.6386 41.6527 36.2546 42.0315C35.8277 42.4526 35.2091 42.6421 34.4197 42.6421C34.0355 42.6421 33.6729 42.6001 33.3314 42.4947C33.3102 42.4947 33.2889 42.5158 33.2889 42.5578V44.0526C33.2889 44.8317 33.3529 45.2105 33.5021 45.2105H34.313C34.3557 45.2105 34.377 45.2317 34.377 45.2737V45.4842C34.377 45.5262 34.3557 45.5474 34.3342 45.5474H31.2618C31.2406 45.5474 31.2193 45.5262 31.2193 45.5054V45.2737C31.2193 45.2317 31.2406 45.2105 31.2618 45.2105H32.0087C32.0727 45.2105 32.0939 45.1685 32.0939 45.0842V39.9685C32.0939 39.3579 32.0514 39.0422 31.9659 39.0422H31.39C31.3473 39.0422 31.3258 39.0211 31.3258 38.9999V38.7685C31.3258 38.7262 31.3473 38.7262 31.39 38.7262L32.7555 38.6631H34.1423C34.5477 38.6631 34.8891 38.6842 35.1663 38.7262C35.5718 38.7894 35.9559 38.9788 36.3186 39.3159C36.6386 39.6316 36.8305 40.0947 36.8305 40.6842ZM40.5858 42.1369C40.5858 42.1369 40.5643 42.0947 40.5431 42.0106C40.4578 41.8632 40.4151 41.779 40.3724 41.7369C40.2871 41.6315 40.1804 41.5264 40.0309 41.4001C39.8177 41.2316 39.583 41.1475 39.3271 41.1475C39.1136 41.1475 38.9216 41.2738 38.7509 41.5053C38.6869 41.5895 38.6229 41.7369 38.5802 41.9473C38.5162 42.1578 38.495 42.3261 38.495 42.4524C38.495 42.5158 38.5162 42.5578 38.5375 42.5578C38.7297 42.5578 38.9641 42.5369 39.2843 42.5158C39.391 42.5158 39.6043 42.4738 39.9244 42.3895C40.2444 42.3264 40.4364 42.2632 40.5431 42.2421C40.5643 42.2001 40.5858 42.1789 40.5858 42.1369ZM41.8018 44.7474C41.8018 44.7685 41.7806 44.7894 41.7806 44.8105C41.5459 45.042 41.2472 45.2317 40.8845 45.4C40.5088 45.5659 40.1016 45.6519 39.6897 45.6525C39.0496 45.6525 38.5375 45.4842 38.1748 45.1263C37.7481 44.7263 37.5134 44.2 37.4707 43.5474C37.4494 43.2106 37.4921 42.8738 37.5774 42.5158C37.7054 42.0106 37.9401 41.6104 38.2388 41.3367C38.5802 41.021 38.9641 40.8736 39.4335 40.8736C39.7965 40.8736 40.1592 40.9367 40.5218 41.063C40.8418 41.1893 41.1192 41.3578 41.3752 41.6104C41.5459 41.779 41.6954 41.9473 41.7594 42.0735C41.7806 42.1158 41.8018 42.1578 41.8018 42.221C41.8018 42.2632 41.7806 42.2841 41.7166 42.3264C41.6526 42.3475 41.4392 42.3895 41.0552 42.4738C40.6711 42.5578 40.4363 42.6001 40.3299 42.6209C40.1164 42.6421 39.9244 42.6841 39.711 42.7263C39.3056 42.7895 39.0496 42.8106 38.9216 42.8106H38.495C38.4522 42.8106 38.4522 42.8946 38.4522 43.0632C38.4735 43.7157 38.6869 44.242 39.0284 44.6631C39.1563 44.7894 39.3483 44.9157 39.6258 44.9788C39.8817 45.042 40.1164 45.0842 40.3724 45.0631C40.7565 45.0631 41.0552 45 41.2899 44.8737C41.4392 44.7894 41.5459 44.7263 41.6099 44.6631C41.6311 44.6631 41.6311 44.642 41.6526 44.642C41.6739 44.642 41.6954 44.6631 41.7594 44.7051C41.7806 44.7263 41.8018 44.7263 41.8018 44.7474ZM44.853 45.5054C44.8523 45.5163 44.8475 45.5265 44.8397 45.5342C44.8318 45.542 44.8214 45.5466 44.8103 45.5474H42.1433C42.1005 45.5474 42.0793 45.5262 42.0793 45.5054V45.3159C42.0793 45.2737 42.1005 45.2528 42.1433 45.2528H42.8686C42.9326 45.2528 42.9754 45.2105 42.9754 45.1265V39.5262C42.9754 38.7474 42.9114 38.3474 42.7622 38.3474H42.2288C42.186 38.3474 42.1648 38.3263 42.1648 38.2842V38.1157C42.1648 38.0737 42.186 38.0317 42.2073 38.0317H42.6982C42.9754 38.0317 43.2528 37.9894 43.5728 37.9263C43.829 37.8631 43.9569 37.8211 43.9354 37.8211C44.0209 37.8211 44.0422 37.8631 44.0422 37.9685C44.0422 37.9894 44.0209 38.9788 43.9994 40.9999C43.9782 43 43.9569 44.0315 43.9569 44.1157C43.9569 44.8734 44.0209 45.2317 44.1489 45.2317H44.789C44.8318 45.2317 44.8318 45.2525 44.8318 45.2737V45.5054H44.853ZM47.0079 39.0842C47.0079 39.2948 46.9011 39.4842 46.7092 39.6316C46.5385 39.779 46.3677 39.8422 46.2185 39.8422C45.9411 39.8422 45.7918 39.7159 45.7918 39.4422C45.7918 39.2948 45.8558 39.1474 46.0051 38.9791C46.1758 38.7896 46.3677 38.7054 46.6239 38.7054C46.8799 38.7054 47.0079 38.8316 47.0079 39.0842ZM47.84 45.5054C47.84 45.5262 47.8187 45.5474 47.7975 45.5474H45.1945C45.1945 45.5474 45.173 45.5262 45.173 45.5054V45.3159C45.173 45.2948 45.1945 45.2737 45.2157 45.2737H45.8558C45.9198 45.2737 45.9411 45.2317 45.9411 45.1685C45.9626 43.6526 45.9626 42.5789 45.9626 41.9895C45.9626 41.4632 45.8986 41.2104 45.7491 41.2104H45.1945C45.1517 41.2104 45.1305 41.1895 45.1305 41.1473V40.8947C45.1305 40.8736 45.1517 40.8527 45.173 40.8527H45.8771C46.0905 40.8527 46.2825 40.8527 46.4105 40.8316C46.7519 40.7896 46.9226 40.7896 46.9439 40.7896C46.9866 40.7896 47.0079 40.8316 47.0079 40.9158V41.821C46.9654 42.0527 46.9654 42.8738 46.9654 44.2423C46.9654 44.9368 47.0294 45.2737 47.1573 45.2737H47.776C47.8187 45.2737 47.8187 45.2948 47.8187 45.3157V45.5051L47.84 45.5054ZM52.5981 44.7051C52.5981 44.7474 52.5126 44.8526 52.3419 44.9788C51.766 45.4 51.1898 45.6105 50.5924 45.6105C50.123 45.6105 49.7604 45.5474 49.5256 45.4211C49.1348 45.2202 48.804 44.9227 48.5656 44.558C48.3734 44.2211 48.2669 43.7789 48.2669 43.2315C48.2669 42.9158 48.3309 42.5789 48.4374 42.2421C48.5441 41.9052 48.7788 41.5684 49.1202 41.2736C49.4617 40.9579 49.9523 40.8104 50.5924 40.8104C51.1898 40.8104 51.6592 40.9999 52.0432 41.3578C52.2779 41.5895 52.3846 41.7998 52.3846 41.9684C52.3846 42.1578 52.3206 42.2632 52.1712 42.2632C51.9152 42.2632 51.7017 42.1789 51.5313 41.9895C51.3818 41.8421 51.2751 41.6315 51.2111 41.379C51.1683 41.2527 51.0831 41.1684 50.9339 41.1264C50.8057 41.1053 50.6992 41.0841 50.6137 41.0841C50.4005 41.0841 50.251 41.1053 50.1658 41.1264C49.9523 41.2104 49.7603 41.3367 49.6324 41.5473C49.4189 41.863 49.3122 42.3264 49.3122 42.8946C49.3122 43.5474 49.4829 44.0737 49.8456 44.5157C50.123 44.8526 50.5497 45.0209 51.1471 45.0209C51.6165 45.0209 52.0219 44.9157 52.3419 44.7051C52.3846 44.6843 52.4274 44.642 52.4913 44.6C52.5341 44.558 52.5766 44.558 52.5981 44.6211V44.7051ZM55.6917 43.3369C55.6917 43.2737 55.6702 43.2315 55.6063 43.2315C55.3716 43.2315 55.1156 43.2946 54.8596 43.4209C54.369 43.6735 54.1128 43.9894 54.1128 44.4106C54.1128 44.6631 54.1768 44.8317 54.3048 44.9368C54.433 45.042 54.5822 45.0842 54.7317 45.0631C55.0089 45.0211 55.2651 44.8526 55.4998 44.5368C55.5635 44.4566 55.6073 44.3629 55.6278 44.2631C55.649 43.9474 55.6917 43.6317 55.6917 43.3369ZM57.6974 45.2105C57.6974 45.2317 57.6759 45.2525 57.6546 45.2948C57.4839 45.4631 57.3132 45.5894 57.1852 45.6525C57.1561 45.679 57.1181 45.694 57.0785 45.6948C56.8225 45.6948 56.5666 45.6105 56.3104 45.4211C56.0332 45.2317 55.8625 45.0211 55.7557 44.7683C55.7345 44.7051 55.713 44.7051 55.6702 44.7474C55.5493 44.9505 55.3901 45.1291 55.2011 45.2737C54.9024 45.5054 54.5822 45.6316 54.2408 45.6316C53.9958 45.6308 53.7546 45.573 53.5366 45.4631C53.3022 45.3368 53.1955 45.1263 53.1955 44.8317C53.1955 44.4948 53.3022 44.2 53.5154 43.9263C53.7289 43.6737 54.0276 43.4632 54.4115 43.3369C54.8169 43.1895 55.2223 43.0632 55.6702 42.9789C55.6917 42.9789 55.713 42.9369 55.713 42.8738C55.7345 42.3686 55.7345 42.0315 55.713 41.8421C55.6917 41.6736 55.6278 41.5264 55.4998 41.4421C55.3503 41.3367 55.1796 41.2736 54.9449 41.2736C54.7102 41.2736 54.5182 41.3158 54.369 41.421C54.3048 41.4632 54.2623 41.5473 54.2623 41.6527V41.8421C54.2623 42.0106 54.2195 42.1578 54.1555 42.2841C54.0488 42.4947 53.8568 42.5789 53.5794 42.5789C53.3662 42.5789 53.2594 42.4947 53.2594 42.3264C53.2594 42.1578 53.3447 41.9684 53.5154 41.7369C53.6861 41.5053 53.8781 41.3367 54.1128 41.2104C54.4755 41.021 54.9024 40.9158 55.393 40.9158C55.841 40.9158 56.1824 41.021 56.4384 41.2316C56.5238 41.2947 56.6091 41.4421 56.6731 41.6104C56.7158 41.779 56.7585 41.9261 56.737 42.0524L56.6306 44.0526C56.6091 44.4314 56.7158 44.7051 56.9505 44.8734C57.1425 45.0211 57.3772 45.1263 57.6546 45.2105C57.6759 45.1685 57.6974 45.1894 57.6974 45.2105ZM63.4368 45.484C63.4368 45.5262 63.4153 45.5471 63.394 45.5471H61.1965C61.1537 45.5471 61.1537 45.5262 61.1537 45.5054V45.2948C61.1537 45.2525 61.175 45.2525 61.1965 45.2525H61.5804C61.6231 45.2525 61.6444 45.2317 61.6659 45.1685C61.7084 44.7474 61.7299 43.9894 61.7299 42.8946C61.7299 42.3264 61.6444 41.9684 61.4952 41.8001C61.3457 41.6315 61.111 41.5264 60.791 41.5264C60.4923 41.5264 60.1722 41.5895 59.8522 41.6947C59.7882 41.7158 59.767 41.7578 59.767 41.8421C59.7455 41.9895 59.7455 42.7892 59.7455 44.242C59.7455 44.9368 59.8095 45.2737 59.9162 45.2737H60.4284C60.4711 45.2737 60.4923 45.2948 60.4923 45.3157V45.5262C60.4923 45.5474 60.4711 45.5685 60.4284 45.5685H57.9961C57.9961 45.5685 57.9746 45.5474 57.9746 45.5262V45.3368C57.9746 45.3157 57.9961 45.2948 58.0173 45.2948H58.6147C58.6787 45.2948 58.7002 45.2525 58.7002 45.1894C58.7214 43.6737 58.7214 42.5789 58.7214 41.9473C58.7214 41.4421 58.6574 41.1895 58.5507 41.1895H57.9533C57.9106 41.1895 57.8893 41.1684 57.8893 41.1264V40.8947C57.8893 40.8736 57.9106 40.8527 57.9321 40.8527H58.6362C58.8494 40.8527 59.0414 40.8527 59.1696 40.8316C59.5108 40.7896 59.6815 40.7896 59.703 40.7896C59.7455 40.7896 59.767 40.8316 59.767 40.9158V41.2947C59.767 41.4001 59.7882 41.4421 59.831 41.421C60.0383 41.2916 60.252 41.1723 60.4711 41.0633C60.7698 40.9158 61.047 40.8527 61.3032 40.8527C61.7511 40.8527 62.0925 40.979 62.3485 41.2104C62.6259 41.4841 62.7752 41.9684 62.7752 42.6209C62.7752 42.8526 62.7752 43.2315 62.7539 43.7789C62.7327 44.3263 62.7327 44.5789 62.7327 44.5789V45.0209C62.7327 45.2103 62.7752 45.2948 62.8392 45.2948H63.3728C63.4153 45.2948 63.4368 45.2948 63.4368 45.3157V45.484ZM71.1176 43.716C71.1176 44.2211 70.9044 44.6631 70.499 45.0631C70.2643 45.2737 70.0083 45.4211 69.7521 45.5051C69.4749 45.5894 69.0907 45.6314 68.6001 45.6314C67.9172 45.6314 67.2558 45.4631 66.6584 45.1474C66.6157 45.1263 66.5732 45.0631 66.5732 44.9368V43.6737C66.5732 43.6315 66.6157 43.6106 66.6797 43.6106H66.8931C66.9571 43.6106 66.9999 43.6315 66.9999 43.6737C66.9999 43.8 66.9999 43.9263 67.0211 44.0317C67.0851 44.3474 67.2346 44.6 67.5118 44.8317C67.7892 45.0631 68.1519 45.1685 68.6213 45.1685C69.2614 45.1685 69.7094 44.958 69.9441 44.558C70.0508 44.3685 70.0935 44.1369 70.0935 43.842C70.0935 43.5683 70.0083 43.358 69.8161 43.1895C69.6241 42.9789 69.2614 42.7895 68.7068 42.6212C68.0879 42.4318 67.5973 42.1789 67.2346 41.8632C66.8719 41.5475 66.6797 41.0841 66.6797 40.4527C66.6797 39.8844 66.9359 39.379 67.4478 38.9788C67.8532 38.6631 68.3654 38.5157 69.0055 38.5157C69.7094 38.5157 70.2643 38.6631 70.6697 38.9791C70.7337 39.0211 70.7549 39.0631 70.7549 39.1262C70.7977 39.3579 70.8189 39.6945 70.8189 40.179C70.8189 40.2422 70.7977 40.2842 70.7762 40.2842H70.5202C70.4775 40.2842 70.4562 40.263 70.4562 40.221C70.435 40.0947 70.3922 39.9685 70.3495 39.8422C70.2855 39.6316 70.1575 39.4633 69.9656 39.337C69.6454 39.1262 69.2402 39.0211 68.728 39.0211C68.3439 39.0211 68.0452 39.1262 67.832 39.3159C67.5973 39.5473 67.4905 39.8422 67.4905 40.1999C67.4905 40.4525 67.6185 40.6842 67.832 40.9158C67.9387 41.0421 68.3439 41.2316 69.0267 41.4841C69.4322 41.6527 69.7309 41.779 69.9016 41.863C70.2003 42.0315 70.4775 42.2001 70.6697 42.4106C70.9684 42.7263 71.1176 43.1477 71.1176 43.716ZM75.3848 44.8948C75.4063 44.9157 75.3848 44.958 75.3208 45.0211C75.1716 45.1474 74.9581 45.2525 74.7022 45.3579C74.338 45.5112 73.946 45.5899 73.5499 45.5894C73.166 45.5894 72.8673 45.4842 72.6538 45.2948C72.4406 45.1054 72.3339 44.8317 72.3339 44.4948C72.3339 44.4526 72.3339 44.0737 72.3551 43.3789C72.3764 42.6843 72.3766 42.3264 72.3766 42.2841C72.3766 41.8421 72.3764 41.5684 72.3551 41.4841C72.3551 41.4421 72.3124 41.379 72.2271 41.2947C72.1204 41.2316 71.9712 41.1684 71.8217 41.1053C71.7577 41.0841 71.7365 41.0421 71.7365 40.979C71.7365 40.9158 71.7577 40.8736 71.8217 40.8527C71.9072 40.8104 72.1204 40.6633 72.4831 40.4107C72.8458 40.1579 73.038 39.9896 73.0805 39.9473C73.1232 39.9053 73.1872 39.8842 73.2512 39.8842C73.3367 39.8842 73.3792 39.9262 73.3579 40.0316C73.3367 40.221 73.3152 40.4316 73.2939 40.6842C73.2939 40.7896 73.2939 40.8316 73.3367 40.8527C73.8273 40.8947 74.4035 40.9367 75.0436 40.9367C75.1076 40.9367 75.1289 40.979 75.1289 41.0421C75.1076 41.1264 75.0861 41.2527 75.0436 41.379C75.0221 41.421 75.0009 41.4421 74.9369 41.4421C74.8941 41.4421 74.6167 41.421 74.126 41.4001C73.6139 41.379 73.3579 41.3578 73.3367 41.3578C73.2939 41.3578 73.2727 41.379 73.2727 41.4421V44.0737C73.2727 44.4948 73.3367 44.7683 73.4647 44.8737C73.5714 44.958 73.8061 45 74.1473 45C74.4675 45 74.7662 44.958 75.0221 44.8526L75.2568 44.7474C75.2996 44.7474 75.3208 44.7894 75.3848 44.8948ZM78.4145 43.3369C78.4145 43.2737 78.3932 43.2315 78.3292 43.2315C78.0945 43.2315 77.8598 43.2946 77.5824 43.4209C77.0917 43.6735 76.8358 43.9894 76.8358 44.4106C76.8358 44.6631 76.8998 44.8317 77.0277 44.9368C77.1557 45.042 77.3052 45.0842 77.4544 45.0631C77.7319 45.0211 77.9878 44.8526 78.2225 44.5368C78.2865 44.4526 78.3292 44.3683 78.3505 44.2631C78.3932 43.9474 78.4145 43.6317 78.4145 43.3369ZM80.4416 45.2105C80.4416 45.2317 80.4201 45.2525 80.3989 45.2948C80.2281 45.4631 80.0574 45.5894 79.9295 45.6525C79.9003 45.679 79.8624 45.694 79.8227 45.6948C79.5668 45.6948 79.3108 45.6105 79.0546 45.4211C78.7774 45.2317 78.6067 45.0211 78.5 44.7683C78.4785 44.7051 78.4572 44.7051 78.4145 44.7474C78.2935 44.9506 78.1342 45.1292 77.9451 45.2737C77.6464 45.5054 77.3264 45.6316 76.985 45.6316C76.7401 45.6308 76.4988 45.573 76.2809 45.4631C76.0462 45.3368 75.9397 45.1263 75.9397 44.8317C75.9397 44.4948 76.0462 44.2 76.2596 43.9263C76.4731 43.6737 76.7718 43.4632 77.1557 43.3369C77.5611 43.1895 77.9666 43.0632 78.4145 42.9789C78.436 42.9789 78.4572 42.9369 78.4572 42.8738C78.4785 42.3686 78.4785 42.0315 78.4572 41.8421C78.436 41.6736 78.372 41.5264 78.244 41.4421C78.0945 41.3367 77.9238 41.2736 77.6891 41.2736C77.4544 41.2736 77.2625 41.3158 77.113 41.421C77.049 41.4632 77.0065 41.5473 77.0065 41.6527V41.8421C77.0065 42.0106 76.9638 42.1578 76.8998 42.2841C76.793 42.4947 76.6011 42.5789 76.3236 42.5789C76.1104 42.5789 76.0037 42.4947 76.0037 42.3264C76.0037 42.1578 76.0889 41.9684 76.2596 41.7369C76.4304 41.5053 76.6223 41.3367 76.857 41.2104C77.2197 41.021 77.6464 40.9158 78.1373 40.9158C78.5852 40.9158 78.9266 41.021 79.1826 41.2316C79.2681 41.2947 79.3533 41.4421 79.4173 41.6104C79.46 41.779 79.5028 41.9261 79.4813 42.0524L79.3748 44.0526C79.3533 44.4314 79.46 44.7051 79.6947 44.8734C79.8867 45.0211 80.1214 45.1263 80.3989 45.2105C80.3989 45.1685 80.4416 45.1894 80.4416 45.2105ZM84.2819 44.8948C84.3034 44.9157 84.2819 44.958 84.2179 45.0211C84.0687 45.1474 83.8552 45.2525 83.5993 45.3579C83.2351 45.5112 82.8431 45.59 82.447 45.5894C82.063 45.5894 81.7644 45.4842 81.5509 45.2948C81.3377 45.1054 81.231 44.8317 81.231 44.4948C81.231 44.4526 81.231 44.0737 81.2522 43.3789C81.2737 42.6843 81.2737 42.3264 81.2737 42.2841C81.2737 41.8421 81.2737 41.5684 81.2522 41.4841C81.2522 41.4421 81.2097 41.379 81.1242 41.2947C80.9911 41.2275 80.8559 41.1643 80.7188 41.1053C80.6548 41.0841 80.6336 41.0421 80.6336 40.979C80.6336 40.9158 80.6548 40.8736 80.7188 40.8527C80.8043 40.8104 81.0175 40.6633 81.3802 40.4107C81.7431 40.1579 81.9351 39.9896 81.9778 39.9473C82.0203 39.9053 82.0843 39.8842 82.1483 39.8842C82.2338 39.8842 82.2765 39.9262 82.255 40.0316C82.2338 40.221 82.2125 40.4316 82.191 40.6842C82.1698 40.7896 82.191 40.8316 82.2338 40.8527C82.7244 40.8947 83.3006 40.9367 83.9407 40.9367C84.0047 40.9367 84.0259 40.979 84.0259 41.0421C84.0047 41.1264 83.9832 41.2527 83.9407 41.379C83.9192 41.421 83.8979 41.4421 83.834 41.4421C83.7912 41.4421 83.5138 41.421 83.0231 41.4001C82.5112 41.379 82.255 41.3578 82.2338 41.3578C82.191 41.3578 82.1698 41.379 82.1698 41.4421V44.0737C82.1698 44.4948 82.2338 44.7683 82.3617 44.8737C82.4685 44.958 82.7032 45 83.0446 45C83.3645 45 83.6632 44.958 83.9192 44.8526L84.1539 44.7474C84.1966 44.7474 84.2394 44.7894 84.2819 44.8948ZM87.8877 42.1369C87.8877 42.1369 87.8665 42.0947 87.8452 42.0106C87.7925 41.921 87.7427 41.8297 87.6957 41.7369C87.6105 41.6315 87.5038 41.5264 87.3543 41.4001C87.1411 41.2316 86.9064 41.1475 86.6502 41.1475C86.437 41.1475 86.245 41.2738 86.0743 41.5053C86.0103 41.5895 85.9463 41.7369 85.9036 41.9473C85.8396 42.1578 85.8181 42.3261 85.8181 42.4524C85.8181 42.5158 85.8396 42.5578 85.8608 42.5578C86.0528 42.5578 86.2875 42.5369 86.6077 42.5158C86.7144 42.5158 86.9276 42.4738 87.2478 42.3895C87.5678 42.3264 87.7597 42.2632 87.8665 42.2421C87.8665 42.2001 87.8877 42.1789 87.8877 42.1369ZM89.104 44.7474C89.104 44.7685 89.0827 44.7894 89.0827 44.8105C88.848 45.042 88.5493 45.2317 88.1864 45.4C87.8107 45.5659 87.4035 45.6519 86.9916 45.6525C86.3515 45.6525 85.8396 45.4842 85.4769 45.1263C85.05 44.7263 84.8153 44.2 84.7728 43.5474C84.7513 43.2106 84.794 42.8738 84.8795 42.5158C85.0075 42.0106 85.2422 41.6104 85.5409 41.3367C85.8821 41.021 86.2663 40.8736 86.7357 40.8736C87.0984 40.8736 87.461 40.9367 87.8237 41.063C88.1439 41.1893 88.4211 41.3578 88.6773 41.6104C88.848 41.779 88.9973 41.9473 89.0612 42.0735C89.0827 42.1158 89.104 42.1578 89.104 42.221C89.104 42.2632 89.0827 42.2841 89.0185 42.3264C88.9545 42.3475 88.7413 42.3895 88.3571 42.4738C87.9732 42.5578 87.717 42.6001 87.6318 42.6209C87.4183 42.6421 87.2263 42.6841 87.0131 42.7263C86.6077 42.7895 86.3515 42.8106 86.2235 42.8106H85.7968C85.7541 42.8106 85.7541 42.8946 85.7541 43.0632C85.7756 43.7157 85.9888 44.242 86.3302 44.6631C86.4582 44.7894 86.6502 44.9157 86.9276 44.9788C87.1836 45.042 87.4183 45.0842 87.6745 45.0631C88.0584 45.0631 88.3571 45 88.5918 44.8737C88.7413 44.7894 88.848 44.7263 88.912 44.6631C88.9333 44.6631 88.9333 44.642 88.9545 44.642C88.976 44.642 88.9973 44.6631 89.0612 44.7051C89.0827 44.7263 89.104 44.7263 89.104 44.7474ZM15.2598 32.979C16.4333 36.6209 9.05123 36.958 12.3369 40.1999C12.4436 39.6316 13.2115 38.8739 13.8516 39.3999C17.4789 42.0527 22.6209 41.5895 24.9677 46.4316C26.7174 48.1578 26.3117 49.3789 27.8909 51.1683C27.7842 51.6317 28.1896 51.9263 28.0189 52.3894C27.8909 52.3894 27.72 52.4525 27.6135 52.2631C27.2721 52.5579 27.2721 53.1262 27.5068 53.4842C24.5623 52.8948 22.1728 50.1158 18.4817 50.8735C18.1403 51.5051 17.5429 52.0948 17.3722 52.7685L21.5754 52.9368L21.4684 65H14.8546C14.8546 61.3158 15.5588 57.1474 14.5557 53.9264C14.0863 51.9685 16.4333 52.7053 16.8388 51.1474C17.0735 50.9789 17.1375 50.7474 17.0735 50.4528C13.8518 48.4947 9.98981 46.4736 8.9445 42.5369C8.9445 42.2421 9.00849 41.8421 8.64556 41.6736C7.8777 42.9369 6.83215 44.0948 6.29875 45.4208C5.42416 44.4948 6.64018 43.6946 6.70392 42.8315C8.4111 39.4211 9.52039 35.7789 10.6299 32.1579C11.2061 31.4634 11.9102 31.1685 12.7423 31.0631C13.8516 30.6631 14.9186 32.1157 15.2598 32.979Z" fill="#004D71"/>
</g>
</g>
<defs>
<clipPath id="clip0_1_5608">
<rect width="84" height="34" fill="white" transform="translate(6 31)"/>
</clipPath>
</defs>
</svg>
