<svg width="96" height="96" viewBox="0 0 96 96" fill="none" xmlns="http://www.w3.org/2000/svg">
<circle cx="48" cy="48" r="47" fill="white" stroke="white" stroke-width="2"/>
<path d="M19 19V68.7214L26.7972 77.0002H76.9928V19H19Z" fill="white"/>
<path d="M77 57.9542V19.0049H39.2225C48.0748 22.1826 56.082 27.3451 62.6303 34.0965C69.1785 40.8479 74.094 49.009 77 57.9542Z" fill="#F93822"/>
<path d="M72.8289 77.0001H24.3112C22.9025 77.0001 21.5516 76.4405 20.5556 75.4445C19.5596 74.4484 19 73.0975 19 71.6889V22.5693C30.9132 22.6367 42.4687 26.6475 51.8618 33.9753L40.5615 47.6929L25.9841 48.0516L33.9607 56.9543L23.5275 72.7747L41.6326 64.5623L52.4416 72.7772V58.6886L65.5402 49.6533C70.3206 57.8871 72.833 67.2409 72.8215 76.7618L72.8289 77.0001ZM52.4391 34.4445V47.6954L64.5207 47.9853C61.2762 42.8314 57.1927 38.2563 52.4391 34.4494" fill="#0050B5"/>
</svg>
