<svg width="96" height="96" viewBox="0 0 96 96" fill="none" xmlns="http://www.w3.org/2000/svg">
<circle cx="48" cy="48" r="47" fill="white" stroke="white" stroke-width="2"/>
<g clip-path="url(#clip0_1_7711)">
<path d="M58.3978 50.9285C57.0444 50.3013 56.5394 48.8446 57.1858 47.4689C57.711 46.3562 58.8017 45.8707 60.9833 45.7695C61.9529 45.729 62.7407 45.6077 62.7407 45.5065C62.7407 44.7579 60.2965 44.4545 58.721 45.0209L57.8928 45.3042V42.9169L58.8623 42.755C59.3875 42.6741 60.6399 42.5932 61.6499 42.6134C63.1648 42.6134 63.6496 42.6944 64.4576 43.1192C66.1342 43.9487 66.2756 44.2724 66.3362 47.8735L66.3968 50.9892H64.5788C62.7407 50.9892 62.7407 50.9892 62.7407 50.4631V49.9574L62.0135 50.5036C61.1449 51.1712 59.3875 51.3735 58.3978 50.9285ZM62.2357 48.6626C62.5185 48.3996 62.7407 47.9949 62.7407 47.7522C62.7407 47.4285 62.6195 47.3475 62.0741 47.3475C60.8419 47.3475 60.0137 48.44 60.8823 48.9458C61.4277 49.2695 61.7105 49.2088 62.2357 48.6626ZM45.3691 45.4256V39.8215L49.5706 39.9024C54.2569 39.9834 54.9436 40.1452 55.6708 41.3186C56.4586 42.6134 55.9738 44.3331 54.6406 45.0209L54.0145 45.3649L54.6811 45.6886C55.7112 46.2146 56.3374 47.2666 56.2162 48.2984C56.095 49.3707 55.6708 50.0585 54.8022 50.5238C54.2569 50.8273 53.5095 50.888 49.7726 50.9487L45.3691 51.0094V45.4256ZM51.2875 48.5412C51.8127 48.2579 52.0349 47.9747 52.0349 47.5094C52.0349 46.862 51.4491 46.5383 50.2978 46.5383H49.207V47.5094C49.207 48.0556 49.2676 48.5614 49.3484 48.6221C49.5504 48.8446 50.8027 48.784 51.2875 48.5412ZM51.4491 43.9082C51.8935 43.6655 51.9743 42.7146 51.5905 42.3302C51.4491 42.1886 50.8633 42.0874 50.2776 42.0874H49.207V44.1105H50.1362C50.6412 44.1105 51.2269 44.0094 51.4491 43.9082ZM67.4269 46.9024L67.4875 42.7955L69.3661 42.7348L71.2244 42.6741V43.2001C71.2244 43.8273 71.3254 43.8273 72.0526 43.2204C73.1838 42.2695 75.3047 42.3707 76.2945 43.4227C76.7591 43.9285 76.7793 44.0498 76.8399 47.4689L76.9005 50.9892H72.8606L72.8 48.1163C72.7394 45.4458 72.7192 45.2233 72.3556 45.1626C71.6082 45.0007 71.4264 45.6481 71.4264 48.3996V50.9892H67.3865L67.4269 46.9024ZM78.2943 45.0209V39.0527H82.1322V42.3909C82.1322 44.2319 82.213 45.729 82.2938 45.729C82.3948 45.729 82.9402 45.0412 83.5259 44.2117L84.5763 42.6944H86.7983C88.5354 42.6944 88.9798 42.755 88.8586 42.9574C88.7778 43.0787 88.2122 43.8475 87.6264 44.6163C87.0205 45.4053 86.4751 46.1539 86.4347 46.2753C86.3741 46.4169 86.9397 47.4689 87.6668 48.6221C88.394 49.7753 89 50.7868 89 50.8475C89 50.9285 87.9698 50.9892 86.7377 50.9892H84.4551L83.4653 49.1683C82.92 48.1568 82.3948 47.3475 82.2938 47.3475C82.213 47.3475 82.1322 48.177 82.1322 49.1683V50.9892H78.2943V45.0209Z" fill="#003F2D"/>
<path d="M8 47.3476V35.0066H37.2893V59.6887H8V47.3476ZM19.5137 48.258V42.0875H23.8162C27.7551 42.0875 28.1591 42.128 28.7651 42.4921C30.0377 43.2609 30.6638 45.9719 30.2598 48.8043C29.8155 51.7783 28.9267 52.4661 25.7352 52.365L23.8566 52.3043L23.796 47.6106L23.7556 42.8968H20.3217V54.469L25.1292 54.3881L29.9165 54.3274L31.088 53.7609C32.9666 52.8303 33.7948 51.2118 33.9968 48.0557C34.118 46.0731 33.8352 43.8476 33.31 42.8158C32.8656 41.9257 32.0576 41.1164 31.1284 40.6106C30.3406 40.1656 30.1185 40.1656 20.6853 40.1049L11.0299 40.0442V42.0875H16.0798V54.4286H19.5137V48.258Z" fill="#54B848"/>
</g>
<defs>
<clipPath id="clip0_1_7711">
<rect width="81" height="24.6951" fill="white" transform="translate(8 35)"/>
</clipPath>
</defs>
</svg>
