<svg width="96" height="96" viewBox="0 0 96 96" fill="none" xmlns="http://www.w3.org/2000/svg">
<circle cx="48" cy="48" r="47" fill="white" stroke="white" stroke-width="2"/>
<g clip-path="url(#clip0_1_9498)">
<path d="M11 51.4402H13.3884C14.7813 51.4402 15.6325 52.2493 15.6325 53.4199V53.4356C15.6325 54.7617 14.581 55.4498 13.2698 55.4498H12.2824V57.1687H11V51.4402ZM13.3034 54.328C13.9446 54.328 14.3229 53.9525 14.3229 53.4607V53.445C14.3229 52.8794 13.9222 52.5777 13.2794 52.5777H12.2824V54.328H13.3034Z" fill="#0F3C60"/>
<path d="M16.6552 51.4402H19.3353C20.0775 51.4402 20.6546 51.6444 21.0377 52.0215C21.2042 52.1958 21.3337 52.4009 21.4184 52.6249C21.5032 52.8488 21.5416 53.087 21.5314 53.3256V53.3413C21.5503 53.7311 21.4378 54.1161 21.2113 54.437C20.9847 54.7579 20.6567 54.9968 20.2779 55.1167L21.7061 57.1593H20.2025L18.9506 55.332H17.9408V57.1656H16.6584L16.6552 51.4402ZM19.2424 54.2212C19.8691 54.2212 20.2282 53.8944 20.2282 53.412V53.3947C20.2282 52.8558 19.8451 52.5777 19.2183 52.5777H17.936V54.2212H19.2424Z" fill="#0F3C60"/>
<path d="M25.8673 51.4402H27.2523L28.7927 53.8582L30.3251 51.4402H31.7117V57.1687H30.4293V53.4246L28.7927 55.8725H28.759L27.1304 53.4497V57.1656H25.8673V51.4402Z" fill="#0F3C60"/>
<path d="M33.2537 51.4402H37.6618V52.5604H34.5313V53.7231H37.2883V54.8434H34.5313V56.0469H37.7035V57.1687H33.2537V51.4402Z" fill="#0F3C60"/>
<path d="M42.1773 51.396H43.3635L45.8673 57.1654H44.524L43.9887 55.8801H41.5185L40.9831 57.1654H39.6735L42.1773 51.396ZM43.5302 54.7677L42.7544 52.909L41.977 54.7677H43.5302Z" fill="#0F3C60"/>
<path d="M46.9974 51.4402H48.2797V56.0217H51.1923V57.1687H46.9974V51.4402Z" fill="#0F3C60"/>
<path d="M52.356 51.4402H53.6384V56.0217H56.5525V57.1687H52.356V51.4402Z" fill="#0F3C60"/>
<path d="M57.7387 51.4402H59.0211V57.1687H57.7387V51.4402Z" fill="#0F3C60"/>
<path d="M62.6709 51.396H63.8555L66.3609 57.1654H65.0192L64.4855 55.8801H62.0105L61.4767 57.1654H60.1655L62.6709 51.396ZM64.0222 54.7677L63.2464 52.909L62.4706 54.7677H64.0222Z" fill="#0F3C60"/>
<path d="M67.4894 51.4402H68.6756L71.4135 54.9659V51.4402H72.683V57.1687H71.5914L68.7622 53.5267V57.1687H67.4926L67.4894 51.4402Z" fill="#0F3C60"/>
<path d="M73.9236 54.3168V54.3011C73.9164 53.9081 73.9903 53.5178 74.1411 53.1536C74.2919 52.7894 74.5163 52.4589 74.8009 52.182C75.0855 51.9052 75.4243 51.6876 75.797 51.5425C76.1696 51.3975 76.5684 51.3278 76.9692 51.3379C78.0705 51.3379 78.7325 51.6977 79.2727 52.2224L78.4552 53.1463C78.0047 52.7456 77.5447 52.5005 76.9612 52.5005C75.9754 52.5005 75.2653 53.3018 75.2653 54.2838V54.3011C75.2653 55.2831 75.9594 56.1001 76.9612 56.1001C77.628 56.1001 78.0384 55.8393 78.4968 55.4292L79.3143 56.2399C79.0204 56.5772 78.6521 56.8446 78.2372 57.0218C77.8223 57.199 77.3717 57.2814 76.9195 57.2628C76.5236 57.269 76.1304 57.1969 75.7634 57.051C75.3964 56.905 75.0632 56.6881 74.7836 56.4131C74.504 56.1382 74.2838 55.8109 74.136 55.4507C73.9883 55.0906 73.9161 54.7049 73.9236 54.3168Z" fill="#0F3C60"/>
<path d="M80.5502 51.4402H84.9583V52.5604H81.8278V53.7231H84.5832V54.8434H81.8278V56.0469H85V57.1687H80.5502V51.4402Z" fill="#0F3C60"/>
<path d="M39.6735 58.8766H41.1017C41.4062 58.8574 41.706 58.9574 41.9353 59.1547C42.0052 59.2218 42.0603 59.3024 42.097 59.3913C42.1337 59.4803 42.1512 59.5757 42.1485 59.6716V59.6795C42.1517 59.8267 42.1101 59.9715 42.029 60.0955C41.9479 60.2194 41.831 60.3169 41.6932 60.3755C42.0667 60.5012 42.3344 60.7102 42.3344 61.1344V61.1438C42.3344 61.7016 41.8648 62.0001 41.1562 62.0001H39.6815L39.6735 58.8766ZM40.9879 60.1933C41.3486 60.1933 41.589 60.055 41.589 59.769C41.589 59.5239 41.3887 59.3715 41.0296 59.3715H40.2281V60.2011L40.9879 60.1933ZM41.1482 61.5131C41.5297 61.5131 41.7622 61.3669 41.7622 61.0857V61.0763C41.7622 60.8139 41.5474 60.6568 41.1066 60.6568H40.2185V61.5131H41.1482Z" fill="#0F3C60"/>
<path d="M45.2229 58.8545H45.7407L47.1432 61.9969H46.5518L46.2312 61.2427H44.7244L44.4038 61.9969H43.83L45.2229 58.8545ZM46.0244 60.7603L45.4746 59.5112L44.928 60.7603H46.0244Z" fill="#0F3C60"/>
<path d="M48.8616 58.8765H49.3809L51.0881 61.0368V58.8765H51.6379V62H51.1698L49.4066 59.7783V62H48.8616V58.8765Z" fill="#0F3C60"/>
<path d="M53.6832 58.8765H54.2443V60.4476L55.759 58.8765H56.4467L55.1211 60.2198L56.506 62H55.828L54.7396 60.5953L54.2443 61.0934V62H53.6832V58.8765Z" fill="#0F3C60"/>
<path d="M52.707 40.3744L46.4459 34.2374C46.2909 34.0857 46.0807 34.0005 45.8616 34.0005C45.6426 34.0005 45.4324 34.0857 45.2774 34.2374L39.2118 40.2173C39.0821 40.3453 39.0093 40.5184 39.0093 40.6988C39.0093 40.8793 39.0821 41.0524 39.2118 41.1804L45.2902 47.2153C45.4451 47.366 45.6546 47.4506 45.8729 47.4506C46.0912 47.4506 46.3006 47.366 46.4555 47.2153L48.8744 44.8585C48.9094 44.8238 48.9291 44.777 48.9291 44.7281C48.9291 44.6793 48.9094 44.6324 48.8744 44.5977L47.5455 43.2968C47.5102 43.2629 47.4627 43.2439 47.4133 43.2439C47.3639 43.2439 47.3164 43.2629 47.2811 43.2968L45.9714 44.5804C45.9562 44.594 45.9389 44.6051 45.9202 44.6134C45.8983 44.6218 45.8745 44.6241 45.8513 44.6202C45.8282 44.6164 45.8065 44.6064 45.7887 44.5914L41.8358 40.6981L45.7695 36.8754C45.7945 36.8519 45.8278 36.8389 45.8624 36.8389C45.8971 36.8389 45.9304 36.8519 45.9554 36.8754L51.3589 42.1373C51.3764 42.1545 51.3971 42.1681 51.4199 42.1774C51.4428 42.1867 51.4673 42.1915 51.492 42.1915C51.5167 42.1915 51.5412 42.1867 51.564 42.1774C51.5869 42.1681 51.6076 42.1545 51.625 42.1373L52.707 41.0704C52.7997 40.9774 52.8517 40.8525 52.8517 40.7224C52.8517 40.5923 52.7997 40.4674 52.707 40.3744Z" fill="#0F3C60"/>
<path d="M59.5853 41.1755C59.7133 41.0482 59.7851 40.8766 59.7851 40.6978C59.7851 40.5191 59.7133 40.3475 59.5853 40.2202L53.5742 34.2372C53.4977 34.1619 53.4067 34.1022 53.3066 34.0615C53.2065 34.0207 53.0992 33.9998 52.9907 33.9998C52.8823 33.9998 52.775 34.0207 52.6749 34.0615C52.5748 34.1022 52.4838 34.1619 52.4073 34.2372L50.0349 36.5625C50.0004 36.5971 49.981 36.6437 49.981 36.6921C49.981 36.7406 50.0004 36.7871 50.0349 36.8217L51.3622 38.1227C51.3795 38.1398 51.4 38.1534 51.4227 38.1627C51.4454 38.172 51.4698 38.1768 51.4944 38.1768C51.519 38.1768 51.5434 38.172 51.5661 38.1627C51.5888 38.1534 51.6093 38.1398 51.6266 38.1227L52.8978 36.8767C52.9228 36.8533 52.9561 36.8402 52.9907 36.8402C53.0254 36.8402 53.0587 36.8533 53.0837 36.8767L57.0045 40.6978L53.0757 44.5787C53.0514 44.601 53.0193 44.6134 52.9859 44.6134C52.9526 44.6134 52.9205 44.601 52.8962 44.5787L52.885 44.5692L47.491 39.3058C47.4556 39.2714 47.4078 39.2522 47.358 39.2522C47.3082 39.2522 47.2604 39.2714 47.225 39.3058L46.135 40.3742C46.0404 40.4672 45.9873 40.5932 45.9873 40.7246C45.9873 40.8559 46.0404 40.9819 46.135 41.0749L52.4009 47.2025C52.4778 47.2816 52.5703 47.3443 52.6729 47.387C52.7754 47.4297 52.8858 47.4514 52.9972 47.4508C53.051 47.4511 53.1047 47.4458 53.1575 47.4351C53.3192 47.4051 53.4678 47.3279 53.5838 47.2135L59.5853 41.1755Z" fill="#CF3438"/>
<path d="M22.8185 59.7988V61.1013H37.7035V59.7988H22.8185Z" fill="#CF3438"/>
<path d="M72.4522 59.7988H57.7387V61.1013H72.4522V59.7988Z" fill="#CF3438"/>
<path d="M23.0221 51.4402H24.3045V57.1687H23.0221V51.4402Z" fill="#0F3C60"/>
</g>
<defs>
<clipPath id="clip0_1_9498">
<rect width="74" height="28" fill="white" transform="translate(11 34)"/>
</clipPath>
</defs>
</svg>
