<svg width="96" height="96" viewBox="0 0 96 96" fill="none" xmlns="http://www.w3.org/2000/svg">
<circle cx="48" cy="48" r="47" fill="white" stroke="white" stroke-width="2"/>
<path d="M77 19H19V77H77V19Z" fill="#0D9EDA"/>
<path fill-rule="evenodd" clip-rule="evenodd" d="M64.6946 45.9509C64.6946 46.9968 63.4766 47.9477 62.3873 47.9477C61.682 47.9477 61.1055 47.5035 61.1055 47.2339C61.1055 47.0763 61.1536 46.5527 61.3943 46.5527C61.7951 46.5527 62.1598 47.3748 62.9446 47.3748C63.432 47.3748 63.8882 47.0426 63.8882 46.5551C63.8882 45.8642 62.6762 45.2059 62.6762 44.113C62.6762 42.972 63.9267 41.5782 65.0641 41.5782C65.6406 41.5782 65.8813 41.9116 65.8813 42.1957C65.8813 42.434 65.6719 42.7193 65.3686 42.7193C64.9197 42.7193 64.6428 42.3847 64.1939 42.3847C63.7028 42.3847 63.4212 42.712 63.4212 43.2621C63.42 44.0793 64.6946 44.8267 64.6946 45.9509Z" fill="white"/>
<path fill-rule="evenodd" clip-rule="evenodd" d="M41.7503 46.2566C41.1148 47.0041 40.2242 47.9477 39.3347 47.9477C38.9821 47.9477 38.8858 47.7744 38.8858 47.5035C38.8858 46.7272 40.4878 44.0817 40.4878 43.0996C40.4878 42.7831 40.3758 42.6242 40.04 42.6242C39.0459 42.6242 36.9961 45.1914 36.2583 47.6155C36.2102 47.7744 36.0826 47.8213 35.7131 47.8213C35.3292 47.8213 35.2642 47.7744 35.2642 47.6311C35.2642 47.3772 36.7229 43.8603 37.3957 41.9429C37.9734 40.3109 38.4525 39.0724 38.4525 38.739C38.4525 38.5657 38.3526 38.4585 38.0493 38.4104C37.9301 38.3923 37.6942 38.3875 37.6256 38.3731C37.61 38.3707 37.6003 38.3562 37.6003 38.3394V38.0926C37.6003 38.0734 37.616 38.0577 37.6352 38.0577H39.5249C39.685 38.0577 39.7331 38.089 39.7331 38.201C39.7331 38.3117 39.3022 39.6128 38.3887 41.9586C37.7472 43.6063 37.4114 44.2238 37.5558 44.2238C37.7159 44.2238 39.3022 41.5783 40.649 41.5783C41.1931 41.5783 41.5457 41.9261 41.5457 42.7036C41.5457 43.9554 40.2627 46.442 40.2627 46.7272C40.2627 46.8536 40.3277 46.9017 40.4878 46.9017C40.7261 46.9017 41.2725 46.3168 41.5445 46.034C41.5626 46.0171 41.5854 46.0231 41.5975 46.0352L41.7491 46.2097C41.7636 46.2253 41.76 46.2446 41.7503 46.2566Z" fill="white"/>
<path fill-rule="evenodd" clip-rule="evenodd" d="M35.0199 46.5034C34.8623 46.8115 33.8127 47.9477 32.5321 47.9477C31.2515 47.9477 30.8206 46.9968 30.7821 46.1736C30.6629 43.6857 33.6069 41.5782 35.3064 41.5782C36.1549 41.5782 36.4847 42.1163 36.5052 42.5291C36.5172 42.783 36.3018 42.9732 36.1092 42.9732C35.5965 42.9732 35.4352 41.9586 34.7636 41.9586C33.7862 41.9586 31.834 44.7004 31.9038 46.1736C31.9423 46.9812 32.5032 47.3146 33.0159 47.3146C33.5925 47.3146 34.1028 46.9186 34.4121 46.6803C34.5975 46.5443 34.8105 46.3385 34.843 46.3132C34.8562 46.3036 34.8779 46.3048 34.8899 46.3204L35.0151 46.4648C35.0247 46.4769 35.0247 46.4913 35.0199 46.5034Z" fill="white"/>
<path fill-rule="evenodd" clip-rule="evenodd" d="M48.9611 43.3343L49.0814 43.4727C49.0947 43.4883 49.12 43.4871 49.1332 43.4703C49.1476 43.4534 49.1717 43.4245 49.1922 43.4005C49.416 43.1309 49.93 42.4665 50.202 42.4665C50.3452 42.4665 50.4259 42.6085 50.4259 42.8468C50.4259 43.7495 48.9202 47.394 48.9202 47.6468C48.9202 47.7743 48.9683 47.8213 49.0646 47.8213H49.6255C49.7374 47.8213 49.7699 47.7575 49.8493 47.583C49.8493 47.583 50.125 46.9342 50.2826 46.6165C51.4381 44.2815 52.0303 43.1959 52.484 42.7602C53.4722 41.8117 53.3458 42.7253 53.8116 42.7541C54.1341 42.7734 54.3291 42.4292 54.3291 42.0633C54.3291 41.6456 54.027 41.5217 53.8068 41.5217C52.892 41.5217 52.2662 42.3497 51.1312 44.3032C51.0349 44.462 50.9879 44.5571 50.9386 44.5571C50.9061 44.5571 50.858 44.5415 50.858 44.4464C50.858 44.2887 51.3863 42.4027 51.3863 42.038C51.3863 41.7058 51.2263 41.5782 50.9386 41.5782C50.3873 41.5782 49.2969 42.7481 48.9587 43.2934C48.9503 43.3054 48.9515 43.3222 48.9611 43.3343Z" fill="white"/>
<path fill-rule="evenodd" clip-rule="evenodd" d="M43.6268 47.0606C43.3379 47.0606 43.1622 46.9342 43.1622 46.4263C43.1622 44.6835 44.6354 42.0223 46.1098 42.0223C46.655 42.0223 46.8801 42.4183 46.8801 42.8468C46.8789 43.6063 44.8593 47.0606 43.6268 47.0606ZM48.1728 41.713L47.8261 41.4988C47.7864 41.4771 47.7286 41.4398 47.6829 41.4554C47.5036 41.5144 47.4771 41.8165 47.2628 41.8165C47.0378 41.8165 46.8139 41.7058 46.3818 41.7058C43.5461 41.7058 42.103 45.4767 42.103 46.7284C42.103 47.5517 42.552 47.9488 43.0647 47.9488C43.705 47.9488 44.4693 47.6191 45.4623 46.1772C45.7186 45.8137 45.7283 45.7342 45.792 45.7342C45.8402 45.7342 45.8727 45.7824 45.8727 45.845C45.8727 45.9713 45.437 46.744 45.437 47.3783C45.437 47.7755 45.5971 47.9488 45.9172 47.9488C46.7212 47.9488 47.6684 46.7705 48.0199 46.253C48.0295 46.2385 48.0259 46.2205 48.0175 46.2121L47.8646 46.0351C47.8478 46.0183 47.8273 46.0195 47.8153 46.0327C47.5011 46.3517 46.9764 47.0931 46.6863 47.0931C46.5587 47.0931 46.4949 47.0461 46.4949 46.8235C46.4949 46.2975 48.2245 42.1656 48.2522 41.8695C48.2558 41.8141 48.2377 41.7467 48.1728 41.713Z" fill="white"/>
<path fill-rule="evenodd" clip-rule="evenodd" d="M58.5803 43.8278C58.7729 43.4631 59.7658 41.8948 60.6156 41.8948C60.9526 41.8948 61.1777 42.1789 61.1777 42.4966C61.1764 43.3536 60.0703 43.8121 58.5803 43.8278ZM60.7155 46.4624L60.5843 46.3144C60.571 46.3 60.5506 46.3 60.5385 46.3084C60.2316 46.5262 59.4722 47.187 58.7416 47.187C58.0676 47.187 57.6836 46.7429 57.6836 46.1098C57.6836 45.2697 58.0844 44.6197 58.3733 44.1768C58.5803 44.1937 58.7416 44.2093 59.093 44.2093C60.0703 44.2093 62.0743 43.7808 62.0743 42.5772C62.0743 42.0705 61.6254 41.5795 60.8238 41.5795C59.0605 41.5795 56.4656 43.9879 56.4656 46.2542C56.4656 47.2833 57.1384 47.9489 58.1157 47.9489C59.2615 47.9489 60.4194 46.8909 60.7179 46.5058C60.7299 46.4901 60.7215 46.4709 60.7155 46.4624Z" fill="white"/>
<path fill-rule="evenodd" clip-rule="evenodd" d="M56.0045 46.2734C55.4834 46.921 54.6589 47.9476 53.9271 47.9476C53.4144 47.9476 53.1556 47.6624 53.1809 47.1244C53.2206 46.3264 54.8924 42.2643 55.014 41.9609C55.6687 40.3289 56.1887 39.0807 56.2043 38.7486C56.2139 38.574 56.1177 38.4669 55.818 38.42C55.6892 38.3995 55.4629 38.3971 55.3955 38.3827C55.3811 38.3803 55.3714 38.3646 55.3714 38.349L55.3835 38.1022C55.3847 38.083 55.4015 38.0673 55.4196 38.0673H57.3104C57.4705 38.0673 57.5174 38.0998 57.5114 38.2105C57.5066 38.3213 56.9698 39.6079 56.0466 41.991C55.239 44.0769 54.4025 46.3769 54.3833 46.7922C54.3737 46.9667 54.435 47.0305 54.5951 47.0305C54.8611 47.0305 55.2029 46.6827 55.7915 46.0351C55.8071 46.0195 55.8348 46.0207 55.8444 46.0351L56.0045 46.2301C56.0069 46.2337 56.0202 46.253 56.0045 46.2734Z" fill="white"/>
<path fill-rule="evenodd" clip-rule="evenodd" d="M33.1339 52.147C32.9654 51.609 32.6741 50.959 31.8845 50.959C31.2647 50.959 30.9265 51.4043 30.9265 51.9339C30.9265 52.4539 31.302 52.7981 32.0266 53.1231L32.2709 53.235C33.0027 53.56 33.6791 54.051 33.6791 55.0175C33.6791 56.1224 32.8065 56.9024 31.5379 56.9024C31.1816 56.9024 30.8422 56.8277 30.5991 56.7447C30.3367 56.6604 30.167 56.587 30.0551 56.5497C29.9804 56.309 29.8673 55.6771 29.7722 55.1114L30.0551 55.0187C30.2428 55.5014 30.7507 56.5317 31.716 56.5317C32.3274 56.5317 32.703 56.0586 32.703 55.4821C32.703 54.9622 32.449 54.5915 31.7076 54.228L31.4067 54.0799C30.7868 53.7634 29.9973 53.2723 29.9973 52.3612C29.9973 51.3863 30.7399 50.5871 31.9989 50.5871C32.2516 50.5871 32.5898 50.6244 32.8534 50.7171C33.0039 50.7725 33.1351 50.7917 33.2482 50.8374C33.2855 51.1636 33.3409 51.5716 33.436 52.0916L33.1339 52.147Z" fill="white"/>
<path fill-rule="evenodd" clip-rule="evenodd" d="M39.614 52.3335C39.3131 51.2744 38.7221 50.959 37.8483 50.959C36.3077 50.959 35.6132 52.2312 35.6132 53.6057C35.6132 55.3329 36.4762 56.5305 37.8483 56.5305C38.8617 56.5305 39.3323 56.0105 39.8198 55.026L40.0834 55.0813C39.9702 55.5279 39.7632 56.2705 39.6128 56.6232C39.3504 56.6978 38.5043 56.9012 37.8471 56.9012C35.3858 56.9012 34.3904 55.3136 34.3904 53.8453C34.3904 51.8954 35.9117 50.5847 38.0156 50.5847C38.8232 50.5847 39.4431 50.7713 39.7055 50.8266C39.7813 51.3466 39.8186 51.7558 39.8752 52.2938L39.614 52.3335Z" fill="white"/>
<path fill-rule="evenodd" clip-rule="evenodd" d="M43.1644 50.7267V50.9867C42.4688 51.0421 42.3941 51.1155 42.3941 52.1193V53.3638H45.2491V52.1193C45.2491 51.1155 45.1745 51.0421 44.4607 50.9867V50.7267H47.1279V50.9867C46.3768 51.0421 46.301 51.1155 46.301 52.1193V55.3702C46.301 56.3728 46.3756 56.4486 47.1086 56.504V56.764H44.3849V56.504C45.1732 56.4486 45.2479 56.3728 45.2479 55.3702V53.7911H42.3929V55.3702C42.3929 56.3728 42.4688 56.4486 43.2006 56.504V56.764H40.5153V56.504C41.2664 56.4486 41.341 56.3728 41.341 55.3702V52.1193C41.341 51.1155 41.2664 51.0421 40.478 50.9867V50.7267H43.1644Z" fill="white"/>
<path fill-rule="evenodd" clip-rule="evenodd" d="M52.283 50.8014L53.9163 55.2222H53.9356C54.2822 54.0703 54.7335 52.3432 54.884 51.7486C55.0344 51.1721 54.961 51.0445 54.5602 51.0108C54.4928 51.006 54.2365 50.9867 54.2365 50.9867V50.7267H56.3957V50.9867C55.7855 51.0421 55.7109 51.0987 55.41 51.934C55.2691 52.3239 54.6024 54.2557 53.8224 56.8374H53.4084L51.8136 52.4912H51.7932L50.3284 56.8374H49.9156L48.3653 51.8966C48.1126 51.0987 47.9429 51.0421 47.4446 50.9867V50.7267H49.9806V50.9867C49.9806 50.9867 49.7434 51 49.6905 51.0072C49.3523 51.0529 49.2379 51.1191 49.38 51.5994L50.4692 55.221H50.4873L51.9159 50.8002H52.283V50.8014Z" fill="white"/>
<path fill-rule="evenodd" clip-rule="evenodd" d="M58.3767 50.7003L56.4726 55.5568C56.1429 56.3921 56.0393 56.4294 55.458 56.504V56.764H57.5426V56.504L57.2802 56.4751C56.8662 56.4294 56.7916 56.3078 56.9601 55.8168C57.0913 55.4268 57.2598 54.9068 57.3826 54.6276H59.1205C59.3179 55.1114 59.543 55.6868 59.6357 55.9648C59.7488 56.3175 59.7296 56.4113 59.3733 56.4655L59.1109 56.5028V56.7628H61.5807V56.5028C61.0367 56.4474 60.9055 56.3812 60.5853 55.5556C60.2291 54.6264 59.8162 53.4758 59.3926 52.342L58.7631 50.663L58.3767 50.7003ZM58.2191 52.1566H58.2467L58.9797 54.2003H57.4861L58.2191 52.1566Z" fill="white"/>
<path fill-rule="evenodd" clip-rule="evenodd" d="M64.0699 53.6985C65.0279 53.6985 65.7224 54.145 65.7224 55.0922C65.7224 56.0491 65.0845 56.3921 64.4647 56.3921C63.8629 56.4114 63.7509 56.226 63.7509 55.3522V53.6985H64.0699ZM61.966 50.7268V50.9868C62.6424 51.0421 62.717 51.1155 62.717 52.1193V55.3691C62.717 56.3716 62.6424 56.4475 61.9094 56.5028V56.7628H64.248C64.9329 56.7628 65.5996 56.6509 66.0414 56.3909C66.5589 56.0852 66.8863 55.6483 66.8863 54.9887C66.8863 54.0607 66.1545 53.5492 65.1952 53.4373V53.4192C65.7489 53.3169 66.5288 52.8896 66.5288 52.0905C66.5288 51.5982 66.3411 51.2552 66.0028 51.0313C65.6646 50.8171 65.2891 50.7256 64.5561 50.7256H61.966V50.7268ZM63.7509 51.544C63.7509 51.3214 63.7509 51.1637 63.8267 51.1264C63.8821 51.0987 64.0145 51.0794 64.2588 51.0794C64.8318 51.0794 65.442 51.3587 65.442 52.2132C65.442 52.9932 64.9341 53.3639 64.1276 53.3639H63.7521V51.544H63.7509Z" fill="white"/>
</svg>
