<svg width="96" height="96" viewBox="0 0 96 96" fill="none" xmlns="http://www.w3.org/2000/svg">
<circle cx="48" cy="48" r="47" fill="white" stroke="white" stroke-width="2"/>
<g clip-path="url(#clip0_1_5640)">
<path d="M81.8251 55.9336C84.3862 55.9336 86.1328 54.5498 86.1328 52.2362C86.1328 50.0637 84.4217 49.3635 82.6888 48.857C80.7181 48.2786 79.8516 47.9991 79.8516 46.7011C79.8516 45.583 80.647 44.9161 82.0492 44.9161C83.4514 44.9161 84.3069 45.5637 84.6978 47H85.4331V44.548C84.3835 44.083 83.2464 43.845 82.1011 43.8478C79.663 43.8478 78.0175 45.179 78.0175 47.4207C78.0175 49.6098 79.7805 50.2768 81.4779 50.7832C83.4323 51.3616 84.3151 51.6577 84.3151 52.9557C84.3151 54.1485 83.4159 54.8487 81.8934 54.8487C80.3354 54.8487 79.3186 54.0766 78.8649 52.4161H78.1296V55.0424C79.2721 55.6458 80.5431 55.953 81.8333 55.9363M63.5227 46.7924C64.1267 45.4087 64.5094 44.988 65.2693 44.988H65.3622C66.0975 44.988 66.4009 45.3893 66.4009 46.0729V51.2869C66.4009 54.2288 68.4235 55.9308 71.6625 55.9308C74.3603 55.9308 76.178 54.2149 76.178 51.4308V46.6153C76.178 45.547 76.547 45.179 77.3369 45.0572L77.6841 45.0046V44.1993H73.4201V45.0046L73.7672 45.0572C74.5626 45.179 74.9261 45.547 74.9261 46.6153V51.4336C74.9261 53.5701 73.6305 54.6744 71.7992 54.6744C69.9679 54.6744 68.6723 53.5701 68.6723 51.4336V46.0729C68.6723 45.3893 68.9155 45.1098 69.4841 45.0572L70.0034 45.0046V44.1993H61.049V45.0046L61.4289 45.0351C62.3637 45.1236 62.6589 45.6661 62.2599 46.6125L59.5429 53.0055L56.6538 46.178C56.375 45.5304 56.6538 45.1264 57.4328 45.06L57.9849 45.0074V44.1965H52.5019V45.0018L52.849 45.0323C53.5405 45.1042 53.7674 45.2786 54.2157 46.3109L58.3348 55.6817H59.6304L63.5227 46.7924ZM43.3288 49.8782C43.3288 47.1107 44.5069 44.9382 47.0653 44.9382C49.5909 44.9382 50.8181 47.1439 50.8181 49.9114C50.8181 52.679 49.6237 54.8321 47.0653 54.8321C44.5424 54.8321 43.3288 52.643 43.3288 49.8782ZM40.9071 49.9114C40.9071 53.3792 43.4682 55.9391 47.068 55.9391C50.6678 55.9391 53.2453 53.3625 53.2453 49.8782C53.2453 46.3939 50.6705 43.8506 47.068 43.8506C43.4655 43.8506 40.9016 46.4271 40.9016 49.9114M26.3712 46.6873C27.183 45.3755 27.6176 44.988 28.5169 44.988H28.6207C29.4681 44.988 29.8316 45.3893 29.8316 46.0729V53.2906C29.8316 54.2731 29.4626 54.6024 28.6535 54.7269L28.3064 54.7795V55.5849H32.6059V54.7795L32.2561 54.7186C31.4443 54.5969 31.078 54.262 31.078 53.2823V47.036L38.2749 55.6707H39.5705V46.4769C39.5705 45.5138 39.9395 45.1734 40.7294 45.0572L41.0765 45.0046V44.1993H36.8071V45.0046L37.1542 45.0572C37.9496 45.179 38.3131 45.5138 38.3131 46.4769V52.2057L31.8078 44.1965H24.0807V45.0018L24.4387 45.0323C25.3735 45.1208 25.6496 45.5747 25.0783 46.488L23.0693 49.7675L20.8909 46.1504C20.5109 45.5194 20.7542 45.1347 21.4785 45.0655L21.9979 45.0129V44.1965H16.5476V45.0018L16.8947 45.0323C17.5863 45.1042 17.7585 45.3312 18.3653 46.2943L21.3583 51.1125V53.6172C21.3583 54.3616 21.0467 54.6494 20.4399 54.7214L19.9205 54.774V55.5793H25.0237V54.774L24.5043 54.7214C23.9167 54.6688 23.6051 54.3699 23.6051 53.6172V51.1181L26.3712 46.6873ZM11.7916 55.9336C14.8201 55.9336 16.8264 54.2869 16.8264 51.464C16.8264 48.857 14.8037 48.0655 12.6745 47.3819C10.4249 46.6624 9.11019 46.1891 9.11019 44.5258C9.11019 43.1227 10.0614 42.2122 11.7916 42.2122C13.5218 42.2122 14.4047 42.9566 15.0443 45.0046H15.8069V41.869C14.8201 41.3958 13.5409 41.0637 11.8791 41.0637C8.98719 41.0637 7.13672 42.6577 7.13672 45.345C7.13672 48.0323 9.19765 48.8404 11.3242 49.524C13.53 50.2242 14.8365 50.6421 14.8365 52.2749C14.8365 53.8524 13.8334 54.7795 11.9119 54.7795C9.90559 54.7795 8.81499 53.797 8.13985 51.4696H7.36359V54.8681C8.28199 55.4271 9.87279 55.9363 11.7916 55.9336ZM88.5081 46.0867C88.0352 46.5683 87.2644 46.5683 86.7888 46.0895C86.3132 45.6107 86.3132 44.8303 86.786 44.3487C87.2589 43.8672 88.0297 43.8672 88.5053 44.3459C88.7349 44.5784 88.8634 44.8939 88.8634 45.2205C88.8689 45.547 88.7404 45.8598 88.5081 46.0867ZM86.9118 44.476C86.715 44.6725 86.6057 44.941 86.6084 45.2205C86.6057 45.5 86.715 45.7684 86.9091 45.9649C87.3163 46.3773 87.9751 46.3773 88.3796 45.9649C88.7841 45.5498 88.7841 44.8801 88.3796 44.4649C87.9723 44.0581 87.3136 44.0637 86.9118 44.476ZM87.617 44.5369C87.7427 44.5314 87.8657 44.5452 87.986 44.5839C88.1227 44.6393 88.2047 44.7777 88.191 44.9271C88.1992 45.0323 88.1473 45.1347 88.0598 45.1928C88.0024 45.226 87.9395 45.2482 87.8767 45.2592C87.9669 45.2675 88.0516 45.3173 88.1035 45.3921C88.1445 45.4502 88.1664 45.5221 88.1691 45.5941V45.6937C88.1691 45.7242 88.1691 45.7574 88.1691 45.7934C88.1691 45.8183 88.1719 45.8404 88.1801 45.8653V45.8819H87.986V45.8681V45.8542V45.8127V45.7103C88.0024 45.5913 87.9559 45.4723 87.8603 45.4004C87.7783 45.3644 87.688 45.3506 87.5979 45.3589H87.4147V45.8902H87.1797V44.5424H87.617V44.5369ZM87.8712 44.75C87.781 44.7113 87.6826 44.6919 87.5869 44.7002H87.3874V45.1873H87.5979C87.6744 45.19 87.7509 45.1817 87.822 45.1568C87.9423 45.1042 87.9969 44.9603 87.945 44.8386C87.9313 44.8053 87.9067 44.7749 87.8794 44.75H87.8712Z" fill="#E52127"/>
</g>
<defs>
<clipPath id="clip0_1_5640">
<rect width="82" height="15" fill="white" transform="translate(7 41)"/>
</clipPath>
</defs>
</svg>
