<svg width="96" height="96" viewBox="0 0 96 96" fill="none" xmlns="http://www.w3.org/2000/svg">
<circle cx="48" cy="48" r="47" fill="white" stroke="white" stroke-width="2"/>
<path d="M64.3737 31.9686C64.5154 24.63 58.4604 19 50.1393 19H32.9305C32.0984 19 31.399 19.602 31.2663 20.4252L24.3703 63.518C24.2553 64.2616 24.7598 64.961 25.5123 65.0849C25.5831 65.0937 25.6539 65.1026 25.7247 65.1026H35.9225L34.3291 75.0791C34.2141 75.8227 34.7186 76.522 35.4711 76.6459C35.5419 76.6548 35.6127 76.6637 35.6835 76.6637H43.987C44.3853 76.6637 44.7483 76.522 45.0492 76.2564C45.3502 75.9997 45.4033 75.6368 45.4653 75.2384L47.8997 60.8889C47.9616 60.4906 48.1652 59.9771 48.4662 59.7204C48.7672 59.4637 49.0327 59.3132 49.44 59.3132H54.5212C62.6741 59.3132 69.5877 53.5238 70.8447 45.4594C71.7477 39.7497 69.2956 34.5446 64.3737 31.9686Z" fill="#001C64"/>
<path d="M38.1176 49.2037L35.5858 65.3148L33.9924 75.4152C33.8773 76.1588 34.3819 76.8582 35.1344 76.9821C35.2052 76.9909 35.276 76.9998 35.3468 76.9998H44.1371C44.9692 76.9998 45.6686 76.3978 45.8013 75.5746L48.1206 60.8887C48.2534 60.0743 48.9527 59.4723 49.7849 59.4635H54.9634C63.1164 59.4635 70.03 53.5147 71.2959 45.4592C72.1899 39.7406 69.313 34.5355 64.3911 31.9595C64.3822 32.5703 64.3291 33.1722 64.2317 33.7742C62.9659 41.8297 56.0523 47.7785 47.9082 47.7785H39.8084C38.9585 47.7873 38.2504 48.3893 38.1176 49.2037Z" fill="#0070E0"/>
<path d="M35.5876 65.8283H25.3632C24.6108 65.8283 24 65.2175 24 64.465C24 64.3942 24.0089 64.3234 24.0177 64.2526L30.9136 20.5224C31.0464 19.708 31.7457 19.106 32.5778 19.0972H50.1584C58.4796 19.0972 64.5345 25.1521 64.3929 32.4906C62.3215 31.4018 59.8871 30.7822 57.2225 30.7822H42.5543C41.7222 30.7822 41.0229 31.3841 40.8901 32.2074L38.1282 49.7349L35.5876 65.8283Z" fill="#003087"/>
</svg>
