<svg width="96" height="96" viewBox="0 0 96 96" fill="none" xmlns="http://www.w3.org/2000/svg">
<circle cx="48" cy="48" r="47" fill="white" stroke="white" stroke-width="2"/>
<path d="M57.1123 68.5778C57.1477 67.3746 57.0769 66.1007 56.9353 65.0037C53.9628 63.8713 51.5918 62.6681 49.4686 61.3941C48.6547 60.9341 48.3362 60.8279 47.9469 60.8279C47.5577 60.8279 47.1684 61.0049 46.4606 61.3941C41.7187 64.119 33.4381 67.3392 28.5546 67.41C28.5192 66.3838 28.6608 65.5345 28.8023 64.7206C27.9176 64.7913 26.6437 64.7913 25.4759 64.6852C25.299 65.3575 25.1928 66.3484 25.1928 67.2685C25.1928 69.2502 26.2898 70.7364 28.8377 70.7364C33.7212 70.7364 42.8865 67.2685 47.9823 64.4375C50.9902 66.1714 54.0336 67.5516 57.1123 68.5778ZM63.4112 59.094C62.0311 58.8109 60.5802 58.4924 59.6602 58.4924C58.8816 58.4924 58.457 58.917 58.457 59.6955C58.457 60.9341 59.3063 64.3667 59.3063 68.1178C59.3063 70.5595 59.1293 72.3996 58.8109 73.6382C56.263 73.2489 52.8304 71.9396 49.504 69.9579C48.6547 69.4625 48.3008 69.3563 47.9823 69.3563C47.6638 69.3563 47.2746 69.4625 46.4606 69.9225C43.205 71.7627 39.7724 73.2135 37.2245 73.6382C37.0122 72.9658 36.8353 72.1165 36.7291 71.3026C35.6321 71.6919 34.3935 72.0458 33.5088 72.2227C33.8627 75.3368 34.6059 76.9646 36.8353 76.9646C39.1355 76.9646 44.302 75.0891 47.9823 72.9658C51.6626 75.0891 56.8292 76.9646 58.917 76.9646C60.651 76.9646 61.4649 76.3276 61.9603 74.9475C62.5265 73.3197 62.7389 71.1611 62.7389 68.6486C62.7389 66.7376 62.4912 64.3667 62.1019 61.9957C62.9866 62.1727 63.9067 62.2788 64.5082 62.385C64.2959 61.5357 63.8713 60.191 63.4112 59.094ZM68.5424 38.817C67.3392 38.7816 66.0653 38.8524 64.9683 38.9939C63.8359 41.9664 62.6327 44.3374 61.3588 46.4606C60.8987 47.2746 60.7926 47.593 60.7926 47.9823C60.7926 48.3716 60.9695 48.7608 61.3588 49.4686C64.0836 54.2105 67.3038 62.4911 67.3746 67.3746C66.3484 67.41 65.4991 67.2685 64.6852 67.1269C64.756 68.0116 64.756 69.2855 64.6498 70.4533C65.3221 70.6303 66.313 70.7364 67.2331 70.7364C69.2148 70.7364 70.701 69.6394 70.701 67.0915C70.701 62.2081 67.2331 53.0427 64.4021 47.9469C66.1361 44.9744 67.5162 41.8957 68.5424 38.817ZM33.8981 62.1019C33.7212 62.9866 33.615 63.9067 33.5088 64.5082C34.3935 64.2959 35.7736 63.9067 36.8707 63.4466C37.1538 62.0665 37.4722 60.6156 37.4722 59.6955C37.4722 58.917 37.0476 58.4924 36.2691 58.4924C35.0305 58.4924 31.5979 59.3417 27.8469 59.3417C25.4051 59.3417 23.565 59.1647 22.3264 58.8463C22.7157 56.2984 24.025 52.8658 26.0067 49.5394C26.5021 48.6901 26.6083 48.3362 26.6083 48.0177C26.6083 47.6638 26.5021 47.3099 26.0421 46.496C24.202 43.2404 22.7511 39.8078 22.3264 37.2599C22.9988 37.0476 23.8481 36.8707 24.662 36.7645C24.2727 35.6675 23.9189 34.4289 23.7419 33.5442C20.6278 33.8981 19 34.6412 19 36.8707C19 39.1708 20.8755 44.3374 22.9988 48.0177C20.8755 51.698 19 56.8646 19 58.9524C19 60.6864 19.637 61.5003 21.0171 61.9957C22.6449 62.5619 24.8035 62.7742 27.316 62.7742C29.1916 62.7389 31.5625 62.4911 33.8981 62.1019ZM77 37.0476C77 35.3136 76.363 34.4997 74.9829 34.0043C73.3551 33.4381 71.1965 33.2257 68.684 33.2257C66.773 33.2257 64.4021 33.4735 62.0311 33.8627C62.2081 32.978 62.3142 32.058 62.4204 31.4564C61.5357 31.6687 60.1556 32.058 59.0586 32.518C58.7755 33.8981 58.457 35.349 58.457 36.2691C58.457 37.0476 58.8816 37.4722 59.6602 37.4722C60.8987 37.4722 64.3313 36.6229 68.0824 36.6229C70.5241 36.6229 72.3642 36.7999 73.6028 37.1184C73.2135 39.6663 71.9042 43.0988 69.9225 46.4253C69.4271 47.2746 69.3209 47.6284 69.3209 47.9469C69.3209 48.3008 69.4271 48.6547 69.8871 49.4686C71.7273 52.7242 73.1782 56.1568 73.6028 58.7047C72.9304 58.917 72.0812 59.094 71.2672 59.2001C71.6565 60.2971 72.0104 61.5357 72.1873 62.4204C75.3014 62.0665 76.9292 61.3234 76.9292 59.094C76.9292 56.7938 75.0537 51.6272 72.9304 47.9469C75.0891 44.302 77 39.1354 77 37.0476ZM38.817 27.3868C38.7816 28.59 38.8524 29.8639 38.9939 30.9609C41.9664 32.0933 44.3374 33.2965 46.4606 34.5705C47.2746 35.0305 47.593 35.1367 47.9823 35.1367C48.3716 35.1367 48.7608 34.9597 49.4686 34.5705C54.2105 31.8456 62.4912 28.6254 67.3746 28.5546C67.41 29.5808 67.2685 30.4301 67.1269 31.244C68.0116 31.1733 69.2855 31.1733 70.4533 31.2794C70.6303 30.6071 70.7364 29.6162 70.7364 28.6962C70.7364 26.7145 69.6394 25.2282 67.0915 25.2282C62.2081 25.2282 53.0427 28.6962 47.9469 31.5271C44.939 29.7932 41.8603 28.4131 38.817 27.3868ZM27.3868 57.1476C28.59 57.183 29.8639 57.1123 30.961 56.9707C32.0933 53.9982 33.2965 51.6272 34.5705 49.504C35.0305 48.6901 35.1367 48.3716 35.1367 47.9823C35.1367 47.593 34.9597 47.2038 34.5705 46.496C31.8456 41.7541 28.6254 33.4735 28.5546 28.59C29.5808 28.5546 30.4301 28.6962 31.2441 28.8377C31.1733 27.953 31.1733 26.6791 31.2794 25.5113C30.6071 25.3343 29.6162 25.2282 28.6962 25.2282C26.7145 25.2282 25.2282 26.3252 25.2282 28.8731C25.2282 33.7566 28.6962 42.9219 31.5272 48.0177C29.7932 50.9902 28.3777 54.0689 27.3868 57.1476ZM32.518 36.8707C33.8981 37.1538 35.349 37.4722 36.2691 37.4722C37.0476 37.4722 37.4722 37.0476 37.4722 36.2691C37.4722 35.0305 36.6229 31.5979 36.6229 27.8469C36.6229 25.4051 36.7999 23.565 37.1184 22.3264C39.6663 22.7157 43.0988 24.025 46.4253 26.0067C47.2746 26.5021 47.6284 26.6083 47.9469 26.6083C48.3008 26.6083 48.6547 26.5021 49.4686 26.0421C52.7242 24.202 56.1568 22.7511 58.7047 22.3264C58.917 22.9988 59.094 23.8481 59.2001 24.662C60.2971 24.2727 61.5357 23.9189 62.4204 23.7419C62.0665 20.6278 61.3234 19 59.094 19C56.7938 19 51.6272 20.8755 47.9469 22.9988C44.2666 20.8755 39.1001 19 37.0122 19C35.2782 19 34.4643 19.637 33.9689 21.0171C33.4027 22.6449 33.1904 24.8035 33.1904 27.316C33.1904 29.227 33.4381 31.5979 33.8273 33.9689C32.9426 33.7919 32.0226 33.6858 31.421 33.5796C31.6333 34.4289 32.058 35.7736 32.518 36.8707Z" fill="#009639"/>
</svg>
