<svg width="96" height="96" viewBox="0 0 96 96" fill="none" xmlns="http://www.w3.org/2000/svg">
<circle cx="48" cy="48" r="47" fill="white" stroke="white" stroke-width="2"/>
<g clip-path="url(#clip0_1_1105)">
<path d="M38.8264 50.5296C39.2407 50.6184 39.655 50.648 40.0693 50.648C42.6142 50.648 44.8632 49.2867 44.8632 46.2388C44.8632 43.1612 43.206 41.6225 40.3356 41.6225C39.8325 41.6225 39.2999 41.6816 38.7968 41.8296V50.5296H38.8264ZM37.1101 42.7469C37.1101 41.948 37.2285 40.6459 36.3703 40.3796V40.3204H40.5427C44.4193 40.35 46.8162 42.5102 46.8162 46.0316C46.8162 49.4939 44.2417 51.9204 40.4244 51.9204H36.3407V51.8612C37.1989 51.2694 37.0805 50.4112 37.0805 49.3755V42.7469H37.1101ZM55.2795 50.7367C54.5397 51.7429 53.1193 52.1867 51.9356 52.1867C50.8111 52.1867 49.6274 51.8316 48.8581 50.9439C47.9407 49.9378 47.9999 48.7541 47.9999 47.4816V42.8061C47.9999 42.0071 48.1183 40.7347 47.2601 40.4092V40.35H50.4856V40.4092C49.6274 40.7347 49.7458 42.0367 49.7458 42.8061V47.5112C49.7458 49.849 50.6927 50.9439 52.4683 50.9439C53.4152 50.9439 54.3917 50.5296 54.954 49.701C55.3387 49.1684 55.3091 48.7245 55.3091 48.1031V42.8061C55.3091 42.0071 55.3978 40.7347 54.5693 40.4092V40.35H57.7652L57.7948 40.4092C56.9366 40.7347 57.0254 42.0367 57.0254 42.8357V49.4643C57.0254 50.2633 56.9366 51.5357 57.7948 51.8612V51.9204H55.2795V50.7367ZM63.5356 42.8357C64.0978 42.0071 65.1336 40.9123 63.9795 40.3796V40.3204H67.057V40.35L63.1509 45.5286L66.5836 50.2041C67.1162 50.9143 67.7672 51.4174 68.6254 51.8612V51.9204H67.0274C66.1989 51.9204 65.3999 51.5949 65.104 51.151L61.3162 45.9133L63.5356 42.8357ZM59.3632 42.8061C59.3632 42.0071 59.4519 40.7347 58.5938 40.4092V40.35H61.8785V40.4092C61.0203 40.7347 61.1091 42.0367 61.1091 42.8061V49.4347C61.1091 50.2337 61.0203 51.5357 61.8785 51.8612V51.9204H58.5938V51.8612C59.4519 51.5357 59.3632 50.2337 59.3632 49.4347V42.8061ZM71.3478 50.4408L73.508 50.648C74.6325 50.7663 75.8162 50.3816 76.6744 49.6123H76.7336L75.9642 51.9204H68.8621V51.8612C69.7203 51.5357 69.6315 50.2337 69.6315 49.4643V42.8357C69.6315 42.0367 69.7203 40.7347 68.8621 40.4092V40.35H74.307C74.6029 40.35 74.8989 40.3796 75.106 40.2612H75.1652V42.3031H75.106C74.5734 41.6816 73.8927 41.5929 73.0938 41.5929C72.5019 41.5929 71.9101 41.6225 71.3478 41.7112V44.9663H73.3897C73.656 44.9663 73.9223 44.9663 74.1295 44.848H74.1887V46.7123H74.1295C73.8632 46.2092 73.1529 46.2092 72.6203 46.2092H71.3478V50.4408ZM24.8295 54.1398C24.3264 53.8143 23.7642 53.6071 23.1723 53.6071C21.9295 53.6071 21.0713 54.5541 21.0713 55.8857C21.0713 57.2469 21.9591 58.4602 23.3499 58.4602C24.0305 58.4602 24.6815 58.2235 25.2734 57.8684H25.3029L24.8591 58.9337C24.4448 59.1408 23.9713 59.2 23.4978 59.2C21.3672 59.2 20.0652 57.9867 20.0652 56.0041C20.0356 54.1102 21.3376 52.8674 23.2019 52.8674C23.7642 52.8674 24.2968 52.9561 24.8295 53.1041V54.1398ZM27.4927 53.0153C28.706 53.0153 29.357 53.6663 29.357 54.4949C29.357 55.3235 28.6764 55.9449 27.9366 56.1225L29.2387 57.8092C29.6234 58.2827 30.1856 58.7857 30.6887 59.1112H29.8601C29.3866 59.1112 29.0907 58.9929 28.8244 58.6378L27.7295 57.2469L26.9009 55.9449C27.6111 55.8265 28.4397 55.501 28.4397 54.6133C28.4397 53.9327 27.8774 53.548 27.2856 53.5776C27.0785 53.5776 26.8713 53.6072 26.6642 53.6663V57.8092C26.6642 58.2235 26.605 58.9041 27.0785 59.0816H25.3621V59.052C25.806 58.8745 25.7468 58.1939 25.7468 57.7796V54.3174C25.7468 53.9031 25.806 53.2225 25.3621 53.0449V53.0153H27.4927Z" fill="#214099"/>
<path d="M31.8428 58.3122L32.9969 58.4305C33.5887 58.4897 34.2102 58.2826 34.654 57.8979H34.6836L34.2693 59.0816H30.5408V59.052C30.9846 58.8744 30.9551 58.1938 30.9551 57.7795V54.3173C30.9551 53.903 31.0142 53.2224 30.5408 53.0448V53.0152H33.4112C33.5591 53.0152 33.7071 53.0448 33.8255 52.9561H33.8551V54.051H33.8255C33.5591 53.7254 33.1744 53.6663 32.7602 53.6663C32.4346 53.6663 32.1387 53.6663 31.8428 53.7254V55.4418H32.9081C33.0561 55.4418 33.204 55.4418 33.2928 55.3826H33.3224V56.3591H33.2928C33.1744 56.1224 32.7898 56.1224 32.5234 56.1224H31.8724V58.3122H31.8428ZM36.104 58.3714C36.3112 58.4305 36.5479 58.4305 36.7551 58.4305C38.0867 58.4305 39.2704 57.7203 39.2704 56.1224C39.2704 54.4948 38.3826 53.6959 36.903 53.6959C36.6367 53.6959 36.3704 53.7254 36.104 53.7846V58.3714ZM35.1867 54.2581C35.1867 53.8438 35.2459 53.1632 34.802 53.0152V52.9856H36.9918C39.0336 52.9856 40.3061 54.1397 40.3061 55.9744C40.3061 57.8091 38.9449 59.0816 36.9326 59.0816H34.7724V59.052C35.2163 58.7265 35.1571 58.2826 35.1571 57.7499V54.2581H35.1867ZM41.0459 54.3173C41.0459 53.903 41.1051 53.2224 40.6612 53.0448V53.0152H42.3775V53.0448C41.9336 53.2224 41.9928 53.903 41.9928 54.3173V57.8091C41.9928 58.2234 41.9336 58.904 42.3775 59.0816H40.6612V59.052C41.1051 58.8744 41.0459 58.1938 41.0459 57.7795V54.3173Z" fill="#214099"/>
<path d="M45.0705 57.8979C45.0705 58.4305 45.0705 58.7856 45.544 59.0816H43.7685V59.052C44.2123 58.8744 44.1532 58.1938 44.1532 57.7795V53.6662H43.3542C42.9695 53.6662 42.5552 53.755 42.2889 54.0509H42.2593L42.5848 52.956H42.6144C42.7328 53.0152 42.8511 53.0152 42.9695 53.0152H46.5205C46.6685 53.0152 46.8164 53.0152 46.9348 52.956H46.9644L46.6685 54.0509H46.6389C46.5205 53.7254 46.1654 53.6662 45.8695 53.6662H45.0705V57.8979ZM53.5338 58.4897C53.1491 59.0224 52.4093 59.2591 51.7879 59.2591C51.196 59.2591 50.5746 59.052 50.1603 58.6081C49.6868 58.0754 49.7164 57.454 49.7164 56.7734V54.3173C49.7164 53.903 49.7756 53.2224 49.3317 53.0448V53.0152H51.0481V53.0448C50.6042 53.2224 50.6634 53.903 50.6634 54.3173V56.7734C50.6634 58.0162 51.1664 58.5785 52.0838 58.5785C52.5868 58.5785 53.0899 58.3713 53.3858 57.9275C53.593 57.6611 53.5634 57.4244 53.5634 57.0989V54.3173C53.5634 53.903 53.6226 53.2224 53.1787 53.0448V53.0152H54.895V53.0448C54.4511 53.2224 54.4807 53.903 54.4807 54.3173V57.8091C54.4807 58.2234 54.4215 58.904 54.895 59.0816H53.5634V58.4897H53.5338ZM56.3746 57.8979C56.3746 58.4009 56.3746 58.7856 56.8481 59.0816H55.2501V59.052C55.7236 58.756 55.7236 58.4009 55.7236 57.8683V54.1989C55.7236 53.6662 55.7236 53.3111 55.2501 53.0448V53.0152H56.5521C56.5817 53.1336 56.6113 53.1632 56.7001 53.252L56.8185 53.4295L60.1328 57.6907V54.1989C60.1328 53.6662 60.1328 53.3111 59.6593 53.0448V53.0152H61.2276V53.0448C60.7542 53.3111 60.7542 53.6958 60.7542 54.1989V59.3775C60.1032 59.1407 59.8368 58.8448 59.4521 58.3122L56.3746 54.2877V57.8979ZM61.9674 54.3173C61.9674 53.903 62.0266 53.2224 61.5828 53.0448V53.0152H63.2991V53.0448C62.8552 53.2224 62.9144 53.903 62.9144 54.3173V57.8091C62.9144 58.2234 62.8552 58.904 63.2991 59.0816H61.5828V59.052C62.0266 58.8744 61.9674 58.1938 61.9674 57.7795V54.3173ZM64.5715 55.9448C64.5715 57.2469 65.4593 58.5785 66.8797 58.5785C68.2409 58.5785 69.0991 57.5428 69.0991 56.1816C69.0991 54.8203 68.2705 53.5183 66.8501 53.5183C65.4593 53.5183 64.5715 54.554 64.5715 55.9448ZM70.1348 55.9744C70.1348 57.8683 68.6256 59.2295 66.8205 59.2295C65.045 59.2295 63.5358 57.9275 63.5358 56.0336C63.5358 54.2877 65.0154 52.8081 66.9093 52.8377C68.8032 52.8377 70.1348 54.3173 70.1348 55.9744ZM71.496 57.8979C71.496 58.4009 71.496 58.7856 71.9695 59.0816H70.3715V59.052C70.845 58.756 70.845 58.4009 70.845 57.8683V54.1989C70.845 53.6662 70.845 53.3111 70.3715 53.0448V53.0152H71.6736C71.7032 53.1336 71.7328 53.1632 71.8215 53.252L71.9399 53.4295L75.2246 57.6907V54.1989C75.2246 53.6662 75.2246 53.3111 74.7511 53.0448V53.0152H76.3195V53.0448C75.846 53.3111 75.846 53.6958 75.846 54.1989V59.3775C75.195 59.1407 74.9287 58.8448 74.544 58.3122L71.4664 54.2877V57.8979H71.496ZM35.6307 44.4336V44.404C35.0685 44.1377 34.6542 43.3979 34.3287 42.7173C34.2103 42.4213 34.0328 42.155 33.796 41.9479L33.6481 41.7999C33.3817 41.5336 33.0562 41.356 32.6715 41.2081C32.1093 41.0009 31.5174 40.9713 30.9552 41.1193C31.1032 40.5571 31.0736 39.9652 30.8664 39.403C30.7185 39.0479 30.5409 38.7224 30.2746 38.4264L30.1266 38.2785C29.8899 38.0713 29.6532 37.8938 29.3572 37.7458C28.6766 37.4203 27.9072 37.0356 27.6705 36.4734H27.6409H27.6113C27.345 37.0356 26.6052 37.4499 25.9246 37.7754C25.6287 37.9234 25.3623 38.0713 25.1552 38.3081L25.0072 38.456C24.7409 38.7224 24.5634 39.0479 24.4154 39.4326C24.2083 40.0244 24.1787 40.6162 24.3562 41.2081C23.7644 41.0305 23.143 41.0601 22.5807 41.2673C22.2256 41.4152 21.9001 41.5928 21.6042 41.8591L21.4562 42.0071C21.2491 42.2438 21.0715 42.4805 20.9236 42.7764C20.5981 43.4571 20.2134 44.2264 19.6511 44.4632V44.5224C20.2134 44.7887 20.6277 45.5285 20.9532 46.2091C21.1011 46.505 21.2491 46.7713 21.4858 46.9785L21.3083 47.2448C21.5746 47.5111 21.9001 47.6887 22.2848 47.8367C22.847 48.0438 23.4389 48.0734 24.0011 47.9254C23.8532 48.4877 23.8828 49.0795 24.0899 49.6418C24.2379 49.9969 24.4154 50.3224 24.6817 50.6183L24.8297 50.7662C25.0664 50.9734 25.3032 51.1509 25.5991 51.2989C26.2797 51.6244 27.0491 52.0091 27.2858 52.5713H27.3154C27.5817 52.0091 28.3215 51.5948 29.0021 51.2693C29.2981 51.1509 29.5644 50.9734 29.7715 50.7367L29.9195 50.5887C30.1858 50.3224 30.3634 49.9969 30.5113 49.6122C30.7185 49.0203 30.7481 48.4285 30.5705 47.8367C31.1623 48.0142 31.7838 47.9846 32.346 47.7775C32.7011 47.6295 33.0266 47.452 33.3226 47.1856L33.4705 47.0377C33.6777 46.8009 33.8552 46.5642 34.0032 46.2683C34.3287 45.5877 34.7134 44.8183 35.2756 44.5816V44.552L35.6307 44.4336ZM32.9379 45.6764C32.6123 46.3571 32.1093 46.8897 31.4879 47.0969C31.0736 47.2448 30.6297 47.2448 30.2154 47.0673C30.1858 47.0673 30.1562 47.0377 30.1266 47.0377C30.1266 47.0673 30.1562 47.0969 30.1562 47.1264C30.3338 47.5407 30.3338 47.9846 30.1858 48.3989C29.9787 48.9907 29.446 49.5234 28.7654 49.8489C28.1144 50.1448 27.7889 50.6183 27.5521 51.0622C27.3154 50.6183 26.9603 50.1448 26.3389 49.8489C25.6583 49.5234 25.1256 49.0203 24.9185 48.3989C24.8889 48.3397 24.8889 48.2805 24.8593 48.1918C24.8297 47.8071 24.9481 47.4224 25.096 47.0969C25.1256 47.0673 25.1256 47.0377 25.1256 47.0081C25.1256 46.9193 25.0368 46.8305 24.9481 46.8305C24.9185 46.8305 24.8889 46.8305 24.8593 46.8601C24.5338 47.0081 24.1195 47.1264 23.7644 47.0969C23.7052 47.0673 23.646 47.0673 23.5572 47.0377C22.9654 46.8305 22.4328 46.2979 22.1072 45.6173C21.8113 44.9662 21.3379 44.6407 20.894 44.404C21.3379 44.1673 21.8113 43.8122 22.1072 43.1907C22.4328 42.5101 22.9358 41.9775 23.5572 41.7703C23.9715 41.6224 24.4154 41.6224 24.8297 41.7999C24.8593 41.7999 24.8889 41.8295 24.9185 41.8295C24.9185 41.7999 24.8889 41.7703 24.8889 41.7407C24.7113 41.3264 24.7113 40.8826 24.8593 40.4683C25.0664 39.8764 25.5991 39.3438 26.2797 39.0183C26.9307 38.7224 27.2562 38.2489 27.493 37.805C27.7297 38.2489 28.0848 38.7224 28.7358 39.0183C29.4164 39.3438 29.9491 39.8469 30.1562 40.4683C30.1858 40.5275 30.1858 40.5867 30.2154 40.6754C30.245 41.0601 30.1266 41.4448 29.9787 41.7703C29.9491 41.7999 29.9491 41.8295 29.9491 41.8887C29.9491 41.9775 30.0379 42.0662 30.1266 42.0662C30.1562 42.0662 30.2154 42.0367 30.245 42.0367C30.5705 41.8887 30.9848 41.7703 31.3399 41.7999C31.3991 41.8295 31.4583 41.8295 31.547 41.8591C32.1389 42.0662 32.6715 42.5989 32.997 43.2795C33.293 43.9305 33.7664 44.256 34.2103 44.4928C33.7072 44.6703 33.2338 45.0254 32.9379 45.6764ZM32.0501 43.8418C31.843 43.5754 31.5174 43.3979 31.1623 43.3683H30.8664C30.7185 43.3979 30.5409 43.4275 30.393 43.5162C30.3338 43.5162 30.2746 43.5458 30.2154 43.5458C30.2154 43.1907 30.0674 42.806 29.8011 42.4805L29.7123 42.5693L29.5644 42.6877V41.652H28.3215C28.3511 41.5928 28.3511 41.5336 28.3511 41.4744C28.4399 41.3264 28.4695 41.1785 28.4991 41.0009V40.705C28.4695 40.3499 28.2919 40.054 28.0256 39.8173C27.7593 39.6101 27.493 39.3438 27.4042 39.0775C27.3154 39.3438 27.0491 39.6101 26.7828 39.8173C26.5164 40.0244 26.3389 40.3499 26.3093 40.705V41.0009C26.3389 41.1489 26.3685 41.3264 26.4572 41.4744C26.4572 41.5336 26.4868 41.5928 26.4868 41.652H25.3032V42.6877L25.1552 42.5693L25.0664 42.4805C24.8001 42.806 24.6521 43.2203 24.6521 43.5458C24.593 43.5162 24.5338 43.5162 24.4746 43.5162C24.3266 43.4275 24.1787 43.3979 24.0011 43.3683H23.7052C23.3501 43.3979 23.0542 43.5754 22.8174 43.8418C22.6103 44.1081 22.344 44.3744 22.0777 44.4632C22.344 44.552 22.6103 44.8183 22.8174 45.0846C23.0246 45.3509 23.3501 45.5285 23.7052 45.5581H24.0011C24.1491 45.5285 24.3266 45.4989 24.4746 45.4101C24.5338 45.4101 24.593 45.3805 24.6521 45.3805C24.6521 45.7356 24.8001 46.1203 25.0664 46.4458L25.1552 46.3571L25.6879 45.9428C25.747 46.0611 25.8358 46.1795 25.9246 46.2979L25.5695 46.7418L25.4807 46.8601C25.8062 47.1264 26.2205 47.2744 26.546 47.2744C26.5164 47.3336 26.5164 47.3928 26.5164 47.452C26.4277 47.5999 26.3981 47.7479 26.3685 47.9254V48.2213C26.3981 48.5764 26.5756 48.8724 26.8419 49.1091C27.1083 49.3162 27.3746 49.5826 27.4634 49.8489C27.5521 49.5826 27.8185 49.3162 28.0848 49.1091C28.3511 48.902 28.5287 48.5764 28.5583 48.2213V47.9254C28.5287 47.7775 28.4991 47.5999 28.4103 47.452C28.4103 47.3928 28.3807 47.3336 28.3807 47.2744C28.7358 47.2744 29.1205 47.1264 29.446 46.8601L29.3572 46.7713L28.9726 46.2683C29.0317 46.1795 29.1205 46.0907 29.1797 45.9724L29.7123 46.3867L29.8011 46.4754C30.0674 46.1499 30.2154 45.7356 30.2154 45.4101C30.2746 45.4397 30.3338 45.4397 30.393 45.4397C30.5409 45.5285 30.6889 45.5581 30.8664 45.5877H31.1623C31.5174 45.5581 31.8134 45.3805 32.0501 45.1142C32.2572 44.8479 32.5236 44.5816 32.7899 44.4928C32.5236 44.3744 32.2572 44.1081 32.0501 43.8418ZM25.3328 46.002C25.2144 45.8244 25.1256 45.6469 25.096 45.4693C25.0664 45.3509 25.0368 45.2326 25.0072 45.1438L24.9777 45.1734C24.8889 45.2326 24.8001 45.2918 24.6817 45.3213L24.5042 45.3509H24.3562C24.0603 45.3213 23.7348 45.1438 23.5277 44.8479C23.3797 44.6407 23.2021 44.552 23.0246 44.4928C23.2021 44.4336 23.3797 44.3152 23.5277 44.1377C23.7644 43.8418 24.0603 43.6642 24.3562 43.6346H24.5042L24.6521 43.6642C24.7409 43.6938 24.8593 43.7234 24.9481 43.8122L24.9777 43.8418C24.9777 43.7234 25.0072 43.6346 25.0664 43.5162C25.1256 43.3387 25.1848 43.1611 25.3032 43.0132V44.6111C25.3032 45.055 25.4215 45.4693 25.5991 45.854L25.3328 46.002ZM26.4868 46.8601C26.3093 46.8009 26.1317 46.7418 25.9542 46.6234L26.043 46.4754C26.1909 46.6234 26.3389 46.7713 26.5164 46.8897L26.4868 46.8601ZM26.546 41.504V41.356C26.5756 41.0601 26.7532 40.7346 27.0491 40.5275C27.2562 40.3795 27.345 40.202 27.4042 40.0244C27.4634 40.202 27.5817 40.3795 27.7593 40.5275C28.0552 40.7642 28.2328 41.0601 28.2623 41.356V41.504L28.2328 41.652H26.546V41.504ZM28.3511 47.5703C28.3215 47.8662 28.144 48.1918 27.8481 48.3989C27.6409 48.5469 27.5521 48.7244 27.493 48.902C27.4338 48.7244 27.3154 48.5469 27.1379 48.3989C26.8419 48.1622 26.6644 47.8662 26.6348 47.5703V47.4224L26.6644 47.2448C26.694 47.156 26.7236 47.0673 26.7828 46.9785C26.9899 47.0969 27.2266 47.1856 27.493 47.2448C27.7593 47.1856 27.996 47.0673 28.2328 46.9489C28.2919 47.0377 28.3511 47.1264 28.3511 47.2152L28.3807 47.3928C28.3511 47.4816 28.3511 47.5407 28.3511 47.5703ZM28.4695 46.8601C28.4103 46.8897 28.3807 46.8897 28.3215 46.9193C28.5287 46.7713 28.7062 46.6234 28.8542 46.4458L28.9726 46.6234C28.8246 46.7122 28.647 46.8009 28.4695 46.8601ZM31.3695 44.8183C31.1328 45.1142 30.8368 45.2918 30.5409 45.3213H30.393L30.245 45.2918C30.1562 45.2622 30.0379 45.2326 29.9491 45.1438L29.9195 45.1142C29.9195 45.203 29.8899 45.3213 29.8307 45.4397C29.7715 45.6173 29.7123 45.7948 29.594 45.9724L29.3277 45.7948C29.5052 45.4101 29.6236 44.9958 29.6236 44.552V42.954C29.7419 43.1316 29.8011 43.2795 29.8603 43.4571C29.8899 43.5754 29.9195 43.6938 29.9491 43.7826L29.9787 43.753C30.0674 43.6938 30.1562 43.6346 30.2746 43.605L30.4521 43.5754H30.6001C30.896 43.605 31.2215 43.7826 31.4287 44.0785C31.5766 44.2856 31.7542 44.3744 31.9317 44.4336C31.7246 44.5224 31.547 44.6407 31.3695 44.8183Z" fill="#214099"/>
</g>
<defs>
<clipPath id="clip0_1_1105">
<rect width="58" height="23.6735" fill="white" transform="translate(19 36)"/>
</clipPath>
</defs>
</svg>
