<svg width="96" height="96" viewBox="0 0 96 96" fill="none" xmlns="http://www.w3.org/2000/svg">
<circle cx="48" cy="48" r="47" fill="white" stroke="white" stroke-width="2"/>
<g clip-path="url(#clip0_1_2477)">
<path fill-rule="evenodd" clip-rule="evenodd" d="M30.9852 49.9085H32.7763V41.2966H30.9852V49.9085ZM35.7612 41.297H37.6971L41.2049 47.3012V41.297H42.926V49.9081H41.0797L37.4819 43.7982V49.9081H35.7612V41.297ZM45.6119 41.297H51.5823V42.8123H47.35V44.7948H51.0597V46.2924H47.35V49.9077H45.6119V41.297ZM53.9704 49.9085H55.7612V41.2966H53.97L53.9704 49.9085ZM58.1493 41.297H60.0849L63.593 47.3012V41.297H65.3134V49.9081H63.4675L59.8697 43.7982V49.9081H58.1493V41.297ZM68.2986 49.9085H70.0897V41.2966H68.2986V49.9085ZM79.0445 41.297V42.8219H76.3986V49.9081H74.5386V42.8219H71.8808V41.297H79.0445ZM85.9341 41.297L84.1993 45.0475L82.3882 41.297H80.2389L83.2582 46.6796V49.9081H85.0815V46.6793L88 41.297H85.9341Z" fill="#C8202F"/>
<path fill-rule="evenodd" clip-rule="evenodd" d="M31.3537 51.781C31.607 51.5246 31.9292 51.396 32.3203 51.396C32.8433 51.396 33.2259 51.5684 33.4677 51.9122C33.6014 52.1052 33.6733 52.299 33.6833 52.4939H33.0259C32.984 52.3443 32.9303 52.2316 32.8648 52.1553C32.7481 52.0201 32.5744 51.9527 32.3448 51.9527C32.1107 51.9527 31.9263 52.0477 31.7911 52.2389C31.6559 52.4298 31.5885 52.7002 31.5885 53.0495C31.5885 53.3995 31.6596 53.661 31.8022 53.8353C31.9448 54.0096 32.1259 54.0965 32.3455 54.0965C32.5711 54.0965 32.7426 54.0217 32.8611 53.8725C32.9263 53.7918 32.9807 53.6714 33.024 53.5107H33.6759C33.6203 53.8504 33.4763 54.1271 33.2448 54.3397C33.0137 54.5526 32.717 54.6587 32.3559 54.6587C31.9081 54.6587 31.5566 54.515 31.3003 54.2277C31.0448 53.9388 30.9166 53.5424 30.9166 53.0392C30.9166 52.495 31.0622 52.0757 31.3537 51.781ZM34.9955 51.9969V52.8339H35.7026C35.8429 52.8339 35.9481 52.817 36.0185 52.7835C36.1426 52.7242 36.2048 52.607 36.2048 52.4324C36.2048 52.2434 36.1448 52.1166 36.0244 52.0518C35.957 52.0149 35.8559 51.9965 35.7207 51.9965H34.9955V51.9969ZM36.3533 51.5356C36.4688 51.5854 36.5674 51.6579 36.6477 51.7537C36.714 51.8326 36.7666 51.9199 36.8055 52.0157C36.8444 52.1115 36.864 52.2209 36.864 52.3436C36.864 52.4917 36.8263 52.6372 36.7511 52.7802C36.6755 52.9235 36.5511 53.0244 36.3777 53.0837C36.5226 53.1416 36.6251 53.2237 36.6859 53.3298C36.7463 53.4367 36.7766 53.5988 36.7766 53.8173V54.0269C36.7766 54.1691 36.7822 54.2656 36.7937 54.3165C36.8 54.353 36.8142 54.3877 36.8351 54.4183C36.8561 54.4489 36.8834 54.4748 36.9151 54.494V54.5722H36.19C36.1736 54.5171 36.1594 54.4614 36.1474 54.4053C36.1301 54.3167 36.1208 54.2268 36.1196 54.1367L36.1151 53.8471C36.1126 53.6482 36.0781 53.5155 36.0114 53.4492C35.9448 53.3833 35.82 53.3501 35.6374 53.3501H34.9955V54.5722H34.3537V51.4553H35.8574C36.0722 51.4597 36.237 51.4866 36.3533 51.5356ZM39.9485 52.0072H38.2851V52.6693H39.8122V53.2108H38.2851V54.0122H40.0251V54.5722H37.6433V51.4553H39.9485V52.0072ZM41.3059 51.9969V54.0309H41.9126C42.2229 54.0309 42.4392 53.8795 42.5618 53.5763C42.6288 53.4102 42.6618 53.2119 42.6618 52.982C42.6618 52.6652 42.6122 52.4217 42.5118 52.2515C42.4114 52.082 42.2118 51.9969 41.9126 51.9969H41.3059ZM42.5103 51.5231C42.7276 51.5929 42.9158 51.7318 43.0459 51.9184C43.1555 52.0735 43.23 52.2412 43.27 52.4217C43.3096 52.6022 43.33 52.7743 43.33 52.9375C43.33 53.3523 43.2459 53.703 43.0781 53.9908C42.8503 54.3784 42.4988 54.5722 42.0237 54.5722H40.6681V51.4553H42.0237C42.2185 51.4583 42.3807 51.4807 42.5103 51.5231Z" fill="#003048"/>
<mask id="mask0_1_2477" style="mask-type:luminance" maskUnits="userSpaceOnUse" x="8" y="41" width="80" height="14">
<path d="M8 54.6592H88V41H8V54.6592Z" fill="#003048"/>
</mask>
<g mask="url(#mask0_1_2477)">
<path fill-rule="evenodd" clip-rule="evenodd" d="M43.9 54.5726H44.553V51.4558H43.9V54.5726ZM47.5819 51.4558V52.0073H46.6411V54.5722H45.9804V52.0073H45.036V51.4558H47.5819ZM49.4415 51.4558H50.1089V53.3697C50.1089 53.5838 50.1348 53.7404 50.1856 53.8387C50.2648 54.0134 50.4374 54.1007 50.7041 54.1007C50.9689 54.1007 51.1411 54.0134 51.2204 53.8391C51.2715 53.7404 51.2971 53.5838 51.2971 53.3697V51.4558H51.9645V53.3716C51.9645 53.7031 51.9126 53.961 51.8089 54.1456C51.6163 54.4838 51.2478 54.6529 50.7041 54.6529C50.1604 54.6529 49.7911 54.4838 49.5967 54.1456C49.4934 53.961 49.4415 53.7031 49.4415 53.3719V51.4561V51.4558ZM52.716 51.4558H53.4048L54.6526 53.6287V51.4558H55.2645V54.5726H54.6078L53.3282 52.3614V54.5726H52.716V51.4558ZM55.9585 54.5726H56.6111V51.4558H55.9585V54.5726ZM59.3667 53.8218C59.5193 53.6313 59.5956 53.3609 59.5956 53.0098C59.5956 52.6598 59.5193 52.3897 59.3667 52.1989C59.2137 52.0077 59.0074 51.9122 58.7471 51.9122C58.4867 51.9122 58.2789 52.0073 58.1245 52.1978C57.9693 52.3879 57.8919 52.6587 57.8919 53.0098C57.8919 53.3609 57.9697 53.6313 58.1245 53.8218C58.2789 54.0119 58.4867 54.1073 58.7467 54.1073C59.0071 54.1073 59.2134 54.0119 59.3667 53.8218ZM59.7771 54.2956C59.5393 54.538 59.1963 54.6588 58.7471 54.6588C58.2974 54.6588 57.9545 54.538 57.7167 54.2956C57.3982 53.9979 57.2389 53.5698 57.2389 53.0098C57.2389 52.4387 57.3982 52.0102 57.7167 51.724C57.9545 51.4816 58.2974 51.3604 58.7471 51.3604C59.1963 51.3604 59.5397 51.4816 59.7771 51.724C60.0941 52.0102 60.2526 52.4387 60.2526 53.0098C60.2526 53.5698 60.0941 53.9979 59.7771 54.2956ZM60.743 51.4558H61.4319L62.6797 53.6287V51.4558H63.2915V54.5726H62.6348L61.3552 52.3614V54.5726H60.743V51.4558Z" fill="#003048"/>
</g>
<mask id="mask1_1_2477" style="mask-type:luminance" maskUnits="userSpaceOnUse" x="8" y="41" width="80" height="14">
<path d="M8 54.6592H88V41H8V54.6592Z" fill="#C8202F"/>
</mask>
<g mask="url(#mask1_1_2477)">
<path fill-rule="evenodd" clip-rule="evenodd" d="M31.3537 51.7811C31.607 51.5247 31.9292 51.3961 32.3203 51.3961C32.8433 51.3961 33.2259 51.5685 33.4677 51.9122C33.6014 52.1053 33.6733 52.2991 33.6833 52.494H33.0259C32.984 52.3444 32.9303 52.2317 32.8648 52.1554C32.7481 52.0202 32.5744 51.9528 32.3448 51.9528C32.1107 51.9528 31.9263 52.0478 31.7911 52.239C31.6559 52.4299 31.5885 52.7003 31.5885 53.0496C31.5885 53.3996 31.6596 53.6611 31.8022 53.8354C31.9448 54.0097 32.1259 54.0966 32.3455 54.0966C32.5711 54.0966 32.7426 54.0218 32.8611 53.8726C32.9263 53.7919 32.9807 53.6715 33.024 53.5108H33.6759C33.6203 53.8505 33.4763 54.1272 33.2448 54.3398C33.0137 54.5527 32.717 54.6588 32.3559 54.6588C31.9081 54.6588 31.5566 54.5151 31.3003 54.2278C31.0448 53.9389 30.9166 53.5425 30.9166 53.0392C30.9166 52.4951 31.0622 52.0758 31.3537 51.7811ZM34.9955 51.997V52.834H35.7026C35.8429 52.834 35.9481 52.8171 36.0185 52.7836C36.1426 52.7242 36.2048 52.6071 36.2048 52.4325C36.2048 52.2435 36.1448 52.1167 36.0244 52.0519C35.957 52.015 35.8559 51.9966 35.7207 51.9966H34.9955V51.997ZM36.3533 51.5357C36.4688 51.5855 36.5674 51.658 36.6477 51.7538C36.714 51.8327 36.7666 51.92 36.8055 52.0158C36.8444 52.1116 36.864 52.221 36.864 52.3437C36.864 52.4918 36.8263 52.6373 36.7511 52.7802C36.6755 52.9236 36.5511 53.0245 36.3777 53.0838C36.5226 53.1417 36.6251 53.2238 36.6859 53.3299C36.7463 53.4368 36.7766 53.5989 36.7766 53.8174V54.027C36.7766 54.1692 36.7822 54.2657 36.7937 54.3166C36.8 54.3531 36.8142 54.3878 36.8351 54.4184C36.8561 54.449 36.8834 54.4749 36.9151 54.4941V54.5722H36.19C36.1736 54.5172 36.1594 54.4615 36.1474 54.4054C36.1301 54.3168 36.1208 54.2269 36.1196 54.1368L36.1151 53.8472C36.1126 53.6482 36.0781 53.5156 36.0114 53.4493C35.9448 53.3834 35.82 53.3502 35.6374 53.3502H34.9955V54.5722H34.3537V51.4554H35.8574C36.0722 51.4598 36.237 51.4867 36.3533 51.5357ZM39.9485 52.0073H38.2851V52.6694H39.8122V53.2109H38.2851V54.0122H40.0251V54.5722H37.6433V51.4554H39.9485V52.0073ZM41.3059 51.997V54.031H41.9126C42.2229 54.031 42.4392 53.8796 42.5618 53.5764C42.6288 53.4102 42.6618 53.212 42.6618 52.9821C42.6618 52.6653 42.6122 52.4218 42.5118 52.2516C42.4114 52.0821 42.2118 51.997 41.9126 51.997H41.3059ZM42.5103 51.5232C42.7276 51.593 42.9158 51.7319 43.0459 51.9185C43.1555 52.0736 43.23 52.2412 43.27 52.4218C43.3096 52.6023 43.33 52.7744 43.33 52.9376C43.33 53.3524 43.2459 53.7031 43.0781 53.9909C42.8503 54.3785 42.4988 54.5722 42.0237 54.5722H40.6681V51.4554H42.0237C42.2185 51.4584 42.3807 51.4808 42.5103 51.5232ZM43.9 54.5726H44.5529V51.4558H43.9V54.5726ZM47.5818 51.4558V52.0073H46.6411V54.5722H45.9803V52.0073H45.0359V51.4558H47.5818ZM49.4414 51.4558H50.1088V53.3697C50.1088 53.5838 50.1348 53.7404 50.1855 53.8387C50.2648 54.0134 50.4374 54.1007 50.704 54.1007C50.9688 54.1007 51.1411 54.0134 51.2203 53.8391C51.2714 53.7404 51.297 53.5838 51.297 53.3697V51.4558H51.9644V53.3716C51.9644 53.7031 51.9125 53.961 51.8088 54.1456C51.6163 54.4838 51.2477 54.6529 50.704 54.6529C50.1603 54.6529 49.7911 54.4838 49.5966 54.1456C49.4933 53.961 49.4414 53.7031 49.4414 53.3719V51.4561V51.4558ZM52.7159 51.4558H53.4048L54.6525 53.6287V51.4558H55.2644V54.5726H54.6077L53.3281 52.3614V54.5726H52.7159V51.4558ZM55.9585 54.5726H56.6111V51.4558H55.9585V54.5726ZM59.3666 53.8218C59.5192 53.6313 59.5955 53.3609 59.5955 53.0098C59.5955 52.6598 59.5192 52.3897 59.3666 52.1989C59.2137 52.0077 59.0074 51.9122 58.747 51.9122C58.4866 51.9122 58.2788 52.0073 58.1244 52.1978C57.9692 52.3879 57.8918 52.6587 57.8918 53.0098C57.8918 53.3609 57.9696 53.6313 58.1244 53.8218C58.2788 54.0119 58.4866 54.1073 58.7466 54.1073C59.007 54.1073 59.2133 54.0119 59.3666 53.8218ZM59.777 54.2956C59.5392 54.538 59.1963 54.6588 58.747 54.6588C58.2974 54.6588 57.9544 54.538 57.7166 54.2956C57.3981 53.9979 57.2388 53.5698 57.2388 53.0098C57.2388 52.4387 57.3981 52.0102 57.7166 51.724C57.9544 51.4816 58.2974 51.3604 58.747 51.3604C59.1963 51.3604 59.5396 51.4816 59.777 51.724C60.094 52.0102 60.2525 52.4387 60.2525 53.0098C60.2525 53.5698 60.094 53.9979 59.777 54.2956ZM60.7429 51.4558H61.4318L62.6796 53.6287V51.4558H63.2914V54.5726H62.6348L61.3551 52.3614V54.5726H60.7429V51.4558Z" fill="#C8202F"/>
</g>
<mask id="mask2_1_2477" style="mask-type:luminance" maskUnits="userSpaceOnUse" x="8" y="41" width="80" height="14">
<path d="M8 54.6592H88V41H8V54.6592Z" fill="#F0C244"/>
</mask>
<g mask="url(#mask2_1_2477)">
<path fill-rule="evenodd" clip-rule="evenodd" d="M15.8667 49.0412C14.4378 50.4268 12.6544 50.4423 12.6544 50.4423C9.88148 50.4426 8 48.0921 8 45.7405C8 43.3899 9.86852 41.0074 12.7422 41.0074C15.6156 41.0074 17.3089 43.9684 17.3089 43.9684L16.2281 44.8688C14.7993 43.1873 13.9511 42.5488 12.6637 42.5179C11.3759 42.4866 9.58593 43.5605 9.58593 45.6163C9.58593 47.671 11.2193 48.8544 12.6322 48.8544C14.0452 48.8544 14.9404 47.8265 14.9404 47.8265C14.9404 47.8265 19.6752 42.8642 20.1522 42.4018C21.5815 41.0155 23.3648 41 23.3648 41C26.1374 41 28.0193 43.3505 28.0193 45.7018C28.0193 48.0527 26.1504 50.4349 23.277 50.4349C20.4037 50.4349 18.7104 47.4739 18.7104 47.4739L19.7911 46.5738C21.22 48.2553 22.0681 48.8934 23.3556 48.9244C24.6433 48.9557 26.4333 47.8817 26.4333 45.8263C26.4333 43.7713 24.8004 42.5879 23.387 42.5879C21.9741 42.5879 21.0789 43.6158 21.0789 43.6158C21.0789 43.6158 16.4748 48.4513 15.8667 49.0412Z" fill="#F0C244"/>
</g>
</g>
<defs>
<clipPath id="clip0_1_2477">
<rect width="80" height="14" fill="white" transform="translate(8 41)"/>
</clipPath>
</defs>
</svg>
