<svg width="96" height="96" viewBox="0 0 96 96" fill="none" xmlns="http://www.w3.org/2000/svg">
<circle cx="48" cy="48" r="47" fill="white" stroke="white" stroke-width="2"/>
<g clip-path="url(#clip0_1_2429)">
<path d="M26.1981 42.5189L29.1682 42.5012C30.9237 42.5012 31.7352 43.68 31.7465 45.4483C31.7465 47.1547 31.0533 48.6017 29.2555 48.6164L26.2348 48.6371L26.1981 42.5189ZM29.2104 47.8237C30.6391 47.8237 30.8842 46.5593 30.8786 45.466C30.873 44.3726 30.5292 43.2645 29.0188 43.2733H27.0745L27.1055 47.8207L29.2104 47.8237ZM32.5975 42.4187H33.4175V43.3617H32.5975V42.4187ZM32.5975 44.1015H33.4175L33.4457 48.5987H32.6257L32.5975 44.1015ZM34.4319 45.4954C34.5306 44.3696 35.2773 43.9276 36.5538 43.9187C37.433 43.9187 38.5263 44.1368 38.5263 45.1831L38.5432 47.6026C38.5432 47.8679 38.6616 47.9887 38.9152 47.9857C39.0099 47.9822 39.1041 47.9704 39.197 47.9504V48.5398C38.9854 48.5754 38.7716 48.5941 38.5573 48.5958C38.1459 48.5958 37.8754 48.4809 37.8134 47.974C37.4893 48.4396 36.6862 48.7107 35.9874 48.7166C34.5616 48.7166 34.2347 47.9563 34.2319 47.3728C34.2319 46.5476 34.6912 46.1261 36.0691 45.9611L37.0047 45.852C37.464 45.796 37.7514 45.7106 37.7486 45.3068C37.7486 44.6879 37.1681 44.573 36.5031 44.5789C35.8381 44.5848 35.2012 44.7852 35.1787 45.4807L34.4319 45.4954ZM37.7767 46.2086C37.6556 46.356 37.433 46.4179 36.9737 46.4798L36.0466 46.6065C35.4069 46.6979 35.0716 46.8806 35.0744 47.3521C35.0744 47.7736 35.4802 48.0624 36.0804 48.0565C37.0075 48.0565 37.7711 47.5289 37.7711 46.7833L37.7767 46.2086ZM46.2895 45.6428C46.2895 44.8206 45.7823 44.573 45.2497 44.5789C44.503 44.5789 43.8408 44.9591 43.8408 45.799L43.8577 48.5192H43.0377L43.018 45.6634C43.018 44.8382 42.5108 44.5936 41.9782 44.5966C41.2315 44.5966 40.5693 45.0622 40.5693 45.9464L40.5862 48.5369H39.7662L39.7352 44.0396H40.5552V44.7174H40.5721C40.7614 44.4372 41.0162 44.2124 41.3122 44.0643C41.6081 43.9163 41.9354 43.8499 42.2628 43.8716C42.5548 43.8605 42.8444 43.9308 43.1018 44.0753C43.3593 44.2198 43.5754 44.4333 43.7281 44.6938C43.93 44.4168 44.1932 44.1951 44.495 44.0478C44.7969 43.9005 45.1284 43.832 45.4611 43.848C45.895 43.848 47.0954 44.0514 47.1039 45.4247L47.1236 48.4868H46.3036L46.2895 45.6428ZM50.3952 43.8185C52.069 43.8185 52.8974 44.909 52.9059 46.2027C52.9143 47.4965 52.1028 48.6105 50.4262 48.6223C48.7495 48.6341 47.9239 47.5319 47.9154 46.2381C47.907 44.9443 48.7298 43.8333 50.3952 43.8185ZM50.3952 44.5406C49.206 44.5406 48.7777 45.4247 48.7833 46.2322C48.789 47.0397 49.2286 47.9121 50.4177 47.9032C51.6068 47.8944 52.038 47.0191 52.0323 46.2086C52.0267 45.3982 51.5984 44.5317 50.3952 44.5406ZM53.7118 43.9512H54.5318V44.629H54.5487C54.7386 44.3496 54.9935 44.1255 55.2894 43.9779C55.5853 43.8304 55.9123 43.7644 56.2394 43.7861C57.2736 43.7861 58.0485 44.237 58.0541 45.3599L58.0739 48.4219H57.2539L57.2341 45.5308C57.2341 44.8707 56.834 44.4964 55.9548 44.5023C55.2081 44.5023 54.5459 44.9679 54.5459 45.852L54.5628 48.4426H53.7428L53.7118 43.9512ZM62.8614 47.806H62.8445C62.5261 48.2805 61.847 48.5428 61.2158 48.5457C59.9196 48.5457 58.8713 47.6969 58.8629 46.188C58.8544 44.6791 59.8886 43.8038 61.1848 43.795C61.8244 43.795 62.4923 44.0248 62.822 44.5141H62.8389L62.8248 42.2065H63.6391L63.6786 48.3954H62.8586L62.8614 47.806ZM61.32 47.8266C61.5326 47.8416 61.7457 47.8087 61.945 47.7299C62.1442 47.6512 62.3249 47.5286 62.4749 47.3704C62.6248 47.2121 62.7405 47.022 62.814 46.8129C62.8875 46.6038 62.9171 46.3807 62.9009 46.1585C62.8979 45.7193 62.7282 45.2992 62.4291 44.9908C62.13 44.6824 61.726 44.5109 61.306 44.5141C60.8859 44.5172 60.4843 44.6947 60.1895 45.0075C59.8946 45.3203 59.7306 45.7428 59.7336 46.1821C59.7364 47.0309 60.2098 47.8354 61.3172 47.8266H61.32ZM66.1386 42.2743L69.3792 42.2507C70.619 42.2507 71.1798 42.8106 71.1854 43.7655C71.2068 44.05 71.1347 44.3337 70.981 44.5695C70.8273 44.8053 70.6011 44.9792 70.34 45.0622V45.0799C71.0107 45.2361 71.4446 45.6958 71.4503 46.5741C71.4559 47.4523 70.8867 48.3423 69.6159 48.3423L66.1752 48.3689L66.1386 42.2743ZM69.3792 44.7705C70.016 44.7705 70.3231 44.3962 70.3203 43.9099C70.3203 43.3558 70.0385 43.0258 69.32 43.0258L67.0093 43.0435V44.7763L69.3792 44.7705ZM69.3792 47.5614C70.3429 47.5614 70.5908 47.0397 70.588 46.521C70.5852 46.0023 70.3203 45.5485 69.4383 45.5573L67.0234 45.575V47.582L69.3792 47.5614ZM72.3745 45.2538C72.4732 44.1368 73.2058 43.6948 74.4851 43.6859C75.3587 43.6859 76.4576 43.904 76.4576 44.9443L76.4746 47.3521C76.4746 47.6174 76.5901 47.7352 76.8437 47.7323C76.9384 47.7292 77.0327 47.7174 77.1255 47.6969V48.2864C76.9149 48.3222 76.702 48.3409 76.4886 48.3423C76.08 48.3423 75.8095 48.2274 75.7504 47.7264C75.4263 48.1891 74.6232 48.4602 73.9356 48.4661C72.5267 48.4661 72.1914 47.7117 72.1886 47.1311C72.1886 46.3118 72.6451 45.8904 74.0145 45.7253L74.9444 45.6163C75.4009 45.5603 75.6855 45.4748 75.6827 45.074C75.6827 44.4581 75.1192 44.3431 74.4457 44.349C73.7722 44.3549 73.1495 44.5553 73.1297 45.2332L72.3745 45.2538ZM75.6996 45.964C75.5785 46.1114 75.3587 46.1703 74.9022 46.2352L73.9807 46.3619C73.3439 46.4503 73.0114 46.633 73.0142 47.1046C73.0142 47.5231 73.42 47.8119 74.0145 47.806C74.936 47.806 75.7053 47.2814 75.7053 46.5387L75.6996 45.964ZM77.6581 43.8156H78.4752V44.4905H78.4921C78.6795 44.2143 78.9309 43.9923 79.2226 43.8454C79.5144 43.6985 79.837 43.6315 80.1603 43.6506C81.1888 43.6506 81.9581 44.0985 81.9666 45.2184L81.9863 48.2657H81.1691L81.1494 45.3893C81.1494 44.7321 80.7521 44.3579 79.8785 44.3638C79.1374 44.3638 78.4696 44.8265 78.4837 45.7047L78.5006 48.2834H77.6834L77.6581 43.8156ZM86.0074 43.7567H87.2473L85.2494 45.4483L87.4304 48.2245H86.3202L84.6013 45.9994L83.8545 46.6271V48.2392H83.0374L82.9979 42.0945H83.8123L83.8348 45.6782L86.0074 43.7567Z" fill="#142F54"/>
<path d="M13.1345 48.6311L13.6643 46.689L13.963 47.7883L22.3574 39H7L7.1888 39.3566L12.6357 48.5015L13.1345 48.6311ZM15.2902 52.9604L19.579 55.9223L21.4895 52.8367L14.3096 51.313L15.2902 52.9604Z" fill="#142F54"/>
<path d="M18.2913 58L19.579 55.9223L15.2902 52.9604L18.2913 58ZM16.068 51.0448L14.1941 50.5527L14.0898 50.9417L14.3096 51.313L21.4895 52.8367L24.6117 47.7971L15.1127 50.0104L16.068 51.0448ZM25.4177 41.729H28.3736L30.0643 39H22.3574L13.963 47.7883L14.1941 48.6311L16.068 48.139L15.9834 48.2303L25.4177 43.8156V41.729Z" fill="#4694D0"/>
<path d="M15.9833 48.2304L14.7238 49.592L15.1126 50.0105L24.6117 47.7972L25.4176 46.4975V43.8157L15.9833 48.2304Z" fill="#142F54"/>
<path d="M12.6357 48.5014L13.1345 48.6311L13.6643 46.689L14.194 48.6311L16.0679 48.1389L14.7238 49.5919L16.0679 51.0448L14.194 50.5526L14.0898 50.9416L12.6357 48.5014Z" fill="white"/>
<path d="M88.2899 42.0679C88.4768 42.0679 88.6559 42.1455 88.788 42.2837C88.9202 42.4218 88.9944 42.6092 88.9944 42.8046C88.9944 43.0001 88.9202 43.1875 88.788 43.3256C88.6559 43.4638 88.4768 43.5414 88.2899 43.5414C88.1031 43.5414 87.9239 43.4638 87.7918 43.3256C87.6597 43.1875 87.5854 43.0001 87.5854 42.8046C87.5854 42.6092 87.6597 42.4218 87.7918 42.2837C87.9239 42.1455 88.1031 42.0679 88.2899 42.0679ZM88.2899 42.2152C88.1404 42.2152 87.9971 42.2773 87.8914 42.3879C87.7857 42.4984 87.7263 42.6483 87.7263 42.8046C87.7263 42.961 87.7857 43.1109 87.8914 43.2214C87.9971 43.332 88.1404 43.3941 88.2899 43.3941C88.3625 43.3942 88.4344 43.3788 88.5011 43.3488C88.5679 43.3188 88.628 43.2748 88.6779 43.2196C88.7278 43.1644 88.7663 43.0991 88.7912 43.0278C88.8161 42.9564 88.8267 42.8805 88.8225 42.8046C88.8255 42.7289 88.8139 42.6532 88.7885 42.5822C88.763 42.5112 88.7241 42.4463 88.6742 42.3913C88.6242 42.3363 88.5642 42.2924 88.4977 42.2622C88.4312 42.2319 88.3596 42.216 88.2871 42.2152H88.2899ZM88.1828 43.176H88.0222V42.448C88.1154 42.4328 88.2096 42.4249 88.304 42.4245C88.387 42.4158 88.4704 42.4366 88.5407 42.4834C88.5644 42.501 88.5835 42.5245 88.5963 42.5518C88.609 42.5791 88.6151 42.6093 88.614 42.6396C88.6117 42.6811 88.5963 42.7206 88.5704 42.7521C88.5444 42.7835 88.5092 42.8051 88.4703 42.8135C88.5379 42.8371 88.5717 42.8931 88.5942 42.9903C88.603 43.0515 88.6201 43.111 88.645 43.1671H88.4759C88.4483 43.1117 88.4292 43.052 88.4195 42.9903C88.4195 42.9137 88.3632 42.8783 88.2758 42.8783H88.1997L88.1828 43.176ZM88.1828 42.7663H88.2589C88.3491 42.7663 88.4195 42.7339 88.4195 42.6602C88.4195 42.5866 88.3716 42.5482 88.2702 42.5482C88.2402 42.5446 88.21 42.5446 88.18 42.5482L88.1828 42.7663Z" fill="#142F54"/>
</g>
<defs>
<clipPath id="clip0_1_2429">
<rect width="82" height="19" fill="white" transform="translate(7 39)"/>
</clipPath>
</defs>
</svg>
