<svg width="96" height="96" viewBox="0 0 96 96" fill="none" xmlns="http://www.w3.org/2000/svg">
<circle cx="48" cy="48" r="47" fill="white" stroke="white" stroke-width="2"/>
<path d="M47.9983 19C42.9085 19.0007 37.9085 20.3408 33.5006 22.8856C29.0928 25.4304 25.4323 29.0903 22.887 33.4976C20.3417 37.9049 19.0011 42.9043 19 47.9937C18.9989 53.0831 20.3373 58.0831 22.8807 62.4915C25.4241 66.8999 29.083 70.5614 33.4897 73.1081C37.8965 75.6548 42.8959 76.997 47.9857 77C53.0755 77.0029 58.0765 75.6665 62.4862 73.1249C66.8959 70.5833 70.559 66.9261 73.1075 62.5206C75.683 58.1185 77.0272 53.105 76.9996 48.005C77.0004 44.1963 76.2509 40.4248 74.7938 36.9057C73.3367 33.3867 71.2006 30.1892 68.5075 27.4957C65.8144 24.8023 62.6171 22.6657 59.098 21.208C55.579 19.7503 51.8073 19 47.9983 19ZM30.2651 63.9284L33.4113 46.183C34.5276 39.4345 38.0805 33.8961 44.1563 32.0728L41.0014 49.862C39.6874 56.7745 36.2559 62.0652 30.2651 63.9284ZM40.3181 68.2931L45.0574 41.7495C46.1737 34.9985 49.7266 29.465 55.8011 27.6393L51.0544 54.2267C49.7428 61.1392 46.3101 66.4286 40.3181 68.2931ZM62.6954 49.862C61.3839 56.7745 57.9511 62.0652 51.9592 63.9284L55.1066 46.183C56.2229 39.4345 59.7733 33.8961 65.8491 32.0728L62.6954 49.862Z" fill="#194B9B"/>
</svg>
