<svg width="96" height="96" viewBox="0 0 96 96" fill="none" xmlns="http://www.w3.org/2000/svg">
<circle cx="48" cy="48" r="47" fill="white" stroke="white" stroke-width="2"/>
<path d="M59.5471 31V51.0821H37.101V31H59.5471Z" fill="#43B049"/>
<path d="M51.8368 46.747C54.8391 46.747 57.0653 46.0934 57.0653 40.7321C57.0653 36.6473 55.5744 35.0491 52.4444 35.0491H39.4546V36.7187H43.2688V46.747H45.8678V36.7085H51.6325C53.3992 36.7085 54.2366 37.6174 54.2366 40.7525C54.2366 43.8876 53.5064 45.0722 51.7602 45.0722H49.2327V37.3162H46.6082V46.747H51.8368Z" fill="white"/>
<path d="M74.5761 65.09V63.9973C74.4353 64.3963 74.1654 64.737 73.8092 64.9653C73.4529 65.1936 73.0306 65.2965 72.6092 65.2577C70.6525 65.2577 69.9308 63.733 69.9308 61.9542C69.9308 60.2973 70.6932 58.8488 72.5279 58.8488C72.8893 58.8284 73.2496 58.9036 73.5727 59.0669C73.8957 59.2302 74.1699 59.4758 74.3677 59.7789V56.2771H77.3155V65.09H74.5761ZM73.6969 60.6581C73.0768 60.6581 72.9701 61.2934 72.9701 61.9287C72.9701 62.564 73.0768 63.2553 73.7172 63.2553C74.3576 63.2553 74.444 62.5742 74.444 61.9999C74.4491 61.2934 74.3525 60.6581 73.6969 60.6581Z" fill="#183129"/>
<path d="M13.8665 56.9124H18.1865L21.0988 65.0849H17.8257L17.287 63.3162H14.6238L14.1155 65.0849H11L13.8665 56.9124ZM15.0609 61.3493H16.8753L15.9859 58.6709L15.0609 61.3493Z" fill="#183129"/>
<path d="M21.5713 58.9808H24.3565V60.0329C24.5379 59.6377 24.8395 59.3099 25.2183 59.0964C25.5971 58.8828 26.0336 58.7943 26.4657 58.8436C27.2839 58.8436 28.1378 59.1587 28.3766 59.8855C28.5749 59.1841 29.6066 58.8436 30.3334 58.8436C32.4883 58.8436 32.4883 60.2362 32.4883 61.4306V65.0848H29.5405V61.5729C29.5405 61.2222 29.5405 60.7444 29.0323 60.7444C28.524 60.7444 28.524 61.2222 28.524 61.5729V65.0848H25.5762V61.5729C25.5762 61.2222 25.5762 60.7444 25.068 60.7444C24.5598 60.7444 24.5598 61.2222 24.5598 61.5729V65.0848H21.6119V58.9859L21.5713 58.9808Z" fill="#183129"/>
<path d="M36.1225 62.742C36.1683 63.5043 36.8849 63.6771 37.7489 63.6771C38.437 63.7019 39.1218 63.5699 39.7514 63.2909V64.8715C38.8572 65.1235 37.9306 65.2417 37.0018 65.2222C34.5317 65.2222 33.2205 64.0278 33.2205 61.9237C33.2205 59.8196 34.5317 58.8438 37.0018 58.8438C39.3651 58.8438 40.1986 60.3177 40.1986 62.4014V62.7623H36.1327L36.1225 62.742ZM37.6472 61.4561C37.6472 60.9885 37.5761 60.2516 36.9103 60.2516C36.2445 60.2516 36.0819 60.9784 36.1174 61.4561H37.6422H37.6472Z" fill="#183129"/>
<path d="M43.7459 58.981V60.3635C44.0965 59.4994 44.681 58.8387 45.606 58.8387C45.767 58.8371 45.9275 58.8558 46.0838 58.8946V61.3393C45.8684 61.2721 45.6434 61.2411 45.418 61.2478C45.2115 61.253 45.0081 61.2991 44.8195 61.3833C44.6309 61.4675 44.4609 61.5882 44.3191 61.7385C44.1774 61.8887 44.0668 62.0655 43.9937 62.2587C43.9206 62.4519 43.8865 62.6576 43.8932 62.864V65.0749H40.9454V58.976H43.7459V58.981Z" fill="#183129"/>
<path d="M49.9212 58.3406H46.9734V56.3076H49.9212V58.3406ZM46.9734 58.981H49.9212V65.0799H46.9734V58.981Z" fill="#183129"/>
<path d="M51.7303 58.981V57.5783L54.6781 56.6787V58.9861H56.0148V60.7446H54.6781V62.4727C54.6595 62.5687 54.6622 62.6675 54.6859 62.7624C54.7096 62.8572 54.7537 62.9458 54.8152 63.0218C54.8767 63.0978 54.954 63.1594 55.0419 63.2024C55.1297 63.2454 55.2258 63.2687 55.3236 63.2706C55.5583 63.2737 55.7919 63.2377 56.0148 63.1639V64.9224C55.3559 65.1254 54.6711 65.2315 53.9818 65.2375C52.4571 65.2375 51.7201 64.4751 51.7201 62.864V60.7396H50.6782V58.981H51.7201H51.7303Z" fill="#183129"/>
<path d="M59.6237 58.981V60.3635C59.9743 59.4994 60.5639 58.8387 61.4838 58.8387C61.6448 58.837 61.8053 58.8558 61.9616 58.8946V61.3393C61.7462 61.2721 61.5212 61.2411 61.2958 61.2478C61.0895 61.2537 60.8864 61.3002 60.6982 61.3847C60.5099 61.4691 60.3401 61.5898 60.1985 61.7399C60.0569 61.89 59.9462 62.0666 59.8729 62.2594C59.7996 62.4523 59.765 62.6578 59.771 62.864V65.0749H56.8232V58.976H59.5881L59.6237 58.981Z" fill="#183129"/>
<path d="M62.9319 59.1944C63.7542 58.9398 64.6126 58.8214 65.4731 58.8437C67.1605 58.8437 69.2087 59.1487 69.2087 61.3849V65.0951H66.4693V64.2057C66.2572 64.5366 65.9609 64.8051 65.6108 64.9837C65.2607 65.1624 64.8694 65.2446 64.477 65.2222C63.3436 65.2222 62.2407 64.7139 62.2407 63.4332C62.2407 61.5577 63.923 61.1867 65.3918 61.1867C65.7984 61.1867 66.2711 61.2477 66.5405 61.268C66.5405 60.4854 65.7222 60.3888 64.9852 60.3888C64.2782 60.405 63.5837 60.5786 62.9523 60.897V59.1944H62.9319ZM66.5252 62.4014H66.2304C65.6205 62.4014 64.9192 62.4573 64.9192 63.0926C64.913 63.1796 64.9274 63.2668 64.961 63.3473C64.9946 63.4278 65.0466 63.4993 65.1127 63.5561C65.1789 63.6129 65.2575 63.6534 65.3421 63.6744C65.4268 63.6954 65.5151 63.6964 65.6002 63.6771C65.7322 63.6676 65.8609 63.6317 65.9787 63.5714C66.0964 63.5111 66.2009 63.4278 66.2858 63.3263C66.3707 63.2248 66.4343 63.1072 66.4728 62.9807C66.5113 62.8541 66.5239 62.721 66.51 62.5895V62.4014H66.5252Z" fill="#183129"/>
<path d="M80.924 62.7166C80.9698 63.4789 81.6864 63.6517 82.5504 63.6517C83.2385 63.6753 83.923 63.5433 84.5529 63.2655V64.8461C83.6587 65.098 82.7321 65.2162 81.8033 65.1968C79.3332 65.1968 78.022 64.0024 78.022 61.8983C78.022 59.7942 79.3332 58.8184 81.8033 58.8184C84.1666 58.8184 85.0001 60.2923 85.0001 62.3761V62.7369H80.9342L80.924 62.7166ZM82.4488 61.4307C82.4488 60.9631 82.3776 60.2262 81.7118 60.2262C81.046 60.2262 80.8834 60.953 80.9189 61.4307H82.4437H82.4488Z" fill="#183129"/>
</svg>
