<svg width="96" height="96" viewBox="0 0 96 96" fill="none" xmlns="http://www.w3.org/2000/svg">
<circle cx="48" cy="48" r="47" fill="white" stroke="white" stroke-width="2"/>
<g clip-path="url(#clip0_1_9449)">
<path fill-rule="evenodd" clip-rule="evenodd" d="M25.887 33.1778H29.4551V63.0191H27.2751V35.1114H25.887V33.1778ZM28.3854 70.0998C34.9921 70.0998 37.6978 66.4583 37.6978 60.5788V35.4548C37.6978 29.5612 35.0153 26 28.3854 26C21.7554 26 19.073 29.5612 19.073 35.4548L19.073 60.5788C19.073 66.4723 21.7787 70.0998 28.3854 70.0998Z" fill="black"/>
<path d="M68.4698 62.6614V50.5651H74.4216C74.77 50.5651 75.0524 50.2828 75.0524 49.9344V44.3753C75.0524 44.0269 74.77 43.7444 74.4216 43.7444H68.4698V33.4288H76.1546C76.503 33.4288 76.7855 33.1464 76.7855 32.798V27.1875C76.7855 26.8391 76.503 26.5566 76.1546 26.5566H61.5287C61.1803 26.5566 60.8979 26.8391 60.8979 27.1875V68.9101C60.8979 69.2585 61.1803 69.5409 61.5287 69.5409H76.2811C76.6295 69.5409 76.9119 69.2585 76.9119 68.9101V63.2922C76.9119 62.9438 76.6295 62.6614 76.2811 62.6614H68.4698Z" fill="black"/>
<path d="M39.553 68.9101C39.553 69.2585 39.8354 69.5409 40.1838 69.5409H45.1924C45.5408 69.5409 45.8233 69.2585 45.8233 68.9101V46.3859H46.3966L51.7335 69.0546C51.8007 69.3395 52.0549 69.5409 52.3476 69.5409H58.4172C58.7656 69.5409 59.048 69.2585 59.048 68.9101V27.1875C59.048 26.8391 58.7656 26.5566 58.4172 26.5566H53.4087C53.0603 26.5566 52.7778 26.8391 52.7778 27.1875V47.4307H52.2293L47.4912 27.0446C47.4248 26.7589 47.1702 26.5566 46.8769 26.5566H40.1838C39.8354 26.5566 39.553 26.8391 39.553 27.1875V68.9101Z" fill="black"/>
</g>
<defs>
<clipPath id="clip0_1_9449">
<rect width="58" height="44.1392" fill="white" transform="translate(19 26)"/>
</clipPath>
</defs>
</svg>
