<svg width="96" height="96" viewBox="0 0 96 96" fill="none" xmlns="http://www.w3.org/2000/svg">
<circle cx="48" cy="48" r="47" fill="white" stroke="white" stroke-width="2"/>
<g clip-path="url(#clip0_1_9431)">
<mask id="mask0_1_9431" style="mask-type:luminance" maskUnits="userSpaceOnUse" x="19" y="41" width="58" height="14">
<path d="M76.883 41H19V54.7368H76.883V41Z" fill="white"/>
</mask>
<g mask="url(#mask0_1_9431)">
<path d="M45.5599 47.4397V52.6187C45.5599 52.6187 45.5599 52.6326 45.546 52.6326H43.7597C43.7597 52.6326 43.7459 52.6326 43.7459 52.6187V48.0352C43.7459 46.775 42.9427 45.9303 41.6964 45.9303C40.3947 45.9303 39.5223 46.7889 39.5223 48.0629V52.6049C39.5223 52.6049 39.5223 52.6187 39.5085 52.6187H37.7222C37.7222 52.6187 37.7083 52.6187 37.7083 52.6049V45.3626V45.3487L39.4947 44.3794C39.4947 44.3794 39.5085 44.3794 39.5085 44.3933V45.4457C40.1455 44.6702 41.2118 44.1855 42.2919 44.1855C44.2444 44.1855 45.5599 45.4872 45.5599 47.4397Z" fill="#282A30"/>
<path d="M46.9447 48.5063C46.9447 46.0553 48.828 44.1997 51.3482 44.1997C53.8546 44.1997 55.7518 46.0553 55.7518 48.5063C55.7518 50.9573 53.8408 52.8129 51.3482 52.8129C48.828 52.8129 46.9447 50.9573 46.9447 48.5063ZM53.8962 48.5063C53.8962 47.0523 52.8161 45.9445 51.3621 45.9445C49.9081 45.9445 48.8141 47.0523 48.8141 48.5063C48.8141 49.9603 49.9081 51.0681 51.3621 51.0681C52.8161 51.0681 53.8962 49.9603 53.8962 48.5063Z" fill="#282A30"/>
<path d="M64.8359 44.3923L61.3463 52.6039C61.3463 52.6039 61.3463 52.6039 61.3324 52.6039H59.4769H59.463L55.9734 44.3923C55.9734 44.3923 55.9734 44.3784 55.9873 44.3784H58.0367H58.0506L60.4324 50.3744L62.8419 44.3784C62.8419 44.3784 62.8419 44.3784 62.8557 44.3784L64.8359 44.3923C64.8497 44.3923 64.8359 44.3784 64.8359 44.3923Z" fill="#282A30"/>
<path d="M73.5597 49.2261H66.899C67.1898 50.4031 68.2007 51.1786 69.5439 51.1786C70.6241 51.1786 71.5378 50.6662 72.0089 50.0569H72.0227L73.2412 51.0955V51.1094C72.3966 52.1479 71.0535 52.8126 69.5023 52.8126C66.8851 52.8126 64.9465 50.9432 64.9465 48.4645C64.9465 46.0273 66.8159 44.1855 69.2946 44.1855C71.7596 44.1855 73.6289 46.0273 73.6289 48.5199C73.6151 48.7414 73.6014 49.0045 73.5597 49.2261C73.5734 49.2261 73.5734 49.2261 73.5597 49.2261ZM66.8851 47.7444H71.6762C71.3994 46.5812 70.444 45.8196 69.2669 45.8196C68.0899 45.8196 67.176 46.595 66.8851 47.7444Z" fill="#282A30"/>
<path d="M75.083 41.9693L76.8692 41C76.8692 41 76.8835 41 76.8835 41.0138V52.6182C76.8835 52.6182 76.8835 52.632 76.8692 52.632H75.083C75.083 52.632 75.0692 52.632 75.0692 52.6182L75.083 41.9693Z" fill="#282A30"/>
<path d="M22.3514 44.3501C22.3652 44.3363 22.3929 44.3501 22.3791 44.364C22.0606 45.6656 22.5314 47.5351 25.0794 47.7289C26.8934 47.8674 30.2307 47.0919 32.9587 43.45C32.9725 43.4362 33.0002 43.45 32.9864 43.4639C31.9062 46.9534 27.4058 50.2907 23.8885 50.2907C21.3267 50.2907 19.5819 47.7843 22.3514 44.3501ZM27.1981 42.0791C25.0517 42.0791 23.57 43.3115 23.57 44.4609C23.57 45.3887 24.2485 46.2334 26.1318 46.2334C27.9735 46.2334 30.2445 45.1256 31.5601 43.8516C31.5739 43.8378 31.5739 43.8378 31.5601 43.8239C30.4384 42.7438 28.9013 42.0791 27.1981 42.0791ZM33.4987 48.2136C31.1862 52.7418 27.1704 54.1819 25.2455 54.3897C25.2317 54.3897 25.2179 54.4173 25.2455 54.4173C25.8687 54.6251 26.5195 54.722 27.1981 54.722C30.7015 54.722 33.5264 51.8832 33.5264 48.3936C33.5264 48.3382 33.5264 48.269 33.5264 48.2136C33.5264 48.2136 33.4987 48.1997 33.4987 48.2136ZM23.0992 53.5449C29.4552 53.5449 34.3988 47.3827 34.3988 43.8654C34.3988 42.8546 33.928 42.3007 33.2079 42.3007C32.9448 42.3007 32.5848 42.4391 32.3079 42.7853C32.294 42.7992 32.3079 42.8269 32.3355 42.813C32.4879 42.7299 32.6402 42.6746 32.7787 42.6746C33.2079 42.6746 33.4572 43.0069 33.4572 43.5331C33.4572 45.8872 29.0121 51.6617 23.1684 51.6617C21.7421 51.6755 20.0527 51.3155 19.208 49.5845C19.208 49.5707 19.1803 49.5707 19.1803 49.5845C18.4879 51.177 19.7757 53.5449 23.0992 53.5449Z" fill="#282A30"/>
</g>
</g>
<defs>
<clipPath id="clip0_1_9431">
<rect width="58" height="13.7368" fill="white" transform="translate(19 41)"/>
</clipPath>
</defs>
</svg>
