<svg width="96" height="96" viewBox="0 0 96 96" fill="none" xmlns="http://www.w3.org/2000/svg">
<circle cx="48" cy="48" r="47" fill="white" stroke="white" stroke-width="2"/>
<path d="M77 75.1585H19V20H77V75.1585ZM21.8415 72.317H74.1585V22.8415H21.8415V72.317Z" fill="#7DACD1"/>
<path d="M41.2302 56.9404H54.9363V60.2833H41.2302V56.9404ZM43.0688 50.4216V37.217H41.3974C41.2302 36.8827 41.2302 36.5484 41.2302 36.047C41.2302 35.7127 41.2302 35.2112 41.3974 34.877H48.4175C48.5847 35.2112 48.5847 35.3784 48.5847 35.5455V36.5484C48.5847 36.7156 48.4175 36.8827 48.4175 37.217H46.5789V50.2545H52.2619V46.5772C52.4291 46.5772 52.7634 46.4101 52.9305 46.4101H53.5991C54.1005 46.4101 54.4348 46.5772 54.9363 46.7444V52.9288H41.3974C41.2302 52.5945 41.2302 52.0931 41.2302 51.7588C41.2302 51.4245 41.2302 50.9231 41.3974 50.5888H43.0688V50.4216Z" fill="#153257"/>
</svg>
