<svg width="96" height="96" viewBox="0 0 96 96" fill="none" xmlns="http://www.w3.org/2000/svg">
<circle cx="48" cy="48" r="47" fill="white" stroke="white" stroke-width="2"/>
<path d="M56.5265 22.2556C55.1836 22.2669 53.8753 22.6799 52.7723 23.4409C52.4013 22.5652 51.8608 21.7705 51.1815 21.1019C50.5479 20.448 49.7901 19.9254 48.9517 19.5646C48.1134 19.2038 47.2114 19.0119 46.2978 19C44.6753 19.0202 43.1131 19.6141 41.8914 20.6752C41.2074 21.2283 40.3007 22.1608 38.8531 23.5199C38.8531 23.5199 29.6744 32.6387 29.6585 32.6229H29.3562C27.4828 32.6535 25.698 33.4207 24.393 34.7564C23.7367 35.3839 23.2118 36.1343 22.8487 36.9643C22.4856 37.7943 22.2914 38.6875 22.2773 39.5924C22.2913 40.9309 22.7067 42.235 23.4704 43.3379C22.5888 43.7146 21.7851 44.2504 21.1001 44.9182C20.4431 45.5444 19.9189 46.2948 19.5583 47.1254C19.1976 47.9559 19.0079 48.8497 19.0003 49.7542C18.9842 51.3558 19.5489 52.9098 20.5911 54.1318C21.5456 55.1941 22.5544 56.2069 23.6136 57.1662L32.5377 66.0321C32.5377 66.2218 32.5377 66.4272 32.5377 66.6169V66.7275C32.572 68.5879 33.3437 70.3598 34.6853 71.6583C35.3065 72.3209 36.0537 72.8549 36.8837 73.2292C37.7137 73.6035 38.6101 73.8108 39.5212 73.8392C40.8686 73.8253 42.1812 73.4126 43.2913 72.6539C43.6709 73.5249 44.2103 74.318 44.8821 74.9929C46.158 76.2597 47.8824 76.9801 49.6862 77C51.2967 77.0062 52.8575 76.4464 54.0926 75.4196C55.1578 74.5226 56.1772 73.5732 57.1469 72.5749L66.1983 63.5825L66.3097 63.4719H66.6437C67.5812 63.4366 68.5024 63.2173 69.3542 62.8268C70.206 62.4362 70.9716 61.882 71.6069 61.1961C72.9096 59.9518 73.6692 58.2496 73.7226 56.455C73.7128 55.1134 73.291 53.8066 72.5136 52.7095C73.3974 52.3368 74.2018 51.8004 74.8839 51.1291C76.1556 49.9518 76.9126 48.3265 76.9929 46.6014C77.0732 44.8763 76.4703 43.1886 75.3134 41.8997C74.7566 41.2201 73.8181 40.2403 72.45 38.8812L63.5258 30.0152C63.5258 29.8256 63.5258 29.636 63.5258 29.4305V29.3199C63.495 27.4587 62.7228 25.6856 61.3783 24.3891C60.7523 23.7318 60.0009 23.2047 59.168 22.8384C58.3351 22.4721 57.4372 22.274 56.5265 22.2556ZM45.0571 24.2627C45.4739 23.9839 45.9725 23.8512 46.4738 23.8856C46.9751 23.9199 47.4506 24.1193 47.825 24.4523C48.0583 24.6655 48.2446 24.9244 48.372 25.2128C48.4994 25.5011 48.5652 25.8126 48.5652 26.1275C48.5652 26.4424 48.4994 26.7539 48.372 27.0423C48.2446 27.3306 48.0583 27.5896 47.825 27.8027C47.0773 28.7035 45.6775 30.1575 43.6731 32.1488L37.9304 37.9172L37.7236 37.6959C36.3397 36.3368 35.3216 35.3569 34.4467 34.6142L41.9232 27.1864C42.8983 26.1407 43.9454 25.1638 45.0571 24.2627ZM30.5175 44.0332C29.4378 43.0699 28.4476 42.012 27.5586 40.8725C27.284 40.4639 27.1551 39.9757 27.1925 39.4858C27.23 38.9959 27.4317 38.5326 27.7654 38.17C27.9825 37.9424 28.2439 37.7611 28.5338 37.6372C28.8238 37.5132 29.1361 37.4493 29.4517 37.4493C29.7673 37.4493 30.0796 37.5132 30.3695 37.6372C30.6594 37.7611 30.9208 37.9424 31.1379 38.17C31.7583 38.6915 39.9507 46.7673 44.7071 51.4452L41.3028 54.8272L39.2189 52.7411L30.5175 44.0332ZM24.2817 50.9869C24.0356 50.5606 23.9279 50.0692 23.9735 49.5799C24.019 49.0905 24.2156 48.6271 24.5362 48.2528C24.7514 48.0306 25.0096 47.8537 25.2952 47.733C25.5809 47.6122 25.8881 47.5499 26.1985 47.5499C26.509 47.5499 26.8162 47.6122 27.1019 47.733C27.3875 47.8537 27.6457 48.0306 27.8609 48.2528C28.7517 48.9956 30.2152 50.3705 32.2355 52.3776L37.9304 58.0354L37.5168 58.4463C36.2442 59.7106 35.3057 60.6588 34.5898 61.4806L27.2246 54.1951C26.1724 53.1924 25.1892 52.1206 24.2817 50.9869ZM37.7077 68.1498C37.3826 67.74 37.2058 67.2335 37.2058 66.7117C37.2058 66.1899 37.3826 65.6833 37.7077 65.2735C38.4713 64.4043 40.1257 62.6027 42.146 60.6114L48.0954 54.7008L51.4201 51.3978L54.8243 54.7798L52.6291 56.9291L43.9276 65.5896C42.922 66.6165 41.8598 67.5873 40.7461 68.4975C40.2936 68.8435 39.7232 69.0007 39.1559 68.9358C38.5887 68.8709 38.0692 68.589 37.7077 68.1498ZM54.1562 68.8294C52.5655 70.4098 51.6746 71.1842 50.9747 71.7057C50.5235 72.0572 49.9554 72.2266 49.3839 72.1798C48.906 72.1246 48.4619 71.9069 48.1272 71.5634C47.9028 71.3512 47.7281 71.0925 47.6154 70.8058C47.5027 70.519 47.4548 70.2112 47.475 69.904C47.5125 69.2665 47.7842 68.6648 48.2386 68.213C49.0021 67.3438 50.3702 65.8583 52.3905 63.867L58.1331 58.0354L58.3558 58.2566C59.7239 59.6158 60.742 60.5956 61.6169 61.4174L54.1562 68.8294ZM56.781 43.3221L65.4984 51.9667C66.549 52.9542 67.5321 54.0101 68.4413 55.1275C68.7371 55.5225 68.8874 56.0064 68.8671 56.4983C68.8469 56.9902 68.6572 57.4603 68.3299 57.8299C68.1171 58.0802 67.8514 58.2807 67.5517 58.4173C67.252 58.5539 66.9257 58.6231 66.596 58.6201C65.9497 58.5698 65.3417 58.2958 64.878 57.8457C64.0031 57.0872 62.5077 55.728 60.5034 53.721L51.2928 44.5864L54.6971 41.1885L56.781 43.3221ZM68.7594 41.7417C69.8097 42.7294 70.7929 43.7853 71.7024 44.9024C71.976 45.3152 72.1069 45.8053 72.0754 46.2985C72.0438 46.7918 71.8514 47.2615 71.5274 47.6365C71.3114 47.8687 71.0494 48.054 70.7578 48.1808C70.4663 48.3075 70.1515 48.3729 69.8332 48.3729C69.515 48.3729 69.2001 48.3075 68.9086 48.1808C68.617 48.054 68.355 47.8687 68.139 47.6365C67.2641 46.8779 65.7688 45.5188 63.7644 43.5117L58.0377 37.8223L58.4513 37.4904C59.708 36.2261 60.6465 35.2779 61.3624 34.4561L68.7594 41.7417ZM58.0377 30.9793C57.29 31.8801 55.8902 33.334 53.8858 35.3253L47.9363 41.2359L44.5957 44.6022L41.1915 41.2359L43.3549 39.0708L52.0723 30.4103C53.0727 29.3731 54.1351 28.3968 55.2538 27.4866C55.6693 27.2146 56.1644 27.0885 56.6603 27.1286C57.1562 27.1688 57.6243 27.3727 57.99 27.7079C58.2243 27.919 58.4123 28.1758 58.5425 28.4622C58.6727 28.7486 58.7422 29.0586 58.7467 29.3728C58.7511 29.687 58.6905 29.9988 58.5685 30.2888C58.4466 30.5787 58.2659 30.8407 58.0377 31.0583V30.9793Z" fill="#DD971A"/>
</svg>
