<svg width="96" height="96" viewBox="0 0 96 96" fill="none" xmlns="http://www.w3.org/2000/svg">
<circle cx="48" cy="48" r="47" fill="white" stroke="white" stroke-width="2"/>
<path d="M56.6382 52.6814C55.6164 52.6683 55.1709 52.1967 54.6731 51.6596C55.6033 50.5853 56.1273 49.1705 56.0225 47.6246C55.8391 44.8079 53.5333 42.5546 50.7167 42.4236C47.3891 42.2664 44.6642 45.0437 44.8869 48.3844C45.0703 51.2273 47.4153 53.4806 50.2713 53.5854C51.0835 53.6116 51.8565 53.4675 52.5639 53.1793C52.6032 53.1662 52.6163 53.1269 52.5901 53.0876C52.446 52.8779 52.3019 52.7207 52.1578 52.5897C52.053 52.498 51.7386 52.2884 51.3193 52.3539C50.9132 52.4325 50.494 52.4587 50.0617 52.4194C47.8739 52.2229 46.1315 50.4281 46.0267 48.2272C45.8956 45.5416 48.1752 43.3406 50.8739 43.5896C52.9569 43.7861 54.6469 45.4499 54.8565 47.546C54.8827 47.808 54.8827 48.0569 54.8696 48.2796C54.8303 48.8429 54.6338 50.0482 53.6775 50.9783C53.5857 50.9521 53.4809 50.939 53.3761 50.9259C52.7473 50.8866 52.4329 51.188 52.315 51.3321C52.2888 51.3583 52.3019 51.4107 52.3543 51.4238C52.5115 51.45 52.8914 51.5679 53.4023 52.0002C53.5333 52.1312 53.6775 52.2753 53.8347 52.4456C54.398 53.0876 55.1316 53.8081 56.6382 53.8343C56.6775 53.8343 56.7037 53.8081 56.7037 53.7688V52.7338C56.6906 52.7076 56.6644 52.6814 56.6382 52.6814Z" fill="#2A3277"/>
<path d="M73.2498 53.5722C70.1187 53.5722 67.5772 50.9782 67.6689 47.821C67.7475 45.0567 69.896 42.7379 72.6472 42.4497C74.2455 42.2794 75.8044 42.7903 76.9704 43.8514C77.0097 43.8907 77.0097 43.9432 76.9704 43.9825L76.3023 44.6899C76.2761 44.7292 76.2106 44.7292 76.1844 44.6899C75.2018 43.8121 73.8786 43.406 72.5424 43.6156C70.4594 43.9432 68.8742 45.7379 68.8087 47.8472C68.7301 50.3494 70.7476 52.4062 73.2367 52.4062C74.2848 52.4062 75.3066 52.0263 76.1058 51.345C76.1451 51.3188 76.1975 51.3188 76.2237 51.3581L76.8656 52.0918C76.8918 52.1311 76.8918 52.1835 76.8525 52.2228C75.8699 53.1005 74.5861 53.5722 73.2498 53.5722Z" fill="#2A3277"/>
<path d="M65.7432 42.6067L61.8391 50.9125L57.9482 42.6067C57.9351 42.5805 57.922 42.5674 57.8958 42.5674H56.7299C56.6906 42.5674 56.6644 42.6067 56.6775 42.646L61.7867 53.5196C61.8129 53.5851 61.9047 53.5851 61.9309 53.5196L67.0401 42.646C67.0532 42.6067 67.027 42.5674 66.9877 42.5674H65.8087C65.7825 42.5674 65.7563 42.5805 65.7432 42.6067Z" fill="#2A3277"/>
<path d="M19 37.1441V58.3672C19 58.4458 19.0655 58.5113 19.1441 58.5113H40.3803C40.4589 58.5113 40.5244 58.4458 40.5244 58.3672V37.1441C40.5244 37.0655 40.4589 37 40.3803 37H19.1441C19.0655 37 19 37.0655 19 37.1441ZM39.555 57.5681H19.9563V37.9695H39.555V57.5681Z" fill="#AF1917"/>
<path d="M35.5855 52.0134C34.7339 52.0003 34.3016 51.568 33.9217 51.1356C34.8387 50.0614 35.2842 48.6858 35.1925 47.2709C35.0091 44.5329 32.795 42.3713 30.057 42.2403C28.5242 42.1748 27.0176 42.7643 25.9434 43.8648C24.8691 44.9652 24.3058 46.4718 24.4106 48.0177C24.594 50.7557 26.8866 52.9566 29.6247 53.0483C30.3583 53.0745 31.0657 52.9435 31.747 52.6815C31.7732 52.6684 31.7994 52.6422 31.8125 52.6029C31.8256 52.5636 31.8125 52.5243 31.7994 52.4981C31.6684 52.3016 31.4064 52.0396 31.2754 51.9348C31.1575 51.8562 30.8299 51.6466 30.3452 51.699C30.0046 51.7514 29.7819 51.7383 29.4413 51.7121C27.4238 51.5287 25.8124 49.8649 25.7207 47.8474C25.6683 46.6552 26.1268 45.5024 26.9783 44.677C27.843 43.8517 29.0089 43.4455 30.2011 43.5635C32.14 43.7469 33.6859 45.2796 33.8824 47.2185C33.9086 47.4413 33.9086 47.6771 33.8955 47.8998C33.8562 48.45 33.6728 49.485 32.8736 50.3103C32.8474 50.2972 32.8081 50.2841 32.7819 50.2841C32.7688 50.2841 32.5854 50.2448 32.4806 50.2317C31.8387 50.1924 31.5112 50.5068 31.4064 50.6509C31.3802 50.6902 31.3671 50.7295 31.3933 50.7688C31.4195 50.8081 31.4457 50.8343 31.485 50.8474C31.616 50.8736 31.9697 50.9653 32.4544 51.3846C32.5854 51.5156 32.7295 51.6466 32.8605 51.8038C33.4239 52.4457 34.1706 53.2973 35.6117 53.3104C35.651 53.3104 35.6772 53.2973 35.7034 53.2711C35.7296 53.2449 35.7427 53.2187 35.7427 53.1794V52.1444C35.7034 52.0658 35.6641 52.0134 35.5855 52.0134Z" fill="#2A3277"/>
</svg>
