<svg width="96" height="96" viewBox="0 0 96 96" fill="none" xmlns="http://www.w3.org/2000/svg">
<circle cx="48" cy="48" r="47" fill="white" stroke="white" stroke-width="2"/>
<path d="M13.392 55.7533H15.89V56.1478H13.8788V57.1244H15.6455V57.5078H13.8788V58.9711H13.3909V55.7533H13.392ZM16.96 55.7533H19.5727V56.1478H17.4349V57.1244H19.4104V57.4967H17.4349V58.5878H19.6095V58.9711H16.96V55.7533ZM20.9856 55.7533H22.4245C22.9135 55.7533 23.2922 55.91 23.5615 56.2244C23.8017 56.5078 23.9218 56.87 23.9218 57.3133C23.9218 57.6544 23.8504 57.9633 23.7087 58.24C23.4588 58.7278 23.0293 58.9711 22.4191 58.9711H20.9856V55.7533ZM22.3293 58.5989C22.4905 58.5989 22.6236 58.5833 22.7274 58.5533C22.9124 58.4967 23.065 58.3867 23.1829 58.2244C23.277 58.0944 23.3452 57.9278 23.3863 57.7256C23.4101 57.6044 23.422 57.4922 23.422 57.3878C23.422 56.9889 23.3354 56.68 23.1623 56.4589C22.9892 56.2389 22.7101 56.1278 22.325 56.1278H21.4789V58.5978H22.3293V58.5989ZM25.2374 55.7533H27.8501V56.1478H25.7134V57.1244H27.6889V57.4967H25.7134V58.5878H27.8879V58.9711H25.2374V55.7533ZM29.2003 55.7533H30.8371C31.1065 55.7533 31.3294 55.7889 31.5036 55.8611C31.8357 55.9978 32.0023 56.2522 32.0023 56.6211C32.0023 56.8133 31.9579 56.9711 31.8692 57.0944C31.7805 57.2167 31.6561 57.3156 31.4949 57.39C31.6355 57.4411 31.7416 57.5078 31.8119 57.5911C31.8833 57.6744 31.9222 57.8089 31.9309 57.9967L31.9482 58.4278C31.9536 58.55 31.9644 58.6411 31.9828 58.7011C32.012 58.8033 32.065 58.8689 32.1397 58.8978V58.97H31.5414C31.5252 58.9422 31.5122 58.9067 31.5025 58.8622C31.4927 58.8189 31.4841 58.7333 31.4776 58.6078L31.4484 58.0711C31.4376 57.8611 31.3521 57.72 31.1931 57.6489C31.1022 57.61 30.9605 57.59 30.7668 57.59H29.6882V58.97H29.2003V55.7533ZM30.7841 57.2278C31.007 57.2278 31.1822 57.1867 31.3121 57.1056C31.4419 57.0233 31.5068 56.8767 31.5068 56.6633C31.5068 56.4344 31.4159 56.2778 31.2353 56.1944C31.1379 56.1511 31.0091 56.1289 30.8469 56.1289H29.6882V57.2278H30.7841ZM34.4203 55.7533H34.971L36.2779 58.97H35.7434L35.368 58.0067H33.9551L33.5645 58.97H33.0647L34.4203 55.7533ZM35.2284 57.6522L34.6745 56.2311L34.099 57.6522H35.2284ZM37.4203 55.7533H37.9082V58.5867H39.715V58.97H37.4214V55.7533H37.4203ZM44.3843 55.9878C44.6331 56.2022 44.7716 56.4467 44.7987 56.7189H44.3227C44.2696 56.5111 44.1647 56.3478 44.0057 56.2267C43.8477 56.1056 43.6259 56.0444 43.3403 56.0444C42.9919 56.0444 42.7107 56.1556 42.4965 56.3789C42.2822 56.6022 42.1751 56.9433 42.1751 57.4033C42.1751 57.78 42.2714 58.0856 42.4651 58.32C42.6587 58.5544 42.9476 58.6722 43.3306 58.6722C43.6833 58.6722 43.9527 58.5489 44.1376 58.3022C44.235 58.1722 44.3086 58.0011 44.3573 57.79H44.8333C44.7911 58.1289 44.6526 58.4122 44.4168 58.6422C44.1344 58.9178 43.7525 59.0567 43.2732 59.0567C42.86 59.0567 42.5127 58.9433 42.2314 58.7167C41.8614 58.4178 41.6764 57.9544 41.6764 57.3289C41.6764 56.8544 41.8149 56.4644 42.0929 56.1611C42.3937 55.8311 42.807 55.6656 43.336 55.6656C43.786 55.6656 44.1355 55.7733 44.3843 55.9878ZM46.2246 55.7533H47.8615C48.1308 55.7533 48.3537 55.7889 48.5279 55.8611C48.86 55.9978 49.0266 56.2522 49.0266 56.6211C49.0266 56.8133 48.9823 56.9711 48.8936 57.0944C48.8048 57.2167 48.6804 57.3156 48.5192 57.39C48.6599 57.4411 48.7659 57.5078 48.8362 57.5911C48.9076 57.6744 48.9466 57.8089 48.9552 57.9967L48.9725 58.4278C48.9769 58.55 48.9888 58.6411 49.0072 58.7011C49.0364 58.8033 49.0894 58.8689 49.164 58.8978V58.97H48.5658C48.5495 58.9422 48.5365 58.9067 48.5268 58.8622C48.5171 58.8189 48.5084 58.7333 48.5019 58.6078L48.4727 58.0711C48.4619 57.8611 48.3764 57.72 48.2174 57.6489C48.1265 57.61 47.9848 57.59 47.7911 57.59H46.7125V58.97H46.2246V55.7533ZM47.8084 57.2278C48.0313 57.2278 48.2066 57.1867 48.3364 57.1056C48.4662 57.0233 48.5311 56.8767 48.5311 56.6633C48.5311 56.4344 48.4403 56.2778 48.2596 56.1944C48.1622 56.1511 48.0335 56.1289 47.8712 56.1289H46.7125V57.2278H47.8084ZM50.3389 55.7533H52.9517V56.1478H50.8139V57.1244H52.7894V57.4967H50.8139V58.5878H52.9884V58.9711H50.3389V55.7533ZM54.3657 55.7533H55.8046C56.2936 55.7533 56.6722 55.91 56.9416 56.2244C57.1818 56.5078 57.3019 56.87 57.3019 57.3133C57.3019 57.6544 57.2305 57.9633 57.0887 58.24C56.8388 58.7278 56.4093 58.9711 55.7991 58.9711H54.3646V55.7533H54.3657ZM55.7093 58.5989C55.8705 58.5989 56.0036 58.5833 56.1075 58.5533C56.2925 58.4967 56.4439 58.3867 56.5629 58.2244C56.6571 58.0944 56.7252 57.9278 56.7663 57.7256C56.7901 57.6044 56.802 57.4922 56.802 57.3878C56.802 56.9889 56.7155 56.68 56.5424 56.4589C56.3693 56.2389 56.0902 56.1278 55.705 56.1278H54.859V58.5978H55.7093V58.5989ZM58.5806 55.7533H59.0729V58.97H58.5806V55.7533ZM63.0855 55.7533V56.1367H61.8728V58.97H61.3805V56.1367H60.1667V55.7533H63.0855ZM65.5803 55.7533V57.7422C65.5803 57.9756 65.6301 58.17 65.7286 58.3244C65.8746 58.5578 66.1224 58.6744 66.4696 58.6744C66.8862 58.6744 67.1696 58.5478 67.3189 58.2956C67.4 58.1589 67.4401 57.9733 67.4401 57.7411V55.7522H67.9323V57.5589C67.9323 57.9544 67.8728 58.2589 67.7527 58.4722C67.5331 58.8611 67.1177 59.0544 66.5086 59.0544C65.8984 59.0544 65.4851 58.86 65.2666 58.4722C65.1465 58.2589 65.087 57.9544 65.087 57.5589V55.7522H65.5803V55.7533ZM69.4816 55.7533H70.056L71.8519 58.3522V55.7533H72.3172V58.97H71.7687L69.9468 56.3744V58.97H69.4816V55.7533ZM73.8188 55.7533H74.311V58.97H73.8188V55.7533ZM78.7716 56.2133C79.0096 56.4978 79.1297 56.8622 79.1297 57.3067C79.1297 57.7867 78.9934 58.1867 78.7208 58.5044C78.4005 58.8778 77.944 59.0656 77.3511 59.0656C76.7972 59.0656 76.3612 58.9022 76.0442 58.5756C75.7618 58.26 75.6201 57.8611 75.6201 57.38C75.6201 56.9444 75.7413 56.5722 75.9825 56.2633C76.293 55.8667 76.7517 55.6678 77.3598 55.6678C77.9959 55.6656 78.4665 55.8489 78.7716 56.2133ZM78.341 58.2644C78.5325 57.9889 78.6288 57.6722 78.6288 57.3144C78.6288 56.9356 78.5184 56.6311 78.2967 56.4011C78.0749 56.17 77.773 56.0544 77.389 56.0544C77.0168 56.0544 76.7128 56.1689 76.4769 56.3978C76.2422 56.6267 76.1243 56.9633 76.1243 57.4089C76.1243 57.7656 76.2249 58.0656 76.4272 58.3111C76.6295 58.5567 76.9562 58.6778 77.4084 58.6778C77.839 58.6778 78.1495 58.54 78.341 58.2644ZM80.5134 55.7533H81.0879L82.8838 58.3522V55.7533H83.349V58.97H82.8016L80.9797 56.3744V58.97H80.5145V55.7533H80.5134Z" fill="black"/>
<path d="M13.3704 37.0522H21.5093V48.92H33.2V53.01H13.3704V37.0522Z" fill="#FDCA90"/>
<path d="M49.4779 51.8922C47.0729 53.0322 44.8529 53.39 41.9308 53.39C36.8622 53.39 32.9404 51.3111 32.9404 48.2044C32.9404 46.0811 35.9372 44.6055 38.8226 43.7122C37.6011 42.9078 36.7508 41.9244 36.7508 40.8067C36.7508 38.2589 40.6726 36.6722 44.5933 36.6722C49.5136 36.6722 53.0654 37.9689 53.0654 40.8067C53.0654 42.6167 50.735 44.1144 48.2186 44.9189L50.2536 46.4389C50.734 46.0589 51.104 45.6344 51.2154 45.2322H57.3193C56.9493 46.5955 55.914 48.0255 54.2122 49.0989L59.614 53.01H50.9568L49.4779 51.8922ZM42.5226 46.64C41.4493 46.9755 39.9693 47.5567 39.9693 48.3611C39.9693 49.2322 41.2276 49.8589 42.4847 49.8589C43.6683 49.8589 44.7047 49.39 45.5918 48.8978L42.5226 46.64ZM44.6679 42.3711C45.7033 42.0811 46.7765 41.4544 46.7765 40.7167C46.7765 40.1355 46.0365 39.6444 45.0011 39.6444C44.0761 39.6444 43.0408 40.0467 43.0408 40.74C43.0408 41.2989 44.0026 41.9022 44.6679 42.3711ZM59.6886 37.0522H68.0125L75.7079 45.59H75.7814V37.0522H83.4768V53.01H75.5597L67.4575 44.2933H67.384V53.01H59.6886V37.0522Z" fill="#FDCA90"/>
</svg>
