<svg width="96" height="96" viewBox="0 0 96 96" fill="none" xmlns="http://www.w3.org/2000/svg">
<circle cx="48" cy="48" r="47" fill="white" stroke="white" stroke-width="2"/>
<g clip-path="url(#clip0_1_3099)">
<path fill-rule="evenodd" clip-rule="evenodd" d="M69.3162 46.665C69.3162 46.665 67.8782 46.6759 67.1779 46.6759C66.654 46.6759 66.4402 46.2457 66.4402 46.2457L63.1953 42.1129V45.9354C63.4145 46.6705 63.516 46.665 63.2327 46.665L61.3564 46.6596L61.335 46.665C61.0517 46.665 61.1639 46.6705 61.3777 45.9354L61.3724 38.8459L61.3671 37.746C61.1532 37.0163 61.0677 37.0109 61.3564 37.0109C62.2384 37.0109 65.5849 37 65.6062 37C66.2905 37 67.5788 37.5663 67.5788 39.4721C67.5788 41.2308 66.4188 41.857 65.4779 42.0585L68.3433 45.7611C68.3433 45.7611 68.9099 46.665 69.3162 46.665ZM65.7345 39.483C65.7345 38.4212 64.7402 38.0346 64.1255 38.0346C63.1525 38.0346 63.2007 38.2143 63.2007 38.2143V41.1927C63.2007 41.1927 63.3129 41.3506 63.5642 41.3506C64.6975 41.3506 65.7345 40.5447 65.7345 39.483Z" fill="#052C3E"/>
<path d="M43.2289 45.9463C43.4428 46.6814 43.555 46.6596 43.2717 46.6596L43.261 46.665H42.101C41.8176 46.665 41.9299 46.6814 42.1437 45.9463L42.9563 37.746C42.7371 37.0164 42.6462 37.0164 42.9296 37.0164H44.2393C44.3515 37.0164 44.3569 37.0436 44.3569 37.196L47.1474 43.4089L49.9913 37.196C49.9913 37.0381 50.002 37.0272 50.1143 37.0272L50.1196 37.0164L51.424 37.0218C51.7073 37.0218 51.6004 37.0164 51.3866 37.7569L52.3434 45.9408C52.5573 46.6759 52.6695 46.6596 52.3916 46.6596L50.5098 46.6541C50.2319 46.6541 50.3388 46.6596 50.5526 45.9245L49.7935 40.1527L46.7785 47.0462L43.7795 40.3596L43.2289 45.9463Z" fill="#052C3E"/>
<path fill-rule="evenodd" clip-rule="evenodd" d="M54.1022 37.746C53.8884 37.0164 53.7868 37.0164 54.0701 37.0164H58.2933C58.9722 37.0164 60.2765 37.5663 60.2765 39.4721C60.2765 41.7971 58.2719 42.4124 57.3845 42.4124L55.9251 42.3961L55.9197 45.9354C56.1336 46.6759 56.2458 46.6596 55.9625 46.6596L54.0861 46.665C53.8135 46.665 53.899 46.5888 54.1022 45.9299V37.746ZM55.9144 38.2143V41.1927C55.9144 41.1927 56.0267 41.3506 56.2779 41.3506C57.4112 41.3506 58.4536 40.5448 58.4536 39.483C58.4536 38.4212 57.4593 38.0346 56.8446 38.0346C55.8716 38.0346 55.9144 38.2143 55.9144 38.2143Z" fill="#052C3E"/>
<path d="M71.6149 46.665H69.7278C69.4445 46.665 69.53 46.665 69.7492 45.9299L69.7546 37.7514C69.5407 37.0164 69.4338 37.0164 69.7171 37.0164H71.6042C71.8875 37.0164 71.786 37.0164 71.5721 37.7514L71.5775 45.9299C71.7913 46.665 71.8982 46.665 71.6149 46.665Z" fill="#052C3E"/>
<path d="M76.1641 46.8393C74.3359 46.8393 73.0636 46.1096 73.0636 46.1096V44.9879C73.395 45.0805 74.7903 45.7339 75.806 45.7339C77.3723 45.7339 77.4525 44.7701 77.4525 44.5142C77.4525 43.545 76.7896 43.2619 75.7311 42.456C74.523 41.5303 73.2454 40.9858 73.2454 39.3523C73.2454 37.7569 74.2824 37.0164 76.1588 37.0164C77.1371 37.0164 78.4254 37.3485 78.8905 37.4302V38.5519C77.9069 38.1925 77.2814 37.9529 76.7094 37.9529C75.2874 37.9529 74.9613 38.7806 75.1271 39.2488C75.8006 41.1002 79.6122 41.7808 79.6122 44.2093C79.6122 45.6686 78.6178 46.8393 76.1641 46.8393Z" fill="#052C3E"/>
<path d="M41.1387 45.5107L40.957 46.665H34.9804L34.9697 46.6596C34.6864 46.6596 34.7879 46.6596 35.0018 45.9245C35.0071 45.7938 35.0125 45.6414 35.0125 45.4617V38.2143C35.0232 38.2143 35.0125 37.7514 35.0125 37.7514C34.7933 37.0164 34.6917 37.0164 34.9804 37.0164C35.082 37.0164 39.6419 37.0218 40.3475 37.0218C40.4598 37.0218 40.4651 37.0436 40.4651 37.196L40.6148 38.138C40.6148 38.4266 40.6148 38.345 39.8932 38.1272H36.7873V41.1165C36.7873 41.1165 39.8932 41.1219 40.0749 41.1219C40.2567 41.1219 40.278 41.22 40.278 41.3071V42.2327C40.2834 42.5213 40.2887 42.4179 39.5724 42.2001L36.814 42.211V45.5433L40.417 45.5488C41.1387 45.331 41.1387 45.2221 41.1387 45.5107Z" fill="#052C3E"/>
<path d="M87 45.5107L86.8236 46.665H80.8363V46.6596C80.553 46.6596 80.6546 46.6596 80.8684 45.9245H80.8631C80.8738 45.7938 80.8791 45.6414 80.8791 45.4617L80.8738 38.2143C80.8845 38.2143 80.8738 37.7514 80.8738 37.7514C80.6546 37.0164 80.5584 37.0164 80.8363 37.0164C80.9433 37.0164 85.5085 37.0218 86.2142 37.0218C86.3264 37.0218 86.3264 37.0436 86.3264 37.196L86.4815 38.138C86.4815 38.4266 86.4761 38.345 85.7598 38.1272H82.6539V41.1165C82.6539 41.1165 85.7598 41.1219 85.9362 41.1219C86.118 41.1219 86.1447 41.22 86.1447 41.3071C86.1447 41.3779 86.1393 41.9333 86.1447 42.2327C86.1447 42.5213 86.1554 42.4179 85.4337 42.2001L82.6753 42.211V45.5433L86.2783 45.5488C87 45.331 87 45.2221 87 45.5107Z" fill="#052C3E"/>
<path fill-rule="evenodd" clip-rule="evenodd" d="M41.422 56.1448C41.422 58.9381 39.1608 59.1504 38.1772 59.1504H34.9697C34.6864 59.1504 34.7933 59.145 35.0071 58.4045C35.0285 58.2629 35.0392 58.105 35.0392 57.9416V50.6343C35.0552 50.471 35.0445 50.3185 35.0285 50.1715C34.8093 49.431 34.7078 49.4255 34.9911 49.4255H38.407C39.38 49.4255 40.8928 49.7958 40.8928 51.6852C40.8928 53.3079 39.9359 53.6836 39.9359 53.8197C39.9359 54.0048 41.422 54.4078 41.422 56.1448ZM36.8514 50.6017V53.4059C36.8514 53.4059 36.953 53.5475 37.1722 53.5475C38.1718 53.5475 39.0859 52.8396 39.0859 51.903C39.0859 50.9665 38.2039 50.4383 37.6693 50.4383C36.814 50.4383 36.8514 50.6017 36.8514 50.6017ZM39.3907 56.0304C39.3907 54.9632 38.3803 54.5657 37.7655 54.5657C36.7873 54.5657 36.83 54.7508 36.83 54.7508V57.8545C36.83 57.8545 36.9423 58.0233 37.1935 58.0233C38.8614 58.0233 39.3907 57.1031 39.3907 56.0304Z" fill="#052C3E"/>
<path d="M69.8722 59.1504C69.8722 59.1504 68.3647 59.1613 67.6537 59.1613C67.1298 59.1613 66.9106 58.7312 66.9106 58.7312L63.6604 54.2825L63.6444 58.399C63.8582 59.1396 63.9598 59.1504 63.6711 59.1504L61.7734 59.145C61.4847 59.145 61.5916 59.1396 61.8054 58.399L61.8001 50.1715C61.5863 49.431 61.4793 49.431 61.768 49.431L63.6658 49.4255C63.9544 49.4255 63.8529 49.4255 63.6337 50.1606L63.639 53.0084L66.6006 49.4255H68.0226L65.0289 53.0411L68.8886 58.2411C68.8886 58.2411 69.4606 59.1504 69.8722 59.1504Z" fill="#052C3E"/>
<path d="M59.8435 49.4256C60.1322 49.4256 60.0253 49.4201 59.8114 50.1607L59.8061 59.4717L52.3381 51.9085L52.3434 58.4208C52.5572 59.1614 52.6428 59.1505 52.3541 59.1505H51.1834C50.9001 59.1505 50.9856 59.1614 51.1994 58.4208L51.2048 50.1715C50.9909 49.431 50.8787 49.4256 51.162 49.4256L52.4396 49.431C52.5359 49.431 52.5572 49.4473 52.5626 49.5454L58.6995 55.682V50.1498C58.4804 49.4092 58.3895 49.4256 58.6728 49.4256H59.8435Z" fill="#052C3E"/>
<path fill-rule="evenodd" clip-rule="evenodd" d="M50.4938 58.399C50.9803 59.1396 51.0872 59.1504 50.8039 59.1613L48.719 59.1559C48.4357 59.145 48.5373 59.1396 48.4838 58.399L47.0137 55.0285H44.1698L42.7745 58.4589C42.6997 59.1994 42.812 59.1504 42.5286 59.1504H41.2884C41.0051 59.1504 41.112 59.1668 41.6145 58.4262L44.9342 50.1715C44.7151 49.431 44.6456 49.431 44.9342 49.431L46.5005 49.4255C46.5968 49.4255 46.6021 49.431 46.6021 49.5344L50.4938 58.399ZM46.5219 53.8905L45.5436 51.6417L44.6295 53.8905H46.5219Z" fill="#052C3E"/>
<path fill-rule="evenodd" clip-rule="evenodd" d="M70.9467 50.923C70.9467 51.6853 70.3372 52.3061 69.5942 52.3061C68.8458 52.3061 68.2417 51.6853 68.2417 50.923C68.2417 50.1661 68.8458 49.5454 69.5942 49.5454C70.3372 49.5454 70.9467 50.1661 70.9467 50.923ZM70.7382 50.923C70.7382 50.2805 70.225 49.7632 69.5942 49.7632C68.9634 49.7632 68.4502 50.2805 68.4502 50.923C68.4502 51.5655 68.9634 52.0883 69.5942 52.0883C70.225 52.0883 70.7382 51.5655 70.7382 50.923Z" fill="#052C3E"/>
<path fill-rule="evenodd" clip-rule="evenodd" d="M69.9257 50.9719L70.1983 51.6362H69.9203L69.6477 50.9719H69.3162V51.6362H69.0222V50.1824H69.5728C69.8455 50.1824 69.8882 50.1987 70.0058 50.3131C70.1876 50.4819 70.1609 50.7323 70.0165 50.8848C69.9951 50.9066 69.9631 50.9338 69.9257 50.9719ZM69.9043 50.5908C69.9043 50.3566 69.6584 50.3675 69.5247 50.3675C69.3964 50.3675 69.3109 50.373 69.3109 50.373V50.8031C69.3109 50.8031 69.4071 50.814 69.5354 50.8031C69.7653 50.7868 69.9043 50.8249 69.9043 50.5908Z" fill="#052C3E"/>
<path fill-rule="evenodd" clip-rule="evenodd" d="M20.5843 45.4889V46.9373H31.5751V50.0137L25.9354 50.0464L20.5843 50.0137V51.4621H31.5751V60H9V37H31.5751V45.4889H20.5843ZM19.9695 47.558V44.8681H25.93V42.75H14.6398V54.25H25.93L25.9354 52.0829H19.9695V49.393H25.9354L25.93 47.558H19.9695Z" fill="#052C3E"/>
</g>
<defs>
<clipPath id="clip0_1_3099">
<rect width="78" height="23" fill="white" transform="translate(9 37)"/>
</clipPath>
</defs>
</svg>
