<svg width="96" height="96" viewBox="0 0 96 96" fill="none" xmlns="http://www.w3.org/2000/svg">
<circle cx="48" cy="48" r="47" fill="white" stroke="white" stroke-width="2"/>
<g clip-path="url(#clip0_1_380)">
<path d="M12.1687 37C12.1681 37.0379 12.1671 37.0757 12.1671 37.1136C12.1671 39.7265 12.1671 42.3393 12.1671 44.9521V45.0813L12.1921 45.0917C12.2165 45.0698 12.2418 45.0487 12.2653 45.0259C12.7716 44.5361 13.2777 44.0462 13.7838 43.5561C14.856 42.5174 15.9279 41.4785 16.9996 40.4394C17.0475 40.393 17.0949 40.3695 17.1652 40.3699C17.6242 40.373 18.0833 40.3716 18.5427 40.3716H18.6242L18.6348 40.3908C17.3658 41.5977 16.0931 42.8011 14.8161 44.0151L18.7102 48.5152C18.662 48.5175 18.6354 48.5198 18.6087 48.5198C18.1814 48.5198 17.7541 48.5184 17.3266 48.5215C17.2524 48.5221 17.2036 48.4988 17.1562 48.4438C16.1461 47.2757 15.1345 46.1082 14.1213 44.9415C14.0829 44.8972 14.0431 44.854 13.9987 44.8044C13.9702 44.8284 13.9457 44.847 13.9236 44.8679C13.3624 45.3966 12.8011 45.9251 12.2398 46.4535C12.2152 46.4749 12.1957 46.5013 12.1829 46.5309C12.1701 46.5605 12.1642 46.5925 12.1656 46.6246C12.1681 47.2099 12.167 47.7951 12.167 48.3805V48.5015C12.0842 48.5247 11.1413 48.5294 11.0142 48.508C11.0085 48.4831 11.0042 48.458 11.0014 48.4327C10.999 48.395 11.0004 48.357 11.0004 48.3191C11.0002 44.601 11.0002 40.8831 11.0006 37.1653C11.0006 37.1101 11.0022 37.0551 11.0032 37H12.1687Z" fill="#5D0A8B"/>
<path d="M32.4479 59C32.3727 58.9853 32.2978 58.969 32.2224 58.9558C31.8588 58.893 31.5197 58.735 31.2413 58.4987C31.2227 58.4832 31.2002 58.4723 31.1718 58.4546L31.5815 57.958C31.621 57.9934 31.6541 58.0225 31.6866 58.0523C32.0933 58.4241 32.5747 58.5299 33.109 58.4175C33.5397 58.3269 33.8159 58.0326 33.8665 57.6055C33.892 57.3911 33.8815 57.1728 33.8862 56.9563C33.8862 56.9445 33.8778 56.9326 33.862 56.8919C33.8423 56.9252 33.8334 56.9435 33.8217 56.9597C33.6195 57.2431 33.3313 57.3925 32.9899 57.4397C32.5257 57.5039 32.0966 57.407 31.7256 57.1195C31.3568 56.8335 31.1683 56.4521 31.1372 55.9965C31.1143 55.6606 31.166 55.3366 31.3301 55.0367C31.5766 54.5863 31.9643 54.329 32.4803 54.2517C32.747 54.2115 33.0083 54.2295 33.2622 54.3202C33.4818 54.3987 33.6723 54.5194 33.8192 54.6997C33.8321 54.7157 33.8394 54.736 33.8639 54.747C33.8995 54.6017 33.8783 54.4619 33.8942 54.3195H34.4744C34.4767 54.3585 34.4804 54.3918 34.4804 54.4255C34.4804 55.4239 34.4804 56.422 34.4804 57.4197C34.4797 57.8475 34.339 58.224 34.0254 58.5298C33.7639 58.7846 33.4401 58.9191 33.0789 58.9759C33.0448 58.9812 33.0118 58.9923 32.9782 59.0008L32.4479 59ZM32.8013 56.9261C32.9092 56.914 32.998 56.9108 33.0838 56.8932C33.4604 56.8159 33.7146 56.6017 33.8311 56.2407C33.8933 56.0461 33.9063 55.8397 33.869 55.6391C33.8149 55.3339 33.6718 55.082 33.3936 54.9161C33.2268 54.8168 33.043 54.7778 32.8489 54.7729C32.3471 54.7604 31.9545 55.0338 31.8183 55.4968C31.7478 55.7291 31.746 55.9761 31.8131 56.2094C31.9101 56.5462 32.1301 56.7725 32.477 56.8696C32.5877 56.9011 32.7049 56.91 32.8013 56.9261Z" fill="#5D0A8B"/>
<path d="M85 37.8469C84.9923 37.8572 84.9809 37.8676 84.9773 37.8789C84.9387 38.0052 84.857 38.1149 84.7457 38.1898C84.6345 38.2648 84.5003 38.3005 84.3654 38.291C84.0655 38.2681 83.8403 38.0707 83.7926 37.7993C83.728 37.4316 84.0344 37.1214 84.3823 37.1226C84.6303 37.1235 84.8178 37.2199 84.9408 37.4304C84.9644 37.4708 84.9804 37.5155 85 37.5581V37.8469ZM84.8676 37.6985C84.8639 37.4322 84.6565 37.2234 84.3964 37.2247C84.1326 37.226 83.918 37.4472 83.9254 37.7102C83.9328 37.9757 84.1414 38.1796 84.404 38.1781C84.6647 38.1767 84.8713 37.963 84.8676 37.6985Z" fill="#5D0A8B"/>
<path d="M38.6305 44.9277H31.7666C31.7823 45.0267 31.7909 45.1113 31.8095 45.1938C32.0381 46.2071 32.6161 46.9531 33.5934 47.3846C33.9707 47.5511 34.3723 47.6233 34.7872 47.6276C35.286 47.6326 35.7748 47.5787 36.2364 47.3828C36.6311 47.2152 36.9832 46.98 37.3077 46.7058C37.4171 46.6136 37.5189 46.5129 37.6223 46.4142C37.6446 46.3929 37.6589 46.3635 37.6817 46.3315L38.5283 47.0305C38.4584 47.1017 38.3965 47.1673 38.3318 47.2301C37.9314 47.6198 37.4771 47.9529 36.982 48.2199C36.5564 48.4497 36.1001 48.5836 35.6203 48.6484C35.3191 48.6891 35.0164 48.7119 34.7124 48.7025C33.5942 48.6681 32.6151 48.2953 31.8078 47.5328C31.2007 46.9596 30.811 46.2606 30.6423 45.4539C30.458 44.576 30.4959 43.706 30.8224 42.8626C31.2718 41.7032 32.0833 40.8812 33.2741 40.428C33.6315 40.2919 34.0052 40.2242 34.3881 40.1997C34.9297 40.1651 35.4613 40.2145 35.9755 40.385C36.9515 40.7087 37.668 41.3298 38.1445 42.2169C38.4127 42.7163 38.5691 43.249 38.635 43.8084C38.6668 44.0717 38.6789 44.3369 38.6713 44.6019C38.6678 44.7069 38.6456 44.8117 38.6305 44.9277ZM37.4279 43.8955C37.4279 43.8623 37.4316 43.8349 37.4273 43.8089C37.3602 43.399 37.2479 43.0032 37.0488 42.6334C36.7546 42.088 36.3307 41.6746 35.7446 41.4316C35.303 41.2486 34.8397 41.2026 34.3649 41.2465C33.753 41.3031 33.2212 41.5379 32.7749 41.947C32.2881 42.3931 31.9837 42.944 31.8301 43.5755C31.8052 43.6779 31.7904 43.7821 31.7692 43.8957L37.4279 43.8955Z" fill="#5D0A8B"/>
<path d="M59.1222 43.6163C59.1282 43.5927 59.1353 43.5767 59.1357 43.5605C59.1445 43.2311 59.1082 42.9078 58.9924 42.5961C58.822 42.1376 58.4955 41.8192 58.0523 41.608C57.7577 41.4677 57.4437 41.3911 57.1191 41.3542C56.0595 41.2342 55.064 41.4544 54.1122 41.9004C54.0423 41.9332 53.9725 41.9661 53.9023 41.9986C53.8966 42.0011 53.8889 41.9998 53.87 42.0011C53.7287 41.6844 53.5854 41.3635 53.4399 41.0385C53.4646 41.0217 53.4823 41.0055 53.5035 40.9959C54.102 40.7209 54.7167 40.4898 55.3684 40.3644C55.897 40.2624 56.4312 40.2317 56.9696 40.2611C57.409 40.2849 57.8394 40.3511 58.2553 40.4941C58.9345 40.7274 59.482 41.1231 59.8516 41.7348C60.0679 42.0927 60.1894 42.4818 60.2474 42.8916C60.2803 43.124 60.2885 43.3573 60.2884 43.5917C60.2874 45.1854 60.2871 46.7791 60.2878 48.3729V48.5127H59.1464C59.1433 48.4785 59.1374 48.4426 59.1373 48.4068C59.1364 48.1624 59.1373 47.9179 59.1373 47.6734V47.5442C59.1031 47.5674 59.0853 47.576 59.072 47.5889C58.4381 48.1992 57.6668 48.5385 56.7939 48.6583C55.9674 48.7719 55.1598 48.6842 54.3894 48.3548C53.8781 48.1362 53.4478 47.8167 53.1296 47.3624C52.901 47.0363 52.7768 46.6769 52.7481 46.2835C52.7176 45.8687 52.7629 45.4648 52.9315 45.0806C53.1434 44.5971 53.4925 44.2262 53.9479 43.9492C54.3665 43.6945 54.826 43.5444 55.3068 43.4491C55.8502 43.3416 56.3998 43.3336 56.9512 43.3427C57.6314 43.3539 58.3016 43.439 58.9644 43.584C59.0156 43.5954 59.067 43.6051 59.1222 43.6163ZM59.1472 44.6821C59.1162 44.6734 59.0898 44.6644 59.0625 44.6588C58.9106 44.6278 58.7587 44.5968 58.6068 44.567C58.0279 44.4544 57.4446 44.3781 56.8532 44.3686C56.4045 44.3612 55.9564 44.3616 55.5144 44.4543C55.1731 44.5259 54.8505 44.6397 54.5644 44.8411C53.9838 45.2498 53.8497 45.8629 54.016 46.4428C54.1104 46.772 54.3366 47.0128 54.6208 47.2021C55.0069 47.4594 55.443 47.5813 55.903 47.617C56.4433 47.6592 56.9741 47.5973 57.4866 47.4154C57.9171 47.2627 58.3066 47.0457 58.6204 46.7142C58.9026 46.416 59.0921 46.0725 59.1411 45.6636C59.144 45.6501 59.1462 45.6365 59.1474 45.6228C59.1473 45.3134 59.1472 45.004 59.1472 44.6821Z" fill="#5D0A8B"/>
<path d="M29.7337 48.5149H28.5777C28.5761 48.4691 28.5734 48.4257 28.5734 48.3823C28.5734 46.8296 28.5734 45.2768 28.5734 43.7241C28.5734 43.3499 28.5272 42.9819 28.3879 42.6306C28.0783 41.8495 27.4981 41.396 26.6472 41.2701C26.1697 41.1998 25.6936 41.2075 25.2335 41.3579C24.2543 41.6776 23.6469 42.3288 23.447 43.3229C23.4113 43.5006 23.4007 43.6855 23.4003 43.8671C23.3967 45.3682 23.396 46.8692 23.3983 48.3703V48.5015C23.316 48.5242 22.3888 48.53 22.2454 48.5097V40.373C22.6242 40.3709 23.0032 40.3722 23.3941 40.3723V41.4001C23.4508 41.4097 23.4645 41.3709 23.4857 41.3484C23.6974 41.1216 23.9335 40.9177 24.1901 40.7404C24.5627 40.4814 24.9791 40.3281 25.4266 40.2549C26.0751 40.1484 26.7222 40.1588 27.3577 40.3327C28.239 40.5738 28.9205 41.0687 29.3462 41.8717C29.5563 42.2677 29.6722 42.6919 29.7109 43.1351C29.727 43.3199 29.733 43.5062 29.7332 43.6918C29.7349 45.2513 29.7352 46.811 29.7342 48.3707L29.7337 48.5149Z" fill="#5D0A8B"/>
<path d="M47.3733 41.8214L46.5461 42.6167C46.5093 42.5825 46.4786 42.5548 46.449 42.5263C46.1377 42.2238 45.7956 41.9594 45.4296 41.7222C45.0545 41.4791 44.6462 41.3329 44.1987 41.2863C43.7412 41.2387 43.2874 41.2527 42.8469 41.3896C41.7627 41.7256 41.0402 42.432 40.7294 43.4916C40.3825 44.6744 40.6335 45.7511 41.498 46.6625C42.0148 47.207 42.667 47.5178 43.4258 47.6053C44.2641 47.7018 45.0304 47.5208 45.7203 47.0397C46.0086 46.8387 46.278 46.6178 46.5175 46.3628C46.5412 46.3374 46.565 46.3119 46.5893 46.287C46.5989 46.2803 46.6092 46.2745 46.62 46.2698L47.4389 46.9465C47.422 46.969 47.4112 46.9864 47.3975 47.0012C46.9413 47.4977 46.4192 47.9145 45.8216 48.24C45.4253 48.4556 44.9993 48.5836 44.5521 48.6482C44.1502 48.7079 43.7424 48.7197 43.3376 48.6834C42.6252 48.6168 41.9683 48.3912 41.3683 48.012C40.3793 47.3879 39.7492 46.5165 39.478 45.3977C39.3696 44.9482 39.3589 44.4923 39.397 44.033C39.5109 42.6616 40.4566 41.113 42.2277 40.4571C42.6329 40.307 43.0536 40.2265 43.4866 40.1995C44.2512 40.152 44.9849 40.2672 45.684 40.5771C46.2013 40.8065 46.6482 41.1338 47.0573 41.5141C47.1615 41.6113 47.2617 41.7127 47.3733 41.8214Z" fill="#5D0A8B"/>
<path d="M48.4338 37.8901H49.5943C49.5971 37.9388 49.6015 37.9823 49.6016 38.0258C49.602 38.7591 49.602 39.4924 49.6016 40.2258V40.3704H52.5183V41.415C52.272 41.417 52.0299 41.4156 51.7879 41.4159C51.5477 41.4159 51.3075 41.4159 51.0674 41.4159H49.6098C49.6067 41.4594 49.6023 41.4926 49.6023 41.5256C49.6023 43.1127 49.6023 44.6999 49.6023 46.2871C49.6023 46.4845 49.6251 46.6782 49.6916 46.8655C49.7712 47.0907 49.9163 47.2598 50.1329 47.3716C50.3586 47.488 50.6013 47.5407 50.8534 47.5606C50.9413 47.5677 51.0291 47.5734 51.115 47.5796C51.1374 47.6581 51.1449 48.4538 51.1256 48.6383C51.1121 48.6428 51.0963 48.652 51.0803 48.6525C50.6281 48.6647 50.1832 48.6221 49.7619 48.4506C49.0666 48.1675 48.656 47.6526 48.495 46.9419C48.4491 46.7397 48.4343 46.5336 48.4342 46.3266C48.4342 43.5621 48.4342 40.7977 48.4342 38.0332L48.4338 37.8901Z" fill="#5D0A8B"/>
<path d="M65.0607 44.4192C65.0664 44.6382 65.0607 44.8484 65.0796 45.0567C65.1313 45.6351 65.3136 46.1666 65.6982 46.6203C66.0223 47.0025 66.4399 47.2525 66.9143 47.415C67.4416 47.5956 67.9867 47.6453 68.5419 47.6105C69.6391 47.5418 70.6631 47.2106 71.6594 46.7818C72.211 46.5434 72.7463 46.2707 73.262 45.9653C73.2836 45.9509 73.3089 45.9424 73.335 45.9407C73.3283 45.9535 73.3203 45.9656 73.3111 45.9767C72.3106 46.9683 71.2155 47.8417 69.9612 48.5143C69.3684 48.8321 68.7485 49.086 68.0872 49.2365C67.7181 49.3204 67.3439 49.369 66.9648 49.3632C66.0825 49.3498 65.2965 49.0764 64.6225 48.5163C64.2812 48.2324 64.0351 47.8846 63.9268 47.4552C63.8329 47.0834 63.8546 46.7115 63.9506 46.3419C64.076 45.859 64.3035 45.4213 64.59 45.0128C64.7252 44.8199 64.879 44.6394 65.0245 44.4537C65.0356 44.4413 65.0478 44.4298 65.0607 44.4192Z" fill="#5D0A8B"/>
<path d="M73.0972 41.2329C73.2209 41.0184 73.3705 40.8315 73.5316 40.6531C73.9739 40.1622 74.4756 39.7424 75.0848 39.46C75.5904 39.2257 76.1186 39.0536 76.6742 38.9735C76.9926 38.9288 77.3157 38.9241 77.6354 38.9595C78.1157 39.0111 78.5946 39.0764 79.0751 39.1258C79.5289 39.1724 79.9841 39.1683 80.4394 39.1375C81.2169 39.0846 81.9776 38.9429 82.7271 38.7389C82.8416 38.7079 82.9553 38.6732 83.0815 38.6367C83.0709 38.6589 83.0677 38.6717 83.0598 38.6808C82.5863 39.2233 82.0676 39.7164 81.4607 40.1182C81.0402 40.3964 80.5728 40.5493 80.0772 40.6315C79.3808 40.7471 78.6792 40.7525 77.9763 40.7212C77.7048 40.7092 77.4336 40.6922 77.1624 40.6749C76.8173 40.6529 76.4727 40.6169 76.1274 40.6082C75.8665 40.6017 75.6055 40.6134 75.3464 40.6433C74.5851 40.7312 73.8557 40.9422 73.1446 41.2166C73.1291 41.2227 73.1135 41.2276 73.0972 41.2329Z" fill="#5D0A8B"/>
<path d="M80.0676 43.1932C80.0451 43.2271 80.0388 43.2393 80.03 43.2494C79.5702 43.7756 79.0653 44.2535 78.4806 44.6491C78.0691 44.9274 77.6128 45.0887 77.1243 45.1758C76.7555 45.2413 76.3833 45.2713 76.0089 45.2854C75.4473 45.3066 74.8866 45.2811 74.3266 45.243C73.9253 45.2157 73.5245 45.1771 73.1228 45.1593C72.5938 45.1358 72.0738 45.2156 71.5601 45.3311C71.0859 45.4387 70.6205 45.5805 70.1678 45.7555C70.1391 45.7665 70.1098 45.7761 70.073 45.7885C70.0771 45.7709 70.0767 45.7605 70.0816 45.7538C70.5885 45.0369 71.2076 44.4366 72.0124 44.0429C72.5608 43.7743 73.1416 43.5923 73.7533 43.5168C74.0702 43.4778 74.3878 43.4858 74.7043 43.5225C75.1879 43.5778 75.6704 43.6425 76.1547 43.6903C76.5165 43.726 76.8803 43.724 77.2444 43.7044C77.7588 43.6754 78.2705 43.6113 78.7757 43.5126C79.1669 43.4381 79.5537 43.3433 79.9346 43.2288C79.9711 43.2178 80.0081 43.209 80.0676 43.1932Z" fill="#5D0A8B"/>
<path d="M75.6573 41.2442C75.5155 41.3965 75.3764 41.5514 75.2312 41.7008C74.8964 42.0463 74.529 42.3603 74.1338 42.6387C73.6948 42.9472 73.2045 43.1242 72.6756 43.2152C72.0814 43.317 71.482 43.3363 70.8816 43.3172C70.3949 43.3017 69.909 43.2671 69.4227 43.2399C69.074 43.2202 68.7268 43.177 68.3762 43.1917C67.8945 43.2124 67.4225 43.2934 66.9563 43.4086C66.5392 43.5123 66.1295 43.6424 65.7298 43.7982C65.7079 43.8067 65.6857 43.814 65.6487 43.8272C65.6562 43.8109 65.6646 43.7951 65.6738 43.7797C66.1579 43.0956 66.7461 42.5174 67.5037 42.1238C68.0623 41.8327 68.6693 41.6401 69.2967 41.555C69.6445 41.5074 69.9943 41.5195 70.3425 41.5586C70.8332 41.6137 71.3226 41.6803 71.814 41.727C72.2328 41.7668 72.6529 41.753 73.0727 41.721C73.6673 41.6746 74.2571 41.5818 74.8364 41.4435C75.1068 41.3797 75.3741 41.3035 75.6427 41.2329L75.6573 41.2442Z" fill="#5D0A8B"/>
<path d="M19.7498 40.3759H20.8895C20.9158 40.4569 20.9194 48.4076 20.8927 48.5137H19.7498V40.3759Z" fill="#5D0A8B"/>
<path d="M11.6334 54.7388C11.6442 54.7312 11.6543 54.7227 11.6634 54.7133C11.8998 54.4178 12.2222 54.2755 12.5938 54.2392C12.9654 54.2028 13.3192 54.2726 13.6382 54.4697C13.9964 54.6908 14.2126 55.0121 14.3107 55.4105C14.4088 55.809 14.3895 56.2058 14.2189 56.5832C13.967 57.1409 13.517 57.4363 12.8976 57.4899C12.6327 57.5128 12.3766 57.4778 12.1331 57.3684C11.9572 57.2895 11.8035 57.1825 11.6818 57.0345C11.6671 57.0165 11.6588 56.9932 11.6475 56.9725L11.6125 56.9921V57.4141H11.033C11.0063 57.3324 11.0035 52.5581 11.0299 52.46H11.6091V54.7316L11.6334 54.7388ZM13.742 55.8646L13.7314 55.8628C13.7286 55.8215 13.7256 55.7802 13.7226 55.7389C13.6852 55.227 13.3267 54.7819 12.6893 54.7721C12.1913 54.7645 11.7992 55.0328 11.6628 55.4888C11.5885 55.7314 11.588 55.9897 11.6614 56.2325C11.761 56.5647 11.9738 56.7975 12.3173 56.9058C12.4522 56.9473 12.5937 56.9645 12.7349 56.9567C13.1981 56.9361 13.5544 56.6643 13.6769 56.2289C13.7107 56.1107 13.7213 55.9864 13.7423 55.8648L13.742 55.8646Z" fill="#5D0A8B"/>
<path d="M40.4901 57.4173H39.9009C39.8797 57.274 39.9042 57.1308 39.8841 56.9752C39.867 56.9887 39.8506 57.0032 39.8351 57.0186C39.5715 57.3307 39.2245 57.4787 38.8179 57.4937C38.2863 57.5128 37.8332 57.3433 37.4934 56.931C37.3196 56.7203 37.2167 56.4765 37.1689 56.2114C37.0995 55.8253 37.1326 55.4486 37.3066 55.0928C37.5453 54.6053 37.9482 54.3302 38.4943 54.2505C38.772 54.2099 39.0429 54.232 39.3057 54.3318C39.5103 54.4095 39.6866 54.5254 39.8239 54.6944C39.8368 54.7104 39.852 54.7246 39.8696 54.7433C39.9077 54.7071 39.892 54.6642 39.8921 54.6269C39.8932 53.949 39.8935 53.2712 39.893 52.5933V52.4558C39.9952 52.4558 40.0889 52.4549 40.1826 52.4548C40.2762 52.4547 40.3733 52.4548 40.4801 52.4548C40.4838 52.5016 40.4907 52.5443 40.4907 52.5869C40.4912 53.6501 40.4912 54.7134 40.4907 55.7767V57.4174L40.4901 57.4173ZM38.849 54.7724C38.8066 54.7744 38.768 54.7749 38.7293 54.7781C38.3202 54.8125 38.0279 55.0084 37.8662 55.3789C37.7803 55.576 37.7624 55.7832 37.7791 55.9957C37.8125 56.4172 38.078 56.8796 38.6922 56.9495C39.1584 57.0025 39.6628 56.8079 39.8372 56.2437C39.8576 56.1779 39.8722 56.1105 39.8807 56.0423C39.9098 55.8026 39.8896 55.5672 39.7839 55.3462C39.5986 54.959 39.274 54.7843 38.849 54.7724Z" fill="#5D0A8B"/>
<path d="M57.4161 54.7331V52.4619H58.0111V57.4134H57.4352C57.4011 57.3464 57.4236 57.2733 57.4191 57.2031C57.4147 57.1328 57.4158 57.0626 57.4141 56.9721C57.3846 56.9993 57.3717 57.0091 57.3611 57.0213C57.1417 57.2872 56.8499 57.4344 56.5106 57.4793C56.0762 57.5369 55.666 57.4586 55.3058 57.1994C54.9909 56.9729 54.802 56.6652 54.7157 56.2966C54.6203 55.8884 54.647 55.4877 54.8284 55.1063C55.0632 54.6122 55.4672 54.3324 56.0175 54.2504C56.3288 54.2041 56.6296 54.2363 56.9171 54.3656C57.0866 54.4417 57.2324 54.5476 57.349 54.6906C57.362 54.7065 57.3768 54.7216 57.3906 54.7366L57.4161 54.7331ZM57.4331 55.8701L57.4206 55.8674C57.4172 55.8054 57.4165 55.7434 57.41 55.6821C57.4039 55.6344 57.3946 55.5871 57.3821 55.5406C57.254 55.0337 56.8423 54.7838 56.396 54.7728C55.8713 54.7599 55.4657 55.049 55.3387 55.5446C55.3033 55.683 55.2989 55.8235 55.3063 55.9648C55.3281 56.3829 55.5742 56.8798 56.2317 56.9504C56.7073 57.0015 57.1908 56.7978 57.3621 56.2535C57.4005 56.1301 57.4102 55.998 57.4331 55.8704V55.8701Z" fill="#5D0A8B"/>
<path d="M23.0245 55.6442C23.0516 55.6192 23.0795 55.595 23.1058 55.5693C23.5096 55.1742 23.9129 54.7787 24.3159 54.3828C24.364 54.3353 24.4119 54.3127 24.4816 54.314C24.6863 54.3183 24.8912 54.3156 25.0961 54.3156H25.2037C25.0993 54.4328 24.9971 54.5197 24.9011 54.612C24.8051 54.7043 24.7088 54.7945 24.6125 54.8857L24.3165 55.1666C24.2204 55.2578 24.1233 55.3481 24.0282 55.4404C23.931 55.5346 23.8358 55.6306 23.7333 55.732L25.3288 57.4053C25.2983 57.4131 25.2804 57.4216 25.2626 57.4216C25.0295 57.4225 24.7964 57.4201 24.5633 57.4237C24.5004 57.4246 24.4673 57.3911 24.4316 57.3522C24.1278 57.021 23.8241 56.6901 23.5203 56.3592C23.3791 56.2052 23.2375 56.0516 23.0971 55.8968C23.0742 55.8715 23.0572 55.841 23.0375 55.8129L23.0035 55.8297C23.0014 55.8651 22.9975 55.9005 22.9974 55.9358C22.997 56.3868 22.997 56.8378 22.9974 57.2889V57.4156H22.4119V52.4611H22.9946V55.6306L23.0245 55.6442Z" fill="#5D0A8B"/>
<path d="M52.0488 56.8656C51.858 57.1061 51.6326 57.2778 51.3547 57.3783C50.9718 57.5196 50.553 57.5401 50.1574 57.4369C49.6557 57.3089 49.3036 57.002 49.1214 56.528C48.9307 56.0311 48.9421 55.5333 49.1966 55.0587C49.4455 54.5939 49.8503 54.331 50.3805 54.2504C50.6043 54.2166 50.8327 54.2241 51.0536 54.2726C51.4345 54.3546 51.7317 54.5542 51.936 54.8797C52.1641 55.2433 52.218 55.644 52.1918 56.0751C51.7615 56.0788 51.3356 56.0764 50.9097 56.0769C50.4875 56.0769 50.0651 56.0769 49.6363 56.0769C49.6312 56.2266 49.6712 56.3745 49.7512 56.5024C49.8996 56.7425 50.1244 56.8832 50.3965 56.9543C50.8108 57.0626 51.1708 56.967 51.472 56.6678C51.5138 56.6265 51.5543 56.5837 51.6034 56.5335L52.0488 56.8656ZM51.5665 55.6086C51.5585 55.5372 51.556 55.4732 51.5435 55.4108C51.4773 55.0678 51.2899 54.8231 50.9331 54.7319C50.8223 54.7036 50.7029 54.6957 50.5877 54.6976C50.1547 54.7045 49.7597 55.0162 49.6576 55.4264C49.6433 55.4837 49.62 55.5441 49.6445 55.6086H51.5665Z" fill="#5D0A8B"/>
<path d="M74.0846 56.079H71.5325C71.5246 56.207 71.5529 56.3347 71.6142 56.4481C71.7586 56.7243 71.9999 56.8805 72.2993 56.9571C72.7058 57.0613 73.0585 56.9678 73.3573 56.6766C73.4019 56.6331 73.4507 56.594 73.5082 56.5423L73.941 56.8647C73.9132 56.8987 73.8908 56.9285 73.8659 56.9562C73.5736 57.28 73.2007 57.4473 72.765 57.4859C72.5213 57.5073 72.2776 57.5027 72.0406 57.4353C71.4387 57.2646 71.0775 56.8705 70.9378 56.283C70.8479 55.9051 70.871 55.529 71.0343 55.1713C71.2755 54.6421 71.6968 54.3383 72.2828 54.2496C72.5172 54.2139 72.7565 54.2247 72.9865 54.2814C73.3847 54.3785 73.6824 54.6048 73.8758 54.9587C74.0643 55.3042 74.1097 55.6749 74.0846 56.079ZM71.5242 55.5977C71.6348 55.6227 73.3639 55.6207 73.449 55.5977C73.4523 55.5816 73.454 55.5652 73.4539 55.5488C73.4486 55.4972 73.4439 55.4461 73.4335 55.3956C73.3635 55.0571 73.173 54.8194 72.8215 54.7302C72.7172 54.7037 72.6053 54.6962 72.4971 54.697C72.0554 54.7004 71.6636 55.0026 71.553 55.42C71.5377 55.4786 71.5336 55.5399 71.5242 55.5977Z" fill="#5D0A8B"/>
<path d="M67.9546 56.0775H65.4024C65.4024 56.1282 65.3964 56.1719 65.4034 56.2134C65.4387 56.422 65.5395 56.5975 65.7082 56.7299C66.0161 56.9706 66.3646 57.0545 66.7509 56.9594C66.9298 56.9154 67.0765 56.8142 67.2085 56.6908C67.2593 56.6434 67.3131 56.5992 67.3757 56.5448L67.8055 56.8638C67.7825 56.8942 67.7655 56.9197 67.7454 56.9424C67.454 57.2722 67.08 57.4453 66.6401 57.4859C66.3714 57.5107 66.1029 57.503 65.844 57.4183C65.2539 57.2254 64.9109 56.817 64.7933 56.2305C64.712 55.8252 64.7509 55.4269 64.956 55.057C65.2116 54.5955 65.6118 54.3308 66.1419 54.2506C66.3622 54.2175 66.5869 54.2245 66.8046 54.2712C67.223 54.359 67.5357 54.5863 67.7389 54.9529C67.9308 55.3001 67.977 55.675 67.9546 56.0775ZM67.321 55.61C67.3172 55.5537 67.3158 55.5067 67.3104 55.46C67.2699 55.0933 67.0395 54.8162 66.6914 54.7311C66.5817 54.706 66.4692 54.6947 66.3566 54.6973C65.8939 54.7025 65.4854 55.0433 65.403 55.4868C65.3959 55.525 65.402 55.5656 65.402 55.61H67.321Z" fill="#5D0A8B"/>
<path d="M42.9553 57.5024C42.1394 57.4931 41.453 56.9603 41.2975 56.1927C41.0973 55.2033 41.7996 54.3628 42.711 54.2509C43.3964 54.1667 43.9643 54.3869 44.3602 54.943C45.0393 55.8974 44.5061 57.2496 43.2704 57.4688C43.1667 57.4873 43.0604 57.4921 42.9553 57.5024ZM42.9615 54.7728C42.9345 54.7741 42.8956 54.7747 42.857 54.7778C42.4567 54.8104 42.1683 55.0004 42.001 55.3589C41.9435 55.4822 41.9152 55.6135 41.9035 55.7477C41.8823 55.9928 41.9176 56.2297 42.0403 56.4467C42.2572 56.8301 42.6086 56.9757 43.0402 56.9545C43.5154 56.9311 43.871 56.6343 43.9806 56.1844C44.0217 56.0168 44.0301 55.8432 44.0056 55.6726C43.9282 55.1259 43.5391 54.7848 42.9615 54.7732V54.7728Z" fill="#5D0A8B"/>
<path d="M17.1797 55.4946C17.2451 55.189 17.0861 54.8431 16.7265 54.7397C16.3874 54.6421 16.0625 54.6914 15.7617 54.874C15.6785 54.9245 15.6003 54.9827 15.5117 55.043L15.159 54.6876C15.1932 54.6581 15.2204 54.6321 15.2503 54.6092C15.497 54.419 15.7801 54.309 16.0874 54.258C16.3798 54.2098 16.672 54.2188 16.9583 54.2973C17.271 54.383 17.5209 54.5493 17.6614 54.8465C17.7293 54.99 17.7521 55.1423 17.7525 55.2985C17.7535 55.8802 17.7531 56.4619 17.7551 57.044C17.7551 57.1637 17.7637 57.2836 17.7684 57.4026C17.6961 57.426 17.4008 57.4317 17.2531 57.4112C17.224 57.2678 17.2433 57.1163 17.2253 56.9503C17.1961 56.9767 17.177 56.989 17.1645 57.0059C16.9287 57.3253 16.6045 57.4764 16.2062 57.4932C15.9739 57.5036 15.7477 57.4838 15.5337 57.3879C15.2247 57.2495 15.0318 57.0211 14.9949 56.6881C14.9553 56.3315 15.0637 56.0279 15.3728 55.8111C15.5719 55.6716 15.7996 55.6004 16.037 55.5555C16.2625 55.514 16.4916 55.4937 16.7212 55.4949L17.1797 55.4946ZM17.1892 55.9316C17.1722 55.9258 17.1627 55.9197 17.153 55.9195C16.8532 55.9137 16.5531 55.9102 16.2569 55.9655C16.0866 55.9973 15.9203 56.0438 15.7789 56.1484C15.6249 56.2621 15.563 56.4141 15.5874 56.6007C15.6122 56.7907 15.7215 56.9138 15.9023 56.9789C16.0432 57.0297 16.1905 57.0449 16.3395 57.0358C16.5832 57.0208 16.8039 56.9488 16.9686 56.7619C17.1813 56.5204 17.2149 56.2334 17.1892 55.9316Z" fill="#5D0A8B"/>
<path d="M75.433 57.4169H74.8602C74.8532 57.4108 74.8504 57.4086 74.8481 57.4066C74.8458 57.4045 74.8426 57.4014 74.8422 57.3985C74.8387 57.3818 74.8365 57.3648 74.8357 57.3477C74.8357 56.3499 74.8361 55.352 74.8369 54.354C74.8369 54.3444 74.8426 54.3349 74.8475 54.3193H75.4285C75.4312 54.4684 75.4338 54.6166 75.4367 54.7787C75.4585 54.7617 75.4685 54.758 75.4727 54.7503C75.6352 54.4744 75.8906 54.3287 76.1997 54.2627C76.4492 54.2094 76.699 54.2164 76.9409 54.2995C77.3647 54.4451 77.5806 54.7548 77.6413 55.1766C77.6554 55.2858 77.6619 55.3958 77.6606 55.5058C77.6624 56.1011 77.6614 56.6964 77.6614 57.2917V57.4144C77.4611 57.4289 77.2694 57.4227 77.0681 57.4183C77.0658 57.3698 77.0625 57.3298 77.0625 57.2898C77.0625 56.7254 77.0632 56.161 77.0613 55.5968C77.0622 55.5109 77.0548 55.4251 77.0391 55.3406C76.965 54.9688 76.7011 54.7657 76.3109 54.7745C75.854 54.7849 75.5465 55.0408 75.4632 55.4891C75.4433 55.6043 75.4336 55.721 75.4342 55.8379C75.4311 56.3196 75.4329 56.8013 75.4329 57.283L75.433 57.4169Z" fill="#5D0A8B"/>
<path d="M27.5403 54.3186H28.1195C28.1301 54.4661 28.1184 54.616 28.1271 54.7825C28.1515 54.7618 28.1661 54.7538 28.1733 54.7418C28.3381 54.4668 28.5962 54.3243 28.9052 54.2603C29.1548 54.2086 29.4046 54.2177 29.6469 54.3022C30.0307 54.4365 30.2471 54.7121 30.3233 55.0951C30.3441 55.2068 30.3542 55.3201 30.3534 55.4336C30.3562 56.0567 30.3548 56.6798 30.3548 57.3031V57.4177C30.1553 57.4259 29.9667 57.4224 29.766 57.4195C29.7641 57.3744 29.7609 57.3347 29.7609 57.2949C29.7609 56.7236 29.7617 56.1521 29.7595 55.5804C29.7597 55.4944 29.7511 55.4086 29.7339 55.3242C29.6583 54.9677 29.3932 54.7679 29.0114 54.7738C28.5657 54.7807 28.2591 55.024 28.1677 55.4547C28.1407 55.5862 28.1267 55.7199 28.126 55.854C28.1213 56.3291 28.1241 56.8042 28.1241 57.2793V57.4C28.0424 57.4278 27.645 57.431 27.5407 57.4064L27.5403 54.3186Z" fill="#5D0A8B"/>
<path d="M19.2431 57.4148H18.6562V54.3193H19.2442V54.7668L19.2754 54.7819C19.2794 54.7688 19.2846 54.7561 19.2907 54.7438C19.4497 54.4753 19.699 54.3326 20.0007 54.2656C20.2501 54.21 20.4987 54.216 20.7424 54.2955C21.1424 54.4263 21.3635 54.7087 21.443 55.1038C21.4606 55.195 21.4692 55.2877 21.4688 55.3806C21.471 56.0242 21.47 56.6679 21.47 57.312V57.4177C21.2745 57.4262 21.0861 57.4226 20.886 57.4192C20.8838 57.3739 20.8802 57.3341 20.8802 57.2944C20.8802 56.7366 20.8812 56.1789 20.8789 55.6211C20.8798 55.5248 20.8709 55.4286 20.8525 55.3339C20.7747 54.9634 20.5073 54.7664 20.1171 54.7733C19.6745 54.7812 19.3442 55.039 19.2656 55.5462C19.2509 55.6484 19.2438 55.7515 19.2444 55.8547C19.2423 56.3331 19.2435 56.8116 19.2435 57.2903L19.2431 57.4148Z" fill="#5D0A8B"/>
<path d="M45.4414 54.3189H46.0249V54.7859C46.053 54.7605 46.0673 54.7522 46.0749 54.7399C46.2396 54.4646 46.4988 54.3232 46.8072 54.2595C47.0569 54.2079 47.3065 54.2176 47.5482 54.3026C47.9449 54.4424 48.1583 54.7307 48.2295 55.1265C48.2457 55.2215 48.2536 55.3176 48.2532 55.4139C48.2552 56.0471 48.2542 56.6804 48.2542 57.3136V57.4031C48.1694 57.4255 47.7959 57.4293 47.6685 57.4093C47.6665 57.3723 47.6623 57.3324 47.6623 57.2926C47.6623 56.7316 47.6631 56.1706 47.6609 55.6097C47.6617 55.5203 47.6539 55.4309 47.6376 55.3429C47.5635 54.9717 47.2986 54.7665 46.91 54.7733C46.4374 54.7814 46.1177 55.0631 46.05 55.5358C46.0351 55.6414 46.0274 55.7478 46.027 55.8544C46.0247 56.3327 46.026 56.8111 46.026 57.2894V57.4134C45.8284 57.4267 45.6373 57.4237 45.4414 57.4155V54.3189Z" fill="#5D0A8B"/>
<path d="M63.5291 57.4197C63.3303 57.4231 63.1412 57.4214 62.9394 57.4207C62.9359 57.3718 62.9302 57.3289 62.9302 57.2865C62.9297 56.5087 62.9297 55.7309 62.9302 54.9531V54.8182C62.7018 54.7994 62.4805 54.8199 62.2532 54.8053V54.3159H62.9218C62.9252 54.2663 62.9293 54.23 62.9299 54.1938C62.9349 53.9186 62.9337 53.6431 62.9464 53.3684C62.9519 53.2494 62.9765 53.1292 63.0085 53.0138C63.1011 52.6811 63.3227 52.4774 63.6716 52.4074C63.9065 52.3602 64.1414 52.3661 64.3768 52.4C64.4039 52.4039 64.4298 52.4143 64.4658 52.4243C64.4441 52.5909 64.4234 52.753 64.4023 52.9138C64.2875 52.9008 64.184 52.881 64.0801 52.8789C63.7391 52.8722 63.5715 53.0125 63.5515 53.3457C63.533 53.6509 63.5392 53.9575 63.535 54.2636C63.535 54.2739 63.5401 54.2832 63.5465 54.3063C63.7737 54.3207 64.0053 54.3063 64.2391 54.3148C64.2695 54.3946 64.252 54.4739 64.255 54.5512C64.2579 54.6286 64.2556 54.7091 64.2556 54.8008C64.2132 54.8043 64.1758 54.8098 64.139 54.81C63.9767 54.8109 63.8143 54.81 63.6516 54.8108C63.614 54.8108 63.5764 54.8157 63.5296 54.8192L63.5291 57.4197Z" fill="#5D0A8B"/>
<path d="M61.3978 57.4141H60.8087V54.8235C60.5797 54.7925 60.3581 54.8247 60.1411 54.8041C60.1124 54.7231 60.1093 54.425 60.1376 54.3131H60.7975C60.8007 54.2663 60.8052 54.2305 60.8053 54.1938C60.8059 53.9839 60.8053 53.774 60.8053 53.5638C60.8034 53.3881 60.8248 53.213 60.8688 53.0427C60.9628 52.6938 61.1851 52.4746 61.553 52.4048C61.7878 52.36 62.0231 52.3646 62.2583 52.4019C62.2757 52.405 62.2927 52.4095 62.3094 52.4153C62.3186 52.4202 62.3272 52.426 62.3352 52.4327C62.3152 52.5901 62.2945 52.7529 62.274 52.9137C62.1617 52.9009 62.0579 52.8827 61.9537 52.8792C61.8762 52.8775 61.7989 52.8859 61.7238 52.9044C61.6035 52.9332 61.5142 53.0087 61.475 53.1235C61.4442 53.2137 61.4171 53.3094 61.4142 53.404C61.4056 53.6894 61.4097 53.9752 61.4091 54.2613C61.4104 54.2731 61.4128 54.2848 61.4162 54.2962C61.4885 54.3272 61.5666 54.309 61.6421 54.3119C61.7232 54.315 61.8045 54.3125 61.8858 54.3125H62.1231V54.8077H61.4069C61.4031 54.8651 61.3976 54.9083 61.3976 54.9514C61.3971 55.7258 61.3971 56.5001 61.3976 57.2744L61.3978 57.4141Z" fill="#5D0A8B"/>
<path d="M78.8297 54.8093H78.1304V54.3144H78.8223C78.8393 54.0202 78.8211 53.736 78.8329 53.455C78.9187 53.4259 79.3165 53.424 79.421 53.4517V54.304C79.7123 54.3246 79.9966 54.3024 80.2856 54.3171V54.8031C80.2451 54.8056 80.2076 54.81 80.1701 54.8101C79.9654 54.8108 79.7607 54.8101 79.5561 54.8108C79.5146 54.8108 79.4733 54.8155 79.4295 54.8181C79.4263 54.8509 79.4219 54.8743 79.4219 54.8979C79.4219 55.4002 79.4219 55.9025 79.4244 56.4048C79.4253 56.477 79.4332 56.549 79.448 56.6198C79.4912 56.8349 79.6274 56.9487 79.8524 56.9561C79.9299 56.9577 80.0074 56.9523 80.0838 56.9399C80.1562 56.9288 80.2267 56.906 80.3055 56.8866V57.3927C80.228 57.4471 80.1298 57.4597 80.0334 57.4742C79.8045 57.5087 79.5762 57.5083 79.3516 57.4468C79.0996 57.3777 78.9388 57.2206 78.8728 56.9717C78.8344 56.8271 78.8299 56.6793 78.8296 56.5315C78.8285 56.0085 78.8285 55.4855 78.8296 54.9625L78.8297 54.8093Z" fill="#5D0A8B"/>
<path d="M68.7192 54.3185H69.2944V54.7698C69.3496 54.761 69.3551 54.7215 69.3724 54.6958C69.5949 54.3626 70.0623 54.168 70.4501 54.248C70.5406 54.2667 70.5417 54.2672 70.5382 54.3552C70.5323 54.5066 70.5256 54.6578 70.5182 54.8087C70.5156 54.8345 70.5116 54.8601 70.5062 54.8855C70.4326 54.8752 70.3641 54.8623 70.295 54.8561C70.0937 54.8382 69.9005 54.8664 69.7205 54.9584C69.5314 55.0552 69.4199 55.2142 69.3586 55.4091C69.3155 55.5511 69.2944 55.6987 69.2962 55.8468V57.4197C69.1001 57.4239 68.9117 57.4235 68.7255 57.4197C68.699 57.3377 68.6938 54.4376 68.7192 54.3185Z" fill="#5D0A8B"/>
<path d="M67.3759 45.2825C67.4958 45.2808 67.6667 45.3278 67.8224 45.4248C68.275 45.707 68.3119 46.2806 67.8995 46.6158C67.5743 46.8804 67.0722 46.9006 66.7259 46.6633C66.3296 46.3917 66.2847 45.8758 66.6306 45.5442C66.8185 45.3638 67.0489 45.2836 67.3759 45.2825Z" fill="#5D0A8B"/>
<path d="M71.3686 39.7645C71.6416 39.7657 71.8686 39.845 72.0512 40.0272C72.297 40.2724 72.331 40.631 72.1389 40.9179C71.8249 41.3871 71.0553 41.4469 70.6693 41.0322C70.4085 40.752 70.4064 40.3497 70.6675 40.0664C70.8579 39.8598 71.1016 39.768 71.3686 39.7645Z" fill="#5D0A8B"/>
<path d="M76.1181 41.871C76.3496 41.8687 76.5562 41.9362 76.7327 42.0826C77.0473 42.3433 77.0867 42.7778 76.8258 43.0892C76.4874 43.4932 75.8086 43.528 75.4285 43.1605C75.1445 42.8856 75.1345 42.4571 75.4096 42.1648C75.5992 41.9635 75.8401 41.8727 76.1181 41.871Z" fill="#5D0A8B"/>
<path d="M79.1534 38.7358C78.8728 38.7339 78.6466 38.6538 78.4646 38.4714C78.2133 38.2199 78.1864 37.8401 78.3976 37.5548C78.7238 37.1137 79.4466 37.0637 79.8343 37.4554C80.102 37.7262 80.1151 38.133 79.8615 38.4201C79.6696 38.6368 79.4209 38.7326 79.1534 38.7358Z" fill="#5D0A8B"/>
<path d="M20.989 38.6861H19.6553V37.333C19.7335 37.3124 20.8499 37.3071 20.9863 37.3255C21.0081 37.4028 21.0115 38.574 20.989 38.6861Z" fill="#5D0A8B"/>
<path d="M25.9753 54.3179H26.5452V57.4032C26.4725 57.4259 26.1125 57.4314 25.9807 57.412C25.9548 57.3387 25.948 54.4459 25.9753 54.3179Z" fill="#5D0A8B"/>
<path d="M59.0051 54.3125C59.1844 54.3125 59.3499 54.3125 59.5154 54.3125C59.5359 54.3125 59.5562 54.3161 59.5829 54.3187V57.4173C59.3922 57.4231 59.2015 57.4249 59.0051 57.4154V54.3125Z" fill="#5D0A8B"/>
<path d="M26.2567 53.6109C26.1407 53.6107 26.0296 53.5657 25.9477 53.4856C25.8658 53.4056 25.8199 53.2972 25.8201 53.1841C25.8202 53.0711 25.8664 52.9628 25.9485 52.883C26.0306 52.8031 26.1419 52.7584 26.2578 52.7585C26.4977 52.7603 26.6964 52.9538 26.6961 53.1853C26.6958 53.4169 26.4955 53.6102 26.2567 53.6109Z" fill="#5D0A8B"/>
<path d="M59.2908 53.6108C59.2326 53.6109 59.175 53.5996 59.1213 53.5776C59.0676 53.5556 59.019 53.5233 58.9783 53.4827C58.9376 53.4421 58.9057 53.394 58.8844 53.3411C58.8631 53.2883 58.8529 53.2319 58.8544 53.1751C58.8578 52.9419 59.0573 52.7552 59.2994 52.7585C59.5391 52.7618 59.7352 52.9567 59.7327 53.189C59.7306 53.3017 59.6831 53.4092 59.6004 53.4881C59.5178 53.567 59.4066 53.6111 59.2908 53.6108Z" fill="#5D0A8B"/>
<path d="M84.6697 37.9991H84.5426C84.5301 37.9606 84.5177 37.9254 84.5071 37.8898C84.4733 37.7762 84.4435 37.7578 84.303 37.7776C84.2995 37.8455 84.296 37.9158 84.2919 37.9965L84.1934 38.0035C84.169 37.92 84.1651 37.5432 84.1869 37.4262C84.2998 37.4066 84.4153 37.4057 84.5286 37.4234C84.5922 37.4338 84.6381 37.4718 84.6528 37.5358C84.6674 37.5998 84.6449 37.6504 84.5865 37.685C84.5748 37.692 84.5637 37.7002 84.5453 37.7125C84.6368 37.7849 84.6504 37.8858 84.6697 37.9991ZM84.308 37.6868C84.3674 37.6776 84.4199 37.6777 84.4653 37.6604C84.5254 37.6374 84.5328 37.5683 84.4873 37.5269C84.4536 37.4959 84.366 37.4819 84.329 37.502C84.2854 37.5258 84.3026 37.5676 84.3001 37.6028C84.2987 37.6226 84.3035 37.6428 84.308 37.6868Z" fill="#5D0A8B"/>
</g>
<defs>
<clipPath id="clip0_1_380">
<rect width="74" height="22" fill="white" transform="translate(11 37)"/>
</clipPath>
</defs>
</svg>
