<svg width="96" height="96" viewBox="0 0 96 96" fill="none" xmlns="http://www.w3.org/2000/svg">
<circle cx="48" cy="48" r="47" fill="white" stroke="white" stroke-width="2"/>
<g clip-path="url(#clip0_1_5964)">
<path d="M36.2381 47.1639V40.2125H30.6265V46.9922C30.6265 48.4351 29.573 48.8932 27.7406 48.8932C25.9083 48.8932 24.8547 48.4409 24.8547 46.9922V40.2125H19.2432V47.1639C19.2432 50.7255 21.9688 51.8078 27.7406 51.8078C33.5125 51.8078 36.2381 50.7255 36.2381 47.1639ZM52.4027 51.4184H57.4989V40.2125H49.5969L47.2664 46.723H47.2264L44.9016 40.2125H37.0054V51.4184H42.1016V43.4134H42.1416L45.1249 51.4184H49.3851L52.3626 43.4134H52.4027V51.4184ZM69.9473 47.8053C69.9473 48.3092 69.6095 48.6813 68.4929 48.6813H63.7002V46.9235H68.4929C69.6038 46.9292 69.9473 47.3186 69.9473 47.8053ZM69.3289 43.6482C69.3289 44.0891 69.0712 44.3868 67.9375 44.3868H63.7002V42.9439H67.9375C69.0712 42.9439 69.3289 43.2416 69.3289 43.6482ZM75.1752 43.0068C75.1752 41.2203 73.8811 40.2125 70.978 40.2125H58.2032V51.4184H70.3596C74.5167 51.4184 75.9139 49.9754 75.9139 47.7766C75.9139 46.9464 75.3184 45.595 73.486 45.2171V45.1885C74.5625 44.8563 75.1752 43.9917 75.1752 43.0068Z" fill="#003264"/>
<path d="M75.4959 52.9243V55.0945H19.2437V52.9243H75.4959Z" fill="#009FDF"/>
<path d="M76.0129 51.3144H75.8744V51.0142H76.0683C76.1699 51.0142 76.2715 51.0419 76.2715 51.162C76.2715 51.3098 76.1422 51.3144 76.0129 51.3144ZM75.8744 51.7854H75.8698V51.4021H76.0499L76.2946 51.7854H76.4193L76.1607 51.4021C76.2808 51.3837 76.3777 51.3144 76.3777 51.162C76.3777 51.0096 76.29 50.9265 76.0961 50.9265H75.7682V51.7854H75.8744ZM75.4079 51.3559C75.4079 51.3467 75.4079 51.3375 75.4126 51.3282C75.4126 50.9865 75.6943 50.7094 76.0406 50.714C76.387 50.714 76.6687 50.9911 76.6733 51.3375C76.6779 51.6884 76.4008 51.9748 76.0499 51.9794C75.6989 51.984 75.4126 51.7023 75.4079 51.3559ZM76.7841 51.3559V51.3375C76.7749 50.9311 76.4424 50.6078 76.036 50.6124C75.625 50.6124 75.2925 50.9495 75.2925 51.3606C75.2925 51.7716 75.6296 52.1041 76.0406 52.1041C76.4516 52.1041 76.7841 51.767 76.7841 51.3559Z" fill="#009FDF"/>
</g>
<defs>
<clipPath id="clip0_1_5964">
<rect width="58" height="15.307" fill="white" transform="translate(19 40)"/>
</clipPath>
</defs>
</svg>
