<svg width="96" height="96" viewBox="0 0 96 96" fill="none" xmlns="http://www.w3.org/2000/svg">
<circle cx="48" cy="48" r="47" fill="white" stroke="white" stroke-width="2"/>
<g clip-path="url(#clip0_1_4499)">
<path d="M55.3099 41.7067C55.0103 41.7067 54.7407 41.467 54.7107 41.1674C54.471 39.1602 54.9504 37.3626 56.1188 35.8647C56.3285 35.5951 56.7179 35.5352 56.9876 35.7449C57.2572 35.9546 57.3171 36.3441 57.1074 36.6137C56.1487 37.8719 55.7592 39.3399 55.939 41.0176C55.969 41.3472 55.7293 41.6767 55.3997 41.7067C55.3698 41.7067 55.3398 41.7067 55.3099 41.7067Z" fill="black"/>
<path d="M66.095 32C66.095 32 58.3956 31.5506 57.407 37.9318C63.8481 39.25 66.095 32 66.095 32Z" fill="#009366"/>
<path d="M46.8615 49.6157C46.8615 49.6157 51.4752 40.5382 59.7138 43.6839L60.6425 39.1601C60.6425 39.1601 46.3223 35.1756 46.8615 49.6157Z" fill="#009366"/>
<path d="M54.2314 44.7025C54.2314 44.7025 50.217 45.3916 47.281 51.2635C47.281 51.2635 50.3967 58.5434 60.5527 55.9969L59.8337 51.3833C59.8337 51.3833 55.9091 53.0011 53.6023 50.185C53.3027 49.7655 52.1044 46.9794 54.2314 44.7025Z" fill="#6ECDB2"/>
<path d="M19 44.2531H22.9545L22.3254 56.3265H28.1674L28.7965 44.2531H32.8409L33.1105 39.1002H19.2696L19 44.2531Z" fill="black"/>
<path d="M33.6798 39.1002L33.4102 44.2531H37.3947L36.7655 56.3265H42.5775L43.2066 44.2531H47.2511L47.5207 39.1002H33.6798Z" fill="black"/>
<path d="M70.9783 39.0702L70.4989 48.657C70.3491 51.563 69.1208 51.563 68.6415 51.563C68.1022 51.563 67.8626 51.3833 67.7427 51.2335C67.4731 50.9339 67.1436 50.2748 67.2334 48.7469L67.6828 39.939V39.0403H61.9008L61.4215 48.2975C61.2717 51.1136 61.8708 53.2407 63.1591 54.6188C64.3274 55.8471 66.095 56.5062 68.3419 56.5062C73.2252 56.5062 76.0413 53.6601 76.281 48.5072L76.7903 39.0702H70.9783Z" fill="black"/>
<path d="M75.8615 54.2893C76.4607 54.2893 76.9101 54.7686 76.9101 55.3379C76.9101 55.937 76.4308 56.3864 75.8615 56.3864C75.2624 56.3864 74.813 55.9071 74.813 55.3379C74.813 54.7686 75.2923 54.2893 75.8615 54.2893ZM76.7303 55.3379C76.7303 54.8585 76.3409 54.4391 75.8615 54.4391C75.3822 54.4391 74.9927 54.8286 74.9927 55.3379C74.9927 55.8172 75.3822 56.2366 75.8615 56.2366C76.3409 56.2366 76.7303 55.8472 76.7303 55.3379ZM75.4421 54.7387H75.9215C76.1911 54.7387 76.3409 54.8585 76.3409 55.0982C76.3409 55.3079 76.1911 55.4277 76.0113 55.4277L76.3708 55.967H76.1911L75.8615 55.4577H75.6219V55.967H75.4421V54.7387ZM75.8316 55.2779C76.0113 55.2779 76.1611 55.2779 76.1611 55.0682C76.1611 54.9184 76.0113 54.8885 75.8915 54.8885H75.6219V55.2779H75.8316Z" fill="black"/>
<path d="M20.5579 59.1725H23.2841V60.0113H21.5765V61.0299H23.1643V61.8388H21.5765V63.6363H20.5579V59.1725Z" fill="black"/>
<path d="M24.4225 62.3481C24.4525 62.7675 24.8719 62.9473 25.3213 62.9473C25.6509 62.9473 25.9504 62.8874 26.2201 62.8275L26.3399 63.5165C26.0104 63.6363 25.6209 63.7262 25.1715 63.7262C24.063 63.7262 23.4639 63.0971 23.4639 62.0785C23.4639 61.2696 23.9732 60.3708 25.0816 60.3708C26.1302 60.3708 26.5197 61.1797 26.5197 61.9886C26.5197 62.1684 26.4897 62.3182 26.4897 62.3781H24.4225V62.3481ZM25.6209 61.6591C25.6209 61.4194 25.5011 61 25.0517 61C24.6323 61 24.4525 61.3894 24.4225 61.6591H25.6209Z" fill="black"/>
<path d="M30.1147 58.9628V62.6776C30.1147 63.0371 30.1147 63.4266 30.1447 63.6363H29.2459L29.186 63.157C28.9763 63.5165 28.5868 63.6962 28.1674 63.6962C27.3885 63.6962 26.7893 63.0371 26.7893 62.0485C26.7893 60.97 27.4484 60.3409 28.2273 60.3409C28.6168 60.3409 28.9463 60.4907 29.0662 60.7004V58.9628H30.1147ZM29.0961 61.7789C29.0961 61.719 29.0961 61.6591 29.0961 61.5991C29.0362 61.3295 28.8265 61.0898 28.497 61.0898C28.0476 61.0898 27.8079 61.5093 27.8079 62.0186C27.8079 62.5578 28.0775 62.9173 28.497 62.9173C28.7965 62.9173 29.0062 62.7076 29.0662 62.438C29.0961 62.3781 29.0961 62.2882 29.0961 62.1983V61.7789Z" fill="black"/>
<path d="M31.5228 62.3481C31.5527 62.7675 31.9721 62.9473 32.4215 62.9473C32.7511 62.9473 33.0507 62.8874 33.3203 62.8275L33.4401 63.5165C33.1106 63.6363 32.7211 63.7262 32.2717 63.7262C31.1633 63.7262 30.5641 63.0971 30.5641 62.0785C30.5641 61.2696 31.0734 60.3708 32.1819 60.3708C33.2304 60.3708 33.6199 61.1797 33.6199 61.9886C33.6199 62.1684 33.5899 62.3182 33.5899 62.3781H31.5228V62.3481ZM32.6912 61.6591C32.6912 61.4194 32.5713 61 32.1219 61C31.7025 61 31.5228 61.3894 31.4928 61.6591H32.6912Z" fill="black"/>
<path d="M34.0693 61.4793C34.0693 61 34.0693 60.7004 34.0393 60.4308H34.9081L34.9381 61.0299H34.968C35.1478 60.5506 35.5372 60.3708 35.8368 60.3708C35.9267 60.3708 35.9866 60.3708 36.0465 60.3708V61.2996C35.9866 61.2996 35.8967 61.2696 35.7769 61.2696C35.4174 61.2696 35.1478 61.4793 35.0879 61.7789C35.0879 61.8388 35.0579 61.9287 35.0579 61.9886V63.6363H34.0693V61.4793Z" fill="black"/>
<path d="M38.1736 63.6363L38.1137 63.3068H38.0837C37.874 63.5764 37.5445 63.6962 37.155 63.6962C36.4959 63.6962 36.1064 63.2169 36.1064 62.7076C36.1064 61.8688 36.8554 61.4793 37.9938 61.4793V61.4194C37.9938 61.2396 37.904 61 37.3947 61C37.0651 61 36.7056 61.1198 36.4959 61.2396L36.3162 60.5805C36.5259 60.4607 36.9752 60.3109 37.5744 60.3109C38.6529 60.3109 38.9825 60.94 38.9825 61.689V62.7975C38.9825 63.0971 38.9825 63.3967 39.0424 63.5764H38.1736V63.6363ZM38.0538 62.1084C37.5145 62.1084 37.125 62.2283 37.125 62.6177C37.125 62.8874 37.3048 63.0072 37.5145 63.0072C37.7542 63.0072 37.9639 62.8274 38.0238 62.6477C38.0238 62.5878 38.0538 62.5279 38.0538 62.4679V62.1084Z" fill="black"/>
<path d="M39.6415 58.9628H40.6301V63.6363H39.6415V58.9628Z" fill="black"/>
<path d="M45.7532 63.5165C45.5734 63.6063 45.154 63.6962 44.6147 63.6962C43.0868 63.6962 42.278 62.7375 42.278 61.4793C42.278 59.9514 43.3565 59.1125 44.7046 59.1125C45.2139 59.1125 45.6333 59.2324 45.8131 59.3223L45.6034 60.1311C45.3937 60.0413 45.124 59.9514 44.7645 59.9514C43.9556 59.9514 43.3565 60.4307 43.3565 61.4194C43.3565 62.3181 43.8957 62.8574 44.7945 62.8574C45.0941 62.8574 45.4236 62.7975 45.6333 62.7076L45.7532 63.5165Z" fill="black"/>
<path d="M46.2024 61.4793C46.2024 61 46.2024 60.7004 46.1725 60.4308H47.0413L47.0712 61.0299H47.1012C47.281 60.5506 47.6704 60.3708 47.97 60.3708C48.0599 60.3708 48.1198 60.3708 48.1797 60.3708V61.2996C48.1198 61.2996 48.0299 61.2696 47.9101 61.2696C47.5506 61.2696 47.281 61.4793 47.221 61.7789C47.221 61.8388 47.1911 61.9287 47.1911 61.9886V63.6363H46.2024V61.4793Z" fill="black"/>
<path d="M49.2582 62.3481C49.2882 62.7675 49.7076 62.9473 50.157 62.9473C50.4865 62.9473 50.7861 62.8874 51.0558 62.8275L51.1756 63.5165C50.846 63.6363 50.4566 63.7262 50.0072 63.7262C48.8987 63.7262 48.2996 63.0971 48.2996 62.0785C48.2996 61.2696 48.8089 60.3708 49.9173 60.3708C50.9659 60.3708 51.3553 61.1797 51.3553 61.9886C51.3553 62.1684 51.3254 62.3182 51.3254 62.3781H49.2582V62.3481ZM50.4266 61.6591C50.4266 61.4194 50.3068 61 49.8574 61C49.438 61 49.2582 61.3894 49.2283 61.6591H50.4266Z" fill="black"/>
<path d="M54.9205 58.9628V62.6776C54.9205 63.0371 54.9205 63.4266 54.9505 63.6363H54.0517L53.9918 63.157C53.7821 63.5165 53.3926 63.6962 52.9732 63.6962C52.1943 63.6962 51.5951 63.0371 51.5951 62.0485C51.5951 60.97 52.2542 60.3409 53.0331 60.3409C53.4226 60.3409 53.7521 60.4907 53.872 60.7004V58.9628H54.9205ZM53.9019 61.7789C53.9019 61.719 53.9019 61.6591 53.9019 61.5991C53.842 61.3295 53.6323 61.0898 53.3027 61.0898C52.8534 61.0898 52.6137 61.5093 52.6137 62.0186C52.6137 62.5578 52.8833 62.9173 53.3027 62.9173C53.6023 62.9173 53.812 62.7076 53.872 62.438C53.9019 62.3781 53.9019 62.2882 53.9019 62.1983V61.7789Z" fill="black"/>
<path d="M56.5981 59.502C56.5981 59.7716 56.3884 60.0113 56.0589 60.0113C55.7293 60.0113 55.5196 59.8016 55.5496 59.502C55.5496 59.2024 55.7593 58.9927 56.0888 58.9927C56.3884 58.9927 56.5981 59.2323 56.5981 59.502ZM55.5496 63.6363V60.4007H56.5382V63.6363H55.5496Z" fill="black"/>
<path d="M58.3058 59.472V60.4008H59.0248V61.1497H58.3058V62.3181C58.3058 62.7076 58.3956 62.8873 58.6952 62.8873C58.8151 62.8873 58.9049 62.8873 58.9948 62.8574V63.6063C58.875 63.6663 58.6353 63.6962 58.3357 63.6962C58.0062 63.6962 57.7365 63.5764 57.5868 63.4266C57.407 63.2468 57.3171 62.9173 57.3171 62.4679V61.1497H56.8977V60.4008H57.3171V59.7117L58.3058 59.472Z" fill="black"/>
<path d="M61.6612 59.1725V61.719C61.6612 62.4979 61.9608 62.8874 62.4701 62.8874C63.0093 62.8874 63.2789 62.5279 63.2789 61.719V59.1725H64.2676V61.6591C64.2676 63.0372 63.5785 63.6962 62.4101 63.6962C61.3017 63.6962 60.6426 63.0671 60.6426 61.6591V59.1725H61.6612Z" fill="black"/>
<path d="M64.9566 61.4193C64.9566 61.0299 64.9566 60.6704 64.9266 60.4007H65.7954L65.8554 60.8501H65.8853C66.0051 60.6404 66.3347 60.3408 66.8739 60.3408C67.533 60.3408 68.0423 60.7902 68.0423 61.7189V63.6363H67.0537V61.8388C67.0537 61.4193 66.9039 61.1497 66.5444 61.1497C66.2748 61.1497 66.095 61.3295 66.0351 61.5392C66.0051 61.5991 66.0051 61.689 66.0051 61.7788V63.6363H65.0165V61.4193H64.9566Z" fill="black"/>
<path d="M69.6901 59.502C69.6901 59.7716 69.4804 60.0113 69.1508 60.0113C68.8213 60.0113 68.6116 59.8016 68.6415 59.502C68.6415 59.2024 68.8512 58.9927 69.1808 58.9927C69.5103 58.9927 69.6901 59.2323 69.6901 59.502ZM68.6415 63.6363V60.4007H69.6301V63.6363H68.6415Z" fill="black"/>
<path d="M73.4649 61.9885C73.4649 63.1569 72.6261 63.6962 71.7573 63.6962C70.8286 63.6962 70.0796 63.0671 70.0796 62.0485C70.0796 61.0299 70.7686 60.3408 71.7872 60.3408C72.8058 60.3408 73.4649 60.9999 73.4649 61.9885ZM71.1281 62.0185C71.1281 62.5578 71.3678 62.9772 71.7872 62.9772C72.1767 62.9772 72.4164 62.5877 72.4164 62.0185C72.4164 61.5392 72.2366 61.0598 71.7872 61.0598C71.3079 61.0299 71.1281 61.5392 71.1281 62.0185Z" fill="black"/>
<path d="M73.9142 61.4193C73.9142 61.0299 73.9142 60.6704 73.8843 60.4007H74.7531L74.813 60.8501H74.843C74.9628 60.6404 75.2923 60.3408 75.8316 60.3408C76.4907 60.3408 77 60.7902 77 61.7189V63.6363H76.0113V61.8388C76.0113 61.4193 75.8616 61.1497 75.502 61.1497C75.2324 61.1497 75.0527 61.3295 74.9927 61.5392C74.9628 61.5991 74.9628 61.689 74.9628 61.7788V63.6363H73.9742V61.4193H73.9142Z" fill="black"/>
</g>
<defs>
<clipPath id="clip0_1_4499">
<rect width="58" height="31.6963" fill="white" transform="translate(19 32)"/>
</clipPath>
</defs>
</svg>
