<svg width="96" height="96" viewBox="0 0 96 96" fill="none" xmlns="http://www.w3.org/2000/svg">
<circle cx="48" cy="48" r="47" fill="white" stroke="white" stroke-width="2"/>
<path d="M19 19V77H77V19H19ZM68.4353 32.7718H69.0991V31.5473H69.8209V32.7718H70.852V33.2164H69.8273V35.3753C69.8273 35.53 69.8338 35.6718 69.8467 35.7813C69.8596 35.8844 69.8789 35.9811 69.9176 36.0584C69.9498 36.1293 70.0078 36.1809 70.0787 36.2131C70.1496 36.2518 70.2591 36.2711 70.3816 36.2711C70.4396 36.2711 70.5298 36.2647 70.6458 36.2518C70.7876 36.2389 70.8584 36.2196 70.8907 36.2067L70.9293 36.1938V36.5482L70.91 36.5547C70.7553 36.6256 70.6007 36.6836 70.4589 36.7416C70.3171 36.7931 70.1367 36.8124 69.9304 36.8124C69.6211 36.8124 69.3956 36.7287 69.2731 36.5482C69.1507 36.3742 69.0798 36.1358 69.0798 35.8264V33.2164H68.4289V32.7718H68.4353ZM55.0567 41.6007L53.452 44.9389L49.0956 53.7871L46.6016 58.8331L45.0613 56.1844L45.0678 56.178L44.694 55.5464L40.6856 48.7604L36.4 41.504C36.3807 41.4782 36.3678 41.4524 36.3549 41.4267C36.2711 41.4267 36.2582 41.4847 36.2453 41.5362C36.2389 41.5878 36.2453 41.6458 36.2453 41.6973C36.2453 43.2118 36.2389 44.7198 36.2453 46.2342C36.2453 48.232 36.2518 50.2298 36.2582 52.2211C36.2647 54.1802 36.2647 56.1393 36.2647 58.0984C36.2647 59.136 36.2711 60.18 36.2711 61.2176C36.2711 61.7524 36.4902 62.1584 36.8704 62.4742C37.096 62.6611 37.4247 62.8351 37.7082 62.8867V63.9693H28.6602V62.8931C28.8213 62.8158 28.9889 62.7513 29.1371 62.6611C29.3111 62.5709 29.4658 62.4613 29.614 62.3453C29.8782 62.1391 30.0071 61.8556 30.0071 61.4882V57.4733C30.0071 56.5776 30.0007 55.6818 30.0007 54.786C29.9942 49.8689 29.9942 44.9647 29.9878 40.054C29.9878 37.6631 29.9813 35.2658 29.9942 32.8684C29.9942 32.4367 29.8653 32.0951 29.5624 31.8244C29.3304 31.6247 29.0856 31.4636 28.7956 31.3927C28.7311 31.3733 28.6667 31.3669 28.5764 31.354C28.5893 31.0704 28.5958 30.7869 28.6022 30.5098H36.7931C37.2829 30.5098 37.734 30.7933 37.9402 31.238L42.9991 39.88L43.4438 40.6404L48.4382 49.1858L52.176 41.5878C52.2469 41.4524 52.4016 41.3493 52.5562 41.3493H54.902C55.0373 41.3816 55.1082 41.504 55.0567 41.6007ZM65.3807 64.0724H56.2682V62.9898C56.3004 62.9769 56.3262 62.9576 56.352 62.9511C56.4551 62.9318 56.5582 62.8867 56.6549 62.8416C56.7 62.8222 56.7451 62.8029 56.7902 62.7771C56.8933 62.7127 57.0029 62.6482 57.0996 62.558C57.4798 62.2422 57.686 61.8362 57.686 61.3078V38.6491C57.686 38.1658 57.2929 37.7727 56.8096 37.7727H54.6378C54.5282 37.7727 54.4509 37.6567 54.5089 37.5536L57.802 30.89C57.9502 30.6451 58.15 30.542 58.4013 30.542H63.6084C63.8082 30.542 63.9693 30.7031 63.9693 30.9029V61.3013C63.9693 61.8362 64.1691 62.2422 64.5493 62.5516C64.646 62.6289 64.7556 62.6998 64.8587 62.7707C64.9038 62.7964 64.9489 62.8158 64.994 62.8351C65.0907 62.8802 65.1873 62.9253 65.2969 62.9447C65.3227 62.9511 65.3484 62.9704 65.3807 62.9833C65.3807 62.9898 65.3807 64.0724 65.3807 64.0724ZM66.2056 36.7093C66.0509 36.6384 65.9349 36.574 65.8576 36.5031L65.7931 36.7416H65.4709L65.4322 35.3173H65.7351L65.7416 35.3431C65.7609 35.4398 65.7996 35.5687 65.8576 35.6976C65.9156 35.8329 65.9929 35.9618 66.0831 36.0649C66.1733 36.1744 66.2893 36.2776 66.4182 36.3549C66.5407 36.4322 66.6953 36.4709 66.85 36.4709C67.0756 36.4709 67.2496 36.4129 67.372 36.3098C67.488 36.2002 67.5524 36.0456 67.5524 35.8393C67.5589 35.6524 67.4751 35.4784 67.3204 35.3689C67.2431 35.3109 67.14 35.2593 67.0304 35.2078C66.9144 35.1562 66.7791 35.1111 66.6438 35.066C66.5278 35.0273 66.3989 34.9758 66.2636 34.9178C66.1282 34.8533 65.9993 34.776 65.8962 34.6858C65.7867 34.5891 65.69 34.4667 65.6256 34.3313C65.5547 34.196 65.5224 34.0284 65.5224 33.8416C65.5224 33.5129 65.632 33.2293 65.8576 33.0038C66.0831 32.7718 66.386 32.6622 66.7598 32.6622C66.9016 32.6622 67.0498 32.6816 67.198 32.7202C67.3269 32.7589 67.4493 32.7976 67.5331 32.8491L67.6104 32.6493H67.9198L67.9778 33.9769H67.6684L67.662 33.9511C67.6104 33.674 67.5073 33.4484 67.3398 33.2809C67.1851 33.1133 66.966 33.0231 66.7404 33.0231C66.5471 33.0231 66.3989 33.0747 66.2893 33.1778C66.1862 33.2809 66.1282 33.4033 66.1282 33.5516C66.1282 33.6611 66.1476 33.7642 66.1798 33.8351C66.212 33.906 66.27 33.9704 66.3344 34.0284C66.4053 34.08 66.4891 34.1251 66.6051 34.1702C66.7082 34.2153 66.8436 34.2669 67.0111 34.3249C67.1658 34.3764 67.3269 34.4473 67.4687 34.5247C67.6104 34.5956 67.7329 34.6793 67.8296 34.776C67.9327 34.8727 68.0164 34.9887 68.068 35.1176C68.1196 35.24 68.1518 35.4076 68.1518 35.588C68.1518 35.9553 68.0229 36.2647 67.7651 36.5031C67.5138 36.7416 67.1787 36.8576 66.7791 36.8576C66.5858 36.8382 66.3796 36.7996 66.2056 36.7093ZM69.3376 63.9887C68.4482 63.9887 67.7329 63.2798 67.7329 62.3582C67.7329 61.456 68.4482 60.7342 69.3376 60.7342H69.344C70.2333 60.7342 70.9358 61.456 70.9358 62.3582C70.9358 63.2798 70.2333 63.9887 69.3376 63.9887Z" fill="#EE3831"/>
<path d="M69.2475 61.675C69.1572 61.675 69.0928 61.6815 69.0348 61.6879V62.3002H69.2475C69.4859 62.3002 69.6857 62.2164 69.6857 61.9908C69.6857 61.8297 69.5697 61.675 69.2475 61.675Z" fill="#EE3831"/>
<path d="M69.344 60.9922C68.6287 60.9922 68.0422 61.6044 68.0422 62.3584C68.0422 63.1253 68.6287 63.7311 69.344 63.7311C70.0658 63.7375 70.6393 63.1253 70.6393 62.3649C70.6393 61.6044 70.0658 60.9922 69.344 60.9922ZM69.7436 63.3057C69.6985 63.2477 69.6598 63.0802 69.6211 62.8482C69.5825 62.6162 69.4665 62.5324 69.2345 62.5324H69.0282V63.3057H68.7382V61.5013C68.8865 61.482 69.0347 61.4626 69.2538 61.4626C69.5309 61.4626 69.7049 61.5206 69.8209 61.598C69.924 61.6753 69.982 61.8042 69.982 61.9717C69.982 62.2102 69.8273 62.352 69.6276 62.41V62.4229C69.7822 62.4486 69.8918 62.5969 69.9305 62.8611C69.9756 63.1446 70.0142 63.2477 70.04 63.3057H69.7436Z" fill="#EE3831"/>
</svg>
