<svg width="96" height="96" viewBox="0 0 96 96" fill="none" xmlns="http://www.w3.org/2000/svg">
<circle cx="48" cy="48" r="47" fill="white" stroke="white" stroke-width="2"/>
<path d="M48 37.3805C52.0133 37.3805 55.2667 34.1171 55.2667 30.0915C55.2667 26.0659 52.0133 22.8025 48 22.8025C43.9867 22.8025 40.7333 26.0659 40.7333 30.0915C40.7333 34.1171 43.9867 37.3805 48 37.3805Z" fill="#54099E"/>
<path d="M32.887 46.1183C36.9003 46.1183 40.1538 42.8549 40.1538 38.8293C40.1538 34.8037 36.9003 31.5403 32.887 31.5403C28.8738 31.5403 25.6203 34.8037 25.6203 38.8293C25.6203 42.8549 28.8738 46.1183 32.887 46.1183Z" fill="#7C0DEB"/>
<path d="M32.887 63.6388C36.9003 63.6388 40.1538 60.3754 40.1538 56.3498C40.1538 52.3242 36.9003 49.0608 32.887 49.0608C28.8738 49.0608 25.6203 52.3242 25.6203 56.3498C25.6203 60.3754 28.8738 63.6388 32.887 63.6388Z" fill="#54099E"/>
<path d="M48 72.3766C52.0133 72.3766 55.2667 69.1132 55.2667 65.0876C55.2667 61.062 52.0133 57.7986 48 57.7986C43.9867 57.7986 40.7333 61.062 40.7333 65.0876C40.7333 69.1132 43.9867 72.3766 48 72.3766Z" fill="#7C0DEB"/>
<path d="M63.1353 63.6388C67.1486 63.6388 70.402 60.3754 70.402 56.3498C70.402 52.3242 67.1486 49.0608 63.1353 49.0608C59.122 49.0608 55.8685 52.3242 55.8685 56.3498C55.8685 60.3754 59.122 63.6388 63.1353 63.6388Z" fill="#54099E"/>
<path d="M63.1353 46.1183C67.1486 46.1183 70.402 42.8549 70.402 38.8293C70.402 34.8037 67.1486 31.5403 63.1353 31.5403C59.122 31.5403 55.8685 34.8037 55.8685 38.8293C55.8685 42.8549 59.122 46.1183 63.1353 46.1183Z" fill="#7C0DEB"/>
<path d="M35.0492 28.219C36.7604 28.219 38.1476 26.8318 38.1476 25.1206C38.1476 23.4094 36.7604 22.0222 35.0492 22.0222C33.338 22.0222 31.9508 23.4094 31.9508 25.1206C31.9508 26.8318 33.338 28.219 35.0492 28.219Z" fill="#54099E"/>
<path d="M22.0984 50.7102C23.8096 50.7102 25.1968 49.323 25.1968 47.6118C25.1968 45.9006 23.8096 44.5134 22.0984 44.5134C20.3872 44.5134 19 45.9006 19 47.6118C19 49.323 20.3872 50.7102 22.0984 50.7102Z" fill="#7C0DEB"/>
<path d="M35.0715 73.1792C36.7827 73.1792 38.1699 71.792 38.1699 70.0808C38.1699 68.3696 36.7827 66.9824 35.0715 66.9824C33.3603 66.9824 31.9731 68.3696 31.9731 70.0808C31.9731 71.792 33.3603 73.1792 35.0715 73.1792Z" fill="#54099E"/>
<path d="M60.9731 73.1567C62.6843 73.1567 64.0715 71.7695 64.0715 70.0583C64.0715 68.3472 62.6843 66.96 60.9731 66.96C59.2619 66.96 57.8747 68.3472 57.8747 70.0583C57.8747 71.7695 59.2619 73.1567 60.9731 73.1567Z" fill="#7C0DEB"/>
<path d="M73.9016 50.6658C75.6128 50.6658 77 49.2786 77 47.5674C77 45.8562 75.6128 44.469 73.9016 44.469C72.1904 44.469 70.8032 45.8562 70.8032 47.5674C70.8032 49.2786 72.1904 50.6658 73.9016 50.6658Z" fill="#54099E"/>
<path d="M60.9508 28.1968C62.662 28.1968 64.0492 26.8096 64.0492 25.0984C64.0492 23.3872 62.662 22 60.9508 22C59.2396 22 57.8524 23.3872 57.8524 25.0984C57.8524 26.8096 59.2396 28.1968 60.9508 28.1968Z" fill="#7C0DEB"/>
</svg>
