<svg width="96" height="96" viewBox="0 0 96 96" fill="none" xmlns="http://www.w3.org/2000/svg">
<circle cx="48" cy="48" r="47" fill="white" stroke="white" stroke-width="2"/>
<path fill-rule="evenodd" clip-rule="evenodd" d="M40.7275 40.9945C42.395 41.6431 44.0626 42.3384 45.6842 43.1256C40.4908 45.2089 35.4718 47.703 30.6749 50.5843C29.0533 49.7498 27.3857 48.9167 25.7182 48.1748C30.5357 45.3958 35.539 42.9871 40.7275 40.9945ZM34.5194 38.8175C29.15 40.5339 23.9539 42.7518 19 45.4417C20.575 46.0444 22.15 46.6465 23.679 47.2951C28.4573 44.4652 33.4998 42.1071 38.7349 40.254C37.3451 39.7438 35.9559 39.2344 34.5194 38.8175Z" fill="#2267AD"/>
<path fill-rule="evenodd" clip-rule="evenodd" d="M73.5716 49.0093C73.6642 49.287 73.8967 49.3795 74.1277 49.3795C74.2662 49.3795 74.4061 49.3795 74.4987 49.287C74.5566 49.2235 74.5895 49.1411 74.5912 49.0552C74.5912 48.8701 74.4527 48.7775 74.2662 48.7775L73.9426 48.685C73.85 48.6383 73.7101 48.6383 73.6176 48.5458C73.525 48.4532 73.4791 48.3147 73.4791 48.1755C73.4791 47.8053 73.8041 47.6668 74.1277 47.6668C74.4061 47.6668 74.6838 47.8053 74.7764 48.1296L74.5453 48.1755C74.5453 47.9897 74.3129 47.8512 74.0818 47.8512C73.9433 47.8512 73.7108 47.9437 73.7108 48.1289C73.7108 48.3606 73.8507 48.4066 74.0359 48.4532L74.3129 48.4991C74.4527 48.5451 74.5912 48.5917 74.6838 48.6376C74.7764 48.7768 74.8223 48.8701 74.8223 49.0552C74.8223 49.1937 74.7764 49.3795 74.6372 49.4721C74.4987 49.5654 74.3122 49.6113 74.1277 49.6113C73.7568 49.6113 73.5257 49.4255 73.3872 49.0552L73.5716 49.0093ZM75.3784 49.5654H75.194V47.7127H75.5169L76.121 49.1944L76.629 47.7127H77V49.5654H76.7689V47.9437L76.1655 49.5654H75.9804L75.3784 47.9437V49.5654ZM51.9848 40.7634C47.7306 38.7306 43.3333 37.0118 38.8282 35.6209C37.2066 36.0837 35.6316 36.5932 34.1025 37.1033C38.7399 38.4967 43.2626 40.2467 47.6301 42.3377C49.0666 41.7816 50.5017 41.2729 51.9848 40.7634ZM58.8874 38.7249C54.5786 36.8256 50.0848 35.2507 45.4983 34C44.0159 34.2777 42.5801 34.602 41.1443 34.9723C45.6842 36.3162 50.1307 37.9837 54.3935 40.0222C55.8752 39.5587 57.4043 39.0959 58.8874 38.7249ZM70.0048 42.431C59.1178 46.0911 48.926 51.3255 39.7079 57.8578C42.0241 59.2936 44.2477 60.776 46.4247 62.3969C55.1957 55.4467 64.8746 49.7266 75.1933 45.3951C73.5 44.345 71.7694 43.3563 70.0048 42.431ZM62.5002 38.9101C51.1962 41.8749 40.5883 46.6931 30.9985 53.0856C33.1296 54.1511 35.2606 55.2633 37.3451 56.4673C46.7497 49.9815 57.1732 44.8857 68.2906 41.5499C66.392 40.6242 64.492 39.6979 62.5002 38.9101Z" fill="#CD2E29"/>
</svg>
