<svg width="96" height="96" viewBox="0 0 96 96" fill="none" xmlns="http://www.w3.org/2000/svg">
<circle cx="48" cy="48" r="47" fill="white" stroke="white" stroke-width="2"/>
<path fill-rule="evenodd" clip-rule="evenodd" d="M68.4694 43.9612C70.2578 43.856 74.0468 41.1191 73.8364 36.5938C73.4171 30.068 67.8381 28.5951 63.418 28.5951H54.6829V32.1736C54.2606 29.7524 53.5257 28.0691 51.3133 26.5947C49.63 25.3322 47.84 24.9114 45.5239 25.0151C41.735 25.1203 37.9461 27.7519 36.4717 31.646V28.5936L33.4192 30.068C33.9452 30.4888 34.0505 32.0669 34.0505 32.0669V48.1709H33.9452L23.1045 29.2248C23.1045 28.804 22.8941 28.5936 22.6837 28.5936H19V66.379L22.1577 64.7994C21.5265 64.3786 21.5265 62.6953 21.5265 62.6953V44.9096L21.6317 44.8044L33.9468 66.4858L35.7353 65.5389C40.8934 71.5387 46.7879 70.4867 47.7348 70.4867C49.5248 70.3815 53.1018 69.3279 55.4163 66.4873H64.7872C68.259 66.4873 76.6815 64.1713 76.9956 55.0154C77.2044 47.436 69.9407 43.8575 68.4694 43.9612ZM63.0993 30.3851H63.7305C65.8362 30.3851 68.1507 32.8064 68.0455 36.8057C67.9434 41.2259 65.8362 43.2263 63.7305 43.2263H63.0993V30.3851ZM53.6262 65.1181C52.7862 67.329 50.0493 69.1175 46.8901 69.0123C42.4699 68.907 37.2066 63.8557 39.6278 54.4878L36.4702 56.1711V42.5935C37.3118 44.5924 38.8899 46.4876 41.3111 48.2777C52.1549 55.9607 55.8386 59.2236 53.6262 65.1181ZM47.9436 41.7519C41.4179 37.6473 40.2606 34.0688 40.7866 31.5424C41.1023 29.9628 42.261 27.2259 45.9432 26.8051C50.2597 26.2791 54.0486 30.6992 50.3649 38.0666L54.6798 36.0662V47.4345C52.7305 45.2148 50.46 43.2994 47.9436 41.7519ZM64.3633 64.6973H63.1008V45.0148H63.7321C65.8377 45.0148 69.6282 48.9089 69.6282 54.3826C69.6266 61.4344 66.257 64.6973 64.3633 64.6973Z" fill="#157563"/>
</svg>
