<svg width="96" height="96" viewBox="0 0 96 96" fill="none" xmlns="http://www.w3.org/2000/svg">
<circle cx="48" cy="48" r="47" fill="white" stroke="white" stroke-width="2"/>
<g clip-path="url(#clip0_1_9119)">
<mask id="mask0_1_9119" style="mask-type:luminance" maskUnits="userSpaceOnUse" x="11" y="39" width="74" height="19">
<path d="M85 39H11V57.7643H85V39Z" fill="white"/>
</mask>
<g mask="url(#mask0_1_9119)">
<path d="M70.3721 43.4187H61.7673L66.9303 48.721L63.4886 52.2559H70.3721L74.6744 47.8373L70.3721 43.4187Z" fill="#284FC3"/>
<path d="M76.3953 47.8372H85L79.8374 42.5349L83.2791 39H76.3953L72.0929 43.4186L76.3953 47.8372Z" fill="#284FC3"/>
<path d="M20.8036 54.9336V57.5582H11V43.4187H13.7535V54.9336H20.8036Z" fill="black"/>
<path d="M31.4418 53.5991H24.4605C24.8936 54.9512 26.0725 55.3754 27.5668 55.3754C28.3326 55.3754 29.5717 55.2752 31.2238 54.1441V56.7687C30.0822 57.5552 28.4703 57.7585 27.4091 57.7585C24.0647 57.7585 21.6468 55.6169 21.6468 52.5887C21.6468 49.5988 23.8094 47.4573 26.7006 47.4573C29.7122 47.4573 31.915 49.6813 31.4418 53.5991ZM24.3429 51.6196H28.8087C28.7485 50.2675 27.9053 49.7019 26.7838 49.7019C25.5218 49.7019 24.5982 50.3677 24.3429 51.6196Z" fill="black"/>
<path d="M42.4012 47.6604L37.0119 57.7613H36.9717L31.5852 47.6604H34.4161L36.9918 52.6888L39.5674 47.6604H42.4012Z" fill="black"/>
<path d="M50.5726 47.8019V50.3264C50.1797 50.1643 49.5688 50.0436 49.1185 50.0436C47.2686 50.0436 46.0898 51.0127 46.0898 53.8612V57.5581H43.5342V47.6605H46.0898V49.2364C46.7581 48.0257 47.8021 47.5603 49.1588 47.5603C49.8271 47.5603 50.24 47.6605 50.5726 47.8019Z" fill="black"/>
<path d="M51.1235 52.63C51.1235 49.6401 53.4238 47.4602 56.3953 47.4602C59.3838 47.4602 61.687 49.643 61.687 52.63C61.687 55.5993 59.3867 57.7615 56.3953 57.7615C53.4268 57.7615 51.1235 55.5993 51.1235 52.63ZM59.0512 52.63C59.0512 51.0334 57.97 49.9229 56.3953 49.9229C54.8406 49.9229 53.7594 51.0334 53.7594 52.63C53.7594 54.206 54.8406 55.2959 56.3953 55.2959C57.97 55.2959 59.0512 54.206 59.0512 52.63Z" fill="black"/>
</g>
</g>
<defs>
<clipPath id="clip0_1_9119">
<rect width="74" height="19" fill="white" transform="translate(11 39)"/>
</clipPath>
</defs>
</svg>
