<svg width="96" height="96" viewBox="0 0 96 96" fill="none" xmlns="http://www.w3.org/2000/svg">
<circle cx="48" cy="48" r="47" fill="white" stroke="white" stroke-width="2"/>
<path d="M55.9657 51.1984C54.5709 51.7214 50.5028 51.8957 47.8295 50.9659C43.0641 49.3387 41.5531 44.457 45.2144 38.1805C50.1542 29.7538 63.9856 26.0345 76.4804 31.7879C76.4804 31.7879 69.0416 24.1166 56.1981 24.0004C45.6212 23.9423 32.4871 31.2648 31.1505 40.7376C29.8719 49.6874 39.1704 55.6732 49.4568 53.9298C54.1641 53.1743 55.9657 51.1984 55.9657 51.1984Z" fill="#CE2A33"/>
<path d="M31.4636 33.7357C22.2814 37.6294 18.1552 43.964 19.1432 50.7635C20.3636 59.3645 32.9165 66.9195 46.1668 63.3164C57.0343 60.3525 60.7537 53.6692 61.4511 48.4389C61.4511 48.4389 55.4652 60.7012 38.5537 56.7493C31.5217 55.1221 28.1511 50.0661 27.3956 45.8818C26.0008 38.0943 31.4636 33.7357 31.4636 33.7357Z" fill="#CE2A33"/>
<path d="M49.9452 42.031C51.7468 40.9849 55.1756 40.5781 58.43 41.9147C63.428 43.8907 65.8688 48.4237 62.6143 55.2231C58.1976 64.4054 42.274 70.9724 30.2441 65.219C30.2441 65.219 31.0578 66.0907 33.3824 67.253C39.3682 70.275 53.1416 75.331 67.1473 67.7179C78.073 61.8483 79.0028 51.3875 74.3536 45.053C69.8206 38.8928 61.2196 37.6723 56.5704 38.5441C51.9211 39.4739 49.9452 42.031 49.9452 42.031Z" fill="#CE2A33"/>
</svg>
