<svg width="96" height="96" viewBox="0 0 96 96" fill="none" xmlns="http://www.w3.org/2000/svg">
<circle cx="48" cy="48" r="47" fill="white" stroke="white" stroke-width="2"/>
<g clip-path="url(#clip0_1_7766)">
<path d="M46.159 57.8583L46.2147 57.9063L46.1132 58.1186C45.9581 58.2002 45.7933 58.2642 45.6223 58.3091C45.4433 58.3457 45.2605 58.3629 45.0774 58.3603C44.7975 58.364 44.5196 58.3161 44.2592 58.2193C44.0816 58.1488 43.92 58.0468 43.783 57.9187C43.6588 57.8017 43.5574 57.6648 43.4835 57.5144C43.3739 57.2901 43.318 57.0457 43.3199 56.7986C43.3115 56.5963 43.3494 56.3946 43.431 56.2074C43.5127 56.0202 43.6361 55.852 43.7928 55.7141C44.107 55.4332 44.5521 55.2933 45.1281 55.2943C45.3064 55.2928 45.4844 55.3068 45.6599 55.3361C45.846 55.3746 46.0287 55.4264 46.2065 55.4911L46.2179 55.5189C46.191 55.5997 46.1724 55.6827 46.1623 55.7668C46.141 55.9217 46.1279 56.0767 46.1214 56.2053H45.9496C45.9493 56.0816 45.9422 55.958 45.9283 55.835C45.8366 55.7412 45.7251 55.6668 45.601 55.6165C45.4517 55.5629 45.2926 55.5381 45.133 55.5437C44.9813 55.5379 44.8299 55.5625 44.6889 55.6159C44.5479 55.6693 44.4204 55.7503 44.3148 55.8536C44.0959 56.0946 43.9849 56.407 44.0055 56.7243C44.0011 56.9248 44.0361 57.1245 44.1086 57.313C44.1703 57.4684 44.265 57.6103 44.3868 57.7297C44.4872 57.8289 44.6052 57.9107 44.7354 57.9714C44.9192 58.0419 45.1164 58.0757 45.3146 58.0705C45.4575 58.0716 45.5999 58.0554 45.7385 58.0225C45.8892 57.9831 46.0347 57.9274 46.1721 57.8567" fill="#1F3C6B"/>
<path d="M46.5436 55.525V55.3515H46.8938C46.992 55.3515 47.1311 55.3515 47.3111 55.3515C47.4649 55.3515 47.5958 55.3515 47.7054 55.3515C47.8871 55.3437 48.0327 55.3406 48.1555 55.3406C48.3293 55.3345 48.5033 55.3507 48.6726 55.3886C48.7895 55.422 48.8918 55.4905 48.9639 55.5838C49.0461 55.6883 49.0888 55.8161 49.0849 55.9464C49.0868 56.1142 49.0292 56.2779 48.9213 56.4111C48.7888 56.5645 48.6128 56.679 48.414 56.7411C48.4526 56.8071 48.4946 56.8712 48.54 56.9332C48.5858 56.9999 48.6137 57.0401 48.6218 57.0541L48.6464 57.0928L48.9868 57.5824C49.0784 57.7125 49.1259 57.7822 49.134 57.7915C49.2437 57.9325 49.3108 58.0146 49.337 58.0394C49.3567 58.0616 49.3812 58.0796 49.409 58.0921C49.4535 58.1047 49.4999 58.1105 49.5464 58.1091V58.2826C49.3206 58.2826 49.1586 58.2749 49.0555 58.2749C48.9524 58.2749 48.8215 58.2749 48.7069 58.2826C48.6938 58.2413 48.6762 58.2013 48.6546 58.1633L48.1849 57.4228C48.0491 57.2105 47.9362 57.0432 47.8429 56.9208C47.8047 56.8686 47.7584 56.8221 47.7054 56.783L47.73 56.7132C47.8649 56.7254 48.001 56.7079 48.1276 56.6621C48.2249 56.6152 48.3039 56.5404 48.3535 56.4483C48.4162 56.343 48.4483 56.2238 48.4467 56.1028C48.4513 55.9887 48.4168 55.8763 48.3486 55.7821C48.2899 55.7012 48.2066 55.639 48.1096 55.604C48.003 55.5771 47.8926 55.5661 47.7824 55.5714C47.7127 55.5717 47.6432 55.5774 47.5745 55.5885C47.5745 55.6396 47.5664 55.7527 47.5614 55.9293C47.5516 56.3244 47.5484 56.5893 47.5484 56.721C47.5484 56.9317 47.5484 57.1548 47.5484 57.3887C47.5484 57.6769 47.5582 57.8411 47.5614 57.8798C47.5603 57.9323 47.5681 57.9846 47.5844 58.0347C47.5915 58.0467 47.6016 58.0568 47.6138 58.0642C47.6329 58.0766 47.6547 58.0845 47.6776 58.0874C47.7618 58.0963 47.8465 58.1005 47.9313 58.0998V58.2842C47.6825 58.2764 47.4289 58.2718 47.172 58.2718C46.9445 58.2718 46.7334 58.2718 46.5387 58.2842V58.0998C46.638 58.1007 46.7371 58.0929 46.8349 58.0766C46.8498 58.0739 46.8632 58.0662 46.8725 58.0549C46.8838 58.0375 46.8906 58.0179 46.8922 57.9976C46.905 57.9155 46.9121 57.8327 46.9134 57.7497L46.9314 57.1377V56.3631L46.9216 55.92C46.9255 55.8162 46.9173 55.7123 46.8971 55.6102C46.8897 55.5953 46.8777 55.5828 46.8627 55.5745C46.7561 55.5465 46.646 55.5324 46.5354 55.5327" fill="#1F3C6B"/>
<path d="M49.8377 58.2858V58.1727C49.9142 58.1403 49.9861 58.0992 50.0521 58.0503C50.0603 57.993 50.0684 57.8954 50.075 57.7668C50.0864 57.5252 50.0913 57.3501 50.0913 57.2416V56.2966C50.0913 56.2594 50.0913 56.1246 50.0913 55.8876C50.0954 55.7901 50.0849 55.6926 50.0603 55.5979C50.0533 55.5844 50.0418 55.5734 50.0275 55.5669C49.9245 55.541 49.8183 55.5285 49.7117 55.5297V55.3516L50.2206 55.364H50.4923C50.6935 55.364 50.9161 55.364 51.1616 55.364L51.6067 55.3531H51.9339C51.9583 55.3549 51.9825 55.359 52.0059 55.3655L52.0223 55.3934L51.9798 55.7032C51.9798 55.7249 51.9798 55.8256 51.9585 56.0131H51.7948C51.7968 55.9095 51.7902 55.8059 51.7752 55.7032C51.7721 55.6868 51.7628 55.6719 51.749 55.6614C51.6933 55.6403 51.634 55.6288 51.5739 55.6273C51.4327 55.612 51.2906 55.6043 51.1485 55.6041C51.0176 55.6041 50.885 55.6041 50.7492 55.6196C50.7259 55.8192 50.7155 56.0199 50.7181 56.2207V56.6514C50.8179 56.6514 50.921 56.6622 51.0306 56.6622L51.3939 56.6529C51.4408 56.6555 51.4878 56.6508 51.533 56.639C51.5489 56.6279 51.5605 56.6121 51.5658 56.5941C51.5864 56.5066 51.5968 56.4172 51.5968 56.3276H51.7736V56.7924V57.2571H51.5854C51.5945 57.1559 51.5834 57.0539 51.5527 56.9566C51.5419 56.9417 51.5278 56.9293 51.5114 56.9202C51.495 56.9111 51.4767 56.9055 51.4577 56.9039C51.3287 56.8874 51.1985 56.8797 51.0683 56.8807C50.9514 56.8796 50.8345 56.8843 50.7181 56.8946V57.7839C50.7181 57.883 50.7181 57.9682 50.7181 58.0395C50.8359 58.0472 50.9766 58.0519 51.1387 58.0519C51.3007 58.0519 51.443 58.0519 51.5772 58.038C51.6614 58.0367 51.7449 58.0226 51.8243 57.9961C51.8375 57.9862 51.8472 57.9727 51.8521 57.9574C51.8914 57.8329 51.9194 57.7053 51.9356 57.5763H52.1156C52.0867 57.803 52.0709 58.0311 52.0681 58.2595L52.0387 58.2874C51.9454 58.2967 51.8112 58.3013 51.6394 58.3013H51.2859C50.939 58.3013 50.6985 58.3013 50.5675 58.3013L49.8344 58.3137" fill="#1F3C6B"/>
<path d="M53.9107 58.2858C54.1668 58.2909 54.4222 58.2595 54.6684 58.1928C54.8818 58.1259 55.0795 58.0207 55.2509 57.883C55.4312 57.7392 55.5754 57.5593 55.6731 57.3562C55.7785 57.131 55.8309 56.8868 55.827 56.6405C55.8291 56.4431 55.7942 56.2469 55.7239 56.0611C55.6816 55.9543 55.6201 55.8552 55.5422 55.7683C55.459 55.6746 55.36 55.5945 55.2493 55.5312C55.1232 55.4615 54.9854 55.4128 54.8418 55.3871C54.6365 55.3536 54.4283 55.3385 54.22 55.3422C54.1071 55.3422 53.9582 55.3422 53.77 55.3422C53.5114 55.3422 53.3347 55.3531 53.2414 55.3531L52.4461 55.3391V55.5095C52.6098 55.5297 52.6965 55.5421 52.7211 55.5483C52.7416 55.5517 52.7608 55.5603 52.7767 55.573C52.7847 55.5816 52.7908 55.5916 52.7947 55.6025C52.815 55.7275 52.8243 55.854 52.8225 55.9805C52.8307 56.3368 52.834 56.6079 52.834 56.7923V57.1362C52.834 57.5576 52.8258 57.8618 52.8094 58.0487C52.76 58.0824 52.7086 58.1134 52.6556 58.1417C52.6261 58.1556 52.6065 58.168 52.5951 58.1742V58.2749L53.2594 58.2625L53.9107 58.2858ZM53.4509 57.2013V56.7179C53.4509 56.1685 53.458 55.7946 53.4722 55.5963C53.5957 55.5786 53.7204 55.5693 53.8453 55.5684C54.0718 55.559 54.2984 55.5846 54.5162 55.6443C54.6597 55.6919 54.7865 55.7761 54.8828 55.8875C54.9815 56.0028 55.0524 56.1371 55.0906 56.2811C55.1337 56.4326 55.1552 56.5889 55.1544 56.7458C55.1558 56.9104 55.1343 57.0745 55.0906 57.2338C55.0548 57.373 54.9945 57.5056 54.9122 57.6258C54.8489 57.7218 54.7673 57.8058 54.6717 57.8737C54.5828 57.9313 54.4843 57.9742 54.3804 58.0007C54.211 58.042 54.0365 58.0618 53.8616 58.0596C53.7312 58.0593 53.601 58.0495 53.4722 58.0301C53.4574 57.8969 53.4509 57.6227 53.4509 57.206" fill="#1F3C6B"/>
<path d="M57.5648 55.3516V55.5375C57.4767 55.5369 57.3887 55.5421 57.3014 55.553C57.2801 55.5564 57.26 55.5644 57.2425 55.5762C57.231 55.5851 57.2225 55.597 57.2179 55.6103C57.2048 55.6547 57.1977 55.7005 57.1966 55.7466C57.1966 55.7823 57.1966 55.852 57.1966 55.9527C57.1966 56.2966 57.1885 56.4825 57.1885 56.5088V57.3547V57.7389C57.1836 57.8329 57.1908 57.927 57.2097 58.0194C57.2151 58.0366 57.2253 58.0521 57.2392 58.0643C57.2588 58.077 57.2812 58.0854 57.3046 58.0891C57.3909 58.0996 57.4779 58.1043 57.5648 58.103V58.2874C57.3275 58.2796 57.0739 58.275 56.8006 58.275C56.5666 58.275 56.3555 58.275 56.1722 58.2874V58.103C56.3244 58.103 56.4112 58.0922 56.4357 58.0891C56.4581 58.0861 56.4794 58.0781 56.4979 58.0658C56.5082 58.0566 56.5156 58.0448 56.5192 58.0318C56.5283 57.9665 56.5338 57.9008 56.5355 57.835C56.5486 57.6661 56.5535 57.5112 56.5535 57.3702V56.4934C56.5535 56.216 56.5535 56.0363 56.5535 55.9558C56.5524 55.8444 56.5442 55.7331 56.529 55.6227C56.526 55.6072 56.5186 55.5927 56.5077 55.5809C56.4931 55.568 56.4749 55.5594 56.4553 55.5561C56.363 55.5458 56.2701 55.5401 56.1772 55.539V55.3516C56.3604 55.3609 56.5732 55.3655 56.8104 55.3655C57.0788 55.3655 57.3325 55.3655 57.5697 55.3516" fill="#1F3C6B"/>
<path d="M58.4076 58.2859V58.1139C58.5125 58.1182 58.6174 58.1067 58.7185 58.0799C58.7353 58.0713 58.75 58.0593 58.7616 58.0449C58.7732 58.0305 58.7814 58.0139 58.7856 57.9962C58.8091 57.8164 58.8173 57.635 58.8101 57.454V56.196C58.8101 55.8536 58.8101 55.663 58.8101 55.6212H58.4959C58.3323 55.6212 58.1998 55.6212 58.0803 55.6367C58.0312 55.6367 58.0034 55.646 57.9968 55.6537C57.981 55.6752 57.9719 55.7004 57.9707 55.7266C57.9504 55.8356 57.9395 55.9459 57.9379 56.0566H57.7547C57.7547 55.7699 57.7547 55.6073 57.7448 55.5716C57.7448 55.5097 57.7317 55.4431 57.7219 55.3718L57.7416 55.3501C57.8103 55.3578 57.8839 55.3625 57.9608 55.3656C58.0868 55.3656 58.329 55.3656 58.6874 55.3656H59.5727C59.9425 55.3656 60.1896 55.3656 60.314 55.3656C60.3811 55.3656 60.4482 55.3656 60.5169 55.3501L60.5398 55.3718C60.5267 55.457 60.5186 55.5267 60.5153 55.5964C60.5153 55.6073 60.5153 55.7606 60.5153 56.0612H60.3107C60.3091 55.9574 60.2998 55.8539 60.2829 55.7514C60.2819 55.7194 60.2717 55.6884 60.2535 55.6615C60.2324 55.6506 60.2087 55.6453 60.1847 55.646C60.0636 55.6352 59.9196 55.629 59.7511 55.629H59.4385C59.4385 55.6785 59.4385 55.8691 59.4385 56.2037V57.4617C59.4323 57.6438 59.4399 57.826 59.4614 58.0071C59.4662 58.0241 59.4746 58.0401 59.4861 58.0539C59.4977 58.0678 59.5121 58.0793 59.5285 58.0876C59.6307 58.1145 59.7367 58.126 59.8427 58.1217V58.2937C59.558 58.2813 59.3191 58.2751 59.1243 58.2751C58.9296 58.2751 58.6776 58.2751 58.4076 58.2937" fill="#1F3C6B"/>
<path d="M62.0093 55.5545L61.723 55.5251V55.3516L62.4364 55.3655H62.7326H63.0288H63.109V55.5406C63.0072 55.5317 62.9047 55.5455 62.8095 55.5809C62.797 55.5892 62.7865 55.6 62.7789 55.6126C62.7713 55.6252 62.7666 55.6392 62.7654 55.6537C62.7384 55.8436 62.728 56.0353 62.7343 56.2269V56.7133V56.9581C62.7343 57.2153 62.7343 57.3733 62.7424 57.4322C62.7491 57.5449 62.7845 57.6544 62.8455 57.7513C62.9092 57.8382 62.9978 57.9059 63.1008 57.9465C63.2398 58.0004 63.3893 58.0258 63.5394 58.0209C63.7093 58.0287 63.8785 57.9945 64.0303 57.9218C64.1428 57.8628 64.2327 57.7717 64.2872 57.6615C64.3517 57.4657 64.3777 57.2604 64.3641 57.0557V56.6281C64.3641 56.2579 64.3641 56.0332 64.3641 55.9511C64.367 55.847 64.3566 55.743 64.333 55.6413C64.3234 55.6189 64.3053 55.6006 64.2823 55.5901C64.1805 55.5585 64.0735 55.5444 63.9665 55.5483V55.3516C64.2316 55.3624 64.3887 55.3671 64.4378 55.3671H64.4967L64.9876 55.3531V55.5282C64.9006 55.5212 64.8131 55.5318 64.7307 55.5592C64.7092 55.5758 64.6943 55.5987 64.6881 55.6242C64.6673 55.7649 64.6569 55.9067 64.657 56.0487C64.6472 56.2997 64.6407 56.4996 64.6407 56.6436V57.1378C64.64 57.2684 64.6308 57.3988 64.6129 57.5283C64.5983 57.649 64.5588 57.7658 64.4967 57.8722C64.4347 57.9727 64.3518 58.0602 64.2529 58.1294C64.1407 58.2104 64.0128 58.2699 63.8765 58.3044C63.7131 58.3452 63.5446 58.3645 63.3757 58.3617C63.1645 58.3636 62.9543 58.3348 62.7523 58.2765C62.6272 58.242 62.5105 58.1846 62.4086 58.1077C62.3231 58.0436 62.2534 57.9627 62.2041 57.8706C62.16 57.7918 62.1307 57.7064 62.1173 57.6181C62.1173 57.567 62.1075 57.4322 62.1075 57.2107V56.2811C62.1075 56.0859 62.1075 55.9093 62.0944 55.7528C62.0931 55.7069 62.0843 55.6614 62.0682 55.618C62.0546 55.5965 62.0362 55.578 62.0142 55.5638" fill="#1F3C6B"/>
<path d="M65.22 58.2858V58.1077C65.3191 58.1066 65.4181 58.0988 65.5162 58.0844C65.5322 58.0796 65.5464 58.0704 65.5571 58.0581C65.5715 58.0343 65.5804 58.0079 65.5832 57.9806C65.5931 57.9264 65.6029 57.7978 65.6143 57.5933C65.6143 57.4787 65.6225 57.3268 65.6225 57.1409V56.467L65.6143 55.8566C65.6161 55.7903 65.6117 55.7239 65.6012 55.6583C65.5993 55.6327 65.5882 55.6084 65.5698 55.5895C65.5513 55.5707 65.5266 55.5583 65.4998 55.5545C65.4072 55.5401 65.3137 55.5313 65.22 55.5282V55.3516C65.4049 55.3609 65.5472 55.3655 65.6291 55.3655H65.9482L66.1494 55.3578C66.4522 55.7358 66.8155 56.168 67.2442 56.6591C67.5535 57.0139 67.8088 57.2897 68.0133 57.4911V57.0062C68.0133 56.2532 68.0035 55.8101 67.9871 55.6785C67.9871 55.6408 67.9725 55.6044 67.9462 55.5762C67.8367 55.5394 67.72 55.5256 67.6042 55.5359V55.3516C67.7826 55.3609 67.9462 55.3655 68.0951 55.3655C68.2441 55.3655 68.4224 55.3655 68.6548 55.3516V55.5297C68.5442 55.5213 68.4329 55.534 68.3275 55.5669C68.3156 55.574 68.3068 55.5851 68.303 55.5979C68.2724 55.7558 68.2582 55.9161 68.2604 56.0766C68.2539 56.3276 68.2506 56.5119 68.2506 56.6297C68.2506 57.5592 68.2604 58.1247 68.2784 58.323L68.2506 58.3432C68.1279 58.323 68.0035 58.3044 67.8759 58.2874C67.4035 57.7823 66.7336 57.0242 65.8663 56.0131V57.0557C65.8663 57.2711 65.8663 57.4973 65.8794 57.7328C65.8775 57.832 65.8863 57.9311 65.9056 58.0287C65.9105 58.0448 65.9208 58.059 65.9351 58.0689C65.957 58.0828 65.9824 58.0908 66.0087 58.0922C66.0776 58.1013 66.147 58.107 66.2165 58.1092H66.2607V58.2796H65.7878C65.6454 58.2796 65.4523 58.2796 65.2101 58.292" fill="#1F3C6B"/>
<path d="M70.4008 55.3516V55.5375C70.3128 55.5369 70.2247 55.5421 70.1374 55.553C70.1162 55.5564 70.096 55.5644 70.0785 55.5762C70.0671 55.5851 70.0585 55.597 70.0539 55.6103C70.04 55.6545 70.0328 55.7004 70.0327 55.7466C70.0327 55.7823 70.0327 55.852 70.0327 55.9527C70.0327 56.2966 70.0228 56.4825 70.0228 56.5088V57.3547V57.7389C70.0183 57.833 70.026 57.9271 70.0457 58.0194C70.0499 58.037 70.0603 58.0529 70.0752 58.0643C70.0949 58.077 70.1172 58.0854 70.1407 58.0891C70.2269 58.0997 70.3139 58.1044 70.4008 58.103V58.2874C70.1619 58.2796 69.9099 58.275 69.6366 58.275C69.401 58.275 69.1915 58.275 69.0066 58.2874V58.103C69.1588 58.103 69.2472 58.0922 69.2701 58.0891C69.293 58.0861 69.3148 58.0781 69.3339 58.0658C69.3432 58.0561 69.35 58.0444 69.3535 58.0318C69.3637 57.9666 69.3697 57.9009 69.3715 57.835C69.383 57.6661 69.3895 57.5112 69.3895 57.3702V56.4934C69.3895 56.216 69.3895 56.0363 69.3895 55.9558C69.3882 55.8443 69.3795 55.7331 69.3634 55.6227C69.3603 55.6072 69.353 55.5927 69.3421 55.5809C69.328 55.5674 69.3096 55.5587 69.2897 55.5561C69.1974 55.5456 69.1045 55.5399 69.0115 55.539V55.3516C69.1964 55.3609 69.4075 55.3655 69.6465 55.3655C69.9132 55.3655 70.1668 55.3655 70.4058 55.3516" fill="#1F3C6B"/>
<path d="M70.9359 57.6831C71.0649 57.8996 71.2584 58.0753 71.4923 58.1882C71.7565 58.308 72.0471 58.3664 72.34 58.3586C72.6198 58.3642 72.898 58.3168 73.1582 58.2191C73.5093 58.0765 73.7864 57.808 73.9289 57.4724C74.0254 57.239 74.0737 56.9902 74.0713 56.7396C74.0727 56.5963 74.0562 56.4533 74.0222 56.3136C73.991 56.1896 73.942 56.0702 73.8766 55.9588C73.8003 55.8419 73.7047 55.7373 73.5935 55.649C73.4685 55.5458 73.3242 55.466 73.168 55.4135C72.9344 55.3397 72.6893 55.3036 72.4431 55.3066C72.1911 55.3042 71.9405 55.3419 71.7018 55.4181C71.5188 55.4801 71.3515 55.5777 71.2109 55.7047C71.0589 55.8405 70.9399 56.0059 70.8623 56.1896C70.7767 56.4032 70.7356 56.6305 70.7412 56.8589C70.7296 57.1477 70.799 57.4342 70.9425 57.6893M71.5185 56.1137C71.5753 55.942 71.6903 55.7928 71.8458 55.6892C71.9951 55.6051 72.1636 55.5562 72.3371 55.5468C72.5105 55.5373 72.6839 55.5676 72.8424 55.635C72.9597 55.7007 73.0603 55.7901 73.1369 55.8968C73.2261 56.0235 73.2909 56.164 73.3284 56.312C73.3754 56.4877 73.3979 56.6684 73.3955 56.8496C73.4014 57.0975 73.3593 57.3443 73.2711 57.5778C73.2103 57.7514 73.0899 57.9009 72.9291 58.0023C72.7751 58.0864 72.6004 58.1307 72.4226 58.1307C72.2448 58.1307 72.0701 58.0864 71.9162 58.0023C71.7505 57.8895 71.6249 57.7317 71.5561 57.5499C71.455 57.2919 71.4078 57.0178 71.4171 56.7427C71.4142 56.5322 71.4485 56.3228 71.5185 56.123" fill="#1F3C6B"/>
<path d="M74.3675 58.2858V58.1077C74.4667 58.1066 74.5657 58.0988 74.6637 58.0844C74.6797 58.0796 74.694 58.0704 74.7046 58.0581C74.719 58.0342 74.7285 58.0079 74.7324 57.9806C74.7406 57.9264 74.7504 57.7978 74.7635 57.5933C74.7635 57.4787 74.7717 57.3268 74.7717 57.1409V56.467L74.7635 55.8566C74.7642 55.7903 74.7592 55.7239 74.7488 55.6583C74.7447 55.633 74.734 55.609 74.7177 55.5886C74.698 55.5722 74.6744 55.5605 74.649 55.5545C74.5558 55.5403 74.4618 55.5315 74.3675 55.5282V55.3516C74.5541 55.3609 74.6948 55.3655 74.7782 55.3655H75.0957L75.2986 55.3578C75.5997 55.7358 75.9646 56.168 76.3934 56.6591C76.701 57.0139 76.9563 57.2897 77.1609 57.4911V57.0062C77.1609 56.2532 77.151 55.8101 77.1347 55.6785C77.1346 55.6408 77.1201 55.6044 77.0938 55.5762C76.9842 55.5394 76.8675 55.5256 76.7518 55.5359V55.3516C76.9301 55.3609 77.0938 55.3655 77.2427 55.3655C77.3916 55.3655 77.57 55.3655 77.8023 55.3516V55.5297C77.6944 55.5225 77.5861 55.5351 77.4832 55.5669C77.4713 55.574 77.4626 55.5851 77.4587 55.5979C77.4281 55.7558 77.4144 55.9161 77.4178 56.0766C77.4096 56.3276 77.4063 56.5119 77.4063 56.6297C77.4063 57.5592 77.4161 58.1247 77.4341 58.323L77.4063 58.3432C77.2836 58.323 77.1592 58.3044 77.0316 58.2874C76.5592 57.7823 75.8894 57.0242 75.0221 56.0131V57.0557C75.0221 57.2711 75.0221 57.4973 75.0352 57.7328C75.0342 57.8319 75.0429 57.931 75.0614 58.0287C75.0668 58.0445 75.077 58.0585 75.0908 58.0689C75.1128 58.0825 75.1382 58.0905 75.1644 58.0922C75.2334 58.1012 75.3027 58.1069 75.3723 58.1092H75.4164V58.2796H74.9435C74.8012 58.2796 74.6081 58.2796 74.3659 58.292" fill="#1F3C6B"/>
<path d="M77.9578 59L77.8907 58.9474C77.9886 58.7718 78.0696 58.5882 78.1329 58.3989C78.1937 58.2146 78.2364 58.0253 78.2605 57.8335L78.6173 57.7622C78.6975 57.7399 78.7762 57.713 78.8529 57.6816L78.9315 57.7529C78.8439 57.9384 78.7461 58.1194 78.6385 58.2951C78.5255 58.4914 78.402 58.6822 78.2687 58.8668L77.9578 59Z" fill="#1F3C6B"/>
<path d="M81.6986 55.3516V55.5375C81.6105 55.5369 81.5225 55.5421 81.4352 55.553C81.4139 55.5564 81.3938 55.5644 81.3763 55.5762C81.3648 55.5851 81.3563 55.597 81.3517 55.6103C81.3378 55.6545 81.3306 55.7004 81.3304 55.7466C81.3304 55.7823 81.3304 55.852 81.3304 55.9527C81.3304 56.2966 81.3223 56.4825 81.3223 56.5088V57.3547V57.7389C81.3177 57.833 81.3254 57.9271 81.3452 58.0194C81.35 58.0368 81.3603 58.0524 81.3746 58.0643C81.3943 58.077 81.4166 58.0854 81.4401 58.0891C81.5263 58.0997 81.6133 58.1043 81.7003 58.103V58.2874C81.463 58.2796 81.2093 58.275 80.9377 58.275C80.702 58.275 80.491 58.275 80.3077 58.2874V58.103C80.4599 58.103 80.5466 58.0922 80.5711 58.0891C80.5935 58.0861 80.6148 58.0781 80.6333 58.0658C80.6437 58.0566 80.651 58.0448 80.6546 58.0318C80.6546 58.0147 80.6644 57.9496 80.671 57.835C80.6824 57.6661 80.689 57.5112 80.689 57.3702V56.4934C80.689 56.216 80.689 56.0363 80.689 55.9558C80.6877 55.8443 80.6789 55.7331 80.6628 55.6227C80.661 55.6071 80.6542 55.5925 80.6431 55.5809C80.6281 55.5677 80.6093 55.5591 80.5891 55.5561C80.4973 55.5457 80.405 55.54 80.3126 55.539V55.3516C80.4959 55.3609 80.707 55.3655 80.9475 55.3655C81.2142 55.3655 81.4679 55.3655 81.7052 55.3516" fill="#1F3C6B"/>
<path d="M81.9686 58.2858V58.1077C82.0678 58.1067 82.1668 58.0989 82.2648 58.0844C82.2809 58.0796 82.2951 58.0704 82.3057 58.0581C82.3209 58.0345 82.3304 58.0081 82.3336 57.9806C82.3417 57.9264 82.3516 57.7978 82.3647 57.5933C82.3647 57.4787 82.3728 57.3268 82.3728 57.1409V56.467L82.3647 55.8566C82.3653 55.7903 82.3604 55.7239 82.3499 55.6583C82.3458 55.633 82.3351 55.609 82.3188 55.5886C82.2991 55.5722 82.2756 55.5605 82.2501 55.5545C82.157 55.5403 82.0629 55.5315 81.9686 55.5282V55.3516C82.1552 55.3609 82.2959 55.3655 82.3794 55.3655H82.6985L82.8932 55.3516C83.196 55.7296 83.5609 56.1618 83.9896 56.6529C84.2973 57.0077 84.5542 57.2835 84.7571 57.4849V57C84.7571 56.247 84.7484 55.8045 84.7309 55.6723C84.7313 55.6348 84.7174 55.5985 84.6916 55.57C84.5814 55.5335 84.4643 55.5198 84.348 55.5297V55.3516C84.528 55.3609 84.6916 55.3655 84.8389 55.3655C84.9862 55.3655 85.1662 55.3655 85.3986 55.3516V55.5297C85.2879 55.5215 85.1767 55.5341 85.0713 55.5669C85.0654 55.5703 85.0603 55.5748 85.0563 55.5801C85.0524 55.5854 85.0497 55.5915 85.0484 55.5979C85.0169 55.7557 85.0027 55.9161 85.0058 56.0766C84.9976 56.3276 84.9944 56.5119 84.9944 56.6297C84.9944 57.5592 85.0042 58.1247 85.0238 58.323L84.9944 58.3432C84.8733 58.323 84.7473 58.3044 84.6196 58.2874C84.1473 57.7823 83.4774 57.0242 82.6101 56.0131V57.0557C82.6101 57.2711 82.6101 57.4973 82.6232 57.7328C82.6231 57.8319 82.6319 57.9309 82.6494 58.0287C82.6542 58.0448 82.6646 58.059 82.6788 58.0689C82.7009 58.0825 82.7262 58.0905 82.7525 58.0922C82.8214 58.1012 82.8908 58.1069 82.9603 58.1092H83.0045V58.2796H82.5316C82.3892 58.2796 82.1961 58.2796 81.9539 58.292" fill="#1F3C6B"/>
<path d="M88.5683 57.8583L88.6239 57.9063L88.5225 58.1186C88.3675 58.2004 88.2026 58.2644 88.0315 58.3091C87.8525 58.3457 87.6697 58.3629 87.4866 58.3603C87.2068 58.3642 86.9288 58.3163 86.6684 58.2193C86.4907 58.1492 86.3289 58.0471 86.1922 57.9187C86.0675 57.8021 85.9661 57.6651 85.8928 57.5144C85.7832 57.2901 85.7273 57.0457 85.7291 56.7986C85.7211 56.5963 85.7591 56.3947 85.8408 56.2076C85.9224 56.0205 86.0456 55.8522 86.202 55.7141C86.5184 55.4332 86.9635 55.2933 87.5373 55.2943C87.7161 55.2928 87.8947 55.3068 88.0708 55.3361C88.2568 55.3748 88.4395 55.4266 88.6174 55.4911L88.6288 55.5189C88.6011 55.5995 88.5825 55.6826 88.5732 55.7668C88.5519 55.9217 88.5372 56.0767 88.5323 56.2053H88.3605C88.3605 56.0503 88.3506 55.9279 88.3392 55.835C88.2475 55.7412 88.136 55.6668 88.0119 55.6165C87.862 55.5629 87.7024 55.5382 87.5423 55.5437C87.3905 55.5377 87.2391 55.5622 87.0981 55.6156C86.9571 55.669 86.8296 55.7501 86.7241 55.8536C86.5044 56.0942 86.3933 56.4069 86.4148 56.7243C86.4104 56.9248 86.4453 57.1245 86.5179 57.313C86.5795 57.4684 86.6742 57.6103 86.7961 57.7297C86.8958 57.8296 87.0139 57.9115 87.1446 57.9714C87.3283 58.0422 87.5256 58.076 87.7239 58.0705C87.8662 58.0717 88.0081 58.0555 88.1461 58.0225C88.2974 57.9831 88.4434 57.9275 88.5814 57.8567" fill="#1F3C6B"/>
<path d="M89.2507 57.6754C89.2957 57.6745 89.3405 57.6824 89.3822 57.6987C89.4239 57.715 89.4616 57.7392 89.4929 57.7699C89.5257 57.7999 89.5515 57.8361 89.5687 57.8761C89.5859 57.9161 89.5941 57.9591 89.5927 58.0023C89.5927 58.0886 89.5568 58.1714 89.4928 58.2329C89.4288 58.2944 89.3418 58.3295 89.2507 58.3307C89.1822 58.3305 89.1153 58.311 89.0584 58.2748C89.0015 58.2386 88.9573 58.1873 88.9312 58.1273C88.9051 58.0673 88.8984 58.0014 88.9119 57.9378C88.9253 57.8741 88.9584 57.8157 89.0069 57.7699C89.0384 57.739 89.0763 57.7147 89.1183 57.6984C89.1603 57.6821 89.2053 57.6743 89.2507 57.6754Z" fill="#1F3C6B"/>
<path d="M83.7213 50.4079L85.3397 49.6333L85.739 49.9896L84.0796 50.7472L83.7213 50.4079Z" fill="#F5BE0B"/>
<path d="M83.6067 51.2941L85.0451 50.5876L85.4444 50.9455L83.9634 51.6318L83.6067 51.2941Z" fill="#F5BE0B"/>
<path d="M86.9106 51.7727C87.2248 51.6318 87.2755 51.8456 87.2755 51.8456L90.622 50.3939L89.5272 49.6658L83.3514 52.3475L84.4445 53.0757L86.3526 52.253C86.3329 52.2301 86.3197 52.2028 86.3142 52.1738C86.3087 52.1447 86.3112 52.1148 86.3213 52.0868C86.3315 52.0589 86.349 52.0339 86.3723 52.0142C86.3955 51.9945 86.4236 51.9807 86.4541 51.9741C86.4346 51.9498 86.4211 51.9218 86.4145 51.8919C86.4079 51.8621 86.4084 51.8313 86.4159 51.8016C86.4234 51.772 86.4378 51.7443 86.458 51.7206C86.4781 51.6968 86.5036 51.6776 86.5326 51.6643C86.7502 51.5558 86.9106 51.7836 86.9106 51.7836" fill="#F5BE0B"/>
<path d="M91 52.1414L89.6532 51.1948L83.3514 53.9788L84.5296 54.8061L88.1559 53.3126V54.5272L88.6174 54.8247V53.1221L89.0167 52.9579V54.109L89.4798 54.3475V52.7673L91 52.1414Z" fill="#F5BE0B"/>
<path d="M44.1086 53.9045L43.8566 54.2237H83.8914V53.9045H44.1086Z" fill="#F5BE0B"/>
<path d="M7.2157 54.2283H34.4718L34.4292 53.9092H7.2157V54.2283Z" fill="#F5BE0B"/>
<path d="M30.0747 50.9376H25.5582C26.8756 50.5937 26.8985 50.2389 26.8985 50.2389C26.9649 50.0587 26.9987 49.869 26.9983 49.6781C27.0245 48.2921 27.0381 47.5691 27.0392 47.5092V46.5796C27.0392 46.1644 27.031 45.805 27.0146 45.3402C27.0228 45.156 26.999 44.9718 26.9443 44.7949C26.9004 44.7188 26.8315 44.6584 26.7479 44.6229C26.7479 44.6229 25.2162 44.0032 24.6206 43.9227C24.6206 43.9227 27.7052 43.5818 28.1143 43.4192C28.1854 43.3869 28.2593 43.3605 28.3352 43.3402C28.3528 43.3396 28.3702 43.3429 28.3862 43.3499C28.4021 43.3569 28.416 43.3674 28.4269 43.3804C28.4511 43.4147 28.4626 43.4555 28.4596 43.4966C28.4596 43.5338 28.4596 43.5741 28.4514 43.6206C28.4174 43.863 28.4004 44.1073 28.4007 44.3518C28.4007 44.3518 29.4742 43.5509 30.4707 43.3897C31.4673 43.2286 31.8322 43.5602 31.8322 43.5602L31.2824 45.1745C31.2824 45.1745 30.942 44.6694 30.0584 44.6694C29.1747 44.6694 28.8392 45.1838 28.8392 45.1838C28.5431 45.5137 28.3958 46.1009 28.3958 46.7609V47.5634C28.3958 47.9073 28.4094 48.5332 28.4367 49.4411C28.4357 49.6548 28.4571 49.8681 28.5005 50.0778C28.5417 50.1767 28.6009 50.268 28.6756 50.3474C29.0634 50.7362 30.0747 50.9376 30.0747 50.9376Z" fill="#1F3C6B"/>
<path d="M31.7766 50.9378C32.891 50.6031 33.0186 50.1631 33.0186 50.1631C33.0709 50.0283 33.0964 49.8854 33.0939 49.7418C33.0939 49.6736 33.1076 48.9279 33.1348 47.5046V46.1336C33.1348 45.3589 33.1076 44.8988 33.053 44.7532C33.0216 44.6645 32.9593 44.5886 32.8763 44.5378C32.7912 44.4991 32.4475 44.4433 31.8012 44.4433C31.8012 44.4433 33.5145 43.8763 34.4603 43.2272C34.4603 43.2272 34.6534 43.1373 34.642 43.3511C34.5978 44.4588 34.5749 45.4999 34.5749 46.0871V47.5046C34.6032 48.8556 34.6201 49.5853 34.6256 49.6937C34.6417 49.8521 34.6774 50.0081 34.732 50.1585C34.8334 50.4823 35.686 50.8712 36.1229 50.9331C36.1229 50.9378 31.7897 50.9502 31.7766 50.9378ZM33.7861 39.9614C33.9081 39.9589 34.0293 39.9804 34.142 40.0247C34.2547 40.069 34.3564 40.135 34.4407 40.2186C34.5271 40.2995 34.5954 40.3961 34.6415 40.5025C34.6876 40.609 34.7106 40.7232 34.7091 40.8382C34.7095 41.0707 34.6126 41.2938 34.4396 41.4587C34.2666 41.6237 34.0316 41.717 33.7861 41.7182C33.6643 41.7193 33.5436 41.6971 33.4311 41.6529C33.3186 41.6087 33.2167 41.5435 33.1316 41.461C33.044 41.3808 32.9746 41.2844 32.9279 41.1778C32.8812 41.0713 32.8581 40.9567 32.8599 40.8413C32.8597 40.7256 32.8836 40.611 32.9304 40.504C32.9771 40.397 33.0457 40.2999 33.1323 40.2181C33.2188 40.1363 33.3215 40.0716 33.4346 40.0275C33.5476 39.9834 33.6688 39.961 33.791 39.9614H33.7861Z" fill="#1F3C6B"/>
<path d="M43.9826 44.5067C43.747 44.8166 43.5921 45.0314 43.5179 45.1512H42.2087C42.3478 45.4611 42.536 45.8406 42.536 46.1149C42.5572 46.5913 42.4443 47.0645 42.2087 47.4859C41.9883 47.8697 41.6634 48.1906 41.2678 48.4155C40.8063 48.6881 40.0929 48.84 39.5545 48.8942C39.0512 48.9254 38.5464 48.9316 38.0424 48.9128C37.6481 49.187 37.5171 49.3032 37.4141 49.4395C37.3485 49.5309 37.3137 49.6389 37.3142 49.7494C37.3132 49.8728 37.3597 49.9923 37.4451 50.0856C37.5535 50.1935 37.6959 50.2653 37.851 50.2901C38.3311 50.3735 38.8195 50.4073 39.3074 50.3908L41.2711 50.3505C41.9562 50.3505 42.4766 50.429 42.8322 50.586C43.1728 50.7285 43.4508 50.9781 43.6193 51.2924C43.7933 51.6299 43.8807 52.0014 43.8746 52.3769C43.8545 52.9791 43.6398 53.5609 43.2593 54.0439C42.8001 54.6469 42.1664 55.1112 41.4347 55.3809C40.6515 55.7171 39.7991 55.8843 38.9392 55.8704C38.2092 55.8885 37.4824 55.7728 36.7988 55.5296C36.2782 55.3511 35.8235 55.0336 35.4896 54.6156C35.2188 54.2674 35.0705 53.8473 35.0658 53.4149C35.0639 53.1912 35.1055 52.969 35.1885 52.7596C35.2912 52.5236 35.4301 52.3032 35.6009 52.1058C36.0385 51.7026 36.5937 51.4328 37.1948 51.3312C36.5288 51.2367 36.1507 51.0523 36.0084 50.9253C35.9449 50.8806 35.8915 50.8242 35.8516 50.7595C35.8117 50.6948 35.786 50.6231 35.776 50.5488C35.776 50.5488 35.6647 49.9926 36.0673 49.6828C36.3586 49.4597 36.7922 49.1963 37.4288 48.7981C36.9794 48.6976 36.549 48.5325 36.1524 48.3086C35.8564 48.1338 35.6165 47.8858 35.4585 47.5913C35.2907 47.2767 35.2038 46.929 35.2049 46.5765C35.2116 46.0499 35.3912 45.5382 35.7187 45.1125C36.0346 44.6865 36.6155 44.2852 37.3551 44.0172C38.0123 43.7856 38.7093 43.6721 39.4105 43.6825C40.2193 43.6757 41.0082 43.9206 41.6556 44.3797C42.8011 44.3797 43.292 44.3642 43.909 44.3487C43.9106 44.3518 44.0726 44.3782 43.9826 44.5067ZM39.4236 51.4613C38.5628 51.4613 38.2404 51.4706 38.0212 51.4907C37.8819 51.5085 37.7472 51.5499 37.6235 51.6131C37.3485 51.7134 37.1063 51.8807 36.9215 52.098C36.8372 52.1852 36.7721 52.2874 36.73 52.3986C36.6114 52.66 36.5496 52.9414 36.5484 53.2259C36.5492 53.4797 36.6135 53.7296 36.7361 53.9553C36.8587 54.181 37.0361 54.3759 37.2537 54.5241C37.725 54.8789 38.1553 55.0555 38.9817 55.0555C39.5569 55.0629 40.1274 54.9574 40.6574 54.7457C41.1176 54.573 41.5154 54.2782 41.8029 53.8967C42.0456 53.581 42.1804 53.2026 42.1891 52.8122C42.1899 52.5672 42.1341 52.3251 42.0255 52.1027C41.9408 51.953 41.8224 51.8229 41.6785 51.7216C41.5084 51.615 41.3194 51.5384 41.1205 51.4954C40.9765 51.4768 40.4109 51.4654 39.4236 51.4613ZM36.8413 46.1334C36.8416 46.5103 36.9235 46.883 37.0819 47.2288C37.2233 47.5601 37.4719 47.8404 37.7921 48.0297C38.1153 48.2122 38.486 48.3055 38.8623 48.2993C39.3631 48.3058 39.8514 48.1506 40.2467 47.8593C40.646 47.5649 40.8462 47.0929 40.8472 46.4433C40.8472 45.7751 40.6471 45.2447 40.2467 44.8522C40.0625 44.6631 39.8384 44.5127 39.5889 44.4107C39.3395 44.3088 39.0702 44.2576 38.7985 44.2604C38.5394 44.2489 38.2805 44.2861 38.0367 44.3699C37.7929 44.4537 37.569 44.5823 37.3781 44.7484C37.0202 45.0738 36.8413 45.5354 36.8413 46.1334Z" fill="#1F3C6B"/>
<path d="M52.4461 50.9377H48.8198C49.1308 50.8463 49.6266 50.5798 49.7051 50.1476C49.758 49.6633 49.7815 49.1766 49.7755 48.6898V46.8431C49.7953 46.4051 49.7479 45.9668 49.6348 45.5417C49.5246 45.2551 49.3255 45.0067 49.0637 44.8291C48.729 44.6077 48.3258 44.4986 47.9182 44.5192C47.6437 44.5146 47.3706 44.556 47.1114 44.6416C46.8705 44.7262 46.6485 44.8528 46.4569 45.015C46.2666 45.1738 46.0978 45.3544 45.9545 45.5525C45.8857 45.6556 45.8405 45.7712 45.8219 45.8918C45.7929 46.1283 45.7819 46.3665 45.7892 46.6045V47.5154C45.8121 48.8581 45.8258 49.5857 45.8301 49.6983C45.8396 49.8563 45.8704 50.0125 45.9218 50.1631C46.0756 50.6542 47.118 50.9377 47.118 50.9377H43.2397C43.8942 50.8463 44.1479 50.6108 44.2215 50.239C44.2952 49.8672 44.3083 49.7417 44.3083 49.7417C44.3083 49.6735 44.3273 48.9278 44.3655 47.5046V43.4766C44.3655 42.609 44.3524 42.595 44.3246 41.6701C44.3017 41.0504 44.2723 40.6988 44.233 40.626C44.2056 40.5747 44.158 40.5358 44.1004 40.5175C44.0186 40.4814 43.6368 40.4633 42.9549 40.4633C43.8697 40.2851 45.5388 39.4578 45.5388 39.4578C45.5897 39.4324 45.6452 39.4166 45.7025 39.4113C45.7192 39.4103 45.736 39.4129 45.7515 39.4188C45.7671 39.4247 45.7811 39.4338 45.7925 39.4454C45.8161 39.4729 45.8278 39.5077 45.8252 39.543C45.8237 39.5949 45.8188 39.6467 45.8105 39.698V39.9551C45.7843 40.8847 45.769 41.6769 45.7647 42.3317L45.7467 43.5494V44.9437C45.7467 44.9437 46.3685 44.0529 47.2751 43.7043C47.4277 43.6439 47.584 43.5922 47.7431 43.5494C48.0141 43.4723 48.2947 43.4296 48.5777 43.4223C49.0778 43.4214 49.5703 43.538 50.0111 43.7616C50.4138 43.9427 50.7439 44.2421 50.9521 44.6153C51.1266 44.9582 51.2145 45.4648 51.2156 46.1351V47.5123L51.2352 48.5875C51.2494 49.2589 51.2565 49.6353 51.2565 49.7169C51.2551 49.9034 51.2889 50.0886 51.3563 50.2638C51.4741 50.6542 52.4461 50.9377 52.4461 50.9377Z" fill="#1F3C6B"/>
<path d="M51.4087 44.5702C51.4087 44.5702 52.2383 44.4695 52.5116 44.0559C52.6163 43.901 52.6261 43.4749 52.6114 42.7778C52.5896 42.316 52.4844 41.8612 52.3005 41.433C52.8746 41.2441 53.4237 40.993 53.9369 40.6847C53.9369 40.6847 54.1578 40.5531 54.1349 40.8397C54.0744 41.2704 54.0089 42.6104 53.9369 44.0807C53.9369 44.0807 55.4768 44.2201 56.1313 43.9645C56.1313 43.9645 56.2835 43.8839 56.2753 44.0203C56.2753 44.0203 56.2884 44.076 56.1379 44.4494C56.0858 44.6022 56.0121 44.7476 55.9186 44.8816C55.5733 44.8816 55.4375 44.8816 55.1479 44.8816C54.8582 44.8816 54.4524 44.8816 53.9369 44.8816L53.8976 47.9151C53.8737 48.3797 53.8792 48.8453 53.914 49.3094C53.937 49.4492 53.9899 49.5831 54.0695 49.7029C54.1452 49.8136 54.2479 49.9055 54.3689 49.9709C54.5665 50.0587 54.7796 50.1112 54.9973 50.1258C55.1794 50.1281 55.3615 50.1188 55.5422 50.0979C55.7209 50.0616 55.8973 50.0161 56.0708 49.9616C56.0926 49.9514 56.1176 49.949 56.1411 49.955C56.1646 49.961 56.185 49.9749 56.1984 49.9941C56.2524 50.0639 56.169 50.2668 56.169 50.2668C55.995 50.5364 55.7322 50.7443 55.4211 50.8586C55.2326 50.9267 55.0366 50.975 54.8369 51.0027C54.6302 51.0278 54.4219 51.0397 54.2135 51.0383C53.9776 51.0458 53.7421 51.0138 53.518 50.9438C53.3463 50.8822 53.1865 50.7943 53.0451 50.6836C52.8981 50.5658 52.7774 50.4215 52.69 50.2591C52.5745 50.0021 52.5123 49.7265 52.5067 49.4473C52.5067 49.094 52.523 48.7083 52.5394 48.2869C52.5394 48.2032 52.5476 48.1134 52.5476 48.0142V44.9157H52.2105C51.9356 44.9157 51.749 44.9297 51.4087 44.956C51.3641 44.9434 51.325 44.9176 51.2972 44.8822C51.2694 44.8469 51.2543 44.8041 51.2543 44.76C51.2543 44.716 51.2694 44.6731 51.2972 44.6378C51.325 44.6025 51.3641 44.5766 51.4087 44.564V44.5702Z" fill="#1F3C6B"/>
<path d="M73.6295 44.5702C73.6295 44.5702 74.4592 44.4695 74.7324 44.0559C74.8372 43.901 74.847 43.4749 74.8323 42.7778C74.8104 42.316 74.7053 41.8612 74.5213 41.433C75.0954 41.2441 75.6445 40.993 76.1578 40.6847C76.1578 40.6847 76.3787 40.5531 76.3558 40.8397C76.2952 41.2704 76.2298 42.6104 76.1578 44.0807C76.1578 44.0807 77.5029 44.2201 78.1574 43.9645C78.1574 43.9645 78.3096 43.8839 78.3015 44.0203C78.3015 44.0203 78.3145 44.076 78.164 44.4494C78.1128 44.6023 78.0395 44.7477 77.9463 44.8816C77.5994 44.8816 77.6583 44.8816 77.3687 44.8816C77.079 44.8816 76.6732 44.8816 76.1578 44.8816L76.1185 47.9151C76.0946 48.3797 76.1 48.8453 76.1348 49.3094C76.1578 49.4492 76.2107 49.5831 76.2903 49.7029C76.366 49.8136 76.4687 49.9055 76.5898 49.9709C76.7874 50.0587 77.0004 50.1112 77.2181 50.1258C77.4002 50.1281 77.5823 50.1188 77.7631 50.0979C77.9417 50.0616 78.1182 50.0161 78.2916 49.9616C78.3134 49.9514 78.3385 49.949 78.362 49.955C78.3855 49.961 78.4058 49.9749 78.4193 49.9941C78.4733 50.0639 78.3898 50.2668 78.3898 50.2668C78.2158 50.5364 77.953 50.7443 77.642 50.8586C77.4534 50.9267 77.2575 50.975 77.0578 51.0027C76.851 51.0278 76.6427 51.0397 76.4343 51.0383C76.1984 51.0458 75.963 51.0138 75.7388 50.9438C75.5672 50.8822 75.4074 50.7943 75.2659 50.6836C75.119 50.5658 74.9983 50.4215 74.9108 50.2591C74.7953 50.0021 74.7331 49.7265 74.7275 49.4473C74.7275 49.094 74.7439 48.7083 74.7603 48.2869C74.7603 48.2032 74.7684 48.1134 74.7684 48.0142V44.9157H74.4313C74.1564 44.9157 73.9699 44.9297 73.6295 44.956C73.5849 44.9434 73.5458 44.9176 73.518 44.8822C73.4902 44.8469 73.4752 44.8041 73.4752 44.76C73.4752 44.716 73.4902 44.6731 73.518 44.6378C73.5458 44.6025 73.5849 44.5766 73.6295 44.564V44.5702Z" fill="#1F3C6B"/>
<path d="M78.3538 44.5702C78.3538 44.5702 79.1835 44.4695 79.4567 44.0559C79.5615 43.901 79.5713 43.4749 79.5566 42.7778C79.5347 42.316 79.4296 41.8612 79.2456 41.433C79.8197 41.2441 80.3689 40.993 80.8821 40.6847C80.8821 40.6847 81.103 40.5531 81.0801 40.8397C81.0195 41.2704 80.9541 42.6104 80.8821 44.0807C80.8821 44.0807 82.4219 44.2201 83.0765 43.9645C83.0765 43.9645 83.2287 43.8839 83.2205 44.0203C83.2205 44.0203 83.2336 44.076 83.083 44.4494C83.031 44.6022 82.9572 44.7476 82.8638 44.8816C82.5185 44.8816 82.3826 44.8816 82.093 44.8816C81.8034 44.8816 81.3975 44.8816 80.8821 44.8816L80.8428 47.9151C80.8189 48.3797 80.8243 48.8453 80.8592 49.3094C80.8821 49.4492 80.935 49.5831 81.0146 49.7029C81.0903 49.8136 81.193 49.9055 81.3141 49.9709C81.5117 50.0587 81.7247 50.1112 81.9425 50.1258C82.1246 50.1281 82.3066 50.1188 82.4874 50.0979C82.6661 50.0616 82.8425 50.0161 83.0159 49.9616C83.0377 49.9514 83.0628 49.949 83.0863 49.955C83.1098 49.961 83.1302 49.9749 83.1436 49.9941C83.1976 50.0639 83.1141 50.2668 83.1141 50.2668C82.9401 50.5364 82.6774 50.7443 82.3663 50.8586C82.1777 50.9267 81.9818 50.975 81.7821 51.0027C81.5753 51.0278 81.367 51.0397 81.1586 51.0383C80.9227 51.0458 80.6873 51.0138 80.4631 50.9438C80.2915 50.8822 80.1317 50.7943 79.9902 50.6836C79.8433 50.5658 79.7226 50.4215 79.6351 50.2591C79.522 50.0032 79.4614 49.7293 79.4567 49.4519C79.4567 49.0987 79.4731 48.7129 79.4895 48.2915C79.4895 48.2079 79.4977 48.118 79.4977 48.0189V44.9204H79.1606C78.8856 44.9204 78.6991 44.9343 78.3587 44.9607C78.3141 44.9481 78.275 44.9222 78.2472 44.8869C78.2194 44.8516 78.2044 44.8087 78.2044 44.7647C78.2044 44.7206 78.2194 44.6778 78.2472 44.6425C78.275 44.6071 78.3141 44.5813 78.3587 44.5687L78.3538 44.5702Z" fill="#1F3C6B"/>
<path d="M63.2972 38.646C64.0076 38.6415 64.7165 38.7059 65.4131 38.8381C65.4131 38.8381 67.7466 39.2796 68.0019 41.3494C68.2572 43.4192 67.0397 45.6222 64.5654 46.0978C62.3121 46.5301 61.3286 45.2148 61.3286 45.2148C61.3286 45.2148 61.3286 44.939 61.6199 45.049C61.9111 45.159 63.3986 45.4905 64.333 45.1048C65.2674 44.719 66.228 43.8654 66.1691 41.9846C66.1102 40.1038 64.4247 39.3059 62.5575 39.4454C61.9889 39.488 61.4272 39.592 60.8835 39.7552C60.8344 40.3052 60.8033 40.8877 60.8033 42.0605V49.2459C60.8033 49.9523 60.8115 50.6402 60.8278 51.3095C60.83 51.6041 60.9166 51.8927 61.0782 52.1445C61.3139 52.4745 62.4184 52.9548 62.4184 52.9548H57.3832C57.501 52.9362 58.6121 52.49 58.8036 52.0888C58.9015 51.889 58.9645 51.6755 58.9902 51.4567C58.9967 51.3534 59.0103 50.6165 59.0311 49.2459V42.3827C59.0311 41.6773 59.0229 40.9869 59.0065 40.3114C58.9902 39.8187 58.9492 39.7568 58.8871 39.6654C58.8871 39.6654 58.7054 39.1603 57.393 38.646C57.4192 38.6708 63.2972 38.646 63.2972 38.646Z" fill="#1F3C6B"/>
<path d="M74.2415 50.9301H71.3762C71.5382 50.8421 71.6583 50.6984 71.7116 50.5289C71.7626 50.2087 71.7921 49.8858 71.8 49.5621C70.8083 50.5614 70.4385 50.7179 69.9427 50.9394C69.6383 51.0742 69.1523 51.0943 68.8348 51.0943C68.5532 51.106 68.2719 51.0649 68.0071 50.9735C67.7423 50.882 67.4992 50.742 67.2917 50.5614C67.1049 50.3884 66.9588 50.18 66.863 49.9499C66.7671 49.7197 66.7236 49.4731 66.7353 49.2259C66.731 48.8896 66.7972 48.5557 66.93 48.2437C67.0348 47.9822 67.1926 47.7427 67.3948 47.5388C67.5524 47.3796 67.7392 47.2489 67.9462 47.1531C68.4474 46.9572 68.9668 46.8057 69.4976 46.7007C70.2576 46.5417 71.0262 46.4223 71.8 46.3428C71.824 45.9724 71.7591 45.6016 71.6102 45.2583C71.4862 44.9615 71.2499 44.7191 70.9474 44.5782C69.2472 43.8516 68.0297 45.0972 67.9021 45.2521C67.7744 45.4071 67.6811 45.4442 67.6075 45.4071C67.5339 45.3699 67.6271 45.1995 67.6271 45.1995C68.1181 43.8284 69.3028 43.5991 69.3028 43.5991C69.6728 43.4862 70.0596 43.4307 70.4483 43.4349C70.9973 43.4185 71.5417 43.5342 72.0307 43.7711C72.4496 43.9848 72.7847 44.3205 72.9864 44.7285C73.1459 45.1074 73.219 45.5139 73.2008 45.9214L73.1598 47.3467V49.6706C73.1632 49.8514 73.1851 50.0314 73.2253 50.2082C73.3071 50.6822 74.2415 50.9301 74.2415 50.9301ZM71.8 46.8184C71.1276 46.9141 70.4607 47.0419 69.8019 47.2011C69.4223 47.288 69.061 47.4352 68.7333 47.6364C68.5927 47.7429 68.4806 47.8793 68.4061 48.0346C68.2625 48.3022 68.1895 48.5989 68.1933 48.8991C68.1827 49.0628 68.207 49.227 68.2649 49.3817C68.3228 49.5363 68.4132 49.6783 68.5304 49.7992C68.6551 49.9109 68.8026 49.9973 68.9639 50.053C69.1251 50.1087 69.2967 50.1325 69.4681 50.123C69.854 50.1184 70.2313 50.0145 70.5596 49.8224C70.918 49.6225 71.4514 49.3235 71.8082 48.9223L71.8 46.8184Z" fill="#1F3C6B"/>
<path d="M55.4015 46.6511C55.4015 46.6511 55.5651 46.3923 56.0135 46.4961C56.3637 46.5829 56.6255 46.744 56.8104 46.7161C56.9766 46.662 57.1265 46.5705 57.2474 46.4497C57.2965 46.4125 57.393 46.3939 57.3832 46.4868L57.2015 47.3033C56.853 47.6813 56.2295 47.2754 55.8711 47.2584C55.4375 47.2367 55.2853 47.3962 55.2853 47.3962C55.2853 47.3962 55.1757 47.4644 55.1544 47.3684C55.2207 47.1246 55.3032 46.885 55.4015 46.6511Z" fill="#1F3C6B"/>
<path d="M30.8864 38.0139C29.3694 38.4508 29.0864 39.2069 29.0864 39.2069L22.4867 53.415L18.0258 41.9847L13.0381 53.4692L7.69517 39.8699C7.59104 39.5372 7.41866 39.2271 7.18788 38.9574C6.74442 38.3858 5 38 5 38H11.2904C10.8814 38.0634 10.4912 38.2075 10.1449 38.4229C9.43468 38.7452 9.8176 39.5183 9.8176 39.5183L13.7614 49.3993L18.5511 38.0806L23.0905 49.4938L27.5809 39.5787C27.5809 39.5787 27.8329 38.959 27.2699 38.6398C26.707 38.3207 25.987 38.0201 25.987 38.0201L30.8864 38.0139Z" fill="#1F3C6B"/>
</g>
<defs>
<clipPath id="clip0_1_7766">
<rect width="86" height="21" fill="white" transform="translate(5 38)"/>
</clipPath>
</defs>
</svg>
