<svg width="96" height="96" viewBox="0 0 96 96" fill="none" xmlns="http://www.w3.org/2000/svg">
<circle cx="48" cy="48" r="47" fill="white" stroke="white" stroke-width="2"/>
<g clip-path="url(#clip0_1_3971)">
<path d="M42.4287 49.6572H40.0182V39.6435H42.4287V49.6572ZM42.5197 36H39.9045V38.3741H42.5197V36ZM17.5056 36.4466H17.0735L13.3442 44.6503L9.61479 36.4466H7.0679V49.6572H9.47835V41.712L13.2077 49.6572H13.5033L17.21 41.712V49.6572H19.6204V36.4466H17.5056ZM35.9705 39.9021C35.5612 40.1136 35.1746 40.4897 34.879 40.8423V39.6435H32.4685V49.6572H34.879V45.3555C34.879 43.8746 35.2201 43.24 35.925 42.6288C36.6072 41.9941 38.199 42.0646 38.199 42.0646V39.5495C38.199 39.5495 36.8574 39.4554 35.9705 39.9021ZM55.2541 39.9021C54.8448 40.1136 54.4582 40.4897 54.1626 40.8423V39.6435H51.7521V49.6572H54.1626V45.3555C54.1626 43.8746 54.5037 43.24 55.2086 42.6288C55.8908 41.9941 57.4826 42.0646 57.4826 42.0646V39.5495C57.4826 39.5495 56.1409 39.4554 55.2541 39.9021ZM47.5679 41.7826H50.0921V39.62H47.5679V36.3526H45.1575V46.7189C45.1575 49.8453 47.5907 49.6572 48.3411 49.6572C49.0915 49.6572 49.6373 49.5632 49.6373 49.5632V47.3536C49.6373 47.3536 48.614 47.5181 48.091 47.3536C47.6362 47.2125 47.5907 46.6954 47.5907 46.5779V41.7826H47.5679ZM80.7457 41.7826H83.2698V39.62H80.7457V36.3526H78.3352V46.7189C78.3352 49.8453 80.7684 49.6572 81.5189 49.6572C82.2693 49.6572 82.815 49.5632 82.815 49.5632V47.3536C82.815 47.3536 81.7917 47.5181 81.2687 47.3536C80.8139 47.2125 80.7684 46.6954 80.7684 46.5779V41.7826H80.7457ZM26.6244 47.7532H26.4197C25.1008 47.7532 24.032 46.6954 23.941 45.3555H30.8995L30.9222 44.8149C30.945 44.1802 30.8995 43.5455 30.7403 42.9344C30.1718 40.7953 28.5573 39.4789 26.397 39.4319H26.2378C23.5544 39.4319 21.5988 41.571 21.4851 44.3448V44.8854C21.4851 47.6592 23.6454 49.8923 26.3287 49.8923H26.5561C28.1025 49.8923 29.5806 49.1166 30.4902 47.9177L29.0348 46.5779C28.3071 47.2831 27.534 47.7532 26.6244 47.7532ZM26.0786 41.524H26.4197C27.5112 41.524 28.4436 42.4172 28.5118 43.428H23.941C24.1002 42.3467 25.0098 41.524 26.0786 41.524ZM65.3279 39.6435V44.9794C65.2825 46.6719 64.3501 47.5651 63.2358 47.5416C62.2125 47.4946 61.4394 46.8599 61.4394 45.2145V39.6435H59.0289V46.1783C59.0289 48.1763 60.598 49.7747 62.5082 49.7747H63.0539C63.8726 49.7747 64.6912 49.4456 65.3279 48.905V49.6337H67.7384V39.6435H65.3279ZM75.7429 44.4623C75.4018 44.2272 75.4018 44.1332 73.9237 43.6396C73.7418 43.5691 73.0596 43.334 72.8322 43.2635C72.3773 43.0989 71.8771 42.8404 71.8543 42.4172C71.7861 41.7356 72.4228 41.524 73.0141 41.5005C73.7645 41.5005 74.9925 41.9236 75.7429 42.4878L76.7434 40.6543C75.7429 39.9021 74.2648 39.4319 73.2187 39.4319H73.1278C71.3086 39.4319 69.6485 40.3957 69.5803 42.5583V42.7933C69.6485 44.1332 70.6036 44.8854 71.6952 45.285C72.7867 45.6846 72.2409 45.4731 73.0141 45.7316C73.1732 45.7786 73.3324 45.8492 73.5144 45.8962C74.0146 46.0607 74.6286 46.3193 74.6286 46.7894C74.6286 47.5181 74.0374 47.7532 73.4007 47.7767H73.2642C72.3546 47.8237 71.0129 47.236 70.1943 46.5073L69.08 48.2703C70.1261 49.2106 71.8316 49.8453 72.9913 49.8217H73.4689C75.5382 49.7747 76.8571 48.4819 76.8571 46.7424V46.4368C76.8571 45.4731 76.2886 44.8149 75.7429 44.4623ZM45.635 53.9589H46.6356V59.9295H45.635V53.9589ZM41.4736 53.9589H39.1541V59.9295H41.4736C43.0654 59.9295 44.3616 58.5896 44.3616 56.9442C44.3616 55.2987 43.0654 53.9589 41.4736 53.9589ZM43.2928 56.9912C43.2928 58.0725 42.4287 58.9657 41.3827 58.9657H40.1547V54.8991H41.3827C42.4287 54.8991 43.2928 55.7924 43.2928 56.8737V56.9912ZM52.4343 53.9589H47.7726V54.8991H49.5918V59.906H50.6151V54.8991H52.4343V53.9589ZM34.6516 58.9657V57.3673H37.5396V56.427H34.6516V54.8991H37.9034V53.9589H33.651V59.906H37.9489V58.9657H34.6516ZM31.0132 57.6494C31.9 57.3203 32.3776 56.7796 32.3776 55.8629C32.4685 54.7816 31.5362 53.9354 30.5129 53.9354H27.6931V59.906H28.6937V57.8139H29.9444L31.377 59.906H32.5822L31.0132 57.6494ZM28.6937 56.8737V54.8991H30.3992C31.0814 55.0167 31.3543 55.3457 31.3543 55.8864C31.3543 56.427 30.9222 56.8737 30.3992 56.8737H28.6937ZM24.3731 59.0362C23.3043 59.0833 22.4629 58.0725 22.4629 57.0617V56.8031C22.4629 55.7218 23.327 54.8286 24.3731 54.8286C24.9416 54.8286 25.5328 55.1342 25.9422 55.5808L26.6016 54.8051C26.1013 54.2409 25.3964 53.9119 24.555 53.8648H24.3049C22.6903 53.8648 21.3941 55.2047 21.3941 56.8737V57.0147C21.3941 58.6601 22.6903 60 24.2821 60H24.4413C25.3282 60 26.1241 59.6004 26.6471 58.9422L26.0104 58.2605C25.5556 58.7307 24.9643 59.0362 24.3731 59.0362ZM68.7617 53.9589H69.7622V59.9295H68.7617V53.9589ZM59.8021 53.9589V57.3908C59.7794 58.4016 59.3018 59.0127 58.3467 59.0362C57.3917 59.0362 56.9141 58.4016 56.8914 57.3908V53.9589H55.8908V57.5553C55.9136 59.0127 56.8232 60 58.2558 60H58.4377C59.8931 60 60.8027 59.0127 60.8027 57.5553V53.9589H59.8021ZM83.3153 53.9589H82.292V58.049L79.1994 53.9589H78.267V59.906H79.2903V55.6748L82.4739 59.906H83.3153V53.9589ZM67.2154 53.9589H66.2148V58.049L63.1221 53.9589H62.1898V59.906H63.1904V55.6748L66.3967 59.906H67.2154V53.9589ZM74.1283 53.8413H73.9464C72.3319 53.8413 71.0357 55.2047 71.0357 56.8501V56.9442C71.0357 58.6131 72.3546 59.953 73.9464 59.953H74.1283C75.7429 59.953 77.0391 58.5896 77.0391 56.9442V56.8501C77.0618 55.2047 75.7429 53.8413 74.1283 53.8413ZM75.9703 57.0382C75.9703 58.143 75.1062 59.0362 74.0374 59.0362C72.9686 59.0362 72.1045 58.143 72.1045 57.0382V56.8031C72.1045 55.6983 72.9686 54.8051 74.0374 54.8051C75.1062 54.8051 75.9703 55.6983 75.9703 56.8031V57.0382ZM88.5455 57.7199L87.9088 58.7307L87.2721 57.7199H86.8855V59.906H87.2494V58.3781L87.9088 59.3653L88.5683 58.3781V59.906H88.9321V57.7199H88.5455ZM85.0663 59.3183L84.8389 59.5769C84.8389 59.5769 85.18 59.9295 85.7258 59.9295C86.2715 59.9295 86.4762 59.6239 86.4762 59.2713C86.4762 58.9187 86.2943 58.7542 85.7712 58.6366C85.2482 58.5191 85.2937 58.3781 85.2937 58.3075C85.2937 58.237 85.3392 58.049 85.6348 58.049C85.9304 58.049 86.2033 58.2605 86.2033 58.2605L86.408 57.9785C86.408 57.9785 86.1351 57.6964 85.6575 57.6964C85.18 57.6964 84.9299 58.0255 84.9299 58.331C84.9299 58.6366 85.1118 58.8247 85.4301 58.9187C85.7485 59.0127 86.1123 59.0597 86.0896 59.2948C86.0669 59.5299 85.9077 59.5769 85.703 59.5769C85.4984 59.6004 85.2255 59.4829 85.0663 59.3183Z" fill="#E41D38"/>
</g>
<defs>
<clipPath id="clip0_1_3971">
<rect width="84" height="24" fill="white" transform="translate(6 36)"/>
</clipPath>
</defs>
</svg>
