<svg width="96" height="96" viewBox="0 0 96 96" fill="none" xmlns="http://www.w3.org/2000/svg">
<circle cx="48" cy="48" r="47" fill="white" stroke="white" stroke-width="2"/>
<path d="M60.011 55.2869C60.0073 55.2906 60.0033 55.2906 60.0033 55.2947C57.1732 57.3312 53.8229 59.4708 50.2175 61.7167L50.0753 61.8005C50.0531 61.8176 50.0384 61.8428 50.0341 61.8708C50.0298 61.8988 50.0364 61.9273 50.0524 61.9505C50.0684 61.9736 50.0925 61.9896 50.1199 61.995C50.1472 62.0004 50.1755 61.9949 50.1989 61.9795L50.3184 61.9147C53.3771 60.2933 56.8889 58.3665 60.4229 56.3908C60.4415 56.3797 60.4601 56.3682 60.479 56.3604C60.278 56.0246 60.1209 55.6638 60.011 55.2869ZM78.5796 40.0022C74.1204 34.9999 45.4255 39.4996 33.225 42.2104L32.9407 42.2712C32.9269 42.2735 32.9136 42.2787 32.9018 42.2863C32.8899 42.2939 32.8796 42.3039 32.8716 42.3156C32.8635 42.3273 32.8579 42.3405 32.8549 42.3544C32.852 42.3684 32.8518 42.3828 32.8543 42.3968C32.8656 42.4576 32.9218 42.4958 32.9779 42.4843L33.2586 42.4272C43.3667 40.5964 64.3907 38.0606 68.9129 42.6215C70.2944 44.0149 69.9649 45.8038 68.3625 47.9207C69.2235 48.4842 69.8374 49.3709 70.1147 50.4788C76.3663 46.2608 80.563 42.2293 78.5789 40.0022H78.5796Z" fill="#D03027"/>
<path d="M61.8153 53.9736C61.8718 55.7325 62.9683 57.1752 64.3946 57.1752C67.1613 57.1752 68.3405 53.7186 68.2578 51.4115C68.198 49.6489 67.0753 48.2099 65.6489 48.2099C63.2716 48.2062 61.7329 51.6476 61.8153 53.9736ZM60.3554 53.8784C60.2541 50.8747 62.5677 47.8025 65.9293 47.8025C68.1758 47.8025 69.647 49.3253 69.7294 51.6591C69.838 54.8262 67.6742 57.7349 64.1588 57.7349C61.9053 57.7349 60.4338 56.2159 60.3554 53.8784ZM28.5171 53.0866C28.3975 53.1322 28.2437 53.1778 28.049 53.2197C27.858 53.2656 27.5063 53.3264 26.997 53.4102C26.6449 53.4673 26.4018 53.5396 26.2633 53.6422C26.1324 53.7412 26.054 53.8594 26.0311 54.0077C26.0052 54.1638 26.0537 54.2857 26.1849 54.3847C26.3194 54.48 26.544 54.5293 26.8625 54.5293C27.1017 54.5293 27.3342 54.4914 27.5587 54.4151C27.787 54.3391 27.9816 54.2361 28.1278 54.1067C28.2364 54.0118 28.3148 53.8898 28.3746 53.7412C28.4121 53.6422 28.4609 53.4254 28.5171 53.0866ZM31.4369 51.2402C31.4259 51.5142 31.3771 51.758 31.306 52.1806L30.8117 55.0012C30.7705 55.2528 30.8606 55.447 31.0888 55.5839L31.0738 55.6943L28.2437 55.6906L28.2175 54.9745C27.7917 55.2304 27.335 55.4289 26.8589 55.5649C26.4094 55.6832 26.0464 55.7325 25.5036 55.7325C24.5901 55.7325 24.0659 55.6372 23.7029 55.3136C23.3358 54.9826 23.1561 54.7617 23.1747 54.3046C23.19 54.0422 23.3245 53.7034 23.5155 53.4673C23.7102 53.2274 23.9799 53.0714 24.2679 52.9302C24.5602 52.7897 24.9043 52.687 25.4023 52.6069C25.9039 52.5231 26.6004 52.4431 27.5325 52.3634C28.0228 52.3215 28.3224 52.2073 28.4609 52.1502C28.6556 52.0739 28.734 51.9864 28.7602 51.8266C28.8127 51.5371 28.723 51.3696 28.341 51.2936C27.3229 51.0879 25.4099 51.4267 24.4253 51.6743L24.9605 50.2049C26.2593 50.0107 27.4764 49.8887 28.7606 49.8887C30.8081 49.8887 31.4595 50.4788 31.4369 51.2402ZM39.6433 55.6906L40.6239 50.0525H43.3344L42.3535 55.6903L39.6433 55.6906ZM40.7737 48.7467C40.856 48.2822 41.5749 47.9089 42.3757 47.9089C43.1806 47.9089 43.7686 48.2859 43.6898 48.7467C43.6035 49.2111 42.8886 49.5877 42.0801 49.5877C41.2789 49.5877 40.6949 49.2111 40.7737 48.7467ZM52.9578 53.0981C52.8343 53.1399 52.6772 53.1855 52.4862 53.2311C52.2952 53.2767 51.9434 53.3342 51.4342 53.4176C51.086 53.475 50.8389 53.5473 50.7044 53.65C50.5732 53.7453 50.4984 53.8669 50.4685 54.0114C50.4386 54.1678 50.4948 54.2935 50.622 54.3884C50.7605 54.4837 50.9851 54.5293 51.303 54.5293C51.5388 54.5293 51.7713 54.4952 51.9995 54.4229C52.2317 54.3428 52.4227 54.2438 52.5722 54.1145C52.6772 54.0192 52.7559 53.8936 52.812 53.749C52.8492 53.6537 52.8977 53.4369 52.9578 53.0981ZM55.8777 51.248C55.8667 51.5256 55.8179 51.7695 55.7431 52.1881L55.2528 55.013C55.2117 55.2603 55.3013 55.4582 55.5299 55.5953L55.5149 55.6943L52.6848 55.698L52.6622 54.9785C52.2376 55.2369 51.7804 55.4354 51.3033 55.5687C50.8539 55.6903 50.4908 55.7399 49.9407 55.7399C49.0272 55.7399 48.5067 55.6487 48.1436 55.3211C47.7729 54.9863 47.5972 54.7691 47.6155 54.3124C47.6271 54.0459 47.7616 53.7071 47.9563 53.4747C48.1513 53.2315 48.4207 53.0788 48.7127 52.9379C49.0046 52.7971 49.3491 52.6947 49.8434 52.6106C50.345 52.5309 51.0449 52.4471 51.9769 52.3671C52.4639 52.3252 52.7632 52.2151 52.9017 52.1577C53.1 52.0816 53.1751 51.9938 53.205 51.83C53.2538 51.5449 53.1675 51.3774 52.7894 51.2973C51.7637 51.0916 49.8583 51.4307 48.8738 51.678L49.4052 50.2086C50.708 50.0144 51.9208 49.8924 53.205 49.8924C55.2452 49.8965 55.8963 50.4903 55.8777 51.248ZM22.808 53.6652C21.9244 53.8442 21.4305 53.9128 20.5582 53.9128C19.2627 53.9128 18.2333 53.2578 18.2894 52.0587C18.3306 51.2591 19.259 49.5766 21.6211 49.5766C22.3662 49.5766 22.9465 49.7097 23.7288 50.163L24.0732 48.2062C23.0103 47.7988 22.3061 47.738 21.3926 47.7454C18.2934 47.7799 15.3208 49.2114 14.95 52.1232C14.5757 55.0812 18.1286 55.8237 19.7045 55.8163C20.6143 55.8122 21.5613 55.7744 22.4449 55.6828L22.808 53.6652ZM44.8279 50.0221L45.0225 48.8723L47.8566 48.244L47.5534 50.0181H48.9419L48.6801 51.1527L47.3325 51.149L46.5127 55.6828C46.5127 55.6828 43.7835 55.6639 43.7722 55.6828L44.5884 51.1602H43.5626L43.7722 50.0184H44.8279V50.0221ZM59.9485 47.9015L58.6307 55.6865L55.8717 55.6903L57.2605 47.8252L59.9485 47.9015ZM36.0568 51.3733C35.7092 51.371 35.3707 51.4863 35.0945 51.701C34.8101 51.9215 34.6304 52.2414 34.5593 52.664C34.473 53.1551 34.5255 53.5091 34.7165 53.726C34.9111 53.9432 35.1881 54.0537 35.5549 54.0537C35.802 54.0537 36.0564 54.0077 36.2438 53.9128C36.476 53.7871 36.6368 53.6574 36.7753 53.4483C36.9251 53.2311 37.0224 52.9876 37.0749 52.7059C37.1536 52.2603 37.0862 51.929 36.8839 51.7084C36.6856 51.4878 36.4122 51.3733 36.0568 51.3733ZM31.1227 57.6359L32.444 50.0829H34.8251L34.6414 51.046C34.8473 50.7568 35.1768 50.5207 35.6336 50.3302C36.094 50.14 36.6105 49.9992 37.1722 49.9992C37.7934 49.9992 38.1754 50.0333 38.6398 50.2772C39.1002 50.5244 39.426 50.8825 39.5981 51.347C39.7775 51.8036 39.8153 52.3215 39.7177 52.8809C39.5569 53.8138 39.1115 54.5445 38.3777 55.0853C37.6516 55.6257 36.9962 55.7666 36.0641 55.7703C35.7346 55.7703 35.4575 55.7362 35.2293 55.6791C35.0048 55.6183 34.8251 55.5457 34.6902 55.4582C34.5593 55.3707 34.4208 55.2451 34.2448 55.0471L33.803 57.6359H31.1227ZM80.3201 52.0664C80.3052 51.6131 80.0803 51.3051 79.6199 51.3051C78.5081 51.3051 77.3252 53.5206 77.1229 54.4114C78.9462 54.4151 80.365 53.3112 80.3201 52.0664ZM80.5593 55.5383L80.7729 55.6869C80.2301 56.8097 79.1259 57.7119 77.8305 57.7119C76.7708 57.7119 75.8989 56.9924 75.854 55.6447C75.7676 53.2274 77.9952 50.9852 79.8182 50.9852C80.6008 50.9852 81.3269 51.3314 81.3568 52.1881C81.4243 54.1108 78.7702 54.6968 77.0219 54.7387C76.9655 54.9404 76.9432 55.1424 76.9545 55.4467C76.9844 56.2425 77.4561 56.9127 78.437 56.9127C79.2831 56.9127 80.1291 56.2196 80.5596 55.5379L80.5593 55.5383Z" fill="#004977"/>
<path d="M69.6883 52.0054C69.8753 51.9787 70.1785 51.9446 70.3094 51.9446C70.5081 51.9446 70.6951 51.9827 70.7064 52.1844C70.7104 52.3026 70.5004 53.1589 70.4556 53.3569L70.0327 55.2529C69.8603 56.0295 69.677 56.8405 69.5122 57.4837H70.5978L71.208 54.48C73.0688 52.508 73.7873 51.8645 74.2254 51.8645C74.4237 51.8645 74.5586 51.9713 74.5699 52.2111C74.5812 52.5573 74.3676 53.3454 74.2965 53.5741L73.6754 55.763C73.5329 56.2541 73.4282 56.6993 73.4395 57.0155C73.4581 57.4951 73.7425 57.7079 74.1693 57.7079C74.9632 57.7079 75.5395 56.8669 76.0411 56.0406L75.8949 55.7704C75.693 56.1014 75.2213 56.8287 74.8506 56.8287C74.7343 56.8287 74.6224 56.749 74.6184 56.551C74.6074 56.296 74.7121 55.9112 74.7871 55.6562L75.4797 53.0904C75.6667 52.3824 75.7528 51.9294 75.7491 51.6858C75.7305 51.2062 75.4568 50.9815 75.034 50.9815C74.3191 50.9815 73.3721 51.5142 71.3618 53.8632H71.3319L71.5863 52.7174C71.7248 52.0892 71.8594 51.4345 71.9869 50.9812C71.2903 51.2366 70.2948 51.522 69.6806 51.6439L69.6883 52.0054Z" fill="#004977"/>
</svg>
