<svg width="96" height="96" viewBox="0 0 96 96" fill="none" xmlns="http://www.w3.org/2000/svg">
<circle cx="48" cy="48" r="47" transform="rotate(180 48 48)" fill="white" stroke="white" stroke-width="2"/>
<path d="M71.7724 49.2431C70.1228 49.3257 68.5192 49.5735 66.9737 49.9778C65.8892 50.2607 64.8256 50.5954 63.808 51.0234C62.3781 51.6231 61.02 52.3585 59.7489 53.2139C58.8677 53.8078 58.0432 54.4764 57.2504 55.1802C56.0079 56.284 54.8847 57.5135 53.8944 58.8529C53.1661 59.8404 52.5047 60.8774 51.933 61.9734C50.4199 64.874 49.4949 68.1223 49.3024 71.5667L49.2636 75.9891H61.6262V73.8655L53.8879 72.422C53.9576 69.5745 54.6499 66.8849 55.8406 64.4755C56.7146 62.7066 57.8457 61.09 59.198 59.6817C59.9672 58.8816 60.8075 58.1534 61.7052 57.4963C62.9548 56.5813 64.31 55.8072 65.7621 55.214C66.774 54.8003 67.829 54.4706 68.9184 54.2344C70.2212 53.9536 71.5699 53.797 72.9553 53.797C73.2131 53.797 73.4637 53.8229 73.718 53.8329C74.5503 53.866 75.3626 53.9715 76.1641 54.108C76.5325 52.6257 76.7824 51.0981 76.9124 49.5361C75.6233 49.3178 74.3061 49.1842 72.9553 49.1842C72.556 49.1842 72.1667 49.2237 71.7724 49.2431ZM47.6046 24.2393C44.337 22.5301 40.8697 21.1606 37.2616 20.1293C35.097 20.9925 33.061 22.1071 31.1902 23.4393C35.2593 24.1769 39.1647 25.3927 42.836 27.0467C44.4742 27.7849 46.0649 28.6065 47.6054 29.51C48.679 30.1391 49.7297 30.8063 50.7502 31.5108C49.6744 32.0911 48.6288 32.7188 47.6054 33.3788C46.5805 32.7188 45.5356 32.0911 44.4598 31.5108C42.9186 30.6806 41.3221 29.9423 39.684 29.2859C35.9359 27.7821 31.9486 26.7558 27.8004 26.2603C26.4445 27.5752 25.2165 29.0195 24.1371 30.5765C28.1358 30.7546 31.9902 31.4928 35.6292 32.708C37.2681 33.2552 38.866 33.8915 40.4086 34.6269C41.4844 35.139 42.5301 35.7006 43.5535 36.2981C42.6938 36.9897 41.8593 37.71 41.0514 38.4584C40.0273 37.8975 38.9737 37.3854 37.8972 36.915C36.3553 36.2421 34.7616 35.6697 33.1235 35.1964C29.6763 34.2003 26.0388 33.6553 22.2756 33.6538C21.4971 35.1397 20.8421 36.6996 20.3265 38.3226C20.9656 38.2874 21.607 38.2652 22.2547 38.2652C24.833 38.2652 27.343 38.5575 29.7632 39.0947C31.4006 39.4581 32.995 39.9364 34.5369 40.5238C35.6155 40.9346 36.6684 41.3985 37.6932 41.9106C39.0994 42.6137 40.4538 43.4073 41.7437 44.2885C42.6098 44.8802 43.4486 45.5079 44.2565 46.1729C43.5736 46.9062 42.92 47.6646 42.2945 48.4481C41.4916 47.7881 40.6549 47.169 39.7881 46.5895C38.499 45.7284 37.1431 44.9599 35.7312 44.2906C34.7049 43.8051 33.6478 43.3778 32.5662 43.0037C31.0243 42.4701 29.4292 42.0535 27.7904 41.7627C25.9921 41.4438 24.1442 41.2678 22.2547 41.2678C21.3391 41.2678 20.4349 41.3145 19.5379 41.3914C19.2341 42.9153 19.0546 44.4831 19 46.0839C20.0679 45.9546 21.1524 45.8806 22.2547 45.8806C23.2235 45.8806 24.1794 45.9352 25.1217 46.0343C26.7612 46.2088 28.3541 46.5327 29.8932 46.9873C30.9783 47.3076 32.034 47.6933 33.0574 48.1421C34.4787 48.7648 35.836 49.5045 37.1165 50.3527C37.9891 50.9294 38.8243 51.5549 39.6222 52.2264C40.8373 53.249 41.962 54.3751 42.9804 55.5939C43.6863 56.4384 44.3377 57.3282 44.9381 58.2554C44.3104 59.4533 43.751 60.6921 43.2777 61.9741C42.706 60.8789 42.0446 59.8418 41.3156 58.8536C40.3253 57.5142 39.2035 56.2847 37.9596 55.1809C37.1668 54.4778 36.3431 53.8085 35.4611 53.2146C34.19 52.3585 32.8319 51.6238 31.4028 51.0242C30.3844 50.5961 29.3201 50.2622 28.2364 49.9785C26.6909 49.5742 25.0879 49.3264 23.4376 49.2438C23.0433 49.2244 22.654 49.1842 22.2547 49.1842C21.1739 49.1842 20.1182 49.2819 19.0761 49.4234C19.1997 50.9796 19.4438 52.5022 19.8029 53.9794C20.3595 53.9076 20.9218 53.8552 21.4913 53.8336C21.7463 53.8236 21.9969 53.7977 22.254 53.7977C23.6394 53.7977 24.9881 53.9543 26.2908 54.2351C27.3803 54.4714 28.4353 54.8017 29.4472 55.2147C30.8993 55.8079 32.256 56.5821 33.5041 57.497C34.4011 58.1549 35.2421 58.8824 36.0113 59.6824C37.365 61.0914 38.4954 62.7073 39.3687 64.4762C40.5587 66.8863 41.2517 69.5773 41.3214 72.4256L33.5975 73.8662V75.9898H45.96V72.9269C45.96 72.9154 45.9622 72.9039 45.9622 72.8924C45.9622 72.8809 45.9608 72.8694 45.96 72.8579V72.4852C46.0067 69.3576 46.5769 66.3542 47.6046 63.5691C48.2984 61.6897 49.1997 59.9122 50.2726 58.2547C50.873 57.3282 51.5244 56.4384 52.2297 55.5939C53.248 54.3751 54.3741 53.249 55.5885 52.2264C56.3857 51.5549 57.2209 50.9294 58.0935 50.3527C59.374 49.5045 60.7313 48.7648 62.1526 48.1421C63.176 47.6933 64.2324 47.3076 65.3168 46.9873C66.8559 46.5327 68.4495 46.2081 70.0891 46.0343C71.0306 45.9352 71.9872 45.8806 72.9553 45.8806C74.3306 45.8806 75.68 45.9862 77 46.1851C76.9504 44.5772 76.7745 43.0015 76.4736 41.4696C75.3173 41.3411 74.1446 41.2678 72.9553 41.2678C71.0665 41.2678 69.2179 41.4438 67.4196 41.7627C65.7808 42.0535 64.1857 42.4693 62.6438 43.0037C61.5615 43.3785 60.5044 43.8051 59.4788 44.2906C58.0662 44.9592 56.711 45.7277 55.4219 46.5895C54.5558 47.169 53.7191 47.7888 52.9155 48.4481C51.7205 49.4298 50.598 50.4949 49.5588 51.6368C48.8701 52.3951 48.2187 53.1858 47.6046 54.0082C46.9906 53.1866 46.3385 52.3951 45.6505 51.6368C46.2696 50.8432 46.9202 50.0762 47.6046 49.3393C48.6517 48.2132 49.7678 47.1525 50.9542 46.1729C51.7614 45.5079 52.6009 44.8802 53.4663 44.2885C54.7562 43.4073 56.1114 42.6137 57.5168 41.9106C58.5424 41.3985 59.5945 40.9346 60.6739 40.5238C62.2151 39.9371 63.8094 39.4581 65.4468 39.0947C67.8663 38.5575 70.377 38.2652 72.9553 38.2652C73.8774 38.2652 74.7873 38.3119 75.6908 38.3822C75.1766 36.7434 74.5151 35.1713 73.7316 33.6718C73.4724 33.6667 73.2167 33.6531 72.9553 33.6531C69.1849 33.6531 65.5402 34.1982 62.0865 35.1964C60.4491 35.669 58.8548 36.2421 57.3136 36.915C56.237 37.3854 55.1828 37.8975 54.1587 38.4584C52.7532 39.229 51.4045 40.0893 50.1096 41.0201C49.2471 41.6398 48.4112 42.2905 47.6039 42.9764C46.7967 42.2905 45.9593 41.6398 45.0982 41.0201C45.9091 40.3105 46.7407 39.6232 47.6039 38.9754C48.8974 38.0059 50.2547 37.1183 51.6566 36.2981C52.6792 35.7006 53.7249 35.139 54.8007 34.6269C56.3433 33.8915 57.9412 33.2545 59.5801 32.708C63.4525 31.4153 67.5697 30.667 71.8436 30.5542C70.744 28.9721 69.4908 27.5063 68.1069 26.1762C63.7067 26.6323 59.4832 27.6973 55.5246 29.2859C54.5019 28.5031 53.4513 27.7569 52.3733 27.0467C56.2299 25.308 60.3442 24.0433 64.6389 23.3208C62.7185 21.9742 60.6286 20.8546 58.4052 20C54.6305 21.0428 51.0088 22.4576 47.6039 24.2401" fill="url(#paint0_linear_1_3379)"/>
<mask id="mask0_1_3379" style="mask-type:luminance" maskUnits="userSpaceOnUse" x="19" y="20" width="58" height="56">
<path d="M71.7724 49.2431C70.1228 49.3257 68.5192 49.5735 66.9737 49.9778C65.8892 50.2607 64.8256 50.5954 63.808 51.0234C62.3781 51.6231 61.02 52.3585 59.7489 53.2139C58.8677 53.8078 58.0432 54.4764 57.2504 55.1802C56.0079 56.284 54.8847 57.5135 53.8944 58.8529C53.1661 59.8404 52.5047 60.8774 51.933 61.9734C50.4199 64.874 49.4949 68.1223 49.3024 71.5667L49.2636 75.9891H61.6262V73.8655L53.8879 72.422C53.9576 69.5745 54.6499 66.8849 55.8406 64.4755C56.7146 62.7066 57.8457 61.09 59.198 59.6817C59.9672 58.8816 60.8075 58.1534 61.7052 57.4963C62.9548 56.5813 64.31 55.8072 65.7621 55.214C66.774 54.8003 67.829 54.4706 68.9184 54.2344C70.2212 53.9536 71.5699 53.797 72.9553 53.797C73.2131 53.797 73.4637 53.8229 73.718 53.8329C74.5503 53.866 75.3626 53.9715 76.1641 54.108C76.5325 52.6257 76.7824 51.0981 76.9124 49.5361C75.6233 49.3178 74.3061 49.1842 72.9553 49.1842C72.556 49.1842 72.1667 49.2237 71.7724 49.2431ZM47.6046 24.2393C44.337 22.5301 40.8697 21.1606 37.2616 20.1293C35.097 20.9925 33.061 22.1071 31.1902 23.4393C35.2593 24.1769 39.1647 25.3927 42.836 27.0467C44.4742 27.7849 46.0649 28.6065 47.6054 29.51C48.679 30.1391 49.7297 30.8063 50.7502 31.5108C49.6744 32.0911 48.6288 32.7188 47.6054 33.3788C46.5805 32.7188 45.5356 32.0911 44.4598 31.5108C42.9186 30.6806 41.3221 29.9423 39.684 29.2859C35.9359 27.7821 31.9486 26.7558 27.8004 26.2603C26.4445 27.5752 25.2165 29.0195 24.1371 30.5765C28.1358 30.7546 31.9902 31.4928 35.6292 32.708C37.2681 33.2552 38.866 33.8915 40.4086 34.6269C41.4844 35.139 42.5301 35.7006 43.5535 36.2981C42.6938 36.9897 41.8593 37.71 41.0514 38.4584C40.0273 37.8975 38.9737 37.3854 37.8972 36.915C36.3553 36.2421 34.7616 35.6697 33.1235 35.1964C29.6763 34.2003 26.0388 33.6553 22.2756 33.6538C21.4971 35.1397 20.8421 36.6996 20.3265 38.3226C20.9656 38.2874 21.607 38.2652 22.2547 38.2652C24.833 38.2652 27.343 38.5575 29.7632 39.0947C31.4006 39.4581 32.995 39.9364 34.5369 40.5238C35.6155 40.9346 36.6684 41.3985 37.6932 41.9106C39.0994 42.6137 40.4538 43.4073 41.7437 44.2885C42.6098 44.8802 43.4486 45.5079 44.2565 46.1729C43.5736 46.9062 42.92 47.6646 42.2945 48.4481C41.4916 47.7881 40.6549 47.169 39.7881 46.5895C38.499 45.7284 37.1431 44.9599 35.7312 44.2906C34.7049 43.8051 33.6478 43.3778 32.5662 43.0037C31.0243 42.4701 29.4292 42.0535 27.7904 41.7627C25.9921 41.4438 24.1442 41.2678 22.2547 41.2678C21.3391 41.2678 20.4349 41.3145 19.5379 41.3914C19.2341 42.9153 19.0546 44.4831 19 46.0839C20.0679 45.9546 21.1524 45.8806 22.2547 45.8806C23.2235 45.8806 24.1794 45.9352 25.1217 46.0343C26.7612 46.2088 28.3541 46.5327 29.8932 46.9873C30.9783 47.3076 32.034 47.6933 33.0574 48.1421C34.4787 48.7648 35.836 49.5045 37.1165 50.3527C37.9891 50.9294 38.8243 51.5549 39.6222 52.2264C40.8373 53.249 41.962 54.3751 42.9804 55.5939C43.6863 56.4384 44.3377 57.3282 44.9381 58.2554C44.3104 59.4533 43.751 60.6921 43.2777 61.9741C42.706 60.8789 42.0446 59.8418 41.3156 58.8536C40.3253 57.5142 39.2035 56.2847 37.9596 55.1809C37.1668 54.4778 36.3431 53.8085 35.4611 53.2146C34.19 52.3585 32.8319 51.6238 31.4028 51.0242C30.3844 50.5961 29.3201 50.2622 28.2364 49.9785C26.6909 49.5742 25.0879 49.3264 23.4376 49.2438C23.0433 49.2244 22.654 49.1842 22.2547 49.1842C21.1739 49.1842 20.1182 49.2819 19.0761 49.4234C19.1997 50.9796 19.4438 52.5022 19.8029 53.9794C20.3595 53.9076 20.9218 53.8552 21.4913 53.8336C21.7463 53.8236 21.9969 53.7977 22.254 53.7977C23.6394 53.7977 24.9881 53.9543 26.2908 54.2351C27.3803 54.4714 28.4353 54.8017 29.4472 55.2147C30.8993 55.8079 32.256 56.5821 33.5041 57.497C34.4011 58.1549 35.2421 58.8824 36.0113 59.6824C37.365 61.0914 38.4954 62.7073 39.3687 64.4762C40.5587 66.8863 41.2517 69.5773 41.3214 72.4256L33.5975 73.8662V75.9898H45.96V72.9269C45.96 72.9154 45.9622 72.9039 45.9622 72.8924C45.9622 72.8809 45.9608 72.8694 45.96 72.8579V72.4852C46.0067 69.3576 46.5769 66.3542 47.6046 63.5691C48.2984 61.6897 49.1997 59.9122 50.2726 58.2547C50.873 57.3282 51.5244 56.4384 52.2297 55.5939C53.248 54.3751 54.3741 53.249 55.5885 52.2264C56.3857 51.5549 57.2209 50.9294 58.0935 50.3527C59.374 49.5045 60.7313 48.7648 62.1526 48.1421C63.176 47.6933 64.2324 47.3076 65.3168 46.9873C66.8559 46.5327 68.4495 46.2081 70.0891 46.0343C71.0306 45.9352 71.9872 45.8806 72.9553 45.8806C74.3306 45.8806 75.68 45.9862 77 46.1851C76.9504 44.5772 76.7745 43.0015 76.4736 41.4696C75.3173 41.3411 74.1446 41.2678 72.9553 41.2678C71.0665 41.2678 69.2179 41.4438 67.4196 41.7627C65.7808 42.0535 64.1857 42.4693 62.6438 43.0037C61.5615 43.3785 60.5044 43.8051 59.4788 44.2906C58.0662 44.9592 56.711 45.7277 55.4219 46.5895C54.5558 47.169 53.7191 47.7888 52.9155 48.4481C51.7205 49.4298 50.598 50.4949 49.5588 51.6368C48.8701 52.3951 48.2187 53.1858 47.6046 54.0082C46.9906 53.1866 46.3385 52.3951 45.6505 51.6368C46.2696 50.8432 46.9202 50.0762 47.6046 49.3393C48.6517 48.2132 49.7678 47.1525 50.9542 46.1729C51.7614 45.5079 52.6009 44.8802 53.4663 44.2885C54.7562 43.4073 56.1114 42.6137 57.5168 41.9106C58.5424 41.3985 59.5945 40.9346 60.6739 40.5238C62.2151 39.9371 63.8094 39.4581 65.4468 39.0947C67.8663 38.5575 70.377 38.2652 72.9553 38.2652C73.8774 38.2652 74.7873 38.3119 75.6908 38.3822C75.1766 36.7434 74.5151 35.1713 73.7316 33.6718C73.4724 33.6667 73.2167 33.6531 72.9553 33.6531C69.1849 33.6531 65.5402 34.1982 62.0865 35.1964C60.4491 35.669 58.8548 36.2421 57.3136 36.915C56.237 37.3854 55.1828 37.8975 54.1587 38.4584C52.7532 39.229 51.4045 40.0893 50.1096 41.0201C49.2471 41.6398 48.4112 42.2905 47.6039 42.9764C46.7967 42.2905 45.9593 41.6398 45.0982 41.0201C45.9091 40.3105 46.7407 39.6232 47.6039 38.9754C48.8974 38.0059 50.2547 37.1183 51.6566 36.2981C52.6792 35.7006 53.7249 35.139 54.8007 34.6269C56.3433 33.8915 57.9412 33.2545 59.5801 32.708C63.4525 31.4153 67.5697 30.667 71.8436 30.5542C70.744 28.9721 69.4908 27.5063 68.1069 26.1762C63.7067 26.6323 59.4832 27.6973 55.5246 29.2859C54.5019 28.5031 53.4513 27.7569 52.3733 27.0467C56.2299 25.308 60.3442 24.0433 64.6389 23.3208C62.7185 21.9742 60.6286 20.8546 58.4052 20C54.6305 21.0428 51.0088 22.4576 47.6039 24.2401" fill="white"/>
</mask>
<g mask="url(#mask0_1_3379)">
<path d="M33.4996 -5.11679L-5.24524 61.9912L62.5003 101.104L101.245 33.9961L33.4996 -5.11679Z" fill="url(#paint1_linear_1_3379)"/>
</g>
<defs>
<linearGradient id="paint0_linear_1_3379" x1="18.9993" y1="47.9935" x2="77" y2="47.9935" gradientUnits="userSpaceOnUse">
<stop offset="0.245" stop-color="#189381"/>
<stop offset="0.334" stop-color="#299680"/>
<stop offset="0.49" stop-color="#57AA66"/>
<stop offset="0.679" stop-color="#88BF4B"/>
<stop offset="0.823" stop-color="#A7CC3A"/>
<stop offset="0.903" stop-color="#B3D234"/>
</linearGradient>
<linearGradient id="paint1_linear_1_3379" x1="81.9226" y1="67.5033" x2="14.1811" y2="28.3927" gradientUnits="userSpaceOnUse">
<stop offset="0.245" stop-color="#189381"/>
<stop offset="0.334" stop-color="#299680"/>
<stop offset="0.49" stop-color="#57AA66"/>
<stop offset="0.679" stop-color="#88BF4B"/>
<stop offset="0.823" stop-color="#A7CC3A"/>
<stop offset="0.903" stop-color="#B3D234"/>
</linearGradient>
</defs>
</svg>
