<svg width="96" height="96" viewBox="0 0 96 96" fill="none" xmlns="http://www.w3.org/2000/svg">
<circle cx="48" cy="48" r="47" fill="white" stroke="white" stroke-width="2"/>
<g clip-path="url(#clip0_1_9071)">
<path d="M75.1155 60.7824H74.5921V62.2481H74.3827V60.7824H73.8592V60.6079H75.1155V60.7824Z" fill="#462F91"/>
<path d="M75.639 60.6079L76.1625 61.934L76.6859 60.6079H76.9651V62.2481H76.7557V61.6199V60.922L76.2323 62.2481H76.0578L75.5343 60.922L75.5692 61.6199V62.2481H75.3598V60.6079H75.639Z" fill="#462F91"/>
<path d="M27.1661 43.124V65.3888C27.2708 68.6343 26.5728 71.6355 22.3851 71.6355C21.1986 71.6355 20.0469 71.2865 19.0349 70.6932L19.4188 69.6463C20.3261 70.2047 21.408 70.5187 22.4898 70.4838C25.7702 70.4838 26.0494 68.0061 26.0494 65.3539V43.124H27.1661ZM26.5379 35.5163C27.0614 35.4465 27.5151 35.8304 27.5849 36.319C27.5849 36.3539 27.5849 36.4237 27.5849 36.4586C27.6546 36.982 27.2708 37.4357 26.7473 37.5055C26.6775 37.5055 26.6077 37.5055 26.5379 37.5055C26.0145 37.5404 25.5608 37.1216 25.5259 36.5982C25.5259 36.5633 25.5259 36.4935 25.5259 36.4586C25.5259 35.9351 25.9098 35.5163 26.4332 35.4814C26.4681 35.4814 26.503 35.4814 26.5379 35.5163Z" fill="#462F91"/>
<path d="M48.698 58.9324C46.8484 61.445 43.568 62.6664 40.4272 62.6664C35.367 62.6664 30.935 59.072 30.935 52.8951C30.935 47.0672 34.9832 42.9492 40.3923 42.9492C45.5572 42.9492 50.6522 45.8457 49.9194 53.244H32.0169C32.4356 59.2814 36.3093 61.6893 40.3923 61.6893C43.1841 61.6893 46.2202 60.3981 47.7906 58.3391L48.698 58.9324ZM48.8376 52.1971C48.9771 46.8927 45.627 44.031 40.3574 44.031C35.9254 44.031 32.3309 46.9625 32.0169 52.1971H48.8376Z" fill="#462F91"/>
<path d="M54.8749 35.2021V62.2479H53.7232V35.2021H54.8749Z" fill="#462F91"/>
<path d="M63.2154 35.2021V62.2479H62.0638V35.2021H63.2154Z" fill="#462F91"/>
<path d="M70.7184 35.7255C71.2419 35.6557 71.6956 36.0396 71.7654 36.5282C71.7654 36.5979 71.7654 36.6328 71.7654 36.7026C71.8003 37.261 71.3815 37.7496 70.7882 37.7845C70.2299 37.8194 69.7413 37.4006 69.7064 36.8073C69.7064 36.7724 69.7064 36.7375 69.7064 36.7026C69.7064 36.1792 70.0903 35.7604 70.6137 35.7255C70.6486 35.7255 70.6835 35.7255 70.7184 35.7255ZM71.2768 43.1587V62.2478H70.1252V43.1587H71.2768Z" fill="#462F91"/>
<path d="M42.1721 30.2816C43.9067 30.2816 45.3129 28.8754 45.3129 27.1408C45.3129 25.4062 43.9067 24 42.1721 24C40.4375 24 39.0313 25.4062 39.0313 27.1408C39.0313 28.8754 40.4375 30.2816 42.1721 30.2816Z" fill="#8A77B6"/>
<path d="M44.5451 39.041C45.5474 39.041 46.3598 38.2285 46.3598 37.2263C46.3598 36.2241 45.5474 35.4116 44.5451 35.4116C43.5429 35.4116 42.7305 36.2241 42.7305 37.2263C42.7305 38.2285 43.5429 39.041 44.5451 39.041Z" fill="#8A77B6"/>
<path d="M48.6282 32.6897C49.4184 32.6897 50.059 32.0491 50.059 31.2589C50.059 30.4687 49.4184 29.8281 48.6282 29.8281C47.838 29.8281 47.1974 30.4687 47.1974 31.2589C47.1974 32.0491 47.838 32.6897 48.6282 32.6897Z" fill="#8A77B6"/>
</g>
<defs>
<clipPath id="clip0_1_9071">
<rect width="58" height="47.6354" fill="white" transform="translate(19 24)"/>
</clipPath>
</defs>
</svg>
