<svg width="96" height="96" viewBox="0 0 96 96" fill="none" xmlns="http://www.w3.org/2000/svg">
<circle cx="48" cy="48" r="47" fill="white" stroke="white" stroke-width="2"/>
<g clip-path="url(#clip0_1_7499)">
<mask id="mask0_1_7499" style="mask-type:luminance" maskUnits="userSpaceOnUse" x="6" y="43" width="84" height="10">
<path d="M89.5415 43.552H6.6615V52.2334H89.5415V43.552Z" fill="white"/>
</mask>
<g mask="url(#mask0_1_7499)">
<path d="M39.838 43.6433L36.4885 52.0259H36.968L37.913 49.656L38.0915 49.2094L40.083 44.2446L42.064 49.2094H38.9875L38.7845 49.6419L42.2425 49.656L43.198 52.0259H43.667L40.3175 43.6433H39.838Z" fill="black"/>
<path d="M6.6615 43.5872V52.0436H7.386V48.1793H10.7985V47.4514H7.386V44.3115H11.6665V43.5872H6.6615Z" fill="black"/>
<path d="M12.552 43.5872V52.0436H16.7135V51.3157H13.273V43.5872H12.552Z" fill="black"/>
<path d="M20.469 43.5872L17.158 52.0436H17.9245L20.8015 44.7159L22.4815 49.0091H19.664L19.3315 49.7194L22.7685 49.7334L23.682 52.0436H24.438L21.1235 43.5872H20.469Z" fill="black"/>
<mask id="mask1_1_7499" style="mask-type:luminance" maskUnits="userSpaceOnUse" x="6" y="43" width="84" height="10">
<path d="M89.5415 43.552H6.6615V52.2334H89.5415V43.552Z" fill="white"/>
</mask>
<g mask="url(#mask1_1_7499)">
<path d="M27.602 49.5541C28.918 49.2166 29.8805 48.0035 29.8805 46.6181C29.8805 44.9479 28.526 43.5872 26.8635 43.5872H24.865V52.0436H25.586V49.649H26.09C26.4645 49.649 26.832 49.8108 27.126 50.1061L29.0545 52.0436H30.08L27.6265 49.5787L27.5985 49.5541H27.602ZM29.156 46.6181C29.156 47.8874 28.127 48.9212 26.8635 48.9212H25.5895V44.3115H26.8635C28.127 44.3115 29.156 45.3452 29.156 46.6146" fill="black"/>
<path d="M35.8585 44.3115V43.5872H30.857V52.0436H35.8585V51.3157H31.578V48.1793H34.9905V47.4514H31.578V44.3115H35.8585Z" fill="black"/>
<path d="M47.454 51.5793C48.378 51.5793 49.19 51.2558 49.8445 50.7073V51.2664C49.1655 51.7481 48.343 52.0259 47.454 52.0259C45.151 52.0259 43.282 50.1482 43.282 47.8346C43.282 45.5209 45.151 43.6433 47.454 43.6433C48.343 43.6433 49.169 43.9246 49.8445 44.4028V44.9619C49.1865 44.4134 48.3745 44.0899 47.454 44.0899C45.4065 44.0899 43.7265 45.7776 43.7265 47.8346C43.7265 49.8916 45.4065 51.5793 47.454 51.5793Z" fill="black"/>
<path d="M54.657 51.5793C55.581 51.5793 56.393 51.2558 57.0475 50.7073V51.2664C56.3685 51.7481 55.546 52.0259 54.657 52.0259C52.354 52.0259 50.485 50.1482 50.485 47.8346C50.485 45.5209 52.354 43.6433 54.657 43.6433C55.546 43.6433 56.3685 43.9246 57.0475 44.4028V44.9619C56.3895 44.4134 55.5775 44.0899 54.657 44.0899C52.6095 44.0899 50.9295 45.7776 50.9295 47.8346C50.9295 49.8916 52.6095 51.5793 54.657 51.5793Z" fill="black"/>
<path d="M61.7795 43.6433C64.0825 43.6433 65.9515 45.5209 65.9515 47.8346C65.9515 50.1482 64.0825 52.0259 61.7795 52.0259C59.4765 52.0259 57.6075 50.1482 57.6075 47.8346C57.6075 45.5209 59.4765 43.6433 61.7795 43.6433ZM61.7795 51.5793C63.827 51.5793 65.507 49.8916 65.507 47.8346C65.507 45.7776 63.827 44.0899 61.7795 44.0899C59.732 44.0899 58.052 45.7776 58.052 47.8346C58.052 49.8916 59.732 51.5793 61.7795 51.5793Z" fill="black"/>
<path d="M73.018 49.2973V43.6433H73.431V49.5892C73.431 49.5892 73.424 49.7579 73.4135 49.8564C73.3785 50.1939 73.263 50.753 72.843 51.2523C72.29 51.9028 71.4045 52.2333 70.211 52.2333C69.0175 52.2333 68.1285 51.9028 67.5755 51.2523C67.2115 50.8233 67.0715 50.3522 67.0225 50.0111C66.9945 49.8212 66.9945 49.4766 66.9945 49.4766V43.6433H67.4075L67.4005 49.3114C67.4005 49.3114 67.4005 49.7404 67.4145 49.8634C67.446 50.1307 67.5405 50.5702 67.8765 50.964C68.349 51.5195 69.1365 51.7973 70.211 51.7973C71.2855 51.7973 72.0765 51.516 72.549 50.957C72.941 50.4963 72.99 49.9865 73.018 49.7544C73.018 49.7333 73.018 49.3008 73.018 49.3008" fill="black"/>
<path d="M75.041 43.6433H75.4855L80.97 51.2523V43.6433H81.4145V52.0259H80.97L75.4855 44.4239V52.0259H75.041V43.6433Z" fill="black"/>
<path d="M87.676 44.0899H85.2645V52.0259H84.82V44.0899H82.4155V43.6433H87.676V44.0899Z" fill="black"/>
<path d="M89.545 44.2412C89.545 44.628 89.237 44.9339 88.8415 44.9339C88.446 44.9339 88.1345 44.628 88.1345 44.2412C88.1345 43.8544 88.4495 43.552 88.845 43.552C89.2405 43.552 89.545 43.8544 89.545 44.2412ZM88.3095 44.2412C88.3095 44.5471 88.5405 44.7932 88.845 44.7932C89.1425 44.7967 89.3665 44.5506 89.3665 44.2482C89.3665 43.9458 89.1425 43.6926 88.8345 43.6926C88.5265 43.6926 88.306 43.9423 88.306 44.2447M88.7295 44.6033H88.572V43.9142C88.635 43.9036 88.7225 43.8931 88.8345 43.8931C88.964 43.8931 89.0235 43.9142 89.069 43.9493C89.111 43.9775 89.139 44.0302 89.139 44.097C89.139 44.1814 89.076 44.2341 88.9955 44.2623V44.2728C89.062 44.2939 89.097 44.3502 89.118 44.4416C89.139 44.5471 89.1565 44.5858 89.167 44.6104H88.999C88.978 44.5858 88.964 44.526 88.943 44.4416C88.929 44.3713 88.8905 44.3361 88.7995 44.3361H88.7225V44.6104L88.7295 44.6033ZM88.733 44.2166H88.8065C88.894 44.2166 88.9675 44.1884 88.9675 44.1146C88.9675 44.0513 88.922 44.0091 88.8205 44.0091C88.7785 44.0091 88.7505 44.0126 88.733 44.0161V44.213V44.2166Z" fill="black"/>
</g>
</g>
</g>
<defs>
<clipPath id="clip0_1_7499">
<rect width="84" height="10" fill="white" transform="translate(6 43)"/>
</clipPath>
</defs>
</svg>
