<svg width="96" height="96" viewBox="0 0 96 96" fill="none" xmlns="http://www.w3.org/2000/svg">
<circle cx="48" cy="48" r="47" fill="white" stroke="white" stroke-width="2"/>
<path d="M19 59.3385V55.0827L48.7231 50.6399V55.6617L19 59.3385Z" fill="#FDB913"/>
<path d="M22.8015 52.0421L28.8385 48.5393L48.7232 44.8911V47.8045L22.8015 52.0421Z" fill="#FDB913"/>
<path d="M33.6292 45.7583L39.2144 42.5177L48.7231 40.6768V42.8397L33.6292 45.7583Z" fill="#FDB913"/>
<path d="M42.5459 40.5859L48.7232 37V39.3291L42.5459 40.5859Z" fill="#FDB913"/>
<path d="M48.7231 39.3291V37L54.9212 40.4898L48.7231 39.3291Z" fill="#231F20"/>
<path d="M48.7231 42.8399L48.718 40.6743L57.9462 42.1933L63.4951 45.3144L48.7231 42.8399Z" fill="#231F20"/>
<path d="M48.7231 47.8045V44.8911L67.7353 47.7032L74.1593 51.3177L48.7231 47.8045Z" fill="#231F20"/>
<path d="M48.7231 50.6399L77 53.6753V58.6685L48.7231 55.6617V50.6399Z" fill="#231F20"/>
</svg>
