<svg width="96" height="96" viewBox="0 0 96 96" fill="none" xmlns="http://www.w3.org/2000/svg">
<circle cx="48" cy="48" r="47" fill="white" stroke="white" stroke-width="2"/>
<path d="M33.265 41.1473H32.9025C32.8101 40.8905 32.6518 40.6297 32.4264 40.3658C32.201 40.1019 31.9766 39.947 31.7543 39.8992C31.6589 39.8767 31.5259 39.8635 31.3563 39.8584C31.1868 39.8533 31.0457 39.8513 30.935 39.8513H29.9533V42.4667H30.6487C30.8233 42.4667 30.9827 42.4463 31.1249 42.4046C31.268 42.3628 31.398 42.2833 31.5157 42.1651C31.5888 42.0918 31.6629 41.9624 31.737 41.778C31.8112 41.5935 31.8599 41.4326 31.8822 41.295H32.2447V44.1254H31.8822C31.8629 43.992 31.8152 43.8238 31.737 43.6211C31.6589 43.4183 31.5858 43.2787 31.5157 43.2023C31.4112 43.0872 31.2873 43.0087 31.1442 42.966C31.001 42.9232 30.8355 42.9018 30.6487 42.9018H29.9533V44.857C29.9533 45.0607 29.9685 45.2227 29.999 45.342C30.0294 45.4612 30.0853 45.5529 30.1685 45.617C30.2477 45.6772 30.3563 45.7179 30.4944 45.7363C30.6325 45.7556 30.8203 45.7648 31.0589 45.7648C31.1695 45.7648 31.3035 45.7627 31.4589 45.7597C31.6142 45.7566 31.7513 45.7475 31.869 45.7312C32.002 45.7149 32.1269 45.6914 32.2426 45.6598C32.3584 45.6283 32.4447 45.5814 32.5025 45.5213C32.6548 45.3654 32.8264 45.127 33.0172 44.806C33.2081 44.4861 33.333 44.2457 33.3939 44.0867H33.7421L33.6132 46.1998H27.2721V45.8269C27.3614 45.8208 27.4812 45.8076 27.6345 45.7882C27.7868 45.7689 27.8944 45.7464 27.9584 45.721C28.0792 45.67 28.1604 45.6058 28.201 45.5274C28.2426 45.4489 28.2629 45.3501 28.2629 45.2289V40.4443C28.2629 40.3291 28.2457 40.2344 28.2101 40.16C28.1756 40.0846 28.0914 40.0173 27.9574 39.9572C27.8751 39.9185 27.7584 39.8839 27.6091 39.8523C27.4599 39.8207 27.3472 39.7993 27.2711 39.7901V39.4172H33.265V41.1473Z" fill="#104C8E"/>
<path d="M40.067 43.0883C40.27 43.2289 40.4355 43.4051 40.5624 43.6171C40.6893 43.829 40.7533 44.0786 40.7533 44.3649C40.7533 44.7093 40.6812 44.9997 40.536 45.2371C40.3919 45.4744 40.1838 45.6619 39.9147 45.7984C39.6284 45.9452 39.2995 46.0491 38.9259 46.1092C38.5523 46.1693 38.1137 46.1999 37.6081 46.1999H34.0964V45.827C34.1949 45.8178 34.3188 45.8035 34.468 45.7842C34.6173 45.7648 34.7218 45.7424 34.7827 45.7169C34.9005 45.6691 34.9807 45.6059 35.0233 45.5284C35.066 45.45 35.0873 45.3491 35.0873 45.2248V40.4443C35.0873 40.3292 35.07 40.2344 35.0345 40.157C35 40.0806 34.9157 40.0133 34.7817 39.9563C34.6832 39.9145 34.5685 39.8809 34.4386 39.8534C34.3086 39.8258 34.1939 39.8044 34.0954 39.7892V39.4163H37.7685C38.6924 39.4163 39.3594 39.5436 39.7695 39.7983C40.1797 40.0531 40.3838 40.429 40.3838 40.9272C40.3838 41.1565 40.3381 41.3582 40.2457 41.5324C40.1533 41.7067 40.0213 41.8564 39.8497 41.9848C39.6944 42.103 39.5086 42.2049 39.2924 42.2905C39.0761 42.3761 38.8447 42.4484 38.597 42.5055V42.5961C38.8447 42.6216 39.1015 42.6766 39.3685 42.7612C39.6386 42.8458 39.87 42.9548 40.067 43.0883ZM38.533 41.0464C38.533 40.6705 38.4274 40.3771 38.2162 40.1672C38.0051 39.9573 37.6883 39.8513 37.266 39.8513C37.2061 39.8513 37.1269 39.8534 37.0305 39.8584C36.934 39.8635 36.8497 39.8676 36.7807 39.8707V42.3852H37.0284C37.5431 42.3852 37.9228 42.265 38.1675 42.0246C38.4112 41.7841 38.533 41.4581 38.533 41.0464ZM38.867 44.3048C38.867 43.832 38.7269 43.4703 38.4477 43.2177C38.1685 42.965 37.7665 42.8397 37.2426 42.8397C37.1827 42.8397 37.1025 42.8417 37.002 42.8468C36.9015 42.8519 36.8284 42.856 36.7807 42.859V45.3451C36.8091 45.4632 36.8985 45.5631 37.0477 45.6446C37.197 45.7261 37.3777 45.7669 37.5909 45.7669C37.9685 45.7669 38.2761 45.6395 38.5127 45.3838C38.7492 45.128 38.867 44.7684 38.867 44.3048Z" fill="#104C8E"/>
<path d="M44.0061 46.3875C43.5929 46.3875 43.2081 46.3355 42.8508 46.2326C42.4934 46.1287 42.1909 46.0074 41.9432 45.8668L41.6142 46.2021H41.2091L41.1472 43.7496H41.5574C41.6498 43.983 41.7665 44.2285 41.9097 44.4873C42.0528 44.7461 42.2173 44.9774 42.4051 45.1822C42.599 45.3961 42.8152 45.5704 43.0558 45.7048C43.2954 45.8393 43.5756 45.9066 43.8965 45.9066C44.3279 45.9066 44.6599 45.8006 44.8893 45.5887C45.1198 45.3768 45.2345 45.1098 45.2345 44.7868C45.2345 44.5219 45.1371 44.2998 44.9411 44.1195C44.7462 43.9391 44.4437 43.7833 44.0335 43.6518C43.7665 43.5652 43.5218 43.4857 43.2975 43.4114C43.0731 43.338 42.863 43.2626 42.666 43.1852C42.2122 43.0028 41.8741 42.743 41.6538 42.4047C41.4325 42.0665 41.3229 41.6885 41.3229 41.2697C41.3229 41.0048 41.3797 40.7501 41.4944 40.5066C41.6091 40.2621 41.7756 40.043 41.9949 39.8484C42.2041 39.667 42.4731 39.5183 42.8 39.4031C43.1269 39.288 43.4833 39.231 43.867 39.231C44.2416 39.231 44.5929 39.2839 44.9198 39.3889C45.2467 39.4938 45.5046 39.5988 45.6914 39.7047L45.9817 39.4174H46.3959L46.4345 41.7313H46.0244C45.9289 41.4816 45.8173 41.2269 45.6883 40.9671C45.5594 40.7063 45.4244 40.4903 45.2812 40.3181C45.1259 40.1327 44.9462 39.9849 44.7432 39.8749C44.5401 39.7648 44.3015 39.7098 44.0284 39.7098C43.6853 39.7098 43.4051 39.8076 43.1878 40.0022C42.9706 40.1968 42.8619 40.4383 42.8619 40.7256C42.8619 40.9967 42.9564 41.2188 43.1452 41.391C43.334 41.5631 43.6284 41.715 44.0295 41.8464C44.264 41.9259 44.5046 42.0064 44.7492 42.0858C44.9939 42.1653 45.2112 42.2427 45.402 42.3161C45.863 42.4944 46.2132 42.742 46.4528 43.0558C46.6924 43.3696 46.8122 43.7608 46.8122 44.2265C46.8122 44.5199 46.7442 44.8042 46.6071 45.0793C46.4701 45.3533 46.2863 45.5816 46.0548 45.7639C45.801 45.9647 45.5066 46.1195 45.1736 46.2285C44.8396 46.3335 44.4508 46.3875 44.0061 46.3875Z" fill="#104C8E"/>
<path d="M53.5228 41.3572H53.1513C53.0528 41.0668 52.8954 40.7561 52.6782 40.4249C52.4609 40.0938 52.2609 39.9145 52.0772 39.889C51.9756 39.8768 51.8508 39.8656 51.7015 39.8554C51.5523 39.8462 51.4244 39.8411 51.3168 39.8411H51.0934V45.1627C51.0934 45.2778 51.1137 45.3787 51.1553 45.4663C51.197 45.5539 51.2772 45.6232 51.398 45.6741C51.4711 45.7027 51.5848 45.7322 51.7391 45.7628C51.8934 45.7934 52.0244 45.8148 52.132 45.827V46.1999H48.3635V45.827C48.4558 45.8178 48.5848 45.8035 48.7513 45.7862C48.9178 45.7689 49.0315 45.7475 49.0924 45.722C49.2163 45.6711 49.2985 45.6028 49.3401 45.5162C49.3817 45.4306 49.402 45.3277 49.402 45.2106V39.8411H49.1787C49.0711 39.8411 48.9421 39.8462 48.7939 39.8554C48.6447 39.8646 48.5198 39.8758 48.4183 39.889C48.2345 39.9145 48.0345 40.0928 47.8173 40.4249C47.6 40.7561 47.4426 41.0668 47.3442 41.3572H46.9726V39.4163H53.5239V41.3572H53.5228Z" fill="#104C8E"/>
<path d="M59.9604 41.1473H59.598C59.5056 40.8905 59.3472 40.6297 59.1218 40.3658C58.8964 40.1019 58.6721 39.947 58.4497 39.8992C58.3543 39.8767 58.2213 39.8635 58.0518 39.8584C57.8822 39.8533 57.7411 39.8513 57.6305 39.8513H56.6487V42.4667H57.3442C57.5188 42.4667 57.6782 42.4463 57.8203 42.4046C57.9634 42.3628 58.0934 42.2833 58.2112 42.1651C58.2843 42.0918 58.3584 41.9624 58.4325 41.778C58.5066 41.5935 58.5553 41.4326 58.5777 41.295H58.9401V44.1254H58.5777C58.5584 43.992 58.5107 43.8238 58.4325 43.6211C58.3543 43.4183 58.2812 43.2787 58.2112 43.2023C58.1066 43.0872 57.9827 43.0087 57.8396 42.966C57.6964 42.9232 57.531 42.9018 57.3442 42.9018H56.6487V44.857C56.6487 45.0607 56.664 45.2227 56.6944 45.342C56.7249 45.4612 56.7807 45.5529 56.864 45.617C56.9431 45.6772 57.0518 45.7179 57.1898 45.7363C57.3279 45.7556 57.5157 45.7648 57.7543 45.7648C57.865 45.7648 57.999 45.7627 58.1543 45.7597C58.3096 45.7566 58.4467 45.7475 58.5645 45.7312C58.6975 45.7149 58.8223 45.6914 58.9381 45.6598C59.0538 45.6283 59.1401 45.5814 59.198 45.5213C59.3502 45.3654 59.5218 45.127 59.7127 44.806C59.9035 44.4861 60.0284 44.2457 60.0893 44.0867H60.4376L60.3086 46.1998H53.9675V45.8269C54.0568 45.8208 54.1766 45.8076 54.3299 45.7882C54.4822 45.7689 54.5898 45.7464 54.6538 45.721C54.7746 45.67 54.8558 45.6058 54.8964 45.5274C54.9381 45.4489 54.9584 45.3501 54.9584 45.2289V40.4443C54.9584 40.3291 54.9411 40.2344 54.9056 40.16C54.8711 40.0846 54.7868 40.0173 54.6528 39.9572C54.5706 39.9185 54.4538 39.8839 54.3046 39.8523C54.1553 39.8207 54.0426 39.7993 53.9665 39.7901V39.4172H59.9604V41.1473Z" fill="#104C8E"/>
<path d="M76.7736 40.1325C74.7949 38.9955 70.9025 38.538 68.8325 41.1687C68.8091 41.1993 68.8142 41.2421 68.8436 41.2665C68.8741 41.29 68.9167 41.2849 68.9411 41.2553C70.9604 38.6888 74.7675 39.1402 76.7056 40.2548C80.0376 42.0684 81.5208 45.2595 80.8 48.0634C80.5472 49.0497 79.7391 50.4262 78.4081 50.9753C76.7645 51.6539 73.9147 51.6009 70.8416 49.3064C69.6995 48.4547 68.6822 47.2035 67.8071 46.0012C67.6447 45.7618 67.4721 45.504 67.3472 45.3206C67.07 44.9039 66.8233 44.533 66.5878 44.2111C66.5888 44.2121 66.5898 44.2131 66.5898 44.2141C66.0558 43.451 65.6975 43.0149 65.5289 42.8448C66.0843 42.6818 66.4985 42.4566 66.7695 42.1682C67.0416 41.8799 67.1766 41.4978 67.1766 41.023C67.1766 40.4841 66.9563 40.0816 66.5167 39.8157C66.0772 39.5498 65.4325 39.4163 64.5848 39.4163H60.7919V39.7892C60.8711 39.8024 60.9797 39.8228 61.1178 39.8513C61.2558 39.8799 61.3756 39.9155 61.4771 39.9563C61.6101 40.0133 61.6944 40.0806 61.7299 40.157C61.7645 40.2334 61.7827 40.3292 61.7827 40.4443V45.231C61.7827 45.3522 61.7624 45.4521 61.7208 45.5295C61.6792 45.6079 61.599 45.6721 61.4782 45.7231C61.4142 45.7485 61.3076 45.7699 61.1563 45.7873C61.0051 45.8046 60.8843 45.8188 60.7919 45.828V46.2009H64.399V45.828C64.3066 45.8188 64.1969 45.8005 64.068 45.773C63.9391 45.7455 63.8447 45.72 63.7848 45.6945C63.6639 45.6405 63.5827 45.5733 63.5391 45.4938C63.4964 45.4144 63.4751 45.3165 63.4751 45.2024V43.1413H63.736C64.1706 43.5794 64.4832 44.0226 64.8426 44.5565C65.1239 44.9752 65.4985 45.5499 65.9462 46.2386C67.0843 48.0013 68.4112 49.2962 69.4223 50.0624C71.4071 51.5653 73.2873 52.3518 75.7949 52.3518C76.8051 52.3569 77.9482 52.1165 78.6964 51.7578C80.2883 50.9835 81.198 49.6009 81.5127 48.1307C82.1858 44.9946 80.1604 41.9757 76.7736 40.1325ZM64.9239 42.3231C64.667 42.5687 64.3046 42.6909 63.8376 42.6909H63.4751V39.8513H63.8518C64.3188 39.8513 64.6782 39.9563 64.931 40.1641C65.1838 40.373 65.3096 40.7041 65.3096 41.1565C65.3096 41.6894 65.1807 42.0776 64.9239 42.3231Z" fill="#104C8E"/>
<path d="M24.2985 39.4162V39.7983C24.403 39.8074 24.5259 39.8217 24.667 39.839C24.8081 39.8563 24.9228 39.8798 25.0112 39.9083C25.1157 39.9429 25.199 39.9847 25.2609 40.0326C25.3228 40.0805 25.3533 40.1376 25.3533 40.2048C25.3533 40.3169 25.334 40.4483 25.2964 40.6022C25.2579 40.755 25.2071 40.9445 25.1441 41.1707C25.0365 41.5405 24.9035 41.9848 24.7462 42.5044C24.5888 43.024 24.3787 43.6934 24.1147 44.5126L22.335 39.4162H21.3238L19.7827 44.3557C19.4426 43.3276 19.1573 42.4657 18.9249 41.7718C18.6934 41.078 18.5391 40.6062 18.4629 40.3576C18.4497 40.3036 18.4386 40.2557 18.4274 40.214C18.4162 40.1722 18.4112 40.1294 18.4112 40.0846C18.4112 40.0622 18.4172 40.0367 18.4304 40.0082C18.4426 39.9796 18.4782 39.9521 18.535 39.9266C18.5949 39.9012 18.6771 39.8767 18.7817 39.8523C18.8863 39.8278 19.0447 39.8034 19.2568 39.7779V39.4142H15.6507H15.6C15.4731 39.4142 15.3452 39.4121 15.2162 39.4101C15.0853 39.408 14.9543 39.406 14.8233 39.406C14.4964 39.406 14.2487 39.4182 14.0203 39.4478C13.3117 39.5364 12.334 39.7942 11.6974 40.5237C11.203 41.0902 11.0112 41.8523 11.1848 42.5614C11.3695 43.3195 11.9452 43.8799 12.6842 44.0225C12.8061 44.0459 12.932 44.0582 13.0579 44.0582C13.9695 44.0582 14.9096 43.4438 15.7046 42.3291C15.7309 42.2925 15.7411 42.2486 15.733 42.2038C15.7259 42.16 15.7015 42.1213 15.666 42.0948C15.5939 42.0428 15.4842 42.0612 15.4325 42.1335C14.7025 43.1585 13.8589 43.7229 13.0568 43.7229C12.9523 43.7229 12.8477 43.7128 12.7462 43.6934C12.1137 43.5711 11.6264 43.1126 11.4761 42.4983C11.3269 41.888 11.4974 41.2074 11.9218 40.7214C12.4183 40.1528 13.3299 39.8523 14.5594 39.8523L14.9106 39.8533L15.6274 39.8594C15.9411 39.8594 16.1411 39.9175 16.2599 39.9796C16.3888 40.0469 16.4782 40.1192 16.5553 40.216C16.6233 40.3016 16.6995 40.4188 16.7604 40.5909C16.9543 41.1585 17.1919 41.8605 17.4751 42.6969C17.7573 43.5334 18.1645 44.7265 18.6944 46.2762H19.6558L21.2639 41.2359L23.0436 46.2762H24.0061C24.4 45.1259 24.7787 44.0164 25.1421 42.9486C25.5056 41.8808 25.7746 41.1045 25.9492 40.6205C26 40.4799 26.0568 40.3607 26.1188 40.2619C26.1807 40.163 26.2842 40.0723 26.4304 39.9898C26.5259 39.9389 26.6223 39.8961 26.7208 39.8635C26.8193 39.8299 26.9178 39.8085 27.0162 39.7993V39.4172H24.2985V39.4162Z" fill="#104C8E"/>
<path d="M34.6965 47.6843C34.3696 47.6843 34.1218 47.6966 33.8934 47.7261C33.1848 47.8147 32.3574 48.043 31.7208 48.7715C31.2264 49.3379 31.0345 50.1001 31.2081 50.8092C31.3929 51.5672 31.9685 52.1276 32.7076 52.2703C32.8295 52.2937 32.9553 52.3059 33.0812 52.3059C33.9929 52.3059 34.933 51.6915 35.7279 50.5769C35.7543 50.5402 35.7645 50.4964 35.7564 50.4516C35.7492 50.4078 35.7249 50.369 35.6893 50.3426C35.6173 50.2906 35.5076 50.3089 35.4558 50.3813C34.7259 51.4063 33.8822 51.9707 33.0802 51.9707C32.9756 51.9707 32.8711 51.9605 32.7696 51.9412C32.1371 51.8189 31.6498 51.3604 31.4995 50.746C31.3503 50.1357 31.5208 49.4551 31.9452 48.9691C32.4416 48.4006 33.3533 48.1 34.5828 48.1L35.8447 48.1021C35.9899 48.101 36.1949 48.1153 36.3015 48.1326C36.4437 48.155 36.5168 48.1754 36.6031 48.2192C36.7076 48.2712 36.8 48.3446 36.8548 48.4413C36.8995 48.5198 36.9147 48.6176 36.9147 48.7256V53.5123C36.9147 53.6366 36.8924 53.7384 36.8477 53.8179C36.8031 53.8974 36.7239 53.9595 36.6091 54.0044C36.5492 54.0298 36.4427 54.0512 36.2904 54.0686C36.1381 54.0859 36.0152 54.1001 35.9239 54.1093V54.4822H39.5685V54.1093C39.4477 54.0971 39.3259 54.0777 39.2041 54.0543C39.0822 54.0298 38.9858 54.0044 38.9157 53.9758C38.7949 53.9249 38.7137 53.8587 38.6701 53.7772C38.6274 53.6956 38.6061 53.5978 38.6061 53.4827V51.2351H39.2782C39.4782 51.2351 39.6498 51.2595 39.7929 51.3095C39.9361 51.3594 40.0528 51.4348 40.1452 51.5367C40.2051 51.6039 40.2782 51.7394 40.3645 51.9452C40.4498 52.151 40.4995 52.3253 40.5117 52.4689H40.8741V49.6141H40.5117C40.4954 49.7475 40.4508 49.9085 40.3756 50.095C40.3005 50.2814 40.2244 50.4149 40.1442 50.4944C40.0366 50.6064 39.9127 50.6829 39.7726 50.7267C39.6325 50.7695 39.468 50.7909 39.2772 50.7909H38.6051V48.1326H39.6558C39.7888 48.1326 39.935 48.1377 40.0934 48.1469C40.2518 48.1561 40.3787 48.1673 40.4741 48.1805C40.6833 48.209 40.9046 48.3721 41.1381 48.6686C41.3716 48.9661 41.534 49.2463 41.6254 49.5091H41.997V47.6966H36.796L34.6965 47.6843Z" fill="#104C8E"/>
<path d="M42.3949 48.0705C42.5025 48.0837 42.6315 48.1061 42.7807 48.1397C42.93 48.1734 43.0426 48.206 43.1188 48.2376C43.2396 48.2885 43.3208 48.3557 43.3614 48.4383C43.403 48.5208 43.4234 48.6166 43.4234 48.7256V53.5357C43.4234 53.6569 43.402 53.7568 43.3594 53.8342C43.3168 53.9126 43.2366 53.9748 43.1188 54.0227C43.0548 54.0482 42.9401 54.0675 42.7736 54.0797C42.6071 54.093 42.4802 54.1022 42.3949 54.1083V54.4812H46.1442V54.1083C46.0396 54.1022 45.9096 54.0848 45.7563 54.0583C45.602 54.0308 45.4924 54.0033 45.4254 53.9748C45.3046 53.9239 45.2234 53.8576 45.1797 53.7761C45.1371 53.6946 45.1157 53.5968 45.1157 53.4817V48.6767C45.1157 48.5656 45.136 48.4658 45.1777 48.3782C45.2193 48.2905 45.3015 48.2263 45.4254 48.1846C45.5239 48.153 45.6447 48.1275 45.7878 48.1102C45.931 48.0929 46.0498 48.0796 46.1452 48.0694V47.6965H42.3959V48.0705H42.3949Z" fill="#104C8E"/>
<path d="M60.0386 47.6978V49.6387H60.4101C60.5086 49.3483 60.666 49.0376 60.8832 48.7064C61.1005 48.3753 61.3005 48.196 61.4843 48.1705C61.5858 48.1583 61.7107 48.1471 61.8599 48.1369C62.0091 48.1277 62.137 48.1226 62.2447 48.1226H62.468V53.4921C62.468 53.6102 62.4477 53.7121 62.4061 53.7977C62.3645 53.8833 62.2822 53.9526 62.1584 54.0035C62.0985 54.029 61.9848 54.0504 61.8173 54.0677C61.6508 54.085 61.5208 54.0993 61.4294 54.1085V54.4814H65.198V54.1085C65.0904 54.0962 64.9594 54.0738 64.8051 54.0443C64.6508 54.0147 64.537 53.9842 64.464 53.9556C64.3431 53.9047 64.2619 53.8354 64.2213 53.7478C64.1797 53.6602 64.1594 53.5593 64.1594 53.4442V48.1226H64.3827C64.4903 48.1226 64.6193 48.1277 64.7675 48.1369C64.9167 48.1461 65.0416 48.1573 65.1431 48.1705C65.3269 48.196 65.5269 48.3743 65.7442 48.7064C65.9614 49.0376 66.1188 49.3483 66.2173 49.6387H66.5888V47.6978H60.0386Z" fill="#104C8E"/>
<path fill-rule="evenodd" clip-rule="evenodd" d="M67.1269 57.7386C68.3431 55.8476 68.9249 53.5307 69.4873 51.2902C69.7218 50.3549 70.1787 49.5642 70.6213 48.8001C70.731 48.6106 70.8396 48.4221 70.9452 48.2316C71.2244 47.7272 71.5015 47.2372 71.7746 46.7552C72.0355 46.2937 72.2914 45.8403 72.5401 45.392L72.5543 45.3655L72.5746 45.3441C72.664 45.2483 72.7868 45.231 72.865 45.2279C72.9969 44.5677 73.3056 44.0939 73.6051 43.6344C73.7523 43.4082 73.8914 43.1953 74.0101 42.9599L74.1025 42.7786L74.2964 42.8407C74.3492 42.857 74.3949 42.8805 74.4335 42.9049C74.4558 42.6828 74.465 42.4597 74.4629 42.2315L74.4619 42.1591L74.5015 42.099C75.2924 40.8753 76.1888 39.4876 77.0497 38.102L77.1269 37.9777L77.2721 37.9899C77.3299 37.995 77.3817 38.0052 77.4335 38.0164C77.4376 38.0174 77.4406 38.0174 77.4437 38.0184C77.4619 37.8493 77.47 37.6679 77.4792 37.4907C77.4832 37.4122 77.4873 37.3327 77.4914 37.2553L77.4995 37.1086L77.6335 37.0495C78.7188 36.5737 79.8508 36.1274 80.998 35.7229L81.334 35.6047L81.3107 36.0683C81.3005 36.2833 81.2893 36.5024 81.27 36.7163C81.464 36.6715 81.669 36.5879 81.8822 36.5013C81.999 36.4545 82.1157 36.4066 82.2325 36.3638C82.3137 36.3342 82.398 36.2965 82.4832 36.2578C82.7117 36.1559 82.9706 36.0408 83.2355 36.0408C83.4426 36.0408 83.6284 36.1111 83.7858 36.2487L83.937 36.3811L83.8325 36.5533C83.1289 37.7189 82.3695 38.858 81.6365 39.9584C81.1756 40.6502 80.6995 41.3654 80.2416 42.0786L80.1868 42.1652L80.0863 42.1846C80.0203 42.1978 79.9594 42.2152 79.8985 42.2325C79.8741 42.2396 79.8487 42.2467 79.8223 42.2539C79.8721 42.3282 79.9299 42.4393 79.9208 42.6023L79.9167 42.6747L79.8741 42.7327C79.5249 43.2065 79.1909 43.7149 78.868 44.206C78.4792 44.799 78.0772 45.4113 77.6386 45.9768L77.5665 46.0695H77.0863C77.1645 46.5647 76.9228 46.9213 76.6508 47.3238C76.4203 47.6651 76.1503 48.0482 75.8893 48.418C75.6274 48.7899 75.3797 49.1414 75.1756 49.443L75.1046 49.549H74.735C74.7401 49.6315 74.7634 49.7354 74.797 49.8088L74.87 49.9687L74.7411 50.0869C74.4518 50.3518 74.1503 50.6096 73.8579 50.8602C72.9157 51.6672 72.0264 52.4283 71.397 53.4747L71.3563 53.5429L71.2832 53.5725C69.8569 54.1573 68.9919 55.33 68.6376 57.1568L68.6122 57.2883L68.4873 57.3362C68.201 57.4452 67.9807 57.6337 67.7482 57.8334C67.6579 57.9108 67.5675 57.9882 67.4721 58.0616L66.4416 59.3362C66.4416 59.3362 66.2731 59.3576 66.2863 59.2496C66.2832 59.2282 67.1269 57.7386 67.1269 57.7386Z" fill="#104C8E"/>
<path fill-rule="evenodd" clip-rule="evenodd" d="M79.5249 42.0684C79.4822 42.3384 79.6975 42.3486 79.6843 42.588C78.9096 43.6375 78.2477 44.8 77.4518 45.828C77.2254 45.828 77 45.828 76.7746 45.828C76.9898 46.3691 76.7949 46.687 76.4558 47.1882C75.999 47.8627 75.3929 48.6972 74.9807 49.3085C74.8345 49.3085 74.6883 49.3085 74.5421 49.3085C74.4497 49.4725 74.5188 49.7711 74.5817 49.9086C73.3929 50.9957 72.0497 51.927 71.1939 53.3493C69.6477 53.9841 68.7584 55.2791 68.4041 57.1089C67.9614 57.2781 67.6721 57.6011 67.3279 57.869C68.5381 55.9882 69.1239 53.7202 69.7198 51.3483C70.003 50.2204 70.6244 49.3044 71.1543 48.3477C71.7015 47.3604 72.2406 46.4241 72.7482 45.5071C72.8061 45.445 72.9523 45.4714 73.067 45.4674C73.2061 44.42 73.8244 43.8535 74.2233 43.0669C74.3848 43.1179 74.4426 43.2727 74.6223 43.3074C74.6751 42.9742 74.7056 42.6176 74.7025 42.2274C75.5594 40.9008 76.4162 39.5732 77.2538 38.2273C77.3888 38.2385 77.4822 38.2905 77.6528 38.267C77.7076 37.9614 77.7127 37.6068 77.732 37.2665C78.8142 36.7927 79.9299 36.3516 81.0802 35.946C81.0619 36.3016 81.0487 36.6603 81.001 36.9863C81.4183 36.9914 81.869 36.7479 82.3167 36.5859C82.736 36.4341 83.2325 36.0754 83.6325 36.4259C82.4893 38.319 81.2305 40.0959 80.0447 41.9462C79.865 41.9828 79.7167 42.047 79.5249 42.0684Z" fill="#FFC815" stroke="#114D8C" stroke-width="1.0386" stroke-miterlimit="10"/>
<path d="M54.0619 54.0809C53.9492 54.0646 53.8558 54.0463 53.7827 54.0239C53.6528 53.9821 53.5025 53.8721 53.333 53.6917C53.1635 53.5114 53.0284 53.3596 52.93 53.2353C52.6183 52.8501 52.3198 52.4721 52.0315 52.1023C51.7442 51.7324 51.4924 51.4074 51.2761 51.1272C51.8315 50.9642 52.2457 50.739 52.5168 50.4507C52.7888 50.1624 52.9239 49.7803 52.9239 49.3055C52.9239 48.7665 52.7036 48.3641 52.264 48.0981C51.8244 47.8322 51.1797 47.6987 50.332 47.6987H46.5391V48.0716C46.6183 48.0849 46.7269 48.1053 46.865 48.1338C47.0031 48.1623 47.1228 48.198 47.2244 48.2387C47.3574 48.2958 47.4416 48.363 47.4772 48.4394C47.5117 48.5159 47.53 48.6116 47.53 48.7268V53.5134C47.53 53.6347 47.5097 53.7345 47.468 53.8119C47.4264 53.8904 47.3462 53.9546 47.2254 54.0055C47.1614 54.031 47.0548 54.0524 46.9036 54.0697C46.7523 54.087 46.6315 54.1013 46.5391 54.1105V54.4834H50.1462V54.1105C50.0538 54.1013 49.9442 54.083 49.8152 54.0554C49.6863 54.0279 49.5919 54.0025 49.532 53.977C49.4112 53.923 49.33 53.8558 49.2863 53.7763C49.2437 53.6968 49.2223 53.599 49.2223 53.4849V51.4237H49.4833C49.9249 51.9596 50.2934 52.4314 50.5899 52.8389C50.8863 53.2475 51.2589 53.7956 51.7066 54.4834H54.0873V54.085C54.0792 54.083 54.0711 54.0819 54.0619 54.0809ZM50.6721 50.6045C50.4152 50.8501 50.0528 50.9724 49.5858 50.9724H49.2234V48.1317H49.6C50.067 48.1317 50.4264 48.2367 50.6792 48.4445C50.932 48.6534 51.0579 48.9845 51.0579 49.4369C51.0579 49.9698 50.9289 50.359 50.6721 50.6045Z" fill="#104C8E"/>
<path d="M58.4152 50.5944C58.2244 50.5211 58.0071 50.4446 57.7624 50.3641C57.5178 50.2847 57.2782 50.2042 57.0426 50.1247C56.6426 49.9943 56.3482 49.8425 56.1584 49.6693C55.9695 49.4971 55.8751 49.275 55.8751 49.004C55.8751 48.7166 55.9838 48.4752 56.201 48.2806C56.4183 48.086 56.6985 47.9881 57.0416 47.9881C57.3147 47.9881 57.5533 48.0432 57.7563 48.1532C57.9594 48.2632 58.1391 48.411 58.2944 48.5964C58.4376 48.7686 58.5736 48.9856 58.7015 49.2454C58.8305 49.5063 58.9421 49.761 59.0376 50.0096H59.4477L59.4091 47.6957H58.9949L58.7046 47.9831C58.5167 47.8781 58.2599 47.7732 57.933 47.6672C57.6061 47.5623 57.2548 47.5093 56.8802 47.5093C56.4954 47.5093 56.1401 47.5663 55.8132 47.6815C55.4863 47.7966 55.2173 47.9454 55.0081 48.1267C54.7888 48.3213 54.6223 48.5404 54.5076 48.7849C54.3929 49.0294 54.336 49.2831 54.336 49.548C54.336 49.9658 54.4467 50.3448 54.667 50.6831C54.8873 51.0213 55.2254 51.2811 55.6792 51.4635C55.8761 51.5399 56.0863 51.6153 56.3107 51.6897C56.535 51.7631 56.7797 51.8435 57.0467 51.9301C57.4568 52.0616 57.7594 52.2175 57.9543 52.3978C58.1492 52.5781 58.2477 52.8003 58.2477 53.0652C58.2477 53.3871 58.133 53.6551 57.9025 53.867C57.6721 54.0789 57.3411 54.1849 56.9096 54.1849C56.5888 54.1849 56.3086 54.1177 56.069 53.9832C55.8294 53.8487 55.6122 53.6744 55.4183 53.4605C55.2305 53.2557 55.066 53.0244 54.9228 52.7656C54.7797 52.5068 54.6619 52.2613 54.5706 52.028H54.1604L54.2223 54.4804H54.6274L54.9563 54.1452C55.2041 54.2858 55.5066 54.407 55.864 54.5109C56.2213 54.6149 56.6061 54.6658 57.0193 54.6658C57.464 54.6658 57.8528 54.6118 58.1868 54.5028C58.5208 54.3938 58.8142 54.2399 59.068 54.0382C59.2995 53.8558 59.4843 53.6276 59.6203 53.3535C59.7563 53.0794 59.8254 52.7952 59.8254 52.5007C59.8254 52.0351 59.7056 51.6449 59.466 51.33C59.2254 51.0193 58.8751 50.7727 58.4152 50.5944Z" fill="#104C8E"/>
</svg>
