<svg width="96" height="96" viewBox="0 0 96 96" fill="none" xmlns="http://www.w3.org/2000/svg">
<circle cx="48" cy="48" r="47" fill="white" stroke="white" stroke-width="2"/>
<path d="M23.6365 41.7916L19.2251 63.6587H28.8542L33.2656 41.7916H23.6365Z" fill="#AA1E2E"/>
<path d="M74.1537 63.469C70.0743 63.2793 66.754 63.0895 62.7221 61.714C67.8924 59.2948 76.9997 51.4208 76.9997 39.42C76.9997 30.4075 71.1179 25 61.2991 25C44.5074 25 35.5424 39.4674 35.5424 49.9029C35.5424 58.9154 41.3767 64.3228 51.1956 64.3228C52.4763 64.3228 53.5673 64.2754 54.4685 64.1331C60.0658 67.7381 64.24 69.4457 69.9321 70.347L70.1692 70.3944L75.4818 63.7062L74.1537 63.469ZM53.425 57.3026C49.3931 57.3026 46.8317 54.2194 46.8317 49.2862C46.8317 42.1237 50.579 31.9728 58.8799 31.9728C63.3862 31.9728 65.7104 34.6765 65.7104 40.084C65.7104 47.0094 61.8208 57.3026 53.425 57.3026Z" fill="#AA1E2E"/>
<path d="M34.7361 33.1111C34.7361 36.1943 32.2221 38.7084 29.1388 38.7084C26.0556 38.7084 23.5416 36.1943 23.5416 33.1111C23.5416 30.0279 26.0556 27.5139 29.1388 27.5139C32.2221 27.5139 34.7361 30.0279 34.7361 33.1111Z" fill="#AA1E2E"/>
<path d="M58.1212 69.6356C58.1212 70.1099 57.7417 70.4894 57.2674 70.4894C56.793 70.4894 56.4136 70.1099 56.4136 69.6356C56.4136 69.1612 56.793 68.7817 57.2674 68.7817C57.7417 68.7817 58.1212 69.1612 58.1212 69.6356ZM56.6033 69.6356C56.6033 70.015 56.8879 70.2996 57.2674 70.2996C57.6469 70.2996 57.884 70.015 57.884 69.6356C57.884 69.2561 57.5994 68.9715 57.22 68.9715C56.8879 68.9715 56.6033 69.2561 56.6033 69.6356ZM57.1251 70.0625H56.9354V69.2086C57.0302 69.2086 57.1251 69.1612 57.2674 69.1612C57.4097 69.1612 57.5046 69.2086 57.552 69.2086C57.5994 69.2561 57.6469 69.3035 57.6469 69.3984C57.6469 69.4933 57.552 69.5881 57.4571 69.5881C57.552 69.6355 57.5994 69.683 57.5994 69.7779C57.6469 69.9202 57.6469 69.9676 57.6469 69.9676H57.4571C57.4097 69.9202 57.4097 69.8727 57.4097 69.7779C57.4097 69.683 57.3623 69.6356 57.22 69.6356H57.1251V70.0625ZM57.1251 69.5881H57.22C57.3148 69.5881 57.4097 69.5407 57.4097 69.4458C57.4097 69.3509 57.3623 69.3035 57.22 69.3035C57.1725 69.3035 57.1251 69.3035 57.1251 69.3035V69.5881Z" fill="#AA1E2E"/>
<path d="M51.86 67.169C51.5754 66.837 51.1011 66.6472 50.4845 66.6472C49.2512 66.6472 48.2076 67.4536 47.9705 68.592C47.8756 69.1612 47.9705 69.683 48.2551 70.015C48.5397 70.3945 49.014 70.5368 49.6306 70.5368C50.8639 70.5368 51.9075 69.7304 52.1446 68.592C52.1921 68.26 52.2395 67.6433 51.86 67.169ZM51.1011 68.4497C50.9588 69.1612 50.5319 70.015 49.7729 70.015C49.5358 70.015 49.346 69.9202 49.2512 69.7779C49.1089 69.6356 49.0614 69.3984 49.0614 69.1612C49.0614 69.0664 49.0614 68.9241 49.1089 68.7817C49.2512 68.0702 49.5832 67.169 50.4845 67.169C50.7216 67.169 50.9114 67.2639 51.0062 67.4062C51.1011 67.5959 51.1485 68.0228 51.1011 68.4497ZM56.0817 66.6947H55.8919H55.6073L55.5599 66.7895C55.5599 66.7895 55.2279 68.4971 55.133 68.9241C54.801 68.4971 54.5164 68.0228 54.1843 67.6433L53.5202 66.6947H53.4728H52.8562L52.1446 70.4419H52.3818H52.5241H52.6664H52.8562V70.3471C52.8562 70.3471 53.1882 68.5446 53.2831 68.1177C53.4254 68.3074 53.5677 68.4971 53.5677 68.4971C53.8997 68.9715 54.2317 69.4458 54.6112 69.9202L54.9907 70.4419H55.5599L56.2714 66.6947H56.0817ZM47.6859 66.7421H47.4012H47.1166H46.9269V66.837L46.2154 70.4894H46.4526H46.7372H47.0218H47.2115V70.3945L47.923 66.7421H47.7807H47.6859ZM41.8989 66.7421H41.6143L41.5669 66.837L41.2823 68.4023C41.2348 68.6394 41.1399 69.2087 40.9976 69.4458C40.7605 69.8727 40.4759 70.015 40.049 70.015C39.8592 70.015 39.7169 69.9676 39.5746 69.8253C39.4323 69.683 39.4323 69.5407 39.4323 69.3035C39.4323 69.0664 39.4798 68.7818 39.5746 68.4971L39.6221 68.3548L39.9541 66.7421H39.8118H39.7169H39.4323H39.1477H38.958V66.837L38.5311 68.9241C38.4836 69.1612 38.4836 69.3984 38.4836 69.5881C38.5311 70.2048 39.0529 70.5368 39.9067 70.5368C40.3336 70.5368 40.713 70.4419 40.9976 70.2522C41.6143 69.8727 41.7566 69.3035 41.8515 68.7343V68.6869L42.2309 66.6947L41.8989 66.7421ZM46.1205 66.6947H45.9308H45.6462L45.5988 66.7895C45.5988 66.7895 45.2667 68.4971 45.1718 68.9241C44.8398 68.4971 44.5552 68.0702 44.2232 67.6433L43.5117 66.6947H43.4642H42.8476L42.1361 70.4419H42.3732H42.5155H42.6578H42.8476V70.3471C42.8476 70.3471 43.1796 68.5446 43.2745 68.1177C43.4168 68.3074 43.5591 68.4971 43.5591 68.4971C43.8911 68.9715 44.2232 69.4458 44.6026 69.9202L44.9821 70.4419H45.5513L46.2628 66.6947H46.1205Z" fill="#AA1E2E"/>
<path d="M32.6491 70.3944H32.9338H33.1235V70.2995L33.835 66.6471H33.6927H33.5978H33.3132H33.0286H32.8389V66.742L32.1274 70.3944H32.3645H32.6491ZM22.5931 70.3944H22.8777H23.1623H23.3521V70.2995C23.3521 70.2995 23.5418 69.3983 23.5892 68.9714C23.6367 69.0663 23.6841 69.2086 23.6841 69.2086L24.111 70.347H24.3008H24.6328H24.9648H25.2969L25.202 70.1572L25.0597 69.8252L24.9174 69.4932C24.7751 69.1611 24.6328 68.8291 24.4905 68.497C25.0123 68.3547 25.3443 68.0227 25.4392 67.5484C25.4392 67.4535 25.4392 67.4061 25.4392 67.3586C25.4392 67.074 25.2969 66.8843 25.0597 66.6945C24.87 66.5522 24.4905 66.5522 24.2533 66.5997H23.02L22.3085 70.347L22.5931 70.3944ZM23.9687 67.1689C24.1585 67.1689 24.3008 67.1689 24.3956 67.2638C24.4431 67.3112 24.4431 67.3586 24.4431 67.4535V67.6907C24.3482 68.1176 24.111 68.3547 23.7315 68.3547C23.779 68.1176 23.9687 67.3112 23.9687 67.1689ZM27.716 70.3944V70.2521V70.1098L27.7634 69.9675L27.8583 69.7303L27.6686 69.7778C27.3365 69.8252 27.0519 69.8252 26.625 69.8252C26.6725 69.6355 26.8148 68.8765 26.8148 68.7342H27.2417C27.4314 68.7342 27.6211 68.7342 27.8583 68.7816H28.0006V68.5919V68.4496L28.048 68.3073L28.1429 68.0701L27.9532 68.1176C27.716 68.165 27.5263 68.165 27.3365 68.165H26.9571C27.0045 67.9753 27.0994 67.4061 27.1468 67.3112C27.6211 67.3112 27.9057 67.3586 28.1903 67.4061H28.3327V67.2163V67.074L28.3801 66.9317L28.4275 66.742H28.2852H26.2456L25.534 70.4893H27.716V70.3944ZM29.7082 70.3944C30.8941 70.3944 31.8428 69.6355 32.0325 68.4496C32.1274 67.9278 32.0325 67.4535 31.7953 67.1215C31.5582 66.8368 31.1787 66.6471 30.7044 66.6471H28.8544L28.1429 70.3944H29.7082ZM29.7557 67.1689H30.1826C30.5146 67.1689 30.7518 67.2638 30.8941 67.4061C30.989 67.5484 31.0364 67.6907 31.0364 67.9278C31.0364 68.0701 31.0364 68.2124 30.989 68.3547C30.7992 69.3509 30.3249 69.8252 29.5659 69.8252H29.2813C29.2813 69.588 29.7082 67.3586 29.7557 67.1689ZM35.0209 67.2638C34.9734 67.5484 34.4042 70.4418 34.4042 70.4418H34.6414H34.926H35.2106H35.4003V70.347C35.4003 70.347 35.9695 67.4535 36.017 67.2638C36.3016 67.2638 36.5387 67.3112 36.8233 67.3112H36.9657V67.1689V67.1215V66.9791L37.0131 66.8368L37.108 66.6471H36.9657H34.2145V66.8368V66.9791L34.167 67.1215L34.0722 67.3586L34.2619 67.3112C34.4516 67.3112 34.7362 67.2638 35.0209 67.2638ZM21.8816 70.2047L22.1662 69.6355L21.9291 69.5406L21.8816 69.588C21.597 69.7778 21.2175 69.9675 20.9804 69.9675C20.6958 69.9675 20.4586 69.8726 20.3163 69.6829C20.1266 69.4457 20.0791 69.0662 20.174 68.5919C20.3163 67.833 20.7906 67.1215 21.5496 67.1215C21.8342 67.1215 22.0714 67.2638 22.2137 67.5484L22.2611 67.5958H22.4034L22.4983 67.3112L22.688 66.8843L22.5931 66.8368C22.3085 66.6471 21.9291 66.5522 21.5496 66.5522C20.506 66.5522 19.3202 67.074 19.0356 68.5919C18.9407 69.1137 19.0356 69.5406 19.3202 69.8726C19.6048 70.2521 20.1266 70.4418 20.7432 70.4418C21.0278 70.4893 21.4073 70.4418 21.8816 70.2047Z" fill="#AA1E2E"/>
</svg>
