<svg width="96" height="96" viewBox="0 0 96 96" fill="none" xmlns="http://www.w3.org/2000/svg">
<circle cx="48" cy="48" r="47" fill="white" stroke="white" stroke-width="2"/>
<path fill-rule="evenodd" clip-rule="evenodd" d="M39.8339 21.8245C39.0333 22.298 38.2751 22.7462 37.6521 23.0027C36.97 23.2846 36.0792 23.5157 35.1349 23.7638C32.7586 24.3839 29.8017 25.1535 27.4931 27.4536C25.1845 29.751 24.4093 32.6938 23.7892 35.0588C23.5439 36.0003 23.31 36.8882 23.0253 37.5676C22.7688 38.1849 22.3206 38.9375 21.8442 39.7324C20.5757 41.8606 19 44.499 19 47.8647C19 51.2304 20.5757 53.8688 21.8414 55.9913C22.3177 56.7891 22.7688 57.5445 23.0253 58.1618C23.31 58.8412 23.5411 59.7291 23.7892 60.6706C24.4121 63.0356 25.1845 65.9784 27.4931 68.2786C29.8017 70.5759 32.7586 71.3454 35.1321 71.9656C36.082 72.2136 36.9728 72.4448 37.6521 72.7267C38.2751 72.9832 39.0305 73.4314 39.8339 73.9049C41.9649 75.1649 44.6202 76.735 48 76.735C51.3798 76.735 54.0323 75.1649 56.1661 73.9049C56.9723 73.4286 57.7277 72.9804 58.3451 72.7267C59.0272 72.4448 59.9151 72.2136 60.8594 71.9684C63.2442 71.3483 66.1983 70.5787 68.5069 68.2814C70.8155 65.9841 71.5879 63.0412 72.2108 60.6762C72.4589 59.7347 72.6928 58.8468 72.9747 58.1675C73.2341 57.5473 73.6822 56.7947 74.1586 55.997C75.4243 53.8744 77 51.2332 77 47.8675C77 44.5018 75.4243 41.8634 74.1614 39.7437C73.6822 38.9431 73.2341 38.1877 72.9747 37.5704C72.6928 36.891 72.4589 36.0031 72.2108 35.0616C71.5879 32.6938 70.8155 29.751 68.5069 27.4536C66.1983 25.1535 63.2442 24.3839 60.8679 23.7666C59.9236 23.5214 59.03 23.2874 58.3479 23.0055C57.7249 22.749 56.9695 22.3008 56.1661 21.8273C54.0351 20.5673 51.3798 19 48 19C44.6202 19 41.9705 20.5673 39.8339 21.8273V21.8245ZM36.9502 37.8128C36.5612 37.7169 36.161 37.5901 35.8622 37.3223C34.6191 36.2145 36.6514 35.445 37.5027 35.2392C41.762 34.2132 46.1452 33.7396 50.5257 33.6804C52.9047 33.6494 55.3064 33.7424 57.6178 34.309C58.6579 34.5627 59.6953 34.9235 60.5268 35.5972C60.9327 35.927 61.2935 36.3555 61.3612 36.8713C61.426 37.3871 61.085 37.9706 60.5663 38.0186C60.3915 38.0355 60.2111 37.9932 60.0307 37.9537C59.7516 37.8889 59.4782 37.8269 59.2527 37.9791C58.968 38.1708 58.9652 38.5851 59.0469 38.9178C59.5233 40.8571 61.7051 41.9818 62.3055 43.8873C62.3844 44.1382 62.4239 44.437 62.2576 44.64C62.1195 44.8063 61.8883 44.8542 61.6741 44.8908C60.679 45.06 59.6755 45.2263 58.6664 45.1868C57.6573 45.1474 56.6312 44.8796 55.8363 44.2566C54.6806 43.3489 54.1873 41.8493 53.2627 40.7077C52.2649 39.4759 50.7963 38.7148 49.2459 38.323C48.9387 38.2441 48.6314 38.1821 48.3213 38.1341C46.444 37.8353 44.5272 37.9847 42.6273 38.0947C41.8747 38.137 41.1164 38.1736 40.3582 38.1736C39.2081 38.1736 38.0637 38.089 36.9502 37.8128ZM40.4399 47.8168C39.8959 47.6674 39.3237 47.4785 38.9544 47.0501C38.2328 46.2072 38.5485 44.6456 39.2166 43.8648C39.9635 42.991 41.2348 42.6724 42.3144 42.4582C44.2341 42.0833 46.1931 41.9142 48.1494 41.9508C48.9556 41.9677 49.8097 42.0354 50.4693 42.5033C51.2332 43.0445 51.5602 43.9973 51.842 44.888C51.8928 45.0515 51.9463 45.2206 51.9548 45.387C51.9604 45.4743 51.9548 45.5617 51.9322 45.6491C51.8702 45.8887 51.6842 46.0747 51.501 46.2411C50.0549 47.5349 48.1381 48.2396 46.2044 48.4313C45.7985 48.4736 45.3926 48.4905 44.9867 48.4905C43.4532 48.4905 41.9198 48.2227 40.4399 47.814V47.8168ZM64.5436 54.6862C64.4281 54.6721 64.3266 54.6045 64.2336 54.5397C63.7036 54.1704 63.1962 53.7476 62.8524 53.2007C61.8629 51.6222 61.9531 48.8992 63.4358 47.6758C63.5176 47.6082 63.6078 47.5433 63.7121 47.5293C63.8615 47.5095 64.0052 47.5969 64.1236 47.6899C65.2342 48.5497 65.6261 50.0324 65.8431 51.4164C65.9108 51.8618 65.97 52.3156 65.9446 52.7638C65.9361 52.9104 65.9192 53.0598 65.8882 53.2064C65.7698 53.7927 65.4231 54.3677 64.8763 54.6186C64.7889 54.6609 64.6959 54.6919 64.6 54.6919C64.5831 54.6919 64.5634 54.6919 64.5465 54.6891L64.5436 54.6862ZM54.0097 55.3599C53.6264 55.3599 53.2345 55.3233 52.8625 55.2387C52.0084 55.0386 51.1543 54.8187 50.3142 54.565C49.9506 54.4551 49.5954 54.2831 49.2769 54.0774C48.9612 53.8744 48.8287 53.5362 48.8569 53.15C48.8766 52.8625 48.8879 52.5749 48.9048 52.2733C48.9048 52.0027 48.9133 51.7152 48.9048 51.4277C48.8907 51.0274 49.0091 50.6638 49.2995 50.4016C49.6039 50.1254 49.9365 49.8604 50.2973 49.6659C51.1796 49.1952 52.0845 48.7667 52.9837 48.3298C53.7814 47.9436 54.6101 47.8619 55.4614 48.1438C56.1238 48.3608 56.7834 48.5863 57.4402 48.8203C58.221 49.0993 58.6946 49.618 58.7143 50.4806C58.7256 50.9795 58.7369 51.4784 58.7594 51.9773C58.7961 52.8286 58.3817 53.4206 57.6657 53.8209C56.9638 54.2099 56.2479 54.5735 55.5347 54.9484C55.0611 55.1964 54.5594 55.3628 54.0238 55.3628H54.0125L54.0097 55.3599ZM57.8377 62.889C57.226 62.5874 56.6312 62.2491 56.028 61.9334C55.4276 61.6205 55.1993 61.1301 55.3712 60.4845C55.5685 59.7404 55.7715 58.9962 55.9829 58.2549C56.1661 57.6093 56.5889 57.1358 57.1499 56.8004C58.035 56.276 58.937 55.7715 59.8475 55.2866C60.4084 54.985 60.9778 54.9794 61.5106 55.3966C61.846 55.6587 62.1871 55.9096 62.5338 56.1577C63.1145 56.572 63.2695 57.1612 63.1878 57.8208C63.0919 58.5931 62.9707 59.3627 62.8411 60.1294C62.7199 60.8369 62.3591 61.3978 61.722 61.7558C61.0821 62.1166 60.4366 62.4718 59.7939 62.8242C59.45 63.013 59.0808 63.1201 58.6636 63.1709C58.3873 63.0807 58.0942 63.0215 57.8349 62.8918L57.8377 62.889Z" fill="#00E5C4"/>
</svg>
