<svg width="96" height="96" viewBox="0 0 96 96" fill="none" xmlns="http://www.w3.org/2000/svg">
<circle cx="48" cy="48" r="47" fill="white" stroke="white" stroke-width="2"/>
<path d="M58.2826 47.1785C58.1175 46.9835 57.9158 46.8229 57.6888 46.7047C57.3942 46.551 57.0216 46.473 56.5779 46.473C56.0941 46.473 55.647 46.5625 55.2481 46.7403C54.856 46.9135 54.5041 47.167 54.2163 47.4847C53.9309 47.8013 53.705 48.1845 53.5457 48.6249C53.3863 49.0654 53.3049 49.5541 53.3049 50.0794C53.3049 50.5956 53.384 51.0785 53.5388 51.5133C53.6936 51.948 53.9183 52.3312 54.2037 52.6477C54.4915 52.9655 54.8434 53.219 55.2355 53.3922C55.6344 53.57 56.0815 53.6595 56.5653 53.6595C57.0078 53.6595 57.3838 53.5838 57.6808 53.4346C57.9112 53.3211 58.1152 53.1616 58.2815 52.9666V53.5448H60.6167V46.6003H58.2826V47.1785ZM58.2826 49.9039V50.2297C58.2585 50.5486 58.1267 50.8204 57.8905 51.0361C57.6544 51.2518 57.354 51.363 56.9998 51.363C56.6043 51.363 56.2867 51.2391 56.0552 50.9948C55.8236 50.7505 55.7044 50.4465 55.7044 50.0921C55.7044 49.7204 55.8224 49.4061 56.0552 49.1572C56.2879 48.9083 56.6043 48.7832 56.9998 48.7832C57.354 48.7832 57.6521 48.8911 57.8837 49.1033C58.1152 49.3155 58.2494 49.585 58.2826 49.9039Z" fill="#1C1C20"/>
<path d="M67.2303 47.191C67.0171 46.9651 66.7591 46.7861 66.4737 46.6645C66.1813 46.5384 65.8477 46.4741 65.4832 46.4741C65.0315 46.4741 64.6257 46.567 64.2772 46.7506C63.9871 46.9031 63.7269 47.1085 63.5114 47.3562V46.6014H61.1761V53.547H63.5102V50.1081C63.5263 49.7421 63.6352 49.429 63.8335 49.1778C64.0295 48.9289 64.2932 48.8084 64.6406 48.8084C64.9111 48.8084 65.1267 48.9013 65.2963 49.0918C65.466 49.2822 65.5531 49.5414 65.5531 49.8626V53.5459H67.8872V49.0321C67.8872 48.6605 67.8299 48.3129 67.7175 47.9997C67.6052 47.6866 67.4412 47.4136 67.2303 47.191Z" fill="#1C1C20"/>
<path d="M73.1331 50.0519L75.1634 46.6003H72.3593L70.9939 48.9369H70.7853V44.2133H68.4501V53.5459H70.7853V51.1451H71.0341L72.5141 53.5459H75.4649L73.1331 50.0519Z" fill="#1C1C20"/>
<path d="M25.813 41.5383C25.7488 41.5383 25.6961 41.591 25.6961 41.6553V48.9702C25.6961 49.4565 25.5929 49.8202 25.39 50.0507C25.1905 50.2778 24.9223 50.3891 24.5715 50.3891C24.2562 50.3891 23.9822 50.3088 23.7335 50.1425C23.4709 49.967 23.2004 49.7146 22.9298 49.3923L22.884 49.3372C22.8427 49.2879 22.7693 49.281 22.72 49.3223C22.7178 49.3235 22.7166 49.3258 22.7155 49.3269L20.5763 51.3481C20.5339 51.3882 20.5281 51.4536 20.5614 51.5006L20.5958 51.5488C20.8044 51.8379 21.044 52.1028 21.3088 52.3391C21.5885 52.5881 21.8969 52.8026 22.2282 52.9781C22.5664 53.1582 22.9505 53.3015 23.3678 53.4036C23.7851 53.5057 24.2551 53.5562 24.7687 53.5562C25.4405 53.5562 26.0595 53.453 26.6075 53.2499C27.1589 53.0446 27.6404 52.7383 28.0394 52.3403C28.4383 51.9423 28.7387 51.4616 28.9336 50.9133C29.125 50.3719 29.2224 49.7238 29.2224 48.9862V41.6541C29.2224 41.5899 29.1697 41.5371 29.1055 41.5371H25.813V41.5383Z" fill="#1C1C20"/>
<path d="M41.5899 49.4244C41.6518 49.4428 41.6873 49.5082 41.669 49.5701C41.669 49.5724 41.6678 49.5736 41.6667 49.5759C41.6277 49.6883 41.5853 49.7995 41.5383 49.9085C41.2299 50.6415 40.8057 51.2804 40.2658 51.8264C39.7258 52.3724 39.0838 52.7991 38.341 53.1089C37.5969 53.4174 36.7841 53.5711 35.9037 53.5711C35.8762 53.5711 35.8498 53.5688 35.8223 53.5688C35.7971 53.5688 35.773 53.5711 35.7466 53.5711C34.9201 53.5711 34.144 53.422 33.416 53.1249C32.688 52.8278 32.0587 52.4114 31.5244 51.8769C30.9902 51.3424 30.566 50.7092 30.2519 49.975C29.9378 49.2409 29.7808 48.4448 29.7808 47.5857V47.5524C29.7808 46.715 29.9355 45.9293 30.2428 45.1963C30.55 44.4633 30.9753 43.8233 31.5153 43.2784C32.0552 42.7324 32.6961 42.3057 33.4401 41.9971C34.1841 41.6885 34.9969 41.5337 35.8773 41.5337C35.9049 41.5337 35.9312 41.536 35.9587 41.536C35.984 41.536 36.0092 41.5337 36.0344 41.5337C36.861 41.5337 37.6382 41.6828 38.365 41.9799C39.0919 42.277 39.7224 42.6945 40.2577 43.2291C40.792 43.7636 41.2161 44.3968 41.5303 45.1309C41.5773 45.2399 41.6197 45.3512 41.6598 45.4624C41.6816 45.5232 41.6506 45.5898 41.5899 45.6127C41.5876 45.6138 41.5853 45.6138 41.583 45.615L38.2011 46.6118C38.1461 46.6279 38.0887 46.6026 38.0635 46.551C37.6611 45.7102 36.7956 45.1929 35.8659 45.2342C34.6759 45.2869 33.7095 46.2528 33.6545 47.4434C33.5937 48.7752 34.6541 49.8741 35.9713 49.8741C36.8873 49.8741 37.7173 49.335 38.091 48.4976C38.1151 48.4448 38.1747 48.4173 38.2298 48.4334L41.5899 49.4244Z" fill="#1C1C20"/>
<path d="M52.3455 48.166C51.9912 47.7944 51.5338 47.4915 50.9801 47.2598C51.3492 47.0499 51.676 46.7723 51.9431 46.4431C52.3053 45.9958 52.4888 45.4039 52.4888 44.6869V44.6537C52.4888 44.2315 52.4165 43.8484 52.2744 43.5158C52.1357 43.19 51.9373 42.8929 51.6874 42.6417C51.3252 42.2792 50.8655 42.0005 50.3209 41.8147C49.7832 41.6311 49.1309 41.5382 48.3835 41.5382H42.35C42.2858 41.5382 42.233 41.5898 42.233 41.6552V53.4495C42.233 53.5137 42.2846 53.5665 42.35 53.5665H48.4271C49.8589 53.5665 50.9904 53.2682 51.7906 52.6809C52.608 52.081 53.023 51.2345 53.023 50.1677V50.1344C53.0218 49.3005 52.7948 48.6375 52.3455 48.166ZM48.9418 45.3534C48.9418 45.6333 48.8421 45.8329 48.6357 45.9636C48.4064 46.1105 48.0556 46.185 47.5936 46.185H45.8637C45.7995 46.185 45.7468 46.1323 45.7468 46.068V44.6216C45.7468 44.5573 45.7995 44.5046 45.8637 44.5046H47.6601C48.1072 44.5046 48.4408 44.5803 48.6529 44.7294C48.8466 44.867 48.9406 45.0597 48.9406 45.3201V45.3534H48.9418ZM49.4244 49.6836V49.7169C49.4244 49.9991 49.3201 50.2078 49.1046 50.3558C48.8707 50.5164 48.5199 50.5978 48.0602 50.5978H45.8637C45.7995 50.5978 45.7468 50.5451 45.7468 50.4808V48.9357C45.7468 48.8715 45.7995 48.8187 45.8637 48.8187H48.027C48.5279 48.8187 48.8948 48.9013 49.116 49.0653C49.3235 49.2202 49.4244 49.4221 49.4244 49.6836Z" fill="#1C1C20"/>
</svg>
