<svg width="96" height="96" viewBox="0 0 96 96" fill="none" xmlns="http://www.w3.org/2000/svg">
<circle cx="48" cy="48" r="47" fill="white" stroke="white" stroke-width="2"/>
<g clip-path="url(#clip0_1_8231)">
<path d="M47.5096 45.7012H51.2538V46.5125H48.4308V48.9466H51.0458V49.7279H48.4308V53.0334H47.5096V45.7012Z" fill="#6E6E70"/>
<mask id="mask0_1_8231" style="mask-type:luminance" maskUnits="userSpaceOnUse" x="11" y="39" width="73" height="19">
<path d="M83.1085 39.5107H11.1085V57.5107H83.1085V39.5107Z" fill="white"/>
</mask>
<g mask="url(#mask0_1_8231)">
<path d="M52.2641 47.7746H53.1852V53.0334H52.2641V47.7746ZM53.2744 46.3022C53.2744 46.6327 53.0664 46.9032 52.7098 46.9032C52.3829 46.9032 52.1749 46.6327 52.1749 46.3022C52.1749 45.9716 52.4127 45.7012 52.7395 45.7012C53.0367 45.7012 53.2744 45.9716 53.2744 46.3022Z" fill="#6E6E70"/>
</g>
<mask id="mask1_1_8231" style="mask-type:luminance" maskUnits="userSpaceOnUse" x="11" y="39" width="73" height="19">
<path d="M83.1085 39.5107H11.1085V57.5107H83.1085V39.5107Z" fill="white"/>
</mask>
<g mask="url(#mask1_1_8231)">
<path d="M54.6711 49.1869C54.6711 48.646 54.6711 48.1952 54.6414 47.7745H55.4437L55.5031 48.6459H55.5328C55.7705 48.1351 56.3648 47.6543 57.1969 47.6543C57.8803 47.6543 58.9501 48.075 58.9501 49.9081V53.0633H58.0289V49.9982C58.0289 49.1568 57.7317 48.4356 56.87 48.4356C56.2757 48.4356 55.8002 48.8864 55.6517 49.4273C55.622 49.5475 55.5922 49.6977 55.5922 49.878V53.0333H54.6711V49.1869Z" fill="#6E6E70"/>
</g>
<mask id="mask2_1_8231" style="mask-type:luminance" maskUnits="userSpaceOnUse" x="11" y="39" width="73" height="19">
<path d="M83.1085 39.5107H11.1085V57.5107H83.1085V39.5107Z" fill="white"/>
</mask>
<g mask="url(#mask2_1_8231)">
<path d="M63.021 50.3588C62.0404 50.3288 60.9112 50.5091 60.9112 51.5308C60.9112 52.1618 61.2975 52.4323 61.773 52.4323C62.4267 52.4323 62.8427 52.0116 62.9913 51.5608C63.021 51.4707 63.0507 51.3505 63.0507 51.2603V50.3588H63.021ZM63.8828 51.7712C63.8828 52.2219 63.9125 52.6727 63.9719 53.0333H63.1399L63.0804 52.3722H63.0507C62.7833 52.7929 62.2484 53.1535 61.5352 53.1535C60.5249 53.1535 60.0198 52.4022 60.0198 51.651C60.0198 50.3889 61.0895 49.6977 63.021 49.6977V49.5775C63.021 49.1568 62.9021 48.3455 61.8918 48.3455C61.4164 48.3455 60.9409 48.4957 60.5844 48.7361L60.3764 48.1051C60.7924 47.8346 61.3867 47.6243 62.0107 47.6243C63.5262 47.6243 63.9125 48.7361 63.9125 49.7879V51.7712H63.8828Z" fill="#6E6E70"/>
</g>
<mask id="mask3_1_8231" style="mask-type:luminance" maskUnits="userSpaceOnUse" x="11" y="39" width="73" height="19">
<path d="M83.1085 39.5107H11.1085V57.5107H83.1085V39.5107Z" fill="white"/>
</mask>
<g mask="url(#mask3_1_8231)">
<path d="M65.3686 49.1869C65.3686 48.646 65.3686 48.1952 65.3389 47.7745H66.1412L66.2006 48.6459H66.2303C66.468 48.1351 67.0624 47.6543 67.8944 47.6543C68.5778 47.6543 69.6476 48.075 69.6476 49.9081V53.0633H68.7264V49.9982C68.7264 49.1568 68.4293 48.4356 67.5675 48.4356C66.9732 48.4356 66.4978 48.8864 66.3492 49.4273C66.3195 49.5475 66.2898 49.6977 66.2898 49.878V53.0333H65.3686V49.1869Z" fill="#6E6E70"/>
</g>
<mask id="mask4_1_8231" style="mask-type:luminance" maskUnits="userSpaceOnUse" x="11" y="39" width="73" height="19">
<path d="M83.1085 39.5107H11.1085V57.5107H83.1085V39.5107Z" fill="white"/>
</mask>
<g mask="url(#mask4_1_8231)">
<path d="M74.6397 52.853C74.402 52.9732 73.8671 53.1535 73.2134 53.1535C71.6979 53.1535 70.7173 52.0717 70.7173 50.449C70.7173 48.8262 71.7573 47.6543 73.3917 47.6543C73.9265 47.6543 74.402 47.8045 74.6397 47.9247L74.4317 48.676C74.2237 48.5558 73.8671 48.4356 73.3917 48.4356C72.2328 48.4356 71.6385 49.3371 71.6385 50.4189C71.6385 51.651 72.3813 52.3722 73.3619 52.3722C73.8671 52.3722 74.2237 52.2219 74.4614 52.1017L74.6397 52.853Z" fill="#6E6E70"/>
</g>
<mask id="mask5_1_8231" style="mask-type:luminance" maskUnits="userSpaceOnUse" x="11" y="39" width="73" height="19">
<path d="M83.1085 39.5107H11.1085V57.5107H83.1085V39.5107Z" fill="white"/>
</mask>
<g mask="url(#mask5_1_8231)">
<path d="M75.7094 47.7746H76.6306V53.0334H75.7094V47.7746ZM76.7197 46.3022C76.7197 46.6327 76.5117 46.9032 76.1551 46.9032C75.8282 46.9032 75.6202 46.6327 75.6202 46.3022C75.6202 45.9716 75.858 45.7012 76.1848 45.7012C76.482 45.7012 76.7197 45.9716 76.7197 46.3022Z" fill="#6E6E70"/>
</g>
<mask id="mask6_1_8231" style="mask-type:luminance" maskUnits="userSpaceOnUse" x="11" y="39" width="73" height="19">
<path d="M83.1085 39.5107H11.1085V57.5107H83.1085V39.5107Z" fill="white"/>
</mask>
<g mask="url(#mask6_1_8231)">
<path d="M80.7313 50.3588C79.7507 50.3288 78.6215 50.5091 78.6215 51.5308C78.6215 52.1618 79.0078 52.4323 79.4832 52.4323C80.137 52.4323 80.553 52.0116 80.7016 51.5608C80.7313 51.4707 80.761 51.3505 80.761 51.2603V50.3588H80.7313ZM81.6227 51.7712C81.6227 52.2219 81.6525 52.6727 81.7119 53.0333H80.8799L80.8204 52.3722H80.7907C80.5233 52.7929 79.9884 53.1535 79.2752 53.1535C78.2649 53.1535 77.7598 52.4022 77.7598 51.651C77.7598 50.3889 78.8295 49.6977 80.761 49.6977V49.5775C80.761 49.1568 80.6421 48.3455 79.6318 48.3455C79.1564 48.3455 78.6809 48.4957 78.3244 48.7361L78.1163 48.1051C78.5324 47.8346 79.1267 47.6243 79.7507 47.6243C81.2662 47.6243 81.6525 48.7361 81.6525 49.7879V51.7712H81.6227Z" fill="#6E6E70"/>
</g>
<path d="M84 45.3105H83.0789V53.0334H84V45.3105Z" fill="#6E6E70"/>
<mask id="mask7_1_8231" style="mask-type:luminance" maskUnits="userSpaceOnUse" x="12" y="39" width="72" height="18">
<path d="M84 39H12V57H84V39Z" fill="white"/>
</mask>
<g mask="url(#mask7_1_8231)">
<path d="M14.8229 47.8647C15.239 47.8647 15.5361 47.7445 15.7738 47.4741C16.0116 47.2036 16.1007 46.9031 16.1007 46.5125C16.1007 46.1218 15.9818 45.7913 15.7441 45.5208C15.5064 45.2804 15.2092 45.1302 14.8229 45.1302H13.5452V47.8347H14.8229V47.8647ZM12 43.6277H14.7932C15.3281 43.6277 15.7738 43.7178 16.1601 43.8981C16.5464 44.0784 16.8436 44.2888 17.0516 44.5893C17.2893 44.8597 17.4379 45.1602 17.5567 45.4908C17.6756 45.8213 17.7053 46.1218 17.7053 46.4223C17.7053 47.0233 17.5865 47.5342 17.3487 47.9849C17.111 48.4357 16.7544 48.7963 16.279 49.0668L18.2402 53.0334H16.4573L14.7338 49.3072H13.5452V53.0033H12V43.6277Z" fill="#0055A1"/>
</g>
<mask id="mask8_1_8231" style="mask-type:luminance" maskUnits="userSpaceOnUse" x="12" y="39" width="72" height="18">
<path d="M84 39H12V57H84V39Z" fill="white"/>
</mask>
<g mask="url(#mask8_1_8231)">
<path d="M21.7764 51.8914C22.1032 51.8914 22.4004 51.8313 22.6678 51.6811C22.9353 51.5308 23.173 51.3505 23.3513 51.1101C23.5296 50.8697 23.6781 50.5993 23.7673 50.2687C23.8564 49.9382 23.9159 49.6076 23.9159 49.2771C23.9159 48.9165 23.8564 48.5859 23.7673 48.2854C23.6781 47.9849 23.5296 47.6844 23.3513 47.474C23.173 47.2336 22.9353 47.0533 22.6678 46.9031C22.4004 46.7528 22.1032 46.6927 21.7764 46.6927C21.4495 46.6927 21.1523 46.7528 20.8849 46.9031C20.6175 47.0533 20.4095 47.2336 20.2015 47.474C20.0232 47.7144 19.8746 47.9849 19.7854 48.2854C19.6963 48.5859 19.6369 48.9465 19.6369 49.2771C19.6369 49.6377 19.6963 49.9682 19.7854 50.2687C19.8746 50.5993 20.0232 50.8697 20.2015 51.1101C20.3797 51.3505 20.6175 51.5308 20.8849 51.6811C21.1523 51.8313 21.4495 51.8914 21.7764 51.8914ZM21.7764 53.2136C21.3009 53.2136 20.8255 53.1235 20.4095 52.9131C19.9935 52.7028 19.6369 52.4323 19.31 52.0717C18.9831 51.7111 18.7454 51.2904 18.5671 50.8397C18.3888 50.3589 18.2997 49.848 18.2997 49.3372C18.2997 48.7963 18.3888 48.2854 18.5671 47.8346C18.7454 47.3538 18.9831 46.9632 19.31 46.6026C19.6072 46.242 19.9935 45.9715 20.4095 45.7612C20.8255 45.5508 21.2712 45.4607 21.7764 45.4607C22.2518 45.4607 22.7273 45.5508 23.1433 45.7612C23.5593 45.9715 23.9159 46.242 24.2427 46.6026C24.5696 46.9632 24.8073 47.3538 24.9856 47.8346C25.1639 48.3155 25.253 48.8263 25.253 49.3372C25.253 49.8781 25.1639 50.3889 24.9856 50.8397C24.8073 51.3205 24.5696 51.7111 24.2427 52.0717C23.9159 52.4323 23.5593 52.7028 23.1433 52.9131C22.7273 53.1235 22.2815 53.2136 21.7764 53.2136Z" fill="#0055A1"/>
</g>
<mask id="mask9_1_8231" style="mask-type:luminance" maskUnits="userSpaceOnUse" x="12" y="39" width="72" height="18">
<path d="M84 39H12V57H84V39Z" fill="white"/>
</mask>
<g mask="url(#mask9_1_8231)">
<path d="M28.373 51.8314C28.4919 51.8314 28.6108 51.8314 28.7593 51.8014C28.9079 51.7713 29.0268 51.7413 29.1753 51.6812C29.2942 51.6211 29.4131 51.5009 29.5022 51.3807C29.5914 51.2304 29.6211 51.0501 29.6211 50.8097C29.6211 50.5994 29.5914 50.4191 29.5022 50.2688C29.4131 50.1186 29.3239 50.0284 29.2051 49.9383C29.0862 49.8481 28.9376 49.8181 28.789 49.788C28.6405 49.758 28.5216 49.758 28.373 49.758H27.3033V51.8615H28.373V51.8314ZM28.3136 48.586C28.4325 48.586 28.5513 48.586 28.6702 48.556C28.789 48.5259 28.9079 48.4658 28.9971 48.4057C29.0862 48.3456 29.1753 48.2254 29.2348 48.1353C29.2942 48.0151 29.3239 47.8949 29.3239 47.7146C29.3239 47.5343 29.2942 47.4141 29.2348 47.2939C29.1753 47.1737 29.0862 47.0835 28.9971 47.0234C28.9079 46.9633 28.789 46.9032 28.6702 46.8732C28.5513 46.8431 28.4325 46.8431 28.3136 46.8431H27.3033V48.6161H28.3136V48.586ZM26.085 45.6411H28.373C28.7296 45.6411 29.0268 45.7012 29.2942 45.7914C29.5616 45.8815 29.7994 46.0318 29.9777 46.2121C30.1559 46.3924 30.3045 46.5727 30.3937 46.8131C30.4828 47.0535 30.5422 47.2939 30.5422 47.5643C30.5422 47.8348 30.5125 48.0451 30.4234 48.2254C30.3342 48.4057 30.2451 48.586 30.1262 48.7062C30.0074 48.8264 29.8885 48.9166 29.7696 49.0067C29.6508 49.0668 29.5616 49.0969 29.5022 49.0969C29.6211 49.0969 29.7696 49.157 29.9182 49.2171C30.0668 49.2772 30.2154 49.3974 30.364 49.5176C30.5125 49.6678 30.6314 49.8481 30.7205 50.0585C30.8097 50.2989 30.8691 50.5693 30.8691 50.8698C30.8691 51.2605 30.8097 51.591 30.6908 51.8615C30.572 52.1319 30.3937 52.3423 30.1559 52.5226C29.9479 52.7029 29.6805 52.793 29.3834 52.8832C29.0862 52.9433 28.7593 53.0034 28.4027 53.0034H26.1147V45.6411H26.085Z" fill="#0055A1"/>
</g>
<path d="M33.2761 45.6411H32.0281V53.0334H33.2761V45.6411Z" fill="#0055A1"/>
<path d="M34.6727 45.6411H35.1482L39.1597 50.1787V45.6411H40.4078V53.0334H40.1106L35.9208 48.4658V53.0334H34.6727V45.6411Z" fill="#0055A1"/>
<mask id="mask10_1_8231" style="mask-type:luminance" maskUnits="userSpaceOnUse" x="12" y="39" width="72" height="18">
<path d="M84 39H12V57H84V39Z" fill="white"/>
</mask>
<g mask="url(#mask10_1_8231)">
<path d="M42.2798 50.9299C42.3689 51.02 42.4581 51.1402 42.5769 51.2604C42.6958 51.3806 42.8146 51.4708 42.9335 51.591C43.0821 51.6811 43.2306 51.7713 43.3792 51.8314C43.5575 51.8915 43.7358 51.9215 43.9438 51.9215C44.3301 51.9215 44.6273 51.8314 44.8056 51.621C44.9838 51.4107 45.1027 51.1703 45.1027 50.8998C45.1027 50.7495 45.073 50.5993 45.0136 50.4791C44.9541 50.3589 44.865 50.2387 44.7461 50.1485C44.6273 50.0584 44.449 49.9682 44.241 49.9081C44.033 49.848 43.7952 49.7579 43.4981 49.6978C43.2009 49.6377 42.9335 49.5175 42.6958 49.3973C42.4878 49.247 42.2798 49.0968 42.1312 48.8864C41.9826 48.7061 41.8637 48.4958 41.8043 48.2554C41.7449 48.015 41.6855 47.7746 41.6855 47.5342C41.6855 47.2637 41.7449 46.9933 41.834 46.7228C41.9232 46.4824 42.0718 46.242 42.25 46.0617C42.4283 45.8814 42.6958 45.7011 42.9632 45.5809C43.2604 45.4607 43.5872 45.4006 43.9735 45.4006C44.3301 45.4006 44.6273 45.4307 44.8947 45.5208C45.1324 45.611 45.3701 45.7011 45.5187 45.8213C45.697 45.9415 45.8159 46.0617 45.905 46.1819C45.9942 46.3021 46.0536 46.3923 46.113 46.4223L45.281 47.2938C45.2513 47.2637 45.1919 47.2036 45.1324 47.1435C45.073 47.0534 44.9541 46.9933 44.865 46.9031C44.7461 46.843 44.6273 46.7529 44.4787 46.6928C44.3301 46.6327 44.1518 46.6026 43.9735 46.6026C43.7952 46.6026 43.6467 46.6327 43.5278 46.6928C43.4089 46.7529 43.2901 46.813 43.2009 46.9031C43.1118 46.9933 43.0524 47.0834 43.0226 47.1736C42.9929 47.2637 42.9632 47.3539 42.9632 47.444C42.9632 47.5642 42.9929 47.6844 43.0226 47.8046C43.0524 47.8948 43.1415 48.015 43.2306 48.1051C43.3198 48.1953 43.4684 48.2854 43.6467 48.3455C43.825 48.4056 44.0627 48.4657 44.3301 48.5258C44.5976 48.5859 44.8353 48.6761 45.073 48.7963C45.3107 48.9165 45.5187 49.0667 45.697 49.247C45.8753 49.4273 46.0239 49.6677 46.1427 49.9382C46.2616 50.2086 46.321 50.5392 46.321 50.8998C46.321 51.2304 46.2616 51.5309 46.1427 51.8013C46.0239 52.0718 45.8456 52.3122 45.6376 52.5225C45.4296 52.7329 45.1621 52.8831 44.8947 53.0033C44.5975 53.1235 44.2707 53.1836 43.9438 53.1836C43.6169 53.1836 43.3198 53.1536 43.0524 53.0634C42.7849 52.9733 42.5472 52.8531 42.3392 52.7329C42.1312 52.5826 41.9232 52.4324 41.7746 52.2821C41.626 52.1319 41.4775 51.9516 41.3883 51.8314L42.2798 50.9299Z" fill="#0055A1"/>
</g>
<mask id="mask11_1_8231" style="mask-type:luminance" maskUnits="userSpaceOnUse" x="12" y="39" width="72" height="18">
<path d="M84 39H12V57H84V39Z" fill="white"/>
</mask>
<g mask="url(#mask11_1_8231)">
<path d="M47.5692 54.5959C47.7772 54.3856 48.0446 54.2654 48.3715 54.2654C48.8172 54.2654 49.1144 54.4156 49.3224 54.6861C49.4412 54.8363 49.5006 55.0166 49.5006 55.1669H48.9658C48.9361 55.0467 48.8766 54.9565 48.8469 54.8964C48.7578 54.7762 48.6092 54.7161 48.4309 54.7161C48.2229 54.7161 48.0743 54.8063 47.9852 54.9565C47.8663 55.1068 47.8069 55.3472 47.8069 55.6477C47.8069 55.9482 47.8663 56.1585 47.9852 56.3088C48.104 56.459 48.2526 56.5191 48.4309 56.5191C48.6092 56.5191 48.7578 56.459 48.8469 56.3388C48.9063 56.2787 48.9361 56.1585 48.9955 56.0383H49.5304C49.4709 56.3388 49.3521 56.5492 49.1738 56.7295C48.9955 56.9098 48.7281 56.9999 48.4309 56.9999C48.0743 56.9999 47.7772 56.8797 47.5692 56.6393C47.3612 56.3989 47.2423 56.0684 47.2423 55.6477C47.1829 55.1969 47.3017 54.8363 47.5692 54.5959Z" fill="#0055A1"/>
</g>
<mask id="mask12_1_8231" style="mask-type:luminance" maskUnits="userSpaceOnUse" x="12" y="39" width="72" height="18">
<path d="M84 39H12V57H84V39Z" fill="white"/>
</mask>
<g mask="url(#mask12_1_8231)">
<path d="M51.4619 54.7762V55.4673H52.0562C52.175 55.4673 52.2642 55.4673 52.3236 55.4373C52.4128 55.3772 52.4722 55.287 52.4722 55.1368C52.4722 54.9865 52.4128 54.8663 52.3236 54.8062C52.2642 54.7762 52.175 54.7461 52.0859 54.7461H51.4619V54.7762ZM52.5911 54.3855C52.6802 54.4156 52.7693 54.4757 52.8288 54.5658C52.8882 54.6259 52.9179 54.7161 52.9476 54.7762C52.9774 54.8663 53.0071 54.9565 53.0071 55.0466C53.0071 55.1668 52.9774 55.287 52.9179 55.4072C52.8585 55.5274 52.7396 55.6176 52.6208 55.6777C52.7396 55.7378 52.8288 55.7979 52.8882 55.888C52.9476 55.9782 52.9774 56.1284 52.9774 56.3087V56.489C52.9774 56.6092 52.9774 56.6994 52.9774 56.7294C52.9774 56.7895 53.0368 56.8496 53.0665 56.8797V56.9398H52.4722C52.4425 56.8797 52.4425 56.8496 52.4425 56.7895C52.4425 56.7294 52.4128 56.6393 52.4128 56.5491V56.3087C52.4128 56.1284 52.383 56.0383 52.3236 55.9782C52.2642 55.9181 52.175 55.888 52.0265 55.888H51.4916V56.9097H50.927V54.3254H52.175C52.3533 54.3254 52.5019 54.3254 52.5911 54.3855Z" fill="#0055A1"/>
</g>
<path d="M54.5522 54.3254V56.9398H56.5432V56.459H55.0871V55.7979H56.3649V55.3471H55.0871V54.7762H56.454V54.3254H54.5522Z" fill="#0055A1"/>
<mask id="mask13_1_8231" style="mask-type:luminance" maskUnits="userSpaceOnUse" x="12" y="39" width="72" height="18">
<path d="M84 39H12V57H84V39Z" fill="white"/>
</mask>
<g mask="url(#mask13_1_8231)">
<path d="M58.5044 54.7762V56.489H59.0095C59.277 56.489 59.4552 56.3688 59.5444 56.0984C59.6038 55.9481 59.6335 55.7979 59.6335 55.5875C59.6335 55.3171 59.6038 55.1067 59.5147 54.9865C59.4255 54.8363 59.277 54.7762 59.0095 54.7762H58.5044ZM59.485 54.3555C59.6633 54.4156 59.8118 54.5358 59.9307 54.686C60.0198 54.8062 60.0793 54.9565 60.109 55.1067C60.1387 55.257 60.1684 55.4072 60.1684 55.5274C60.1684 55.888 60.109 56.1585 59.9604 56.4289C59.7821 56.7595 59.485 56.9097 59.0987 56.9097H57.9695V54.3254H59.0987C59.2472 54.3254 59.3958 54.3254 59.485 54.3555Z" fill="#0055A1"/>
</g>
<path d="M62.0702 54.3254H61.5353V56.9398H62.0702V54.3254Z" fill="#0055A1"/>
<path d="M63.3777 54.3254V54.7762H64.18V56.9398H64.7149V54.7762H65.4875V54.3254H63.3777Z" fill="#0055A1"/>
<mask id="mask14_1_8231" style="mask-type:luminance" maskUnits="userSpaceOnUse" x="12" y="39" width="72" height="18">
<path d="M84 39H12V57H84V39Z" fill="white"/>
</mask>
<g mask="url(#mask14_1_8231)">
<path d="M68.8452 54.3254H69.4098V55.9481C69.4098 56.1284 69.4395 56.2486 69.4692 56.3388C69.5287 56.489 69.6772 56.5491 69.8852 56.5491C70.0933 56.5491 70.2418 56.489 70.3013 56.3388C70.331 56.2486 70.3607 56.1284 70.3607 55.9481V54.3254H70.9253V55.9481C70.9253 56.2186 70.8956 56.459 70.8064 56.6092C70.6578 56.8797 70.331 57.0299 69.8852 57.0299C69.4395 57.0299 69.1424 56.8797 68.9641 56.6092C68.8749 56.459 68.8452 56.2486 68.8452 55.9481V54.3254Z" fill="#0055A1"/>
</g>
<path d="M74.0454 54.3254V56.1284L73.0054 54.3254H72.4408V56.9398H72.946V55.0767L74.0157 56.9398H74.5506V54.3254H74.0454Z" fill="#0055A1"/>
<path d="M76.5713 54.3254H76.0364V56.9398H76.5713V54.3254Z" fill="#0055A1"/>
<mask id="mask15_1_8231" style="mask-type:luminance" maskUnits="userSpaceOnUse" x="12" y="39" width="72" height="18">
<path d="M84 39H12V57H84V39Z" fill="white"/>
</mask>
<g mask="url(#mask15_1_8231)">
<path d="M79.7507 56.3088C79.8695 56.1586 79.929 55.9182 79.929 55.6177C79.929 55.3172 79.8695 55.1068 79.7507 54.9265C79.6318 54.7763 79.4535 54.6861 79.2455 54.6861C79.0375 54.6861 78.8592 54.7763 78.7404 54.9265C78.6215 55.0768 78.5621 55.3172 78.5621 55.6177C78.5621 55.9182 78.6215 56.1285 78.7404 56.3088C78.8592 56.4591 79.0375 56.5492 79.2455 56.5492C79.4535 56.5492 79.6318 56.4591 79.7507 56.3088ZM80.0776 56.6995C79.8695 56.9098 79.6021 57 79.2158 57C78.8592 57 78.5621 56.9098 78.3541 56.6995C78.0866 56.4591 77.9678 56.0985 77.9678 55.6177C77.9678 55.1369 78.0866 54.7763 78.3541 54.5359C78.5621 54.3255 78.8295 54.2354 79.2158 54.2354C79.5724 54.2354 79.8695 54.3255 80.0776 54.5359C80.345 54.7763 80.4639 55.1369 80.4639 55.6177C80.4936 56.0985 80.345 56.4591 80.0776 56.6995Z" fill="#0055A1"/>
</g>
<path d="M83.4949 54.3254V56.1284L82.4846 54.3254H81.8903V56.9398H82.3954V55.0767L83.4652 56.9398H84V54.3254H83.4949Z" fill="#0055A1"/>
<mask id="mask16_1_8231" style="mask-type:luminance" maskUnits="userSpaceOnUse" x="12" y="39" width="72" height="18">
<path d="M84 39H12V57H84V39Z" fill="white"/>
</mask>
<g mask="url(#mask16_1_8231)">
<path d="M32.8007 43.3272C32.5927 43.0568 32.2955 42.7863 31.9092 42.5459C30.4829 41.7045 28.9674 41.5242 29.3537 39C29.3537 39 28.7594 39.4207 28.2245 40.1119C28.2245 40.1119 28.0759 41.9149 29.9183 42.4558C29.9183 42.4558 28.3434 42.1853 27.8382 41.0134C27.8382 41.0134 27.6599 41.6444 27.7491 42.3055C27.7491 42.3055 28.0165 43.3873 30.3343 43.3272C30.3343 43.3272 29.2646 43.6578 28.1651 43.3573C28.1651 43.3573 28.7 44.3189 30.156 44.379C31.6418 44.4992 32.5629 43.5977 32.8007 43.3272Z" fill="#0055A1"/>
</g>
<mask id="mask17_1_8231" style="mask-type:luminance" maskUnits="userSpaceOnUse" x="12" y="39" width="72" height="18">
<path d="M84 39H12V57H84V39Z" fill="white"/>
</mask>
<g mask="url(#mask17_1_8231)">
<path d="M30.6909 44.5592C31.8498 44.6494 32.9196 44.5592 33.4544 44.9499C33.4544 44.9499 33.395 44.3188 33.0087 43.6577C32.3847 44.3489 31.4338 44.5292 30.6909 44.5592Z" fill="#BC2031"/>
</g>
<mask id="mask18_1_8231" style="mask-type:luminance" maskUnits="userSpaceOnUse" x="12" y="39" width="72" height="18">
<path d="M84 39H12V57H84V39Z" fill="white"/>
</mask>
<g mask="url(#mask18_1_8231)">
<path d="M32.8898 40.1719C32.8898 40.1719 32.3847 40.1719 31.9092 40.6527C31.9092 41.0734 31.9092 41.3438 31.9389 41.6443C31.9389 41.6443 31.7607 41.464 31.7012 40.863C31.4932 41.1034 31.3149 41.464 31.2555 41.9448C31.2555 41.9448 32.1469 42.2153 32.6224 42.9064C32.5927 42.9064 32.0281 41.6143 32.8898 40.1719Z" fill="#6E6E70"/>
</g>
</g>
<defs>
<clipPath id="clip0_1_8231">
<rect width="72" height="18" fill="white" transform="translate(12 39)"/>
</clipPath>
</defs>
</svg>
