<svg width="96" height="96" viewBox="0 0 96 96" fill="none" xmlns="http://www.w3.org/2000/svg">
<circle cx="48" cy="48" r="47" fill="white" stroke="white" stroke-width="2"/>
<path d="M27.2972 31.1072C24.1617 31.1072 21.6064 33.248 21.6064 35.8798V48.1021C21.8861 47.9261 22.1815 47.7447 22.4926 47.5576L22.4806 47.5623L22.5129 47.5456C23.1584 47.1618 23.8611 46.7631 24.6053 46.3672C25.9499 45.1289 30.7885 40.8472 33.9682 40.3092C38.0664 39.6162 41.0865 40.5537 42.9927 44.4442C43.2747 45.0375 43.4852 45.6623 43.6198 46.3054C45.7887 41.5359 47.7391 36.7503 49.471 31.9488L53.6116 31.2594C53.5802 31.3692 53.5461 31.4837 53.5101 31.5999L54.3641 31.4578C53.9725 32.8328 53.2747 34.6783 52.2707 36.9945C51.4315 38.9324 50.0621 41.6712 47.989 45.9871C51.6206 40.921 54.882 37.2914 57.7734 35.0982C61.2395 32.4664 64.8053 31.3437 68.4707 31.7301C69.2549 31.8114 70.0298 31.9658 70.7853 32.1914C71.223 32.2903 71.6542 32.4161 72.0764 32.5679C71.0417 31.6747 69.5957 31.1192 67.9976 31.1192L27.2972 31.1072Z" fill="#009845"/>
<path d="M48.061 53.9951L49.697 52.4762C50.6278 52.7045 51.4365 52.8875 52.1233 53.0253C52.8094 53.1628 53.3931 53.2569 53.8754 53.3077C55.9014 53.536 57.9524 53.362 59.9111 52.7955C61.8335 52.2339 63.6585 51.2708 65.386 49.9063C67.4646 48.2908 69.1261 46.4723 70.3704 44.4508C71.6148 42.4293 72.3018 40.4718 72.4315 38.5782C72.5422 36.9867 72.1011 35.6505 71.1082 34.5696C70.4294 33.8395 69.5707 33.3008 68.6183 33.0074C68.3416 32.9492 68.0493 32.9031 67.7487 32.8708C63.4378 32.4156 58.6929 35.2125 53.5139 41.2617C48.4779 47.1435 44.5143 53.399 39.4045 64.5269H67.9986C71.134 64.5269 73.6894 62.386 73.6894 59.7533V46.2493L73.5307 46.4209C71.3968 48.6971 68.5202 50.6399 64.901 52.2492C62.689 53.2404 60.3516 53.9235 57.9542 54.2794C55.447 54.64 52.9043 54.681 50.3868 54.4012C49.9626 54.356 49.649 54.32 49.4342 54.2895C49.2193 54.2591 49.0155 54.2277 48.8145 54.1917L48.8929 54.1188L48.6808 54.0911C48.4687 54.0634 48.2621 54.0302 48.061 53.9951Z" fill="#009845"/>
<path d="M36.8012 57.6532C34.0005 59.8872 31.8343 59.0567 30.7148 58.4827C29.0097 57.607 27.619 52.6148 26.3805 51.1927C25.6834 50.3982 24.6127 48.609 22.9749 49.4312C22.4622 49.6886 22.0103 49.9082 21.6138 50.0937V59.7534C21.6138 62.3861 24.1664 64.527 27.3045 64.527H33.2969C35.3035 61.0711 37.2742 58.0841 37.988 56.5975C37.692 56.8789 37.2908 57.2647 36.8012 57.6532Z" fill="#009845"/>
<path d="M33.6003 64.5271H34.0919C34.1872 64.3481 34.2821 64.1709 34.3768 63.9956L33.6003 64.5271Z" fill="#009845"/>
<path d="M32.7684 42.7983C30.7479 43.1933 28.081 44.5221 26.2726 45.5206C27.2344 45.0592 28.2285 44.6153 29.2143 44.2333C30.2287 43.7562 31.1435 43.3502 31.7457 43.1259C32.0879 43.0004 32.4291 42.8878 32.7684 42.7983Z" fill="#009845"/>
<path d="M37.1811 63.5496L37.1332 63.5662L34.635 64.5269H37.9364L37.3269 63.2534L37.1811 63.5496Z" fill="#009845"/>
<path d="M20.4998 49.8002V49.8187C20.5228 49.8021 20.5477 49.7864 20.5717 49.7698L20.4998 49.8002Z" fill="#231F20"/>
<path d="M21.6064 48.1022V35.88C21.6064 33.2482 24.159 31.1073 27.2971 31.1073H67.9985C69.5966 31.1073 71.0417 31.661 72.0773 32.5561C72.8889 32.8458 73.6523 33.2557 74.3422 33.7723C73.361 31.5687 70.8877 30 67.9985 30H27.2971C23.5485 30 20.4998 32.6373 20.4998 35.88V48.8331C20.8262 48.6061 21.1978 48.3606 21.6064 48.1022Z" fill="#231F20"/>
<path d="M73.6884 46.2494V59.7534C73.6884 62.3861 71.1358 64.5269 67.9976 64.5269H39.4017C39.2569 64.8434 39.1112 65.1627 38.9637 65.4875L38.5026 64.7659L38.2803 65.255L37.9327 64.5269H34.6312L33.9498 64.789L34.0881 64.5269H33.5966L33.1041 64.8702L33.3005 64.5306H27.2971C24.1617 64.5306 21.6064 62.3898 21.6064 59.7571V50.0974C21.1711 50.3013 20.8041 50.4665 20.4998 50.5901V59.7534C20.4998 62.996 23.5485 65.6343 27.2971 65.6343H67.9985C71.7462 65.6343 74.7959 62.996 74.7959 59.7534V44.9104C74.45 45.3755 74.0803 45.8224 73.6884 46.2494Z" fill="#231F20"/>
<path d="M40.0989 45.7262C41.0316 47.0863 41.6098 48.658 41.781 50.2986C41.9765 49.8529 42.1904 49.3823 42.4265 48.8812C42.8316 48.023 43.2288 47.1645 43.618 46.3057C43.4834 45.6626 43.2729 45.0378 42.9909 44.4445C41.0847 40.554 38.0646 39.6165 33.9664 40.3095C30.7867 40.8475 25.9481 45.1292 24.6035 46.3675C25.1421 46.0815 25.7 45.7963 26.2708 45.5204C28.0792 44.522 30.7462 43.1932 32.7667 42.7982C35.4124 42.0978 37.9668 42.6312 40.0989 45.7262Z" fill="white"/>
<path d="M35.4825 64.1697C35.4825 64.1697 35.726 63.64 36.0976 62.8169L34.3768 63.9953C34.2822 64.1706 34.1872 64.3478 34.0919 64.5268L33.9536 64.7889L34.635 64.5268L37.1332 63.5662L35.4825 64.1697Z" fill="#231F20"/>
<path d="M21.6064 50.0973C22.0029 49.9127 22.4548 49.6922 22.9675 49.4347C24.6053 48.6125 25.676 50.4018 26.3731 51.1963C27.6144 52.6146 29.005 57.6069 30.7074 58.4863C31.8315 59.063 33.9977 59.8862 36.7993 57.6558C37.2881 57.2673 37.6892 56.8816 37.9889 56.6001C38.0827 56.413 38.1619 56.219 38.2259 56.0197C38.5764 54.8349 37.8856 55.9034 36.5171 56.9923C33.7155 59.2208 31.5493 58.3986 30.4307 57.8228C28.7247 56.9462 27.3341 51.953 26.0965 50.5328C25.4002 49.7383 24.3287 47.949 22.6909 48.7712C21.8203 49.2086 21.1232 49.5362 20.5772 49.7706C20.5533 49.7872 20.5284 49.8029 20.5053 49.8195C19.0667 50.8115 18.7532 51.3135 20.5053 50.591C20.8041 50.4646 21.1711 50.3012 21.6064 50.0973Z" fill="#231F20"/>
<path d="M75.0441 34.3685C74.8222 34.1561 74.5878 33.957 74.3423 33.7724C73.6524 33.2558 72.889 32.8458 72.0774 32.5562C71.6552 32.4043 71.224 32.2786 70.7864 32.1797C72.177 32.6005 73.3451 33.2637 74.2906 34.1692C75.7176 35.5405 76.3631 37.2162 76.2272 39.1965C76.0606 41.6056 74.9107 43.9476 72.7773 46.2226C70.644 48.4976 67.7678 50.4406 64.1485 52.0518C61.9364 53.0435 59.5986 53.7266 57.2008 54.082C54.6937 54.4439 52.1509 54.4851 49.6334 54.2047C49.3328 54.1724 49.0865 54.1447 48.8956 54.1207L48.8173 54.1936C49.0183 54.2296 49.2249 54.2628 49.437 54.2914C49.6491 54.32 49.9654 54.3579 50.3896 54.4031C52.907 54.6829 55.4498 54.6419 57.957 54.2813C60.3544 53.9254 62.6918 53.2423 64.9038 52.2511C68.5224 50.64 71.399 48.6972 73.5335 46.4228L73.6922 46.2512C74.0838 45.8243 74.4532 45.3773 74.7988 44.9123C76.1249 43.1147 76.8528 41.2762 76.9825 39.3968C77.1177 37.4165 76.4716 35.7404 75.0441 34.3685Z" fill="#231F20"/>
<path d="M45.7759 49.1826C46.5284 48.0599 47.2661 46.9947 47.9891 45.987C50.0622 41.6711 51.4316 38.9277 52.2708 36.9945C53.2741 34.6801 53.9719 32.8346 54.3641 31.4578L53.5102 31.5999C53.1044 32.9342 52.4399 34.6654 51.5164 36.7933C50.5125 39.1076 48.599 43.2374 45.7759 49.1826Z" fill="#231F20"/>
<path d="M67.7423 32.8708C68.0429 32.9031 68.3325 32.9493 68.6119 33.0074C68.0838 32.8402 67.5399 32.728 66.9889 32.6724C62.6767 32.2178 57.9321 35.0145 52.755 41.0624C47.6498 47.0273 43.7176 53.3419 38.5082 64.765L38.9693 65.4866C39.1169 65.1618 39.2626 64.8407 39.4074 64.526C44.5135 53.3981 48.477 47.1426 53.5167 41.2608C58.6889 35.2129 63.4308 32.4162 67.7423 32.8708Z" fill="#231F20"/>
<path d="M57.7734 35.0912C54.8839 37.2862 51.6225 40.9173 47.9891 45.9846C47.2661 46.9935 46.5284 48.0587 45.7759 49.1802C48.5996 43.2369 50.5131 39.108 51.5164 36.7937C52.4386 34.6651 53.1032 32.934 53.5102 31.6003C53.5461 31.484 53.5803 31.3696 53.6116 31.2598L49.471 31.9491C47.7404 36.7476 45.79 41.5331 43.6198 46.3057C43.2294 47.167 42.8323 48.0255 42.4283 48.8812C42.1913 49.3823 41.9774 49.8529 41.7828 50.2986C41.9264 51.5809 41.8415 52.8784 41.532 54.131C41.1954 55.3952 38.0471 61.7993 37.3278 63.2536L37.9373 64.527L38.285 65.2551L38.5072 64.766C43.7175 53.3429 47.6479 47.0283 52.7549 41.0625C57.9339 35.014 62.6791 32.217 66.9906 32.6716C67.5427 32.7273 68.0875 32.8399 68.6164 33.0075C69.5689 33.3009 70.4275 33.8397 71.1063 34.5698C72.0986 35.6494 72.5397 36.9856 72.4296 38.5784C72.2975 40.4713 71.6104 42.4288 70.3686 44.451C69.1267 46.4731 67.4652 48.2916 65.3842 49.9065C63.6554 51.2697 61.8295 52.2328 59.9064 52.7957C57.9478 53.3621 55.8967 53.5362 53.8708 53.3078C53.3931 53.2571 52.8093 53.163 52.1186 53.0255C51.4279 52.888 50.6228 52.7043 49.6924 52.4764L48.061 53.9953C48.2621 54.0304 48.4686 54.0636 48.6807 54.0922L48.8928 54.1199C49.0865 54.1439 49.3327 54.1716 49.6306 54.2039C52.148 54.4843 54.6909 54.443 57.198 54.0811C59.5958 53.7257 61.9335 53.0427 64.1457 52.051C67.7643 50.4386 70.6406 48.4955 72.7745 46.2218C74.9085 43.948 76.0584 41.606 76.2244 39.1957C76.3609 37.2154 75.7154 35.5396 74.2878 34.1684C73.3435 33.2616 72.1754 32.5984 70.7835 32.1789C70.028 31.9533 69.2531 31.7988 68.4689 31.7175C64.8054 31.3348 61.2402 32.4594 57.7734 35.0912Z" fill="white"/>
<path d="M22.4926 47.5579L22.5129 47.5459L22.4807 47.5625L22.4926 47.5579Z" fill="#231F20"/>
<path d="M37.1331 63.5662L37.1811 63.5495L37.3268 63.2533C38.0461 61.799 41.1944 55.3949 41.531 54.1307C41.8402 52.8781 41.9248 51.5805 41.7809 50.2984C41.6094 48.6577 41.0309 47.086 40.0979 45.726C37.9659 42.6319 35.4114 42.0976 32.7675 42.798C32.4282 42.8903 32.087 42.9973 31.7448 43.1247C31.1426 43.3498 30.2315 43.7558 29.2134 44.232C32.2668 43.049 35.2307 42.4298 36.8546 43.3775C40.5221 45.5174 41.7551 50.9286 40.5959 54.1667C39.813 56.3546 36.8399 62.3075 36.8399 62.3075L36.0966 62.8159C35.7277 63.6391 35.4815 64.1687 35.4815 64.1687L37.1331 63.5662Z" fill="#231F20"/>
<path d="M22.6854 48.7702C24.3232 47.949 25.3948 49.7373 26.091 50.5318C27.3323 51.9492 28.7229 56.9424 30.4252 57.8218C31.5485 58.3986 33.7147 59.2208 36.5116 56.9913C37.8802 55.9024 38.5709 54.8339 38.2204 56.0187C38.1564 56.218 38.0772 56.412 37.9834 56.5991C37.2697 58.0857 35.299 61.0728 33.2923 64.5286L33.1042 64.8701L33.6003 64.5305L34.3768 63.9989L36.0976 62.8205L36.8409 62.3121C36.8409 62.3121 39.814 56.3592 40.5969 54.1713C41.7561 50.9333 40.5231 45.5221 36.8556 43.3821C35.2316 42.4344 32.2678 43.0536 29.2144 44.2366C28.2286 44.6186 27.2345 45.0588 26.2727 45.5239C25.7018 45.8007 25.1439 46.0849 24.6054 46.371C23.8612 46.7669 23.1557 47.1655 22.5129 47.5494L22.4927 47.5614C22.1816 47.746 21.8862 47.9274 21.6064 48.1058C21.1979 48.3642 20.8263 48.6097 20.4998 48.8367C18.7255 50.0705 18.2866 50.7459 20.4998 49.8038L20.5717 49.7733C21.1168 49.5352 21.8148 49.2076 22.6854 48.7702Z" fill="white"/>
</svg>
