<svg width="96" height="96" viewBox="0 0 96 96" fill="none" xmlns="http://www.w3.org/2000/svg">
<circle cx="48" cy="48" r="47" fill="white" stroke="white" stroke-width="2"/>
<g clip-path="url(#clip0_1_6888)">
<path fill-rule="evenodd" clip-rule="evenodd" d="M48.0691 32.0071L54.9159 37.6458V42.0763L48.0691 36.4376V32.0071ZM48.0691 36.4951L41.2223 42.1337V46.5643L48.0691 40.9256V36.4951ZM48.0691 41.1556L54.9159 46.7943V51.2249L48.0691 45.5859V41.1556ZM48.0691 45.6436L41.2223 51.2823H48.0691V45.6436Z" fill="#515563" stroke="#363637" stroke-width="0.0652885" stroke-miterlimit="2.613"/>
<path fill-rule="evenodd" clip-rule="evenodd" d="M19.8567 61.9576V61.7324H19.9044C20.0625 61.7324 20.1901 61.6861 20.285 61.5921C20.3814 61.4981 20.4806 61.3219 20.5824 61.0623L22.5042 56.1143H22.6883L24.8727 61.3633C24.9743 61.6088 25.1287 61.7324 25.3358 61.7324H25.3591V61.9576H22.759V61.7324H22.9984C23.2121 61.7324 23.3523 61.7055 23.4216 61.6502C23.4899 61.5961 23.5231 61.5202 23.5231 61.4238C23.5231 61.3697 23.505 61.3005 23.469 61.2167L23.0601 60.2054H21.2924L20.9605 61.0623C20.9092 61.1922 20.8835 61.3029 20.8835 61.3942C20.8835 61.5281 20.9412 61.6178 21.057 61.6644C21.1727 61.7094 21.3338 61.7327 21.5394 61.7327H21.5693V61.9579L19.8567 61.9576ZM22.1481 57.9837L21.4393 59.8336H22.9355L22.1481 57.9837ZM25.3603 60.7304H25.5468C25.619 61.0068 25.7744 61.2544 25.992 61.4395C26.2145 61.6348 26.4653 61.7327 26.7434 61.7327C26.9299 61.7327 27.0714 61.6852 27.1681 61.5885C27.2657 61.4921 27.3147 61.3839 27.3147 61.2618C27.3147 61.1641 27.2914 61.078 27.244 61.0033C27.1954 60.9283 27.1329 60.8632 27.0599 60.8117C26.9828 60.7573 26.9118 60.7126 26.8462 60.6778C26.7806 60.643 26.6431 60.5723 26.4345 60.4671C26.0818 60.283 25.8182 60.0914 25.642 59.8919C25.4658 59.6939 25.3769 59.4431 25.3769 59.1408C25.3769 58.9208 25.4295 58.7149 25.5338 58.5233C25.6334 58.3368 25.7803 58.1797 25.9597 58.0678C26.1334 57.9572 26.3352 57.8986 26.5412 57.8991C26.7972 57.8991 27.0239 57.9505 27.2192 58.0524C27.3621 58.1255 27.4546 58.1615 27.4982 58.1615C27.5264 58.1614 27.5543 58.1551 27.5798 58.1432C27.6054 58.1312 27.6281 58.1138 27.6463 58.0923C27.6889 58.0472 27.7119 57.9831 27.7158 57.8991H27.8999L27.9691 59.2037H27.7853C27.7146 58.9102 27.5755 58.6762 27.3658 58.5012C27.156 58.3262 26.9335 58.2389 26.6957 58.2389C26.5297 58.2389 26.4022 58.2839 26.316 58.3752C26.2299 58.4665 26.1873 58.5695 26.1873 58.685C26.1873 58.7739 26.2117 58.8549 26.2595 58.9256C26.3069 58.9975 26.3725 59.0631 26.4563 59.1239C26.54 59.184 26.6337 59.2408 26.7392 59.2937L27.0055 59.4273C27.2177 59.5316 27.3966 59.632 27.542 59.7269C27.6874 59.8233 27.8225 59.9639 27.9458 60.1488C28.0694 60.3353 28.1311 60.559 28.1311 60.8229C28.1311 61.058 28.0722 61.2705 27.9537 61.4622C27.8369 61.6523 27.6705 61.807 27.4725 61.9098C27.2665 62.0187 27.0365 62.0744 26.8036 62.0718C26.6376 62.0718 26.4629 62.0386 26.28 61.9727C26.0331 61.8787 25.8941 61.8324 25.8632 61.8324C25.7411 61.8324 25.6586 61.9122 25.616 62.0718H25.4295L25.3603 60.7304ZM28.6177 60.7304H28.8042C28.8764 61.0068 29.0319 61.2544 29.2495 61.4395C29.4719 61.6348 29.7228 61.7327 30.0009 61.7327C30.1874 61.7327 30.3288 61.6852 30.4253 61.5885C30.5232 61.4921 30.5719 61.3839 30.5719 61.2618C30.5719 61.1641 30.5486 61.078 30.5011 61.0033C30.4526 60.9284 30.3902 60.8633 30.3174 60.8117C30.249 60.7626 30.1776 60.7179 30.1037 60.6778C29.967 60.6064 29.8298 60.5362 29.692 60.4671C29.3392 60.283 29.0757 60.0914 28.8994 59.8919C28.7232 59.6939 28.6344 59.4431 28.6344 59.1408C28.6344 58.9208 28.6873 58.7149 28.7915 58.5233C28.8912 58.3368 29.0381 58.1797 29.2174 58.0678C29.3912 57.9571 29.593 57.8986 29.799 57.8991C30.055 57.8991 30.2814 57.9505 30.4769 58.0524C30.6199 58.1255 30.7124 58.1615 30.7562 58.1615C30.7844 58.1614 30.8123 58.1552 30.8378 58.1432C30.8633 58.1313 30.8859 58.1139 30.904 58.0923C30.9467 58.0472 30.9696 57.9831 30.9736 57.8991H31.1573L31.2269 59.2037H31.0428C30.9721 58.9102 30.833 58.6762 30.6232 58.5012C30.4138 58.3262 30.191 58.2389 29.9531 58.2389C29.7872 58.2389 29.6599 58.2839 29.5738 58.3752C29.4876 58.4665 29.445 58.5695 29.445 58.685C29.445 58.7739 29.4695 58.8549 29.517 58.9256C29.5644 58.9975 29.6303 59.0631 29.7137 59.1239C29.7975 59.184 29.8912 59.2408 29.997 59.2937L30.2632 59.4273C30.4479 59.5163 30.6271 59.6164 30.7998 59.7269C30.9452 59.8233 31.0803 59.9639 31.2036 60.1488C31.3269 60.3353 31.3889 60.559 31.3889 60.8229C31.3889 61.058 31.3296 61.2705 31.2114 61.4622C31.0946 61.6522 30.9282 61.807 30.7302 61.9098C30.5242 62.0187 30.2943 62.0744 30.0613 62.0718C29.8954 62.0718 29.7207 62.0386 29.5378 61.9727C29.2909 61.8787 29.1518 61.8324 29.121 61.8324C28.9989 61.8324 28.9164 61.9122 28.8741 62.0718H28.6876L28.6177 60.7304ZM33.6598 62.0721C33.3626 62.0721 33.0731 61.9948 32.7902 61.8418C32.5072 61.6874 32.2742 61.4531 32.0928 61.1381C31.9115 60.8229 31.8202 60.4393 31.8202 59.9905C31.8202 59.5993 31.9 59.2442 32.0581 58.9241C32.2165 58.6049 32.4362 58.354 32.7167 58.1714C32.9972 57.9901 33.3113 57.8988 33.6598 57.8988C33.9596 57.8988 34.2516 57.9774 34.5333 58.1343C34.815 58.2914 35.0453 58.5278 35.2267 58.8431C35.4068 59.1583 35.4969 59.5407 35.4969 59.9908C35.4969 60.4396 35.408 60.822 35.2291 61.1369C35.0505 61.451 34.8198 61.6861 34.5384 61.8406C34.2564 61.9948 33.9632 62.0721 33.6598 62.0721ZM33.6598 61.7324C33.9387 61.7324 34.1165 61.5755 34.1939 61.263C34.2697 60.9489 34.3081 60.5246 34.3081 59.9905C34.3081 59.45 34.2697 59.0229 34.1939 58.7092C34.1165 58.3951 33.939 58.2382 33.6598 58.2382C33.5092 58.2382 33.3895 58.2896 33.2995 58.3915C33.2109 58.4943 33.145 58.6279 33.1027 58.7953C33.06 58.9722 33.0337 59.1526 33.0241 59.3342C33.0132 59.5528 33.0081 59.7716 33.0087 59.9905C33.0087 60.5246 33.0471 60.9489 33.1245 61.263C33.2015 61.5758 33.3805 61.7324 33.6598 61.7324ZM39.0539 60.8498L39.261 60.9822C38.8659 61.7091 38.3179 62.0718 37.6194 62.0718C37.2938 62.0718 37.0019 61.9857 36.7443 61.8134C36.4871 61.6423 36.2864 61.4017 36.1437 61.094C36.0008 60.7866 35.9288 60.4432 35.9288 60.0651C35.9288 59.6444 36.0074 59.2687 36.1643 58.938C36.3215 58.6085 36.5349 58.3525 36.8063 58.1711C37.0707 57.9914 37.3834 57.8964 37.7031 57.8985C37.9848 57.8985 38.2345 57.9487 38.453 58.0478C38.6719 58.1482 38.839 58.2766 38.9563 58.4323C39.0733 58.5895 39.1313 58.7476 39.1313 58.9084C39.1313 59.0483 39.0953 59.1786 39.0219 59.2992C38.9499 59.4189 38.816 59.4781 38.6205 59.4781C38.3696 59.4781 38.1985 59.3841 38.1072 59.1949C38.0172 59.006 37.967 58.8234 37.9579 58.6472C37.9425 58.3794 37.8267 58.2458 37.6106 58.2458C37.4383 58.2458 37.2917 58.3474 37.172 58.5508C37.0523 58.7539 36.9931 59.0537 36.9931 59.4488C36.9931 59.8671 37.0484 60.2223 37.1578 60.514C37.2685 60.806 37.4142 61.0245 37.594 61.1675C37.7754 61.3116 37.9709 61.3836 38.1819 61.3836C38.3427 61.3836 38.5023 61.3373 38.6604 61.2445C38.8185 61.1536 38.9496 61.0212 39.0539 60.8498ZM39.5865 61.9576V61.7723H39.6315C39.8477 61.7671 39.9559 61.6517 39.9559 61.4238V58.5692C39.9559 58.4677 39.9341 58.3855 39.8915 58.3196C39.8477 58.254 39.7461 58.2219 39.5865 58.2219V58.0366H41.0673V61.4241C41.0673 61.532 41.0918 61.6172 41.1407 61.6804C41.1885 61.7421 41.2885 61.7729 41.4391 61.7729V61.9582H39.5865V61.9576ZM39.9184 56.8246C39.9184 56.6586 39.9761 56.5184 40.0907 56.4026C40.2049 56.2881 40.3455 56.2303 40.5114 56.2303C40.6901 56.2303 40.8342 56.2932 40.9437 56.4192C41.0531 56.5441 41.1072 56.6789 41.1072 56.8246C41.1072 56.966 41.0534 57.1011 40.9452 57.2284C40.8373 57.3559 40.6931 57.4203 40.5117 57.4203C40.3431 57.4203 40.2031 57.3626 40.0898 57.2453C40.0343 57.1904 39.9905 57.1248 39.9611 57.0525C39.9316 56.9802 39.9171 56.9026 39.9184 56.8246ZM45.3295 61.3467L45.4761 61.4407C45.3343 61.671 45.1892 61.833 45.0387 61.9295C44.887 62.0247 44.7068 62.0724 44.4946 62.0724C44.3382 62.0751 44.184 62.0355 44.0482 61.9579C43.9182 61.8808 43.8384 61.7085 43.8064 61.4407H43.7765C43.3249 61.8615 42.9183 62.0724 42.558 62.0724C42.3407 62.0724 42.1594 62.0017 42.0128 61.8602C41.8674 61.7185 41.7939 61.5308 41.7939 61.2941C41.7939 61.0946 41.8402 60.9069 41.9342 60.7307C42.0282 60.5557 42.2198 60.3668 42.5106 60.1661C42.8014 59.9654 43.2209 59.7568 43.7689 59.5422V58.7252C43.7689 58.6161 43.7381 58.5042 43.6749 58.3921C43.612 58.28 43.4754 58.2231 43.2659 58.2231C43.1516 58.2204 43.0386 58.2475 42.938 58.3017C42.844 58.3534 42.7965 58.4178 42.7965 58.4922C42.7965 58.5568 42.8325 58.6312 42.9044 58.7173C42.9921 58.8231 43.0359 58.9283 43.0359 59.0338C43.0359 59.1614 42.9882 59.2759 42.8941 59.3763C42.7989 59.4766 42.6638 59.5268 42.4888 59.5268C42.3165 59.5268 42.1763 59.479 42.0657 59.3826C41.9562 59.2847 41.9009 59.1535 41.9009 58.986C41.9009 58.7557 41.9846 58.5589 42.1506 58.3942C42.3165 58.2295 42.5251 58.1062 42.7772 58.0236C43.0175 57.9421 43.2694 57.9 43.5232 57.8988C44.4275 57.8988 44.8806 58.254 44.8806 58.9628V61.078C44.8806 61.2246 44.8921 61.3364 44.9166 61.4123C44.9396 61.4882 44.9976 61.5256 45.0901 61.5256C45.1608 61.5256 45.2406 61.4661 45.3295 61.3467ZM43.7689 61.0777V59.8735C43.2067 60.1579 42.9262 60.4898 42.9262 60.8682C42.9262 61.1871 43.0344 61.3467 43.2505 61.3467C43.4165 61.3467 43.5887 61.2566 43.7689 61.0777ZM45.6369 58.3836V58.1754C45.8206 58.0956 46.0047 57.9735 46.19 57.8075C46.3812 57.6339 46.5533 57.4402 46.7032 57.2299C46.8604 57.0126 46.9865 56.7925 47.0805 56.5698H47.2428V58.0363H48.0852V58.3836H47.2428V60.9374C47.2428 61.1212 47.2609 61.2615 47.2969 61.3606C47.3341 61.4594 47.4087 61.5084 47.5221 61.5084C47.7149 61.5084 47.8564 61.3464 47.9452 61.0221L48.155 61.0916C48.0211 61.435 47.8797 61.6831 47.7303 61.8391C47.581 61.9948 47.3625 62.0721 47.0729 62.0721C46.4451 62.0721 46.1314 61.6937 46.1314 60.9374V58.3836H45.6369ZM51.5434 60.7676L51.7453 60.8849C51.6111 61.2031 51.409 61.4881 51.1531 61.72C50.8947 61.9552 50.5592 62.0724 50.146 62.0724C49.7869 62.0724 49.4795 61.9836 49.222 61.8061C48.9668 61.6305 48.7672 61.3853 48.6471 61.0998C48.5184 60.8003 48.4532 60.4775 48.4558 60.1516C48.4558 59.7296 48.5289 59.3448 48.6743 58.999C48.8194 58.6517 49.0231 58.38 49.2818 58.1832C49.5312 57.9899 49.8384 57.8862 50.1539 57.8888C50.3905 57.8888 50.6054 57.9348 50.801 58.0276C50.9978 58.123 51.1702 58.2621 51.3052 58.4341C51.4469 58.6118 51.5548 58.8252 51.631 59.0737C51.7066 59.3231 51.7456 59.5996 51.7456 59.9034H49.5908C49.5908 60.1697 49.6316 60.4179 49.7123 60.647C49.7939 60.8761 49.916 61.0599 50.0819 61.1989C50.2467 61.3388 50.4486 61.4084 50.6852 61.4084C51.0232 61.4084 51.3091 61.1947 51.5434 60.7676ZM49.5905 59.5634H50.6786C50.6786 59.5377 50.6798 59.5056 50.6828 59.463C50.6852 59.4219 50.6865 59.3911 50.6865 59.3702C50.6865 59.0743 50.658 58.8416 50.6015 58.6729C50.545 58.5042 50.477 58.3897 50.3984 58.328C50.3198 58.2664 50.2412 58.2352 50.1617 58.2352C50.0732 58.2352 49.9858 58.27 49.9009 58.341C49.8159 58.4114 49.7428 58.5457 49.6817 58.7436C49.6213 58.9422 49.5905 59.2149 49.5905 59.5634ZM54.5382 62.0721H54.3221V61.5909C54.1138 61.9113 53.8357 62.0721 53.4896 62.0721C53.2705 62.0721 53.061 62.0014 52.8615 61.8612C52.6608 61.7209 52.4973 61.487 52.3691 61.1623C52.2416 60.8371 52.1772 60.42 52.1772 59.9134C52.1772 59.522 52.2386 59.1737 52.3625 58.8685C52.4858 58.5623 52.6542 58.3244 52.8655 58.1533C53.0773 57.9834 53.3077 57.8985 53.5585 57.8985C53.8671 57.8985 54.1223 58.0194 54.3218 58.2612V56.7626C54.3218 56.5308 54.2132 56.4153 53.9971 56.4153H53.8968V56.2303H55.4329V61.2294C55.4329 61.3364 55.4534 61.4226 55.496 61.487C55.5387 61.5513 55.6272 61.5834 55.7654 61.5834H55.8113V61.7711L54.5382 62.0721ZM54.3221 61.0058V58.6847C54.1649 58.4441 54.0004 58.3235 53.8279 58.3235C53.6438 58.3235 53.5202 58.4175 53.457 58.604C53.395 58.7902 53.3642 59.0438 53.3642 59.3642C53.3642 59.4388 53.3654 59.5353 53.3684 59.6552C53.372 59.7749 53.3733 59.8777 53.3733 59.9651V60.365C53.3733 60.7162 53.4068 60.9967 53.4754 61.2101C53.5434 61.4238 53.681 61.5308 53.8892 61.5308C54.0231 61.5308 54.1271 61.4794 54.2033 61.3748C54.2785 61.272 54.3181 61.1487 54.3221 61.0058ZM58.9536 61.9576V61.7324H59.2157C59.5352 61.7324 59.6944 61.5665 59.6944 61.2322V56.957C59.6944 56.7602 59.6455 56.6263 59.5463 56.5583C59.4472 56.4903 59.3381 56.4552 59.2157 56.4552H58.9536V56.2303H61.5996C61.9662 56.2303 62.2827 56.2675 62.5466 56.3419C62.8117 56.4165 63.0254 56.5196 63.1889 56.6505C63.3536 56.7807 63.4739 56.934 63.5513 57.1063C63.6299 57.2798 63.6689 57.4639 63.6689 57.6591C63.6689 57.9257 63.6039 58.1533 63.4739 58.3437C63.3494 58.5307 63.1766 58.6806 62.974 58.7775C62.7765 58.8736 62.5616 58.9287 62.3423 58.9395V59.0335C62.6185 59.0516 62.8736 59.1196 63.1073 59.2381C63.3329 59.3497 63.5252 59.5188 63.6646 59.7284C63.8022 59.9379 63.8708 60.1785 63.8708 60.4526C63.8708 60.8809 63.7475 61.2065 63.499 61.4277C63.2565 61.6478 62.9584 61.7974 62.637 61.8602C62.2985 61.9266 61.9542 61.9593 61.6093 61.9579L58.9536 61.9576ZM60.96 56.6021V58.8316L61.2686 58.8391C61.6416 58.8391 61.9158 58.73 62.0899 58.5124C62.2634 58.2951 62.3495 58.0285 62.3495 57.7135C62.3495 57.3853 62.2449 57.1163 62.0385 56.908C61.8311 56.6985 61.5261 56.5942 61.1223 56.5942C61.0504 56.5942 60.996 56.597 60.96 56.6021ZM60.96 59.2034V61.0224C60.96 61.3981 61.1223 61.5861 61.4464 61.5861C61.6649 61.5861 61.8556 61.5344 62.0161 61.4328C62.1772 61.331 62.2996 61.1883 62.3846 61.0018C62.4689 60.8165 62.5115 60.6016 62.5115 60.3598C62.5115 59.8798 62.3752 59.5673 62.1041 59.4219C61.8436 59.2791 61.5515 59.2039 61.2544 59.2031H60.96V59.2034ZM67.977 61.3467L68.1233 61.4407C67.9815 61.671 67.8365 61.833 67.6859 61.9295C67.5342 62.0247 67.354 62.0724 67.1416 62.0724C66.9852 62.075 66.8309 62.0355 66.6951 61.9579C66.5652 61.8808 66.4857 61.7085 66.453 61.4407H66.4234C65.9718 61.8615 65.5656 62.0724 65.2056 62.0724C64.9876 62.0724 64.8066 62.0017 64.66 61.8602C64.5143 61.7185 64.4409 61.5308 64.4409 61.2941C64.44 61.0975 64.4883 60.9038 64.5814 60.7307C64.6754 60.5557 64.8664 60.3668 65.1575 60.1661C65.448 59.9654 65.8678 59.7568 66.4155 59.5422V58.7252C66.4155 58.6161 66.3847 58.5042 66.3215 58.3921C66.2584 58.28 66.122 58.2231 65.9123 58.2231C65.7877 58.2231 65.6786 58.2491 65.5846 58.3017C65.4903 58.3534 65.4429 58.4178 65.4429 58.4922C65.4429 58.5568 65.4788 58.6312 65.5508 58.7173C65.6381 58.8231 65.6819 58.9283 65.6819 59.0338C65.6819 59.1614 65.6348 59.2759 65.5402 59.3763C65.4453 59.4766 65.3099 59.5268 65.1352 59.5268C64.9629 59.5268 64.8223 59.479 64.712 59.3826C64.6029 59.2847 64.5473 59.1535 64.5473 58.986C64.5473 58.7557 64.631 58.5589 64.7969 58.3942C64.9629 58.2295 65.1711 58.1062 65.4232 58.0236C65.6636 57.9421 65.9156 57.9 66.1695 57.8988C67.0739 57.8988 67.5266 58.254 67.5266 58.9628V61.078C67.5266 61.2246 67.5384 61.3364 67.5626 61.4123C67.5856 61.4882 67.6436 61.5256 67.7361 61.5256C67.8084 61.5256 67.8878 61.4661 67.977 61.3467ZM66.4161 61.0777V59.8735C65.8542 60.1579 65.5737 60.4898 65.5737 60.8682C65.5737 61.1871 65.6816 61.3467 65.8978 61.3467C66.0637 61.3467 66.236 61.2566 66.4161 61.0777ZM68.3177 61.9576V61.7723H68.3624C68.5785 61.7723 68.6864 61.6565 68.6864 61.4238V58.5692C68.6864 58.4677 68.6647 58.3855 68.6208 58.3196C68.5782 58.254 68.4767 58.2219 68.3174 58.2219V58.0366H69.7978V58.4843C70.1442 58.0944 70.5045 57.8988 70.8811 57.8988C71.051 57.8988 71.2094 57.9363 71.3524 58.0122C71.4953 58.088 71.6108 58.2089 71.6985 58.3788C71.7858 58.5475 71.8296 58.7633 71.8296 59.0259V61.4241C71.8296 61.6571 71.9375 61.7726 72.1537 61.7726H72.2014V61.9579H70.3939V61.7726C70.61 61.7726 70.7185 61.6568 70.7185 61.4241V58.8781C70.7185 58.6004 70.61 58.4613 70.3939 58.4613C70.192 58.4613 69.9925 58.6285 69.7981 58.9628V61.4241C69.7981 61.6571 69.906 61.7726 70.1222 61.7726V61.9579L68.3177 61.9576ZM72.4142 61.9576V61.7723H72.4614C72.6775 61.7723 72.7854 61.6565 72.7854 61.4238V56.7617C72.7854 56.5311 72.6775 56.4153 72.4614 56.4153H72.361V56.2303H73.8971V59.8427L74.8157 58.815C74.9085 58.7116 74.955 58.6167 74.955 58.5293C74.955 58.3247 74.8187 58.2216 74.5458 58.2216H74.4762V58.0363H76.1369V58.2216C75.9144 58.2216 75.7137 58.3247 75.5336 58.5293L74.7383 59.3862L76.1369 61.5486C76.1411 61.5538 76.1523 61.5719 76.1716 61.6039C76.191 61.636 76.21 61.6632 76.2294 61.6837C76.2486 61.706 76.2723 61.724 76.2989 61.7366C76.3261 61.7508 76.362 61.7623 76.4059 61.7726V61.9579H74.5675V61.7726H74.6376C74.7924 61.7726 74.8698 61.7185 74.8698 61.6106C74.8698 61.5734 74.8513 61.5244 74.8154 61.464L74.0047 60.1827L73.8968 60.3048V61.4241C73.8968 61.6571 74.0047 61.7726 74.2214 61.7726H74.2662V61.9579L72.4142 61.9576Z" fill="#3F3D3E"/>
<path fill-rule="evenodd" clip-rule="evenodd" d="M25.8369 64.3016H71.453V64.9928H25.8369V64.3016Z" fill="#515563"/>
</g>
<defs>
<clipPath id="clip0_1_6888">
<rect width="58.2627" height="33" fill="white" transform="translate(19 32)"/>
</clipPath>
</defs>
</svg>
