<svg width="96" height="96" viewBox="0 0 96 96" fill="none" xmlns="http://www.w3.org/2000/svg">
<circle cx="48" cy="48" r="47" fill="white" stroke="white" stroke-width="2"/>
<g clip-path="url(#clip0_1_4021)">
<path d="M29.0015 43.7008L26.1471 50.4013L23.0696 43.7008H20.7075L25.2086 53.5512H26.278L30.4711 43.7008H29.0015ZM34.9462 47.2328C34.7046 47.0629 34.4343 46.942 34.1496 46.8766C33.7704 46.7873 33.3824 46.7454 32.9937 46.7519C32.644 46.7501 32.2953 46.7896 31.9541 46.8694C31.6519 46.938 31.3598 47.0482 31.0855 47.1971C30.8564 47.3189 30.6539 47.4887 30.4907 47.6959C30.3498 47.8733 30.2724 48.0961 30.2717 48.3264C30.2694 48.4381 30.2902 48.5491 30.3327 48.6517C30.3752 48.7544 30.4383 48.8463 30.5179 48.9213C30.6964 49.0859 30.9295 49.1716 31.1677 49.1599C31.3139 49.1652 31.4594 49.1385 31.5951 49.0816C31.6986 49.036 31.7893 48.9636 31.8585 48.8713C31.9231 48.7815 31.9686 48.6782 31.9917 48.5685C32.0171 48.4517 32.0297 48.3322 32.0294 48.2124C32.0288 48.1125 32.0415 48.013 32.067 47.9166C32.0914 47.8253 32.136 47.7412 32.1971 47.671C32.265 47.5953 32.3494 47.5378 32.4433 47.5035C32.5653 47.4599 32.6938 47.4394 32.8227 47.4429C32.9357 47.4382 33.0483 47.4589 33.1528 47.5038C33.2572 47.5487 33.3511 47.6167 33.428 47.703C33.5806 47.8765 33.657 48.1697 33.6572 48.5828V49.2312L33.4519 49.281C33.1966 49.3666 32.9401 49.4532 32.6824 49.541C32.425 49.629 32.1754 49.7264 31.9337 49.8331C31.7 49.9358 31.4728 50.0536 31.2532 50.1857C31.0517 50.3057 30.8656 50.4518 30.6993 50.6204C30.5454 50.7766 30.4193 50.9599 30.3265 51.1618C30.2326 51.3738 30.1859 51.6052 30.1897 51.8386C30.1881 52.0677 30.2323 52.2946 30.3195 52.5048C30.4041 52.7086 30.5301 52.8909 30.6888 53.0391C30.8596 53.1955 31.0583 53.3154 31.2736 53.3917C31.5235 53.4805 31.7861 53.5239 32.0501 53.5199C32.2347 53.5223 32.419 53.5056 32.6005 53.4701C32.7439 53.4414 32.8838 53.396 33.0176 53.3347C33.135 53.2799 33.2463 53.2117 33.3495 53.1316C33.4495 53.0534 33.552 52.9691 33.6572 52.8788V53.3989H35.5584V48.5258C35.562 48.2725 35.5105 48.0217 35.4079 47.792C35.3026 47.5675 35.1436 47.3749 34.9462 47.2328ZM33.6572 51.9242C33.4656 52.0714 33.29 52.1949 33.1305 52.2946C32.9916 52.3878 32.8307 52.4396 32.6655 52.4442C32.5868 52.4438 32.5102 52.4177 32.4465 52.3694C32.3745 52.3155 32.313 52.2478 32.2653 52.17C32.2097 52.0795 32.1671 51.9811 32.1387 51.8778C32.1064 51.7633 32.0903 51.6445 32.0909 51.5252C32.0922 51.3641 32.1412 51.2073 32.2312 51.0763C32.3338 50.9234 32.457 50.7866 32.597 50.6702C32.7549 50.5368 32.9243 50.4187 33.103 50.3176C33.2901 50.2108 33.4748 50.117 33.6572 50.0362V51.9242ZM37.275 46.3147V53.3989H39.149V43.7383C38.6097 43.8962 38.1347 44.2334 37.7964 44.6985C37.458 45.1636 37.2749 45.7312 37.275 46.3147ZM40.7217 46.3147V53.3989H42.5958V43.7383C42.0565 43.8962 41.5815 44.2334 41.2432 44.6985C40.9049 45.1636 40.7217 45.7312 40.7217 46.3147ZM48.9734 51.3862C48.848 51.5596 48.6981 51.7121 48.5289 51.8386C48.3576 51.9671 48.17 52.0702 47.9715 52.1451C47.7743 52.2204 47.566 52.2589 47.356 52.259C47.119 52.2606 46.8877 52.1832 46.696 52.0381C46.4862 51.8781 46.3094 51.6758 46.1762 51.4432C46.02 51.174 45.9024 50.8824 45.8273 50.5777C45.7416 50.2401 45.6923 49.8936 45.6803 49.5446H50.0027C50.0047 49.1753 49.933 48.8095 49.7923 48.4704C49.6517 48.1314 49.445 47.8264 49.1854 47.5748C48.9157 47.3177 48.6011 47.1169 48.2588 46.9834C47.4388 46.6752 46.5381 46.6955 45.7317 47.0404C45.3439 47.2149 44.9957 47.4721 44.7093 47.7956C44.4209 48.1258 44.1978 48.5119 44.0527 48.9319C43.8944 49.3887 43.8157 49.8712 43.8203 50.3568C43.8189 50.7779 43.9039 51.1945 44.0697 51.5786C44.2327 51.9606 44.4663 52.3056 44.7571 52.5938C45.0536 52.8869 45.399 53.1211 45.7763 53.2849C46.1724 53.4577 46.5981 53.5449 47.0276 53.5414C47.3772 53.5398 47.7237 53.4723 48.0502 53.3419C48.3894 53.2091 48.7075 53.0242 48.9941 52.7933C49.2829 52.5613 49.5375 52.2864 49.7498 51.9775C49.9592 51.677 50.1165 51.3407 50.2148 50.9838L49.2435 50.8341C49.1866 51.0338 49.095 51.2209 48.9734 51.3862ZM45.8104 48.3441C45.8675 48.1964 45.9472 48.0593 46.0464 47.938C46.1327 47.8324 46.237 47.7442 46.3541 47.6781C46.4601 47.6178 46.5787 47.586 46.6994 47.5854C46.8444 47.5843 46.9879 47.6159 47.1201 47.6781C47.2511 47.7407 47.3686 47.8304 47.4654 47.9417C47.5696 48.0623 47.6529 48.2009 47.7116 48.3513C47.7772 48.5181 47.8165 48.695 47.8279 48.8749H45.6873C45.7025 48.6926 45.744 48.5136 45.8104 48.3441ZM56.2812 46.7804L54.5439 50.7914L52.5675 46.7804H50.5636L53.607 52.9358L53.3883 53.4558C53.3471 53.5556 53.2981 53.6661 53.2413 53.7872C53.184 53.9083 53.1236 54.0222 53.0599 54.1291C53.0035 54.2257 52.9382 54.3164 52.865 54.3999C52.8425 54.4306 52.8142 54.4563 52.7818 54.4753C52.7495 54.4943 52.7138 54.5062 52.6768 54.5103C52.5975 54.5135 52.5191 54.4925 52.4511 54.4497C52.392 54.4092 52.3336 54.3666 52.2769 54.3215C52.217 54.2744 52.1542 54.2316 52.0888 54.1933C52.0041 54.149 51.9099 54.1281 51.8152 54.1327C51.6699 54.1279 51.525 54.1509 51.3876 54.2004C51.2876 54.2381 51.1958 54.2962 51.1175 54.3713C51.0523 54.4352 51.0031 54.5147 50.974 54.6028C50.9474 54.6831 50.9336 54.7674 50.9329 54.8523C50.9321 54.973 50.9667 55.091 51.0321 55.1906C51.1029 55.2974 51.1937 55.3883 51.2989 55.4579C51.4192 55.5378 51.5507 55.5979 51.6886 55.6359C51.8413 55.6792 51.9989 55.7008 52.1571 55.7C52.3843 55.6985 52.6096 55.6576 52.8239 55.5789C53.0546 55.4955 53.2741 55.3818 53.4772 55.2405C53.691 55.0917 53.8842 54.9132 54.0515 54.7098C54.2258 54.4992 54.3708 54.2642 54.4824 54.0116L57.6284 46.7804L56.2812 46.7804Z" fill="#201B51"/>
<path d="M12.7393 50.0684C12.921 48.8729 13.1808 47.6917 13.5168 46.533C13.0435 46.677 12.56 46.7821 12.0709 46.8472C12.4233 48.3679 12.7482 49.9486 12.7393 50.0684ZM13.0927 45.7625C13.0927 45.7625 12.0415 40.4001 10.7623 39.2425C9.90362 38.3528 8.95281 38.2891 9.00182 38.3014C9.89231 38.5152 11.1618 43.0268 11.9409 46.2944C12.5433 46.2201 13.1374 46.0855 13.7151 45.8927C15.0917 41.1226 16.8357 39.413 17.9655 38.855C17.1907 39.1708 14.6734 40.2719 13.0927 45.7625Z" fill="#201B51"/>
<path fill-rule="evenodd" clip-rule="evenodd" d="M14.7924 41.3648C13.93 41.7048 13.0998 42.1278 12.3128 42.6283C12.3195 42.6544 12.3262 42.6804 12.3327 42.7065C13.1111 42.181 13.9345 41.7319 14.7924 41.3648ZM12.703 54.3008C12.703 54.3008 13.9522 49.4945 15.2295 45.8429C14.8681 46.0321 14.4933 46.1923 14.1085 46.3221C13.3557 48.9187 12.8843 51.5949 12.703 54.3008ZM21.7041 38.2112C21.7041 38.2112 20.0632 37.1266 17.3166 39.8734C15.9904 41.1995 15.0084 43.4496 14.3076 45.668C12.148 46.5025 10.2697 46.5151 9.97006 45.81C9.76026 45.3299 10.2796 44.4646 11.2486 43.5756C11.2323 43.5167 11.216 43.4579 11.1997 43.3991C9.28891 44.8949 9.39493 45.8332 9.39493 45.8332C9.3736 47.2089 12.4823 46.9318 15.0479 45.722C17.1519 44.7454 18.689 43.2052 19.1363 42.1481C18.9326 42.5373 18.2567 43.7127 15.4278 45.1728C17.9644 36.9624 21.7041 38.2112 21.7041 38.2112Z" fill="#877B77"/>
<path d="M58.1683 58.7431C57.9389 58.7276 57.7236 58.6218 57.5664 58.447C57.4091 58.2722 57.3216 58.0417 57.3216 57.8021C57.3216 57.5626 57.4091 57.332 57.5664 57.1573C57.7236 56.9825 57.9389 56.8766 58.1683 56.8612C58.2901 56.861 58.41 56.8916 58.518 56.9502C58.6259 57.0089 58.7187 57.0939 58.7883 57.1979L59.0216 57.0625C58.9278 56.9177 58.8004 56.7997 58.6513 56.7197C58.5021 56.6396 58.336 56.5999 58.1683 56.6042C57.8662 56.6088 57.578 56.737 57.3659 56.9612C57.1539 57.1853 57.035 57.4874 57.035 57.8021C57.035 58.1168 57.1539 58.4189 57.3659 58.643C57.578 58.8672 57.8662 58.9954 58.1683 59C58.3364 59.0038 58.5028 58.964 58.6524 58.8839C58.802 58.8039 58.93 58.6863 59.0249 58.5417L58.7883 58.4062C58.7192 58.5109 58.6266 58.5963 58.5185 58.655C58.4104 58.7137 58.2902 58.744 58.1683 58.7431ZM61.5685 57.3403C61.5719 57.2453 61.5561 57.1506 61.5219 57.0624C61.4877 56.9743 61.4361 56.8947 61.3703 56.8288C61.3045 56.7629 61.2261 56.7122 61.1402 56.6801C61.0543 56.648 60.9629 56.6351 60.8719 56.6424H59.9785V58.9584H60.2552V58.0382H60.6985L61.2652 58.9584H61.5919L60.9918 58.0139C61.1539 58.0038 61.3055 57.9272 61.4136 57.801C61.5216 57.6748 61.5773 57.5092 61.5685 57.3403ZM60.2552 57.7847V56.8994H60.8385C60.8959 56.8968 60.9531 56.9064 61.0067 56.9275C61.0604 56.9486 61.1094 56.9808 61.1509 57.0222C61.1923 57.0635 61.2252 57.1132 61.2477 57.1682C61.2703 57.2231 61.2819 57.2823 61.2819 57.342C61.2819 57.4018 61.2703 57.461 61.2477 57.5159C61.2252 57.5709 61.1923 57.6205 61.1509 57.6619C61.1094 57.7033 61.0604 57.7355 61.0067 57.7566C60.9531 57.7777 60.8959 57.7873 60.8385 57.7847H60.2552ZM62.6053 58.9584H64.062V58.7014H62.882V57.9028H64.0386V57.6458H62.882V56.8994H64.062V56.6424H62.6053V58.9584ZM65.8622 56.6424H65.1022V58.9584H65.8622C66.0105 58.9623 66.1581 58.9352 66.2962 58.8787C66.4344 58.8223 66.5603 58.7376 66.6665 58.6297C66.7727 58.5218 66.8572 58.3928 66.9148 58.2504C66.9725 58.108 67.0022 57.9549 67.0022 57.8004C67.0022 57.6458 66.9725 57.4928 66.9148 57.3504C66.8572 57.2079 66.7727 57.079 66.6665 56.9711C66.5603 56.8631 66.4344 56.7785 66.2962 56.722C66.1581 56.6656 66.0105 56.6385 65.8622 56.6424ZM65.8622 58.7014H65.3788V56.8994H65.8622C66.0896 56.9026 66.3066 56.9989 66.4663 57.1675C66.626 57.3361 66.7155 57.5635 66.7155 57.8004C66.7155 58.0373 66.626 58.2646 66.4663 58.4332C66.3066 58.6019 66.0896 58.6982 65.8622 58.7014ZM68.0357 58.9584H68.3124V56.6424H68.0357V58.9584ZM69.2792 56.8994H69.9825V58.9584H70.2592V56.8994H70.9658V56.6424H69.2792V56.8994ZM74.9295 58.0521C74.9295 58.4757 74.7095 58.7431 74.2995 58.7431C73.8895 58.7431 73.6695 58.4757 73.6695 58.0521V56.6424H73.3928V58.0591C73.3928 58.6285 73.6961 59 74.2995 59C74.9028 59 75.2061 58.632 75.2061 58.0555V56.6424H74.9295V58.0521ZM77.8897 58.4723L76.6097 56.6424H76.3264V58.9584H76.603V57.0903L77.8997 58.9584H78.1663V56.6424H77.8897V58.4723ZM79.2866 58.9584H79.5633V56.6424H79.2866V58.9584ZM81.6967 56.6042C81.0367 56.6042 80.5934 57.1181 80.5934 57.8021C80.5934 58.4861 81.0367 59 81.6967 59C82.3534 59 82.8 58.4862 82.8 57.8021C82.8 57.1181 82.3534 56.6042 81.6967 56.6042ZM81.6967 58.7431C81.1967 58.7431 80.88 58.3403 80.88 57.8021C80.88 57.2605 81.1967 56.8612 81.6967 56.8612C82.1934 56.8612 82.5134 57.2605 82.5134 57.8021C82.5134 58.3403 82.1934 58.7431 81.6967 58.7431ZM85.397 56.6424V58.4723L84.117 56.6424H83.8337V58.9584H84.1103V57.0903L85.407 58.9584H85.6736V56.6424L85.397 56.6424Z" fill="#201B51"/>
<g style="mix-blend-mode:multiply">
<path d="M59.7003 53.3989H61.9777V48.5579H65.8554V47.7243H61.9777V44.5184H65.7265C65.7504 44.3673 65.7939 44.2203 65.8556 44.0814C65.9155 43.9495 65.9896 43.8251 66.0763 43.7105V43.7008H59.7003V53.3989ZM74.4969 46.9015C74.3772 46.8168 74.2457 46.7519 74.1069 46.7091C73.9528 46.6608 73.7927 46.6368 73.6318 46.6379C73.3516 46.636 73.0754 46.7071 72.8282 46.8445C72.5722 46.988 72.3382 47.1705 72.134 47.3859V46.9015H70.2462V53.3989H72.134V48.7253C72.1839 48.6113 72.2387 48.4997 72.2982 48.3905C72.3519 48.2899 72.4124 48.1935 72.4793 48.102C72.5331 48.0269 72.5964 47.9598 72.6674 47.9025C72.7216 47.8562 72.7888 47.8299 72.8588 47.8276C72.965 47.8232 73.0702 47.8491 73.1633 47.9025C73.2428 47.9523 73.3226 48.0057 73.4025 48.0628C73.4867 48.1224 73.5747 48.1759 73.6659 48.223C73.7818 48.2772 73.9082 48.3028 74.0351 48.2978C74.1436 48.2988 74.2514 48.2795 74.3534 48.2408C74.4481 48.2048 74.5361 48.1518 74.6133 48.0842C74.689 48.0167 74.7496 47.9328 74.7909 47.8384C74.8347 47.7389 74.8569 47.6307 74.8559 47.5213C74.8555 47.4013 74.8224 47.2839 74.7603 47.1828C74.6918 47.0713 74.6022 46.9755 74.4969 46.9015ZM79.6296 50.2108C79.4228 50.0298 79.1981 49.8722 78.9593 49.7406C78.708 49.6002 78.4502 49.4729 78.1866 49.3594C78.0133 49.2834 77.8526 49.2038 77.7045 49.1207C77.5668 49.0451 77.4372 48.9543 77.318 48.85C77.2166 48.7624 77.1299 48.6576 77.0616 48.5401C77.001 48.4346 76.9691 48.3139 76.9692 48.191C76.9671 48.0987 76.9921 48.008 77.0409 47.9309C77.0922 47.8541 77.1588 47.7898 77.236 47.7422C77.323 47.6879 77.4176 47.6482 77.5164 47.6246C77.624 47.5982 77.7342 47.585 77.8448 47.5854C77.9214 47.5861 77.9979 47.592 78.0738 47.6032C78.1664 47.6183 78.2549 47.6535 78.3336 47.7065C78.4343 47.7753 78.5214 47.8636 78.59 47.9666C78.6867 48.1156 78.7584 48.2806 78.8021 48.4546L79.8965 48.0485C79.7925 47.8569 79.6687 47.6777 79.5272 47.5142C79.3886 47.3559 79.227 47.2213 79.0483 47.1152C78.8523 47.0005 78.6416 46.9153 78.4226 46.8623C78.1567 46.7994 77.8846 46.7695 77.612 46.7733C77.302 46.77 76.9932 46.8143 76.6956 46.905C76.4372 46.9826 76.1949 47.1094 75.981 47.279C75.7869 47.4352 75.6291 47.6349 75.5192 47.8633C75.4084 48.0981 75.3522 48.3568 75.3553 48.6185C75.3499 48.8859 75.4124 49.1501 75.5364 49.3843C75.6598 49.6084 75.8208 49.8075 76.0119 49.9721C76.2146 50.1478 76.4347 50.3007 76.6684 50.428C76.91 50.561 77.1539 50.6845 77.4 50.7984C77.5486 50.8663 77.6935 50.9424 77.8343 51.0265C77.9617 51.1017 78.08 51.1926 78.1866 51.2972C78.2833 51.3916 78.3621 51.504 78.4191 51.6285C78.4754 51.757 78.5034 51.8969 78.5011 52.0381C78.4999 52.1319 78.4768 52.2241 78.434 52.3066C78.3911 52.3891 78.3297 52.4596 78.2549 52.5119C78.0699 52.6493 77.846 52.7183 77.619 52.7078C77.3337 52.7175 77.0561 52.61 76.8461 52.4086C76.6231 52.1789 76.4586 51.8948 76.3674 51.5822L75.2937 52.0097C75.3892 52.1977 75.4954 52.3797 75.6117 52.5546C75.739 52.7446 75.8962 52.9108 76.0766 53.0462C76.2874 53.2024 76.5206 53.3226 76.7676 53.4024C77.088 53.5023 77.4215 53.5492 77.7558 53.5414C78.151 53.5505 78.5452 53.4976 78.9252 53.3846C79.211 53.2988 79.4765 53.152 79.7049 52.9536C79.8993 52.7801 80.0487 52.5583 80.1392 52.3088C80.2291 52.0558 80.2743 51.7879 80.2725 51.5181C80.2757 51.2653 80.2156 51.016 80.098 50.7949C79.9768 50.5725 79.8182 50.3746 79.6296 50.2108ZM84.9916 51.8172C84.9555 51.867 84.9166 51.9146 84.8752 51.9597C84.8164 52.0256 84.7537 52.0875 84.6873 52.145C84.6189 52.205 84.5456 52.2586 84.4683 52.3053C84.4035 52.3473 84.3292 52.3706 84.253 52.3729C84.2006 52.3749 84.1485 52.3628 84.1018 52.3379C84.0551 52.3129 84.0152 52.2759 83.9861 52.2304C83.9207 52.1297 83.8872 52.0101 83.8904 51.8885V47.6922H85.4294V46.9015H83.8905V44.8283H83.8132C83.5523 44.8316 83.298 44.9137 83.081 45.0647C82.8641 45.2156 82.6939 45.4289 82.591 45.6787L82.5875 45.6867C82.48 45.9405 82.3397 46.1779 82.1704 46.3921C82.0198 46.5842 81.8367 46.746 81.6302 46.8694C81.4376 46.9842 81.2195 47.0444 80.9976 47.044V47.6922H81.996V51.9454C81.9933 52.1659 82.0269 52.3852 82.0952 52.5938C82.1571 52.7814 82.2574 52.9528 82.3892 53.0961C82.528 53.242 82.6963 53.354 82.8818 53.4238C83.1021 53.506 83.335 53.5459 83.569 53.5414C83.817 53.5452 84.0644 53.5141 84.3043 53.4487C84.503 53.393 84.693 53.3078 84.8685 53.1957C85.0295 53.0917 85.1756 52.9646 85.3028 52.8182C85.4291 52.672 85.5446 52.516 85.6481 52.3515L84.9916 51.8172ZM67.7145 43.8641C67.1499 43.8641 66.6922 44.2941 66.6922 44.8245C66.6922 45.3548 67.1499 45.7848 67.7145 45.7848C68.2791 45.7848 68.7367 45.3549 68.7367 44.8245C68.7367 44.2941 68.279 43.8641 67.7145 43.8641ZM66.779 49.2894V53.3989H68.6665V46.7091L68.666 46.7093C68.1237 46.8648 67.6454 47.2015 67.3045 47.6676C66.9636 48.1337 66.779 48.7035 66.779 49.2894Z" fill="#877B77"/>
</g>
<path d="M85.5512 44.9528H85.2622V44.8472H85.9552V44.9528H85.6649V45.7988H85.5512V44.9528Z" fill="#877B77"/>
<path d="M86.8863 45.007L86.5754 45.7988H86.5288L86.2193 45.007V45.7988H86.1057V44.8472H86.2686L86.5522 45.5719L86.837 44.8472H87V45.7988H86.8863L86.8863 45.007Z" fill="#877B77"/>
</g>
<defs>
<clipPath id="clip0_1_4021">
<rect width="78" height="21" fill="white" transform="translate(9 38)"/>
</clipPath>
</defs>
</svg>
