<svg width="96" height="96" viewBox="0 0 96 96" fill="none" xmlns="http://www.w3.org/2000/svg">
<circle cx="48" cy="48" r="47" fill="white" stroke="white" stroke-width="2"/>
<g clip-path="url(#clip0_1_7331)">
<path d="M21.5125 40.6106L17.8129 50.0265H17.7676L14.1307 40.6106H10.4277L16.315 54.981H19.1506L25.2225 40.6106H21.5125Z" fill="#00643C"/>
<path d="M17.8269 43.7731C18.8266 43.7731 19.6348 42.9808 19.6348 42.0083C19.6348 41.0323 18.8232 40.2434 17.8269 40.2434C16.8271 40.2434 16.0154 41.0357 16.0154 42.0083C16.0154 42.9842 16.8271 43.7731 17.8269 43.7731Z" fill="#00643C"/>
<path d="M24.0973 54.5969C24.0799 54.5799 24.0625 54.5595 24.045 54.5391C22.3172 55.8245 20.1608 56.593 17.8233 56.593C12.1485 56.593 7.53278 52.0874 7.53278 46.5446C7.53278 41.0052 12.1486 36.4962 17.8268 36.4962C22.4077 36.4962 26.292 39.4342 27.6227 43.4774C27.6331 43.474 27.6436 43.4706 27.654 43.4706C28.1417 43.3652 28.6504 43.304 29.1659 43.2835C27.7167 38.4991 23.1846 35 17.8268 35C11.3055 35 6 40.1823 6 46.5446C6 52.9103 11.3055 58.0892 17.8268 58.0892C20.6381 58.0892 23.2159 57.1235 25.2469 55.5184C24.8219 55.2498 24.4352 54.9404 24.0973 54.5969Z" fill="#00643C"/>
<path d="M34.2415 50.9482V50.0845C34.2415 45.9257 31.4999 44.7322 29.5178 44.7322H29.5073C28.9743 44.7322 28.4657 44.7866 27.9815 44.892C25.4837 45.4361 23.7385 47.3267 23.7385 49.9791C23.7385 51.4685 24.2819 52.6893 25.1702 53.5802C25.5256 53.9407 25.9401 54.2467 26.3965 54.4915C27.2848 54.9744 28.3333 55.2294 29.4341 55.2294C31.0366 55.2294 32.768 54.5085 33.7573 53.2538L31.5417 51.6691C31.0122 52.3492 30.3608 52.8831 29.2844 52.8831C28.7618 52.8831 28.3089 52.7505 27.9467 52.5159C27.4729 52.2132 27.1385 51.7439 26.9643 51.1727C26.9399 51.0979 26.9225 51.023 26.9051 50.9482H34.2415ZM26.9016 48.8467C26.9712 48.0544 27.4346 47.456 28.0999 47.1601C28.403 47.0241 28.7479 46.9527 29.1171 46.9527C29.3018 46.9527 29.476 46.9731 29.6432 47.0173C30.4792 47.2179 31.0784 47.9048 31.0784 48.8467H26.9016Z" fill="#00643C"/>
<path d="M42.947 44.8342V47.6532C42.4837 47.5307 42.0831 47.4457 41.5954 47.4457C39.338 47.4457 38.8956 48.6189 38.8956 50.6796V54.9812H35.7325V44.977H38.8956V46.582H38.9374C39.6132 45.368 40.498 44.7288 41.9124 44.7288C42.2503 44.7322 42.6509 44.7526 42.947 44.8342Z" fill="#00643C"/>
<path d="M47.838 41.8282C47.838 42.7973 47.0368 43.6202 46.0022 43.6202C44.9885 43.6202 44.1663 42.7973 44.1663 41.8282C44.1663 40.7978 45.0094 40.0361 46.0022 40.0361C47.0368 40.0361 47.838 40.859 47.838 41.8282ZM47.5837 44.977V54.9846H44.4206V44.977H47.5837Z" fill="#00643C"/>
<path d="M60.1908 39.4172V54.9812H57.2785V53.6618H57.2367C56.54 54.6309 55.2755 55.226 54.0736 55.226C50.9941 55.226 49.0538 53.0429 49.0538 50.0573C49.0538 47.3811 50.7398 44.7254 53.7357 44.7254C54.9585 44.7254 56.223 45.0348 56.9824 46.0447H57.0242V39.4138H60.1908V39.4172ZM54.7495 52.5124C56.2892 52.5124 57.282 51.5229 57.282 49.9791C57.282 48.3537 56.2265 47.4457 54.7286 47.4457C53.1888 47.4457 52.2169 48.4353 52.2169 49.9791C52.2169 51.4855 53.1888 52.5124 54.7495 52.5124Z" fill="#00643C"/>
<path d="M65.1968 41.8282C65.1968 42.7973 64.3956 43.6202 63.3609 43.6202C62.3472 43.6202 61.5251 42.7973 61.5251 41.8282C61.5251 40.7978 62.3681 40.0361 63.3609 40.0361C64.3956 40.0361 65.1968 40.859 65.1968 41.8282Z" fill="#00643C"/>
<path d="M64.9425 44.9771H61.7794V54.9846H64.9425V44.9771Z" fill="#00643C"/>
<path d="M76.1666 49.7547V54.9846H73.2543V53.7298H73.2125C72.5158 54.801 71.2304 55.2328 69.9658 55.2328C68.0672 55.2328 66.3185 54.1617 66.3185 52.1452C66.3185 48.6461 70.7461 48.6257 73.2578 48.6257C73.2578 47.4934 72.2859 46.8337 71.2338 46.8337C70.1992 46.8337 69.3353 47.2859 68.6595 48.0272L66.9734 46.3372C68.1543 45.2252 69.8857 44.7322 71.4881 44.7322C75.0275 44.7322 76.1666 46.4392 76.1666 49.7547ZM70.8715 53.1313C72.0734 53.1313 73.2543 52.5125 73.2543 51.2373V50.598H72.3068C71.3592 50.598 69.3527 50.7408 69.3527 52.0398C69.3527 52.8219 70.1957 53.1313 70.8715 53.1313Z" fill="#00643C"/>
<path d="M87.5162 49.401V55.0627H84.3531V49.9178C84.3531 48.1462 83.8062 47.5307 82.7088 47.5307C81.4443 47.5307 80.8103 48.272 80.8103 49.9824V55.0627H77.6472V45.0586H80.6849V46.4188H80.7267C81.2945 45.4088 82.4127 44.8137 83.7226 44.8137C86.3143 44.8103 87.5162 46.1093 87.5162 49.401Z" fill="#00643C"/>
<path d="M35.1299 57.3344L34.5481 57.7526C34.3043 57.4976 34.0325 57.348 33.6633 57.348C32.8028 57.348 32.2211 57.9975 32.2211 58.817C32.2211 59.6637 32.7784 60.3438 33.6633 60.3438C34.0604 60.3438 34.3705 60.1398 34.6073 59.8439L35.2239 60.2724C34.8616 60.7722 34.2729 61.0035 33.6563 61.0035C32.3604 61.0035 31.4338 60.1398 31.4338 58.8646C31.4338 57.5894 32.3116 56.6883 33.6563 56.6883C34.259 56.6849 34.7327 56.8957 35.1299 57.3344Z" fill="#00643C"/>
<path d="M37.1678 56.7903C37.976 56.7903 38.711 57.0691 38.711 57.9668C38.711 58.5823 38.3313 59.0006 37.7356 59.0788L38.8539 60.8947H37.9516L36.9762 59.1536H36.4293V60.8947H35.6803V56.7903H37.1678ZM37.0494 58.5313C37.4778 58.5313 37.9272 58.4735 37.9272 57.9634C37.9272 57.4942 37.4918 57.4194 37.1016 57.4194H36.4293V58.5313H37.0494Z" fill="#00643C"/>
<path d="M42.1911 56.7903V57.45H40.1532V58.4599H42.0831V59.1196H40.1532V60.2316H42.2991V60.8913H39.4042V56.7903H42.1911Z" fill="#00643C"/>
<path d="M44.647 56.7903C45.7339 56.7903 46.7686 57.4636 46.7686 58.8442C46.7686 60.2996 45.4727 60.8981 44.56 60.8981H42.9749V56.7903H44.647ZM44.3056 60.235C45.2044 60.235 45.9813 59.8405 45.9813 58.8442C45.9813 57.8478 45.3229 57.4534 44.4067 57.4534H43.7169V60.2384H44.3056V60.235Z" fill="#00643C"/>
<path d="M48.1899 56.7903V60.8981H47.4409V56.7903H48.1899Z" fill="#00643C"/>
<path d="M52.1855 56.7903V57.45H50.8966V60.8947H50.1476V57.4534H48.8587V56.7937H52.1855V56.7903Z" fill="#00643C"/>
<path d="M55.8155 56.7903V59.3814C55.8155 59.7589 56.035 60.303 56.7596 60.303C57.4841 60.303 57.7036 59.7589 57.7036 59.3814V56.7903H58.4526V59.4188C58.4526 60.2248 57.8708 61.0035 56.7596 61.0035C55.6413 61.0035 55.0665 60.2214 55.0665 59.4188V56.7903H55.8155Z" fill="#00643C"/>
<path d="M60.1177 56.7903L62.1556 59.8405H62.1661V56.7903H62.915V60.8981H61.964L59.8843 57.7492H59.8738V60.8981H59.1249V56.7903H60.1177Z" fill="#00643C"/>
<path d="M64.4478 56.7903V60.8981H63.6989V56.7903H64.4478Z" fill="#00643C"/>
<path d="M67.3218 61C66.0259 61 65.1132 60.1295 65.1132 58.8611C65.1132 57.6778 65.897 56.6848 67.3636 56.6848C68.6944 56.6848 69.5722 57.5553 69.5722 58.8373C69.5757 60.1261 68.6177 61 67.3218 61ZM67.3427 60.3403C68.2519 60.3403 68.7919 59.65 68.7919 58.8135C68.7919 57.9736 68.1962 57.3445 67.3358 57.3445C66.4788 57.3445 65.897 58.0008 65.897 58.8135C65.897 59.6568 66.437 60.3403 67.3427 60.3403Z" fill="#00643C"/>
<path d="M71.1746 56.7903L73.2126 59.8405H73.223V56.7903H73.972V60.8981H73.021L70.9412 57.7492H70.9308V60.8981H70.1818V56.7903H71.1746Z" fill="#00643C"/>
<path d="M90 54.2502C90 54.7024 89.6238 55.0697 89.1605 55.0697C88.6972 55.0697 88.3209 54.7024 88.3209 54.2502C88.3209 53.7979 88.7006 53.4307 89.1605 53.4307C89.6203 53.4307 90 53.8013 90 54.2502ZM89.1605 54.8827C89.5228 54.8827 89.784 54.5936 89.784 54.2502C89.784 53.9033 89.5228 53.6177 89.1605 53.6177C88.8017 53.6177 88.5404 53.9067 88.5404 54.2502C88.5369 54.5936 88.7982 54.8827 89.1605 54.8827ZM89.1222 53.8115C89.3904 53.8115 89.5158 53.8965 89.5158 54.0632C89.5158 54.1958 89.4322 54.308 89.3172 54.3284L89.5437 54.6684H89.3068L89.1047 54.3386H89.0525V54.6684H88.8365V53.8115H89.1222ZM89.0525 54.1686H89.1709C89.258 54.1686 89.2998 54.138 89.2998 54.0768C89.2998 54.0155 89.258 53.9849 89.1709 53.9849H89.0525V54.1686Z" fill="#00643C"/>
</g>
<defs>
<clipPath id="clip0_1_7331">
<rect width="84" height="26" fill="white" transform="translate(6 35)"/>
</clipPath>
</defs>
</svg>
