<svg width="96" height="96" viewBox="0 0 96 96" fill="none" xmlns="http://www.w3.org/2000/svg">
<circle cx="48" cy="48" r="47" fill="white" stroke="white" stroke-width="2"/>
<path d="M48 73.9687C33.653 73.9687 22.0313 62.347 22.0313 48.0099C22.0313 33.6728 33.653 22.0412 48 22.0412C62.3371 22.0412 73.9687 33.6728 73.9687 48.0099C73.9687 62.347 62.3371 73.9687 48 73.9687ZM48 19C31.9843 19 19 31.9942 19 48.0099C19 64.0255 31.9843 77.0197 48 77.0197C64.0255 77.0197 77 64.0255 77 48.0099C77 31.9942 64.0255 19 48 19Z" fill="#002468"/>
<path d="M41.1079 61.1128L26.8992 35.7859H36.3782L45.8672 52.6606L41.1079 61.1128ZM59.4933 52.6507L50.0143 35.7859H40.5253L54.7439 61.1128L59.4933 52.6507ZM68.9625 35.7859H59.4834L54.7439 44.2084H64.2328L68.9625 35.7859Z" fill="#FFD61A"/>
</svg>
