<svg width="96" height="96" viewBox="0 0 96 96" fill="none" xmlns="http://www.w3.org/2000/svg">
<circle cx="48" cy="48" r="47" fill="white" stroke="white" stroke-width="2"/>
<path fill-rule="evenodd" clip-rule="evenodd" d="M26.8783 39.9131V56.7728H26.8661C26.8672 56.8558 26.8702 56.9336 26.8732 57.0106L26.8732 57.0107C26.8751 57.0599 26.877 57.1088 26.8783 57.1585V57.2527H26.8818C26.9534 59.0294 27.3111 60.1237 28.0843 60.9091C29.046 61.9092 30.4457 62.4241 32.0374 62.6859V57.2527V56.7728V39.9131V34C30.4475 34.2618 29.046 34.7767 28.0843 35.7767C27.2431 36.6302 26.887 37.8432 26.8661 39.9131H26.8783ZM49.4032 62.6859H37.4287V34H48.3945C51.995 34 55.6008 34.2845 57.5887 36.3544C58.5958 37.3772 59.0059 38.8328 59.0059 41.3757C59.0059 45.2712 57.2554 46.7198 55.73 47.5471L55.6602 47.5837V47.8316L55.737 47.8665C56.9726 48.4424 59.8472 50.2715 59.8472 54.7814C59.8472 57.7554 59.3777 59.2877 58.053 60.6334C56.2763 62.438 52.845 62.6859 49.4032 62.6859ZM69.4132 57.1585C69.4145 57.1114 69.4165 57.0651 69.4185 57.0185C69.4219 56.9389 69.4254 56.8586 69.4254 56.7728H69.4132V39.9131H69.4254C69.4027 37.8432 69.0484 36.6319 68.2072 35.7767C67.2455 34.7767 65.8458 34.2618 64.2541 34V62.6859C65.8458 62.4241 67.2455 61.9074 68.2072 60.9091C68.9803 60.1237 69.3399 59.0294 69.4097 57.2527H69.4132V57.1585ZM76.9878 57.251H77C77 57.3368 76.9966 57.4172 76.9931 57.4967L76.9904 57.5618C76.9897 57.5784 76.9891 57.595 76.9886 57.6117C76.9883 57.62 76.988 57.6283 76.9878 57.6367V57.7309H76.9843C76.9145 59.5077 76.555 60.602 75.7818 61.3874C75.253 61.9371 74.5863 62.3368 73.8323 62.6318V34.0524C74.5863 34.3473 75.253 34.747 75.7818 35.2968C76.623 36.152 76.9773 37.3632 77 39.4331H76.9878V57.251ZM19.0122 39.4349H19C19.0209 37.365 19.377 36.152 20.2182 35.2968C20.7471 34.747 21.4138 34.3473 22.1677 34.0524V62.6335C21.4138 62.3385 20.7471 61.9389 20.2182 61.3891C19.4451 60.6037 19.0873 59.5094 19.0157 57.7327H19.0122V57.6384C19.0109 57.5887 19.009 57.5399 19.0071 57.4906L19.0071 57.4906C19.0041 57.4136 19.0011 57.3358 19 57.2527H19.0122V39.4349ZM48.5201 45.7843H44.0155V38.646H48.5201C50.0193 38.646 50.6546 38.7141 51.372 39.4436C51.8711 39.9044 52.208 41.0074 52.208 42.1838C52.208 43.3601 51.8711 44.4579 51.372 44.9658C50.6773 45.6709 50.0804 45.7843 48.5201 45.7843ZM49.1502 58.0818H44.0155V50.3867H49.1502C50.7681 50.3867 51.468 50.5141 52.1696 51.2279C52.7263 51.8371 53.0056 52.8424 53.0056 54.2246C53.0056 55.6069 52.7089 56.6297 52.1696 57.1777C51.4802 57.8793 50.8012 58.0818 49.1502 58.0818Z" fill="#0F62FE"/>
</svg>
