<svg width="96" height="96" viewBox="0 0 96 96" fill="none" xmlns="http://www.w3.org/2000/svg">
<circle cx="48" cy="48" r="47" fill="white" stroke="white" stroke-width="2"/>
<g clip-path="url(#clip0_1_1882)">
<path fill-rule="evenodd" clip-rule="evenodd" d="M19 19H77V77H19V19Z" fill="white"/>
<path fill-rule="evenodd" clip-rule="evenodd" d="M41.9565 29.4066C42.0916 30.0313 42.3663 30.4101 42.9175 30.7339C43.3283 30.9749 43.6325 31.0453 44.1076 31.0083C43.8058 31.4777 43.5248 31.7115 43.009 31.9236C42.3982 32.1749 41.9393 32.1872 41.3159 31.9694C41.2298 32.5964 41.4203 33.0797 41.911 33.4799C42.5902 34.0332 43.5467 33.9748 44.1533 33.3427C43.7267 34.2107 43.1345 34.6651 42.1855 34.8529C41.695 34.9501 41.3863 34.9389 40.9039 34.8071C41.1489 35.445 41.4531 35.798 42.0479 36.1344C42.6765 36.4894 43.1736 36.5641 43.8786 36.4091C43.1838 36.9155 42.4508 36.9766 41.6817 36.5921C40.8034 36.1533 40.6352 35.3265 40.5377 34.3495C40.4002 32.9768 41.11 32.2742 41.3156 30.9171C41.5223 29.5543 42.0383 28.6968 41.5903 27.3933C40.8567 25.2599 38.8509 24.6407 36.6017 24.4643C34.8273 24.3253 33.751 24.8122 32.208 25.6998C29.6738 27.158 29.0317 29.1042 27.7688 31.741C26.2129 34.9904 24.9774 37.5989 23.7416 38.7889C24.0488 38.8828 24.2582 38.8828 24.5651 38.7889C24.9304 38.677 25.1396 38.5169 25.3433 38.194C25.1973 39.2622 25.0649 39.8634 24.7481 40.894C24.4842 41.7528 24.3015 42.2297 23.9242 43.0451C24.282 43.0924 24.5116 43.0581 24.8396 42.9076C25.2181 42.734 25.4215 42.5429 25.6174 42.1752C25.5388 43.4718 25.37 44.2192 24.885 45.4243C24.6079 46.1131 24.4135 46.4913 24.0154 47.1178C24.6605 47.1199 25.0535 47.0191 25.6174 46.7059C26.2685 46.3445 26.6055 45.996 26.9446 45.3332C26.876 47.0895 26.6994 48.0975 26.1665 49.7723C25.9938 50.316 26.0094 50.6922 25.6631 51.145C25.3619 51.5395 25.114 51.7309 24.6563 51.9231C25.769 52.06 26.678 52.0519 27.4477 51.2368C28.2256 50.4129 28.7293 49.4061 29.1869 47.7127L28.5921 53.6163C28.5111 54.2957 28.4067 54.6824 28.1344 55.3101C27.7715 56.145 27.4598 56.5964 26.8071 57.2319C28.1344 57.1648 28.9661 56.8275 29.9648 55.9507C31.0805 54.9709 31.558 54.0412 31.704 52.5637C31.8108 51.5777 31.8917 51.0228 32.0698 50.0467C32.2739 48.9307 32.415 48.3048 32.7105 47.2093C32.6027 48.3695 32.542 49.0243 32.4357 50.1842C32.3277 51.362 32.4752 52.0643 32.161 53.2044C31.8682 54.2668 31.5938 54.8581 30.9713 55.7674C31.8836 55.6404 32.4156 55.4301 33.1678 54.8981C34.2793 54.1119 34.7205 53.3115 35.1357 52.0149C35.4634 50.9913 35.2145 50.3329 35.3644 49.2686C35.445 48.6693 35.5519 48.0739 35.6848 47.484C35.7327 48.2871 35.7628 48.7408 35.8221 49.5436C35.8867 50.4186 36.1007 50.9136 36.005 51.7856C35.9114 52.639 35.7619 53.1303 35.3644 53.8907C36.3874 53.5621 36.9573 53.205 37.6985 52.4262C38.269 51.8281 38.5867 51.4279 38.8428 50.6413C39.054 49.9932 38.9983 49.584 39.0257 48.9024C39.0429 48.5365 39.0429 48.17 39.0257 47.8041C39.4211 48.3951 39.5592 48.832 39.5749 49.5436C39.5959 50.521 39.3396 51.1751 38.6595 51.8774C39.5436 51.6975 40.0557 51.436 40.7189 50.8249C41.3562 50.2378 41.6676 49.7804 41.9089 48.9485C42.0735 48.3807 42.1057 48.0268 42.0461 47.4382C42.6332 48.1715 42.8053 48.8474 42.6413 49.7723C42.4478 50.8589 41.7886 51.3773 40.8564 51.9692C39.9537 52.5421 39.2694 52.719 38.2019 52.6555C38.4035 52.9769 38.5888 53.1391 38.9342 53.2961C39.2628 53.4454 39.4915 53.4794 39.8496 53.4336C39.1846 54.1537 38.6716 54.488 37.7445 54.8063C36.763 55.1431 36.1082 55.1885 35.09 54.989C35.9093 55.7259 36.5611 56.0292 37.653 56.179C39.0384 56.3695 39.5752 55.8129 41.1311 55.3097C40.6777 56.1426 40.2949 56.5798 39.5291 57.1398C38.8461 57.6399 38.4074 58.0338 37.5612 58.0555C36.6661 58.0777 36.2222 57.6035 35.4559 57.1398C34.5565 56.5961 34.4448 55.4801 33.3965 55.4009C32.0623 55.3004 30.875 56.4435 30.9252 57.781C31.0594 57.3032 31.2749 57.0246 31.7034 56.7742C32.0358 56.5798 32.2796 56.5215 32.6641 56.5449C32.5242 57.0634 32.6446 57.4988 33.0303 57.8719C33.4949 58.3214 34.1262 58.3916 34.678 58.0551C34.5884 58.4301 34.6582 58.7222 34.907 59.0159C35.1878 59.3481 35.5335 59.4685 35.9596 59.3821C34.8778 59.89 34.1785 60.0621 32.9849 60.1145C32.0337 60.1569 31.431 59.4573 30.5593 59.8401C29.9007 60.1292 29.3533 60.4518 29.2778 61.167C29.2364 61.5614 29.3528 61.956 29.6015 62.2648C29.8502 62.5736 30.211 62.7714 30.6051 62.8151C30.2476 62.3348 30.0102 61.3506 30.8798 61.3046C31.6582 61.2633 31.6612 62.5169 32.4357 62.5397C33.1152 62.5602 33.6225 62.2683 33.946 61.6704C34.4283 61.6993 34.7087 61.6786 35.1814 61.5787C35.7231 61.464 36.0276 61.3488 36.5087 61.0756C36.268 61.8889 36.0832 62.3396 35.6848 63.0889C35.2919 63.8276 34.4175 64.0403 34.4948 64.8738C34.5327 65.28 34.6389 65.5274 34.9067 65.8346C34.9085 66.6849 35.448 67.3508 36.2794 67.5283C36.9865 67.6794 37.5784 67.4606 38.0186 66.8871C37.6497 67.071 37.3608 67.0962 36.9658 66.9789C36.6336 66.8802 36.3561 66.7996 36.2334 66.4758C36.0604 66.0169 36.6685 65.8433 36.92 65.4233C37.2315 64.9021 37.4352 64.6162 37.6524 64.0499C37.863 63.5005 37.7695 63.119 38.0186 62.5855C38.2936 61.9972 38.4188 61.4911 39.0254 61.2585C39.5099 61.0729 39.8559 61.2004 40.3527 61.3503C40.9124 61.5191 41.0502 62.1561 41.6339 62.1278C42.2547 62.0989 42.7478 61.7306 42.8694 61.121C42.9612 60.6636 43.1098 60.2054 43.556 60.206C44.0928 60.2066 44.3829 61.2573 43.9222 61.5329C44.5607 61.2597 44.8803 60.602 44.7001 59.9316C44.5629 59.4191 44.228 59.1757 43.739 58.9702C42.8646 58.6028 42.3991 59.8112 41.451 59.794C40.9397 59.7847 40.6394 59.7206 40.1694 59.5196C40.4592 58.9284 40.6656 58.6088 41.0848 58.1009C41.4949 57.6044 41.7624 57.3468 42.2745 56.9566C42.4536 57.4762 42.6621 57.7657 43.0984 58.1009C43.7236 58.5805 44.2938 58.7126 45.0663 58.5586C44.2601 58.0233 43.8864 57.3733 43.8308 56.4071C43.7913 55.7241 43.9102 55.2842 44.2884 54.714C44.8529 56.1357 45.0663 57.0288 45.0663 58.5586C45.0663 62.0824 41.9544 66.7045 38.1558 69.0382C38.7245 69.3744 39.1024 69.5037 39.7575 69.5877C40.3605 69.6653 40.7237 69.6437 41.3134 69.4959C42.805 67.6159 43.5136 66.4069 44.4256 64.1872C45.4767 61.6283 45.8456 60.0369 46.0273 57.2764H46.3478C46.1874 60.0438 45.8522 61.6352 44.8833 64.2329C43.9899 66.6271 43.2822 67.9382 41.7714 69.9993C41.7856 70.6875 42.0828 71.1782 42.6868 71.5098C43.3626 71.8799 44.0588 71.8155 44.6546 71.3266C45.6942 68.7984 46.136 67.2891 46.6225 64.5994C47.1289 61.7995 47.2421 60.1647 47.1259 57.3225H47.4006C47.5998 60.2999 47.5177 62.0204 47.0344 64.9653C46.5882 67.6869 46.1672 69.2173 45.158 71.7842C45.5254 72.433 45.8311 72.7715 46.4396 73.203C46.9673 73.5773 47.3215 73.7356 47.9498 73.8893C48.5777 73.7353 48.9322 73.5773 49.46 73.203C50.0681 72.7715 50.3744 72.433 50.7418 71.7842C49.7326 69.2173 49.3113 67.6869 48.8654 64.9653C48.3825 62.0204 48.3 60.2996 48.4992 57.3225H48.7736C48.6578 60.1644 48.7706 61.7995 49.2773 64.5994C49.7639 67.2891 50.2053 68.7984 51.2449 71.3266C51.8407 71.8155 52.5373 71.8802 53.2131 71.5098C53.8167 71.1782 54.114 70.6878 54.1281 69.9993C52.6173 67.9382 51.9096 66.6271 51.0162 64.2329C50.047 61.6352 49.7121 60.0438 49.5518 57.2764H49.8719C50.0536 60.0369 50.4226 61.6283 51.4739 64.1872C52.3859 66.4069 53.0942 67.6159 54.5858 69.4959C55.1752 69.6434 55.539 69.665 56.142 69.5877C56.7968 69.5037 57.1747 69.3744 57.7434 69.0382C53.9452 66.7045 50.8327 62.0824 50.8327 58.5586C50.8327 57.0288 51.046 56.1354 51.6108 54.714C51.9893 55.2842 52.1079 55.7241 52.0685 56.4071C52.0125 57.3733 51.6388 58.0233 50.8327 58.5586C51.6054 58.7126 52.1756 58.5802 52.8009 58.1009C53.2369 57.766 53.4457 57.4762 53.6241 56.9566C54.1365 57.3468 54.4046 57.6041 54.8142 58.1009C55.2339 58.6088 55.44 58.9284 55.7298 59.5196C55.2598 59.7206 54.9592 59.7847 54.448 59.794C53.5001 59.8112 53.0347 58.6028 52.1599 58.9702C51.671 59.176 51.3361 59.4191 51.1986 59.9316C51.0192 60.6023 51.3385 61.2597 51.9767 61.5329C51.5166 61.2573 51.8064 60.2066 52.3429 60.206C52.7888 60.2054 52.9378 60.6636 53.0292 61.121C53.1514 61.7303 53.644 62.0989 54.265 62.1278C54.8485 62.1561 54.9866 61.5191 55.5463 61.3503C56.0427 61.2004 56.3891 61.0729 56.8738 61.2585C57.4804 61.4911 57.6056 61.9972 57.8806 62.5855C58.1298 63.119 58.0365 63.5005 58.2468 64.0499C58.4638 64.6165 58.6675 64.9021 58.9792 65.4233C59.2308 65.8433 59.8389 66.0169 59.6656 66.4758C59.5434 66.7996 59.2654 66.8802 58.9332 66.9789C58.5384 67.0965 58.2492 67.0713 57.8806 66.8871C58.3208 67.4606 58.9127 67.6794 59.6195 67.5283C60.4512 67.3508 60.9907 66.6849 60.9922 65.8346C61.2603 65.5274 61.3665 65.2797 61.4041 64.8738C61.4818 64.0403 60.6074 63.8276 60.2141 63.0889C59.8157 62.3396 59.6309 61.8889 59.3908 61.0756C59.8723 61.3488 60.1759 61.464 60.7178 61.5787C61.1902 61.6786 61.4712 61.699 61.953 61.6704C62.2767 62.268 62.7841 62.5602 63.4635 62.5397C64.238 62.5169 64.241 61.2633 65.0197 61.3046C65.8896 61.3503 65.6522 62.3348 65.2942 62.8151C65.6883 62.7715 66.0491 62.5737 66.2977 62.2649C66.5464 61.9561 66.6627 61.5613 66.6211 61.167C66.5459 60.4518 65.9989 60.1292 65.3399 59.8401C64.4685 59.4576 63.8655 60.1569 62.9144 60.1145C61.7207 60.0621 61.0214 59.89 59.9394 59.3821C60.3654 59.4685 60.7115 59.3481 60.9919 59.0159C61.2411 58.7219 61.3106 58.4301 61.2212 58.0551C61.773 58.3913 62.4037 58.3214 62.8686 57.8719C63.2547 57.4988 63.3747 57.0631 63.2348 56.5449C63.6191 56.5215 63.8631 56.5795 64.1956 56.7742C64.6241 57.0246 64.8398 57.3032 64.9737 57.781C65.0243 56.4435 63.8366 55.3004 62.5024 55.4009C61.4541 55.4804 61.3425 56.5964 60.4431 57.1398C59.6767 57.6035 59.2326 58.0777 58.3374 58.0555C57.4916 58.0338 57.0526 57.6399 56.3698 57.1398C55.604 56.5798 55.2216 56.1426 54.7678 55.3097C56.3241 55.8129 56.8612 56.3692 58.2465 56.179C59.3379 56.0292 59.9902 55.7259 60.8096 54.989C59.791 55.1882 59.1363 55.1431 58.155 54.8063C57.2277 54.4877 56.7152 54.1534 56.05 53.4336C56.405 53.3678 56.6066 53.338 56.965 53.2961C57.3753 53.2455 57.788 53.2168 58.2014 53.2104C57.03 53.1288 56.3226 52.8713 55.3735 52.1819C54.5283 51.5678 53.9801 51.1182 53.6593 50.125C53.3368 49.1254 53.39 48.3813 53.8534 47.4382C53.6548 48.195 53.6936 48.7204 54.002 49.4392C54.2819 50.091 54.6655 50.3371 55.1804 50.8249C55.9504 51.5542 56.4685 51.9063 57.4302 52.3528C56.7297 51.4065 56.4565 50.7132 56.3247 49.5436C56.2302 48.7038 56.2678 48.1983 56.4875 47.3823C56.6785 47.9633 56.7643 48.3006 56.8741 48.9024C56.9963 49.5734 56.8458 49.9932 57.0568 50.6413C57.3131 51.4276 57.6598 51.8013 58.2011 52.4262C59.179 53.5576 59.9607 54.0881 61.3722 54.5813C60.5776 53.638 60.2261 52.9733 59.8942 51.7856C59.6015 50.7394 59.6761 50.0967 59.6586 49.0104C59.6439 48.1405 59.6634 47.648 59.7438 46.782C60.1563 47.7124 60.3344 48.2711 60.5348 49.2683C60.747 50.3221 60.4362 50.991 60.7641 52.0146C61.1791 53.3112 61.6205 54.1116 62.7317 54.8978C63.484 55.4298 64.0159 55.6401 64.9286 55.7671C64.3063 54.8581 64.0319 54.2668 63.7385 53.2041C63.4247 52.064 63.5541 51.3635 63.4641 50.1839C63.3724 49.0228 63.3036 47.86 63.2577 46.6962C63.6633 47.8433 63.8532 48.5079 64.1152 49.6956C64.4062 51.0162 64.5203 51.7766 64.6289 53.1243C64.8675 54.1122 65.1591 54.6734 65.8289 55.4379C66.7863 56.5305 67.6577 57.0095 69.0936 57.2316C68.4407 56.5964 68.1292 56.145 67.766 55.3097C67.494 54.6821 67.3893 54.2954 67.3087 53.616L66.7132 47.7124C67.1709 49.4058 67.6746 50.4126 68.4521 51.2365C69.2221 52.0516 70.1311 52.0597 71.2441 51.9228C70.7865 51.7306 70.5382 51.5392 70.2373 51.1447C69.8907 50.6916 69.9063 50.3154 69.7336 49.772C69.2007 48.0972 69.0244 47.0889 68.9555 45.3329C69.0906 46.136 69.384 46.6258 70.0273 47.125C70.562 47.5396 70.9793 47.6937 71.6558 47.725C71.236 46.9797 71.0269 46.5404 70.713 45.7448C70.1928 44.4284 69.9807 43.6394 69.7697 42.2402C70.2111 42.5956 70.5157 42.753 71.0603 42.9073C71.4075 43.0057 71.6151 43.0367 71.9753 43.0448C71.4165 41.9757 71.1533 41.3366 70.7982 40.1833C70.4762 39.1368 70.3426 38.5262 70.1982 37.4409C70.5638 37.7015 70.7994 37.8197 71.2267 37.9551C71.6145 38.0782 71.8489 38.1173 72.2551 38.1266C71.02 36.9366 70.6273 34.9555 69.6846 31.7407C68.8619 28.9354 68.5809 27.1953 66.3425 25.6995C65.1431 24.8985 64.2961 24.5567 62.8569 24.464C60.2487 24.2955 57.6423 24.9091 56.8296 27.393C56.4017 28.7028 56.9511 29.5456 57.0869 30.9168C57.2196 32.2591 57.6528 32.9765 57.5153 34.3492C57.4178 35.3262 57.1163 36.0065 56.316 36.5918C55.1536 37.4406 53.7023 37.3687 52.6305 36.4088C53.5757 36.7452 54.2795 36.7229 55.2017 36.327C55.9212 36.0179 56.3108 35.6936 56.7444 35.0415C55.7942 35.0849 55.1647 34.8748 54.4308 34.2703C53.8149 33.7636 53.5299 33.3243 53.3166 32.5564C53.8549 32.9864 54.2611 33.1573 54.9445 33.2422C55.7578 33.343 56.2961 33.2307 57.0014 32.8137C56.037 32.4297 55.5123 32.0864 54.7735 31.3567C54.0541 30.6469 53.7129 30.1438 53.3166 29.2143C53.7809 29.7614 54.231 29.9985 54.9445 30.0713C55.4858 30.1263 55.8312 30.0617 56.3162 29.814C55.474 29.4632 55.0176 29.1427 54.4022 28.469C53.5934 27.5829 53.2546 26.8845 53.0593 25.7004C53.4637 25.9502 53.6777 26.125 54.002 26.4716C54.3634 26.8574 54.5397 27.1119 54.7735 27.5859C54.0484 25.4435 53.0374 24.2302 51.0617 23.1296C49.4961 22.2575 48.4757 22.1534 46.5765 22.1306C46.0147 22.1239 45.5826 22.0147 45.1577 22.3821C44.9182 22.5894 44.8081 22.7634 44.7232 23.0688L43.4646 22.9313C43.0418 22.8964 42.7448 23.002 42.437 23.2969C42.0555 23.6621 41.9354 24.0906 42.0708 24.6009L42.5285 26.2029C42.2914 26.2499 42.1382 26.2387 41.9107 26.1572C41.6297 26.0567 41.4732 25.93 41.3156 25.6767C41.3881 26.2345 41.6547 26.6016 42.1623 26.8435C42.5029 27.006 42.8143 26.7415 43.1234 26.9579C43.2946 27.0779 43.3794 27.1793 43.4667 27.3698C43.9382 27.0653 44.2782 26.9576 44.8394 26.935C45.635 26.9034 46.1663 27.093 46.7618 27.6214C46.3451 28.7058 45.6972 29.3127 44.5878 29.6581C43.6036 29.9648 42.8649 29.8941 41.9565 29.4066Z" fill="#00ACEC"/>
<path fill-rule="evenodd" clip-rule="evenodd" d="M47.9515 43.159C46.2873 43.159 43.7203 43.7157 43.7203 43.7157L41.8884 39.464L43.3246 40.3616L42.9028 41.0368L43.3345 41.3064L43.7561 40.6315L44.3588 41.0079L44.0155 41.5342C43.6722 42.0376 43.4606 42.3963 43.8325 42.541C44.2445 42.7014 44.5499 42.717 44.8393 42.4495C45.1369 42.1748 45.2284 42.0376 45.3888 41.7632C45.7023 42.1724 46.0887 42.34 46.6017 42.2895C47.255 42.2248 47.8372 41.7174 47.8143 41.1223C47.8041 40.8548 47.6371 40.8039 47.4481 40.6878L46.9905 41.1454L46.1895 40.3444L46.8304 39.7038L47.471 40.3444L47.8372 39.9785L47.2194 39.3608L47.9515 38.6284L48.6836 39.3608L48.0662 39.9785L48.4321 40.3444L49.0727 39.7038L49.7139 40.3444L48.9129 41.1454L48.4552 40.6878C48.2666 40.8042 48.0993 40.8548 48.089 41.1223C48.0662 41.7174 48.6484 42.2248 49.302 42.2895C49.815 42.34 50.2011 42.1724 50.5143 41.7632C50.6747 42.0379 50.7664 42.1751 51.0637 42.4495C51.3535 42.717 51.6586 42.7011 52.0705 42.541C52.4424 42.3966 52.2309 42.0379 51.8873 41.5342L51.544 41.0079L52.147 40.6315L52.5688 41.3064L53.0003 41.0368L52.5785 40.3616L54.0146 39.464L52.1828 43.7154C52.1828 43.7154 49.6158 43.159 47.9515 43.159Z" fill="white"/>
<path fill-rule="evenodd" clip-rule="evenodd" d="M43.8121 43.9707C44.2842 43.8723 46.4739 43.4336 47.9516 43.4336C49.6159 43.4336 52.0935 43.983 52.0935 43.983L51.594 45.2221C50.737 45.059 49.1215 44.784 47.9516 44.784C46.7838 44.784 45.1716 45.0578 44.3137 45.2212L43.8121 43.9707Z" fill="white"/>
<path fill-rule="evenodd" clip-rule="evenodd" d="M47.54 44.0859C47.54 43.9532 47.7244 43.8455 47.9519 43.8455C48.1797 43.8455 48.3638 43.9532 48.3638 44.0859C48.3638 44.2183 48.1797 44.326 47.9519 44.326C47.7241 44.326 47.54 44.2183 47.54 44.0859ZM45.5718 44.3031C45.5583 44.1713 45.7301 44.045 45.9563 44.0212C46.1826 43.9974 46.3773 44.085 46.3911 44.2171C46.4047 44.3492 46.2329 44.4752 46.0066 44.499C45.7803 44.5228 45.5859 44.4352 45.5718 44.3031ZM50.3317 44.3031C50.3452 44.1713 50.1731 44.045 49.9469 44.0212C49.7212 43.9974 49.5262 44.085 49.5127 44.2171C49.4985 44.3492 49.6706 44.4752 49.8969 44.499C50.1232 44.5228 50.3176 44.4352 50.3317 44.3031Z" fill="#00ACEC"/>
<path fill-rule="evenodd" clip-rule="evenodd" d="M44.8396 45.7448C46.0261 45.4469 46.7287 45.3558 47.9518 45.3558C49.1753 45.3558 49.8776 45.4469 51.064 45.7448C49.8776 46.0427 49.1753 46.1336 47.9518 46.1336C46.7287 46.1336 46.0258 46.0427 44.8396 45.7448ZM34.4968 35.3602C32.8326 35.3602 30.2656 35.9169 30.2656 35.9169L28.4337 31.6658L29.8699 32.5631L29.448 33.2383L29.8798 33.5079L30.3017 32.833L30.9041 33.2094L30.5608 33.736C30.2174 34.2394 30.0059 34.598 30.3778 34.7425C30.7898 34.9029 31.0949 34.9185 31.3846 34.651C31.6822 34.3763 31.7734 34.2391 31.9338 33.9647C32.2473 34.3739 32.6337 34.5415 33.1464 34.4909C33.7996 34.4265 34.3822 33.9192 34.3593 33.324C34.3491 33.0565 34.1818 33.0057 33.9931 32.8895L33.5355 33.3472L32.7345 32.5462L33.3751 31.9056L34.0157 32.5462L34.3819 32.18L33.7641 31.562L34.4962 30.8296L35.2286 31.562L34.6109 32.18L34.9771 32.5462L35.6177 31.9056L36.2583 32.5462L35.4573 33.3472L34.9996 32.8895C34.811 33.0057 34.6437 33.0565 34.6334 33.324C34.6106 33.9192 35.1931 34.4265 35.8464 34.4909C36.3594 34.5418 36.7457 34.3742 37.059 33.9647C37.2191 34.2394 37.3108 34.3766 37.6081 34.651C37.8979 34.9185 38.203 34.9026 38.6149 34.7425C38.9868 34.598 38.7753 34.2394 38.432 33.736L38.0889 33.2094L38.6913 32.833L39.1132 33.5079L39.5447 33.2383L39.1228 32.5631L40.559 31.6658L38.7272 35.9169C38.7281 35.9169 36.1614 35.3602 34.4968 35.3602Z" fill="white"/>
<path fill-rule="evenodd" clip-rule="evenodd" d="M30.3577 36.1719C30.8298 36.0735 33.0194 35.6348 34.4971 35.6348C36.1614 35.6348 38.639 36.1839 38.639 36.1839L38.1395 37.423C37.2825 37.2599 35.667 36.9846 34.4974 36.9846C33.3296 36.9846 31.7177 37.2587 30.8596 37.4221L30.3577 36.1719Z" fill="white"/>
<path fill-rule="evenodd" clip-rule="evenodd" d="M34.0853 36.287C34.0853 36.1543 34.2694 36.0469 34.4969 36.0469C34.7244 36.0469 34.9088 36.1543 34.9088 36.287C34.9088 36.4197 34.7244 36.5274 34.4969 36.5274C34.2697 36.5274 34.0853 36.4197 34.0853 36.287ZM32.1171 36.5042C32.1033 36.3724 32.2754 36.2461 32.5017 36.2223C32.7279 36.1985 32.9223 36.2861 32.9365 36.4182C32.9503 36.5503 32.7782 36.6764 32.5522 36.7004C32.3259 36.7242 32.1313 36.6363 32.1171 36.5042ZM36.877 36.5042C36.8909 36.3724 36.7188 36.2461 36.4925 36.2223C36.2662 36.1985 36.0715 36.2861 36.0577 36.4182C36.0438 36.5503 36.216 36.6764 36.4422 36.7004C36.6685 36.7245 36.8632 36.6363 36.877 36.5042Z" fill="#00ACEC"/>
<path fill-rule="evenodd" clip-rule="evenodd" d="M31.385 37.9458C32.5712 37.6483 33.2741 37.5571 34.4969 37.5571C35.7201 37.5571 36.4227 37.6483 37.6091 37.9458C36.423 38.2437 35.7204 38.3349 34.4969 38.3349C33.2741 38.3349 32.5715 38.244 31.385 37.9458ZM63.549 35.3602C65.2132 35.3602 67.7802 35.9169 67.7802 35.9169L69.6121 31.6658L68.1759 32.5631L68.5977 33.2383L68.1656 33.5079L67.7438 32.833L67.1414 33.2094L67.4847 33.736C67.828 34.2394 68.0396 34.598 67.6674 34.7425C67.256 34.9029 66.9503 34.9185 66.6605 34.651C66.3633 34.3763 66.2715 34.2391 66.1117 33.9647C65.7979 34.3739 65.4118 34.5415 64.8988 34.4909C64.2458 34.4265 63.6636 33.9192 63.6859 33.324C63.6964 33.0565 63.8634 33.0057 64.0527 32.8895L64.51 33.3472L65.311 32.5462L64.6704 31.9056L64.0292 32.5462L63.6636 32.18L64.2813 31.562L63.549 30.8296L62.8166 31.562L63.4343 32.18L63.0681 32.5462L62.4275 31.9056L61.7869 32.5462L62.5879 33.3472L63.0452 32.8895C63.2339 33.0057 63.4015 33.0565 63.4114 33.324C63.4343 33.9192 62.8521 34.4265 62.1991 34.4909C61.6861 34.5418 61.2994 34.3742 60.9862 33.9647C60.8258 34.2394 60.7347 34.3766 60.4374 34.651C60.1476 34.9185 59.8419 34.9026 59.43 34.7425C59.058 34.598 59.2702 34.2394 59.6132 33.736L59.9565 33.2094L59.3535 32.833L58.9323 33.5079L58.5002 33.2383L58.922 32.5631L57.4858 31.6658L59.3177 35.9169C59.3174 35.9169 61.8844 35.3602 63.549 35.3602Z" fill="white"/>
<path fill-rule="evenodd" clip-rule="evenodd" d="M67.6881 36.1719C67.2163 36.0735 65.0269 35.6348 63.5489 35.6348C61.8846 35.6348 59.4067 36.1839 59.4067 36.1839L59.9068 37.423C60.7638 37.2599 62.3793 36.9846 63.5489 36.9846C64.7167 36.9846 66.3286 37.2587 67.1868 37.4221L67.6881 36.1719Z" fill="white"/>
<path fill-rule="evenodd" clip-rule="evenodd" d="M63.9609 36.287C63.9609 36.1543 63.7764 36.0469 63.5489 36.0469C63.3215 36.0469 63.137 36.1543 63.137 36.287C63.137 36.4197 63.3215 36.5274 63.5489 36.5274C63.7764 36.5274 63.9609 36.4197 63.9609 36.287ZM65.9284 36.5042C65.9426 36.3724 65.7705 36.2461 65.5442 36.2223C65.3179 36.1985 65.1235 36.2861 65.1094 36.4182C65.0959 36.5503 65.268 36.6764 65.4937 36.7004C65.7205 36.7242 65.9149 36.6363 65.9284 36.5042ZM61.1688 36.5042C61.1553 36.3724 61.3274 36.2461 61.5537 36.2223C61.78 36.1985 61.9743 36.2861 61.9879 36.4182C62.002 36.5503 61.8299 36.6764 61.6036 36.7004C61.3774 36.7245 61.1827 36.6363 61.1688 36.5042Z" fill="#00ACEC"/>
<path fill-rule="evenodd" clip-rule="evenodd" d="M66.6608 37.9459C65.475 37.6483 64.7721 37.5571 63.5489 37.5571C62.3258 37.5571 61.6232 37.6483 60.437 37.9459C61.6229 38.2438 62.3258 38.335 63.5489 38.335C64.7721 38.335 65.4747 38.2441 66.6608 37.9459ZM48.3635 23.5259C48.3635 23.8235 48.1348 24.0065 47.7229 23.9836C47.1963 23.8918 46.9676 23.7546 46.9219 23.4802C46.9219 23.4195 46.946 23.3613 46.9889 23.3184C47.0318 23.2755 47.09 23.2514 47.1507 23.2514C47.2114 23.2514 47.2696 23.2755 47.3125 23.3184C47.3554 23.3613 47.3795 23.4195 47.3795 23.4802C47.3795 23.4802 47.5408 23.6604 47.6771 23.6631C47.8089 23.6656 47.904 23.6144 47.9744 23.5031C47.9097 23.3589 48.1002 23.1522 48.2494 23.2055C48.374 23.2503 48.4622 23.4375 48.3635 23.5259ZM46.2355 22.7478L46.3956 22.9994L47.2195 23.0451C47.4463 23.0061 47.6757 22.983 47.9058 22.9762C48.3526 22.9584 48.6084 22.9738 49.0498 23.0451C48.5079 22.8155 48.1721 22.7316 47.5854 22.6792C47.0603 22.6326 46.7531 22.6482 46.2355 22.7478ZM45.0683 23.5945C45.5253 23.9379 45.9987 24.2586 46.4871 24.5556C47.1632 24.9736 47.7018 24.9859 48.2723 25.5395C48.5503 25.8095 49.0068 25.9479 48.89 26.3177C48.8154 26.553 48.6367 26.6336 48.4092 26.7296C47.9997 26.9023 47.7292 26.5783 47.2881 26.5235C46.992 26.4847 46.6941 26.4618 46.3956 26.4549L46.3499 26.1347C46.7937 26.2449 47.06 26.271 47.5167 26.2491C47.7412 26.2382 47.9043 26.3083 48.0888 26.1802C48.4778 25.9103 47.6185 25.5979 47.242 25.3106C46.744 24.9302 46.3002 24.9793 45.8004 24.601C45.4381 24.3269 45.2507 24.1398 44.9766 23.7772L45.0683 23.5945Z" fill="white"/>
<path fill-rule="evenodd" clip-rule="evenodd" d="M42.9633 26.1571C42.8029 25.6585 43.0189 25.1515 43.4895 24.9216C43.8347 24.7531 44.113 24.8343 44.4735 24.9673C44.6874 25.0465 44.7626 25.1867 44.9769 25.2649C45.2305 25.3576 45.4144 25.2523 45.6635 25.3564C45.8188 25.4211 45.903 25.474 46.0297 25.5851C45.4908 25.5685 45.1773 25.6052 44.6567 25.7451C44.2391 25.8577 44.0552 26.0963 43.6273 26.1571C43.3707 26.1938 43.2196 26.1938 42.9633 26.1571ZM43.4895 23.5486L43.7643 23.48H44.2219C44.428 23.5486 44.7025 23.5715 44.7025 23.7773C44.7025 23.9148 44.5424 24.0063 44.4052 24.0063C44.1533 24.0063 44.0161 23.8001 43.7646 23.8001C43.6731 23.8001 43.5816 23.8462 43.4898 23.8919L43.3984 23.709C43.3981 23.6401 43.4438 23.5943 43.4895 23.5486Z" fill="white"/>
</g>
<defs>
<clipPath id="clip0_1_1882">
<rect width="58" height="58" fill="white" transform="translate(19 19)"/>
</clipPath>
</defs>
</svg>
