<svg width="96" height="96" viewBox="0 0 96 96" fill="none" xmlns="http://www.w3.org/2000/svg">
<circle cx="48" cy="48" r="47" fill="white" stroke="white" stroke-width="2"/>
<path d="M61.9914 27.938C63.5406 29.0031 65.0899 30.1651 66.5423 31.327C60.7326 30.1651 54.8261 29.6809 48.9196 29.5841C48.4355 28.6158 47.8545 27.6476 47.3704 26.6793C52.2118 26.7761 57.15 27.0666 61.9914 27.938Z" fill="#A69E8B"/>
<path d="M75.0633 53.7914C74.2887 55.3406 73.5141 56.8899 72.5458 58.4391C72.1585 53.5977 70.9966 48.7563 69.3505 44.1086C70.2219 43.4308 71.1902 42.6562 72.0617 41.9784C73.5141 45.8515 74.5792 49.8214 75.0633 53.7914Z" fill="#A69E8B"/>
<path d="M50.0818 72.0918C48.1452 71.995 46.1118 71.8982 44.1753 71.6077C49.5008 69.8648 54.5358 67.4441 59.2804 64.7329C60.3455 65.2171 61.4106 65.7012 62.4757 66.1853C58.5058 68.5092 54.439 70.4458 50.0818 72.0918Z" fill="#A69E8B"/>
<path d="M41.4642 71.2201C39.4308 70.9296 37.4942 70.5423 35.5577 70.0582C42.0451 68.1216 48.0485 65.2168 53.7613 62.0215C55.1169 62.6992 56.3757 63.377 57.7313 64.0548C52.5994 66.8629 47.177 69.4772 41.4642 71.2201Z" fill="#00508E"/>
<path d="M71.287 60.4723C70.3187 61.9247 69.2536 63.3771 68.0916 64.8296C67.8012 59.0199 66.2519 53.307 64.4122 47.7878C65.6709 46.9164 66.8329 46.0449 67.9948 45.1735C69.7377 50.2085 70.9965 55.3404 71.287 60.4723Z" fill="#00508E"/>
<path d="M33.6208 28.1317C30.5223 32.3921 28.1985 36.943 26.2619 41.6876C25.1 41.7844 23.8412 41.8813 22.6793 42.0749C24.1317 38.2018 26.0682 34.3287 28.3921 30.746C30.0382 29.7778 31.7811 28.9063 33.6208 28.1317Z" fill="#A69E8B"/>
<path d="M36.1385 26.9698C37.9783 26.1952 39.9148 25.5174 41.8514 24.8396C37.9783 29.8747 35.1702 35.4907 32.8464 41.2035C31.2971 41.3004 29.7479 41.3972 28.1986 41.494C30.232 36.459 32.7495 31.5208 36.1385 26.9698Z" fill="#00508E"/>
<path d="M68.4793 33.07C69.9317 34.3288 71.2873 35.6844 72.546 37.04C65.6712 35.5875 58.6028 35.1034 51.5344 34.9097C50.9534 33.651 50.3724 32.3922 49.6946 31.1334C55.9885 31.2303 62.2823 31.7144 68.4793 33.07Z" fill="#00508E"/>
<path d="M32.9434 63.1834C32.7497 64.1517 32.4593 65.1199 32.2656 66.0882C28.3925 63.7644 24.713 61.0532 21.5177 58.1483C20.9367 56.5023 20.5494 54.953 20.1621 53.3069C23.8416 56.9864 28.2957 60.2786 32.9434 63.1834Z" fill="#A69E8B"/>
<path d="M63.0569 70.0585C62.4759 64.5394 60.9267 59.117 59.0869 53.7915L56.9567 47.885L59.9584 50.8866C60.9267 50.3057 61.8949 49.6279 62.7664 48.9501C64.703 54.6629 66.349 60.5694 66.6395 66.4759C65.4776 67.7347 64.3156 68.8966 63.0569 70.0585Z" fill="#A69E8B"/>
<path d="M33.1371 69.4772C31.3942 68.9931 29.6513 68.4121 27.9084 67.7343C34.4927 65.6041 40.7865 62.6992 46.5961 59.2134C48.0486 58.342 51.5344 56.1149 52.1153 55.7276C52.0185 55.8245 49.501 59.6976 49.501 59.6976C50.2756 60.1817 51.147 60.569 51.9217 61.0532C46.0152 64.3453 39.8182 67.4438 33.1371 69.4772Z" fill="#A69E8B"/>
<path d="M19.6779 50.8864C19.3874 49.2404 19.1938 47.4975 19.0969 45.7546C23.4542 50.4023 28.7797 54.3722 34.3957 57.9549C34.0084 59.2136 33.6211 60.4724 33.3306 61.7312C28.2956 58.5358 23.6478 55.05 19.6779 50.8864Z" fill="#00508E"/>
<path d="M77 42.656C68.3823 41.0099 52.212 40.8162 49.1136 40.8162L53.2772 38.8797C52.8898 38.1051 52.5994 37.2336 52.212 36.459C59.4741 36.6526 66.8331 37.1368 73.9015 38.5892C75.0634 39.9448 76.0317 41.3004 77 42.656Z" fill="#A69E8B"/>
<path d="M19 43.7211C19 42.075 19.0968 40.5258 19.1937 38.8797C23.0668 42.7528 27.6177 46.1418 32.3622 49.2403C33.1369 49.7244 33.9115 50.3054 34.6861 50.7895C35.6544 51.4673 38.6561 53.2102 40.7863 54.0817L35.7512 53.5007C35.4607 54.469 35.1703 55.4373 34.8798 56.3087C29.1669 52.5324 23.5509 48.4656 19 43.7211Z" fill="#A69E8B"/>
<path d="M44.1751 24.2588C46.0149 23.7746 47.8546 23.2905 49.7912 23C47.8546 25.227 44.3688 32.2955 43.3037 34.5225C42.4322 36.2654 41.6576 38.1052 40.883 39.8481L38.5591 45.7546L38.1718 41.1068C37.1067 41.1068 36.0416 41.2036 34.8797 41.2036C37.3972 35.2971 40.2052 29.4875 44.1751 24.2588Z" fill="#A69E8B"/>
</svg>
