<svg width="96" height="96" viewBox="0 0 96 96" fill="none" xmlns="http://www.w3.org/2000/svg">
<circle cx="48" cy="48" r="47" fill="white" stroke="white" stroke-width="2"/>
<path d="M37.3996 36H33.2242C33.0675 35.997 32.9161 36.0562 32.803 36.1647C32.69 36.2731 32.6245 36.422 32.621 36.5786V51.2003C32.621 53.3784 30.7779 55.1456 28.5059 55.1456C26.2339 55.1456 24.3976 53.3784 24.3976 51.2003H24.3842V36.5808C24.3806 36.4246 24.3155 36.2761 24.2029 36.1677C24.0903 36.0593 23.9395 35.9998 23.7832 36.0022H19.6056C19.5279 36.0004 19.4507 36.014 19.3783 36.0422C19.306 36.0703 19.2398 36.1125 19.1838 36.1662C19.1278 36.22 19.0829 36.2843 19.0518 36.3554C19.0206 36.4266 19.0039 36.5032 19.0024 36.5808V51.37C18.9992 51.387 18.9992 51.4045 19.0024 51.4214C19.1253 56.3542 23.3208 60.3195 28.4903 60.3195C33.6598 60.3195 37.8687 56.3542 37.9916 51.4147C37.9916 51.3991 37.9916 51.379 37.9916 51.3633V36.5808C37.9904 36.5037 37.9741 36.4275 37.9435 36.3567C37.9128 36.2858 37.8686 36.2217 37.8132 36.168C37.7578 36.1142 37.6924 36.0719 37.6206 36.0435C37.5489 36.0151 37.4723 36.001 37.3951 36.0022" fill="#00467F"/>
<path d="M76.4166 35.9999H60.5104C60.4326 36.0013 60.3559 36.0181 60.2847 36.0492C60.2134 36.0803 60.149 36.1251 60.095 36.1811C60.0411 36.2372 59.9987 36.3032 59.9703 36.3756C59.9419 36.448 59.9281 36.5253 59.9296 36.6031V40.8164C59.9281 40.8941 59.9419 40.9712 59.9704 41.0435C59.9988 41.1158 60.0412 41.1817 60.0952 41.2375C60.1491 41.2934 60.2136 41.338 60.2848 41.3689C60.3561 41.3997 60.4327 41.4162 60.5104 41.4174H65.0231V51.9888C65.0231 55.6347 67.5788 58.9589 71.0349 60.2837C71.1794 60.3399 71.3401 60.3381 71.4834 60.2785C71.6266 60.219 71.7413 60.1064 71.8034 59.9642L73.4387 56.2021C73.4675 56.1342 73.4819 56.0611 73.4812 55.9873C73.4804 55.9135 73.4644 55.8407 73.4342 55.7734C73.404 55.7061 73.3603 55.6457 73.3057 55.5961C73.2511 55.5465 73.1869 55.5087 73.117 55.485C72.3419 55.2179 71.6683 54.7178 71.1884 54.0532C70.7085 53.3885 70.4458 52.5918 70.4362 51.7721V41.4174H76.4166C76.5738 41.4144 76.7235 41.3493 76.8328 41.2362C76.9421 41.1232 77.0021 40.9714 76.9997 40.8142V36.6008C77.0009 36.5231 76.9867 36.4459 76.9581 36.3736C76.9294 36.3013 76.8868 36.2354 76.8326 36.1796C76.7785 36.1238 76.7139 36.0792 76.6425 36.0483C76.5711 36.0175 76.4944 36.001 76.4166 35.9999Z" fill="#00467F"/>
<path d="M50.8168 55.1657C47.3473 55.1657 46.3867 53.4343 46.3867 52.2949C46.3867 51.7833 46.3867 48.964 46.3867 48.964H50.5621C51.755 48.964 54.7888 49.2902 54.7888 51.8794C54.7888 53.0947 53.9868 55.1657 50.8123 55.1657M50.5688 40.9148C51.7662 40.9148 53.0262 41.6565 53.0262 42.74C53.0262 44.3619 51.831 44.8087 50.5688 44.8087H46.3912V40.9148H50.5688ZM57.4652 45.9861C57.9366 45.0299 58.3789 44.0201 58.3789 42.8428C58.3794 41.9688 58.1954 41.1045 57.8389 40.3064C57.4824 39.5084 56.9615 38.7946 56.3102 38.2117C54.5409 36.6479 52.5638 36 49.4875 36H41.6193C41.463 35.997 41.3119 36.0559 41.1989 36.1639C41.0859 36.2718 41.0202 36.4201 41.0161 36.5764V52.038C41.0161 56.0436 43.5986 60.3195 50.8011 60.3195C53.7858 60.3195 56.3303 59.3343 58.0125 57.5069C59.42 55.8895 60.1326 54.1358 60.1326 52.2949C60.1326 49.1919 58.9888 47.0204 57.4697 45.9838" fill="#00467F"/>
</svg>
