<svg width="96" height="96" viewBox="0 0 96 96" fill="none" xmlns="http://www.w3.org/2000/svg">
<circle cx="48" cy="48" r="47" fill="white" stroke="white" stroke-width="2"/>
<g clip-path="url(#clip0_1_2251)">
<path d="M26.2212 41C27.9231 41 28.7019 42.2053 28.7019 43.2097C28.7019 44.2715 27.9519 45.4481 26.2212 45.4481H24.75V48.4614H22.875V41H26.2212ZM24.75 44.0993H25.6154C26.4808 44.0993 26.7692 43.7837 26.7692 43.2384C26.7692 42.6071 26.3942 42.3775 25.3846 42.3775H24.75V44.0993Z" fill="black"/>
<path d="M33.0288 41C34.5577 41 35.4807 42.0331 35.4807 43.1523C35.4807 43.9845 35.048 44.5872 34.1827 44.989C34.9615 45.362 35.1923 46.2804 36.2307 48.4901H34.1827C33.375 46.883 33.0865 45.4481 32.0769 45.4481H31.5288V48.4614H29.6538V41H33.0288ZM31.5288 44.0706H32.5384C33.0577 44.0706 33.548 43.8411 33.548 43.2097C33.548 42.6645 33.173 42.3775 32.4807 42.3775H31.5288V44.0706Z" fill="black"/>
<path d="M40.5867 48.5474C37.8463 48.5474 36.2886 46.6246 36.2886 44.7306C36.2886 42.9226 37.7597 40.9138 40.5867 40.9138C43.4136 40.9138 44.8847 42.9513 44.8847 44.7306C44.8847 46.6533 43.2982 48.5474 40.5867 48.5474ZM40.5867 42.4635C39.1443 42.4635 38.2213 43.3818 38.2213 44.7306C38.2213 46.1081 39.1732 46.9977 40.5867 46.9977C42.0001 46.9977 42.952 46.0794 42.952 44.7306C42.952 43.3531 42.029 42.4635 40.5867 42.4635Z" fill="black"/>
<path d="M48.8078 48.5475H48.0001L44.3655 41H46.3847L48.3751 45.2472L50.2501 41H52.2693L48.8078 48.5475Z" fill="black"/>
<path d="M54.6924 48.4614H52.8174V41H54.6924V48.4614Z" fill="black"/>
<path d="M59.3942 41C62.1346 41 63.548 42.6932 63.548 44.7307C63.548 46.883 62.1923 48.4614 59.1923 48.4614H56.1057V41H59.3942ZM57.9519 47.0839H59.1634C61.0384 47.0839 61.6153 45.8212 61.6153 44.7307C61.6153 43.4393 60.923 42.3775 59.1634 42.3775H57.9519V47.0839Z" fill="black"/>
<path d="M70.1249 48.4614H64.5864V41H70.0383V42.3775H66.4614V43.9272H69.8653V45.3046H66.4614V47.0839H70.1249V48.4614Z" fill="black"/>
<path d="M78.8077 48.4614H77.25L73.0962 43.6689V48.4614H71.2212V41H72.9231L76.9616 45.5629V41H78.8366V48.4614H78.8077Z" fill="black"/>
<path d="M86.9424 42.3775H84.2308V48.4614H82.3558V42.3775H79.6443V41H86.9424V42.3775Z" fill="black"/>
<path d="M26.2501 53.5983C25.6732 53.8852 25.2405 54 24.6347 54C23.0482 54 22.2405 52.9669 22.2405 51.9338C22.2405 50.8433 23.1347 49.8389 24.6924 49.8389C25.2693 49.8389 25.7886 49.9537 26.1636 50.2119V51.1303C25.702 50.872 25.2693 50.6998 24.7501 50.6998C23.8847 50.6998 23.2789 51.2164 23.2789 51.9338C23.2789 52.6512 23.8847 53.1965 24.7501 53.1965C25.2982 53.1965 25.6443 53.0243 26.2212 52.7373V53.5983H26.2501Z" fill="black"/>
<path d="M30.4328 49.8674C31.2693 49.8674 31.7597 50.4414 31.7597 51.044C31.7597 51.5032 31.5289 51.8189 31.0674 52.0484C31.5001 52.2493 31.6155 52.7659 32.1924 53.9425H31.0674C30.6347 53.0816 30.4616 52.278 29.9136 52.278H29.6251V53.9425H28.6155V49.8674H30.4328ZM29.6251 51.5319H30.1732C30.4616 51.5319 30.7212 51.4171 30.7212 51.0727C30.7212 50.7571 30.5193 50.6136 30.1443 50.6136H29.6251V51.5319Z" fill="black"/>
<path d="M37.2693 53.9425H34.2405V49.8674H37.2116V50.6136H35.2501V51.4745H37.1251V52.2206H35.2501V53.1964H37.2405V53.9425H37.2693Z" fill="black"/>
<path d="M41.4233 49.8674C42.9233 49.8674 43.7021 50.7858 43.7021 51.905C43.7021 53.0816 42.9521 53.9425 41.3079 53.9425H39.606V49.8674H41.4233ZM40.6444 53.1964H41.3079C42.3463 53.1964 42.6348 52.5076 42.6348 51.905C42.6348 51.2162 42.2598 50.6136 41.279 50.6136H40.6156V53.1964H40.6444Z" fill="black"/>
<path d="M47.077 53.9425H46.0674V49.8674H47.077V53.9425Z" fill="black"/>
<path d="M53.2789 50.6136H51.8077V53.9425H50.7981V50.6136H49.2693V49.8674H53.2501V50.6136H53.2789Z" fill="black"/>
<path d="M62.7404 49.8674V52.1919C62.7404 53.5407 61.8174 53.9999 60.6924 53.9999C59.5097 53.9999 58.6443 53.4546 58.6443 52.1919V49.8674H59.6539V52.2206C59.6539 52.7946 60.0866 53.1677 60.6635 53.1677C61.2116 53.1677 61.702 52.8807 61.702 52.1632V49.8961H62.7404V49.8674Z" fill="black"/>
<path d="M69.3462 53.9425H68.4808L66.202 51.331V53.9425H65.1924V49.8674H66.1443L68.3366 52.3641V49.8674H69.3462V53.9425Z" fill="black"/>
<path d="M72.8944 53.9425H71.8848V49.8674H72.8944V53.9425Z" fill="black"/>
<path d="M77.5674 53.9999C76.0674 53.9999 75.2308 52.9381 75.2308 51.905C75.2308 50.9293 76.0385 49.8101 77.5674 49.8101C79.1251 49.8101 79.9039 50.9293 79.9039 51.905C79.9039 52.9668 79.0385 53.9999 77.5674 53.9999ZM77.5674 50.671C76.7885 50.671 76.2693 51.1588 76.2693 51.905C76.2693 52.6511 76.7885 53.139 77.5674 53.139C78.3462 53.139 78.8655 52.6511 78.8655 51.905C78.8655 51.1588 78.3462 50.671 77.5674 50.671Z" fill="black"/>
<path d="M86.3655 53.9425H85.5001L83.2213 51.331V53.9425H82.2117V49.8674H83.1636L85.3559 52.3641V49.8674H86.3655V53.9425Z" fill="black"/>
<path d="M6 41H18.9231V41.8322C12.8365 41.8896 7.93269 46.8543 7.93269 52.9095C7.93269 53.2539 7.93269 53.8565 7.93269 53.8565H6V41Z" fill="black"/>
<path d="M18.9232 43.5828V44.6159C14.3943 44.702 10.7308 48.3753 10.7308 52.9095C10.7308 53.2251 10.7597 53.8565 10.7308 53.8565H9.69238C9.72123 53.8565 9.69238 53.2251 9.69238 52.9095C9.72123 47.8013 13.8174 43.6689 18.9232 43.5828Z" fill="black"/>
<path d="M18.9231 46.4238V47.3995C15.9231 47.4856 13.5288 49.8962 13.5288 52.9095C13.5288 53.2252 13.5288 53.8565 13.5288 53.8565H12.5769C12.6058 53.8565 12.5769 53.2252 12.5769 52.9095C12.5769 49.3797 15.4038 46.5099 18.9231 46.4238Z" fill="black"/>
<path d="M18.923 49.2361V53.8851H15.3749C15.4037 53.8851 15.3749 53.2537 15.3749 52.9381C15.3461 50.9292 16.9326 49.2935 18.923 49.2361Z" fill="black"/>
<path d="M88.0674 42.3488V41.1435H88.5289V41H87.4327V41.1722H87.8943V42.3775H88.0674V42.3488Z" fill="black"/>
<path d="M88.702 42.3488V41H88.9616L89.2789 41.9757C89.3078 42.0618 89.3366 42.1479 89.3366 42.1766C89.3655 42.1192 89.3655 42.0618 89.4232 41.947L89.7693 41H90.0001V42.3775H89.827V41.2296L89.4232 42.3775H89.2501L88.8463 41.2009V42.3775H88.702V42.3488Z" fill="black"/>
<path d="M20.0191 42.3488V41.1435H20.4807V41H19.3845V41.1722H19.8461V42.3775H20.0191V42.3488Z" fill="black"/>
<path d="M20.6826 42.3488V41H20.9422L21.2595 41.9757C21.2884 42.0618 21.3172 42.1479 21.3172 42.1766C21.3461 42.1192 21.3461 42.0618 21.4038 41.947L21.7499 41H21.9807V42.3775H21.8076V41.2296L21.4038 42.3775H21.2307L20.8268 41.2009V42.3775H20.6826V42.3488Z" fill="black"/>
</g>
<defs>
<clipPath id="clip0_1_2251">
<rect width="84" height="13" fill="white" transform="translate(6 41)"/>
</clipPath>
</defs>
</svg>
