<svg width="96" height="96" viewBox="0 0 96 96" fill="none" xmlns="http://www.w3.org/2000/svg">
<circle cx="48" cy="48" r="47" fill="white" stroke="white" stroke-width="2"/>
<path d="M76.9839 47.9919C76.4351 64.0884 63.9055 76.9839 47.9919 76.9839C31.9869 76.9839 19 63.997 19 47.9919C19 31.9869 31.9869 19 47.9919 19C63.997 19 77.5326 31.9869 76.9839 47.9919Z" fill="white"/>
<path d="M47.9918 20.5547C32.9014 20.5547 20.7375 32.7185 20.7375 47.8089C20.7375 62.8994 32.9014 75.0632 47.9918 75.0632C63.0822 75.0632 75.2461 62.8994 75.2461 47.8089C75.2461 32.7185 63.0822 20.5547 47.9918 20.5547ZM53.4792 39.4863V44.1507C53.2963 43.7848 52.839 42.5959 51.2843 41.3155C49.4551 39.7607 48.0833 39.4863 48.0833 39.4863H53.4792ZM40.3094 39.5778H44.5164C44.6079 39.5778 44.6993 39.5778 44.6993 39.5778H44.5164C44.1506 39.6692 43.0531 39.9436 41.9556 40.6753C40.9496 41.3155 40.3094 42.1386 40.3094 42.1386V39.5778ZM33.8159 55.4913H29.426V39.4863H30.7978V42.3215H33.9074L33.8159 55.4913ZM44.6993 55.3999H37.1998V42.3215H40.2179C40.2179 42.3215 38.3888 44.0592 38.3888 47.4431C38.4803 54.028 43.8762 55.3084 44.6993 55.3999ZM46.3456 52.1074C44.0591 52.1074 41.5898 50.5527 41.5898 47.3517C41.5898 44.0592 44.2421 42.5959 46.3456 42.5959C48.7235 42.5959 50.1868 44.5165 50.1868 44.5165H53.3878V50.0039L50.3697 49.9125C50.3697 49.9125 49.0893 52.1989 46.3456 52.1074ZM47.9918 55.4913C51.7415 54.3024 52.7476 52.4733 53.3878 50.5527C53.8451 53.1135 55.3084 54.8511 57.5033 55.4913C56.5888 55.4913 49.2722 55.4913 47.9918 55.4913ZM56.5888 49.4552C56.5888 48.6321 56.5888 39.4863 56.5888 39.4863H61.436C61.436 39.4863 61.436 48.5406 61.436 49.4552C61.436 50.9185 60.3385 51.9245 59.0581 51.9245C57.7777 51.9245 56.5888 50.9185 56.5888 49.4552ZM66.4662 55.3999C66.4662 55.3999 60.7958 55.3999 60.7044 55.3999C60.7044 55.3999 64.637 54.3024 64.637 50.4612C64.637 47.0773 64.637 39.4863 64.637 39.4863H66.4662V55.3999Z" fill="url(#paint0_radial_1_6850)"/>
<defs>
<radialGradient id="paint0_radial_1_6850" cx="0" cy="0" r="1" gradientUnits="userSpaceOnUse" gradientTransform="translate(48.4173 48.2412) scale(27.261)">
<stop offset="0.2241" stop-color="#EC1B2E"/>
<stop offset="0.3945" stop-color="#DA1627"/>
<stop offset="0.736" stop-color="#AA0A17"/>
<stop offset="1" stop-color="#810008"/>
</radialGradient>
</defs>
</svg>
