<svg width="96" height="96" viewBox="0 0 96 96" fill="none" xmlns="http://www.w3.org/2000/svg">
<circle cx="48" cy="48" r="47" fill="white" stroke="white" stroke-width="2"/>
<path d="M64.3696 24.1562C62.7852 27.1203 60.4258 29.5986 57.5432 31.3266C54.6606 33.0547 51.3629 33.9678 48.002 33.9684C44.6429 33.9661 41.3475 33.0522 38.467 31.3242C35.5865 29.5962 33.229 27.1188 31.6459 24.1562C30.0291 25.2575 28.5272 26.5186 27.1627 27.9204C29.3215 31.5201 32.3754 34.4995 36.0273 36.5687C39.6792 38.6378 43.8046 39.7263 48.002 39.728C52.1996 39.7255 56.3251 38.6363 59.977 36.5665C63.6288 34.4967 66.6827 31.5167 68.8412 27.9165C67.4794 26.5176 65.9814 25.2579 64.3696 24.1562Z" fill="#0083AD"/>
<path d="M25.9208 41.1083C23.9933 40.5917 22.0102 40.3116 20.015 40.2739C19.4818 42.1582 19.1417 44.0919 19 46.0451C20.827 45.9879 22.6524 46.2004 24.4174 46.6757C26.7706 47.2994 28.9771 48.3824 30.9099 49.8626C32.8427 51.3427 34.4635 53.1905 35.6791 55.2997C36.9028 57.4064 37.6964 59.735 38.0138 62.1505C38.3313 64.5661 38.1663 67.0206 37.5285 69.372C37.0564 71.1354 36.327 72.8196 35.3638 74.3703C37.127 75.2208 38.9717 75.8906 40.8697 76.3697C41.8335 74.6266 42.5811 72.7725 43.0959 70.8484C43.9317 67.7644 44.1473 64.5452 43.7302 61.3772C43.3131 58.2093 42.2715 55.1556 40.6659 52.393C39.0746 49.6319 36.9524 47.2132 34.4216 45.2764C31.8909 43.3396 29.0017 41.9229 25.9208 41.1083Z" fill="#C2D500"/>
<path d="M58.4716 69.3833C57.7243 66.5854 57.6422 63.6515 58.2318 60.8162C58.8213 57.9809 60.0662 55.3229 61.8669 53.0548C63.6675 50.7867 65.974 48.9714 68.6017 47.7542C71.2294 46.537 74.1056 45.9516 77 46.0449C76.8594 44.0932 76.5205 42.1608 75.9888 40.2776C73.9962 40.3142 72.0154 40.5944 70.0908 41.1119C67.0077 41.9378 64.1176 43.3629 61.5854 45.3059C59.0533 47.2489 56.9287 49.6717 55.333 52.436C53.7374 55.2002 52.702 58.2518 52.2859 61.4163C51.8698 64.5807 52.0812 67.7962 52.908 70.879C53.4255 72.8021 54.1757 74.6549 55.1419 76.3964C57.0397 75.9167 58.8843 75.2469 60.6478 74.3971C59.6841 72.8461 58.9534 71.162 58.4792 69.3987" fill="#0083AD"/>
<path d="M35.6791 41.0738C34.467 43.1882 32.8476 45.0412 30.9145 46.5255C28.9814 48.0098 26.7731 49.0959 24.4174 49.7209C22.6524 50.1962 20.827 50.4087 19 50.3515C19.1419 52.3028 19.4793 54.2349 20.0074 56.1188C24.2073 56.05 28.3178 54.8942 31.9382 52.7643C35.5586 50.6344 38.5655 47.6028 40.6659 43.9651C42.2705 41.2022 43.3115 38.1485 43.7286 34.9807C44.1457 31.8129 43.9306 28.5939 43.0959 25.5097C42.5802 23.5896 41.8327 21.7394 40.8697 20C38.967 20.4792 37.1182 21.1518 35.3523 22.007C37.1259 24.8585 38.093 28.1376 38.1505 31.4952C38.2081 34.8528 37.354 38.1632 35.6791 41.0738Z" fill="#FFE800"/>
<path d="M48.002 56.6682C43.8042 56.6704 39.6786 57.7594 36.0267 59.8292C32.3748 61.8991 29.321 64.8793 27.1627 68.4797C28.5272 69.8815 30.0291 71.1425 31.6459 72.2438C33.2267 69.2792 35.5836 66.7999 38.4646 65.0712C41.3455 63.3425 44.6422 62.4293 48.002 62.4293C51.3618 62.4293 54.6584 63.3425 57.5394 65.0712C60.4203 66.7999 62.7772 69.2792 64.3581 72.2438C65.9751 71.1414 67.477 69.879 68.8412 68.4758C66.6819 64.8767 63.6278 61.8977 59.9761 59.8286C56.3243 57.7595 52.1992 56.6707 48.002 56.6682Z" fill="#54C0E8"/>
<path d="M77 50.3515C75.173 50.4087 73.3475 50.1962 71.5825 49.7209C68.7846 48.9713 66.2013 47.5764 64.0399 45.6482C61.8784 43.7199 60.1989 41.3119 59.1361 38.6174C58.0733 35.9228 57.6568 33.0167 57.92 30.1321C58.1832 27.2475 59.1187 24.4648 60.6515 22.007C58.8878 21.1529 57.0417 20.4804 55.1418 20C54.178 21.743 53.4304 23.5971 52.9156 25.5212C51.958 29.0886 51.8266 32.8274 52.5314 36.4532C53.2362 40.079 54.7588 43.4963 56.9831 46.4451C59.2075 49.3938 62.0752 51.7965 65.3679 53.4701C68.6606 55.1438 72.2917 56.0444 75.9849 56.1034C76.5166 54.2204 76.8542 52.2879 76.9923 50.3361" fill="#C2D500"/>
</svg>
