<svg width="96" height="96" viewBox="0 0 96 96" fill="none" xmlns="http://www.w3.org/2000/svg">
<circle cx="48" cy="48" r="47" fill="white" stroke="white" stroke-width="2"/>
<g clip-path="url(#clip0_1_7285)">
<path d="M25.8722 51.3793C26.4601 51.3793 26.9991 51.2873 27.4891 51.1035L24.88 48.1991H27.7096L29.2714 49.9454C29.6634 49.5288 29.9635 49.0508 30.1717 48.5116C30.3923 47.9601 30.5025 47.3719 30.5025 46.7469C30.5025 45.889 30.3004 45.1047 29.8962 44.3939C29.4919 43.6831 28.9346 43.1255 28.224 42.7211C27.5136 42.3167 26.7297 42.1144 25.8722 42.1144C25.0147 42.1144 24.2307 42.3167 23.5202 42.7211C22.822 43.1255 22.2647 43.6831 21.8481 44.3939C21.4439 45.1047 21.2418 45.889 21.2418 46.7469C21.2418 47.6047 21.4439 48.389 21.8481 49.0998C22.2646 49.8106 22.822 50.3682 23.5202 50.7726C24.2307 51.177 25.0147 51.3793 25.8722 51.3793ZM29.9329 53.8425L28.9775 52.7763C27.9975 53.2542 26.9624 53.4932 25.8722 53.4932C24.6227 53.4932 23.4713 53.193 22.4178 52.5925C21.3643 51.992 20.5313 51.1771 19.9189 50.1476C19.3064 49.1182 19.0001 47.9846 19.0001 46.7469C19.0001 45.5091 19.3064 44.3756 19.9189 43.3461C20.5313 42.3167 21.3643 41.5017 22.4178 40.9013C23.4713 40.3008 24.6227 40.0005 25.8722 40.0005C27.1216 40.0005 28.2731 40.3008 29.3266 40.9013C30.38 41.5017 31.213 42.3167 31.8255 43.3461C32.4379 44.3756 32.7442 45.5091 32.7442 46.7469C32.7442 47.6783 32.5666 48.5606 32.2114 49.3939C31.8561 50.215 31.3539 50.932 30.7047 51.5447L32.7626 53.8425H29.9329Z" fill="#100F0D"/>
<path d="M38.3841 51.4528C38.8863 51.4528 39.3456 51.3303 39.7621 51.0852C40.1786 50.8401 40.5094 50.5092 40.7544 50.0925C40.9994 49.6636 41.1219 49.1918 41.1219 48.6771C41.1219 48.1624 40.9994 47.6967 40.7544 47.28C40.5094 46.8511 40.1786 46.5141 39.7621 46.2689C39.3456 46.0239 38.8863 45.9013 38.3841 45.9013C37.8818 45.9013 37.4225 46.0239 37.006 46.2689C36.5895 46.5141 36.2588 46.8511 36.0138 47.28C35.7688 47.6967 35.6463 48.1624 35.6463 48.6771C35.6463 49.1918 35.7688 49.6636 36.0138 50.0925C36.2588 50.5092 36.5895 50.8401 37.006 51.0852C37.4225 51.3303 37.8818 51.4528 38.3841 51.4528ZM43.1247 44.192V53.1811H41.1219V52.2803C40.7177 52.6602 40.2644 52.9544 39.7621 53.1627C39.2722 53.3587 38.7516 53.4568 38.2004 53.4568C37.3552 53.4568 36.5712 53.2424 35.8484 52.8134C35.1257 52.3844 34.55 51.8084 34.1212 51.0855C33.7047 50.3501 33.4965 49.5474 33.4965 48.6774C33.4965 47.8195 33.7047 47.029 34.1212 46.306C34.55 45.5707 35.1257 44.9886 35.8484 44.5597C36.5712 44.1307 37.3552 43.9163 38.2004 43.9163C38.7516 43.9163 39.2722 44.0204 39.7621 44.2288C40.2644 44.4249 40.7177 44.7129 41.1219 45.0928V44.192H43.1247" fill="#100F0D"/>
<path d="M49.3102 51.4528C49.8125 51.4528 50.2718 51.3302 50.6883 51.0851C51.1048 50.84 51.4356 50.5091 51.6805 50.0925C51.9255 49.6636 52.048 49.1917 52.048 48.677C52.048 48.1623 51.9255 47.6966 51.6805 47.28C51.4356 46.851 51.1048 46.514 50.6883 46.2689C50.2718 46.0238 49.8125 45.9012 49.3102 45.9012C48.808 45.9012 48.3486 46.0238 47.9321 46.2689C47.5156 46.514 47.185 46.851 46.9399 47.28C46.6949 47.6966 46.5724 48.1623 46.5724 48.677C46.5724 49.1917 46.6949 49.6636 46.9399 50.0925C47.185 50.5091 47.5156 50.84 47.9321 51.0851C48.3486 51.3302 48.808 51.4528 49.3102 51.4528ZM49.494 43.9161C50.3392 43.9161 51.1232 44.1305 51.8459 44.5595C52.5687 44.9884 53.1383 45.5706 53.5548 46.3059C53.9835 47.0288 54.1978 47.8193 54.1978 48.6772C54.1978 49.5473 53.9835 50.35 53.5548 51.0853C53.1383 51.8083 52.5687 52.3843 51.8459 52.8132C51.1232 53.2422 50.3392 53.4566 49.494 53.4566C48.9795 53.4566 48.4834 53.3648 48.0056 53.1809C47.5279 52.997 47.0992 52.7397 46.7194 52.4088V56.4897H44.5697V44.1917H46.5724V45.0925C46.9767 44.7126 47.4238 44.4246 47.9138 44.2285C48.416 44.0201 48.9427 43.916 49.494 43.916" fill="#100F0D"/>
<path d="M56.5288 42.6475C56.1614 42.6475 55.8428 42.5249 55.5734 42.2798C55.3162 42.0225 55.1875 41.71 55.1875 41.3424C55.1875 40.9747 55.3162 40.6683 55.5734 40.4232C55.8428 40.1659 56.1614 40.0372 56.5288 40.0372C56.8964 40.0372 57.2087 40.1659 57.4659 40.4232C57.7354 40.6683 57.8701 40.9747 57.8701 41.3424C57.8701 41.71 57.7354 42.0225 57.4659 42.2798C57.2087 42.5249 56.8964 42.6475 56.5288 42.6475ZM55.4448 44.1916H57.5946V53.1807H55.4448V44.1916Z" fill="#100F0D"/>
<path d="M61.1874 46.1218V50.0557C61.1874 50.4356 61.2853 50.7235 61.4813 50.9196C61.6895 51.1158 61.9835 51.2138 62.3633 51.2138H63.3555V53.1807H62.3082C61.659 53.1807 61.0893 53.052 60.5993 52.7947C60.1094 52.525 59.7296 52.1635 59.4601 51.71C59.1907 51.2444 59.0559 50.7235 59.0559 50.1475V40.3316H61.1874V44.1919H63.3555V46.1221H61.1874" fill="#100F0D"/>
<path d="M68.6613 51.4528C69.1636 51.4528 69.6229 51.3303 70.0394 51.0852C70.4559 50.8401 70.7866 50.5092 71.0316 50.0925C71.2767 49.6636 71.3991 49.1918 71.3991 48.6771C71.3991 48.1624 71.2767 47.6967 71.0316 47.28C70.7866 46.8511 70.4559 46.5141 70.0394 46.2689C69.6229 46.0239 69.1636 45.9013 68.6613 45.9013C68.1591 45.9013 67.6997 46.0239 67.2833 46.2689C66.8668 46.5141 66.536 46.8511 66.291 47.28C66.046 47.6967 65.9235 48.1624 65.9235 48.6771C65.9235 49.1918 66.046 49.6636 66.291 50.0925C66.536 50.5092 66.8668 50.8401 67.2833 51.0852C67.6997 51.3303 68.1591 51.4528 68.6613 51.4528ZM73.4019 44.192V53.1811H71.3991V52.2803C70.9949 52.6602 70.5416 52.9544 70.0394 53.1627C69.5494 53.3587 69.0288 53.4568 68.4775 53.4568C67.6323 53.4568 66.8484 53.2424 66.1257 52.8134C65.4029 52.3844 64.8272 51.8084 64.3985 51.0855C63.982 50.3501 63.7737 49.5474 63.7737 48.6774C63.7737 47.8195 63.982 47.029 64.3985 46.306C64.8272 45.5707 65.4029 44.9886 66.1257 44.5597C66.8484 44.1307 67.6323 43.9163 68.4775 43.9163C69.0288 43.9163 69.5494 44.0204 70.0394 44.2288C70.5416 44.4249 70.9949 44.7129 71.3991 45.0928V44.192H73.4019" fill="#100F0D"/>
<path d="M74.8461 40.3303H76.9959V53.1807H74.8461V40.3303Z" fill="#100F0D"/>
</g>
<defs>
<clipPath id="clip0_1_7285">
<rect width="58" height="16.4897" fill="white" transform="translate(19 40)"/>
</clipPath>
</defs>
</svg>
