<svg width="96" height="96" viewBox="0 0 96 96" fill="none" xmlns="http://www.w3.org/2000/svg">
<circle cx="48" cy="48" r="47" fill="white" stroke="white" stroke-width="2"/>
<g clip-path="url(#clip0_1_4958)">
<path d="M18.9622 39.1429H8V41.25H12.2612V52.8929H14.701V41.25H18.9622V39.1429Z" fill="#003B62"/>
<path d="M22.8797 46.7143C22.3299 48.1071 21.9862 49.0714 21.8488 49.5714H21.8144C21.5739 48.9286 21.1959 47.8929 20.6804 46.5357L19.2371 42.9286H16.7285L20.646 52.3214L18.4467 57.6429H20.7491L26.9347 42.8929H24.3917L22.8797 46.7143Z" fill="#003B62"/>
<path d="M35.9725 44.8571C35.8694 44.4643 35.6976 44.1428 35.4914 43.8571C35.2852 43.5714 35.0447 43.3571 34.7698 43.1786C34.4949 43 34.1856 42.8571 33.8763 42.7857C33.567 42.7143 33.2234 42.6786 32.8797 42.6786C32.5017 42.6786 32.1581 42.7143 31.8488 42.8214C31.5395 42.8928 31.2303 43.0357 30.9553 43.1786C30.6804 43.3214 30.4399 43.5 30.2337 43.7143C30.0275 43.9286 29.8557 44.1071 29.7182 44.3214H29.6495L29.4433 42.9286H27.5189V52.8928H29.8557V46.0357C30.165 45.6071 30.543 45.2857 30.9553 45.0714C31.3677 44.8571 31.8145 44.75 32.2612 44.75C32.6048 44.75 32.8797 44.8214 33.1203 44.9643C33.3608 45.1071 33.5327 45.3214 33.6701 45.6428C33.7389 45.7857 33.7732 45.9643 33.7732 46.1428C33.8076 46.3214 33.8076 46.5714 33.8076 46.8214V52.8928H36.1444V46.4286C36.1444 46.1071 36.1444 45.8214 36.11 45.5714C36.0756 45.2857 36.0413 45.0714 35.9725 44.8571Z" fill="#003B62"/>
<path d="M43.945 50.1429C43.8419 50.25 43.7388 50.3929 43.567 50.5C43.4295 50.6071 43.2577 50.75 43.0859 50.8214C42.9141 50.9286 42.7079 51 42.5017 51.0714C42.2955 51.1429 42.0893 51.1786 41.8488 51.1786C41.1271 51.1786 40.5773 50.8929 40.1993 50.3214C39.8213 49.75 39.6495 48.9643 39.6495 47.9643C39.6495 47.2857 39.7182 46.7143 39.8556 46.2857C39.9931 45.8571 40.1993 45.5 40.4055 45.25C40.646 45 40.8866 44.8214 41.1271 44.7143C41.402 44.6071 41.6426 44.5714 41.8831 44.5714C42.2611 44.5714 42.6391 44.6429 42.9828 44.8214C43.3264 44.9643 43.6357 45.1786 43.9106 45.3929V50.1429H43.945ZM46.2818 49.9286V38H43.945V42.1429V42.9643C43.945 43.2143 43.945 43.3929 43.9794 43.5357H43.945C43.8075 43.4286 43.6357 43.3214 43.4639 43.2143C43.2921 43.1071 43.0859 43.0357 42.8797 42.9286C42.6735 42.8571 42.4673 42.7857 42.2268 42.75C41.9862 42.7143 41.7457 42.6786 41.5051 42.6786C40.9553 42.6786 40.4055 42.7857 39.89 43.0357C39.3745 43.25 38.9278 43.6071 38.5154 44.0714C38.1031 44.5357 37.7938 45.1071 37.5876 45.7857C37.3471 46.4643 37.244 47.25 37.244 48.1071C37.244 49 37.3471 49.75 37.5876 50.3929C37.8281 51.0357 38.1374 51.5714 38.4811 51.9643C38.8591 52.3571 39.3058 52.6429 39.7525 52.8571C40.2336 53.0357 40.7491 53.1429 41.2646 53.1429C41.6082 53.1429 41.8831 53.1071 42.158 53.0357C42.433 52.9643 42.7079 52.8571 42.9141 52.75C43.1546 52.6429 43.3608 52.5 43.567 52.3214C43.7732 52.1429 43.945 52 44.0824 51.8214H44.1168L44.2199 52.8929H46.3505C46.3505 52.5357 46.3161 52.1071 46.3161 51.6429C46.2818 51.1429 46.2818 50.5714 46.2818 49.9286Z" fill="#003B62"/>
<path d="M53.2234 50.1428C53.1203 50.25 53.0172 50.3928 52.8454 50.5C52.7079 50.6071 52.5361 50.75 52.3643 50.8571C52.1925 50.9643 51.9863 51.0357 51.7801 51.1071C51.5739 51.1786 51.3334 51.2143 51.0928 51.2143C50.8866 51.2143 50.7148 51.1786 50.543 51.1428C50.3712 51.0714 50.2337 51 50.0962 50.8928C49.9588 50.7857 49.8557 50.6428 49.787 50.5C49.7182 50.3214 49.6839 50.1428 49.6839 49.8928C49.6839 49.3928 49.8557 49.0357 50.165 48.8214C50.5086 48.5714 50.9554 48.4643 51.5395 48.4643C51.8488 48.4643 52.1237 48.5 52.433 48.5357C52.7079 48.5714 52.9828 48.6071 53.189 48.6786V50.1428H53.2234ZM55.5602 49.9286V46.1786C55.5602 45.6786 55.4571 45.2143 55.2853 44.7857C55.1134 44.3571 54.8385 44 54.4949 43.6786C54.1512 43.3571 53.7045 43.1071 53.189 42.9286C52.6736 42.75 52.055 42.6786 51.3677 42.6786C50.7835 42.6786 50.1993 42.75 49.6839 42.8571C49.134 42.9643 48.6186 43.1428 48.1375 43.3571V45.25C48.6873 45.0357 49.2028 44.8571 49.6839 44.75C50.165 44.6428 50.6461 44.5714 51.0928 44.5714C51.4708 44.5714 51.8145 44.6071 52.0894 44.7143C52.3643 44.8214 52.5705 44.9286 52.7423 45.1071C52.9141 45.2857 53.0516 45.4643 53.1203 45.6786C53.189 45.8928 53.2234 46.1071 53.2234 46.3571V46.75C52.9485 46.6786 52.6392 46.6071 52.2956 46.5714C51.9519 46.5 51.5739 46.5 51.1615 46.5C50.5773 46.5 50.0619 46.5714 49.6151 46.75C49.134 46.8928 48.756 47.1071 48.4124 47.4286C48.0688 47.7143 47.8282 48.0714 47.622 48.5C47.4502 48.9286 47.3471 49.3928 47.3471 49.9286C47.3471 50.4286 47.4158 50.8571 47.5877 51.25C47.7595 51.6428 47.9657 51.9643 48.2749 52.25C48.5499 52.5357 48.8935 52.75 49.3059 52.8928C49.6839 53.0357 50.1306 53.1071 50.5773 53.1071C50.921 53.1071 51.2303 53.0714 51.5052 53C51.7801 52.9286 52.055 52.8214 52.2956 52.6786C52.5361 52.5357 52.7423 52.3928 52.9141 52.25C53.0859 52.1071 53.2578 51.9643 53.3952 51.8214H53.4296L53.5327 52.8928H55.6633C55.6633 52.5357 55.6289 52.1071 55.6289 51.6428C55.5945 51.1428 55.5602 50.5714 55.5602 49.9286Z" fill="#003B62"/>
<path d="M59.6151 38H57.2783V52.8929H59.6151V38Z" fill="#003B62"/>
<path d="M63.945 38H61.6083V52.8929H63.945V38Z" fill="#003B62"/>
<path d="M27.8969 57.3571H27.4846V55.1071H28.8935V55.4643H27.8969V56.0357H28.7217V56.3929H27.8969V57.3571Z" fill="#003B62"/>
<path d="M29.6151 57.0357H30.6804V57.3571H29.2371V55.1071H30.6461V55.4643H29.6151V56.0357H30.5086V56.3929H29.6151V57.0357Z" fill="#003B62"/>
<path d="M31.677 57.0357C31.9175 57.0357 32.0893 57 32.2268 56.9286C32.3299 56.8571 32.433 56.7857 32.5017 56.6786C32.5704 56.5714 32.6048 56.4286 32.6048 56.25C32.6048 56.1429 32.6048 56.0714 32.5704 56C32.5361 55.9286 32.5361 55.8571 32.5017 55.7857C32.4673 55.7143 32.433 55.6786 32.3642 55.6429C32.2955 55.6071 32.2612 55.5714 32.1924 55.5357C32.1237 55.5 32.055 55.5 31.9862 55.4643C31.9175 55.4643 31.8144 55.4643 31.7457 55.4643H31.5739V57.0357H31.677ZM31.1271 57.3571V55.1071H31.7113C31.7457 55.1071 31.8144 55.1071 31.8488 55.1071C31.9175 55.1071 31.9519 55.1071 31.9862 55.1071C32.0206 55.1071 32.0893 55.1071 32.1237 55.1429C32.1581 55.1429 32.2268 55.1786 32.2612 55.1786C32.3642 55.2143 32.4673 55.2857 32.5704 55.3214C32.6735 55.3929 32.7423 55.4643 32.7766 55.5357C32.8453 55.6071 32.8797 55.7143 32.9141 55.8214C32.9484 55.9286 32.9484 56.0357 32.9484 56.1786C32.9484 56.2857 32.9484 56.4286 32.9141 56.5357C32.8797 56.6429 32.8453 56.75 32.811 56.8214C32.7423 56.8929 32.7079 57 32.6048 57.0714C32.5361 57.1429 32.433 57.1786 32.3299 57.25C32.2268 57.2857 32.1237 57.3214 32.0206 57.3214C31.9175 57.3571 31.7801 57.3571 31.6426 57.3571H31.1271Z" fill="#003B62"/>
<path d="M33.8076 57.0357H34.8729V57.3571H33.3952V55.1071H34.8041V55.4643H33.8076V56.0357H34.6667V56.3929H33.8076V57.0357Z" fill="#003B62"/>
<path d="M35.9038 56.1429C36.0069 56.1429 36.0756 56.1429 36.1443 56.1429C36.2131 56.1429 36.2474 56.1071 36.3161 56.1071C36.3849 56.0714 36.4536 56.0357 36.488 55.9643C36.5223 55.8929 36.5223 55.8571 36.5223 55.7857C36.5223 55.7143 36.5223 55.6786 36.488 55.6429C36.4536 55.6071 36.4192 55.5714 36.3505 55.5357C36.3161 55.5 36.2818 55.5 36.2131 55.5C36.1443 55.5 36.0756 55.5 36.0069 55.5H35.732V56.1786H35.9038V56.1429ZM36.9003 55.7857C36.9003 55.9286 36.866 56.0714 36.7629 56.1786C36.6942 56.2857 36.5567 56.3571 36.3849 56.4286L37.0378 57.3571H36.5567L35.9725 56.5H35.6976V57.3571H35.2852V55.1071H35.9381C36.0412 55.1071 36.1443 55.1071 36.2474 55.1429C36.3505 55.1429 36.4192 55.1786 36.488 55.2143C36.6254 55.25 36.7285 55.3571 36.7972 55.4286C36.866 55.5 36.9003 55.6429 36.9003 55.7857Z" fill="#003B62"/>
<path d="M38.2062 55.6429C38.1374 55.8929 38.0687 56.0714 38 56.25L37.9312 56.4643H38.4811L38.4123 56.25C38.378 56.0714 38.3093 55.8929 38.2062 55.6429ZM38.6185 56.7857H37.7938L37.5876 57.3571H37.1752L38.0343 55.1071H38.4123L39.2715 57.3571H38.8591L38.6185 56.7857Z" fill="#003B62"/>
<path d="M39.9588 55.1071V57.0357H40.9897V57.3571H39.5807V55.1071H39.9588Z" fill="#003B62"/>
<path d="M43.1203 55.4286C43.0172 55.4286 42.9141 55.4643 42.811 55.5C42.7079 55.5357 42.6392 55.6072 42.5705 55.6786C42.5017 55.75 42.4674 55.8214 42.433 55.9286C42.3986 56.0357 42.3643 56.1429 42.3643 56.2857C42.3643 56.4286 42.3643 56.5357 42.3986 56.6429C42.433 56.75 42.4674 56.8214 42.5361 56.8929C42.6048 56.9643 42.6736 57 42.7766 57.0357C42.8797 57.0714 42.9828 57.0714 43.0859 57.0714C43.1547 57.0714 43.2577 57.0714 43.3265 57.0357C43.3952 57.0357 43.4983 57 43.567 56.9643V57.3214C43.4983 57.3572 43.3952 57.3572 43.3265 57.3572C43.2234 57.3572 43.1547 57.3929 43.0516 57.3929C42.8797 57.3929 42.7079 57.3572 42.5705 57.3214C42.433 57.25 42.3299 57.1786 42.2268 57.1072C42.1237 57 42.055 56.8929 42.0206 56.75C41.9863 56.6072 41.9519 56.4643 41.9519 56.2857C41.9519 56.1072 41.9863 55.9643 42.0206 55.8214C42.055 55.6786 42.1581 55.5357 42.2268 55.4286C42.3299 55.3214 42.433 55.25 42.5705 55.1786C42.7079 55.1072 42.8797 55.0714 43.0516 55.0714C43.1547 55.0714 43.2234 55.0714 43.3265 55.1072C43.3952 55.1072 43.4983 55.1429 43.5327 55.1786V55.5357C43.4296 55.5 43.3608 55.5 43.2921 55.4643C43.2577 55.4286 43.189 55.4286 43.1203 55.4286Z" fill="#003B62"/>
<path d="M44.5979 56.1429C44.701 56.1429 44.7697 56.1429 44.8385 56.1429C44.9072 56.1429 44.9416 56.1071 45.0103 56.1071C45.079 56.0714 45.1478 56.0357 45.1821 55.9643C45.2165 55.8929 45.2165 55.8571 45.2165 55.7857C45.2165 55.7143 45.2165 55.6786 45.1821 55.6429C45.1478 55.6071 45.1134 55.5714 45.0447 55.5357C45.0103 55.5 44.9759 55.5 44.9072 55.5C44.8385 55.5 44.7698 55.5 44.701 55.5H44.4261V56.1786H44.5979V56.1429ZM45.5945 55.7857C45.5945 55.9286 45.5601 56.0714 45.457 56.1786C45.3883 56.2857 45.2508 56.3571 45.079 56.4286L45.7319 57.3571H45.2508L44.6667 56.5H44.3917V57.3571H43.9794V55.1071H44.6323C44.7354 55.1071 44.8385 55.1071 44.9416 55.1429C45.0447 55.1429 45.1134 55.1786 45.1821 55.2143C45.3196 55.25 45.4227 55.3571 45.4914 55.4286C45.5601 55.5 45.5945 55.6429 45.5945 55.7857Z" fill="#003B62"/>
<path d="M46.488 57.0357H47.5533V57.3571H46.0756V55.1071H47.4846V55.4643H46.488V56.0357H47.3471V56.3929H46.488V57.0357Z" fill="#003B62"/>
<path d="M48.5498 57.0357C48.7904 57.0357 48.9622 57 49.0997 56.9286C49.2027 56.8571 49.3058 56.7857 49.3746 56.6786C49.4433 56.5714 49.4777 56.4286 49.4777 56.25C49.4777 56.1429 49.4777 56.0714 49.4433 56C49.4089 55.9286 49.4089 55.8571 49.3746 55.7857C49.3402 55.7143 49.3058 55.6786 49.2371 55.6429C49.1684 55.6071 49.134 55.5714 49.0653 55.5357C48.9966 55.5 48.9278 55.5 48.8591 55.4643C48.7904 55.4643 48.6873 55.4643 48.6186 55.4643H48.4467V57.0357H48.5498ZM47.9656 57.3571V55.1071H48.5498C48.5842 55.1071 48.6529 55.1071 48.6873 55.1071C48.756 55.1071 48.7904 55.1071 48.8247 55.1071C48.8591 55.1071 48.9278 55.1071 48.9622 55.1429C48.9966 55.1429 49.0653 55.1786 49.0997 55.1786C49.2027 55.2143 49.3058 55.2857 49.4089 55.3214C49.512 55.3929 49.5808 55.4643 49.6151 55.5357C49.6838 55.6071 49.7182 55.7143 49.7526 55.8214C49.7869 55.9286 49.7869 56.0357 49.7869 56.1786C49.7869 56.2857 49.7869 56.4286 49.7526 56.5357C49.7182 56.6429 49.6838 56.75 49.6495 56.8214C49.5808 56.8929 49.5464 57 49.4433 57.0714C49.3746 57.1429 49.2715 57.1786 49.1684 57.25C49.0653 57.2857 48.9622 57.3214 48.8591 57.3214C48.756 57.3571 48.6186 57.3571 48.4811 57.3571H47.9656Z" fill="#003B62"/>
<path d="M50.6804 55.1071H50.2681V57.3571H50.6804V55.1071Z" fill="#003B62"/>
<path d="M52.0893 57.3571H51.677V55.4643H50.9897V55.1071H52.7766V55.4643H52.0893V57.3571Z" fill="#003B62"/>
<path d="M54.6667 57.3929C54.5636 57.3929 54.4605 57.3929 54.3574 57.3571C54.2543 57.3214 54.1856 57.2857 54.1168 57.25C54.0481 57.2143 53.9794 57.1429 53.945 57.1071C53.9107 57.0357 53.8419 56.9643 53.8419 56.8929C53.8076 56.8214 53.8076 56.75 53.7732 56.6786C53.7732 56.6071 53.7732 56.5 53.7732 56.4286V55.1071H54.1856V56.3929C54.1856 56.5357 54.2199 56.6786 54.2543 56.75C54.2887 56.8571 54.3574 56.9286 54.4261 56.9643C54.4948 57 54.5979 57.0357 54.701 57.0357C54.8041 57.0357 54.9072 57 54.9759 56.9643C55.0447 56.9286 55.1134 56.8571 55.1478 56.75C55.1821 56.6429 55.2165 56.5357 55.2165 56.3929V55.1071H55.6289V56.4286C55.6289 56.5357 55.6289 56.6071 55.6289 56.6786C55.6289 56.75 55.5945 56.8214 55.5945 56.8929C55.5601 56.9643 55.5258 57.0357 55.4914 57.1071C55.457 57.1786 55.3883 57.2143 55.3196 57.25C55.2509 57.2857 55.1821 57.3214 55.079 57.3571C54.8729 57.3929 54.7698 57.3929 54.6667 57.3929Z" fill="#003B62"/>
<path d="M57.244 56.1429C57.4158 56.3572 57.5189 56.5714 57.622 56.75C57.622 56.4643 57.5876 56.25 57.5876 56.1072V55.0714H58V57.3214H57.5876L56.866 56.2857C56.7285 56.1072 56.6255 55.8929 56.488 55.6429C56.488 55.9286 56.5224 56.1429 56.5224 56.2857V57.3214H56.11V55.0714H56.5224L57.244 56.1429Z" fill="#003B62"/>
<path d="M58.9278 55.1071H58.5154V57.3571H58.9278V55.1071Z" fill="#003B62"/>
<path d="M60.9897 56.6072C60.9553 56.7143 60.921 56.7857 60.8522 56.8572C60.7835 56.9286 60.7148 56.9643 60.6461 57C60.5773 57.0357 60.4742 57.0357 60.3711 57.0357C60.268 57.0357 60.1993 57.0357 60.0962 57C60.0275 56.9643 59.9588 56.9286 59.89 56.8572C59.8213 56.7857 59.7869 56.7143 59.7526 56.6072C59.7182 56.5 59.7182 56.3929 59.7182 56.25C59.7182 56.1072 59.7182 56 59.7526 55.8929C59.7869 55.7857 59.8213 55.7143 59.89 55.6429C59.9588 55.5714 60.0275 55.5357 60.0962 55.5C60.165 55.4643 60.268 55.4643 60.3711 55.4643C60.4742 55.4643 60.543 55.4643 60.6461 55.5C60.7148 55.5357 60.7835 55.5714 60.8522 55.6429C60.921 55.7143 60.9553 55.7857 60.9897 55.8929C61.0241 56 61.0241 56.1072 61.0241 56.25C61.0584 56.3572 61.0241 56.5 60.9897 56.6072ZM61.1959 55.3929C61.0928 55.2857 60.9897 55.2143 60.8522 55.1429C60.7148 55.0714 60.5773 55.0714 60.4055 55.0714C60.2337 55.0714 60.0962 55.1072 59.9588 55.1429C59.8213 55.2143 59.7182 55.2857 59.6151 55.3929C59.512 55.5 59.4433 55.6072 59.4089 55.75C59.3746 55.8929 59.3402 56.0357 59.3402 56.2143C59.3402 56.3929 59.3746 56.5357 59.4089 56.6786C59.4433 56.8214 59.512 56.9286 59.6151 57.0357C59.7182 57.1429 59.8213 57.2143 59.9588 57.2857C60.0962 57.3572 60.2337 57.3572 60.4055 57.3572C60.5773 57.3572 60.7148 57.3214 60.8522 57.2857C60.9897 57.2143 61.0928 57.1429 61.1959 57.0357C61.299 56.9286 61.3677 56.8214 61.4021 56.6786C61.4364 56.5357 61.4708 56.3929 61.4708 56.2143C61.4708 56.0357 61.4364 55.8929 61.4021 55.75C61.3333 55.6072 61.2646 55.5 61.1959 55.3929Z" fill="#003B62"/>
<path d="M63.3952 56.1429C63.3952 56.2857 63.3952 56.5 63.4296 56.7857C63.3265 56.6071 63.189 56.3929 63.0516 56.1786L62.3299 55.1429H61.9175V57.3929H62.3299V56.3571C62.3299 56.2143 62.3299 56 62.2956 55.7143C62.433 55.9643 62.5705 56.1429 62.6736 56.3571L63.3952 57.3929H63.8076V55.1429H63.3952V56.1429Z" fill="#003B62"/>
<path d="M78.6873 46.5714C78.6529 46.5714 78.6529 46.5714 78.6186 46.5714C78.5498 46.6072 78.4467 46.6429 78.4124 46.6786C78.378 46.7143 78.3437 46.75 78.3093 46.8572L74.976 54.8572L76.866 58L78.5842 49.5714L85.1478 49.6072H85.1821L86.4536 46.5714H78.6873Z" fill="#0072BC"/>
<path d="M79.5808 42.6786C79.6151 42.6786 79.6839 42.6786 79.7182 42.6786C79.8557 41.8214 79.8213 41.1786 80.543 40.5357C80.8522 40.25 81.2303 40.0714 81.8144 40.1429C81.6426 39.7857 81.4708 39.6786 81.1272 39.6071C80.7835 38.5 79.3059 39.1429 78.6529 39.5357C77.4158 40.3929 76.5223 41.5 75.5945 42.6786C75.5258 42.6786 72.2268 42.6786 69.3402 42.6786L66.3505 49.5714H73.3952L70.0275 54.6071L74.0481 53.9286L75.8694 49.5714L77.2096 46.3571C77.3127 46.1071 77.4502 45.8929 77.622 45.7857C77.7938 45.6429 77.9656 45.5357 78.1031 45.5C78.4124 45.3929 78.6186 45.3929 78.6873 45.3929H86.866L88 42.6786C84.5636 42.6786 82.6735 42.6786 79.5808 42.6786Z" fill="#003B62"/>
</g>
<defs>
<clipPath id="clip0_1_4958">
<rect width="80" height="20" fill="white" transform="translate(8 38)"/>
</clipPath>
</defs>
</svg>
