<svg width="96" height="96" viewBox="0 0 96 96" fill="none" xmlns="http://www.w3.org/2000/svg">
<circle cx="48" cy="48" r="47" fill="white" stroke="white" stroke-width="2"/>
<g clip-path="url(#clip0_1_1744)">
<path d="M35.1288 40.1575L38.2671 34.0397H45.3781L48.7151 40.1575L52.1712 34H63.9699L63.8904 34.1986L58.6068 43.4548H39.4589L35.1288 54.3H29.6466L19 34.0795V34H31.3548L35.1288 40.1575Z" fill="#004990"/>
<path d="M63.0959 46.3944L62.6192 46.3547C61.5466 44.8848 59.8781 44.13 58.011 44.3287C56.3027 44.5273 54.5945 45.9574 54.1575 47.6656C53.6411 49.4533 54.0781 51.4793 55.3493 52.7506C56.5411 54.0218 58.5274 54.4191 60.2356 53.8629C61.7055 53.3465 63.0562 51.9561 63.3343 50.4067L57.4945 50.3273V49.9698H63.7712C63.6123 51.678 62.3014 53.3067 60.7123 53.9821C59.2027 54.6574 57.0178 54.578 55.7069 53.5451C53.8397 52.3136 53.1247 50.0095 53.6411 47.7848C53.9986 46.1163 55.5082 44.5273 57.2164 44.0903C59.5603 43.5739 61.8247 44.4478 63.0959 46.3944ZM76.0863 44.8054C76.4438 45.2424 76.6425 45.7588 76.7219 46.315H76.3247C76.2055 45.5602 75.8082 44.7656 75.0534 44.4876C74.1795 44.1698 73.1069 44.3287 72.4712 45.0437C71.9548 45.5999 71.7959 46.3547 71.9548 47.1095C72.7493 49.6122 76.5233 48.2218 76.9206 51.0821C77.0795 52.1944 76.6822 53.267 75.7685 53.9026C75.1726 54.3396 74.2986 54.5382 73.5041 54.3793C72.7096 54.2204 71.9151 53.6246 71.5575 52.83C71.3986 52.4725 71.3192 52.1547 71.2795 51.7177C71.9548 51.3602 71.5973 52.3136 71.8754 52.5519C72.1534 53.267 72.8685 53.8629 73.6233 54.0218C74.6562 54.1807 75.6096 53.7835 76.126 52.9492C76.563 52.3533 76.6425 51.3602 76.3644 50.6451C75.3315 48.4602 72.0343 49.6519 71.5178 47.0698C71.3192 45.9972 71.6767 44.9643 72.5507 44.4081C73.5836 43.7328 75.2918 43.8519 76.0863 44.8054ZM53.2836 54.2999H52.926V44.13H53.2836V54.2999ZM47.2849 56.6835C47.1658 56.1273 46.689 56.0478 46.411 56.0478C45.8548 56.0478 45.3781 56.4848 45.3781 57.3191C45.3781 58.0739 45.6562 58.63 46.4507 58.63C46.7288 58.63 47.2055 58.5109 47.3247 57.7561H47.7219C47.5233 58.9478 46.5699 58.9876 46.3315 58.9876C45.6164 58.9876 44.9014 58.5109 44.9014 57.3191C44.9014 56.3259 45.4575 55.6903 46.3712 55.6903C47.1658 55.6903 47.6027 56.2067 47.6822 56.7232H47.2849V56.6835ZM48.7548 58.9081H48.3178V55.7698H49.7877C50.3041 55.7698 50.8206 55.9684 50.8206 56.604C50.8206 57.0807 50.5822 57.2396 50.3836 57.3588C50.5822 57.4382 50.7411 57.5177 50.7808 57.9547L50.8206 58.5109C50.8206 58.7095 50.8603 58.7492 50.9795 58.8287V58.9081H50.463C50.3836 58.7095 50.3836 58.2328 50.3836 58.1136C50.3836 57.8355 50.3041 57.5574 49.8274 57.5574H48.7945L48.7548 58.9081ZM48.7548 57.1999H49.748C50.0658 57.1999 50.3836 57.1204 50.3836 56.6437C50.3836 56.167 50.026 56.1273 49.8274 56.1273H48.7945L48.7548 57.1999ZM53.8795 58.9081H51.5753V55.73H53.8795V56.1273H51.9726V57.1204H53.6808V57.478H51.9726V58.5506H53.8795V58.9081ZM54.5151 55.73H55.7863C56.5808 55.73 57.0973 56.3656 57.0973 57.2793C57.0973 57.9944 56.7795 58.9081 55.7466 58.9081H54.4754V55.73H54.5151ZM54.9521 58.5506H55.7863C56.3425 58.5506 56.7 58.1136 56.7 57.3191C56.7 56.5246 56.3425 56.1273 55.7466 56.1273H54.9521V58.5506ZM58.2096 58.9081H57.7726V55.73H58.2096V58.9081ZM58.726 55.73H61.2685V56.1273H60.1959V58.9081H59.7589V56.1273H58.726V55.73ZM65.5192 55.73V57.7958C65.5192 58.4314 65.1219 58.9876 64.248 58.9876C63.4137 58.9876 63.0164 58.4314 63.0164 57.8355V55.73H63.4534V57.7163C63.4534 58.3917 63.8904 58.5903 64.248 58.5903C64.6452 58.5903 65.0822 58.3917 65.0822 57.7163V55.73H65.5192ZM68.3397 55.73H68.737V58.9081H68.2603L66.6712 56.3656V58.9081H66.274V55.73H66.7507L68.3397 58.2725H68.3795V55.73H68.3397ZM69.9685 58.9081H69.5315V55.73H69.9685V58.9081ZM72.1137 58.9876C70.9219 58.9876 70.5644 57.9944 70.5644 57.3191C70.5644 56.6437 70.9219 55.6506 72.1137 55.6506C73.3055 55.6506 73.663 56.6437 73.663 57.3191C73.663 57.9944 73.3055 58.9876 72.1137 58.9876ZM72.1137 56.0478C71.4384 56.0478 71.0014 56.604 71.0014 57.3191C71.0014 58.0739 71.3986 58.5903 72.1137 58.5903C72.789 58.5903 73.226 58.0341 73.226 57.3191C73.226 56.5643 72.789 56.0478 72.1137 56.0478ZM76.2849 55.73H76.6822V58.9081H76.2055L74.6164 56.3656V58.9081H74.2192V55.73H74.7356L76.3247 58.2725V55.73H76.2849ZM67.7438 44.13H67.2274L63.0959 54.2999H63.4932L64.963 50.7643L70.0877 50.804L71.5575 54.3396L71.9945 54.2999L67.7438 44.13ZM65.1617 50.367L67.5055 44.5273L69.8891 50.367H65.1617ZM51.8137 44.13L51.774 53.7437L51.7343 53.704L45.0603 44.13H44.5041L44.4644 53.7437L40.4918 44.13H39.9753L35.8438 54.2999L36.2808 54.2602L37.7507 50.7246H42.8356L44.3055 54.2602H44.9014L44.9411 44.5273L51.7343 54.2602H52.2507V44.13H51.8137ZM37.9096 50.367L40.2534 44.5273L42.637 50.367H37.9096ZM31.037 62.8807L30.7986 62.2451H30.0041L29.7658 62.8807H29.5274L30.3219 60.8944H30.5206L31.2753 62.8807H31.037ZM30.7192 62.0465L30.4808 61.4506C30.4411 61.3711 30.4014 61.2519 30.3617 61.1725C30.3219 61.2519 30.3219 61.3711 30.2822 61.4506L30.0438 62.0465H30.7192ZM34.3343 61.8876C34.3343 62.2054 34.2548 62.4437 34.0562 62.6424C33.8575 62.841 33.6192 62.9204 33.3014 62.9204H32.7452V60.9341H33.3411C33.6589 60.9341 33.8973 61.0136 34.0562 61.2122C34.2548 61.3711 34.3343 61.6095 34.3343 61.8876ZM34.0959 61.8876C34.0959 61.6095 34.0164 61.4506 33.8973 61.2917C33.7384 61.1328 33.5795 61.093 33.3411 61.093H33.0233V62.6821H33.3014C33.5795 62.6821 33.7781 62.6026 33.8973 62.4835C34.0562 62.3643 34.0959 62.1656 34.0959 61.8876ZM35.0493 62.8807V60.8944H35.2877V62.8807H35.0493ZM37.1945 60.9341H37.4726L36.7575 62.9204H36.5192L35.8041 60.9341H36.0425L36.4795 62.2054C36.5589 62.3643 36.5986 62.4835 36.5986 62.6424C36.6384 62.4835 36.6781 62.3643 36.7178 62.2054L37.1945 60.9341ZM37.989 62.8807V60.8944H38.2274V62.8807H37.989ZM40.1343 62.3643C40.1343 62.5629 40.0548 62.6821 39.9356 62.7615C39.8164 62.8807 39.6178 62.9204 39.4192 62.9204C39.1808 62.9204 39.0219 62.8807 38.863 62.841V62.6026C38.9425 62.6424 39.0219 62.6821 39.1411 62.6821C39.2603 62.7218 39.3397 62.7218 39.4192 62.7218C39.5781 62.7218 39.6973 62.6821 39.7767 62.6424C39.8562 62.5629 39.8959 62.4835 39.8959 62.404C39.8959 62.3246 39.8562 62.2848 39.8562 62.2451C39.8164 62.2054 39.7767 62.1656 39.6973 62.1259C39.6178 62.0862 39.5384 62.0465 39.4192 62.0067C39.2206 61.9273 39.1014 61.8478 39.0219 61.7684C38.9425 61.6492 38.9027 61.5698 38.9027 61.4109C38.9027 61.2519 38.9822 61.1328 39.0617 61.0533C39.1808 60.9341 39.3397 60.8944 39.4986 60.8944C39.6973 60.8944 39.8959 60.9341 40.0548 61.0136L39.9753 61.2122C39.8164 61.1328 39.6575 61.093 39.4986 61.093C39.3795 61.093 39.2603 61.1328 39.2206 61.1725C39.1411 61.2519 39.1014 61.2917 39.1014 61.4109C39.1014 61.4903 39.1411 61.53 39.1411 61.5698L39.2603 61.6889C39.3397 61.7287 39.4192 61.7684 39.5384 61.8081C39.737 61.8876 39.8959 61.967 39.9753 62.0465C40.1343 62.1259 40.1343 62.2451 40.1343 62.3643ZM40.8096 62.8807V60.8944H41.048V62.8807H40.8096ZM43.5507 61.9273C43.5507 62.2451 43.4712 62.4835 43.3123 62.6821C43.1534 62.8807 42.9151 62.9602 42.637 62.9602C42.3589 62.9602 42.1206 62.8807 41.9617 62.6821C41.8027 62.4835 41.7233 62.2451 41.7233 61.9273C41.7233 61.6095 41.8027 61.3711 41.9617 61.1725C42.1206 60.9739 42.3589 60.8944 42.637 60.8944C42.9151 60.8944 43.1534 60.9739 43.3123 61.1725C43.4712 61.3314 43.5507 61.6095 43.5507 61.9273ZM42.0014 61.9273C42.0014 62.2054 42.0808 62.404 42.1603 62.5232C42.2795 62.6821 42.4384 62.7218 42.637 62.7218C42.8753 62.7218 43.0343 62.6424 43.1137 62.5232C43.2329 62.3643 43.2726 62.1656 43.2726 61.9273C43.2726 61.6492 43.1932 61.4506 43.1137 61.3314C42.9945 61.1725 42.8356 61.1328 42.637 61.1328C42.3986 61.1328 42.2397 61.2122 42.1206 61.3314C42.0014 61.4506 42.0014 61.6492 42.0014 61.9273ZM45.8151 62.8807H45.537L44.4644 61.2122H44.4247C44.4644 61.4109 44.4644 61.5698 44.4644 61.7287V62.841H44.2658V60.8547H44.5438L45.6164 62.4835C45.6164 62.4437 45.6164 62.3643 45.5767 62.2451V60.815H45.8151V62.8807ZM49.311 61.9273C49.311 62.2451 49.2315 62.4835 49.0726 62.6821C48.9137 62.8807 48.6754 62.9602 48.3973 62.9602C48.1192 62.9602 47.8808 62.8807 47.7219 62.6821C47.563 62.4835 47.4836 62.2451 47.4836 61.9273C47.4836 61.6095 47.563 61.3711 47.7219 61.1725C47.8808 60.9739 48.1192 60.8944 48.3973 60.8944C48.6754 60.8944 48.9137 60.9739 49.0726 61.1725C49.1918 61.3314 49.311 61.6095 49.311 61.9273ZM47.7219 61.9273C47.7219 62.2054 47.8014 62.404 47.8808 62.5232C48 62.6821 48.1589 62.7218 48.3575 62.7218C48.5959 62.7218 48.7548 62.6424 48.8343 62.5232C48.9534 62.3643 48.9932 62.1656 48.9932 61.9273C48.9932 61.6492 48.9137 61.4506 48.8343 61.3314C48.7151 61.1725 48.5562 61.1328 48.3575 61.1328C48.1192 61.1328 47.9603 61.2122 47.8411 61.3314C47.7219 61.4506 47.7219 61.6492 47.7219 61.9273ZM50.2247 62.8807H49.9863V60.8944H51.0986V61.093H50.2247V61.8081H51.0192V62.0067H50.2247V62.8807ZM52.8863 62.8807H52.648V60.8944H53.7603V61.093H52.8863V61.8081H53.6808V62.0067H52.8863V62.8807ZM54.3562 62.8807V60.8944H54.5945V62.8807H54.3562ZM56.9384 62.8807H56.6603L55.5877 61.2122H55.548C55.5877 61.4109 55.5877 61.5698 55.5877 61.7287V62.841H55.389V60.8547H55.6671L56.7397 62.4835C56.7397 62.4437 56.7397 62.3643 56.7 62.2451V60.815H56.9384V62.8807ZM58.9644 62.8807L58.726 62.2451H57.9315L57.6932 62.8807H57.4548L58.2493 60.8944H58.448L59.2027 62.8807H58.9644ZM58.6466 62.0465L58.4082 61.4506C58.3685 61.3711 58.3288 61.2519 58.289 61.1725C58.2493 61.2519 58.2493 61.3711 58.2096 61.4506L57.9712 62.0465H58.6466ZM61.2685 62.8807H61.0301L59.9575 61.2122H59.9178C59.9575 61.4109 59.9575 61.5698 59.9575 61.7287V62.841H59.7589V60.8547H60.037L61.1096 62.4835H61.1493C61.1493 62.4437 61.1493 62.3643 61.1096 62.2451V60.815H61.348V62.841H61.2685V62.8807ZM62.937 61.093C62.6986 61.093 62.5397 61.1725 62.4206 61.3314C62.3014 61.4903 62.2219 61.6889 62.2219 61.9273C62.2219 62.2054 62.3014 62.404 62.4206 62.5232C62.5397 62.6821 62.7384 62.7218 62.937 62.7218C63.0959 62.7218 63.2548 62.6821 63.4137 62.6424V62.841C63.2548 62.9204 63.0959 62.9204 62.8973 62.9204C62.6192 62.9204 62.3808 62.841 62.2219 62.6424C62.063 62.4437 61.9836 62.2054 61.9836 61.8876C61.9836 61.6889 62.0233 61.4903 62.1027 61.3711C62.1822 61.2122 62.3014 61.093 62.4206 61.0136C62.5795 60.9341 62.7384 60.8944 62.937 60.8944C63.1356 60.8944 63.3343 60.9341 63.4932 61.0136L63.374 61.2122C63.2151 61.1328 63.0959 61.093 62.937 61.093ZM64.0891 62.8807V60.8944H64.3274V62.8807H64.0891ZM66.3534 62.8807L66.1151 62.2451H65.3206L65.0822 62.8807H64.8438L65.6384 60.8944H65.837L66.5918 62.8807H66.3534ZM66.0356 62.0465L65.7973 61.4506C65.7575 61.3711 65.7178 61.2519 65.6781 61.1725C65.6384 61.2519 65.6384 61.3711 65.5986 61.4506L65.3603 62.0465H66.0356ZM67.148 62.8807V60.8944H67.3863V62.6424H68.2603V62.841H67.148V62.8807ZM71.0411 61.4903C71.0411 61.6889 70.9617 61.8478 70.8425 61.967C70.6836 62.0862 70.5247 62.1259 70.2466 62.1259H70.0082V62.8807H69.7699V60.8944H70.2863C70.8027 60.9341 71.0411 61.093 71.0411 61.4903ZM70.048 61.9273H70.2466C70.4452 61.9273 70.6041 61.8876 70.6836 61.8081C70.8027 61.7287 70.8425 61.6492 70.8425 61.4903C70.8425 61.3711 70.8027 61.2519 70.7233 61.2122C70.6438 61.1328 70.4849 61.093 70.326 61.093H70.048V61.9273ZM71.7164 62.8807V60.8944H71.9548V62.6424H72.8288V62.841H71.7164V62.8807ZM74.9343 60.9341V62.2054C74.9343 62.4437 74.8548 62.6026 74.7356 62.7218C74.5767 62.841 74.4178 62.9204 74.1795 62.9204C73.9411 62.9204 73.7425 62.841 73.6233 62.7218C73.5041 62.6026 73.4247 62.404 73.4247 62.2054V60.9341H73.663V62.2054C73.663 62.3643 73.7027 62.4835 73.8219 62.6026C73.9411 62.7218 74.0603 62.7615 74.2192 62.7615C74.3781 62.7615 74.537 62.7218 74.6164 62.6026C74.6959 62.5232 74.7753 62.3643 74.7753 62.2054V60.9341H74.9343ZM76.8411 62.3643C76.8411 62.5629 76.7617 62.6821 76.6425 62.7615C76.5233 62.8807 76.3247 62.9204 76.126 62.9204C75.8877 62.9204 75.7288 62.8807 75.5699 62.841V62.6026C75.6493 62.6424 75.7288 62.6821 75.848 62.6821C75.9671 62.7218 76.0466 62.7218 76.126 62.7218C76.2849 62.7218 76.4041 62.6821 76.4836 62.6424C76.563 62.5629 76.6027 62.4835 76.6027 62.404C76.6027 62.3246 76.563 62.2848 76.563 62.2451C76.563 62.2054 76.4836 62.1656 76.4041 62.1259C76.3247 62.0862 76.2452 62.0465 76.126 62.0067C75.9274 61.9273 75.8082 61.8478 75.7288 61.7684C75.6493 61.6492 75.6096 61.5698 75.6096 61.4109C75.6096 61.2519 75.689 61.1328 75.7685 61.0533C75.8877 60.9341 76.0466 60.8944 76.2055 60.8944C76.4041 60.8944 76.6027 60.9341 76.7617 61.0136L76.6822 61.2122C76.5233 61.1328 76.3644 61.093 76.2055 61.093C76.0863 61.093 75.9671 61.1328 75.9274 61.1725C75.848 61.2519 75.8082 61.2917 75.8082 61.4109C75.8082 61.4903 75.848 61.53 75.848 61.5698L75.9671 61.6889C76.0466 61.7287 76.126 61.7684 76.2452 61.8081C76.4438 61.8876 76.6027 61.967 76.6822 62.0465C76.8014 62.1259 76.8411 62.2451 76.8411 62.3643ZM43.2329 57.5574H29.7658V57.7561H43.2329V57.5574Z" fill="#004990"/>
</g>
<defs>
<clipPath id="clip0_1_1744">
<rect width="58" height="29" fill="white" transform="translate(19 34)"/>
</clipPath>
</defs>
</svg>
