<svg width="96" height="96" viewBox="0 0 96 96" fill="none" xmlns="http://www.w3.org/2000/svg">
<circle cx="48" cy="48" r="47" fill="white" stroke="white" stroke-width="2"/>
<path d="M70.8274 35.4041L58.5353 35.4305V67.913C57.3026 68.591 55.9289 69.2602 54.4056 69.9558V30.9927H70.7657V26.9863H50.3729V30.9927H50.3993V71.7345L48.4181 72.615L46.2696 71.6552V23.0064H70.7657V19H26V23.0064H42.2632V26.9863H26V30.9927H42.2632V35.272H26.0704L26.0528 55.3039C26.0528 66.1608 33.1322 70.1936 41.6909 74.0062L48.4181 77L55.1717 73.9974C63.7392 70.1936 70.8274 66.1608 70.8274 55.2775V35.4041ZM30.0592 55.2951V39.2784H34.1272V65.0689C31.3536 62.6299 30.0592 59.7065 30.0592 55.3039M38.1336 67.8073V39.2784H42.2632V69.8678C40.7399 69.1721 39.3575 68.4853 38.1336 67.8073ZM62.5505 65.245V39.4281H66.8298V55.2775C66.8298 59.8034 65.465 62.7531 62.5505 65.2362" fill="#007565"/>
</svg>
