<svg width="96" height="96" viewBox="0 0 96 96" fill="none" xmlns="http://www.w3.org/2000/svg">
<circle cx="48" cy="48" r="47" fill="white" stroke="white" stroke-width="2"/>
<path d="M49.2811 20.4907L48.6003 19L31 47.7237L48.4302 77L49.1777 75.3087L32.9166 47.7237L49.2811 20.4907ZM56.354 63.1467H51.3697L49.364 66.6003L51.9223 70.6479L56.354 63.1467Z" fill="#B4975A"/>
<path d="M59.2074 58.1629H44.6757C45.2312 58.93 45.7009 59.9504 45.7009 59.9504H53.1997L52.134 61.7846H57.0344L59.2074 58.1629ZM62.0635 53.3039H41.739C42.2123 53.8932 42.613 54.5371 42.9325 55.222H55.8858L54.8191 57.0524H59.9349L62.0635 53.3039ZM64.9201 48.5331H38.9658L40.0325 50.3625H58.7414L57.8877 52.1548H62.7881L64.9201 48.5331ZM62.9592 43.7575H41.0549L39.992 45.5064H59.0802L60.2321 47.3363H65.0473L62.9592 43.7575ZM60.1869 38.9866H43.8238L42.9325 40.6889H56.3107L57.3336 42.5226H62.1511L60.1869 38.9866ZM57.2931 33.9981H46.8081L45.912 35.6617H53.3708L54.5642 37.666H59.335L57.2931 33.9981ZM52.2207 25.4354L49.6204 29.525L51.497 32.6374H56.4813L52.2207 25.4354ZM56.5437 70.191H57.417V70.1229C57.2831 70.1081 57.1964 70.0815 57.1578 70.0414C57.0983 69.9804 57.0687 69.848 57.0687 69.6446V68.1601L58.0039 70.1915H58.0549L59.0058 68.0724V69.7446C59.0058 69.9018 58.9877 70.0014 58.9511 70.0429C58.9134 70.0843 58.8205 70.111 58.67 70.1234V70.1915H59.7124V70.1234C59.5747 70.111 59.4861 70.0867 59.4456 70.0481C59.4056 70.0105 59.386 69.9238 59.386 69.7875V68.1339C59.386 68.0009 59.4056 67.9147 59.4456 67.8747C59.4856 67.8347 59.5747 67.8089 59.7124 67.7994V67.7299H58.972L58.1402 69.5807L57.2879 67.7299H56.5523V67.7994C56.7019 67.8066 56.7981 67.8309 56.841 67.8713C56.8834 67.9114 56.9044 67.999 56.9044 68.1343V69.6455C56.9044 69.8418 56.8824 69.9657 56.84 70.0205C56.7962 70.0738 56.6976 70.1081 56.5442 70.1239L56.5437 70.191ZM54.5866 69.4421L54.6976 70.2334H54.7791C54.7837 70.2033 54.794 70.1744 54.8096 70.1481C54.8243 70.1215 54.8534 70.1081 54.8972 70.1081C54.9153 70.1081 54.9873 70.13 55.1126 70.1739C55.2379 70.2177 55.3574 70.2396 55.4732 70.2396C55.7024 70.2396 55.8896 70.1739 56.0368 70.0433C56.184 69.9118 56.2574 69.7499 56.2574 69.5536C56.2574 69.4087 56.2174 69.2835 56.1345 69.1763C56.0506 69.0714 55.9067 68.9557 55.7024 68.8289L55.3746 68.6279C55.2526 68.5526 55.1626 68.4807 55.1045 68.4111C55.0462 68.3431 55.0155 68.2558 55.0182 68.1663C55.0182 68.0591 55.0559 67.9762 55.1316 67.9166C55.207 67.8569 55.3008 67.8251 55.397 67.8266C55.5285 67.8266 55.66 67.8742 55.7938 67.9681C55.9277 68.0629 56.0254 68.2301 56.0859 68.4674H56.175L56.0935 67.676H56.0168C56.0102 67.7096 55.996 67.7412 55.9754 67.7684C55.9582 67.7904 55.9268 67.8013 55.8805 67.8013C55.8634 67.8013 55.7953 67.7808 55.6762 67.7394C55.5785 67.7013 55.4751 67.6799 55.3703 67.676C55.1645 67.676 54.9987 67.738 54.8748 67.8637C54.813 67.9248 54.7644 67.9979 54.7321 68.0786C54.6998 68.1592 54.6845 68.2457 54.6871 68.3325C54.6871 68.474 54.7395 68.6026 54.8453 68.7208C54.9025 68.7827 54.9782 68.8437 55.0744 68.9033L55.3922 69.1019C55.5747 69.2163 55.6943 69.3016 55.7514 69.3578C55.7935 69.399 55.8269 69.4483 55.8495 69.5028C55.8721 69.5572 55.8834 69.6157 55.8829 69.6746C55.8829 69.8085 55.8391 69.9133 55.7524 69.9885C55.6673 70.0632 55.5573 70.1031 55.4441 70.1005C55.225 70.1005 55.0411 70.0143 54.8939 69.8413C54.8086 69.7427 54.7357 69.6088 54.6723 69.4421H54.5866Z" fill="#B4975A"/>
</svg>
