<svg width="96" height="96" viewBox="0 0 96 96" fill="none" xmlns="http://www.w3.org/2000/svg">
<circle cx="48" cy="48" r="47" fill="white" stroke="white" stroke-width="2"/>
<path d="M46.2349 47.5055H77.0001V32.8794H56.0696C54.5566 38.6794 46.7392 38.6794 46.2349 47.5055Z" fill="#3C6E8F"/>
<path d="M51.5304 32.8794H19V47.5055H36.9043C39.1739 38.9316 49.0087 36.9142 51.5304 32.8794Z" fill="#3C6E8F"/>
<path d="M40.687 62.3818H19V77.2601H76.7478C63.1304 75.4949 47.7478 70.9557 40.687 62.3818Z" fill="#183B62"/>
<path d="M76.748 18.251C69.6871 18.251 49.261 23.0423 53.0436 25.3118C55.061 26.3205 56.0697 28.8423 56.0697 30.8597C56.0697 31.6162 56.0697 32.3727 55.8175 32.8771H76.748V18.251Z" fill="#538CAD"/>
<path d="M52.287 30.6087C52.287 25.0609 40.4348 18 19 18V32.6261H51.5304C52.0348 32.1217 52.287 31.6174 52.287 30.6087Z" fill="#538CAD"/>
<path d="M46.2349 48.2614C46.2349 54.3136 52.7914 61.3744 77.0001 61.3744V47.5049H46.2349C46.2349 47.7571 46.2349 48.0092 46.2349 48.2614Z" fill="#25567B"/>
<path d="M36.6522 51.2875C36.6522 49.7744 36.9043 48.5136 37.1565 47.5049H19V62.131H40.687C38.1652 59.1049 36.6522 55.5744 36.6522 51.2875Z" fill="#25567B"/>
</svg>
