<svg width="96" height="96" viewBox="0 0 96 96" fill="none" xmlns="http://www.w3.org/2000/svg">
<circle cx="48" cy="48" r="47" fill="white" stroke="white" stroke-width="2"/>
<g clip-path="url(#clip0_1_7927)">
<path d="M47.8772 61.6589C57.8672 61.6589 65.961 53.5618 65.961 43.5735C65.961 33.5868 57.8672 25.4913 47.8772 25.4913C37.8905 25.4913 29.795 33.5868 29.795 43.5735C29.795 53.5618 37.8905 61.6589 47.8772 61.6589Z" fill="white"/>
<path d="M45.0977 46.5882H51.7532L53.6975 47.8489H44.804L40.8127 60.1863C36.4033 58.4759 32.3224 54.5145 30.6104 50.0619C28.7856 45.7471 28.7856 40.3258 30.6502 35.9927C32.3987 31.5385 36.5974 27.5156 41.0665 25.8633C44.5834 24.4068 49.2897 24.2525 53.019 25.3988C57.299 26.6248 61.3401 29.6921 63.6891 33.6967C66.3169 38.0879 67.0551 43.6685 65.4575 48.68C64.4489 52.0062 62.3703 55.1913 59.5087 57.469L54.5966 49.2839L61.4347 53.0977C61.4728 53.0977 61.4927 53.0546 61.4728 53.0148L52.5163 45.2826L64.1005 47.0493C64.1404 47.0493 64.1569 47.0311 64.1569 47.0112L64.0806 46.9531L53.1583 43.1227L64.5086 40.3822C64.5468 40.3822 64.5468 40.3457 64.5269 40.3258L52.883 41.0839L62.0004 34.1811C62.0203 34.143 61.9406 34.1247 61.9224 34.1646L51.6803 39.357L57.3338 29.3819C57.3338 29.367 57.3338 29.3255 57.299 29.3454L49.9118 38.0149L51.3302 26.6248C51.3302 26.6032 51.2888 26.5833 51.2506 26.6032L47.8531 37.6632L44.8787 26.2714C44.8588 26.2532 44.819 26.2333 44.7974 26.2714L45.6169 38.0879L38.6014 28.9572C38.5798 28.9357 38.5615 28.9572 38.5416 28.9755L43.8485 39.0799L33.8171 33.5989C33.7988 33.5989 33.759 33.6204 33.759 33.6387L42.6806 40.9644L31.2922 39.7617C31.2524 39.7833 31.2524 39.8181 31.2922 39.8364L42.3339 43.0663L31.3519 46.2929C31.3304 46.3095 31.3304 46.3493 31.3519 46.3675L42.6806 45.047L33.7789 52.6084C33.759 52.6084 33.7407 52.6465 33.7789 52.6681L33.8983 52.6299L41.0267 48.8974L42.7005 46.2348H44.6033L43.2845 45.3025L47.6939 38.2239L45.0927 46.5832L45.0977 46.5882Z" fill="#6D983F"/>
<path d="M32.2601 69.3586H29.9187L31.7937 62.6658H36.5928L36.1356 64.2541H33.6867L33.3724 65.3935H35.8218L35.4087 66.8555H32.9598L32.2601 69.3586Z" fill="#6D983F"/>
<path d="M39.1764 64.003H36.8622L37.2389 62.666H39.5532L39.1764 64.003ZM37.6782 69.3589H35.3639L36.7363 64.4694H39.051L37.6782 69.3589Z" fill="#6D983F"/>
<path d="M41.9423 65.9224C41.7356 65.9224 41.5298 65.9857 41.4131 66.2724C41.2426 66.685 41.0901 67.0889 41.0901 67.4923C41.0901 67.6811 41.2247 67.8424 41.4489 67.8424C41.6281 67.8424 41.7448 67.7886 41.8436 67.7261L42.3104 66.1199C42.2295 66.0032 42.0857 65.9224 41.9423 65.9224ZM43.6828 69.3586H41.4131L41.5743 68.8114C41.1167 69.1973 40.6504 69.4749 39.906 69.4749C39.1521 69.4749 38.677 69.116 38.677 68.3538C38.677 67.5107 39.0092 66.2545 39.5022 65.3756C39.861 64.7204 40.507 64.3799 41.2697 64.3799C41.924 64.3799 42.4087 64.6667 42.5971 65.0255L43.2431 62.6662H45.5574L43.6828 69.3586Z" fill="#6D983F"/>
<path d="M47.9032 65.5819C47.6161 65.5819 47.419 65.779 47.2931 66.2725H48.2442C48.2713 66.1737 48.3071 66.0212 48.3071 65.9311C48.3071 65.6623 48.1454 65.5819 47.9032 65.5819ZM50.2175 67.2236H47.0243C46.9614 67.4832 46.8989 67.6628 46.8989 67.8691C46.8989 67.9679 46.9168 68.2192 47.2393 68.2192C47.5623 68.2192 47.7061 68.0933 47.8403 67.6182H50.11C49.8228 69.0085 48.1725 69.4836 47.1589 69.4836C45.7861 69.4836 44.7188 69.2865 44.7188 67.9679C44.7188 67.241 45.0863 66.0391 45.571 65.4023C46.1541 64.6396 47.1677 64.3529 48.1008 64.3529C49.5361 64.3529 50.4688 64.6488 50.4688 65.8686C50.4688 66.165 50.3434 66.8197 50.2175 67.2236Z" fill="#6D983F"/>
<path d="M52.5438 69.3586H50.2291L52.1042 62.6658H54.4189L52.5438 69.3586Z" fill="#6D983F"/>
<path d="M57.0997 64.003H54.7854L55.1621 62.666H57.4764L57.0997 64.003ZM55.6018 69.3589H53.2871L54.6595 64.4694H56.9742L55.6018 69.3589Z" fill="#6D983F"/>
<path d="M61.2606 64.4694L61.4621 65.573H59.6907L59.1706 67.4297C59.1256 67.5735 59.0897 67.7527 59.0897 67.8694C59.0897 68.0844 59.1793 68.1565 59.4931 68.1565H59.9866L59.6457 69.3589H57.5823C56.9004 69.3589 56.6404 69.0267 56.6404 68.5241C56.6404 68.3182 56.6675 68.0936 56.7396 67.8423L57.9953 63.3837H60.3096L60.0045 64.4694H61.2606Z" fill="#6D983F"/>
<path d="M29.8714 70.1105L30.4484 70.11L30.0808 71.3137H29.5056L29.8714 70.1105Z" fill="#6D983F"/>
<path d="M31.885 70.1113L32.729 70.1109L32.9453 70.9134H32.951L33.1954 70.1105L33.6962 70.11L33.326 71.3111L32.5183 71.3137L32.2845 70.4562H32.2806L32.0244 71.312L31.5236 71.3124L31.885 70.1113Z" fill="#6D983F"/>
<path d="M34.79 70.1119L35.4251 70.1114L35.5366 70.868L36.1174 70.1106L36.7053 70.1101L35.7363 71.3116L35.0309 71.3125L34.79 70.1119Z" fill="#6D983F"/>
<path d="M37.8113 70.1125L39.1238 70.1112L39.0499 70.355L38.2951 70.3555L38.2221 70.6024L38.9297 70.602L38.8589 70.8336L38.1513 70.8341L38.0783 71.0723L38.841 71.0718L38.7641 71.3153L37.4446 71.3162L37.8113 70.1125Z" fill="#6D983F"/>
<path d="M43.4477 70.4054L42.9984 70.4059L43.0871 70.1139L44.5622 70.1126L44.4735 70.4046L44.0242 70.405L43.7489 71.3106L43.1724 71.311L43.4477 70.4054Z" fill="#6D983F"/>
<path d="M45.7559 70.111L46.63 70.1101L46.672 70.9134H46.6759L47.1973 70.1096L48.075 70.1088L47.7104 71.3129L47.1759 71.3133L47.45 70.4069H47.446L46.7965 71.3138L46.2393 71.3142L46.1602 70.4077H46.1545L45.8809 71.3116L45.3914 71.312L45.7559 70.111Z" fill="#6D983F"/>
<path d="M51.7476 70.1113L52.5907 70.1109L52.8079 70.9134H52.8136L53.0579 70.11H53.5584L53.1921 71.3137L52.3739 71.3115L52.1471 70.4562H52.1431L51.8813 71.312L51.38 71.3124L51.7476 70.1113Z" fill="#6D983F"/>
<path d="M54.9414 70.4036L54.4917 70.404L54.5804 70.1116L56.056 70.1108L55.9672 70.4027L55.5175 70.4032L55.2426 71.3118L54.6657 71.3123L54.9414 70.4036Z" fill="#6D983F"/>
<path d="M64.9634 69.5221C64.6775 69.5221 64.4459 69.2905 64.4459 69.0047C64.4459 68.7188 64.6775 68.4872 64.9634 68.4872C65.2492 68.4872 65.4809 68.7188 65.4809 69.0047C65.4809 69.2905 65.2492 69.5221 64.9634 69.5221ZM64.9634 68.3753C64.6168 68.3753 64.334 68.6576 64.334 69.0047C64.334 69.3512 64.6168 69.634 64.9634 69.634C65.31 69.634 65.5927 69.3512 65.5927 69.0047C65.5927 68.6576 65.31 68.3753 64.9634 68.3753Z" fill="#6D983F"/>
<path d="M64.8554 68.9614V68.7796H64.9424C65.0154 68.7782 65.0967 68.7826 65.0967 68.8696C65.0967 68.957 65.0154 68.9614 64.9424 68.9614H64.8554ZM65.2155 68.8744C65.2155 68.7494 65.1425 68.679 64.9869 68.679H64.7422V69.3276H64.8554V69.0623H64.9424L65.1041 69.3276H65.2295L65.0599 69.0532C65.1482 69.0422 65.2155 68.9872 65.2155 68.8744Z" fill="#6D983F"/>
<path d="M40.892 70.4762C40.8793 70.4626 40.8784 70.4399 40.8841 70.4216C40.9029 70.3604 40.9789 70.3202 41.1009 70.3202C41.1726 70.3197 41.2831 70.328 41.3146 70.3534C41.3483 70.3774 41.3592 70.4146 41.3474 70.4508H41.8583C41.9186 70.2358 41.7831 70.0973 41.2062 70.0981C40.6581 70.0986 40.3474 70.2161 40.2674 70.4784C40.2468 70.5466 40.2442 70.6309 40.301 70.6873C40.4422 70.828 41.0795 70.884 41.1332 70.96C41.1441 70.9749 41.1481 70.9933 41.1415 71.0147C41.1122 71.1113 40.9754 71.1362 40.8561 71.1362C40.7801 71.1362 40.6813 71.12 40.6529 71.0885C40.6262 71.0571 40.6262 71.0085 40.6415 70.9775L40.1065 70.9784C40.0532 71.165 40.0301 71.3591 40.7735 71.3586C41.3972 71.3578 41.6831 71.2052 41.7547 70.9679C41.7901 70.8516 41.7552 70.787 41.7145 70.7459C41.576 70.6034 40.9588 70.5509 40.892 70.4762Z" fill="#6D983F"/>
<path d="M49.2493 70.1127L50.5618 70.1114L50.4879 70.3553L49.7331 70.3557L49.6601 70.6027L50.3673 70.6022L50.2965 70.8339L49.5893 70.8343L49.5163 71.073L50.2786 71.0721L50.2016 71.3155L48.8826 71.3164L49.2493 70.1127Z" fill="#6D983F"/>
<path d="M64.3852 64.4695L63.1291 67.1789L63.1649 64.4695H60.824L61.272 69.359C61.2147 69.6452 61.1203 69.8065 60.9407 69.8861C60.744 69.9735 60.2999 69.9578 60.1435 69.949L60.1151 69.9508L59.7457 71.2795L61.3257 71.2808C62.2589 71.2808 62.7165 70.8118 63.3804 69.7716L66.7533 64.4695H64.3852Z" fill="#6D983F"/>
<path d="M57.5525 70.4733C57.5398 70.4597 57.5394 70.4366 57.5446 70.4186C57.5634 70.3574 57.6399 70.3172 57.7614 70.3172C57.8331 70.3168 57.9437 70.3251 57.9751 70.3505C58.0088 70.3745 58.0197 70.4116 58.0079 70.4479H58.5188C58.5792 70.2329 58.4437 70.0943 57.8667 70.0952C57.3191 70.0956 57.0079 70.2132 56.9283 70.4755C56.9074 70.5436 56.9047 70.628 56.9616 70.6844C57.1027 70.8251 57.74 70.8811 57.7937 70.9571C57.8047 70.972 57.8086 70.9903 57.802 71.0117C57.7732 71.1083 57.636 71.1332 57.5166 71.1332C57.4406 71.1332 57.3418 71.1171 57.3134 71.0856C57.2867 71.0541 57.2867 71.0056 57.302 70.9746L56.7671 70.9755C56.7137 71.1621 56.6906 71.3561 57.434 71.3557C58.0577 71.3548 58.3436 71.2023 58.4157 70.965C58.4507 70.8487 58.4157 70.784 58.375 70.7429C58.2369 70.6005 57.6194 70.548 57.5525 70.4733Z" fill="#6D983F"/>
</g>
<defs>
<clipPath id="clip0_1_7927">
<rect width="66" height="66" fill="white" transform="translate(15 15)"/>
</clipPath>
</defs>
</svg>
