<svg width="96" height="96" viewBox="0 0 96 96" fill="none" xmlns="http://www.w3.org/2000/svg">
<circle cx="48" cy="48" r="47" fill="white" stroke="white" stroke-width="2"/>
<g clip-path="url(#clip0_1_7240)">
<path d="M39.6783 59.8985C39.283 59.8985 38.971 60.0302 38.7422 60.2935C38.5133 60.5568 38.3989 60.9172 38.3989 61.3746C38.3989 61.8451 38.5092 62.2088 38.7299 62.4659C38.9505 62.7229 39.265 62.8512 39.6732 62.8507C39.9642 62.8447 40.2531 62.7992 40.5319 62.7154V63.0822C40.2825 63.1755 39.975 63.2222 39.6092 63.2222C39.0787 63.2222 38.6698 63.0615 38.3826 62.74C38.0955 62.4186 37.9516 61.9618 37.9511 61.3695C37.9511 60.9992 38.0205 60.6745 38.1591 60.3955C38.2897 60.1251 38.4988 59.9005 38.7592 59.7509C39.0208 59.5997 39.3287 59.5243 39.683 59.5245C40.0603 59.5245 40.3901 59.5933 40.6722 59.731L40.495 60.0902C40.2403 59.9666 39.9613 59.9011 39.6783 59.8985ZM42.6167 61.6774V63.1741H42.1986V59.5762H43.185C43.6262 59.5762 43.9518 59.6606 44.1616 59.8294C44.3713 59.9982 44.4767 60.2525 44.4777 60.5923C44.4777 61.068 44.2366 61.3894 43.7543 61.5565L44.7309 63.173H44.2382L43.3673 61.6774H42.6167ZM42.6167 61.3182H43.1893C43.4845 61.3182 43.7015 61.2595 43.8404 61.142C43.9793 61.0246 44.0481 60.8487 44.0469 60.6143C44.0469 60.3766 43.9769 60.2052 43.8368 60.1003C43.6967 59.9954 43.4714 59.9429 43.1611 59.9426H42.6185L42.6167 61.3182ZM48.2354 63.1741H46.2305V59.5762H48.2354V59.9477H46.6486V61.1051H48.1396V61.4741H46.6486V62.7976H48.2354V63.1741ZM52.7281 61.3403C52.7281 61.9339 52.567 62.3879 52.2449 62.7021C51.9227 63.0163 51.4589 63.173 50.8534 63.1723H49.8569V59.5762H50.959C51.5185 59.5762 51.9532 59.7312 52.2633 60.041C52.5734 60.3509 52.7284 60.784 52.7281 61.3403ZM52.2854 61.3551C52.2854 60.8858 52.1677 60.5323 51.9324 60.2946C51.697 60.0568 51.3474 59.9379 50.8834 59.9379H50.2751V62.8124H50.785C51.2835 62.8124 51.6582 62.6899 51.9092 62.4449C52.1602 62.1999 52.2856 61.8366 52.2854 61.3551ZM54.4136 63.1741V59.5762H54.8318V63.1741H54.4136ZM57.8683 63.1741H57.4501V59.9477H56.3108V59.5762H59.0073V59.9477H57.8683V63.1741ZM65.5892 59.5762V61.9034C65.5892 62.3133 65.4653 62.6357 65.2177 62.8706C64.97 63.1055 64.6297 63.2227 64.1966 63.2222C63.7626 63.2222 63.4276 63.1042 63.1918 62.8681C62.956 62.632 62.8374 62.3072 62.8362 61.8937V59.5762H63.2544V61.9233C63.2544 62.2235 63.3364 62.4539 63.5003 62.6145C63.6643 62.7751 63.9054 62.8555 64.2237 62.8558C64.5273 62.8558 64.7611 62.775 64.9251 62.6134C65.089 62.4519 65.171 62.2202 65.171 61.9183V59.5762H65.5892ZM70.2269 63.1741H69.7495L67.785 60.1542H67.7655C67.7916 60.5087 67.8047 60.8335 67.8049 61.1287V63.1741H67.4186V59.5762H67.891L69.8518 62.5827H69.8713C69.868 62.5381 69.8606 62.3958 69.8493 62.1559C69.8379 61.916 69.8339 61.7442 69.837 61.6405V59.5762H70.2284L70.2269 63.1741ZM72.0795 63.1741V59.5762H72.4977V63.1741H72.0795ZM77.5018 61.3695C77.5018 61.9454 77.3563 62.3981 77.0652 62.7277C76.7742 63.0574 76.3694 63.2222 75.851 63.2222C75.3205 63.2222 74.9117 63.0603 74.6245 62.7364C74.3373 62.4126 74.1933 61.9556 74.1926 61.3656C74.1926 60.7799 74.3373 60.3259 74.6266 60.0038C74.916 59.6816 75.3259 59.5204 75.8564 59.5202C76.3729 59.5202 76.7764 59.6843 77.0667 60.0124C77.357 60.3406 77.5021 60.793 77.5018 61.3695ZM74.6357 61.3695C74.6357 61.8569 74.7394 62.2264 74.9468 62.4782C75.1541 62.7299 75.4555 62.8558 75.851 62.8558C76.2496 62.8558 76.551 62.7303 76.7553 62.4792C76.9595 62.2282 77.0613 61.8583 77.0605 61.3695C77.0605 60.8861 76.9593 60.5192 76.7567 60.2689C76.5542 60.0186 76.2544 59.8934 75.8575 59.8934C75.4589 59.8934 75.1558 60.0193 74.9482 60.2711C74.7406 60.5228 74.6364 60.889 74.6357 61.3695ZM81.9999 63.1741H81.5225L79.557 60.1553H79.5371C79.5636 60.5098 79.5768 60.8346 79.5765 61.1297V63.1741H79.1902V59.5762H79.6626L81.6234 62.5827H81.6433C81.6399 62.5381 81.6325 62.3958 81.6209 62.1559C81.6093 61.916 81.6052 61.7442 81.6086 61.6405V59.5762H81.9999V63.1741ZM39.1303 57.924H37.9511V52.2724H41.1905V53.2544H39.1288V54.7103H41.0459V55.6868H39.1288L39.1303 57.924ZM42.4417 57.924V52.2724H43.6403V57.924H42.4417ZM50.2816 57.924H48.7595L46.2999 53.6487H46.2638C46.312 54.4034 46.3361 54.942 46.3361 55.2644V57.924H45.2655V52.2724H46.7767L49.2315 56.5043H49.2587C49.2198 55.7698 49.2006 55.2505 49.2008 54.9464V52.2698H50.279L50.2816 57.924ZM55.5071 57.924L55.0973 56.5788H53.0356L52.6258 57.924H51.3348L53.3303 52.2507H54.7956L56.798 57.9254L55.5071 57.924ZM54.8112 55.5729C54.4326 54.354 54.2193 53.6646 54.1713 53.5047C54.1236 53.3452 54.0896 53.2186 54.0689 53.126C53.9841 53.4559 53.7405 54.2715 53.3383 55.5729H54.8112ZM62.8659 57.924H61.3431L58.8836 53.6487H58.8474C58.8956 54.4034 58.9197 54.942 58.9197 55.2644V57.924H57.8491V52.2724H59.3606L61.8152 56.5043H61.8423C61.8035 55.7698 61.7842 55.2505 61.7844 54.9464V52.2698H62.8659V57.924ZM66.9047 53.1886C66.4535 53.1886 66.1039 53.358 65.8557 53.6968C65.6076 54.0356 65.4839 54.5078 65.4846 55.1136C65.4846 56.374 65.9576 57.0042 66.9036 57.0042C67.3005 57.0042 67.7811 56.9049 68.3453 56.7065V57.7124C67.8816 57.9053 67.3632 58.0017 66.79 58.0017C65.9677 58.0017 65.3389 57.7524 64.9034 57.2537C64.4679 56.7551 64.2501 56.0393 64.2501 55.1063C64.2501 54.5187 64.3571 54.0038 64.571 53.5618C64.7688 53.1378 65.0902 52.7834 65.4929 52.5451C65.8937 52.3098 66.3639 52.192 66.9036 52.1917C67.4526 52.1917 68.0041 52.3243 68.558 52.5896L68.1717 53.564C67.9639 53.4651 67.7509 53.3773 67.5337 53.3011C67.3319 53.2283 67.1192 53.1903 66.9047 53.1886ZM69.7411 57.924V52.2724H70.9395V57.924H69.7411ZM76.1639 57.924L75.7541 56.5788H73.6924L73.2829 57.924H71.9916L73.9875 52.2507H75.4531L77.4555 57.9254L76.1639 57.924ZM75.468 55.5729C75.0891 54.354 74.876 53.6646 74.8285 53.5047C74.7807 53.3452 74.7464 53.2186 74.7258 53.126C74.6406 53.4559 74.3972 54.2715 73.9955 55.5729H75.468ZM78.5092 57.924V52.2724H79.7075V56.9344H81.9999V57.924H78.5092ZM36.9112 50.529H34.4878L30.4729 44.7367L29.2392 45.7429V50.529H27.1467V37.737H29.2377V43.8444C29.8097 43.1451 30.3784 42.4713 30.9439 41.8232L34.3999 37.7359H36.7799C34.5458 40.3616 32.9447 42.2315 31.9765 43.3456L36.9112 50.529ZM45.187 50.529H37.9511V37.737H45.187V39.5043H40.0425V42.9868H44.8633V44.7367H40.0425V48.7516H45.187V50.529ZM52.0185 50.529L48.3088 39.8443H48.2387C48.3378 41.4307 48.3873 42.9182 48.3873 44.3066V50.5279H46.4888V37.737H49.4373L52.9914 47.9128H53.0442L56.7014 37.737H59.6587V50.529H57.6465V44.2032C57.6465 43.5673 57.6626 42.739 57.6946 41.7183C57.7267 40.6975 57.7543 40.0792 57.7775 39.8631H57.7077L53.8649 50.529H52.0185ZM61.1467 37.737H64.9446C66.7049 37.737 67.978 37.9937 68.7638 38.5071C69.5497 39.0205 69.942 39.8313 69.9408 40.9395C69.9408 41.687 69.7479 42.3082 69.3621 42.803C68.9763 43.2978 68.4216 43.6099 67.6982 43.7391V43.8266C68.5967 43.9954 69.2573 44.3294 69.68 44.8285C70.1027 45.3277 70.3142 46.0029 70.3144 46.8541C70.3144 48.0031 69.9134 48.9029 69.1114 49.5535C68.3094 50.204 67.1938 50.5296 65.7646 50.5301H61.1467V37.737ZM63.2377 43.0218H65.2502C66.1251 43.0218 66.7641 42.8833 67.1673 42.6063C67.5704 42.3292 67.7718 41.8581 67.7713 41.1931C67.7713 40.5924 67.5543 40.1584 67.1202 39.891C66.6862 39.6235 65.9963 39.4893 65.0506 39.4884H63.2395L63.2377 43.0218ZM63.2377 44.7193V48.7704H65.46C66.3351 48.7704 66.9957 48.6027 67.4418 48.2673C67.8879 47.9318 68.1108 47.4029 68.1106 46.6805C68.1106 46.0157 67.8831 45.5228 67.4281 45.2018C66.973 44.8809 66.2818 44.7205 65.3544 44.7208L63.2377 44.7193ZM79.7776 50.529L78.5001 46.9767H73.6085L72.357 50.529H70.1506L74.9366 37.6846H77.2114L81.9999 50.529H79.7776ZM77.9489 45.1758L76.7502 41.6933C76.6627 41.4601 76.5421 41.0926 76.3885 40.5908C76.2349 40.089 76.1281 39.7211 76.068 39.4869C75.8872 40.2852 75.6563 41.0713 75.3768 41.8405L74.2234 45.1743L77.9489 45.1758Z" fill="black"/>
<path d="M31.2405 56.8913C28.5766 62.0962 18.1711 61.3963 15.1332 55.5913C19.9988 59.2998 26.0367 57.9225 31.2405 56.8913ZM35.9868 57.2461C33.7366 59.6615 31.506 63.1686 27.1974 63.2221C30.3261 61.5641 31.3873 56.9672 35.9868 57.2461Z" fill="#81BB41"/>
<path d="M27.277 56.2854C23.3463 56.9817 19.4052 55.4369 16.9804 52.2626C13.83 48.4987 12.691 43.9366 15.9796 39.8757C14.1135 46.8797 21.9549 52.1269 27.277 56.2854Z" fill="#81BB41"/>
<path d="M24.3548 51.4527C15.3304 46.7647 20.2499 32.0894 29.7702 33.0443C22.6472 36.0345 22.2957 44.9479 24.3548 51.4527Z" fill="#81BB41"/>
</g>
<defs>
<clipPath id="clip0_1_7240">
<rect width="68" height="30.2224" fill="white" transform="translate(14 33)"/>
</clipPath>
</defs>
</svg>
