<svg width="96" height="96" viewBox="0 0 96 96" fill="none" xmlns="http://www.w3.org/2000/svg">
<circle cx="48" cy="48" r="47" fill="white" stroke="white" stroke-width="2"/>
<path d="M50.0432 40.5576H36.4268C35.8524 40.5576 35.3868 41.0232 35.3868 41.5975V55.214C35.3868 55.7883 35.8524 56.2539 36.4268 56.2539H50.0432C50.6176 56.2539 51.0832 55.7883 51.0832 55.214V41.5975C51.0832 41.0232 50.6176 40.5576 50.0432 40.5576Z" fill="#EE5B29"/>
<path d="M52.1962 64.2969C52.1962 64.2969 52.1719 64.4351 50.9776 64.4351H35.3138C35.3138 64.4351 27.1894 64.4432 27.1488 56.2538C27.0838 41.898 27.1244 40.5412 27.1244 40.5412C27.1244 40.5412 27.1813 32.3681 35.33 32.3356C43.4625 32.3031 51.0101 32.3681 51.0101 32.3681C51.0101 32.3681 59.1426 32.3681 59.1588 40.5412C59.1751 48.2269 59.1588 56.2538 59.1588 56.2538C59.1588 56.2538 59.1832 57.3587 58.9964 57.5212C58.8095 57.6837 67.202 64.1101 67.202 64.1101C67.202 63.9963 67.202 63.8826 67.202 63.7607V32.5956C67.2182 27.8997 63.4079 24.0894 58.712 24.0894H27.5144C22.8103 24.0894 19 27.8997 19 32.5956V63.7607C19 68.4566 22.8103 72.267 27.5144 72.267H58.712C59.7357 72.267 60.7187 72.0882 61.6287 71.7551L52.2044 64.2969H52.1962Z" fill="#EE5B29"/>
<path d="M73.9535 24C74.4735 24 74.9772 24.13 75.4565 24.39C75.9358 24.65 76.3096 25.0237 76.5858 25.5111C76.862 25.9986 77.0001 26.5104 77.0001 27.0385C77.0001 27.5666 76.862 28.0703 76.5939 28.5497C76.3258 29.029 75.9521 29.4027 75.4728 29.6708C74.9934 29.9389 74.4897 30.077 73.9616 30.077C73.4335 30.077 72.9298 29.9389 72.4505 29.6708C71.9711 29.4027 71.5974 29.029 71.3293 28.5497C71.0612 28.0703 70.9231 27.5666 70.9231 27.0385C70.9231 26.5104 71.0612 25.9986 71.3374 25.5111C71.6137 25.0237 71.9874 24.65 72.4667 24.39C72.9461 24.13 73.4417 24 73.9697 24H73.9535ZM73.9535 24.5931C73.5391 24.5931 73.1329 24.6987 72.7511 24.9099C72.3692 25.1212 72.0686 25.4218 71.8412 25.8117C71.6218 26.2017 71.508 26.6161 71.508 27.0385C71.508 27.461 71.6137 27.8672 71.833 28.2572C72.0524 28.6471 72.353 28.9478 72.7348 29.159C73.1248 29.3783 73.5229 29.484 73.9454 29.484C74.3678 29.484 74.7741 29.3783 75.164 29.159C75.5459 28.9396 75.8465 28.639 76.0658 28.2572C76.2852 27.8672 76.3908 27.461 76.3908 27.0385C76.3908 26.6161 76.2771 26.2017 76.0577 25.8117C75.8384 25.4218 75.5377 25.1212 75.1478 24.9099C74.7578 24.6987 74.3597 24.5931 73.9454 24.5931H73.9535ZM72.5805 28.6634V25.438H73.2385C73.8479 25.438 74.1972 25.438 74.2703 25.438C74.4897 25.4543 74.6522 25.503 74.7741 25.568C74.8959 25.633 74.9934 25.7386 75.0747 25.8767C75.1559 26.0148 75.1965 26.1692 75.1965 26.3398C75.1965 26.5754 75.1234 26.7704 74.969 26.9329C74.8147 27.0954 74.6034 27.201 74.3272 27.2416C74.4247 27.2823 74.4978 27.3229 74.5547 27.3635C74.6116 27.4041 74.6847 27.4935 74.7741 27.6154C74.7984 27.6478 74.8797 27.7778 75.0097 28.0053L75.3915 28.6553H74.5791L74.311 28.1272C74.1322 27.7778 73.9779 27.5504 73.856 27.461C73.7341 27.3716 73.5879 27.3229 73.401 27.3229H73.2304V28.6471H72.5723L72.5805 28.6634ZM73.2385 26.8273H73.5066C73.8885 26.8273 74.116 26.811 74.2135 26.7867C74.311 26.7623 74.376 26.7054 74.4328 26.6323C74.4816 26.5592 74.5141 26.4779 74.5141 26.3804C74.5141 26.283 74.4897 26.2098 74.4328 26.1367C74.3841 26.0636 74.311 26.0148 74.2135 25.9824C74.116 25.9499 73.8804 25.9336 73.5148 25.9336H73.2467V26.811L73.2385 26.8273Z" fill="#EE5B29"/>
</svg>
