<svg width="96" height="96" viewBox="0 0 96 96" fill="none" xmlns="http://www.w3.org/2000/svg">
<circle cx="48" cy="48" r="47" fill="white" stroke="white" stroke-width="2"/>
<path d="M77 54.65L54.8298 34.0796C54.5914 33.8497 54.3077 33.6721 53.9967 33.5581C53.6858 33.4441 53.3545 33.3962 53.024 33.4176H44.1713C42.8804 33.4176 42.5678 33.8148 42.0235 34.3886L30.6074 46.327L27.4407 43.3847L38.3419 31.9833C38.9855 31.3139 39.4821 30.7218 41.1812 30.7218H53.3182C54.0207 30.7218 54.668 30.8873 55.3116 31.4867L76.9963 51.612V44.9698L57.7795 27.1395C57.0292 26.4407 55.7162 25.9148 54.4289 25.9148H40.7105C39.8903 25.9148 38.8495 26.2752 38.0771 27.0843L24.8184 40.9536L21.295 37.6803L34.0204 24.3737C34.767 23.594 35.7306 22.9247 37.6063 22.9247H55.3704C56.3083 22.9247 57.5992 23.2814 58.2686 23.903L76.9963 41.2846V34.6387L60.7401 19.5521C59.8906 18.765 58.7688 18 56.5437 18H37.7792C36.6096 18 34.9472 18.2317 33.9248 19.302L19 34.9072V42.193L41.229 62.8222C41.8984 63.4401 42.5089 63.4842 43.0349 63.4842H51.8875C53.1784 63.4842 53.4911 63.087 54.0354 62.5133L65.4478 50.5749L68.6181 53.5172L57.7169 64.9186C57.0733 65.5916 56.5768 66.1801 54.8739 66.1801H42.737C42.3703 66.1937 42.0046 66.133 41.662 66.0015C41.3194 65.8701 41.007 65.6706 40.7436 65.4151L19 45.2346V51.8805L38.2757 69.7697C39.026 70.4648 40.339 70.9907 41.6263 70.9907H55.3447C56.1649 70.9907 57.2057 70.6303 57.9781 69.8212L71.2368 55.9519L74.7602 59.2252L62.0347 72.5318C61.2918 73.3115 60.3282 73.9808 58.4488 73.9808H40.6847C39.7469 73.9808 38.4559 73.6241 37.7866 73.0025L19 55.5658V62.208L35.3187 77.3498C36.1683 78.1405 37.29 78.9018 39.5188 78.9018H58.2796C59.4529 78.9018 61.1153 78.6701 62.1377 77.5999L77 62.0572V54.65Z" fill="black"/>
<path d="M53.5204 57.8827C52.7554 58.6808 52.4207 58.5374 51.8654 58.5374H44.3846C44.1919 58.5526 43.9983 58.5249 43.8177 58.4562C43.6371 58.3875 43.4739 58.2796 43.3401 58.1402L33.2296 48.7543L42.5383 39.0189C43.2996 38.2208 43.638 38.3643 44.1933 38.3643H51.6741C52.0272 38.3643 52.3178 38.39 52.7186 38.7615L62.8291 48.1437L53.5204 57.8827Z" fill="white"/>
</svg>
