<svg width="96" height="96" viewBox="0 0 96 96" fill="none" xmlns="http://www.w3.org/2000/svg">
<circle cx="48" cy="48" r="47" fill="white" stroke="white" stroke-width="2"/>
<path fill-rule="evenodd" clip-rule="evenodd" d="M36.6837 59.1541L36.5793 59.2567C34.9047 60.9625 32.9658 61.8671 30.9698 61.8671C26.8026 61.8671 23.7765 58.7392 23.7765 54.4239C23.7765 50.117 26.8026 46.9874 30.9698 46.9874C32.9658 46.9874 34.9047 47.8937 36.5793 49.6028L36.6837 49.708L39.3639 46.4657L39.2924 46.3781C37.0649 43.7433 34.3889 42.4626 31.1002 42.4626C27.8023 42.4626 24.7838 43.5734 22.6101 45.5753C20.2463 47.7456 19 50.8037 19 54.4247C19 58.0466 20.2463 61.1123 22.6101 63.2817C24.7838 65.2938 27.8014 66.397 31.1002 66.397C34.3889 66.397 37.0649 65.1162 39.2924 62.4806L39.3639 62.399L36.6837 59.1541ZM42.0728 65.9536H46.8088V42.8362H42.0728V65.9536ZM65.361 60.928C64.0953 61.6971 62.9205 62.0851 61.8628 62.0851C60.3329 62.0851 59.6403 61.2772 59.6403 59.4781V47.2104H64.4656V42.8572H59.6403V35.6631L54.9993 38.1481V42.8572H50.9954V47.2104H54.9993V60.2615C54.9993 63.8144 57.1048 66.243 60.2512 66.3095C62.3845 66.3507 63.6712 65.7146 64.4521 65.2484L64.5001 65.2164L65.6386 60.758L65.361 60.928ZM69.2807 65.9536H74.021V42.8362H69.2807V65.9536Z" fill="#1C4882"/>
<path fill-rule="evenodd" clip-rule="evenodd" d="M76.782 38.7827C72.4558 32.6547 65.2717 29 57.9623 29C50.6546 29 43.468 32.6556 39.1493 38.7827L38.9272 39.0974H44.376L44.4341 39.0317C48.1435 35.2079 52.9847 33.1832 57.9623 33.1832C62.9399 33.1832 67.7786 35.2079 71.4939 39.0317L71.557 39.0974H77L76.782 38.7827Z" fill="#CC2131"/>
</svg>
