<svg width="96" height="96" viewBox="0 0 96 96" fill="none" xmlns="http://www.w3.org/2000/svg">
<circle cx="48" cy="48" r="47" fill="white" stroke="white" stroke-width="2"/>
<path d="M20.4653 58.0487C19.5 55.3896 19.0042 52.583 19 49.7541C19 35.5449 31.9836 24 47.9956 24C64.0075 24 77 35.5449 77 49.7541C76.9972 52.5114 76.5102 55.2467 75.5613 57.8356L20.5008 58.0842L20.4653 58.0487ZM54.4341 25.9626C54.4341 25.9626 48.1288 30.5096 44.2923 40.8734C41.3617 48.795 42.1076 53.635 42.1076 53.635C42.1076 53.635 41.2196 53.9991 41.7258 46.5926C42.2142 39.488 47.5782 32.8186 47.5782 32.8186C47.5782 32.8186 43.4486 35.7226 40.1716 43.0136C38.0758 47.6671 38.4488 53.4929 38.4488 53.4929L50.7131 58.0487C50.7131 58.0487 48.0488 57.5602 47.2318 48.1289C46.2017 36.584 54.4607 25.9271 54.4607 25.9271L54.4341 25.9626ZM28.2537 61.3701C33.2891 61.2813 48.0133 61.3701 48.0044 62.3558C47.9956 63.3416 22.3747 63.9633 23.1828 63.9633C23.991 63.9633 57.1161 64.6559 57.1782 65.322C57.2404 65.9881 19.6838 65.5973 21.0781 66.1301C22.7743 66.7696 48.6083 66.2456 53.9368 66.9383C59.2652 67.631 44.9406 68.2793 30.2874 68.9453C15.6342 69.6114 39.0438 70.091 44.6209 70.091C50.198 70.091 86.7066 71.1922 53.5549 71.503C38.8218 71.6362 46.4503 68.7056 53.8391 68.5457C61.2278 68.3859 86.378 65.3753 64.6913 64.3718C43.0046 63.3682 45.6777 62.3381 58.1018 62.3381C70.526 62.3381 85.0104 60.855 71.6893 60.5619C65.4728 60.4021 33.8841 60.2333 23.8489 60.5175C15.723 60.6951 20.5186 61.4944 28.2537 61.3701Z" fill="#FDBB30"/>
</svg>
