<svg width="96" height="96" viewBox="0 0 96 96" fill="none" xmlns="http://www.w3.org/2000/svg">
<circle cx="48" cy="48" r="47" fill="white" stroke="white" stroke-width="2"/>
<path d="M74.2056 35.1608C72.7551 34.2378 68.0741 32.9851 54.2288 38.0617C55.943 33.4466 57.3276 29.6886 57.7891 27.8426C57.7891 27.8426 58.5802 25.7328 58.7121 23.8209C58.8439 21.9089 57.6572 20.9859 56.6683 20.3925C55.7452 19.7991 53.108 17.9531 52.6465 19.7332C52.185 21.5133 50.339 28.5019 49.2841 32.3917C48.9545 33.7103 47.8996 37.0068 46.6469 41.0285C43.4164 42.3471 40.1858 43.7976 37.153 45.1162C38.6694 41.1604 39.8562 37.8639 40.3836 36.1497C40.3836 36.1497 41.2407 34.04 41.3066 32.128C41.4385 30.2161 40.2517 29.293 39.3287 28.6997C38.4057 28.1063 35.7685 26.2603 35.307 27.9744C34.8455 29.7545 33.7906 34.2378 32.7357 38.1276C32.3401 39.644 30.9556 43.7976 29.3733 48.7423C25.4835 50.5884 22.7144 52.0388 21.8573 52.5663C20.2091 53.5552 20.0113 54.8738 20.6706 56.4561C21.3299 58.1044 23.3078 58.434 24.6264 57.8406C25.3516 57.511 26.0109 56.9836 26.868 56.3243C24.4286 63.7743 22.0551 70.8948 21.5936 72.3452C20.6706 75.3121 19.4838 79.0041 21.2639 79.6634C23.1759 80.3886 24.2308 78.147 25.5494 74.7187C26.3405 72.6749 30.8238 61.5986 34.7136 51.6432C37.4827 50.3246 41.0429 48.6764 44.8009 47.0282C42.0318 55.599 38.9991 64.9611 38.4716 66.6093C37.5486 69.5762 36.3619 73.2682 38.142 73.9275C40.0539 74.6528 41.1088 72.3452 42.3615 68.9169C43.0867 66.873 47.8996 54.7419 51.9872 43.9954C54.4926 43.0064 56.8661 42.0834 58.9099 41.4241C68.4038 38.2595 70.118 38.5891 70.8432 39.8418C71.8321 41.6219 67.6785 44.1272 62.4041 47.4897C58.3824 50.1269 51.1961 53.2256 50.0093 53.9508C48.8226 54.676 48.5589 55.7309 49.4819 57.7747C50.8664 60.8734 53.8992 58.6318 53.8992 58.6318C56.6683 57.0495 63.0635 55.4012 63.8546 56.8517C65.0414 59.0933 62.8657 61.5987 59.1077 64.4336C55.4156 67.2686 45.3283 72.8726 43.8779 73.7297C42.4274 74.5868 42.7571 76.9603 44.0097 76.9603C45.2624 76.9603 52.0532 74.3231 57.7231 70.8948C63.3931 67.4664 69.4586 62.5876 70.3817 58.1044C71.5025 52.83 64.6458 51.5114 64.6458 51.5114C64.6458 51.5114 71.5684 47.4897 75.3264 43.4679C78.557 39.9737 76.5131 36.6112 74.2056 35.1608Z" fill="#334475"/>
<path d="M72.887 33.183C71.4365 32.26 66.7555 31.0073 52.9102 36.0839C54.6244 31.4688 56.0089 27.7108 56.4705 25.8648C56.4705 25.8648 57.2616 23.755 57.3935 21.8431C57.5253 19.9311 56.3386 19.0081 55.3496 18.4147C54.4266 17.8214 51.7894 15.9753 51.3279 17.7554C50.8664 19.5355 49.0204 26.5241 47.9655 30.414C47.6359 31.7326 46.581 35.029 45.3283 39.0508C42.0978 40.3694 38.8672 41.8198 35.8344 43.1384C37.3508 39.1826 38.5375 35.8861 39.065 34.172C39.065 34.172 39.9221 32.0622 39.988 30.1502C40.1199 28.2383 38.9331 27.3153 38.0101 26.7219C37.0871 26.1285 34.4499 24.2825 33.9884 25.9967C33.5269 27.7768 32.472 32.26 31.4171 36.1498C31.0215 37.6662 29.637 41.8198 28.0547 46.7645C24.1648 48.6106 21.3958 50.061 20.5387 50.5885C18.8905 51.5774 18.6927 52.896 19.352 54.4783C20.0113 56.1266 21.9892 56.4562 23.3078 55.8629C24.033 55.5332 24.6923 55.0058 25.5494 54.3465C23.11 61.7965 20.7365 68.917 20.275 70.3674C19.352 73.3343 18.1652 77.0263 19.9453 77.6856C21.8573 78.4109 22.9122 76.1692 24.2308 72.7409C25.0219 70.6971 29.5052 59.6209 33.395 49.6655C36.1641 48.3469 39.7243 46.6986 43.4823 45.0504C40.7132 53.6213 37.6805 62.9833 37.153 64.6315C36.23 67.5984 35.0433 71.2904 36.8234 71.9497C38.7353 72.675 39.7902 70.3674 41.0429 66.9391C41.7681 64.8953 46.581 52.7642 50.6686 42.0176C53.174 41.0287 55.5474 40.1056 57.5913 39.4463C67.0852 36.2817 68.7993 36.6114 69.5246 37.864C70.5135 39.6441 66.3599 42.1495 61.0855 45.5119C57.0638 48.1491 49.8775 51.2478 48.6907 51.973C47.504 52.6982 47.2403 53.7531 48.1633 55.7969C49.5478 58.8956 52.5806 56.654 52.5806 56.654C55.3497 55.0717 61.7449 53.4235 62.536 54.8739C63.7227 57.1155 61.5471 59.6209 57.7891 62.4558C54.097 65.2908 44.0097 70.8949 42.5593 71.7519C41.1088 72.609 41.4385 74.9825 42.6911 74.9825C43.9438 74.9825 50.7346 72.3453 56.4045 68.917C62.0745 65.4886 68.14 60.6098 69.0631 56.1266C70.1839 50.8522 63.3272 49.5336 63.3272 49.5336C63.3272 49.5336 70.2498 45.5119 74.0078 41.4902C77.2384 38.0618 75.1945 34.6335 72.887 33.183Z" fill="#A90432"/>
</svg>
