<svg width="96" height="96" viewBox="0 0 96 96" fill="none" xmlns="http://www.w3.org/2000/svg">
<circle cx="48" cy="48" r="47" fill="white" stroke="white" stroke-width="2"/>
<path d="M69.2764 31L78.1463 42.7284L69.2764 54.4568H76.0957L84.9656 42.7284L76.0957 31H69.2764Z" fill="#F88D2A"/>
<path d="M59.498 48.7923H55.8932V45.0095H59.498C60.6673 45.0095 61.4785 45.7461 61.4785 46.9C61.4785 47.9917 60.6673 48.7923 59.498 48.7923ZM45.5626 46.1953C44.6848 47.8302 42.8662 48.7923 40.7561 48.7923C37.0866 48.7923 34.6815 46.2911 34.6815 42.7018C34.6815 39.1124 37.0848 36.6112 40.7561 36.6112C42.868 36.6112 44.6866 37.5734 45.5626 39.1763L50.0776 36.6183V48.7834L45.5626 46.1953ZM55.8914 36.6112H58.8792C59.9189 36.6112 60.7302 37.284 60.7302 38.374C60.7302 39.5278 59.8848 40.1367 58.8792 40.1367H55.8914V36.6112ZM64.4358 42.3166C65.7669 41.2905 66.5476 39.7834 66.5476 37.8609C66.5476 33.8864 63.5598 31.4828 59.0447 31.4828H50.0794V35.555C48.009 32.7609 44.575 31.0018 40.7561 31.0018C34.5197 31.0018 29.8553 35.1822 29.0297 40.8769V31.4828H23.2159V46.0035C23.2159 47.6065 22.4046 48.8243 20.032 48.8243C17.6611 48.8243 16.8481 47.6065 16.8481 46.0035V31.4828H11.0343V46.5485C11.0343 51.3574 14.8028 54.4018 20.032 54.4018C25.2611 54.4018 29.0297 51.3574 29.0297 46.5485V44.5266C29.8535 50.2213 34.5179 54.4018 40.7561 54.4018C44.6038 54.4018 48.0126 52.6444 50.0794 49.8503V53.9225H59.6617C64.2739 53.9225 67.2941 51.3254 67.2941 47.3509C67.2923 45.0734 66.1896 43.3426 64.4358 42.3166ZM11.6531 60.1426C11.6531 60.6041 11.6531 61.1065 12.0956 61.4793C12.3223 61.6692 12.7054 61.7935 13.0148 61.7935C13.3242 61.7935 13.7073 61.6692 13.934 61.4793C14.3765 61.1083 14.3765 60.6059 14.3765 60.1426V57.068H14.9953V60.3077C14.9953 60.7692 14.9449 61.2148 14.6445 61.6266C14.3099 62.0811 13.7253 62.3686 13.0148 62.3686C12.3043 62.3686 11.7197 62.0811 11.3851 61.6266C11.0847 61.2148 11.0343 60.7692 11.0343 60.3077V57.068H11.6531V60.1426ZM15.6573 58.8485H16.2581V59.2444C16.3678 59.1041 16.6754 58.7651 17.2528 58.7651C17.6629 58.7651 18.0371 58.9302 18.2476 59.2355C18.4238 59.4911 18.449 59.7716 18.449 60.1515V62.271H17.8482V60.1674C17.8482 59.9615 17.832 59.7219 17.6881 59.5408C17.5712 59.3917 17.3877 59.2923 17.1197 59.2923C16.911 59.2923 16.6862 59.3509 16.5099 59.5568C16.2761 59.8302 16.2581 60.2331 16.2581 60.4799V62.2692H15.6573V58.8485ZM19.5607 58.8485V62.271H18.9599V58.8485H19.5607ZM19.2603 57.068C19.4941 57.068 19.6866 57.258 19.6866 57.4888C19.6866 57.7195 19.4941 57.9095 19.2603 57.9095C19.0264 57.9095 18.834 57.7195 18.834 57.4888C18.834 57.2562 19.0264 57.068 19.2603 57.068ZM21.0249 59.3935V62.271H20.4241V59.3935H20.0554V58.8485H20.4241V57.6112H21.0249V58.8485H21.6257V59.3935H21.0249ZM24.3851 60.1834C24.2844 59.6473 23.8743 59.2923 23.3652 59.2923C22.8561 59.2923 22.437 59.6722 22.3453 60.1834H24.3851ZM24.9769 61.3959C24.8762 61.5858 24.7251 61.7917 24.5506 61.9479C24.234 62.2284 23.8401 62.3686 23.3976 62.3686C22.5629 62.3686 21.6851 61.8503 21.6851 60.5793C21.6851 59.5568 22.3201 58.7651 23.3634 58.7651C24.0397 58.7651 24.4661 59.0953 24.6765 59.3917C24.8942 59.697 25.0183 60.2243 25.0021 60.6787H22.3039C22.3129 61.387 22.804 61.8414 23.4066 61.8414C23.6908 61.8414 23.9156 61.7598 24.1171 61.5947C24.2754 61.4615 24.4013 61.2893 24.4769 61.1243L24.9769 61.3959ZM26.0328 60.5562C26.0328 61.2893 26.4502 61.8414 27.1697 61.8414C27.9054 61.8414 28.3227 61.2396 28.3227 60.5633C28.3227 59.6811 27.7039 59.2923 27.1697 59.2923C26.5743 59.2941 26.0328 59.7219 26.0328 60.5562ZM28.2886 57.068H28.8894V62.271H28.2886V61.7935C28.0871 62.0491 27.7111 62.3704 27.1013 62.3704C26.2235 62.3704 25.414 61.7615 25.414 60.5562C25.414 59.3757 26.2163 58.7669 27.1013 58.7669C27.7687 58.7669 28.1285 59.1308 28.2886 59.3367V57.068ZM68.109 61.6923H69.3969C69.7567 61.6923 70.1074 61.6674 70.3737 61.4615C70.5913 61.3053 70.7406 61.0337 70.7406 60.7035C70.7406 60.2669 70.4816 60.0112 70.2639 59.8959C70.0553 59.7805 69.7621 59.7308 69.3196 59.7308H68.1072V61.6923H68.109ZM68.109 59.1858H69.2458C69.5714 59.1858 70.3413 59.1858 70.3413 58.4385C70.3413 57.6396 69.4383 57.645 69.2638 57.645H68.1108V59.1858H68.109ZM69.1631 57.068C69.4725 57.068 69.9959 57.0396 70.406 57.3609C70.5823 57.4941 70.9079 57.8189 70.9079 58.4225C70.9079 58.6941 70.7802 59.1166 70.3917 59.3349C71.0986 59.5692 71.3612 60.2101 71.3612 60.7195C71.3612 61.2467 71.095 61.6763 70.7928 61.9071C70.3503 62.2533 69.8412 62.2692 69.4563 62.2692H67.492V57.068H69.1631ZM72.2606 60.5562C72.2606 61.2893 72.6779 61.8414 73.3975 61.8414C74.1332 61.8414 74.5505 61.2396 74.5505 60.5633C74.5505 59.6811 73.9317 59.2923 73.3975 59.2923C72.8039 59.2941 72.2606 59.7219 72.2606 60.5562ZM74.5163 58.8485H75.1171V62.271H74.5163V61.7935C74.3149 62.0491 73.9389 62.3704 73.3291 62.3704C72.4513 62.3704 71.6418 61.7615 71.6418 60.5562C71.6418 59.3757 72.4441 58.7669 73.3291 58.7669C73.9983 58.7669 74.3562 59.1308 74.5163 59.3367V58.8485ZM75.6586 58.8485H76.2594V59.2444C76.3673 59.1041 76.6767 58.7651 77.2541 58.7651C77.6643 58.7651 78.0384 58.9302 78.2489 59.2355C78.4234 59.4911 78.4486 59.7716 78.4486 60.1515V62.271H77.8478V60.1674C77.8478 59.9615 77.8316 59.7219 77.6895 59.5408C77.5725 59.3917 77.3891 59.2923 77.121 59.2923C76.9124 59.2923 76.6875 59.3509 76.5112 59.5568C76.2774 59.8302 76.2612 60.2331 76.2612 60.4799V62.2692H75.6604V58.8485H75.6586ZM79.562 57.068V60.1177L80.832 58.8485H81.6181L80.1304 60.3166L81.8861 62.271H81.1L79.7131 60.7124L79.562 60.8598V62.271H78.9612V57.068H79.562ZM36.2321 59.9225C36.0702 60.0822 35.9785 60.2882 35.9785 60.5615C35.9785 60.874 36.1026 61.071 36.2321 61.2006C36.3706 61.3373 36.5721 61.4438 36.8653 61.4438C37.1117 61.4438 37.3204 61.3603 37.4823 61.2006C37.6442 61.0408 37.7359 60.8349 37.7359 60.5615C37.7359 60.2882 37.6442 60.0822 37.4823 59.9225C37.3204 59.7627 37.1117 59.6793 36.8581 59.6793C36.6027 59.6775 36.394 59.7627 36.2321 59.9225ZM38.3601 61.8237C38.0525 62.1272 37.5273 62.3722 36.8563 62.3722C36.1854 62.3722 35.6619 62.129 35.3525 61.8237C35.0053 61.4811 34.8362 60.9947 34.8362 60.5598C34.8362 60.1266 35.0053 59.6385 35.3525 59.2976C35.6619 58.9923 36.1854 58.7491 36.8563 58.7491C37.5273 58.7491 38.0525 58.9923 38.3601 59.2976C38.7073 59.6402 38.8764 60.1266 38.8764 60.5598C38.8782 60.9947 38.7073 61.4811 38.3601 61.8237ZM39.1498 58.8645H40.2597V59.2603C40.5457 58.8343 40.9612 58.7811 41.2238 58.7811C41.3713 58.7811 41.6412 58.797 41.8714 58.9337C42.0495 59.0331 42.1952 59.2 42.2869 59.4059C42.3715 59.2692 42.5028 59.1095 42.7259 58.971C42.9651 58.8272 43.1881 58.7811 43.458 58.7811C43.8735 58.7811 44.2135 58.9035 44.4221 59.1006C44.7531 59.413 44.7765 59.8692 44.7765 60.1124V62.2586H43.6666V60.5385C43.6666 60.3645 43.6666 60.0592 43.5191 59.8763C43.4274 59.7627 43.2799 59.6935 43.118 59.6935C42.9327 59.6935 42.778 59.7769 42.6863 59.8994C42.5406 60.0822 42.5172 60.3485 42.5172 60.5686V62.2586H41.4055V60.4923C41.4055 60.2633 41.3983 59.997 41.2292 59.8302C41.1123 59.7166 40.9738 59.6935 40.8587 59.6935C40.713 59.6935 40.5817 59.7325 40.4737 59.8302C40.2651 60.029 40.2579 60.4089 40.2579 60.5225V62.2568H39.148V58.8645H39.1498ZM45.2298 58.8645H46.3397V59.2603C46.6257 58.8343 47.0412 58.7811 47.3038 58.7811C47.4513 58.7811 47.7212 58.797 47.9514 58.9337C48.1295 59.0331 48.2752 59.2 48.3687 59.4059C48.4533 59.2692 48.5846 59.1095 48.8077 58.971C49.0469 58.8272 49.2699 58.7811 49.5398 58.7811C49.9553 58.7811 50.2953 58.9035 50.5039 59.1006C50.8349 59.413 50.8583 59.8692 50.8583 60.1124V62.2586H49.7484V60.5385C49.7484 60.3645 49.7484 60.0592 49.6009 59.8763C49.5092 59.7627 49.3617 59.6935 49.1998 59.6935C49.0145 59.6935 48.8598 59.7769 48.7681 59.8994C48.6224 60.0822 48.599 60.3485 48.599 60.5686V62.2586H47.4873V60.4923C47.4873 60.2633 47.4801 59.997 47.311 59.8302C47.1941 59.7166 47.0556 59.6935 46.9405 59.6935C46.7948 59.6935 46.6635 59.7325 46.5555 59.8302C46.3469 60.029 46.3397 60.4089 46.3397 60.5225V62.2568H45.2298V58.8645ZM52.4197 58.8645V60.7373C52.4197 60.8899 52.4359 61.126 52.6121 61.2858C52.6895 61.355 52.828 61.4456 53.0744 61.4456C53.2831 61.4456 53.445 61.3763 53.5439 61.2858C53.7058 61.1331 53.7292 60.9059 53.7292 60.7373V58.8645H54.8409V60.8438C54.8409 61.2325 54.8013 61.5982 54.4541 61.9319C54.0602 62.3118 53.4828 62.374 53.0744 62.374C52.6499 62.374 52.0797 62.3136 51.6876 61.9319C51.371 61.6284 51.3098 61.2858 51.3098 60.9112V58.8645H52.4197ZM55.2852 58.8645H56.3951V59.2675C56.735 58.8414 57.1344 58.7722 57.46 58.7722C57.7604 58.7722 58.1543 58.8254 58.4475 59.1148C58.7713 59.4343 58.7947 59.8373 58.7947 60.1124V62.2586H57.6848V60.5154C57.6848 60.2935 57.6776 60.013 57.4995 59.8373C57.415 59.7538 57.2765 59.6846 57.075 59.6846C56.8448 59.6846 56.6973 59.7751 56.6127 59.8675C56.4274 60.0503 56.3969 60.2935 56.3969 60.5136V62.2568H55.287V58.8645H55.2852ZM60.2679 58.8645V62.2586H59.158V58.8645H60.2679ZM59.7121 57.068C60.0736 57.068 60.3597 57.3485 60.3597 57.7071C60.3597 58.0657 60.0736 58.3461 59.7121 58.3461C59.3505 58.3461 59.0645 58.0639 59.0645 57.7071C59.0645 57.3503 59.3505 57.068 59.7121 57.068ZM62.0811 59.7467V62.2586H60.9713V59.7467H60.5845V58.8645H60.9713V57.7675H62.0811V58.8645H62.7665V59.7467H62.0811Z" fill="#0055B8"/>
<path d="M63.9015 61.8237L62.2592 58.8645H63.5399L64.5113 60.7053L65.4593 58.8645H66.7095L63.9411 64H62.6909L63.9015 61.8237ZM33.7533 60.5669C33.6185 60.7479 33.4425 60.8951 33.2393 60.9966C33.0362 61.098 32.8118 61.1509 32.5841 61.1509C31.7818 61.1509 31.1307 60.5083 31.1307 59.7166C31.1307 58.9248 31.7818 58.2822 32.5841 58.2822C33.0644 58.2822 33.4889 58.513 33.7533 58.8663L34.8182 58.2503C34.338 57.5385 33.5159 57.068 32.5841 57.068C31.1019 57.068 29.9003 58.2538 29.9003 59.7166C29.9003 61.1793 31.1019 62.3651 32.5841 62.3651C33.5177 62.3651 34.338 61.8947 34.8182 61.1828L33.7533 60.5669Z" fill="#0055B8"/>
</svg>
