<svg width="96" height="96" viewBox="0 0 96 96" fill="none" xmlns="http://www.w3.org/2000/svg">
<circle cx="48" cy="48" r="47" fill="white" stroke="white" stroke-width="2"/>
<path fill-rule="evenodd" clip-rule="evenodd" d="M31.2628 52.1759C31.5145 52.159 31.8838 51.6876 32.018 51.5192C32.3034 51.1993 32.5719 50.8456 32.8405 50.5089C34.7371 48.2357 36.6001 45.9289 38.161 43.4032C39.017 42.0056 39.9569 40.3555 40.6283 38.8737C41.2829 37.4256 41.971 36.1123 42.0046 34.4116C42.0046 34.058 41.8871 33.7212 41.5514 33.7212C41.4004 33.7212 41.1989 33.7886 40.9975 33.957C40.4604 34.3611 39.9905 34.8999 39.5541 35.405C38.6142 36.5332 37.7918 37.7961 36.9526 38.9916C35.207 41.4668 33.8979 44.1441 32.7733 46.9224C32.253 48.1852 31.6488 49.3807 31.2628 50.6773C31.0781 51.2834 30.9271 51.5023 30.9439 51.8391C30.9606 52.058 31.0446 52.1927 31.2628 52.1759ZM54.2906 52.1759C54.5423 52.159 54.9116 51.6876 55.0458 51.5192C55.3312 51.1993 55.5997 50.8456 55.8683 50.5089C57.7649 48.2357 59.6279 45.9289 61.1888 43.4032C62.0448 42.0056 62.9847 40.3555 63.6561 38.8737C64.3107 37.4256 64.9988 36.1123 65.0324 34.4116C65.0324 34.058 64.9149 33.7212 64.5792 33.7212C64.4282 33.7212 64.2267 33.7886 64.0253 33.957C63.4882 34.3611 63.0183 34.8999 62.5819 35.405C61.642 36.5332 60.8196 37.7961 59.9804 38.9916C58.2348 41.4668 56.9257 44.1441 55.8011 46.9224C55.2808 48.1852 54.6766 49.3807 54.2906 50.6773C54.1059 51.2834 53.9549 51.5023 53.9717 51.8391C53.9884 52.058 54.0724 52.1927 54.2906 52.1759ZM76.3449 55.4425C76.0092 56.0486 75.7071 56.6548 75.3714 57.2442C74.6665 58.4733 73.844 59.7025 72.9713 60.8138C71.2929 62.9186 69.1613 64.6866 66.6101 64.6866C65.0492 64.6866 64.0086 63.9794 63.5386 63.3059C63.1693 62.8007 62.9512 62.2114 62.8337 61.6052C60.8364 63.9963 58.302 66 55.4151 66C53.8542 66 52.931 65.6801 51.8065 64.5856C50.7323 63.5416 50.1617 62.0767 49.9267 60.5781C49.8763 60.6455 49.8092 60.7297 49.7588 60.797C48.0804 62.9018 45.9489 64.6698 43.3977 64.6698C41.8367 64.6698 40.7961 63.9626 40.3262 63.2891C39.9569 62.7839 39.7387 62.1946 39.6212 61.5884C37.6239 63.9794 35.0895 65.9832 32.2027 65.9832C30.6417 65.9832 29.7186 65.6632 28.5941 64.5688C27.0499 63.0702 26.5632 60.6791 26.5632 58.608C26.4289 58.6586 26.2947 58.7259 26.1436 58.7933C24.3981 59.8372 22.5182 60.6286 20.4538 61.0664C18.9936 61.3863 18.3726 59.1637 19.8328 58.8438C22.2665 58.3218 24.8848 56.9579 26.8485 55.594C26.9996 54.7016 27.201 53.826 27.4024 52.9504C27.8892 50.8962 28.4766 48.9093 29.2319 46.9392C29.9872 45.0365 30.6585 43.0833 31.6488 41.2647C32.1355 40.3723 32.5887 39.4967 33.0587 38.5875C33.5622 37.6277 34.4014 36.4322 34.9888 35.5229C36.298 33.5192 38.7988 30 41.5514 30C42.2899 30 43.0452 30.2862 43.7837 30.9598C44.4718 31.5828 44.7404 32.5426 44.7236 33.4687C44.7236 35.3882 43.9012 37.5267 43.1291 39.3957C42.3571 41.2816 41.2661 43.1338 40.259 44.9018C38.2617 48.3873 35.6098 51.4518 32.9076 54.3817C32.2362 55.1057 31.5481 55.8129 30.8096 56.4696C30.0711 57.1431 29.6347 57.7998 29.6011 58.8943C29.6011 60.6623 29.9368 62.9523 32.0684 62.9523C33.9482 62.9523 35.7777 61.1338 36.9358 59.8372C38.3121 58.305 39.2352 56.8737 40.2926 55.1057C40.4604 54.8195 40.5947 54.5669 40.729 54.3143C40.8801 53.927 41.0143 53.5566 41.1654 53.1862C41.6185 52.0748 42.1221 50.9804 42.6424 49.9027C43.1123 48.8924 43.4816 47.6632 44.3376 46.9055C44.69 46.6024 45.1768 46.4172 45.6467 46.4172C46.4859 46.4172 47.0902 46.9897 47.0902 47.8485C47.0902 48.6904 46.5027 49.5996 46.1503 50.29C45.5964 51.334 45.0929 52.4116 44.6061 53.4892C44.0858 54.6174 43.5319 55.7792 43.1963 56.9747C42.9445 57.8672 42.6424 58.9953 42.6088 59.9719C42.5752 60.898 42.8941 61.42 43.6326 61.42C44.069 61.42 44.5558 61.2348 44.9418 60.9991C46.0496 60.3424 46.9223 59.4163 47.6608 58.3891C48.3658 57.4125 49.0036 56.4191 49.6414 55.4088C49.8595 55.072 50.0945 54.7016 50.3127 54.3311C50.4134 53.8765 50.5141 53.4219 50.6148 52.9673C51.1016 50.913 51.689 48.9261 52.4443 46.956C53.1996 45.0533 53.8709 43.1001 54.8612 41.2816C55.3479 40.3891 55.8011 39.5136 56.2711 38.6043C56.7746 37.6445 57.6138 36.449 58.2012 35.5398C59.5104 33.536 62.0112 30.0168 64.7638 30.0168C65.5023 30.0168 66.2576 30.3031 66.9961 30.9766C67.6843 31.5996 67.9528 32.5594 67.936 33.4855C67.936 35.4051 67.1136 37.5435 66.3415 39.4125C65.5695 41.2984 64.4785 43.1506 63.4715 44.9186C61.4742 48.4041 58.8223 51.4687 56.12 54.3985C55.4487 55.1225 54.7605 55.8297 54.022 56.4864C53.2835 57.16 52.8471 57.8167 52.8136 58.9111C52.8136 60.6791 53.1492 62.9691 55.2808 62.9691C57.1606 62.9691 58.9901 61.1506 60.1482 59.8541C61.5245 58.3218 62.4476 56.8906 63.505 55.1225C63.6729 54.8363 63.8071 54.5837 63.9414 54.3311C64.0925 53.9439 64.2267 53.5734 64.3778 53.203C64.831 52.0917 65.3345 50.9972 65.8548 49.9196C66.3248 48.9093 66.694 47.6801 67.55 46.9224C67.9025 46.6193 68.3892 46.434 68.8592 46.434C69.6984 46.434 70.3026 47.0065 70.3026 47.8653C70.3026 48.7072 69.7151 49.6165 69.3627 50.3068C68.8088 51.3508 68.3053 52.4284 67.8186 53.5061C67.2982 54.6342 66.7444 55.7961 66.4087 56.9916C66.1569 57.884 65.8548 59.0122 65.8212 59.9888C65.7877 60.9149 66.1066 61.4369 66.8451 61.4369C67.2815 61.4369 67.7682 61.2516 68.1542 61.0159C69.262 60.3592 70.1348 59.4331 70.8733 58.406C71.5782 57.4294 72.216 56.4359 72.8538 55.4256C73.1559 54.9373 73.5084 54.3985 73.7937 53.8934C74.079 53.3882 74.2636 52.8662 74.784 52.58C75.0861 52.4116 75.3714 52.3442 75.6232 52.3442C76.3281 52.3442 76.9827 52.8494 76.9995 53.6576C77.0162 54.2975 76.647 54.9036 76.3449 55.4425ZM72.2328 41.1132C72.5517 41.1132 72.8873 41.0458 73.1727 40.928C74.2133 40.507 75.1532 39.16 75.1532 38.1665C75.1532 37.1057 74.2972 36.4995 73.2566 36.4995C73.0048 36.4995 72.7363 36.55 72.4845 36.6342C71.1922 37.1057 70.5544 38.2507 70.5544 39.3452C70.5544 39.9008 70.6718 40.507 71.2593 40.8606C71.5446 41.0458 71.8803 41.1132 72.2328 41.1132ZM49.4735 36.6342C49.7253 36.5332 49.9938 36.4995 50.2456 36.4995C51.2862 36.4995 52.1422 37.1057 52.1422 38.1665C52.1422 39.1431 51.2023 40.507 50.1617 40.928C49.8763 41.0458 49.5406 41.1132 49.2218 41.1132C48.8693 41.1132 48.5336 41.029 48.2483 40.8606C47.6608 40.507 47.5433 39.9008 47.5433 39.3452C47.5266 38.2507 48.1644 37.1057 49.4735 36.6342Z" fill="#73C9E2"/>
</svg>
