<svg width="96" height="96" viewBox="0 0 96 96" fill="none" xmlns="http://www.w3.org/2000/svg">
<circle cx="48" cy="48" r="47" fill="white" stroke="white" stroke-width="2"/>
<path d="M47.77 74.54C62.5547 74.54 74.54 62.5547 74.54 47.77C74.54 32.9853 62.5547 21 47.77 21C32.9853 21 21 32.9853 21 47.77C21 62.5547 32.9853 74.54 47.77 74.54Z" fill="white"/>
<path d="M34.5402 69.2201L46.3802 49.6801L46.3002 49.3301H45.7102L31.2202 66.7801C32.2575 67.6838 33.368 68.5 34.5402 69.2201Z" fill="#FDBD3A"/>
<path d="M42.6099 72.4404L47.7699 50.4404L47.3699 49.9004L47.1299 50.0204L38.6299 71.3004C39.9218 71.7928 41.2532 72.1742 42.6099 72.4404Z" fill="#FDBD3A"/>
<path d="M46 22.6197C41.4148 22.9401 37.0047 24.5084 33.2468 27.1549C29.4888 29.8014 26.5263 33.4253 24.6797 37.6343C22.8332 41.8434 22.173 46.4773 22.7705 51.0346C23.3681 55.5919 25.2007 59.899 28.07 63.4897L44.44 49.3397H42.44L42.37 48.9197L42.85 47.9197L47 46.9997C47.66 44.9997 48.66 42.3797 49.88 39.5797C49.96 39.4197 50.03 39.2497 50.1 39.0897V39.0297H38.45L38.75 37.4297C38.7806 37.2156 38.8412 37.0069 38.93 36.8097C39.0503 36.562 39.2238 36.3439 39.4381 36.171C39.6525 35.9982 39.9024 35.8748 40.17 35.8097L53.17 32.9597C53.8764 31.6694 54.6717 30.4297 55.55 29.2497C56.16 28.5097 56.84 28.1197 57.32 28.2497C57.75 28.5197 57.85 29.2997 57.63 30.2497C57.2193 31.663 56.7114 33.0463 56.11 34.3897L61.71 46.4697C61.8259 46.7169 61.8861 46.9866 61.8861 47.2597C61.8861 47.5327 61.8259 47.8025 61.71 48.0497C61.6122 48.2424 61.4839 48.418 61.33 48.5697L60.23 49.7697L53.16 40.4597L52.89 40.9397C51.39 43.6097 49.89 45.9397 48.72 47.7197L50.45 51.6297L49.96 52.6297L49.58 52.8197L48.44 51.2997L47.13 72.9997C50.5103 73.0352 53.8632 72.3905 56.9892 71.1039C60.1153 69.8173 62.9507 67.9152 65.3268 65.5106C67.7029 63.106 69.5711 60.2482 70.8203 57.1069C72.0695 53.9657 72.6741 50.6054 72.5983 47.2257C72.5225 43.8461 71.7678 40.5162 70.379 37.4342C68.9902 34.3522 66.9958 31.5809 64.5143 29.2853C62.0328 26.9897 59.115 25.2166 55.9343 24.0715C52.7537 22.9264 49.3753 22.4326 46 22.6197Z" fill="#FDBD3A"/>
</svg>
