<svg width="96" height="96" viewBox="0 0 96 96" fill="none" xmlns="http://www.w3.org/2000/svg">
<circle cx="48" cy="48" r="47" fill="white" stroke="white" stroke-width="2"/>
<g clip-path="url(#clip0_1_6622)">
<path d="M16.9134 41.6115H16.2495C16.006 41.619 15.7622 41.6074 15.5204 41.5767C15.6778 41.9636 15.7161 42.0448 15.8773 42.513L17.182 46.3315C17.4578 47.1213 17.6897 47.926 17.8766 48.7418H17.9303C18.105 47.9224 18.3384 47.1169 18.6287 46.3315L19.9488 42.482C20.1099 42.0139 20.1445 41.9442 20.3056 41.5458C20.0806 41.5762 19.8534 41.5879 19.6264 41.5806H18.9664V39.4333H24.308V41.6115H23.483L19.5574 51.4423H15.7699L11.8557 41.5922L11 41.6115V39.4333H16.9134V41.6115Z" fill="#05446B"/>
<path d="M24.9681 49.2641H25.7355C25.8658 49.2557 25.9963 49.2741 26.1193 49.3183C26.0866 49.1829 26.0737 49.0435 26.0809 48.9043V41.9404C26.081 41.8092 26.1004 41.6789 26.1385 41.5535C26.0038 41.5836 25.8657 41.5954 25.7279 41.5883H24.9604V39.4333H30.5937V41.5922H29.8262C29.6897 41.5979 29.553 41.5862 29.4194 41.5574C29.4691 41.6893 29.4887 41.8307 29.477 41.9713V48.9043C29.4876 49.0449 29.468 49.1861 29.4194 49.3183C29.5527 49.2728 29.6935 49.2544 29.8339 49.2641H30.6013V51.4462H24.9681V49.2641Z" fill="#05446B"/>
<path d="M31.2191 47.2639H34.2046C34.2046 48.1498 34.2737 48.5986 34.5884 48.9236C34.8048 49.1217 35.059 49.2732 35.3354 49.369C35.6119 49.4648 35.9047 49.5028 36.1962 49.4807C37.1978 49.4807 37.8233 49.0126 37.8233 48.2543C37.8384 48.0802 37.7862 47.9069 37.6775 47.7707C37.4357 47.5115 36.6145 47.1246 35.5592 46.7803C34.1317 46.3315 32.7541 45.7163 32.236 45.2869C31.8915 44.9907 31.6192 44.6185 31.4402 44.1992C31.2612 43.7799 31.1803 43.3247 31.2038 42.8688C31.2038 40.5862 32.827 39.1625 35.471 39.1625C36.0324 39.1249 36.5947 39.2209 37.1126 39.4427C37.6306 39.6645 38.0895 40.0058 38.4526 40.4392H38.491C38.4263 40.259 38.3901 40.0697 38.3835 39.8782V39.4333H41.0697V43.3022H38.2454C38.1917 42.5826 38.0689 42.1686 37.8002 41.8629C37.5956 41.6712 37.353 41.5252 37.0885 41.4346C36.824 41.3439 36.5435 41.3106 36.2653 41.3368C35.1947 41.3368 34.6766 41.7237 34.6766 42.4549C34.6703 42.5737 34.6912 42.6925 34.7378 42.8019C34.7844 42.9112 34.8554 43.0083 34.9452 43.0855C35.2635 43.3034 35.6111 43.4741 35.9775 43.5923L36.7833 43.8593L37.5892 44.1494L38.3912 44.4164C39.2883 44.6813 40.1007 45.1789 40.7474 45.8595C41.1618 46.4738 41.369 47.2064 41.3383 47.9487C41.3383 50.3435 39.7496 51.7286 36.9982 51.7286C35.6053 51.7286 34.4809 51.2798 33.9283 50.4673H33.8593C33.9482 50.6493 34.0041 50.8458 34.0243 51.0476V51.4345H31.2191V47.2639Z" fill="#05446B"/>
<path d="M42.006 49.2641H42.7735C42.9037 49.2555 43.0344 49.2739 43.1572 49.3183C43.1278 49.1824 43.1162 49.0433 43.1227 48.9043V41.9404C43.1233 41.8096 43.1414 41.6794 43.1764 41.5535C43.0417 41.5836 42.9036 41.5954 42.7658 41.5883H41.9983V39.4333H47.6354V41.5922H46.868C46.7302 41.5985 46.5922 41.5868 46.4574 41.5574C46.5038 41.69 46.5221 41.8311 46.5111 41.9713V48.9043C46.521 49.0446 46.5027 49.1854 46.4574 49.3183C46.5893 49.2728 46.7289 49.2544 46.868 49.2641H47.6354V51.4462H42.006V49.2641Z" fill="#05446B"/>
<path d="M52.0599 42.513C51.6627 43.3996 51.4674 44.3646 51.4882 45.3372C51.4527 46.4287 51.686 47.5121 52.1674 48.4904C52.388 48.8256 52.6882 49.0999 53.0407 49.2884C53.3932 49.477 53.7868 49.5737 54.1859 49.5698C54.6291 49.586 55.0677 49.4745 55.4504 49.2484C55.833 49.0223 56.1438 48.6909 56.3463 48.293C56.7331 47.4072 56.928 46.4483 56.9181 45.4804C56.9181 42.7103 55.9549 41.2246 54.1859 41.2246C53.7465 41.2124 53.3128 41.3272 52.9361 41.5555C52.5594 41.7838 52.2554 42.116 52.0599 42.513ZM58.902 40.7642C59.9918 41.8475 60.5828 43.4724 60.5828 45.4069C60.5828 49.3338 58.1345 51.7828 54.205 51.7828C50.2756 51.7828 47.7966 49.3376 47.7966 45.4494C47.7966 43.5382 48.4183 41.8088 49.4582 40.7642C50.7529 39.5866 52.4466 38.9551 54.1897 39C55.924 38.9459 57.6102 39.5793 58.8866 40.7642" fill="#05446B"/>
<path d="M60.8859 49.2641H61.6534C61.7912 49.2576 61.9292 49.2693 62.064 49.299C62.0176 49.1663 61.9993 49.0252 62.0103 48.885V41.9713C61.9906 41.833 61.9997 41.692 62.0371 41.5574C61.903 41.5924 61.7651 41.6106 61.6265 41.6115H60.8591V39.4333H66.5192L69.1094 44.9078C69.5942 45.9009 70.0184 46.9228 70.3796 47.9681L70.4487 47.9487C70.3237 46.8495 70.2699 45.7432 70.2875 44.637V41.9713C70.2758 41.8307 70.2954 41.6893 70.3451 41.5574C70.2096 41.5925 70.0704 41.6106 69.9306 41.6115H69.002V39.4333H74.2208V41.6115H73.4533C73.3237 41.6099 73.1947 41.5917 73.0696 41.5574C73.0995 41.6932 73.1111 41.8324 73.1041 41.9713V51.4462H68.8562L65.8515 45.1593C65.3713 44.1724 64.9548 43.1554 64.6043 42.1145H64.5314C64.6569 43.2149 64.7107 44.3225 64.6926 45.4301V48.9043C64.7036 49.0446 64.6853 49.1856 64.6389 49.3183C64.7737 49.2888 64.9117 49.2771 65.0495 49.2835H65.9973V51.4655H60.8859V49.2641Z" fill="#05446B"/>
<path d="M74.8578 47.2639H77.8394C77.8203 48.1499 77.9085 48.5986 78.2232 48.9236C78.4388 49.1218 78.6923 49.2734 78.9681 49.3692C79.244 49.465 79.5363 49.5029 79.8272 49.4807C80.8288 49.4807 81.4543 49.0126 81.4543 48.2543C81.4705 48.0807 81.4196 47.9075 81.3123 47.7707C81.0782 47.4999 80.257 47.1053 79.2017 46.7803C77.7742 46.3315 76.4004 45.7163 75.8824 45.2869C75.5346 44.9899 75.2599 44.6154 75.0802 44.1931C74.9004 43.7708 74.8203 43.3122 74.8463 42.8534C74.8463 40.5862 76.4695 39.1625 79.1135 39.1625C79.6755 39.1249 80.2384 39.2209 80.7569 39.4427C81.2754 39.6644 81.7351 40.0057 82.0989 40.4392H82.1335C82.0688 40.259 82.0326 40.0697 82.026 39.8782V39.4333H84.7122V43.3022H81.9071C81.8533 42.5826 81.7306 42.1686 81.4619 41.8629C81.2573 41.6712 81.0147 41.5252 80.7502 41.4346C80.4857 41.3439 80.2052 41.3106 79.927 41.3368C78.8564 41.3368 78.3383 41.7237 78.3383 42.4549C78.332 42.5737 78.3529 42.6925 78.3995 42.8019C78.4461 42.9112 78.5171 43.0083 78.6069 43.0855C78.9271 43.3025 79.2758 43.4731 79.643 43.5923L80.445 43.8593L81.2509 44.1494L82.0529 44.4164C82.9508 44.682 83.7643 45.1794 84.4129 45.8595C84.8245 46.475 85.0302 47.207 85 47.9487C85 50.3435 83.4113 51.7286 80.6599 51.7286C79.267 51.7286 78.1426 51.2798 77.59 50.4673H77.5171C77.5977 50.6496 77.6457 50.8447 77.6591 51.0438V51.4306H74.8578V47.2639Z" fill="#05446B"/>
<path d="M15.3861 55.4194H17.6809V55.9495H16.4337V56.4718H17.6195V57.0018H16.4337V57.9342H15.3861V55.4194Z" fill="#05446B"/>
<path d="M18.6748 55.4194H21.0654V55.9495H19.6878V56.4137H20.9772V56.9438H19.6878V57.4042H21.077V57.9342H18.6748V55.4194Z" fill="#05446B"/>
<path d="M23.1837 57.3655H23.4715C23.9473 57.3655 24.239 57.1488 24.239 56.6768C24.239 56.2048 23.9512 55.992 23.4715 55.992H23.1837V57.3655ZM22.1322 55.431H23.4676C24.2044 55.431 24.6803 55.4968 25.0026 55.845C25.2126 56.0828 25.3227 56.3935 25.3096 56.7116C25.3196 56.8771 25.2942 57.0429 25.2353 57.1977C25.1764 57.3526 25.0853 57.4929 24.9681 57.6092C24.6764 57.8491 24.4001 57.9458 23.6288 57.9458H22.1284L22.1322 55.431Z" fill="#05446B"/>
<path d="M26.3533 55.4194H28.7479V55.9495H27.3703V56.4137H28.6596V56.9438H27.3703V57.4042H28.7594V57.9342H26.3533V55.4194Z" fill="#05446B"/>
<path d="M30.8623 56.5337H31.2652C31.4878 56.5337 31.6489 56.464 31.6489 56.228C31.6489 55.992 31.4916 55.9301 31.2345 55.9301H30.8508L30.8623 56.5337ZM29.8032 55.4194H31.5799C32.2629 55.4194 32.6812 55.5548 32.6812 56.112C32.6818 56.261 32.627 56.4049 32.5275 56.5152C32.4281 56.6255 32.2912 56.6942 32.144 56.7078V56.7426C32.3857 56.7426 32.5853 56.8354 32.6275 57.0908L32.7618 57.9342H31.7219L31.6374 57.3732C31.5875 57.0637 31.5453 57.0211 31.1846 57.0211H30.8661V57.9342H29.8032V55.4194Z" fill="#05446B"/>
<path d="M35.6935 56.967L35.3098 56.0887L34.903 56.967H35.6935ZM34.6958 55.4194H36.0044L37.2784 57.9342H36.1272L35.943 57.5164H34.6498L34.4541 57.9342H33.4256L34.6958 55.4194Z" fill="#05446B"/>
<path d="M38.0919 55.4194H39.1433V57.319H40.2907V57.9342H38.0919V55.4194Z" fill="#05446B"/>
<path d="M45.1527 56.3519C45.1258 56.0424 44.9953 55.9031 44.7114 55.9031C44.3046 55.9031 44.1665 56.259 44.1665 56.6769C44.1665 57.0947 44.3046 57.4506 44.7114 57.4506C44.7758 57.4607 44.8417 57.4555 44.9038 57.4356C44.9659 57.4157 45.0227 57.3815 45.0695 57.3358C45.1163 57.2901 45.152 57.234 45.1738 57.1721C45.1955 57.1101 45.2028 57.0439 45.1949 56.9786H46.2655C46.2747 57.0936 46.2596 57.2093 46.2213 57.318C46.1829 57.4267 46.1221 57.526 46.0429 57.6093C45.6695 57.8945 45.2054 58.0321 44.7382 57.9961C43.4873 57.9961 43.0728 57.4777 43.0728 56.673C43.0728 56.0772 43.3376 55.3498 44.7382 55.3498C45.1895 55.3017 45.6429 55.4184 46.0161 55.6787C46.1696 55.8257 46.2233 55.9805 46.2233 56.348L45.1527 56.3519Z" fill="#05446B"/>
<path d="M48.3185 56.5337H48.7022C48.9286 56.5337 49.086 56.464 49.086 56.228C49.086 55.992 48.9248 55.9301 48.6715 55.9301H48.2878L48.3185 56.5337ZM47.2671 55.4194H49.0438C49.723 55.4194 50.1451 55.5548 50.1451 56.112C50.1457 56.261 50.0909 56.4049 49.9914 56.5152C49.892 56.6255 49.7551 56.6942 49.6079 56.7078V56.7426C49.8496 56.7426 50.0492 56.8354 50.0914 57.0908L50.2257 57.9342H49.1742L49.0898 57.3732C49.0399 57.0637 48.9939 57.0211 48.637 57.0211H48.3185V57.9342H47.2671V55.4194Z" fill="#05446B"/>
<path d="M51.2349 55.4194H53.6294V55.9495H52.2518V56.4137H53.5412V56.9438H52.2518V57.4042H53.6409V57.9342H51.2349V55.4194Z" fill="#05446B"/>
<path d="M55.7438 57.3655H56.0355C56.5113 57.3655 56.8029 57.1488 56.8029 56.6768C56.8029 56.2048 56.5151 55.992 56.0355 55.992H55.7438V57.3655ZM54.6924 55.431H56.0316C56.7646 55.431 57.2442 55.4968 57.5858 55.845C57.7944 56.0833 57.9031 56.3941 57.8889 56.7116C57.8994 56.8769 57.8747 57.0424 57.8164 57.1973C57.7582 57.3521 57.6678 57.4925 57.5512 57.6092C57.2558 57.8491 56.9795 57.9458 56.2082 57.9458H54.6732L54.6924 55.431Z" fill="#05446B"/>
<path d="M59.9496 55.4194H58.8982V57.9342H59.9496V55.4194Z" fill="#05446B"/>
<path d="M61.6726 56.0307H60.8552V55.4194H63.5414V56.0307H62.724V57.9342H61.6726V56.0307Z" fill="#05446B"/>
<path d="M66.4271 55.4194H67.444V56.7968C67.444 57.2804 67.609 57.4312 67.9275 57.4312C68.246 57.4312 68.411 57.2804 68.411 56.7968V55.4194H69.4049V56.8896C69.4215 57.0222 69.4088 57.1569 69.3677 57.284C69.3266 57.4111 69.258 57.5275 69.167 57.6247C68.7943 57.8678 68.3599 57.9972 67.916 57.9972C67.4721 57.9972 67.0377 57.8678 66.665 57.6247C66.574 57.5275 66.5054 57.4111 66.4643 57.284C66.4232 57.1569 66.4105 57.0222 66.4271 56.8896V55.4194Z" fill="#05446B"/>
<path d="M70.487 55.4194H72.0258L72.8662 57.1063H72.8739V55.4194H73.791V57.9342H72.2983L71.408 56.1429H71.4003V57.9342H70.487V55.4194Z" fill="#05446B"/>
<path d="M75.9515 55.4194H74.9V57.9342H75.9515V55.4194Z" fill="#05446B"/>
<path d="M78.6261 55.9263C78.2808 55.9263 78.0275 56.1623 78.0275 56.6769C78.0275 57.1915 78.2808 57.4507 78.6261 57.4507C78.9715 57.4507 79.2248 57.2147 79.2248 56.6769C79.2248 56.1391 78.9715 55.9263 78.6261 55.9263ZM79.9692 57.5667C79.5942 57.8814 79.1126 58.0367 78.6261 58C77.4058 58 76.9569 57.4313 76.9569 56.6769C76.9463 56.4765 76.9845 56.2766 77.0681 56.0945C77.1517 55.9125 77.2782 55.7538 77.4365 55.6323C77.7917 55.4097 78.21 55.3117 78.6261 55.3537C79.8464 55.3537 80.2954 55.9263 80.2954 56.6769C80.3046 56.8399 80.2804 57.003 80.2242 57.1561C80.1681 57.3092 80.0813 57.449 79.9692 57.5667Z" fill="#05446B"/>
<path d="M81.2854 55.4194H82.8204L83.6608 57.1063H83.6723V55.4194H84.5856V57.9342H83.0967L82.2064 56.1429H82.1987V57.9342H81.2854V55.4194Z" fill="#05446B"/>
<path d="M15.1789 53.5005H84.7544" stroke="#F99D31" stroke-width="1.32" stroke-miterlimit="10"/>
</g>
<defs>
<clipPath id="clip0_1_6622">
<rect width="74" height="19" fill="white" transform="translate(11 39)"/>
</clipPath>
</defs>
</svg>
