<svg width="96" height="96" viewBox="0 0 96 96" fill="none" xmlns="http://www.w3.org/2000/svg">
<circle cx="48" cy="48" r="47" fill="white" stroke="white" stroke-width="2"/>
<path d="M27.3326 37.5813C27.0577 37.4487 26.6253 37.3536 26.1928 37.3536C25.7142 37.3536 25.2818 37.6188 25.2818 38.0561V39.3467H27.7651L27.2413 41.51H25.2818V49.1405H21.3185V41.51H20V39.3467H21.3185C21.2513 39.0046 21.2513 38.5491 21.2513 38.1695C21.2513 35.3412 23.8691 35 25.35 35C26.5571 35 27.3999 35.1144 28.2657 35.5122L27.3326 37.5813ZM38.5958 40.5269H37.6569V42.7507H38.615C39.7625 42.7507 40.1565 42.2971 40.1565 41.56C40.1565 40.7777 39.6481 40.5269 38.5958 40.5269ZM40.5697 49.1405L39.1983 46.0864C38.6909 44.9591 38.3901 44.8178 37.6569 44.8178V49.1405H34.2933V38.2243H38.8034C42.6561 38.2243 43.8968 39.5245 43.8968 41.3418C43.8968 43.2206 42.7128 44.1768 41.1713 44.395C41.623 44.5045 42.1679 45.0052 42.4869 45.5693C43.1614 46.7504 43.8191 47.9409 44.4599 49.1405H40.5697ZM49.8532 49.3289C47.8802 49.3289 46.3387 48.9214 45.0231 48.3419L46.208 46.1498C47.1469 46.6034 48.5558 47.0262 49.8907 47.0262C51.2073 47.0262 51.732 46.6197 51.732 46.0239C51.732 45.5395 51.3187 45.3195 50.4173 45.1302L48.8758 44.8024C46.9778 44.3959 45.6814 43.5185 45.6814 41.6388C45.6814 39.4765 47.8245 38.0369 50.7556 38.0369C52.5786 38.0369 54.2691 38.429 55.4358 39.1026L53.8184 41.091C52.9352 40.6057 51.7714 40.3241 50.868 40.3241C50.0031 40.3241 49.5332 40.6681 49.5332 41.1073C49.5332 41.4667 49.8349 41.8271 50.8123 42.0299L52.1462 42.3124C53.556 42.6104 55.5847 43.1428 55.5847 45.3349C55.5847 47.9508 53.2542 49.3289 49.8532 49.3289ZM65.6389 40.5432H62.5944V49.1405H59.1924V40.5422H56.1488V38.2243H66.0329L65.6389 40.5432ZM28.7213 39.9551V49.1405H32.1944V37.7562L28.7213 39.9551Z" fill="black"/>
<path d="M21.3223 58.4485H20.6745V57.7815H21.3223V57.3375C21.3223 56.4678 21.5183 55.8979 22.4928 55.8979C22.6629 55.8979 22.8263 55.9114 22.9896 55.9441L22.9377 56.611C22.8306 56.5833 22.7206 56.5681 22.61 56.5658C22.1728 56.5658 22.1074 56.8657 22.1074 57.2126V57.7815H22.833V58.4485H22.1074V60.9202H21.3223V58.4485ZM23.4538 57.7815H24.239V60.9202H23.4538V57.7815ZM23.8392 56.2458C24.1265 56.2458 24.3495 56.4476 24.3495 56.7167C24.3495 56.9839 24.1265 57.1867 23.8392 57.1867C23.5518 57.1867 23.3423 56.9647 23.3423 56.7167C23.3423 56.4678 23.5518 56.2458 23.8392 56.2458ZM25.1404 57.7815H25.9256V58.2793H25.938C26.041 58.0592 26.2206 57.8841 26.4433 57.7868C26.666 57.6895 26.9165 57.6767 27.148 57.7508V58.5081C27.0243 58.4735 26.8968 58.4541 26.7684 58.4504C26.0303 58.4504 25.9256 59.0703 25.9256 59.2404V60.9222H25.1404V57.7815ZM29.3574 58.6513C29.2907 58.5499 29.1991 58.4672 29.0915 58.4112C28.9838 58.3552 28.8636 58.3277 28.7423 58.3312C28.5338 58.3312 28.2849 58.4293 28.2849 58.6638C28.2849 59.2269 29.9782 58.7695 29.9782 59.9919C29.9782 60.7367 29.267 60.999 28.6251 60.999C28.1417 60.999 27.7227 60.8741 27.4026 60.5147L27.9254 60.0246C28.1282 60.2466 28.3387 60.4099 28.6702 60.4099C28.9009 60.4099 29.194 60.2994 29.194 60.0505C29.194 59.4037 27.5007 59.9131 27.5007 58.7166C27.5007 58.017 28.1282 57.7037 28.7625 57.7037C29.1805 57.7037 29.6255 57.8334 29.8802 58.1804L29.3574 58.6513ZM30.2204 58.4485V57.7815H30.8681V56.8724H31.6523V57.7815H32.5153V58.4485H31.6523V59.8227C31.6523 60.136 31.7436 60.3321 32.0905 60.3321C32.2279 60.3321 32.4173 60.3052 32.5153 60.2341V60.8943C32.3519 60.9721 32.0771 61 31.8945 61C31.0641 61 30.8681 60.6262 30.8681 59.8871V58.4485H30.2204ZM35.3474 58.4485H34.6987V57.7815H35.3464V57.3375C35.3464 56.4678 35.5425 55.8979 36.517 55.8979C36.6871 55.8979 36.8504 55.9114 37.0138 55.9441L36.9619 56.611C36.8551 56.5834 36.7455 56.5682 36.6352 56.5658C36.197 56.5658 36.1316 56.8657 36.1316 57.2126V57.7815H36.8572V58.4485H36.1316V60.9202H35.3464L35.3474 58.4485ZM37.478 57.7815H38.2631V60.9202H37.478V57.7815ZM37.8643 56.2458C38.1517 56.2458 38.3737 56.4476 38.3737 56.7167C38.3737 56.9839 38.1517 57.1867 37.8643 57.1867C37.576 57.1867 37.3665 56.9647 37.3665 56.7167C37.3665 56.4678 37.576 56.2458 37.8643 56.2458ZM39.1646 57.7815H39.9103V58.2851H39.9228C40.067 57.9709 40.3611 57.7037 40.8848 57.7037C41.7276 57.7037 42.0284 58.2995 42.0284 58.9386V60.9202H41.2442V59.3317C41.2442 58.9857 41.2173 58.4091 40.6686 58.4091C40.1516 58.4091 39.9497 58.7887 39.9497 59.2067V60.9202H39.1646V57.7815ZM44.8337 59.5152H44.6703C44.2388 59.5152 43.493 59.5479 43.493 59.9986C43.493 60.2869 43.7881 60.4099 44.0427 60.4099C44.579 60.4099 44.8337 60.1293 44.8337 59.6911V59.5152ZM44.8788 60.4878H44.8596C44.6376 60.8414 44.2715 60.999 43.8534 60.999C43.271 60.999 42.7088 60.679 42.7088 60.0582C42.7088 59.0376 43.8986 58.9655 44.6837 58.9655H44.8788V58.8809C44.8788 58.4965 44.579 58.2928 44.16 58.2928C43.8332 58.2928 43.5324 58.4235 43.3229 58.6195L42.9116 58.2073C43.2576 57.8546 43.7487 57.7047 44.2455 57.7047C45.5861 57.7047 45.5861 58.6714 45.5861 59.1174V60.9193H44.8788V60.4878ZM46.3309 57.7815H47.0767V58.2851H47.0892C47.2333 57.9709 47.5274 57.7037 48.0512 57.7037C48.894 57.7037 49.1948 58.2995 49.1948 58.9386V60.9202H48.4106V59.3317C48.4106 58.9857 48.3837 58.4091 47.8349 58.4091C47.3179 58.4091 47.1161 58.7887 47.1161 59.2067V60.9202H46.3309V57.7815ZM52.1307 58.7233C51.9481 58.534 51.7453 58.41 51.5349 58.41C50.9602 58.41 50.6123 58.8608 50.6123 59.3509C50.6123 59.841 50.9602 60.2927 51.5349 60.2927C51.778 60.2927 52 60.1879 52.1432 59.9986L52.6669 60.5608C52.346 60.8808 51.8097 60.999 51.5358 60.999C50.5873 60.999 49.829 60.3388 49.829 59.3509C49.829 58.3639 50.5873 57.7037 51.5358 57.7037C51.9346 57.7037 52.3719 57.8478 52.6737 58.1804L52.1307 58.7233ZM53.1503 57.7815H53.9355V60.9202H53.1503V57.7815ZM53.5367 56.2458C53.824 56.2458 54.046 56.4476 54.046 56.7167C54.046 56.9839 53.824 57.1867 53.5367 57.1867C53.2484 57.1867 53.0389 56.9647 53.0389 56.7167C53.0389 56.4678 53.2484 56.2458 53.5367 56.2458ZM56.7532 59.5152H56.5898C56.1574 59.5152 55.4126 59.5479 55.4126 59.9986C55.4126 60.2869 55.7076 60.4099 55.9623 60.4099C56.4985 60.4099 56.7532 60.1293 56.7532 59.6911V59.5152ZM56.7993 60.4878H56.7792C56.5572 60.8414 56.191 60.999 55.773 60.999C55.1906 60.999 54.6284 60.679 54.6284 60.0582C54.6284 59.0376 55.8181 58.9655 56.6033 58.9655H56.7993V58.8809C56.7993 58.4965 56.4985 58.2928 56.0786 58.2928C55.7518 58.2928 55.452 58.4235 55.2425 58.6195L54.8312 58.2073C55.1771 57.8546 55.6673 57.7047 56.1651 57.7047C57.5057 57.7047 57.5057 58.6714 57.5057 59.1174V60.9193H56.7993V60.4878ZM58.361 60.9202H59.1462V55.9767H58.361V60.9202ZM63.6639 58.4091C63.0883 58.4091 62.7413 58.8608 62.7413 59.3509C62.7413 59.841 63.0883 60.2927 63.6639 60.2927C64.2396 60.2927 64.5865 59.841 64.5865 59.3509C64.5865 58.8608 64.2396 58.4091 63.6639 58.4091ZM61.9831 55.9777H62.7682V58.1794H62.7884C62.9508 57.9776 63.2651 57.7018 63.8532 57.7018C64.7489 57.7018 65.3707 58.4216 65.3707 59.3499C65.3707 60.2792 64.7883 60.999 63.8206 60.999C63.3833 60.999 62.971 60.8289 62.7413 60.4503H62.7288V60.9212H61.9831V55.9777ZM67.953 59.5152H67.7896C67.3581 59.5152 66.6123 59.5479 66.6123 59.9986C66.6123 60.2869 66.9074 60.4099 67.162 60.4099C67.6983 60.4099 67.953 60.1293 67.953 59.6911V59.5152ZM67.9991 60.4878H67.9799C67.7559 60.8414 67.3898 60.999 66.9718 60.999C66.3894 60.999 65.8281 60.679 65.8281 60.0582C65.8281 59.0376 67.0169 58.9655 67.8021 58.9655H67.9981V58.8809C67.9981 58.4965 67.6973 58.2928 67.2783 58.2928C66.9516 58.2928 66.6508 58.4235 66.4422 58.6195L66.0299 58.2073C66.3759 57.8546 66.867 57.7047 67.3638 57.7047C68.7045 57.7047 68.7045 58.6714 68.7045 59.1174V60.9193H67.9981L67.9991 60.4878ZM69.5482 57.7815H70.294V58.2851H70.3065C70.4506 57.9709 70.7447 57.7037 71.2685 57.7037C72.1113 57.7037 72.4121 58.2995 72.4121 58.9386V60.9202H71.6269V59.3317C71.6269 58.9857 71.601 58.4091 71.0522 58.4091C70.5352 58.4091 70.3334 58.7887 70.3334 59.2067V60.9202H69.5482V57.7815ZM73.302 55.9777H74.0872V59.0837L75.2961 57.7825H76.3033L74.9559 59.2077L76.3878 60.9212H75.348L74.0987 59.3192H74.0872V60.9212H73.302V55.9777Z" fill="#0082C6"/>
</svg>
