<svg width="96" height="96" viewBox="0 0 96 96" fill="none" xmlns="http://www.w3.org/2000/svg">
<circle cx="48" cy="48" r="47" fill="white" stroke="white" stroke-width="2"/>
<g clip-path="url(#clip0_1_4355)">
<path d="M84.6334 50.6534C84.6334 49.9983 85.1758 49.4741 85.8167 49.4741C86.4741 49.4741 87 50.0146 87 50.6534C87 51.3086 86.4577 51.8327 85.8167 51.8327C85.1593 51.8327 84.6334 51.2922 84.6334 50.6534ZM85.8167 51.6526C86.3755 51.6526 86.8193 51.1939 86.8193 50.6534C86.8193 50.0965 86.3591 49.6543 85.8167 49.6543C85.2579 49.6543 84.8142 50.1129 84.8142 50.6534C84.7978 51.1939 85.2579 51.6526 85.8167 51.6526ZM85.373 49.9983H85.7839C86.014 49.9983 86.2933 50.031 86.2933 50.4077C86.2933 50.6371 86.1619 50.6698 86.0797 50.7189L86.3098 51.2595H86.0633L85.866 50.7517H85.5866V51.2595H85.3566V49.9983H85.373ZM85.5866 50.5388H85.866C85.9646 50.5388 86.0633 50.4896 86.0633 50.375C86.0633 50.2603 85.9811 50.2112 85.8496 50.2112H85.5866V50.5388Z" fill="#0066B3"/>
<path d="M80.7712 60.3665H12.2048V60.5958H80.7712V60.3665Z" fill="#F8971D"/>
<path d="M24.1858 63.1837C24.6131 63.1837 24.9089 63.413 25.0897 63.7242L24.7939 63.9535C24.646 63.7242 24.4488 63.5604 24.1694 63.5604C23.2983 63.5604 22.7395 64.576 22.7395 65.4768C22.7395 66.1484 23.0189 66.6234 23.6763 66.6234C23.9722 66.6234 24.2187 66.4923 24.4652 66.2958L24.6624 66.5742C24.3995 66.8035 24.0543 67.0001 23.6106 67.0001C22.7724 67.0001 22.2958 66.3941 22.2958 65.5096C22.2794 64.363 23.0354 63.1837 24.1858 63.1837Z" fill="#1268B3"/>
<path d="M28.3439 63.2493C29.0341 63.2493 29.4943 63.495 29.4943 64.101C29.4943 64.7725 29.0341 65.1984 28.4096 65.3294L29.0506 66.9346H28.5904L27.9823 65.3786H27.3413L27.0291 66.9346H26.5853L27.3249 63.2656H28.3439V63.2493ZM27.9659 65.0182C28.6726 65.0182 29.0506 64.6906 29.0506 64.1665C29.0506 63.757 28.7712 63.5932 28.2288 63.5932H27.6865L27.4071 65.0182H27.9659Z" fill="#1268B3"/>
<path d="M31.7951 63.2493H33.833L33.7673 63.6096H32.1567L31.9266 64.8053H33.2743L33.1921 65.182H31.8444L31.565 66.5579H33.2249L33.1428 66.9346H31.0555L31.7951 63.2493Z" fill="#1268B3"/>
<path d="M35.9861 63.2493H36.6763C37.6953 63.2493 38.2377 63.7734 38.2377 64.6906C38.2377 66.0174 37.4981 66.9346 36.249 66.9346H35.2629L35.9861 63.2493ZM36.2326 66.5743C37.1858 66.5743 37.7775 65.8044 37.7775 64.7234C37.7775 64.0355 37.383 63.6096 36.6435 63.6096H36.3476L35.756 66.5743H36.2326Z" fill="#1268B3"/>
<path d="M40.6535 63.2493H41.0973L40.3577 66.9182H39.9139L40.6535 63.2493Z" fill="#1268B3"/>
<path d="M44.0884 63.626H43.0201L43.0859 63.2493H45.6662L45.6004 63.626H44.5322L43.8748 66.9346H43.431L44.0884 63.626Z" fill="#1268B3"/>
<path d="M50.8267 63.2493H51.2705L50.8431 65.3458C50.8103 65.5096 50.7938 65.657 50.7938 65.7881C50.7938 66.3122 51.0239 66.607 51.5334 66.607C51.9607 66.607 52.3223 66.2958 52.4702 65.4933L52.9304 63.2329H53.3577L52.8975 65.5096C52.6839 66.5743 52.1744 66.9838 51.517 66.9838C50.7774 66.9838 50.3501 66.5907 50.3501 65.8208C50.3501 65.657 50.3665 65.4769 50.3994 65.2967L50.8267 63.2493Z" fill="#1268B3"/>
<path d="M55.6586 63.2493H56.1023L56.9405 65.6079L57.1706 66.3777H57.187C57.2363 66.0174 57.2692 65.5915 57.3514 65.1984L57.7458 63.2493H58.1731L57.4336 66.9182H57.0063L56.1681 64.576L55.9216 63.7898H55.9051C55.8558 64.1665 55.8065 64.576 55.7243 64.9527L55.3299 66.9346H54.9026L55.6586 63.2493Z" fill="#1268B3"/>
<path d="M60.4904 63.2493H60.9342L60.1946 66.9182H59.7509L60.4904 63.2493Z" fill="#1268B3"/>
<path d="M62.6599 65.4604C62.6599 64.3466 63.3995 63.1837 64.4513 63.1837C65.2731 63.1837 65.7332 63.7898 65.7332 64.7234C65.7332 65.8535 64.9937 67.0001 63.9418 67.0001C63.1037 67.0001 62.6599 66.3941 62.6599 65.4604ZM63.1037 65.4277C63.1037 66.1484 63.3666 66.6234 63.9583 66.6234C64.7471 66.6234 65.2895 65.6242 65.2895 64.7561C65.2895 64.0354 65.0265 63.5604 64.4349 63.5604C63.646 63.5604 63.1037 64.5596 63.1037 65.4277Z" fill="#1268B3"/>
<path d="M68.1656 63.2493H68.6093L69.4475 65.6079L69.6776 66.3777H69.694C69.7433 66.0174 69.7762 65.5915 69.8583 65.1984L70.2528 63.2493H70.6801L69.9405 66.9182H69.5132L68.675 64.576L68.4285 63.7898H68.4121C68.3628 64.1665 68.3135 64.576 68.2313 64.9527L67.8369 66.9346H67.4095L68.1656 63.2493Z" fill="#1268B3"/>
<path d="M36.512 34.6837C37.3502 34.4053 38.1391 34.0777 38.9773 33.7992C44.9596 31.6863 52.1581 29.3768 68.4943 29.5406C52.8483 28.1975 44.7131 29.5734 38.9773 31.2768C36.66 31.9648 34.7371 32.7346 32.8799 33.3898C25.3856 36.076 17.7598 38.8277 9.46021 38.1889C20.2579 38.9096 29.4286 37.1406 36.512 34.6837Z" fill="url(#paint0_linear_1_4355)"/>
<path d="M38.9772 40.6294C38.402 40.744 37.8267 40.8587 37.2515 40.9406C25.9279 43.0535 17.5625 45.1665 9.9696 44.413C19.847 45.494 27.9658 44.1837 38.3691 42.5294C38.5663 42.4639 38.7635 42.4475 38.9772 42.4147C50.0872 40.6458 63.6953 38.4182 82.2667 39.5156C63.8761 36.3872 50.8432 38.4182 38.9772 40.6294Z" fill="url(#paint1_linear_1_4355)"/>
<path d="M38.8293 38.9095C38.8622 38.8767 38.9115 38.8767 38.9772 38.844C49.9558 36.7638 58.0089 34.0448 78.4045 34.7C55.5929 32.0793 46.8824 34.7328 38.9772 36.8949C38.5499 37.0095 38.1226 37.1242 37.6625 37.2388C26.4539 40.2199 16.9052 42.1035 9 41.5138C19.3211 42.4474 27.9659 40.9569 38.8293 38.9095Z" fill="url(#paint2_linear_1_4355)"/>
<path d="M54.1302 42.0379C55.593 41.35 57.22 40.8914 59.488 41.1207C60.4412 41.3991 62.2326 42.1853 62.89 43.0371C64.1555 42.644 65.2731 42.0871 67.3932 42.1526C70.0557 43.5284 71.8635 45.1172 73.7042 46.7224C71.6991 46.6405 68.8559 45.4448 67.2617 44.4457C67.1138 44.331 65.7662 44.8388 64.9937 44.6422C65.2238 45.1336 68.8395 46.2638 69.0367 46.7552C67.6562 47.6069 66.6372 47.0172 65.2238 47.9017C65.6018 46.8371 63.6789 46.706 64.0569 45.6741C62.8243 45.7233 61.3616 45.9526 60.4412 44.1345C60.0632 43.9871 59.8332 43.9871 59.5866 43.9871C59.6524 43.594 60.507 43.25 61.0165 43.3319C60.6385 43.2991 58.8635 42.3819 58.4691 42.3655C56.5462 42.2017 55.2807 42.4638 54.1302 42.0379Z" fill="#0066B3"/>
<path d="M37.2516 50.326L37.0873 50.7518C36.3148 52.488 35.8218 53.7001 35.6246 54.3553C35.3945 55.0104 35.2794 55.551 35.2794 56.0423C35.2794 56.4682 35.4767 56.6975 35.904 56.763C36.1341 56.763 36.2491 56.8449 36.2491 56.9268C36.2491 57.0087 36.2162 57.0742 36.1341 57.0906C36.0519 57.1234 35.8218 57.1397 35.4438 57.1397C35.0658 57.1397 34.6056 57.2053 34.0961 57.3035C33.5867 57.3854 33.1758 57.5001 32.9457 57.582C32.8306 57.6311 32.7156 57.6639 32.6334 57.6639C32.4362 57.6639 32.3212 57.4673 32.3212 57.0578C32.3212 56.2225 32.6663 54.9449 33.3237 53.2251C33.4059 52.963 33.8332 51.9966 34.5892 50.2768C34.3098 50.3096 34.0797 50.326 33.8496 50.326C33.7346 50.326 33.6853 50.2932 33.6853 50.2113C33.6853 50.0966 33.7346 49.9492 33.8332 49.8673C33.8825 49.8018 34.0633 49.7854 34.3262 49.7527C34.4906 49.7527 34.6714 49.7527 34.8193 49.7199C35.2137 48.6389 35.5917 47.9182 35.9368 47.5251C36.282 47.1811 36.7093 46.9027 37.2845 46.6897C37.8269 46.4604 38.4349 46.3785 39.0266 46.3785C39.6511 46.3785 40.177 46.526 40.5222 46.8372C40.7851 47.0337 40.9002 47.2958 40.9002 47.5579C40.9002 47.7544 40.8509 47.9346 40.703 48.0656C40.555 48.213 40.3907 48.2622 40.1606 48.2622C39.9963 48.2622 39.8483 48.2294 39.7004 48.1147C39.5854 48.0329 39.5032 47.8854 39.5032 47.7708C39.5032 47.6889 39.5525 47.5742 39.6511 47.3941C39.684 47.3122 39.7004 47.2303 39.7004 47.1975C39.7004 47.1156 39.6511 47.0337 39.5525 46.9682C39.4703 46.9191 39.3553 46.8863 39.2403 46.8863C38.9773 46.8863 38.7801 46.9682 38.6157 47.1484C38.4514 47.3122 38.3035 47.5742 38.1227 47.9837C37.9748 48.2949 37.7776 48.901 37.4653 49.7527C37.7447 49.7854 37.9748 49.7854 38.1227 49.7854C38.6322 49.7854 38.9773 49.7199 39.191 49.6216C39.2731 49.5725 39.306 49.5397 39.3553 49.5397C39.4375 49.5397 39.5032 49.6216 39.5032 49.7691C39.5032 50.0475 39.306 50.2277 38.8951 50.2604C38.7308 50.2932 38.3856 50.3096 37.9255 50.3096C37.6789 50.3423 37.4489 50.326 37.2516 50.326Z" fill="#0066B3"/>
<path d="M30.0367 46.7552C30.1517 46.7552 30.2668 46.7879 30.349 46.7879C30.7434 46.7879 31.2036 46.7552 31.6966 46.706C32.1897 46.6405 32.5348 46.5914 32.732 46.5422C32.9292 46.4767 33.11 46.4603 33.2251 46.4603C33.4223 46.4603 33.5373 46.6569 33.5373 47.0008C33.5373 47.5414 33.373 48.2621 33.0279 49.1629C32.9457 49.425 32.5184 50.4405 31.7459 52.2422C30.9735 54.0439 30.5955 55.4198 30.5955 56.3534C30.5955 56.4026 30.5955 56.5172 30.6284 56.6319V56.9103C30.6284 57.025 30.5955 57.1069 30.4804 57.1396C30.3983 57.1724 30.0531 57.2215 29.4779 57.3034C29.215 57.3689 28.7876 57.4672 28.2453 57.6474C28.1631 57.6802 28.0809 57.6965 27.9823 57.6965C27.8344 57.6965 27.7523 57.6474 27.7194 57.5491C27.6701 57.4345 27.6372 57.2707 27.6372 56.9758C27.6372 56.3534 27.8016 55.6 28.0974 54.7155C28.4096 53.7983 29.0999 52.1767 30.1353 49.7526C30.5626 48.7862 30.7598 48.131 30.7598 47.7543C30.7598 47.525 30.6777 47.3612 30.4804 47.2465C30.4476 47.181 30.2175 47.1319 29.8559 47.05C29.7737 47.0172 29.7409 46.9845 29.7409 46.9026C29.7244 46.8043 29.8066 46.7552 30.0367 46.7552Z" fill="#0066B3"/>
<path d="M23.7586 55.7147C23.1505 56.3699 22.5588 56.8612 21.9178 57.2052C21.3098 57.5492 20.751 57.7457 20.2251 57.7457C19.6498 57.7457 19.1897 57.5492 18.8774 57.2052C18.6144 56.9431 18.4994 56.6319 18.4994 56.288C18.4994 55.9768 18.5487 55.6328 18.6966 55.2888C18.8445 54.9121 19.1568 54.2897 19.617 53.4052C20.3401 52.0621 20.7017 51.2104 20.7017 50.8664C20.7017 50.5224 20.4387 50.3587 19.9292 50.2931C19.732 50.2604 19.6498 50.2112 19.6498 50.0966C19.6498 49.9819 19.732 49.9328 19.9128 49.9328C20.1429 49.9655 20.3401 49.9655 20.4551 49.9655C21.4248 49.9655 22.1479 49.8837 22.6081 49.7362C22.8382 49.6543 23.0026 49.6216 23.1176 49.6216C23.3477 49.6216 23.4627 49.7854 23.4627 50.1293C23.4627 50.4733 23.3477 50.9811 23.0847 51.6362C22.8218 52.2587 22.3452 53.3233 21.622 54.7483C21.2769 55.4035 21.1125 55.8293 21.1125 56.0259C21.1125 56.3043 21.2769 56.4518 21.5727 56.4518C22 56.4518 22.5259 56.1405 23.1505 55.5673C23.7586 54.9612 24.3009 54.2569 24.7775 53.4052C25.5007 52.1768 25.8458 51.1776 25.8129 50.4897C25.8129 50.2604 25.8458 50.0966 25.8951 50.0311C25.9773 49.9492 26.1252 49.9164 26.3224 49.9164C26.8976 49.9164 27.3249 49.8509 27.6043 49.769C27.8837 49.6871 28.0974 49.6543 28.2288 49.6543C28.4261 49.6543 28.5082 49.8018 28.5082 50.1457C28.5082 50.5224 28.4589 50.8828 28.3439 51.2268C28.196 51.5707 27.8015 52.488 27.1113 53.913C26.799 54.6009 26.6018 55.0759 26.5032 55.3707C26.3881 55.6492 26.3388 55.9112 26.3388 56.1405C26.3388 56.4845 26.5032 56.6811 26.8483 56.7466C27.0784 56.7957 27.2263 56.8612 27.2756 56.894C27.3249 56.894 27.3578 56.9431 27.3578 57.0087C27.3578 57.1561 27.2099 57.238 26.8976 57.2052C25.7307 57.2543 24.7775 57.4018 24.1201 57.6638C23.9558 57.713 23.8407 57.7457 23.7257 57.7457C23.5285 57.7457 23.4134 57.5492 23.4134 57.1397C23.4463 56.7957 23.5613 56.3207 23.7586 55.7147Z" fill="#0066B3"/>
<path d="M16.4779 55.4362C15.048 56.9431 13.5524 57.6966 11.9747 57.6966C11.0872 57.6966 10.3969 57.4673 9.88746 56.9759C9.34511 56.4845 9.08215 55.813 9.08215 54.9449C9.08215 53.5526 9.59163 52.1112 10.627 50.6371C11.6624 49.1793 12.9444 48.0328 14.4728 47.2302C15.5082 46.6897 16.56 46.4276 17.6776 46.4276C18.598 46.4276 19.3047 46.6569 19.7648 47.0828C20.1428 47.4268 20.3072 47.8199 20.3072 48.2785C20.3072 48.7043 20.1593 49.0483 19.847 49.3104C19.5841 49.5397 19.3047 49.6543 18.9595 49.6543C18.6801 49.6543 18.4172 49.5724 18.22 49.4578C18.0227 49.3104 17.9406 49.1138 17.9406 48.9173C17.9406 48.6388 18.1378 48.344 18.5158 48.0819C18.7787 47.9181 18.8938 47.738 18.8938 47.5905C18.8938 47.4268 18.7787 47.2793 18.5815 47.1647C18.3843 47.0173 18.0885 46.9681 17.7762 46.9681C16.6586 46.9681 15.5411 47.6888 14.3906 49.1302C13.6675 50.0147 13.1087 51.0466 12.665 52.1931C12.287 53.1923 12.1226 54.044 12.1226 54.7647C12.1226 55.2561 12.2377 55.6492 12.4677 55.9604C12.7307 56.2388 13.043 56.3862 13.4374 56.3862C14.3249 56.3862 15.1795 55.9276 16.067 55.0104C16.3792 54.6992 16.6422 54.388 16.8394 54.0604C17.0366 53.7492 17.1188 53.5199 17.1188 53.3397C17.1188 53.225 17.0695 53.1431 16.9545 53.0612C16.8394 53.0121 16.6915 52.9466 16.5272 52.9466C16.1492 52.9466 15.7547 53.0285 15.2617 53.2086C14.9494 53.2905 14.7686 53.3561 14.7193 53.3561C14.6371 53.3561 14.5714 53.3069 14.5714 53.2086C14.5714 53.0449 14.6207 52.8647 14.8015 52.6354C14.8508 52.5535 14.9494 52.488 15.0316 52.4716C15.1138 52.4388 15.3767 52.4061 15.804 52.3897C16.5765 52.3569 17.1846 52.3405 17.6612 52.3405C18.0392 52.3405 18.2857 52.3405 18.4007 52.3733C18.5487 52.4061 18.598 52.4552 18.598 52.5371C18.598 52.619 18.5487 52.7336 18.45 52.8483C18.335 53.0449 18.0227 53.7 17.4968 54.8466C17.0366 55.9112 16.8394 56.5664 16.8723 56.8449C16.8723 57.2216 16.823 57.4181 16.7572 57.4509C16.7079 57.5 16.5929 57.5328 16.3792 57.5983C16.182 57.6474 16.0341 57.6802 15.9519 57.6802C15.7876 57.6802 15.689 57.5983 15.689 57.4181C15.7383 57.1724 15.9684 56.4845 16.4779 55.4362Z" fill="#0066B3"/>
<path d="M72.9317 55.4853C72.1264 56.3207 71.469 56.8776 70.8938 57.2216C70.3186 57.5655 69.7433 57.7293 69.201 57.7293C68.6258 57.7293 68.1491 57.5655 67.7383 57.156C67.3931 56.7793 67.1959 56.3207 67.1959 55.731C67.1959 54.8466 67.5739 53.8966 68.3135 52.8974C69.201 51.7345 70.2364 50.8336 71.4361 50.2112C72.2743 49.8181 72.9481 49.6052 73.5234 49.6052C73.7863 49.6052 74.0328 49.6543 74.2465 49.8017C74.4108 49.9655 74.5259 50.1457 74.5259 50.375C74.5259 50.5388 74.4766 50.6535 74.378 50.7681C74.2958 50.8828 74.1808 50.9155 74.0328 50.9155C73.9507 50.9155 73.8685 50.9155 73.8027 50.8664C73.7534 50.8172 73.7206 50.7517 73.7206 50.7026C73.7206 50.6535 73.7206 50.5879 73.7534 50.506C73.7863 50.4569 73.7863 50.4241 73.7863 50.3586C73.7863 50.3095 73.7534 50.244 73.7041 50.1948C73.6548 50.1457 73.5562 50.1129 73.474 50.1129C73.1947 50.1129 72.866 50.3095 72.4715 50.6535C72.0771 51.0302 71.6662 51.5379 71.2718 52.1931C70.8773 52.8155 70.5322 53.4707 70.2692 54.1422C70.0392 54.7974 69.8912 55.3379 69.8912 55.7474C69.8912 55.944 69.9405 56.1241 70.0556 56.2552C70.1706 56.3698 70.335 56.419 70.5486 56.419C71.0581 56.419 71.6169 56.1078 72.2086 55.469C72.7838 54.8466 73.3261 53.9785 73.8192 52.8647C74.7888 50.6043 75.3641 49.2448 75.5448 48.8353C75.7092 48.4095 75.8078 48.0655 75.8078 47.7707C75.8078 47.5086 75.6928 47.3448 75.4955 47.2302C75.4298 47.1974 75.2326 47.1483 74.8875 47.0664C74.8053 47.0664 74.7724 47.0009 74.7724 46.919C74.7724 46.8043 74.8874 46.7552 75.1175 46.7552C76.1858 46.7879 77.0076 46.7224 77.6649 46.5586C77.9279 46.4767 78.0923 46.444 78.2073 46.444C78.4374 46.444 78.5524 46.6405 78.5524 47.05C78.5524 47.4759 78.4703 48.0164 78.273 48.6224C78.0758 49.2448 77.6978 50.1293 77.1883 51.3414C76.1529 53.6836 75.6435 55.2888 75.6435 56.1405L75.6763 56.9103C75.6763 57.1069 75.5613 57.1888 75.2983 57.2216C74.4437 57.3362 73.8028 57.4836 73.4576 57.6147C73.2933 57.6638 73.1454 57.6966 73.0303 57.6966C72.8002 57.6966 72.6852 57.5 72.6852 57.0414C72.6687 56.6319 72.7509 56.1241 72.9317 55.4853Z" fill="#0066B3"/>
<path d="M62.4956 51.7837C63.1037 51.1613 63.5803 50.7027 63.9583 50.4079C64.6979 49.8673 65.4539 49.5725 66.2263 49.5725C66.7194 49.5725 67.1138 49.7199 67.4261 49.9984C67.7383 50.3096 67.9191 50.6535 67.9191 51.1122C67.9191 51.3742 67.8534 51.6854 67.7548 51.9966C67.6726 52.3079 67.4425 52.7992 67.1302 53.4872C66.5057 54.7975 66.177 55.6656 66.177 56.1079C66.177 56.4518 66.3414 56.6156 66.6701 56.7139C66.8673 56.7466 66.9823 56.763 67.0481 56.7958C67.1138 56.8285 67.1302 56.8613 67.1302 56.9104C67.1302 57.0742 66.9659 57.1398 66.6208 57.1398C66.2428 57.1398 65.7661 57.1725 65.1581 57.2872C64.5828 57.4018 64.1555 57.4837 63.8926 57.6311C63.7282 57.6803 63.5803 57.713 63.4981 57.713C63.3009 57.713 63.2187 57.5492 63.2187 57.1725C63.2187 56.7466 63.3009 56.288 63.4817 55.7803C63.646 55.2725 64.024 54.5027 64.5171 53.4708C64.9444 52.5863 65.2074 52.0785 65.2895 51.8656C65.3388 51.7018 65.3717 51.5216 65.3717 51.3579C65.3717 51.0466 65.2238 50.8665 64.8787 50.8665C64.3692 50.8665 63.7118 51.3251 62.8736 52.2423C61.9532 53.2742 61.2959 54.388 60.9507 55.5837C60.8357 55.9277 60.7864 56.3535 60.7864 56.9268C60.7864 57.0742 60.7535 57.1561 60.6713 57.1889C60.622 57.2216 60.3591 57.238 59.9482 57.3035C59.751 57.3363 59.488 57.3854 59.1758 57.451C58.8635 57.5329 58.6334 57.5984 58.4526 57.6475C58.3376 57.6966 58.2225 57.7294 58.1404 57.7294C57.9431 57.7294 57.861 57.5656 57.861 57.2216C57.861 56.4191 58.3211 55.1087 59.2579 53.2579C59.9153 51.9803 60.2605 51.1777 60.2605 50.8829C60.2605 50.5716 60.0632 50.3915 59.6852 50.3423C59.373 50.2768 59.1922 50.2277 59.1922 50.113C59.1922 49.9984 59.2744 49.9492 59.4716 49.9492C59.6359 49.9492 59.7345 49.982 59.751 49.982C60.7206 49.982 61.5588 49.8673 62.2655 49.7035C62.3806 49.6708 62.4627 49.6544 62.5778 49.6544C62.8079 49.6544 62.9558 49.851 62.9558 50.1949C62.9558 50.3915 62.9229 50.588 62.8736 50.7682C62.8407 50.8829 62.6928 51.2268 62.4956 51.7837Z" fill="#0066B3"/>
<path d="M54.9356 49.9164H55.1328H55.3957C55.708 49.9164 56.1189 49.8837 56.6284 49.8345C57.1378 49.8018 57.4665 49.7526 57.6309 49.6871C57.861 49.638 58.0089 49.6052 58.1239 49.6052C58.3211 49.6052 58.4033 49.8018 58.4033 50.2113C58.4033 50.5225 58.3211 50.9319 58.1404 51.3742C57.976 51.8328 57.5651 52.7173 56.9406 54.0276C56.4311 55.0923 56.1682 55.944 56.1682 56.5664C56.1682 56.6156 56.1682 56.7138 56.201 56.7957C56.201 56.9595 56.1682 57.0578 56.1189 57.1069C56.0696 57.1397 55.8559 57.1888 55.5437 57.2216C54.8205 57.3035 54.2617 57.4509 53.8509 57.6147C53.7029 57.6638 53.6208 57.6638 53.5386 57.6638C53.3742 57.6638 53.2756 57.5001 53.2756 57.1561C53.2756 56.6647 53.3578 56.1569 53.555 55.6164C53.7851 55.0759 54.2453 54.0768 54.952 52.6518C55.445 51.7345 55.6751 51.1121 55.6751 50.8173C55.6751 50.5061 55.445 50.3095 54.952 50.244C54.7219 50.2113 54.6069 50.1621 54.6069 50.0802C54.6233 49.9819 54.7055 49.9164 54.9356 49.9164Z" fill="#0066B3"/>
<path d="M81.6422 50.113C81.1492 50.113 80.7876 50.2276 80.4918 50.4242C80.1466 50.6863 79.9823 50.9319 79.9823 51.2268C79.9823 51.5707 80.2945 51.9147 80.9026 52.2259C81.6258 52.6026 82.0695 52.8483 82.2832 52.9957C82.5133 53.1432 82.6776 53.2742 82.8584 53.4871C83.1707 53.8802 83.3514 54.3225 83.3514 54.7975C83.3514 55.2233 83.2364 55.6328 83.0063 56.0259C82.7433 56.419 82.4311 56.763 82.0531 56.9923C81.2478 57.5001 80.2781 57.7294 79.1934 57.7294C78.2402 57.7294 77.4677 57.5328 76.8761 57.1233C76.383 56.8121 76.153 56.4026 76.153 55.9604C76.153 55.7311 76.2351 55.5673 76.3502 55.4199C76.4981 55.2725 76.6624 55.2233 76.8597 55.2233C77.024 55.2233 77.1719 55.2561 77.3198 55.3707C77.4349 55.4854 77.4842 55.6328 77.4842 55.7638V56.1897C77.4842 56.5337 77.6321 56.7957 77.9115 56.9923C78.1909 57.1561 78.5689 57.2544 78.9962 57.2544C79.5714 57.2544 80.0316 57.1069 80.3767 56.8285C80.7219 56.55 80.8698 56.2225 80.8698 55.8621C80.8698 55.5837 80.7876 55.3216 80.5904 55.0923C80.3932 54.8302 80.048 54.6009 79.5878 54.3552C78.7825 53.9294 78.2731 53.6182 78.043 53.3561C77.7307 53.0121 77.5499 52.6354 77.5499 52.2095C77.5499 51.8656 77.6321 51.4888 77.8622 51.1613C78.0594 50.8173 78.3552 50.5388 78.7004 50.3259C79.4399 49.8345 80.3274 49.6052 81.3957 49.6052C82.201 49.6052 82.8255 49.7526 83.3186 50.0311C83.7459 50.2932 83.976 50.6371 83.976 51.0302C83.976 51.2923 83.8938 51.4561 83.713 51.6363C83.5651 51.8001 83.3679 51.8656 83.1049 51.8656C82.9077 51.8656 82.7269 51.8164 82.5954 51.7018C82.4475 51.5871 82.3982 51.4725 82.3982 51.3087C82.3982 51.2268 82.464 51.0466 82.5461 50.8828C82.579 50.8337 82.5954 50.7354 82.5954 50.6863C82.579 50.3259 82.2667 50.1457 81.6422 50.113Z" fill="#0066B3"/>
<path d="M49.89 55.9441C50.3502 54.9449 50.5474 54.0604 51.0405 53.2579C51.5007 52.4553 51.9937 51.5216 52.7661 50.4242C53.5386 49.3432 54.3932 48.2785 55.3793 47.2303C55.7244 46.8535 56.0038 46.6242 56.2339 46.5096C56.2339 46.5096 56.2668 46.5096 56.2668 46.4768C56.7763 46.2475 57.2693 46.1001 57.7295 46.1001C58.0417 46.1001 58.3047 46.182 58.5019 46.3622C58.6991 46.526 58.8142 46.7389 58.8142 47.0173C58.8142 47.3285 58.617 47.6234 58.2061 47.8691C57.6637 48.2458 57.1214 48.4423 56.579 48.4423C56.2668 48.4423 56.0038 48.3604 55.7737 48.1803C55.7737 48.1475 55.7409 48.1475 55.7409 48.1148C55.708 48.1148 55.708 48.1475 55.708 48.1475C55.1985 48.5734 54.5576 49.2613 53.818 50.2113C52.8155 51.407 52.1581 52.5535 51.5007 53.6346C50.6625 55.0104 50.4488 55.9768 50.3502 56.5501C50.3174 56.8285 50.2352 57.0087 50.1859 57.0579C50.1037 57.1398 49.9558 57.2053 49.6928 57.2053C49.4627 57.238 49.1176 57.2872 48.7232 57.3691C48.3287 57.451 48.0329 57.5165 47.885 57.5656C47.6878 57.6475 47.507 57.713 47.4248 57.713C47.1947 57.713 47.0797 57.5165 47.0797 57.107C47.0797 56.026 47.4248 54.0441 48.1151 51.1941C46.3894 53.3725 45.4198 55.1579 45.0746 56.5992C45.0253 56.8613 44.9596 56.9923 44.9103 57.0906C44.8281 57.1725 44.6802 57.2053 44.483 57.2053C44.22 57.238 43.9077 57.2544 43.5297 57.3527C43.1517 57.4018 42.8723 57.5001 42.6423 57.582C42.3793 57.6967 42.2149 57.7294 42.1492 57.7294C41.9191 57.7294 41.8041 57.5001 41.8041 56.9923C41.8041 56.4518 41.8534 55.7311 42.0342 54.8467C42.1985 53.9949 42.5272 52.5044 43.0038 50.3915C43.201 49.4742 43.3161 48.7863 43.3161 48.3113C43.3161 47.9182 43.2339 47.6234 43.0367 47.476C42.9874 47.4268 42.8066 47.3285 42.4615 47.1975C42.3793 47.1484 42.3464 47.0829 42.3464 47.001C42.3464 46.8863 42.4286 46.8044 42.6587 46.8044L43.464 46.8372C44.2036 46.8372 44.7788 46.7553 45.1897 46.5751C45.3869 46.526 45.5677 46.4604 45.6498 46.4604C45.9292 46.4604 46.0771 46.8044 46.0771 47.4268C46.0771 48.2622 45.8471 49.6872 45.354 51.7182C45.0417 53.1104 44.861 54.0277 44.7788 54.4372C44.7295 54.863 44.6637 55.3544 44.6309 55.9441C45.2061 54.6829 45.7484 53.6346 46.2086 52.832C46.7181 51.9966 47.4412 50.9484 48.4109 49.6544C48.5259 49.0484 48.5753 48.6061 48.5753 48.2785C48.5753 47.9673 48.5259 47.738 48.4273 47.5906C48.3123 47.4268 48.1151 47.3122 47.8192 47.2139C47.6713 47.1811 47.5892 47.0992 47.5892 47.0173C47.5892 46.8699 47.7042 46.788 47.9343 46.788H48.6739C49.4463 46.788 50.0544 46.7389 50.4817 46.5587C50.6789 46.5096 50.8268 46.4768 50.9419 46.4768C51.2048 46.4768 51.3199 46.788 51.3199 47.4268C51.3199 47.9346 51.2706 48.5079 51.172 49.0811C51.0898 49.6544 50.8268 50.7682 50.4488 52.3898C50.1694 53.8475 49.9887 54.6992 49.9393 54.9613C49.9558 55.2234 49.9229 55.551 49.89 55.9441Z" fill="#0066B3"/>
</g>
<defs>
<linearGradient id="paint0_linear_1_4355" x1="9.45841" y1="33.6769" x2="68.487" y2="33.6769" gradientUnits="userSpaceOnUse">
<stop offset="0.2147" stop-color="#FFE6CB"/>
<stop offset="0.3038" stop-color="#FED6A9"/>
<stop offset="0.4301" stop-color="#FDC380"/>
<stop offset="0.5553" stop-color="#FBB25F"/>
<stop offset="0.6768" stop-color="#FAA642"/>
<stop offset="0.7936" stop-color="#F99E2D"/>
<stop offset="0.9037" stop-color="#F89920"/>
<stop offset="1" stop-color="#F8971D"/>
</linearGradient>
<linearGradient id="paint1_linear_1_4355" x1="9.97409" y1="41.3641" x2="82.2698" y2="41.3641" gradientUnits="userSpaceOnUse">
<stop offset="0.4663" stop-color="#FFE6CB"/>
<stop offset="0.6093" stop-color="#FFE5C9"/>
<stop offset="0.6876" stop-color="#FFE2C2"/>
<stop offset="0.7501" stop-color="#FFDDB6"/>
<stop offset="0.8044" stop-color="#FED5A5"/>
<stop offset="0.8533" stop-color="#FECB90"/>
<stop offset="0.8984" stop-color="#FDBE78"/>
<stop offset="0.9405" stop-color="#FBB05A"/>
<stop offset="0.9792" stop-color="#F9A034"/>
<stop offset="1" stop-color="#F8971D"/>
</linearGradient>
<linearGradient id="paint2_linear_1_4355" x1="9" y1="37.7064" x2="78.4014" y2="37.7064" gradientUnits="userSpaceOnUse">
<stop offset="0.1718" stop-color="#FFE6CB"/>
<stop offset="0.2557" stop-color="#FFE3C4"/>
<stop offset="0.3814" stop-color="#FFDBB3"/>
<stop offset="0.5333" stop-color="#FECE96"/>
<stop offset="0.7058" stop-color="#FCBB71"/>
<stop offset="0.893" stop-color="#FAA53E"/>
<stop offset="1" stop-color="#F8971D"/>
</linearGradient>
<clipPath id="clip0_1_4355">
<rect width="78" height="38" fill="white" transform="translate(9 29)"/>
</clipPath>
</defs>
</svg>
