<svg width="96" height="96" viewBox="0 0 96 96" fill="none" xmlns="http://www.w3.org/2000/svg">
<circle cx="48" cy="48" r="47" fill="white" stroke="white" stroke-width="2"/>
<g clip-path="url(#clip0_1_1276)">
<path d="M83.55 40.2598C84.3604 40.2598 84.9956 40.8958 84.9956 41.6995C84.9956 42.5253 84.3561 43.1568 83.5413 43.1568C82.7221 43.1568 82.0782 42.5253 82.0782 41.6995C82.0782 40.8958 82.7265 40.2598 83.5413 40.2598H83.55ZM83.5369 40.516C82.8886 40.516 82.398 41.0503 82.398 41.7039C82.398 42.3752 82.893 42.9007 83.5544 42.9007C84.2028 42.9095 84.6802 42.3752 84.6802 41.7127C84.6802 41.0503 84.2028 40.516 83.5457 40.516H83.5369ZM83.2828 42.4988H83.0025V40.9841C83.1558 40.9576 83.3179 40.9355 83.5238 40.9355C83.7735 40.9355 83.9005 40.9841 84.0012 41.0547C84.0889 41.1166 84.1546 41.2358 84.1546 41.3727C84.1546 41.5626 84.0188 41.6818 83.8567 41.7348V41.7525C83.9925 41.8055 84.0626 41.9247 84.1064 42.1146C84.1502 42.3531 84.1765 42.4414 84.2159 42.4944H83.9268C83.883 42.4414 83.8436 42.3045 83.8085 42.097C83.7735 41.9336 83.6727 41.8585 83.4581 41.8585H83.2785V42.4988H83.2828ZM83.2828 41.6465H83.4712C83.6771 41.6465 83.8567 41.5847 83.8567 41.4036C83.8567 41.2579 83.7647 41.1563 83.4975 41.1563C83.388 41.1563 83.3266 41.1651 83.2828 41.174V41.6465ZM43.223 51.7375C43.0653 51.5785 42.8595 51.3444 42.8595 50.6864V40.9752C42.8595 40.3172 42.5178 40.2642 42.2331 40.2642H38.0584C37.9007 40.2642 37.8744 40.2642 37.7956 40.4762L37.5634 41.0017C37.4057 41.3153 37.6686 41.4213 37.927 41.5008C39.101 41.7878 39.3901 42.2118 39.3901 43.0818V44.5833C39.3901 46.6633 39.3113 48.4518 38.606 49.7149C38.0584 50.7438 37.1429 51.5034 36.2843 51.5034C34.8738 51.5034 34.2211 50.7129 34.2211 47.8203V40.9752C34.2211 40.3172 33.8838 40.2642 33.5947 40.2642H29.4201C29.2624 40.2642 29.1047 40.2642 29.0302 40.4762L28.7936 41.0017C28.6359 41.3153 28.8988 41.4213 29.1572 41.5008C30.3575 41.7613 30.7517 41.9468 30.7517 43.0818V49.2379C30.7517 52.369 32.1097 53.738 34.7161 53.738C35.8638 53.738 37.3269 53.0535 38.3957 52.21L39.3857 51.446V52.8945C39.3857 53.4465 39.723 53.42 40.0121 53.42H43.9765C44.3182 53.42 44.6292 53.4465 44.7606 53.1816L44.9139 52.815C45.387 51.9495 43.8495 52.369 43.223 51.7375ZM51.8614 45.3693C50.3458 44.1063 49.0404 43.5808 48.9878 42.5783C48.9615 42.0528 49.7456 41.1828 50.6568 41.1828C51.6993 41.1828 52.3564 41.5538 52.7726 42.2118C53.1624 42.7638 53.5567 43.7354 53.7144 43.5808L54.1568 43.2098C54.2094 43.1348 54.2882 43.0508 54.2882 42.9758V41.0017C54.2882 40.6573 54.0517 40.3702 53.6092 40.2642C52.8777 40.1053 51.6993 39.9507 50.6086 39.9507C47.1348 39.9507 45.5973 41.6333 45.5973 43.4748C45.5973 45.4444 47.5291 46.4204 48.8871 47.4185C50.0085 48.2619 51.5986 49.313 51.6512 50.47C51.6774 51.6006 50.7356 52.4706 49.3558 52.4706C48.2081 52.4706 47.2925 51.7331 46.8764 50.788C46.3551 49.8915 46.3814 48.92 46.0923 49.0259L45.571 49.2114C45.4133 49.2644 45.4396 49.6089 45.4396 49.8429V52.3955C45.4396 52.6075 45.8338 52.815 46.1186 53.0005C47.0341 53.526 48.4402 53.738 49.8508 53.738C52.225 53.738 55.0461 52.6605 55.0461 49.8694C55.0417 48.3414 54.3364 47.4494 51.8614 45.3693ZM80.9305 40.2642H76.8347C76.6245 40.2642 76.493 40.5778 76.4186 40.7368L76.2609 41.0282C75.9499 41.6862 78.7402 41.4213 78.0613 42.8433L75.008 49.5294L72.371 43.1083C71.7709 41.6598 73.4661 41.7392 73.6764 41.2402L73.8866 40.7147C74.0181 40.3702 73.8078 40.2687 73.4442 40.2687H67.7276C67.4911 40.2687 67.3115 40.3702 67.2326 40.5822L66.9961 41.2137C66.891 41.4522 67.1538 41.5538 67.5437 41.7127C67.8853 41.8717 68.2226 42.1058 68.7439 43.2937L73.05 53.133L71.7183 56.03C71.1182 57.346 70.4129 57.8451 69.9442 57.9775L68.6651 58.3706C68.3541 58.4501 68.1175 58.5031 68.2489 58.8431L68.5599 59.5806C68.7439 60.0046 69.0024 60.0046 69.3966 60.0046H70.5706C71.7183 60.0046 72.2396 59.2141 72.7346 58.11L79.7565 43.2982C80.0719 42.6401 80.2033 42.3487 80.3829 42.1411C80.7728 41.6951 81.3773 41.7216 81.5306 41.249L81.662 40.803C81.846 40.2642 81.3773 40.2642 80.9305 40.2642ZM62.2476 39.9507C58.384 39.9507 55.5673 42.5827 55.5673 46.9768C55.5673 50.5804 58.1781 53.738 62.8215 53.738C63.8421 53.738 65.2746 53.4995 65.8747 53.2125C66.1638 53.0579 66.2908 52.7929 66.4222 52.5545L67.2589 50.8454C67.4648 50.4259 66.7114 50.0814 66.4485 50.3199C65.5374 51.3224 64.7007 51.9274 63.1588 51.9274C60.5261 51.9274 59.247 49.5338 59.247 46.9548H66.9961C67.3597 46.9548 67.5962 46.3762 67.5962 45.9037C67.5962 42.3708 65.7958 39.9507 62.2476 39.9507ZM63.4961 45.5283H59.2426C59.2426 43.3158 60.3377 41.2402 62.1907 41.2402C63.3121 41.2402 64.5123 42.0042 64.5123 44.3713C64.5167 45.1044 64.2013 45.5283 63.4961 45.5283ZM18.7097 53.6762C17.6934 53.0447 17.194 52.0731 17.1809 50.9381V40.7014C17.1809 40.4365 17.3955 40.2201 17.6584 40.2201C17.9212 40.2201 18.1359 40.4365 18.1359 40.7014V50.9293C18.149 52.7046 19.5858 53.6894 21.9557 53.7336C25.4557 53.6409 28.9426 52.0422 28.9426 48.1604C28.9426 46.4248 27.6898 43.6868 23.905 43.2672V43.2142C26.1741 42.4282 27.6898 40.9002 27.6109 38.9791C27.4882 35.9585 24.9782 35.0046 22.2711 35.0046H11.806C11.6264 35.0002 11.4118 35.0796 11.2891 35.3137L11.0438 35.8171C10.8905 36.1042 11.1665 36.1837 11.6264 36.2897C12.9055 36.4707 13.5232 36.8991 13.5538 37.9325H19.4763C19.4938 37.4511 19.6121 37.0978 19.8486 36.8417C20.164 36.5414 20.6678 36.3912 21.4037 36.4619C21.4519 36.4663 21.5001 36.4707 21.5483 36.4796C21.6446 36.4928 21.7366 36.5061 21.8374 36.5237C23.1822 36.7799 23.9357 37.5615 23.9357 39.5002C23.9357 41.2358 22.788 42.8654 20.6459 42.8654H20.44C20.1334 42.8698 20.0151 43.0023 20.0107 43.2672V43.8546C20.0151 44.1681 20.1509 44.2874 20.4181 44.2874H20.5933C23.2041 44.2874 24.768 45.8419 24.8205 48.2619C24.8731 50.735 23.6465 52.316 21.5088 52.316C20.1597 52.316 19.4719 51.7375 19.4719 49.9754V40.1097C19.8004 40.1097 20.0764 39.8359 20.0764 39.5002C20.0764 39.1779 19.8267 38.8908 19.4719 38.8908H13.5582C13.2428 38.8908 12.9537 39.1646 12.9537 39.5002C12.9537 39.8359 13.2341 40.1097 13.5582 40.1097V50.7792C13.5582 52.1173 14.5964 52.9519 15.8974 53.2655C15.1527 52.6605 14.8899 51.9848 14.8943 50.9691L14.8899 40.7014C14.8899 40.4365 15.1045 40.2201 15.3674 40.2201C15.6302 40.2201 15.8448 40.4365 15.8448 40.7014V50.9691C15.8361 52.7179 17.1765 53.4377 18.7097 53.6762Z" fill="#003F63" fill-opacity="0.7"/>
</g>
<defs>
<clipPath id="clip0_1_1276">
<rect width="74" height="25" fill="white" transform="translate(11 35)"/>
</clipPath>
</defs>
</svg>
