<svg width="96" height="96" viewBox="0 0 96 96" fill="none" xmlns="http://www.w3.org/2000/svg">
<circle cx="48" cy="48" r="47" fill="white" stroke="white" stroke-width="2"/>
<path d="M50.0434 40.5574H36.4269C35.8526 40.5574 35.387 41.023 35.387 41.5973V55.2138C35.387 55.7881 35.8526 56.2537 36.4269 56.2537H50.0434C50.6177 56.2537 51.0833 55.7881 51.0833 55.2138V41.5973C51.0833 41.023 50.6177 40.5574 50.0434 40.5574Z" fill="#EE5B29"/>
<path d="M52.1962 64.2969C52.1962 64.2969 52.1719 64.4351 50.9776 64.4351H35.3138C35.3138 64.4351 27.1894 64.4432 27.1488 56.2538C27.0838 41.898 27.1244 40.5412 27.1244 40.5412C27.1244 40.5412 27.1813 32.3681 35.33 32.3356C43.4625 32.3031 51.0101 32.3681 51.0101 32.3681C51.0101 32.3681 59.1426 32.3681 59.1588 40.5412C59.1751 48.2269 59.1588 56.2538 59.1588 56.2538C59.1588 56.2538 59.1832 57.3587 58.9964 57.5212C58.8095 57.6837 67.202 64.1101 67.202 64.1101C67.202 63.9963 67.202 63.8826 67.202 63.7607V32.5956C67.2182 27.8997 63.4079 24.0894 58.712 24.0894H27.5144C22.8103 24.0894 19 27.8997 19 32.5956V63.7607C19 68.4566 22.8103 72.267 27.5144 72.267H58.712C59.7357 72.267 60.7187 72.0882 61.6287 71.7551L52.2044 64.2969H52.1962Z" fill="#EE5B29"/>
<path d="M73.9534 24C74.4733 24 74.977 24.13 75.4564 24.39C75.9357 24.65 76.3094 25.0237 76.5857 25.5111C76.8619 25.9986 77 26.5104 77 27.0385C77 27.5666 76.8619 28.0703 76.5938 28.5497C76.3257 29.029 75.952 29.4027 75.4726 29.6708C74.9933 29.9389 74.4896 30.077 73.9615 30.077C73.4334 30.077 72.9297 29.9389 72.4504 29.6708C71.971 29.4027 71.5973 29.029 71.3292 28.5497C71.0611 28.0703 70.923 27.5666 70.923 27.0385C70.923 26.5104 71.0611 25.9986 71.3373 25.5111C71.6135 25.0237 71.9873 24.65 72.4666 24.39C72.9459 24.13 73.4415 24 73.9696 24H73.9534ZM73.9534 24.5931C73.539 24.5931 73.1328 24.6987 72.751 24.9099C72.3691 25.1212 72.0685 25.4218 71.841 25.8117C71.6217 26.2017 71.5079 26.6161 71.5079 27.0385C71.5079 27.461 71.6135 27.8672 71.8329 28.2572C72.0523 28.6471 72.3529 28.9478 72.7347 29.159C73.1247 29.3783 73.5228 29.484 73.9452 29.484C74.3677 29.484 74.7739 29.3783 75.1639 29.159C75.5457 28.9396 75.8464 28.639 76.0657 28.2572C76.2851 27.8672 76.3907 27.461 76.3907 27.0385C76.3907 26.6161 76.2769 26.2017 76.0576 25.8117C75.8382 25.4218 75.5376 25.1212 75.1477 24.9099C74.7577 24.6987 74.3596 24.5931 73.9452 24.5931H73.9534ZM72.5803 28.6634V25.438H73.2384C73.8478 25.438 74.1971 25.438 74.2702 25.438C74.4896 25.4543 74.6521 25.503 74.7739 25.568C74.8958 25.633 74.9933 25.7386 75.0745 25.8767C75.1558 26.0148 75.1964 26.1692 75.1964 26.3398C75.1964 26.5754 75.1233 26.7704 74.9689 26.9329C74.8146 27.0954 74.6033 27.201 74.3271 27.2416C74.4246 27.2823 74.4977 27.3229 74.5546 27.3635C74.6114 27.4041 74.6846 27.4935 74.7739 27.6154C74.7983 27.6478 74.8796 27.7778 75.0095 28.0053L75.3914 28.6553H74.579L74.3108 28.1272C74.1321 27.7778 73.9777 27.5504 73.8559 27.461C73.734 27.3716 73.5878 27.3229 73.4009 27.3229H73.2303V28.6471H72.5722L72.5803 28.6634ZM73.2384 26.8273H73.5065C73.8884 26.8273 74.1159 26.811 74.2133 26.7867C74.3108 26.7623 74.3758 26.7054 74.4327 26.6323C74.4815 26.5592 74.514 26.4779 74.514 26.3804C74.514 26.283 74.4896 26.2098 74.4327 26.1367C74.384 26.0636 74.3108 26.0148 74.2133 25.9824C74.1159 25.9499 73.8802 25.9336 73.5147 25.9336H73.2465V26.811L73.2384 26.8273Z" fill="#EE5B29"/>
</svg>
