<svg width="96" height="96" viewBox="0 0 96 96" fill="none" xmlns="http://www.w3.org/2000/svg">
<circle cx="48" cy="48" r="47" fill="white" stroke="white" stroke-width="2"/>
<g clip-path="url(#clip0_1_8634)">
<path d="M32.8325 34.4351C32.7792 30.5439 32.7259 26.6526 32.7259 22.7614C42.4274 22.7614 52.1289 22.6548 61.777 22.8147C69.0798 23.0812 77.0222 28.5716 76.9689 36.4607C77.1821 41.4714 73.6107 45.4692 69.6661 48.0278C73.9305 50.6931 77.6085 55.2773 76.9156 60.6078C76.2226 68.1237 68.5467 73.0278 61.5105 73.241C51.9156 73.4009 42.3208 73.241 32.6726 73.3476C32.6726 69.563 32.6726 65.725 32.6726 61.8871" fill="#211C5C"/>
<path d="M32.6194 61.8874C40.1853 61.8874 46.3187 55.754 46.3187 48.1881C46.3187 40.6222 40.1853 34.4888 32.6194 34.4888C25.0534 34.4888 18.92 40.6222 18.92 48.1881C18.92 55.754 25.0534 61.8874 32.6194 61.8874Z" fill="#ED0E61"/>
</g>
<defs>
<clipPath id="clip0_1_8634">
<rect width="58" height="58" fill="white" transform="translate(19 19)"/>
</clipPath>
</defs>
</svg>
