<svg width="96" height="96" viewBox="0 0 96 96" fill="none" xmlns="http://www.w3.org/2000/svg">
<circle cx="48" cy="48" r="47" fill="white" stroke="white" stroke-width="2"/>
<path d="M19 48.2339C19 32.0968 31.9798 19 48 19C64.0202 19 77 32.0968 77 48.2339C77 64.371 64.0202 77.4677 48 77.4677C31.9798 77.4677 19 64.371 19 48.2339Z" fill="#AD9D70" stroke="white" stroke-miterlimit="3.864"/>
<path d="M20.5787 48.2339C20.5787 33.2077 32.7985 21.0464 47.8247 21.0464C62.8509 21.0464 75.0707 33.2661 75.0707 48.2924C75.0707 63.3186 62.8509 75.5383 47.8247 75.5383C32.7985 75.4799 20.5787 63.3186 20.5787 48.2339Z" fill="white"/>
<path d="M38.236 58.9335C38.5868 58.8166 38.9376 58.7581 39.2299 58.5242V42.4456C39.2299 39.3468 39.2299 38.996 40.0485 38.7621L40.4578 38.6452V37.8267H35.6049V38.6452L36.0142 38.7621C36.8328 38.996 36.8328 39.3468 36.8328 42.4456V55.6593C36.4235 56.1271 35.488 57.1795 34.3187 57.1795C32.1553 57.1795 31.4537 55.1916 31.4537 50.865V42.4456C31.4537 39.3468 31.4537 38.996 32.2723 38.7621L32.6816 38.6452V37.8267H27.8287V38.6452L28.238 38.7621C29.0566 38.996 29.0566 39.3468 29.0566 42.4456V52.3267C29.0566 55.5424 29.6412 58.992 32.857 58.992C35.1372 58.992 36.5989 57.0625 36.9497 57.0625C37.242 57.0625 37.4174 57.6472 37.6513 58.115L38.236 58.9335Z" fill="url(#paint0_linear_1_2009)"/>
<path d="M53.7297 53.7299C53.6713 54.1392 53.0866 61.9739 49.2277 61.9739C44.258 61.9739 44.258 49.4033 44.258 47.9416C44.258 40.2239 46.1289 34.9618 49.1693 34.9618C52.6773 34.9618 53.1451 40.867 53.3205 42.6795L54.0806 42.4457C54.0806 38.1191 53.8467 36.6574 53.7297 35.2541C52.8527 34.3771 51.5664 33.3247 49.2277 33.3247C45.135 33.3247 41.1592 38.0606 41.1592 48.6433C41.1592 60.1029 45.135 63.6695 49.1693 63.6695C51.5664 63.6695 52.8527 62.617 53.6713 61.9154C54.139 59.7521 54.3729 57.0626 54.4898 54.0223L53.7297 53.7299Z" fill="#9D8E6F"/>
<path fill-rule="evenodd" clip-rule="evenodd" d="M55.6008 58.875H61.0968C64.2541 58.875 67.119 57.5303 67.119 52.8529C67.119 48.9355 64.8387 47.6492 63.5524 47.3569V47.2984C64.6633 46.7722 66.4758 45.6029 66.4758 42.2117C66.4758 37.8267 62.9678 37.8267 61.9153 37.8267H55.6008V38.5867L56.127 38.7037C57.121 38.996 57.121 38.8791 57.121 42.4456V54.1392C57.121 57.7642 57.121 57.6472 56.127 57.9396L55.6008 58.0565V58.875ZM59.869 39.1714C60.2198 38.996 60.5706 38.9375 60.9214 38.9375C62.5585 38.9375 63.6694 40.4577 63.6694 42.9134C63.6694 46.363 62.2077 47.0646 60.6291 47.0646H59.869V39.1714ZM59.869 48.2924H60.8045C63.377 48.2924 64.4295 50.8065 64.4295 53.3206C64.4295 55.8347 63.5524 57.6472 61.623 57.6472C61.0383 57.6472 60.4537 57.4718 59.9274 57.121V48.2924H59.869Z" fill="#9D8E6F"/>
<path d="M47.766 73.3165C61.5865 73.3165 72.7902 62.1127 72.7902 48.2923C72.7902 34.4718 61.5865 23.2681 47.766 23.2681C33.9455 23.2681 22.7418 34.4718 22.7418 48.2923C22.7418 62.1127 33.9455 73.3165 47.766 73.3165Z" stroke="#9D8E6F"/>
<defs>
<linearGradient id="paint0_linear_1_2009" x1="40.4326" y1="58.005" x2="30.0815" y2="36.7818" gradientUnits="userSpaceOnUse">
<stop stop-color="#9D8E6F"/>
<stop offset="0.481" stop-color="#9F9071"/>
<stop offset="0.734" stop-color="#A59879"/>
<stop offset="0.933" stop-color="#B1A587"/>
<stop offset="1" stop-color="#B6AB8D"/>
</linearGradient>
</defs>
</svg>
