<svg width="96" height="96" viewBox="0 0 96 96" fill="none" xmlns="http://www.w3.org/2000/svg">
<circle cx="48" cy="48" r="47" fill="white" stroke="white" stroke-width="2"/>
<g clip-path="url(#clip0_1_648)">
<path d="M21.7853 32.3924H26.4839V32.5728C25.8828 32.5728 25.5089 32.6966 25.363 32.9441C25.217 33.1915 25.142 33.5903 25.1379 34.1403V49.1393C25.1379 50.5679 25.0906 51.6333 24.9961 52.3356C24.9181 52.9909 24.6999 53.6217 24.3562 54.185C24.0293 54.7112 23.5779 55.1488 23.0417 55.4591C22.4601 55.7876 21.8006 55.9529 21.1328 55.9376C20.4062 55.9321 19.6856 55.8067 19 55.5663L19.0233 55.3636C19.3322 55.4471 19.6522 55.4834 19.9721 55.4708C20.9991 55.4708 21.7808 55.0916 22.3177 54.3335C22.8548 53.5754 23.1234 52.2789 23.1243 50.444V34.2122C23.1243 33.4863 23.0345 33.0311 22.8551 32.8473C22.6754 32.6635 22.3192 32.5721 21.7853 32.5728V32.3924ZM36.1053 32.4949L36.9488 34.7172L36.8038 34.7411C36.8038 34.7339 36.5812 34.4962 36.1371 34.0275C35.6953 33.5524 35.1576 33.1766 34.5596 32.9249C33.9616 32.6732 33.317 32.5513 32.6685 32.5674C31.4602 32.5674 30.5013 32.9157 29.7918 33.6127C29.4501 33.9359 29.1792 34.3266 28.9962 34.7598C28.8132 35.1931 28.7221 35.6597 28.7286 36.13C28.7146 36.7374 28.8887 37.3343 29.2269 37.8391C29.5595 38.3264 30.2539 38.7813 31.3099 39.203C33.1268 39.819 34.3703 40.2817 35.0395 40.5906C35.709 40.8999 36.354 41.4253 36.975 42.1667C37.5962 42.9062 37.9071 43.855 37.9071 45.0131C37.909 45.4771 37.8527 45.9395 37.7394 46.3894C37.6232 46.8365 37.4408 47.2637 37.1981 47.6569C36.9494 48.0642 36.6483 48.4373 36.3026 48.7664C35.991 49.0748 35.632 49.3314 35.2394 49.5264C34.88 49.6998 34.3114 49.8309 33.5334 49.9189C32.7551 50.0071 32.2432 50.0512 31.9974 50.0522H27.2719V44.8874H27.4526C27.4689 46.6021 27.8696 47.7978 28.6542 48.4739C29.4384 49.1504 30.6593 49.4889 32.3164 49.4895C33.8231 49.4895 34.9651 49.1327 35.7428 48.4194C36.5201 47.7057 36.9103 46.8439 36.9135 45.834C36.9303 45.2844 36.7888 44.7416 36.5059 44.2702C36.2092 43.8159 35.8205 43.429 35.3648 43.1344C34.8756 42.8085 33.9508 42.4123 32.5906 41.9451C31.2304 41.4786 30.281 41.0568 29.7423 40.6811C29.1907 40.3227 28.7317 39.7837 28.3648 39.064C28.0062 38.3849 27.8164 37.6293 27.8116 36.8613C27.8116 35.4869 28.2844 34.3323 29.2294 33.3986C30.1745 32.4646 31.4088 31.9984 32.932 32C33.5779 32.0057 34.2215 32.0747 34.8542 32.2058C35.5442 32.3426 35.9291 32.4306 36.0038 32.4757C36.0353 32.4905 36.0703 32.4971 36.1053 32.4946V32.4949ZM47.9212 32.4949L48.7587 34.7172L48.6144 34.7411C48.6144 34.7339 48.3924 34.4962 47.948 34.0275C47.5068 33.5532 46.9701 33.1778 46.3732 32.9261C45.7764 32.6744 45.1329 32.5522 44.4853 32.5674C43.2755 32.5674 42.3163 32.9157 41.6074 33.6127C41.2659 33.9361 40.9951 34.3267 40.8121 34.76C40.6291 35.1932 40.5379 35.6597 40.5442 36.13C40.5307 36.7376 40.7053 37.3345 41.0441 37.8391C41.3763 38.3264 42.0704 38.7813 43.1267 39.203C44.9424 39.819 46.185 40.2817 46.8554 40.5906C47.5256 40.8999 48.1712 41.4253 48.7918 42.1667C49.4131 42.9062 49.7239 43.855 49.7239 45.0131C49.7255 45.4771 49.6687 45.9395 49.555 46.3894C49.4398 46.8366 49.2577 47.2639 49.015 47.6569C48.7659 48.064 48.4649 48.437 48.1195 48.7664C47.8077 49.0746 47.4488 49.3311 47.0562 49.5264C46.6956 49.6998 46.1267 49.8309 45.3503 49.9189C44.5736 50.0071 44.0617 50.0512 43.8142 50.0522H39.0888V44.8874H39.2694C39.2852 46.6021 39.6855 47.7978 40.471 48.4739C41.2559 49.1504 42.4771 49.4889 44.1332 49.4895C45.6384 49.4895 46.7804 49.1327 47.5596 48.4194C48.3382 47.7057 48.7288 46.8439 48.7304 45.834C48.7468 45.2843 48.6049 44.7415 48.3215 44.2702C48.0248 43.8159 47.6361 43.429 47.1804 43.1344C46.6912 42.8085 45.7664 42.4123 44.4065 41.9451C43.046 41.4786 42.0979 41.0568 41.5614 40.6811C41.0101 40.3227 40.5514 39.7837 40.1851 39.064C39.8266 38.3848 39.637 37.6293 39.6322 36.8613C39.6322 35.4869 40.1029 34.3323 41.0441 33.3986C41.985 32.4646 43.2204 31.9984 44.7501 32C45.396 32.0058 46.0398 32.0747 46.6723 32.2058C47.3607 32.343 47.745 32.4328 47.8254 32.4757C47.8552 32.4896 47.888 32.4961 47.9209 32.4946L47.9212 32.4949Z" fill="#231F20"/>
<mask id="mask0_1_648" style="mask-type:luminance" maskUnits="userSpaceOnUse" x="40" y="61" width="37" height="4">
<path d="M40.3655 61.3111H77V64.7101H40.3655V61.3111Z" fill="white"/>
</mask>
<g mask="url(#mask0_1_648)">
<path d="M40.4362 63.6204C40.5418 63.6573 40.6543 63.6743 40.7671 63.6708C41.0448 63.6708 41.2163 63.5365 41.3062 63.1022L41.6416 61.4425H41.9653L41.6217 63.1346C41.5051 63.7118 41.2472 63.941 40.7561 63.941C40.6233 63.9426 40.4911 63.9219 40.3652 63.8795L40.4362 63.6204ZM43.3897 63.7985C43.1975 63.893 42.9828 63.941 42.7653 63.9375C42.2673 63.9375 42.0469 63.6204 42.0469 63.2298C42.0469 62.6974 42.4684 62.095 43.0771 62.095C43.4367 62.095 43.6318 62.2955 43.6318 62.5483C43.6318 63.0145 43.0733 63.1346 42.3747 63.1245C42.3599 63.2377 42.3735 63.3528 42.4148 63.4599C42.4504 63.5353 42.5103 63.598 42.5856 63.6406C42.661 63.6828 42.7483 63.7023 42.8359 63.697C43.0124 63.6961 43.1862 63.6535 43.3431 63.5728L43.3897 63.7985ZM43.0304 62.3327C42.7224 62.3327 42.4923 62.6126 42.4148 62.8922C42.9216 62.8922 43.3195 62.8345 43.3195 62.5603C43.3195 62.4131 43.2028 62.3327 43.0304 62.3327ZM43.7951 63.9009L44.0252 62.763C44.0725 62.5335 44.104 62.2965 44.1251 62.1354H44.4101C44.3948 62.2633 44.3778 62.391 44.359 62.5184H44.371C44.4927 62.2779 44.6951 62.0954 44.9488 62.0954C44.9791 62.0957 45.0087 62.0982 45.0386 62.1026L44.9756 62.4021C44.9474 62.397 44.9188 62.3944 44.8902 62.3945C44.6093 62.3945 44.3594 62.7122 44.2774 63.1245L44.1211 63.9009H43.7951ZM45.0525 63.5942C45.1755 63.662 45.3151 63.6998 45.4579 63.7042C45.676 63.7042 45.8166 63.5728 45.8166 63.4161C45.8166 63.2774 45.7507 63.1933 45.5556 63.0908C45.3375 62.978 45.2158 62.8213 45.2158 62.6426C45.2158 62.333 45.5008 62.0954 45.8992 62.0954C46.0357 62.0916 46.1709 62.1217 46.2929 62.183L46.2031 62.4131C46.1018 62.3605 45.9894 62.333 45.8752 62.333C45.676 62.333 45.5395 62.4459 45.5395 62.5988C45.5395 62.7264 45.6294 62.8068 45.7977 62.8941C46.0079 63.007 46.1523 63.1608 46.1523 63.3603C46.1523 63.7332 45.8286 63.9403 45.4311 63.9403C45.2668 63.9453 45.1045 63.9036 44.963 63.8199L45.0525 63.5942ZM47.8539 63.7985C47.6616 63.893 47.4466 63.941 47.2291 63.9375C46.7311 63.9375 46.512 63.6204 46.512 63.2298C46.512 62.6974 46.9334 62.095 47.5421 62.095C47.9005 62.095 48.0959 62.2955 48.0959 62.5483C48.0959 63.0145 47.538 63.1346 46.8398 63.1245C46.8244 63.2378 46.8377 63.3532 46.8786 63.4599C46.9145 63.5353 46.9741 63.598 47.0494 63.6406C47.1251 63.6828 47.2124 63.7023 47.3 63.697C47.4764 63.6962 47.6501 63.6536 47.8069 63.5728L47.8539 63.7985ZM47.4951 62.3327C47.1862 62.3327 46.9561 62.6126 46.8786 62.8922C47.3858 62.8922 47.7842 62.8345 47.7842 62.5603C47.7842 62.4131 47.6685 62.3327 47.4951 62.3327ZM48.6737 62.1354L48.8638 63.0899C48.9067 63.2903 48.9297 63.4218 48.9496 63.5561H48.9574C49.0085 63.4432 49.063 63.3193 49.1566 63.1264L49.637 62.1407H49.9806L49.2745 63.4836C49.075 63.8666 48.8758 64.1771 48.623 64.41C48.4698 64.5589 48.2801 64.6647 48.0729 64.7167L47.9941 64.4576C48.119 64.4179 48.2362 64.3599 48.3418 64.2861C48.4877 64.1759 48.6108 64.0385 48.7043 63.8814C48.7181 63.8568 48.7224 63.828 48.7166 63.8004L48.338 62.1407L48.6737 62.1354ZM50.7457 63.5217C50.9108 63.6245 51.105 63.679 51.3036 63.6781C51.6024 63.6781 51.8735 63.5141 51.8735 63.2122C51.8735 63.0303 51.7597 62.8951 51.4867 62.7526C51.151 62.5855 50.9638 62.3879 50.9638 62.1221C50.9638 61.684 51.3704 61.3997 51.8533 61.3997C52.0415 61.3948 52.2275 61.4402 52.3924 61.5311L52.2748 61.7754C52.1348 61.6997 51.9778 61.6608 51.8187 61.6626C51.4949 61.6626 51.2995 61.863 51.2995 62.0635C51.2995 62.264 51.4322 62.3778 51.7052 62.5193C52.0299 62.6798 52.2092 62.8736 52.2092 63.1718C52.2092 63.5989 51.8496 63.9309 51.2607 63.9309C51.0381 63.9372 50.8184 63.879 50.6281 63.7632L50.7457 63.5217ZM52.509 63.9009L53.036 61.3111H53.3598L53.1256 62.4493H53.1334C53.2059 62.3425 53.3052 62.2539 53.4234 62.1921C53.5426 62.1301 53.6746 62.0969 53.8089 62.0954C54.0233 62.0954 54.277 62.2192 54.277 62.5698C54.2767 62.6704 54.266 62.7707 54.2452 62.8692L54.0353 63.9009H53.7112L53.9215 62.8828C53.9372 62.8024 53.9451 62.7207 53.9454 62.6388C53.9454 62.4749 53.8638 62.3469 53.6526 62.3469C53.4026 62.3469 53.0868 62.6211 53.0089 63.0183L52.8337 63.9009H52.509ZM56.4041 62.8327C56.4041 63.3761 55.9906 63.941 55.3579 63.941C54.8857 63.941 54.6209 63.6128 54.6209 63.215C54.6209 62.635 55.0541 62.096 55.6659 62.096C56.1778 62.0954 56.4041 62.4569 56.4041 62.8327ZM54.9566 63.2056C54.9566 63.4937 55.124 63.7014 55.4008 63.7014C55.7835 63.7014 56.0722 63.2418 56.0722 62.8298C56.0722 62.6256 55.9726 62.3374 55.6309 62.3374C55.2255 62.3368 54.9526 62.7992 54.9566 63.2046V63.2056ZM56.6342 63.9009L56.8643 62.763C56.911 62.5335 56.9428 62.2965 56.964 62.1354H57.2489C57.2328 62.2593 57.218 62.3832 57.1978 62.5184H57.2098C57.3306 62.2779 57.5336 62.0954 57.7876 62.0954C57.8179 62.0957 57.8478 62.0982 57.8775 62.1026L57.8147 62.4021C57.7864 62.397 57.7577 62.3944 57.729 62.3945C57.4481 62.3945 57.1978 62.7122 57.1162 63.1245L56.9599 63.9009H56.6342ZM59.2092 63.7985C59.0173 63.893 58.8026 63.9406 58.5857 63.9375C58.0877 63.9375 57.8674 63.6204 57.8674 63.2298C57.8674 62.6974 58.2888 62.095 58.8975 62.095C59.2562 62.095 59.4513 62.2955 59.4513 62.5483C59.4513 63.0145 58.8934 63.1346 58.1952 63.1245C58.1797 63.2377 58.1933 63.3524 58.234 63.4599C58.2699 63.535 58.3298 63.598 58.4051 63.6402C58.4805 63.6825 58.5678 63.7023 58.6554 63.697C58.8319 63.6962 59.0057 63.6536 59.1626 63.5728L59.2092 63.7985ZM58.8505 62.3327C58.5429 62.3327 58.3118 62.6126 58.234 62.8922C58.7411 62.8922 59.1396 62.8345 59.1396 62.5603C59.1396 62.4131 59.0248 62.3327 58.8505 62.3327ZM60.3809 63.5217C60.5458 63.6245 60.7403 63.6793 60.9385 63.6781C61.2374 63.6781 61.5084 63.5141 61.5084 63.2122C61.5084 63.0303 61.395 62.8951 61.122 62.7526C60.7863 62.5855 60.599 62.3879 60.599 62.1221C60.599 61.684 61.0044 61.3997 61.4886 61.3997C61.6777 61.3953 61.8646 61.4406 62.0276 61.5311L61.9138 61.7782C61.7737 61.7028 61.6168 61.6639 61.4577 61.6654C61.134 61.6654 60.9385 61.8659 60.9385 62.0664C60.9385 62.2668 61.0712 62.3803 61.3442 62.5222C61.6679 62.6826 61.8482 62.8765 61.8482 63.1747C61.8482 63.6018 61.4886 63.9337 60.8998 63.9337C60.677 63.9404 60.4572 63.882 60.2671 63.7657L60.3809 63.5217ZM62.9909 61.6619L62.8913 62.1354H63.3446L63.2935 62.3731H62.8402L62.665 63.2298C62.6439 63.3232 62.6322 63.4184 62.6303 63.5141C62.6269 63.5372 62.6292 63.5608 62.637 63.5827C62.6448 63.6047 62.6579 63.6245 62.6751 63.6402C62.693 63.6566 62.7143 63.6689 62.7375 63.6761C62.7607 63.6834 62.7853 63.6854 62.8093 63.6822C62.8604 63.6825 62.9115 63.6787 62.9619 63.6708L62.9458 63.9085C62.8651 63.9321 62.7807 63.9432 62.6959 63.941C62.4081 63.941 62.2974 63.777 62.2974 63.598C62.2987 63.4864 62.3116 63.3751 62.3362 63.2661L62.5234 62.3731H62.2508L62.3015 62.1354H62.5704L62.6521 61.7382L62.9909 61.6619ZM64.6187 63.9009C64.6244 63.7484 64.6386 63.5964 64.6612 63.4451H64.6534C64.4463 63.8095 64.1891 63.941 63.9202 63.941C63.5886 63.941 63.3774 63.6932 63.3774 63.3575C63.3774 62.745 63.8615 62.0954 64.6843 62.0954C64.8561 62.0954 65.0269 62.1187 65.1914 62.165L65.002 63.0842C64.9456 63.3527 64.9182 63.6265 64.9204 63.9009H64.6187ZM64.8286 62.3617C64.7546 62.344 64.6787 62.3355 64.6026 62.3365C64.1143 62.3365 63.7172 62.8141 63.7131 63.3026C63.7131 63.5 63.7868 63.6932 64.0368 63.6932C64.3057 63.6932 64.6256 63.3651 64.7192 62.8941L64.8286 62.3617ZM66.2493 61.6619L66.1497 62.1354H66.603L66.5522 62.3731H66.098L65.9224 63.2298C65.9013 63.3232 65.8897 63.4184 65.8878 63.5141C65.8843 63.5372 65.8866 63.5607 65.8944 63.5826C65.9022 63.6046 65.9153 63.6242 65.9325 63.6399C65.9506 63.6563 65.9719 63.6685 65.9952 63.6757C66.0184 63.683 66.043 63.6851 66.0671 63.6818C66.1182 63.6825 66.1689 63.6787 66.2194 63.6708L66.2036 63.9085C66.1226 63.9321 66.0381 63.9432 65.9533 63.941C65.6655 63.941 65.5549 63.777 65.5549 63.598C65.5561 63.4864 65.5691 63.3751 65.594 63.2661L65.7812 62.3731H65.5082L65.559 62.1354H65.8279L65.9095 61.7382L66.2493 61.6619ZM67.9707 63.7985C67.7781 63.893 67.5635 63.941 67.346 63.9375C66.8479 63.9375 66.6279 63.6204 66.6279 63.2298C66.6279 62.6974 67.0493 62.095 67.658 62.095C68.0177 62.095 68.2119 62.2955 68.2119 62.5483C68.2119 63.0145 67.6539 63.1346 66.9557 63.1245C66.94 63.2386 66.9532 63.3547 66.9945 63.4628C67.0304 63.5378 67.09 63.6008 67.1653 63.6431C67.2407 63.6853 67.3283 63.7052 67.4159 63.6995C67.5926 63.6988 67.7666 63.6564 67.9237 63.5756L67.9707 63.7985ZM67.6111 62.3327C67.3034 62.3327 67.0733 62.6126 66.9945 62.8922C67.5026 62.8922 67.9001 62.8345 67.9001 62.5603C67.9001 62.4131 67.7835 62.3327 67.6111 62.3327ZM69.5894 61.4753C69.776 61.4416 69.9654 61.4249 70.1555 61.4249C70.4253 61.4249 70.6195 61.4788 70.7601 61.5954C70.8212 61.6411 70.8704 61.6994 70.9038 61.766C70.9369 61.8325 70.9533 61.9053 70.9514 61.9787C70.9514 62.2892 70.6822 62.5184 70.3815 62.5912V62.5988C70.5095 62.6303 70.622 62.7015 70.7008 62.8011C70.7796 62.9004 70.82 63.0221 70.8149 63.146C70.8133 63.2572 70.784 63.3666 70.7292 63.4653C70.6732 63.5654 70.5943 63.6508 70.4991 63.7146C70.2917 63.8609 70.001 63.9161 69.6483 63.9161C69.4655 63.9192 69.283 63.9082 69.1023 63.8823L69.5894 61.4753ZM69.4648 63.6566C69.5541 63.6673 69.6442 63.6718 69.734 63.6708C70.1164 63.6708 70.4751 63.5252 70.4751 63.1308C70.4751 62.8427 70.2141 62.7151 69.9172 62.7151H69.6562L69.4648 63.6566ZM69.7069 62.4859H69.949C70.3238 62.4859 70.6157 62.2993 70.6157 62.0049C70.6157 61.7669 70.4253 61.6654 70.1404 61.6654C70.0497 61.6627 69.9591 61.6712 69.8705 61.6906L69.7069 62.4859ZM72.3639 63.9009C72.3639 63.7947 72.3838 63.6279 72.4068 63.4451H72.3998C72.1924 63.8095 71.9355 63.941 71.6657 63.941C71.3338 63.941 71.1235 63.6932 71.1235 63.3575C71.1235 62.745 71.6077 62.0954 72.4307 62.0954C72.6025 62.0954 72.7731 62.1187 72.9376 62.165L72.7463 63.0842C72.6898 63.3527 72.6625 63.6265 72.6646 63.9009H72.3639ZM72.5732 62.3617C72.4991 62.3441 72.4231 62.3356 72.3469 62.3365C71.8589 62.3365 71.4614 62.8141 71.4573 63.3026C71.4573 63.5 71.5311 63.6932 71.7811 63.6932C72.0499 63.6932 72.3699 63.3651 72.4635 62.8941L72.5732 62.3617ZM73.1488 63.9009L73.4019 62.6498C73.4457 62.4531 73.4687 62.2816 73.4927 62.1354H73.7805L73.7335 62.4821H73.7417C73.8126 62.3671 73.9141 62.2709 74.0361 62.2032C74.1597 62.1351 74.2979 62.0981 74.439 62.0954C74.6659 62.0954 74.919 62.2155 74.919 62.5884C74.9155 62.6839 74.9039 62.7791 74.8844 62.8727L74.6732 63.8981H74.3491L74.5566 62.8799C74.5736 62.8062 74.5824 62.7305 74.5833 62.6546C74.5833 62.4755 74.5096 62.3441 74.2845 62.3441C74.0595 62.3441 73.7256 62.6032 73.6399 63.0413L73.4697 63.9009H73.1488ZM75.2368 63.9009L75.761 61.3111H76.0847L75.7528 62.9345H75.761C75.8187 62.8727 75.8893 62.8065 75.9363 62.7551L76.6036 62.1354H77.002L76.1793 62.8617L76.7451 63.9009H76.3854L75.9331 63.0293L75.6951 63.2298L75.5618 63.9009H75.2368Z" fill="black"/>
</g>
<path fill-rule="evenodd" clip-rule="evenodd" d="M50.1413 32.5731V32.3925H54.7482C56.0958 32.3925 57.0496 32.4486 57.6104 32.5611C58.1814 32.6764 58.7271 32.8936 59.2212 33.2022C59.7623 33.5452 60.2124 34.0142 60.5328 34.569C60.8989 35.1825 61.0866 35.886 61.0746 36.6003C61.0746 38.0957 60.337 39.2759 58.8618 40.1414C60.1365 40.358 61.0986 40.8835 61.7476 41.7185C62.3963 42.5535 62.7213 43.5669 62.7223 44.7591C62.7339 45.8284 62.4441 46.8793 61.886 47.7915C61.3293 48.7027 60.6916 49.3083 59.9736 49.6081C59.2552 49.9078 58.2519 50.0557 56.9636 50.0519H50.1177V49.8722C50.663 49.8722 51.0119 49.7616 51.1633 49.5431C51.3149 49.3247 51.3927 48.7617 51.3927 47.8589V34.5621C51.4031 34.1258 51.3849 33.6892 51.3385 33.2552C51.3251 33.1472 51.2858 33.0441 51.224 32.9545C51.1622 32.865 51.0797 32.7917 50.9836 32.7408C50.7212 32.6155 50.4317 32.5579 50.1413 32.5731ZM53.4366 32.7644V40.5203H55.5902C57.0496 40.5203 58.018 40.1049 58.4952 39.274C58.9465 38.5248 59.1913 37.6695 59.2048 36.7951C59.2048 35.9074 59.0207 35.1664 58.6525 34.5716C58.2681 33.9632 57.702 33.4912 57.0345 33.2224C56.3246 32.9186 55.2803 32.7666 53.9012 32.7666L53.4366 32.7644ZM53.4366 40.8923H54.8204C56.5115 40.8923 57.6763 40.9806 58.314 41.1568C58.9513 41.333 59.5225 41.8288 60.0278 42.644C60.5334 43.4591 60.7859 44.5141 60.7859 45.8087C60.7868 47.0548 60.5022 47.9963 59.932 48.6318C59.3621 49.2676 58.3877 49.5857 57.0096 49.5857C56.1191 49.5857 55.4376 49.5043 54.9648 49.3496C54.4916 49.1951 54.1496 48.9883 53.9368 48.7333C53.7487 48.5222 53.6091 48.2725 53.5277 48.0017C53.4669 47.7703 53.4366 47.2666 53.4366 46.4909V40.8923Z" fill="#231F20"/>
<path d="M69.0247 58.1069C69.0247 58.1069 62.2649 61.4712 55.4202 58.8864C48.807 56.3527 44.2092 58.0744 44.2092 58.0744C44.2092 58.0744 50.7689 54.8123 57.5505 57.2126C64.1136 59.769 69.0247 58.1069 69.0247 58.1069Z" fill="url(#paint0_linear_1_648)"/>
<path d="M44.2095 58.4988C44.2095 58.4988 37.4484 61.8637 30.6044 59.2796C23.9921 56.7446 19.394 58.4676 19.394 58.4676C19.394 58.4676 25.9531 55.2041 32.734 57.6054C39.2969 60.1612 44.2095 58.4988 44.2095 58.4988Z" fill="url(#paint1_linear_1_648)"/>
<path d="M76.9026 55.3598C76.9026 55.3598 70.1428 58.7242 63.2982 56.1394C56.6862 53.6034 52.0872 55.3274 52.0872 55.3274C52.0872 55.3274 58.6468 52.0652 65.4284 54.4656C71.9916 57.0258 76.9026 55.3598 76.9026 55.3598Z" fill="url(#paint2_linear_1_648)"/>
<path d="M52.0871 55.3601C52.0871 55.3601 45.3273 58.7238 38.4827 56.1396C31.8707 53.6053 27.272 55.3276 27.272 55.3276C27.272 55.3276 33.8316 52.0648 40.6129 54.4658C47.1757 57.021 52.0871 55.3601 52.0871 55.3601Z" fill="url(#paint3_linear_1_648)"/>
<path fill-rule="evenodd" clip-rule="evenodd" d="M61.365 33.4002C61.4485 33.3184 61.5057 33.2136 61.5293 33.0992C61.5529 32.9848 61.5419 32.8659 61.4976 32.7577C61.4534 32.6496 61.3779 32.5571 61.2809 32.492C61.1838 32.427 61.0696 32.3923 60.9527 32.3925C60.7968 32.3915 60.6468 32.4522 60.5356 32.5615C60.4243 32.6708 60.3609 32.8197 60.3591 32.9756C60.358 33.1316 60.4186 33.2816 60.5278 33.393C60.6369 33.5043 60.7857 33.5679 60.9417 33.5698C61.0199 33.5709 61.0976 33.5565 61.1703 33.5274C61.243 33.4983 61.3091 33.455 61.365 33.4002ZM60.7046 33.3908C60.6343 33.3488 60.5768 33.2885 60.5382 33.2163C60.4996 33.1441 60.4814 33.0627 60.4856 32.981C60.4814 32.8992 60.4996 32.8179 60.5382 32.7457C60.5768 32.6735 60.6343 32.6131 60.7046 32.5712C60.775 32.5291 60.8555 32.5069 60.9376 32.5069C61.0196 32.5069 61.1001 32.5291 61.1705 32.5712C61.3139 32.6573 61.3981 32.8145 61.3896 32.981C61.3938 33.0627 61.3756 33.1441 61.337 33.2163C61.2984 33.2885 61.2408 33.3488 61.1705 33.3908C61.1001 33.4329 61.0196 33.4551 60.9376 33.4551C60.8555 33.4551 60.775 33.4329 60.7046 33.3908ZM60.8402 33.2848H60.7043V32.703C60.7787 32.6885 60.854 32.6812 60.93 32.6818C61.0012 32.6746 61.0729 32.6906 61.1343 32.7275C61.1577 32.7439 61.1758 32.7666 61.1865 32.7931C61.1971 32.8195 61.1999 32.8485 61.1944 32.8764C61.1888 32.9044 61.1753 32.9302 61.1554 32.9506C61.1355 32.971 61.1101 32.9852 61.0823 32.9914V32.9983C61.1403 33.0172 61.1686 33.0633 61.1863 33.1421C61.1926 33.1915 61.2074 33.2398 61.2301 33.2845H61.0823C61.0583 33.2416 61.0426 33.1946 61.0362 33.1458C61.0328 33.1179 61.0184 33.0924 60.9963 33.0749C60.9742 33.0575 60.946 33.0494 60.918 33.0525H60.8462L60.8402 33.2845V33.2848ZM60.9051 32.9564H60.8402V32.7893C60.8649 32.783 60.8903 32.7802 60.9158 32.7808C61.0057 32.7808 61.0444 32.8092 61.0444 32.8703C61.0444 32.9315 60.9795 32.9564 60.9051 32.9564Z" fill="black"/>
</g>
<defs>
<linearGradient id="paint0_linear_1_648" x1="10.133" y1="61.94" x2="64.1243" y2="61.94" gradientUnits="userSpaceOnUse">
<stop stop-color="white"/>
<stop offset="1" stop-color="#009D56"/>
</linearGradient>
<linearGradient id="paint1_linear_1_648" x1="10.3315" y1="62.3328" x2="64.3188" y2="62.3328" gradientUnits="userSpaceOnUse">
<stop stop-color="white"/>
<stop offset="1" stop-color="#009D56"/>
</linearGradient>
<linearGradient id="paint2_linear_1_648" x1="10.2373" y1="59.1929" x2="64.2271" y2="59.1929" gradientUnits="userSpaceOnUse">
<stop stop-color="white"/>
<stop offset="1" stop-color="#009D56"/>
</linearGradient>
<linearGradient id="paint3_linear_1_648" x1="10.434" y1="59.1919" x2="64.4254" y2="59.1919" gradientUnits="userSpaceOnUse">
<stop stop-color="white"/>
<stop offset="1" stop-color="#009D56"/>
</linearGradient>
<clipPath id="clip0_1_648">
<rect width="58" height="32.7826" fill="white" transform="translate(19 32)"/>
</clipPath>
</defs>
</svg>
