<svg width="96" height="96" viewBox="0 0 96 96" fill="none" xmlns="http://www.w3.org/2000/svg">
<circle cx="48" cy="48" r="47" fill="white" stroke="white" stroke-width="2"/>
<path d="M54.2802 17.9572V26.7443L36.4588 44.3184H40.0958C41.9143 44.3184 43.7328 44.685 44.8239 45.7828C46.2787 47.6137 46.2787 49.8102 46.2787 52.0077V80.199L21.1823 54.9364C21.1823 54.9364 19.0001 52.3733 19.0001 49.8102C19.0001 47.2481 21.1823 44.685 21.1823 44.685L47.3698 18.3237C47.3698 18.3237 50.2795 15.0285 52.098 15.0285C54.2802 14.6619 54.2802 17.9572 54.2802 17.9572Z" fill="#231F20"/>
<path d="M54.2793 68.4834C54.2793 68.4834 54.2794 72.5108 55.7342 72.5108C56.0979 72.5108 57.189 71.7786 57.189 71.7786L75.375 53.4723C77.1936 51.6414 77.5572 48.7127 76.1024 46.8817C76.1024 46.5152 75.7387 46.5152 75.375 46.1496L57.189 27.8432C56.8253 27.4766 56.4616 27.111 55.7342 27.111C53.9156 27.111 53.9156 31.1385 53.9156 31.1385L54.2793 68.4834Z" fill="#231F20"/>
</svg>
