<svg width="96" height="96" viewBox="0 0 96 96" fill="none" xmlns="http://www.w3.org/2000/svg">
<circle cx="48" cy="48" r="47" fill="white" stroke="white" stroke-width="2"/>
<g clip-path="url(#clip0_1_8513)">
<path fill-rule="evenodd" clip-rule="evenodd" d="M48.0001 36.9473C63.9876 36.9473 76.9525 41.9127 76.9525 48.0353C76.9525 54.1582 63.9876 59.1236 48.0001 59.1236C32.0126 59.1236 19.0476 54.1582 19.0476 48.0353C19.0476 41.9127 32.0126 36.9473 48.0001 36.9473Z" fill="#94C42A"/>
<path fill-rule="evenodd" clip-rule="evenodd" d="M48.0001 37.4888C61.0783 37.4888 71.6845 42.2115 71.6845 48.0353C71.6845 53.8592 61.0783 58.5817 48.0001 58.5817C34.9217 58.5817 24.3154 53.8592 24.3154 48.0353C24.3154 42.2115 34.9217 37.4888 48.0001 37.4888Z" fill="url(#paint0_radial_1_8513)"/>
<path fill-rule="evenodd" clip-rule="evenodd" d="M33.8661 45.0427C33.7394 44.8998 33.584 44.7853 33.4101 44.7066C33.2361 44.6279 33.0475 44.5868 32.8565 44.5859C32.0811 44.5859 31.5462 45.3794 31.5462 46.2149C31.5462 47.1825 32.2254 47.7833 32.8985 47.7833C33.4454 47.7833 34.0646 47.2786 34.0646 47.2786L34.1967 47.7232C33.8041 48.0497 33.3128 48.234 32.8023 48.2462C31.8709 48.2462 30.9692 47.5612 30.9692 46.275C30.9692 45.0427 31.8226 44.1413 32.8804 44.1413C33.3495 44.134 33.8028 44.311 34.1427 44.6342L33.8661 45.0427Z" fill="white" stroke="white" stroke-width="0.244829" stroke-miterlimit="2.61313"/>
<path fill-rule="evenodd" clip-rule="evenodd" d="M33.8661 45.0427C33.7394 44.8998 33.584 44.7853 33.4101 44.7066C33.2361 44.6279 33.0475 44.5868 32.8565 44.5859C32.0811 44.5859 31.5462 45.3794 31.5462 46.2149C31.5462 47.1825 32.2254 47.7833 32.8985 47.7833C33.4454 47.7833 34.0646 47.2786 34.0646 47.2786L34.1967 47.7232C33.8041 48.0497 33.3128 48.234 32.8023 48.2462C31.8709 48.2462 30.9692 47.5612 30.9692 46.275C30.9692 45.0427 31.8226 44.1413 32.8804 44.1413C33.3495 44.134 33.8028 44.311 34.1427 44.6342L33.8661 45.0427Z" fill="white" stroke="white" stroke-width="0.244829"/>
<path fill-rule="evenodd" clip-rule="evenodd" d="M36.2941 47.8556C36.9253 47.8556 37.3396 47.2845 37.3396 46.5814C37.3398 45.8782 36.9253 45.3072 36.2941 45.3072C35.663 45.3072 35.2424 45.8782 35.2424 46.5814C35.2424 47.2845 35.663 47.8556 36.2941 47.8556ZM37.8928 46.5513C37.8991 46.7711 37.8614 46.9899 37.7818 47.1948C37.7023 47.3997 37.5825 47.5867 37.4296 47.7446C37.2767 47.9026 37.0937 48.0283 36.8914 48.1145C36.6892 48.2006 36.4717 48.2454 36.2519 48.2463C35.2543 48.2463 34.6832 47.5131 34.6832 46.6114C34.6763 46.392 34.7133 46.1734 34.7923 45.9686C34.8712 45.7638 34.9904 45.5769 35.1428 45.4189C35.2952 45.2609 35.4777 45.135 35.6796 45.0487C35.8814 44.9624 36.0985 44.9175 36.318 44.9165C37.3699 44.9165 37.8928 45.6138 37.8928 46.5513Z" fill="white" stroke="white" stroke-width="0.244829" stroke-miterlimit="2.61313"/>
<path fill-rule="evenodd" clip-rule="evenodd" d="M36.2941 47.8556C36.9253 47.8556 37.3396 47.2845 37.3396 46.5814C37.3396 45.8782 36.9253 45.3072 36.2941 45.3072C35.663 45.3072 35.2424 45.8782 35.2424 46.5814C35.2424 47.2845 35.663 47.8556 36.2941 47.8556ZM37.8928 46.5513C37.8991 46.7711 37.8614 46.9899 37.7818 47.1948C37.7023 47.3997 37.5825 47.5867 37.4296 47.7446C37.2767 47.9026 37.0937 48.0283 36.8914 48.1145C36.6892 48.2006 36.4717 48.2454 36.2519 48.2463C35.2543 48.2463 34.6832 47.5131 34.6832 46.6114C34.6763 46.392 34.7133 46.1734 34.7923 45.9686C34.8712 45.7638 34.9904 45.5769 35.1428 45.4189C35.2952 45.2609 35.4777 45.135 35.6796 45.0487C35.8814 44.9624 36.0985 44.9175 36.318 44.9165C37.3699 44.9165 37.8928 45.6138 37.8928 46.5513Z" fill="white" stroke="white" stroke-width="0.244829"/>
<path fill-rule="evenodd" clip-rule="evenodd" d="M39.4194 46.3103L39.2511 46.0039V47.777L39.3111 48.1676H38.7943V45.439L38.7224 44.9761L39.0707 44.9881L40.6993 47.0435L42.1477 44.9761H42.4727V47.777L42.5327 48.1676H41.9617V45.9983L41.7933 46.2862L40.6754 47.8373L39.4194 46.3103Z" fill="white" stroke="white" stroke-width="0.244829"/>
<path fill-rule="evenodd" clip-rule="evenodd" d="M44.3955 46.3103L44.2272 46.0039V47.777L44.2872 48.1676H43.7706V45.439L43.6982 44.9761L44.0468 44.9881L45.6756 47.0435L47.1241 44.9761H47.4485V47.777L47.5088 48.1676H46.9375V45.9983L46.7694 46.2862L45.6518 47.8373L44.3955 46.3103Z" fill="white" stroke="white" stroke-width="0.244829"/>
<path fill-rule="evenodd" clip-rule="evenodd" d="M51.0849 45.4394L51.0128 44.9766H51.5658V46.8999C51.5658 47.6873 50.9826 48.2462 50.0931 48.2462C49.924 48.2604 49.7538 48.2392 49.5933 48.1839C49.4329 48.1285 49.2858 48.0404 49.1613 47.925C49.0369 47.8096 48.9379 47.6695 48.8706 47.5137C48.8034 47.3579 48.7694 47.1898 48.7708 47.0201V45.4456L48.6926 44.9766H49.2815V46.9839C49.2808 47.1014 49.3041 47.2178 49.35 47.3259C49.3959 47.434 49.4634 47.5316 49.5484 47.6127C49.6334 47.6938 49.7341 47.7566 49.8443 47.7973C49.9544 47.838 50.0718 47.8558 50.1891 47.8495C50.3079 47.8521 50.426 47.8305 50.5363 47.7861C50.6465 47.7416 50.7465 47.6752 50.8303 47.5909C50.9141 47.5066 50.9799 47.4062 51.0236 47.2956C51.0674 47.1851 51.0882 47.0669 51.0849 46.9481L51.0849 45.4394Z" fill="white" stroke="white" stroke-width="0.244829"/>
<path fill-rule="evenodd" clip-rule="evenodd" d="M55.7603 47.7829L55.7965 48.1676H55.5082L53.5008 46.1543L53.2904 45.8717V47.777L53.3504 48.1676H52.8336V45.439L52.7617 44.9761H53.0982L55.0938 46.9835L55.3037 47.2663V45.439L55.2319 44.9761H55.7603V47.7829Z" fill="white" stroke="white" stroke-width="0.244829"/>
<path fill-rule="evenodd" clip-rule="evenodd" d="M57.5514 47.777L57.6114 48.1676H57.0402V45.4452L56.9624 44.9761H57.5514V47.777Z" fill="white" stroke="white" stroke-width="0.244829"/>
<path fill-rule="evenodd" clip-rule="evenodd" d="M58.2422 44.9761H61.0611V45.3849H59.8893V47.777L59.9493 48.1676H59.3786V45.3849H58.2422V44.9761Z" fill="white" stroke="white" stroke-width="0.244829"/>
<path fill-rule="evenodd" clip-rule="evenodd" d="M62.7979 47.777L62.8575 48.1676H62.2872V46.7733L61.446 45.3487V45.3549L61.127 44.9761H61.8122L62.5154 46.1543L62.5818 46.3345L62.6714 46.1602L63.3869 44.9761H63.9163L62.7979 46.7733V47.777Z" fill="white" stroke="white" stroke-width="0.244829"/>
<path fill-rule="evenodd" clip-rule="evenodd" d="M32.2435 50.3425C32.1168 50.1996 31.9614 50.085 31.7874 50.0063C31.6134 49.9276 31.4247 49.8865 31.2337 49.8857C30.4585 49.8857 29.9236 50.679 29.9236 51.5147C29.9236 52.4823 30.6026 53.0834 31.276 53.0834C31.8229 53.0834 32.4418 52.5785 32.4418 52.5785L32.5741 53.023C32.1815 53.3495 31.6902 53.5338 31.1798 53.546C30.2481 53.546 29.3464 52.861 29.3464 51.5748C29.3464 50.3425 30.2 49.4411 31.2576 49.4411C31.7267 49.4336 32.1799 49.6105 32.5199 49.9338L32.2435 50.3425Z" fill="white" stroke="white" stroke-width="0.244829"/>
<path fill-rule="evenodd" clip-rule="evenodd" d="M34.3047 51.8993C34.488 51.9078 34.6675 51.8449 34.8054 51.7238C34.9432 51.6027 35.0288 51.4329 35.044 51.2501C35.044 50.8714 34.7012 50.679 34.3047 50.679H33.9681V51.8993H34.3047ZM35.3685 53.4679L34.419 52.2958L33.9681 52.3019V53.077L34.0281 53.4679H33.4573V50.7452L33.3792 50.2764H34.401C35.0021 50.2764 35.5848 50.5828 35.5848 51.25C35.5706 51.4488 35.5012 51.6396 35.3844 51.8011C35.2676 51.9625 35.108 52.0881 34.9236 52.1637L36.0355 53.4679H35.3685Z" fill="white" stroke="white" stroke-width="0.244829" stroke-miterlimit="2.61313"/>
<path fill-rule="evenodd" clip-rule="evenodd" d="M34.3047 51.8993C34.488 51.9078 34.6675 51.8449 34.8054 51.7238C34.9432 51.6027 35.0288 51.4329 35.044 51.2501C35.044 50.8714 34.7012 50.679 34.3047 50.679H33.9681V51.8993H34.3047ZM35.3685 53.4679L34.419 52.2958L33.9681 52.3019V53.077L34.0281 53.4679H33.4573V50.7452L33.3792 50.2764H34.401C35.0021 50.2764 35.5848 50.5828 35.5848 51.25C35.5706 51.4488 35.5012 51.6396 35.3844 51.8011C35.2676 51.9625 35.108 52.0881 34.9236 52.1637L36.0355 53.4679H35.3685Z" fill="white" stroke="white" stroke-width="0.244829"/>
<path fill-rule="evenodd" clip-rule="evenodd" d="M36.7687 50.745L36.6904 50.2764H38.5718V50.6788H37.2797V51.6286H38.4217L38.2954 52.0313H37.2797V53.0652H38.644L38.5177 53.4679H36.7687V50.745Z" fill="white" stroke="white" stroke-width="0.244829"/>
<path fill-rule="evenodd" clip-rule="evenodd" d="M40.1162 50.667V53.0712H40.7952C41.4086 53.0712 41.8412 52.5365 41.8412 51.8751C41.8412 51.2142 41.4086 50.667 40.7952 50.667L40.1162 50.667ZM40.8917 50.2764C41.6488 50.2764 42.3942 50.7574 42.3942 51.8512C42.4003 52.0693 42.361 52.2863 42.2789 52.4884C42.1967 52.6906 42.0734 52.8734 41.9169 53.0254C41.7603 53.1774 41.5739 53.2952 41.3694 53.3714C41.165 53.4476 40.9469 53.4805 40.7291 53.4679H39.6055V50.7452L39.5271 50.2764H40.8917Z" fill="white" stroke="white" stroke-width="0.244829" stroke-miterlimit="2.61313"/>
<path fill-rule="evenodd" clip-rule="evenodd" d="M40.1162 50.667V53.0712H40.7952C41.4086 53.0712 41.8412 52.5365 41.8412 51.8751C41.8412 51.2142 41.4086 50.667 40.7952 50.667L40.1162 50.667ZM40.8917 50.2764C41.6488 50.2764 42.3942 50.7574 42.3942 51.8512C42.4003 52.0693 42.361 52.2863 42.2789 52.4884C42.1967 52.6906 42.0734 52.8734 41.9169 53.0254C41.7603 53.1774 41.5739 53.2952 41.3694 53.3714C41.165 53.4476 40.9469 53.4805 40.7291 53.4679H39.6055V50.7452L39.5271 50.2764H40.8917Z" fill="white" stroke="white" stroke-width="0.244829"/>
<path fill-rule="evenodd" clip-rule="evenodd" d="M43.8488 53.0768L43.9088 53.4679H43.3378V50.745L43.2595 50.2764H43.8488V53.0768Z" fill="white" stroke="white" stroke-width="0.244829"/>
<path fill-rule="evenodd" clip-rule="evenodd" d="M44.5393 50.2764H47.3582V50.6852H46.1864V53.0768L46.2465 53.4679H45.6757V50.6852H44.5393V50.2764Z" fill="white" stroke="white" stroke-width="0.244829"/>
<path fill-rule="evenodd" clip-rule="evenodd" d="M52.2386 50.0662L52.1607 49.5132H52.7435V51.8873C52.7435 52.861 52.1063 53.546 51.1207 53.546C49.7021 53.546 49.666 52.1395 49.666 52.0436V50.0662L49.5881 49.5132H50.207V51.9954C50.1973 52.1364 50.2164 52.2779 50.2631 52.4112C50.3099 52.5446 50.3833 52.667 50.4789 52.771C50.5745 52.8751 50.6903 52.9585 50.8192 53.0164C50.9482 53.0742 51.0875 53.1051 51.2288 53.1073C51.8238 53.1073 52.2386 52.5904 52.2386 51.9535V50.0662Z" fill="white" stroke="white" stroke-width="0.244829"/>
<path fill-rule="evenodd" clip-rule="evenodd" d="M56.9385 53.0832L56.9742 53.4679H56.686L54.6781 51.4543L54.4684 51.172V53.0768L54.5282 53.4679H54.0113V50.7388L53.9395 50.2764H54.2759L56.2715 52.284L56.4814 52.5661V50.7388L56.4098 50.2764H56.9385V53.0832Z" fill="white" stroke="white" stroke-width="0.244829"/>
<path fill-rule="evenodd" clip-rule="evenodd" d="M58.7289 53.0768L58.7889 53.4679H58.2182V50.745L58.1401 50.2764H58.7289V53.0768Z" fill="white" stroke="white" stroke-width="0.244829"/>
<path fill-rule="evenodd" clip-rule="evenodd" d="M61.2775 53.1554C61.9084 53.1554 62.323 52.5843 62.323 51.8812C62.323 51.178 61.9084 50.607 61.2775 50.607C60.6467 50.607 60.2257 51.178 60.2257 51.8812C60.2257 52.5843 60.6467 53.1554 61.2775 53.1554ZM62.8762 51.8511C62.8825 52.0709 62.8448 52.2896 62.7652 52.4946C62.6857 52.6995 62.5659 52.8864 62.4131 53.0443C62.2602 53.2023 62.0772 53.328 61.875 53.4142C61.6728 53.5003 61.4553 53.5452 61.2355 53.546C60.2374 53.546 59.6666 52.8126 59.6666 51.9112C59.6597 51.6918 59.6967 51.4732 59.7757 51.2684C59.8546 51.0635 59.9738 50.8766 60.1262 50.7186C60.2786 50.5606 60.4611 50.4348 60.663 50.3485C60.8648 50.2622 61.0819 50.2173 61.3014 50.2163C62.3527 50.2163 62.8762 50.9136 62.8762 51.8511Z" fill="white" stroke="white" stroke-width="0.244829" stroke-miterlimit="2.61313"/>
<path fill-rule="evenodd" clip-rule="evenodd" d="M61.2775 53.1554C61.9084 53.1554 62.323 52.5843 62.323 51.8812C62.323 51.178 61.9084 50.607 61.2775 50.607C60.6467 50.607 60.2257 51.178 60.2257 51.8812C60.2257 52.5843 60.6467 53.1554 61.2775 53.1554ZM62.8762 51.8511C62.8825 52.0709 62.8448 52.2896 62.7652 52.4946C62.6857 52.6995 62.5659 52.8864 62.4131 53.0443C62.2602 53.2023 62.0772 53.328 61.875 53.4142C61.6728 53.5003 61.4553 53.5452 61.2355 53.546C60.2374 53.546 59.6666 52.8126 59.6666 51.9112C59.6597 51.6918 59.6967 51.4732 59.7757 51.2684C59.8546 51.0635 59.9738 50.8766 60.1262 50.7186C60.2786 50.5606 60.4611 50.4348 60.663 50.3485C60.8648 50.2622 61.0819 50.2173 61.3014 50.2163C62.3527 50.2163 62.8762 50.9136 62.8762 51.8511Z" fill="white" stroke="white" stroke-width="0.244829"/>
<path fill-rule="evenodd" clip-rule="evenodd" d="M66.7044 53.0832L66.7405 53.4679H66.4518L64.4444 51.4543L64.234 51.172V53.0768L64.2945 53.4679H63.7769V50.7388L63.7058 50.2764H64.0415L66.0374 52.284L66.2473 52.5661V50.7388L66.1754 50.2764H66.7044V53.0832Z" fill="white" stroke="white" stroke-width="0.244829"/>
<path d="M48.9315 40.0498L48.4674 40.1495L46.9917 43.5271H47.7343L48.0842 42.7086H49.2144L49.5521 43.5271H50.4269L50.0556 42.8009L48.9315 40.0498ZM48.9603 42.0608H48.3499L48.6654 41.3322L48.9603 42.0608Z" fill="#92C33E" stroke="#00006D" stroke-width="0.21905" stroke-miterlimit="10"/>
<path d="M41.4921 39.3037C40.4256 39.3037 39.5902 40.2611 39.5901 41.4834C39.5897 42.7284 40.3396 43.598 41.4137 43.5983H41.4141C41.6752 43.5974 41.9329 43.5395 42.1692 43.4285C42.4056 43.3175 42.6147 43.1562 42.7821 42.9558C43.1427 42.5233 43.3361 41.9759 43.3274 41.4129C43.3278 40.1123 42.6246 39.3041 41.4921 39.3037ZM42.5018 41.4483C42.5015 42.3048 42.064 42.9266 41.4614 42.9266C41.3123 42.9238 41.1661 42.8842 41.0359 42.8114C40.9057 42.7386 40.7955 42.6348 40.715 42.5092C40.5099 42.1939 40.4056 41.8236 40.4159 41.4476C40.4162 40.5909 40.8562 39.9693 41.462 39.9693H41.4623C42.0647 39.9696 42.5019 40.5916 42.5018 41.4483Z" fill="#92C33E" stroke="#00006D" stroke-width="0.21905" stroke-miterlimit="10"/>
<path d="M46.4376 42.5703C46.1483 42.7706 45.8136 42.8954 45.4638 42.9337C45.3226 42.9339 45.1827 42.9059 45.0524 42.8514C44.9221 42.7969 44.804 42.7169 44.7049 42.6162C44.6059 42.5155 44.528 42.396 44.4757 42.2648C44.4234 42.1336 44.3978 41.9932 44.4004 41.852C44.4007 41.3035 44.794 40.7115 45.4291 40.7115C45.7323 40.7113 46.0236 40.8295 46.2411 41.0408L46.3388 41.1317L46.7669 40.5826L46.6748 40.5069C46.3335 40.2185 45.8995 40.0632 45.4527 40.0695H45.4522C45.2108 40.0666 44.9712 40.1119 44.7475 40.2027C44.5239 40.2935 44.3206 40.4281 44.1496 40.5985C43.9786 40.7689 43.8433 40.9717 43.7517 41.1951C43.6601 41.4184 43.6139 41.6578 43.616 41.8992C43.616 43.0153 44.5038 43.5993 45.3806 43.5993H45.3821C45.8614 43.5909 46.3265 43.4348 46.7138 43.1523L46.7816 43.0989L46.5714 42.4772L46.4376 42.5703Z" fill="#92C33E" stroke="#00006D" stroke-width="0.21905" stroke-miterlimit="10"/>
<path d="M51.5733 40.1304L50.7253 40.1299L50.8247 40.7253L50.8241 43.5237L52.8059 43.5239L52.995 42.8705L51.573 42.87L51.5733 40.1304Z" fill="#92C33E" stroke="#00006D" stroke-width="0.21905" stroke-miterlimit="10"/>
<path d="M56.235 42.7989L55.1118 40.0474L54.648 40.147L53.1714 43.5245H53.9138L54.2635 42.7062L55.3941 42.7065L55.7315 43.5251H56.6063L56.235 42.7989ZM55.1397 42.0585H54.5299L54.8454 41.3302L55.1397 42.0585Z" fill="#92C33E" stroke="#00006D" stroke-width="0.21905" stroke-miterlimit="10"/>
</g>
<defs>
<radialGradient id="paint0_radial_1_8513" cx="0" cy="0" r="1" gradientUnits="userSpaceOnUse" gradientTransform="translate(48 48.0352) scale(18.3328 18.3328)">
<stop offset="0.53763" stop-color="#00407C"/>
<stop offset="1" stop-color="#00002C"/>
</radialGradient>
<clipPath id="clip0_1_8513">
<rect width="58" height="22.0708" fill="white" transform="translate(19 37)"/>
</clipPath>
</defs>
</svg>
