<svg width="96" height="96" viewBox="0 0 96 96" fill="none" xmlns="http://www.w3.org/2000/svg">
<circle cx="48" cy="48" r="47" fill="white" stroke="white" stroke-width="2"/>
<path d="M27.4919 38.7001L24.512 34.0034H21.572L27.4919 38.7001Z" fill="#FDBA2F"/>
<path d="M25.7537 42.6885L19 41.5481V43.829L25.7537 42.6885Z" fill="#FDBA2F"/>
<path d="M19 38.657L26.1952 40.5087H26.1983L19 35.7753V38.657Z" fill="#FDBA2F"/>
<path d="M25.858 41.5756L19 38.8594V41.2874L25.858 41.5756Z" fill="#FDBA2F"/>
<path d="M30.4964 37.3236H30.4995L30.7079 34.0034H29.5706L30.4964 37.3236Z" fill="#FDBA2F"/>
<path d="M29.4051 37.5658H29.4081L28.8808 34.0034H27.5442L29.4051 37.5658Z" fill="#FDBA2F"/>
<path d="M25.8825 43.8014L19 44.0896V46.5237L25.8825 43.8014Z" fill="#FDBA2F"/>
<path d="M28.3903 38.0317L26.8912 34.0034H25.0579L28.3903 38.0317Z" fill="#FDBA2F"/>
<path d="M26.7501 39.5368V39.5337L21.3299 34.0032H19V35.5422L26.7501 39.5368Z" fill="#FDBA2F"/>
<path d="M26.8083 45.8217L19 49.8806V51.3277H21.4127L26.8083 45.8217Z" fill="#FDBA2F"/>
<path d="M30.5823 47.9614H30.5793L29.6565 51.3276H30.8061L30.5823 47.9614Z" fill="#FDBA2F"/>
<path d="M24.5919 51.3277L27.5657 46.6464L21.6611 51.3277H24.5919Z" fill="#FDBA2F"/>
<path d="M29.5001 47.7469H29.497L27.627 51.3277H28.9697L29.5001 47.7469Z" fill="#FDBA2F"/>
<path d="M26.2412 44.8622L26.2381 44.8591L19 46.72V49.6447L26.2412 44.8622Z" fill="#FDBA2F"/>
<path d="M28.473 47.2993L25.1406 51.3276H26.9739L28.473 47.2993Z" fill="#FDBA2F"/>
<path d="M27.4919 38.7001L24.512 34.0034H21.572L27.4919 38.7001Z" fill="#FDBA2F"/>
<path d="M25.7537 42.6885L19 41.5481V43.829L25.7537 42.6885Z" fill="#FDBA2F"/>
<path d="M19 38.657L26.1952 40.5087H26.1983L19 35.7753V38.657Z" fill="#FDBA2F"/>
<path d="M25.858 41.5756L19 38.8594V41.2874L25.858 41.5756Z" fill="#FDBA2F"/>
<path d="M30.4964 37.3236H30.4995L30.7079 34.0034H29.5706L30.4964 37.3236Z" fill="#FDBA2F"/>
<path d="M29.4051 37.5658H29.4081L28.8808 34.0034H27.5442L29.4051 37.5658Z" fill="#FDBA2F"/>
<path d="M25.8825 43.8014L19 44.0896V46.5237L25.8825 43.8014Z" fill="#FDBA2F"/>
<path d="M28.3903 38.0317L26.8912 34.0034H25.0579L28.3903 38.0317Z" fill="#FDBA2F"/>
<path d="M26.7501 39.5368V39.5337L21.3299 34.0032H19V35.5422L26.7501 39.5368Z" fill="#FDBA2F"/>
<path d="M26.8083 45.8217L19 49.8806V51.3277H21.4127L26.8083 45.8217Z" fill="#FDBA2F"/>
<path d="M30.5823 47.9614H30.5793L29.6565 51.3276H30.8061L30.5823 47.9614Z" fill="#FDBA2F"/>
<path d="M24.5919 51.3277L27.5657 46.6464L21.6611 51.3277H24.5919Z" fill="#FDBA2F"/>
<path d="M29.5001 47.7469H29.497L27.627 51.3277H28.9697L29.5001 47.7469Z" fill="#FDBA2F"/>
<path d="M26.2412 44.8622L26.2381 44.8591L19 46.72V49.6447L26.2412 44.8622Z" fill="#FDBA2F"/>
<path d="M28.473 47.2993L25.1406 51.3276H26.9739L28.473 47.2993Z" fill="#FDBA2F"/>
<path d="M46.4226 50.9871H47.9493V38.387H46.4226V38.0468H52.4222V38.387H50.8955V50.9871H52.4222V51.3274H46.4226V50.9871Z" fill="#23408A"/>
<path d="M53.29 46.3302H53.6303C54.084 48.4609 55.5157 51.2905 58.0633 51.2905C59.685 51.2905 60.7795 50.2911 60.7795 48.6295C60.7795 44.5184 53.2532 47.4768 53.2532 41.7991C53.2532 39.3097 54.9117 37.7432 57.4041 37.7432C59.311 37.7432 59.9149 38.761 60.7611 38.761C61.3282 38.761 61.365 38.2705 61.365 38.0252H61.7053V42.2712H61.365C60.8929 40.2724 59.8383 38.0835 57.4593 38.0835C56.0276 38.0835 54.9516 39.0461 54.9516 40.4992C54.9516 44.1413 62.5913 41.2718 62.5913 46.8759C62.5913 49.819 60.9297 51.6308 58.2717 51.6308C56.6316 51.6308 55.0834 50.6498 54.3292 50.6498C53.8203 50.6498 53.6303 50.9901 53.6303 51.3487H53.29V46.3302Z" fill="#23408A"/>
<path d="M63.1553 50.9871H64.682V38.387H63.1553V38.0468H69.1548V38.387H67.6251V44.1598H72.5302V38.387H71.0004V38.0468H77V38.387H75.4733V50.9871H77V51.3274H71.0004V50.9871H72.5302V44.5001H67.6251V50.9901H69.1548V51.3304H63.1553V50.9871Z" fill="#23408A"/>
<path d="M46.3829 50.8859L39.1264 39.8371L42.6458 36.3422C43.7035 35.3091 45.0585 34.4476 46.6803 34.4476H47.321V34.0031H41.021V34.4476H41.4655C42.4251 34.4476 42.7439 34.6683 42.7439 34.9902C42.7439 35.4072 42.1768 35.9743 41.6372 36.4893L36.027 42.0996V34.4476H38.2649V34.0031L31.8178 34V39.8708L32.5535 38.571L32.1397 40.8028L33.8626 39.3282L32.7099 41.2841L34.8344 40.487L33.0839 41.9279L35.3525 41.9064L33.2127 42.6637L35.3525 43.4178L33.0839 43.3964L34.8344 44.8373L32.7099 44.0402L33.8626 45.9961L32.1366 44.5215L32.5505 46.7533L31.8147 45.4535V50.8828V51.3273H38.1178V50.8828H36.027V42.7894L36.3979 42.446L41.8365 50.8859H39.9173V51.3304H48.161V50.8859H46.3829Z" fill="#23408A"/>
<path d="M42.9401 57.983C42.9339 58.498 43.0044 59.0774 43.685 59.0774C44.292 59.0774 44.7427 58.6728 44.8439 58.078H44.9604C44.8439 58.7433 44.3533 59.1939 43.685 59.1939C42.8389 59.1939 42.2441 58.5409 42.2441 57.5875C42.2441 56.8855 42.8082 55.9811 43.5992 55.9811C44.4545 55.9811 44.896 56.9376 44.896 57.2411C44.896 57.284 44.8745 57.3055 44.8316 57.3055H42.9431V57.983H42.9401ZM44.2001 56.9836C44.2001 56.5206 44.0774 56.0914 43.5992 56.0914C43.0933 56.0914 42.9401 56.5206 42.9401 56.9836V57.1859H44.1479C44.1847 57.1859 44.197 57.1644 44.197 57.1368V56.9836H44.2001Z" fill="#23408A"/>
<path d="M46.9591 57.1706L47.3147 56.7016C47.4006 56.5851 47.4956 56.441 47.4956 56.3827C47.4956 56.2877 47.3944 56.2509 47.1768 56.2509H47.0235V56.1344H48.3632V56.2509H48.1455C47.8635 56.2509 47.7408 56.3459 47.5446 56.5912L47.0173 57.2656L48.075 58.9886H48.5533V59.1051H46.7782V58.9886H47.3423L46.6188 57.8083L46.0915 58.5042C45.975 58.6575 45.9168 58.7924 45.9168 58.8751C45.9168 58.9395 45.9535 58.9916 46.0915 58.9916H46.4165V59.1081H45.0032V58.9916H45.1841C45.5458 58.9916 45.6776 58.8537 45.9719 58.4705L46.5575 57.7102L45.6746 56.254H45.1534V56.1375H46.8334V56.254H46.3981L46.9591 57.1706Z" fill="#23408A"/>
<path d="M48.9428 56.2509H48.4431V56.1344H48.9428C49.1758 56.1344 49.4057 56.1191 49.5498 55.975V56.7138H49.5652C49.697 56.3735 50.0434 55.975 50.5646 55.975C51.4322 55.975 52.0055 56.8732 52.0055 57.5814C52.0055 58.4275 51.4199 59.1878 50.5125 59.1878C50.0128 59.1878 49.6725 58.8169 49.5652 58.5716H49.5498V60.9383H50.1078V61.0548H48.4431V60.9383H48.9428V56.2509ZM49.5498 58.0627C49.5498 58.6268 49.9852 59.0775 50.5125 59.0775C51.2237 59.0775 51.3095 58.6636 51.3095 57.5845C51.3095 56.5942 51.2022 56.0915 50.5646 56.0915C49.9637 56.0915 49.5498 56.6862 49.5498 57.2135V58.0627Z" fill="#23408A"/>
<path d="M53.1488 57.983C53.1427 58.498 53.2132 59.0774 53.8938 59.0774C54.5008 59.0774 54.9514 58.6728 55.0526 58.078H55.1691C55.0526 58.7433 54.5621 59.1939 53.8938 59.1939C53.0476 59.1939 52.4529 58.5409 52.4529 57.5875C52.4529 56.8855 53.017 55.9811 53.8079 55.9811C54.6633 55.9811 55.1047 56.9376 55.1047 57.2411C55.1047 57.284 55.0833 57.3055 55.0403 57.3055H53.1488V57.983ZM54.4088 56.9836C54.4088 56.5206 54.2862 56.0914 53.8079 56.0914C53.3021 56.0914 53.1488 56.5206 53.1488 56.9836V57.1859H54.3567C54.3935 57.1859 54.4088 57.1644 54.4088 57.1368V56.9836Z" fill="#23408A"/>
<path d="M58.2042 58.0842C58.1827 58.6329 57.7045 59.1939 56.9871 59.1939C56.052 59.1939 55.4512 58.5256 55.4512 57.7101C55.4512 56.7598 56.1747 55.978 57.03 55.978C57.5358 55.978 58.0723 56.2018 58.0723 56.6525C58.0723 56.8701 57.9068 57.0142 57.7259 57.0142C57.5021 57.0142 57.3795 56.8548 57.3795 56.7015C57.3795 56.4103 57.5604 56.4256 57.5604 56.3183C57.5604 56.1589 57.2293 56.0945 57.0177 56.0945C56.3157 56.0945 56.1502 56.5513 56.1502 57.238V57.8696C56.1502 58.498 56.1777 59.0775 56.9902 59.0775C57.7229 59.0775 58.0417 58.5256 58.0907 58.0842H58.2042Z" fill="#23408A"/>
<path d="M58.8757 56.2509H58.2441V56.1344C58.9983 56.1497 59.2742 55.8309 59.3968 55.1196H59.4827V56.1344H60.4821V56.2509H59.4827V58.685C59.4827 58.9824 59.6053 59.0744 59.8383 59.0744C60.2001 59.0744 60.3595 58.7402 60.4024 58.6176L60.5097 58.6391C60.4576 58.8138 60.2491 59.1909 59.7126 59.1909C59.2068 59.1909 58.8726 59.0253 58.8726 58.5471V56.2509H58.8757Z" fill="#23408A"/>
<path d="M62.2571 58.9885H62.8273V56.2508H62.2571V56.1343H62.8273C63.1737 56.1343 63.3056 56.1343 63.4374 55.9749V56.6831H63.4527C63.6489 56.3275 63.9524 55.9749 64.495 55.9749C64.958 55.9749 65.4209 56.1037 65.4883 56.7506H65.5037C65.6508 56.3397 66.0095 55.9688 66.5552 55.9749C67.294 55.9811 67.5393 56.4011 67.5393 56.8578V58.9885H68.1126V59.105H66.359V58.9885H66.9323V56.7291C66.9323 56.2079 66.6993 56.0914 66.4264 56.0914C66.0064 56.0914 65.6355 56.5482 65.4914 57.0541V58.9885H66.0402V59.105H64.3111V58.9885H64.8813V56.5911C64.8813 56.2294 64.7004 56.0914 64.4092 56.0914C63.9769 56.0914 63.6489 56.4317 63.4404 56.9468V58.9885H63.9923V59.105H62.2601V58.9885H62.2571Z" fill="#23408A"/>
<path d="M69.7957 55.975C70.7307 55.975 71.3316 56.7506 71.3316 57.5814C71.3316 58.4153 70.7307 59.1878 69.7957 59.1878C68.8606 59.1878 68.2598 58.4122 68.2598 57.5814C68.2598 56.7506 68.8606 55.975 69.7957 55.975ZM70.6357 57.3024C70.6357 56.674 70.6081 56.0945 69.7957 56.0945C68.9863 56.0945 68.9557 56.674 68.9557 57.3024V57.8696C68.9557 58.498 68.9863 59.0775 69.7957 59.0775C70.6081 59.0775 70.6357 58.498 70.6357 57.8696V57.3024Z" fill="#23408A"/>
<path d="M72.0919 56.2509H71.4818V56.1344H72.0919C72.3249 56.1344 72.5548 56.1191 72.6989 55.975V56.8303H72.7142C72.8001 56.5053 73.0545 55.975 73.6493 55.975C73.916 55.975 74.1275 56.1497 74.1275 56.4011C74.1275 56.5881 74.011 56.7414 73.7934 56.7414C73.5542 56.7414 73.4745 56.6188 73.4745 56.4226C73.4745 56.2632 73.5542 56.1559 73.6339 56.1099C73.6033 56.0884 73.5696 56.0884 73.5328 56.0884C73.2354 56.0884 72.6989 56.5605 72.6989 57.5017V58.9855H73.358V59.102H71.4818V58.9855H72.0919V56.2509Z" fill="#23408A"/>
<path d="M74.8877 57.983C74.8816 58.498 74.9521 59.0774 75.6327 59.0774C76.2397 59.0774 76.6903 58.6728 76.7915 58.078H76.908C76.7915 58.7433 76.301 59.1939 75.6327 59.1939C74.7865 59.1939 74.1918 58.5409 74.1918 57.5875C74.1918 56.8855 74.7559 55.9811 75.5468 55.9811C76.4021 55.9811 76.8436 56.9376 76.8436 57.2411C76.8436 57.284 76.8221 57.3055 76.7792 57.3055H74.8908V57.983H74.8877ZM76.1477 56.9836C76.1477 56.5206 76.0251 56.0914 75.5468 56.0914C75.041 56.0914 74.8877 56.5206 74.8877 56.9836V57.1859H76.0986C76.1354 57.1859 76.1477 57.1644 76.1477 57.1368V56.9836Z" fill="#23408A"/>
</svg>
