<svg width="96" height="96" viewBox="0 0 96 96" fill="none" xmlns="http://www.w3.org/2000/svg">
<circle cx="48" cy="48" r="47" fill="white" stroke="white" stroke-width="2"/>
<path d="M59.0063 35C63.7785 35 68.3553 36.8958 71.7297 40.2702C75.1042 43.6447 77 48.2215 77 52.9937V61.1971H41.0354V52.9937C41.0354 48.2254 42.928 43.6521 46.2976 40.2783C49.6671 36.9045 54.238 35.0061 59.0063 35Z" fill="#492E7A"/>
<path d="M36.9937 35C41.762 35.0061 46.3329 36.9045 49.7024 40.2783C53.072 43.6521 54.9646 48.2254 54.9646 52.9937V61.1971H19V52.9937C19 48.2215 20.8958 43.6447 24.2702 40.2702C27.6447 36.8958 32.2215 35 36.9937 35Z" fill="#59C7DB"/>
<path d="M48.0001 38.7563C45.824 40.4356 44.0624 42.592 42.8509 45.0594C41.6395 47.5268 41.0106 50.2393 41.0127 52.988V61.1971H54.9647V52.988C54.9694 50.2412 54.3441 47.5299 53.1367 45.0626C51.9293 42.5954 50.172 40.438 48.0001 38.7563Z" fill="#2B83BF"/>
</svg>
