<svg width="96" height="96" viewBox="0 0 96 96" fill="none" xmlns="http://www.w3.org/2000/svg">
<circle cx="48" cy="48" r="47" fill="white" stroke="white" stroke-width="2"/>
<g clip-path="url(#clip0_1_4716)">
<mask id="mask0_1_4716" style="mask-type:luminance" maskUnits="userSpaceOnUse" x="9" y="37" width="78" height="22">
<path d="M87 37H9V59H87V37Z" fill="white"/>
</mask>
<g mask="url(#mask0_1_4716)">
<path d="M36.5186 43.3295C36.317 43.3981 36.1055 43.4322 35.8928 43.4304H34.3511C34.1412 43.433 33.9324 43.3988 33.734 43.3295C33.5077 43.2508 33.3069 43.1111 33.1532 42.9254C32.9097 42.5951 32.7879 42.189 32.8088 41.7774V38.6535C32.7879 38.2419 32.9097 37.8357 33.1532 37.5054C33.3069 37.3197 33.5077 37.18 33.734 37.1013C33.9324 37.0321 34.1412 36.9978 34.3511 37H35.8928C36.1055 36.9984 36.317 37.0325 36.5186 37.1009C36.741 37.182 36.9381 37.3215 37.0898 37.505C37.3374 37.8332 37.4599 38.2408 37.4346 38.653V41.7769C37.4599 42.1892 37.3374 42.5968 37.0898 42.925C36.9381 43.1085 36.741 43.2479 36.5186 43.3291M35.8024 38.6535H34.4415V41.7769H35.8024V38.6535Z" fill="#0072C6"/>
<path d="M42.8621 43.4304H41.021L40.0774 41.5932H40.0591V43.4304H38.4264V37H41.2386C41.4483 36.9977 41.6569 37.0318 41.8552 37.1009C42.0801 37.1772 42.2785 37.3175 42.4268 37.505C42.6774 37.8321 42.803 38.2397 42.7808 38.6531V39.9397C42.8032 40.3532 42.6775 40.761 42.4268 41.0882C42.2802 41.2734 42.0854 41.4134 41.8644 41.4923L42.8621 43.4304ZM41.1477 38.6535H40.0591V40.3071H41.1477V38.6535Z" fill="#0072C6"/>
<path d="M45.4272 43.4305H43.7946V37H45.2638L46.6517 39.9397V37H48.2844V43.4305H46.8152L45.4272 40.4907V43.4305Z" fill="#0072C6"/>
<path d="M50.9272 41.7774H52.7417V43.4309H49.2946V37H50.9272V41.7774Z" fill="#0072C6"/>
<path d="M34.4415 51.2006H32.8088V44.7701H36.7115V46.4237H34.4415V47.7099H36.5278V49.1793H34.4415V51.2006Z" fill="#0072C6"/>
<path d="M41.537 51.2006H37.6803V44.7701H41.537V46.4237H39.3148V47.3425H41.3557V48.6282H39.3148V49.5471H41.537V51.2006Z" fill="#0072C6"/>
<path d="M45.9535 51.0992C45.7551 51.1687 45.5463 51.203 45.3364 51.2006H42.5247V44.7701H45.3364C45.5463 44.7678 45.755 44.8019 45.9535 44.871C46.1796 44.9497 46.3803 45.0895 46.5338 45.2751C46.7776 45.6055 46.8996 46.0118 46.8786 46.4237V49.6294C46.8931 50.0149 46.7708 50.393 46.5338 50.6951C46.3803 50.8808 46.1796 51.0205 45.9535 51.0992ZM45.2459 46.4237H44.1573V49.5471H45.2459V46.4237Z" fill="#0072C6"/>
<path d="M51.727 51.2006H47.8702V44.7701H51.727V46.4237H49.5048V47.3425H51.5456V48.6282H49.5048V49.5471H51.727V51.2006Z" fill="#0072C6"/>
<path d="M57.1498 51.2006H55.3087L54.3652 49.3629H54.3468V51.2006H52.7141V44.7701H55.5263C55.7362 44.7679 55.9449 44.802 56.1434 44.871C56.3681 44.9475 56.5663 45.0878 56.7145 45.2751C56.965 45.6024 57.0905 46.0102 57.0681 46.4237V47.7094C57.0905 48.1228 56.965 48.5306 56.7145 48.8579C56.5679 49.0431 56.3731 49.183 56.1521 49.262L57.1498 51.2006ZM55.4354 46.4237H54.3468V48.0772H55.4354V46.4237Z" fill="#0072C6"/>
<path d="M59.6167 51.2006H57.9482L59.6424 44.7701H61.439L63.1346 51.2006H61.4565L61.248 50.1902H59.833L59.6167 51.2006ZM60.1066 48.904H60.979L60.5433 46.8371L60.1066 48.904Z" fill="#0072C6"/>
<path d="M65.6112 49.5471H67.4257V51.2006H63.9785V44.7701H65.6112V49.5471Z" fill="#0072C6"/>
<path d="M33.1532 58.4648C32.9054 58.1365 32.7829 57.7286 32.8083 57.3162V54.1928C32.7831 53.7806 32.9055 53.3729 33.1532 53.0447C33.305 52.8614 33.5021 52.7219 33.7243 52.6407C33.9261 52.5722 34.1377 52.5379 34.3506 52.5393H36.6637V54.1928H34.441V57.3162H36.6637V58.9697H34.3506C34.1378 58.9712 33.9262 58.9371 33.7243 58.8688C33.5021 58.7876 33.305 58.6481 33.1532 58.4648Z" fill="#0072C6"/>
<path d="M42.0718 58.9702H40.2307L39.2872 57.1344H39.2693V58.9721H37.6366V52.5398H40.4506C40.6605 52.5375 40.8692 52.5716 41.0677 52.6407C41.2924 52.7172 41.4906 52.8574 41.6389 53.0448C41.8895 53.372 42.0152 53.7798 41.9929 54.1933V55.479C42.0155 55.8926 41.8898 56.3005 41.6389 56.6276C41.4923 56.8126 41.2977 56.9526 41.0769 57.0317L42.0718 58.9702ZM40.3588 54.1933H39.2693V55.8469H40.3588V54.1933Z" fill="#0072C6"/>
<path d="M46.8601 58.9703H43.0034V52.5398H46.8601V54.1933H44.6379V55.1122H46.6788V56.3984H44.6379V57.3167H46.8601V58.9703Z" fill="#0072C6"/>
<path d="M51.2766 58.8689C51.0782 58.9383 50.8694 58.9726 50.6595 58.9702H47.8478V52.5398H50.6595C50.8694 52.5375 51.0781 52.5716 51.2766 52.6407C51.5027 52.7194 51.7034 52.8591 51.8569 53.0448C52.1007 53.3751 52.2227 53.7814 52.2017 54.1933V57.4018C52.2161 57.7872 52.0938 58.1651 51.8569 58.4671C51.7035 58.6529 51.5028 58.7927 51.2766 58.8712M50.5691 54.1933H49.4805V57.3167H50.5691V54.1933Z" fill="#0072C6"/>
<path d="M54.8303 52.5398H53.1976V58.9703H54.8303V52.5398Z" fill="#0072C6"/>
<path d="M60.1475 52.5398V54.1933H58.7885V58.9703H57.1558V54.1933H55.7949V52.5398H60.1475Z" fill="#0072C6"/>
<path d="M66.1297 52.5695H67.7619V57.3464C67.7828 57.7583 67.6608 58.1646 67.4171 58.495C67.2653 58.6784 67.0682 58.8179 66.8459 58.8991C66.6442 58.9674 66.4328 59.0015 66.2201 59H64.6783C64.465 59.0024 64.2528 58.9691 64.0502 58.9014C63.828 58.8201 63.631 58.6807 63.4791 58.4973C63.2353 58.167 63.1133 57.7606 63.1343 57.3488V52.5695H64.7669V57.3464H66.1278L66.1297 52.5695Z" fill="#0072C6"/>
<path d="M70.4047 59H68.772V52.5695H70.2412L71.6287 55.5092V52.5695H73.2614V59H71.7922L70.4047 56.0603V59Z" fill="#0072C6"/>
<path d="M75.9018 52.5695H74.2692V59H75.9018V52.5695Z" fill="#0072C6"/>
<path d="M80.6015 58.9014C80.4 58.9698 80.1887 59.0039 79.9762 59.0023H78.4339C78.2242 59.0046 78.0157 58.9705 77.8173 58.9014C77.5911 58.8227 77.3903 58.683 77.2365 58.4973C76.9928 58.167 76.8708 57.7607 76.8917 57.3488V54.2231C76.8709 53.8114 76.9929 53.4052 77.2365 53.075C77.39 52.8891 77.5909 52.7493 77.8173 52.6709C78.0156 52.6017 78.2242 52.5674 78.4339 52.5696H79.9762C80.1887 52.5681 80.4 52.6024 80.6015 52.6709C80.8241 52.7518 81.0214 52.8913 81.1731 53.075C81.4209 53.4031 81.5434 53.8108 81.5179 54.2231V57.3465C81.5433 57.7589 81.4208 58.1667 81.1731 58.495C81.0212 58.6785 80.8239 58.8179 80.6015 58.8991M79.8857 54.2231H78.5248V57.3465H79.8857V54.2231Z" fill="#0072C6"/>
<path d="M84.1423 59H82.5073V52.5695H83.9766L85.3645 55.5092V52.5695H86.9972V59H85.528L84.14 56.0603L84.1423 59Z" fill="#0072C6"/>
<path d="M30.7226 59H9V37.0135H15.146V52.7634H24.5968V37.0135H30.7226V59Z" fill="#0072C6"/>
<path d="M17.3732 39.3273C17.2992 39.3525 17.2216 39.365 17.1436 39.3645H16.5757C16.4987 39.3654 16.4221 39.3528 16.3493 39.3273C16.2661 39.2986 16.1922 39.2473 16.1358 39.179C16.0459 39.0577 16.001 38.9082 16.0091 38.7567V37.6077C16.0012 37.4565 16.0461 37.3072 16.1358 37.186C16.1922 37.1175 16.266 37.066 16.3493 37.0372C16.4221 37.0117 16.4987 36.9991 16.5757 37H17.1432C17.2212 36.9995 17.2988 37.012 17.3727 37.0372C17.4547 37.0669 17.5273 37.1182 17.583 37.186C17.6741 37.3067 17.719 37.4566 17.7097 37.6082V38.7567C17.7191 38.9084 17.6741 39.0583 17.583 39.179C17.5274 39.2465 17.4549 39.2977 17.3732 39.3273ZM17.1096 37.6068H16.6087V38.7567H17.1096V37.6068Z" fill="#0072C6"/>
<path d="M19.8356 39.3645H19.1588L18.8117 38.6889H18.8053V39.3645H18.2052V37H19.2387C19.3159 36.9991 19.3926 37.0117 19.4655 37.0372C19.5483 37.0652 19.6213 37.1169 19.6758 37.186C19.7679 37.3063 19.814 37.4562 19.8057 37.6082V38.0811C19.814 38.2331 19.7679 38.383 19.6758 38.5033C19.622 38.5714 19.5504 38.6228 19.4692 38.6517L19.8356 39.3645ZM19.2052 37.6077H18.8048V38.216H19.2052V37.6077Z" fill="#0072C6"/>
<path d="M20.9081 39.3645H20.308V37H20.8456L21.3562 38.0811V37H21.9567V39.3645H21.4182L20.9081 38.2834V39.3645Z" fill="#0072C6"/>
<path d="M23.061 38.7568H23.7281V39.3645H22.4609V37H23.061V38.7568Z" fill="#0072C6"/>
<path d="M23.7263 45.6262L23.7309 40.2406H16.011V51.8888H23.7309V46.5037H19.7823V45.6262H23.7263Z" fill="#0072C6"/>
</g>
</g>
<defs>
<clipPath id="clip0_1_4716">
<rect width="78" height="22" fill="white" transform="translate(9 37)"/>
</clipPath>
</defs>
</svg>
