<svg width="96" height="96" viewBox="0 0 96 96" fill="none" xmlns="http://www.w3.org/2000/svg">
<circle cx="48" cy="48" r="47" fill="white" stroke="white" stroke-width="2"/>
<g clip-path="url(#clip0_1_280)">
<path d="M63.0543 47.4121C62.3767 47.1267 61.6238 46.1952 61.6238 45.6694C61.6238 45.2487 61.5785 45.2187 61.0816 45.2187C60.6451 45.2187 60.4192 45.0985 59.9675 44.6478C59.0189 43.7163 58.8834 42.3491 59.6061 41.2374C59.8621 40.8467 60.871 40.2608 61.3076 40.2608C61.5335 40.2608 61.624 40.1707 61.624 39.9003C61.624 39.4045 62.2111 38.6082 62.8286 38.2927C63.5965 37.8871 64.9065 37.9171 65.5389 38.3528C66.1864 38.7885 66.5777 39.3293 66.6229 39.8402C66.653 40.1707 66.7435 40.2458 67.2252 40.3209C67.5866 40.381 67.9781 40.5913 68.3093 40.9369L68.8364 41.4477L74.0914 41.4928C79.0302 41.5378 79.3766 41.5529 79.6777 41.8233C80.0843 42.1989 80.1144 43.1153 79.7229 43.4609C79.5723 43.6111 79.2111 43.7163 78.9248 43.7163C78.6237 43.7163 78.2774 43.8064 78.1268 43.9116C77.7504 44.1971 77.9762 44.6177 78.5032 44.6177H78.9399V47.6225H76.6963L76.6512 46.3154C76.606 45.0234 76.606 44.9933 76.2296 44.9933C75.8531 44.9933 75.8531 45.0234 75.8078 46.3154L75.7626 47.6225H73.3534L73.3986 46.1652L73.4439 44.6928L73.9408 44.6478C74.3323 44.6027 74.4227 44.5276 74.4227 44.2421C74.4227 44.0618 74.3173 43.8515 74.1816 43.8064C74.0462 43.7614 72.8115 43.7163 71.4112 43.7163C69.032 43.7163 68.8665 43.7313 68.7761 44.0017C68.6105 44.5426 67.6768 45.2187 67.1048 45.2187C66.8188 45.2187 66.6079 45.2788 66.6682 45.3539C66.7134 45.429 66.6381 45.7896 66.5025 46.1351C66.0056 47.352 64.3342 47.968 63.0543 47.4121ZM64.7106 45.0684C64.9064 44.8581 64.9515 44.6327 64.8912 44.2571C64.8008 43.6712 64.9817 43.521 65.6741 43.6562C66.171 43.7614 66.7434 43.3106 66.7434 42.8149C66.7434 42.3191 66.171 41.8684 65.6741 41.9735C64.9664 42.1087 64.8008 41.9735 64.9062 41.2824C64.9663 40.8017 64.9213 40.6214 64.7105 40.4561C63.9876 39.9453 63.1746 40.4862 63.3252 41.3876C63.4155 41.9435 63.4155 41.9585 62.5422 41.9735C61.8345 41.9886 61.3828 42.5895 61.6388 43.1604C61.8345 43.5811 62.3766 43.8365 62.6777 43.6412C62.753 43.5961 62.9637 43.5961 63.1294 43.6412C63.3853 43.7163 63.4154 43.8215 63.3401 44.3022C63.2648 44.798 63.2949 44.9182 63.5961 45.1285C64.063 45.444 64.3794 45.429 64.7106 45.0684Z" fill="#DA262E"/>
<path d="M18.0324 57.7485C17.3247 57.3578 16.5869 56.6217 16.2857 55.9606C15.9394 55.2094 15.8942 53.3014 16.2256 52.5352C16.9633 50.7474 19.0563 49.876 20.9836 50.5521C22.0828 50.9427 23.0766 52.1145 23.0766 53.031C23.0766 53.3014 22.9861 53.3315 22.1129 53.3315C21.1794 53.3315 21.1342 53.3165 20.8483 52.8207C20.5169 52.2498 19.9146 52.0394 19.1617 52.2047C18.0023 52.4601 17.5957 54.6536 18.5142 55.7353C18.8304 56.1259 18.9959 56.186 19.6134 56.186C20.2308 56.186 20.3964 56.1259 20.6522 55.7954C20.8329 55.57 20.9686 55.2994 20.9686 55.1944C20.9686 55.029 21.2396 54.9841 22.0377 54.9841H23.1218L23.0164 55.4649C22.8508 56.2912 22.399 56.9973 21.7365 57.463C21.1643 57.8687 20.9686 57.9137 19.7943 57.9588C18.8154 57.9889 18.3636 57.9288 18.0324 57.7485ZM24.6125 57.7334C23.739 57.3128 23.3174 56.5916 23.2573 55.4348C23.182 54.278 23.5283 53.4216 24.236 52.9108C26.2688 51.4986 28.934 52.7305 28.949 55.1043V55.7353H25.019L25.2601 56.186C25.486 56.6217 25.7269 56.7118 26.4647 56.6367C26.6303 56.6217 26.8411 56.5165 26.9315 56.3963C27.067 56.2309 27.3531 56.186 28.0307 56.216L28.9341 56.2611L28.6932 56.7569C28.3017 57.5532 27.3983 57.9888 26.1485 57.9888C25.5009 57.9888 24.9287 57.8837 24.6125 57.7334ZM26.9916 54.3831C26.9916 54.1428 26.4043 53.632 26.1182 53.632C25.7568 53.632 25.1847 54.0526 25.1847 54.323C25.1847 54.4885 25.3953 54.5334 26.0881 54.5334C26.585 54.5334 26.9916 54.4733 26.9916 54.3831ZM29.2502 55.2094V52.43H30.244C31.1626 52.43 31.2379 52.4451 31.1626 52.7305C31.0873 53.031 31.0873 53.031 31.4638 52.7305C32.3371 52.0394 33.8578 52.2197 34.3699 53.0761C34.6258 53.4967 34.671 53.8424 34.671 55.7804V57.9888H32.8941L32.8338 56.0959C32.7736 54.1127 32.6983 53.9324 32.0207 53.9324C31.3582 53.9324 31.2076 54.3531 31.2076 56.2311V57.9888H29.2502V55.2094ZM36.538 57.8386C35.8755 57.5682 35.7249 57.1325 35.7249 55.4048V53.7822H35.2732C34.8365 53.7822 34.8214 53.7521 34.8214 53.1061C34.8214 52.4601 34.8365 52.43 35.2732 52.43C35.7249 52.43 35.7249 52.415 35.7249 51.6037V50.7774H37.5318V52.43H38.7364V53.7822H37.5318V54.8939C37.5318 56.3362 37.5919 56.4865 38.2244 56.4865H38.7364V57.9888L37.8028 57.9738C37.2758 57.9738 36.7036 57.9137 36.538 57.8386Z" fill="#231F20"/>
<path d="M40.0162 57.7034C38.1641 56.5916 38.1189 53.9925 39.9107 52.7906C40.513 52.3849 41.3864 52.2195 42.2447 52.3549C43.4041 52.5502 44.4581 53.9474 44.4581 55.3296V55.7352H42.5006C41.4314 55.7352 40.5432 55.7953 40.5432 55.8705C40.5432 55.9456 40.6636 56.1558 40.8142 56.3511C41.1605 56.7567 41.9134 56.8018 42.3199 56.4414C42.6512 56.1409 44.3075 56.0808 44.3075 56.3662C44.3075 56.6515 43.5547 57.5231 43.1029 57.7635C42.4555 58.094 40.5883 58.0639 40.0162 57.7034ZM42.3199 54.2028C41.9736 53.677 41.6725 53.5568 41.2358 53.7521C41.0401 53.8424 40.7841 54.0526 40.6937 54.2329C40.5432 54.5183 40.5733 54.5333 41.537 54.5333C42.5307 54.5333 42.5307 54.5333 42.3199 54.2028ZM44.7592 55.2094V52.415L45.7079 52.4601C46.5059 52.5051 46.6414 52.5502 46.6264 52.7756C46.5964 53.031 46.6113 53.031 46.8674 52.8056C47.1987 52.5051 48.0568 52.2497 48.4033 52.3699C48.6292 52.43 48.6743 52.6253 48.6743 53.3014V54.1728L48.0568 54.1127C47.5751 54.0676 47.3642 54.1277 47.0781 54.398C46.7318 54.7136 46.7167 54.8338 46.7167 56.3662V57.9888H44.7592V55.2094ZM27.8949 48.6741V47.9229H28.4069C29.2953 47.9229 29.3705 47.6224 28.8738 46.1501C28.5877 45.3538 28.4069 44.9932 28.3769 45.1885C28.3316 45.504 28.2563 45.5191 26.3741 45.5191C25.305 45.5191 24.4317 45.5641 24.4317 45.6393C24.4317 45.6994 24.5371 45.9097 24.6726 46.09C24.9437 46.4806 25.9374 46.5557 26.2235 46.2102C26.4193 45.9848 28.1961 45.8045 28.1961 46.0149C28.1961 46.0749 28.0907 46.3304 27.9702 46.5707C27.2173 48.013 24.7176 48.2834 23.3625 47.0665C22.6698 46.4355 22.4139 45.7444 22.5043 44.6777C22.7001 42.3791 25.6815 41.2223 27.3378 42.7847L27.7594 43.1904L27.6088 42.7697C27.5185 42.5293 27.4432 42.319 27.4432 42.2739C27.4432 42.2439 27.91 42.2138 28.4671 42.2138H29.491L29.9277 43.8064C30.1686 44.6777 30.3944 45.3087 30.4395 45.1885C30.4848 45.0834 30.6805 44.3923 30.9064 43.6411L31.2979 42.289L32.3067 42.2439L33.3156 42.1988V40.2607H35.5742C38.7513 40.2607 39.4891 40.6063 39.4891 42.1237C39.4891 42.6195 39.3837 42.9049 39.1127 43.2355C38.7664 43.6561 38.7513 43.7012 39.0073 43.7763C39.7301 44.0167 40.0463 45.7144 39.5343 46.5858C39.0374 47.4271 38.2093 47.6675 35.6344 47.7426L33.3156 47.8177L33.2855 45.1284L33.2403 42.4392L32.1863 45.3388C31.6141 46.9313 31.0269 48.4487 30.8763 48.6891C30.53 49.26 30.0632 49.4253 28.8586 49.4253H27.8949V48.6741ZM37.4413 45.8796C37.5919 45.8195 37.6824 45.6092 37.6824 45.2787C37.6824 44.6477 37.366 44.4674 36.267 44.4674H35.4236V45.9698H36.3119C36.8089 45.9698 37.3058 45.9247 37.4413 45.8796ZM26.2988 44.1369C25.8622 43.3707 25.2448 43.2054 24.7328 43.7162C24.236 44.212 24.3715 44.3172 25.4255 44.3172C26.1633 44.3172 26.3741 44.2721 26.2988 44.1369ZM37.2004 42.98C37.3209 42.9049 37.3811 42.6645 37.351 42.4242C37.3058 42.0035 37.2757 41.9885 36.3723 41.9434L35.4236 41.8983V43.1153H36.2217C36.6433 43.1153 37.095 43.0552 37.2004 42.98ZM41.1906 47.7576C40.5733 47.5773 39.9409 46.8261 39.9409 46.2552C39.9409 45.6843 40.3021 44.9782 40.6937 44.7679C40.8744 44.6777 41.5219 44.4975 42.1694 44.3773C43.4643 44.1369 43.6902 43.9866 43.4041 43.6411C43.0877 43.2655 42.0489 43.3857 42.0489 43.8064C42.0489 43.9566 41.823 44.0167 41.1455 44.0167C40.3021 44.0167 40.242 43.9866 40.242 43.6711C40.242 41.9885 44.0064 41.4326 45.0755 42.965C45.2863 43.2655 45.3465 43.7463 45.3918 45.5641L45.437 47.7726H44.5637C43.9614 47.7726 43.6753 47.7125 43.6149 47.5623C43.5548 47.397 43.4643 47.382 43.1332 47.5473C42.5458 47.8327 41.7478 47.9079 41.1906 47.7576ZM43.2083 46.3904C43.2987 46.2853 43.4041 45.9848 43.4492 45.7294L43.5396 45.2486L42.847 45.4289C42.0941 45.6242 41.7929 45.9247 41.9435 46.3304C42.064 46.6158 42.9975 46.6609 43.2083 46.3904Z" fill="#231F20"/>
<path d="M16.1501 44.0167V40.2607H18.2431L18.2885 41.4927L18.3336 42.7397L19.3876 41.4927L20.4417 40.2607H21.6764C22.369 40.2607 22.9261 40.3208 22.9261 40.3809C22.9261 40.441 22.4744 40.9368 21.9322 41.4626C21.3901 42.0035 20.8181 42.6195 20.6523 42.8448L20.3512 43.2655L21.8569 45.459C22.7001 46.6609 23.3777 47.6675 23.3777 47.7125C23.3777 47.8177 21.0589 47.7726 20.878 47.6524C20.7877 47.5924 20.3211 46.9463 19.8392 46.1951C19.3723 45.459 18.9508 44.813 18.9206 44.7829C18.8906 44.7529 18.725 44.843 18.5593 44.9932C18.3034 45.2186 18.2582 45.459 18.2582 46.5257V47.7726H16.1501V44.0167ZM45.9639 44.9932V42.2138H46.8673C47.6654 42.2138 47.7708 42.2439 47.7708 42.5143C47.7708 42.7847 47.8009 42.7847 48.3128 42.4392C49.2916 41.7781 50.6769 42.0335 51.1587 42.965C51.3243 43.2955 51.3846 43.9265 51.3846 45.5942V47.7877L50.451 47.7426L49.5024 47.6975L49.4271 45.7444L49.3518 43.7913L48.9001 43.7463C48.0719 43.6862 47.9966 43.8364 47.9213 45.8496L47.8461 47.6975L46.9125 47.7426L45.9639 47.7877V44.9932ZM51.8363 44.0167V40.2607H53.6432V43.8965L54.4111 43.0552L55.179 42.2138H56.2178C56.79 42.2138 57.2568 42.2589 57.2568 42.319C57.2568 42.3791 56.8352 42.8448 56.3233 43.3707L55.4047 44.3021L56.4738 45.9247C57.0761 46.8261 57.558 47.6074 57.558 47.6675C57.558 47.8027 55.5704 47.8027 55.3594 47.6524C55.2841 47.5924 54.953 47.1266 54.6367 46.6008C53.929 45.4289 53.6429 45.5191 53.6429 46.8862V47.7726H51.836V44.0167H51.8363Z" fill="#231F20"/>
</g>
<defs>
<clipPath id="clip0_1_280">
<rect width="64" height="20" fill="white" transform="translate(16 38)"/>
</clipPath>
</defs>
</svg>
