<svg width="96" height="96" viewBox="0 0 96 96" fill="none" xmlns="http://www.w3.org/2000/svg">
<circle cx="48" cy="48" r="47" fill="white" stroke="white" stroke-width="2"/>
<path fill-rule="evenodd" clip-rule="evenodd" d="M16.4118 45.6054C17.3347 45.5875 18.2521 45.4589 19.1443 45.2223C19.4781 45.9142 19.722 46.6757 19.7904 47.4843H16.4122V45.6054H16.4118ZM16.4118 45.1207V41.7767C16.996 42.2805 18.1186 43.3568 18.9138 44.7799C18.0956 44.9887 17.2561 45.1031 16.4118 45.1207ZM15.9262 45.1194C15.0821 45.0991 14.243 44.9842 13.4246 44.7769C14.2194 43.3542 15.3424 42.2796 15.9262 41.7763V45.1194ZM15.9262 45.6041V47.4843H12.548C12.6159 46.6735 12.8607 45.9103 13.1954 45.2171C13.9707 45.4217 14.894 45.5808 15.9262 45.6041ZM12.0607 47.4843H10.0002C10.0349 46.3796 10.367 45.3048 10.9615 44.373C11.524 44.6595 12.1106 44.8961 12.7145 45.08C12.3725 45.8113 12.1256 46.6195 12.0607 47.4843ZM12.0434 47.97C12.0482 48.8028 12.2302 49.6171 12.587 50.4093C12.0371 50.5832 11.5022 50.8013 10.9874 51.0614C10.3878 50.138 10.0474 49.0704 10.0019 47.9704L12.0434 47.97ZM12.529 47.97H15.9262V49.845C14.9564 49.8685 13.9931 50.0108 13.0579 50.2687C12.7106 49.5198 12.5342 48.7527 12.529 47.97ZM15.9262 50.3297V53.6387C14.7314 52.7012 13.8488 51.723 13.2832 50.709C14.1462 50.4789 15.0333 50.3516 15.9262 50.3297ZM16.4118 50.3289C17.3054 50.3476 18.1936 50.4741 19.057 50.7055C18.4913 51.7208 17.6079 52.7003 16.4118 53.6387V50.3289ZM16.4118 49.8441V47.97H19.8089C19.8038 48.7514 19.6282 49.5163 19.2822 50.2649C18.347 50.0041 17.3825 49.8628 16.4118 49.8441ZM20.2941 47.97H22.3754C22.328 49.0707 21.9858 50.1385 21.3847 51.0618C20.8564 50.805 20.3108 50.5853 19.7519 50.4045C20.1078 49.614 20.2889 48.8015 20.2941 47.97ZM20.2773 47.4843C20.2124 46.6208 19.9663 45.8143 19.6256 45.0839C20.2397 44.8925 20.8382 44.6543 21.4158 44.3713C22.0112 45.3033 22.3436 46.3789 22.378 47.4843H20.2773ZM21.1348 43.9683C20.5761 44.2375 19.9976 44.4632 19.4042 44.6433C18.6362 43.2167 17.5495 42.127 16.8888 41.5432C18.2782 41.6985 20.1735 42.4664 21.1348 43.9683ZM15.4436 41.5484C14.7824 42.1335 13.7009 43.2202 12.9351 44.6411C12.352 44.4677 11.7852 44.2436 11.2413 43.9713C11.4142 43.7425 12.8884 41.8636 15.4436 41.5484ZM11.2711 51.4614C11.7648 51.2166 12.2773 51.0116 12.8036 50.8482C13.3632 51.8878 14.2306 52.8871 15.4008 53.8397C12.6804 53.3961 11.4363 51.6759 11.2711 51.4614ZM16.9307 53.8449C18.1047 52.8897 18.9752 51.8873 19.5352 50.8456C20.0463 51.006 20.5692 51.2097 21.1015 51.4631C20.5999 52.1179 19.9726 52.6658 19.2564 53.0749C18.5402 53.4839 17.7495 53.7457 16.9307 53.8449ZM31.1727 46.1715C31.1727 46.2636 31.1727 46.328 31.0625 46.328C30.998 46.328 30.9427 46.3094 30.8415 46.1624C30.5098 45.6651 30.1691 45.2323 29.3219 45.2323C27.8119 45.2323 27.1118 46.7055 27.1118 47.8843C27.1118 49.173 27.8672 50.6463 29.2575 50.6463C30.1046 50.6463 30.5098 50.1312 30.8964 49.4216C30.9146 49.3853 30.9885 49.2469 31.0806 49.2469C31.2186 49.2469 31.2186 49.3295 31.2186 49.3948L31.145 50.1771C31.136 50.3064 31.1178 50.389 30.9241 50.4997C30.777 50.5918 30.16 50.8772 29.2303 50.8772C26.9008 50.8772 25.8785 49.0908 25.8785 47.9211C25.8785 46.6415 26.9834 44.9931 29.3868 44.9931C29.8101 44.9931 29.9671 45.0208 30.5933 45.122C31.0075 45.1955 31.0534 45.2785 31.0906 45.5272L31.1727 46.1715ZM33.6938 50.8767C32.2663 50.8767 31.4192 49.7533 31.4192 48.7129C31.4192 47.6629 32.2849 46.549 33.657 46.549C34.7065 46.549 35.8762 47.2396 35.8762 48.6303C35.8762 49.8549 34.9738 50.8767 33.6938 50.8767Z" fill="black"/>
<path fill-rule="evenodd" clip-rule="evenodd" d="M33.6661 50.6649C34.3385 50.6649 34.9184 49.8087 34.9184 48.7224C34.9184 48.0863 34.5867 46.7609 33.5835 46.7609C32.9206 46.7609 32.377 47.4238 32.377 48.5477C32.377 49.6893 32.9388 50.6649 33.6661 50.6649Z" fill="white"/>
<path fill-rule="evenodd" clip-rule="evenodd" d="M41.7775 47.9488C41.7775 47.682 41.7775 47.0558 41.0038 47.0558C40.5896 47.0558 40.3223 47.2582 40.2121 47.3689C40.0832 47.5068 40.0737 47.7001 40.0737 47.8939V49.8735C40.0737 50.3885 40.0737 50.4992 40.4512 50.5541C40.6817 50.5818 40.7275 50.6285 40.7275 50.7111C40.7275 50.821 40.6354 50.821 40.571 50.821C40.424 50.821 40.129 50.7846 39.6317 50.7846C39.1254 50.7846 38.8305 50.821 38.6834 50.821C38.6099 50.821 38.5269 50.821 38.5269 50.702C38.5269 50.6194 38.5909 50.5823 38.8032 50.5541C39.1807 50.4992 39.1807 50.398 39.1807 49.8735V48.0781C39.1807 47.608 39.0519 47.0926 38.4162 47.0926C38.0019 47.0926 37.7991 47.2119 37.6244 47.4056C37.5046 47.5341 37.477 47.7001 37.477 47.9211V49.8739C37.477 50.389 37.477 50.4997 37.8545 50.5546C38.0845 50.5823 38.1308 50.629 38.1308 50.7116C38.1308 50.8214 38.0387 50.8214 37.9557 50.8214C37.8363 50.8214 37.4956 50.7851 37.0259 50.7851C36.6026 50.7851 36.2246 50.8214 36.0776 50.8214C36.0041 50.8214 35.9029 50.8214 35.9029 50.7025C35.9029 50.6199 35.9855 50.5827 36.1883 50.5546C36.5844 50.4997 36.5844 50.3985 36.5844 49.8822V48.1144C36.5844 47.682 36.5844 47.4792 36.3081 47.461C36.1607 47.4519 36.05 47.4519 36.05 47.3321C36.05 47.2772 36.0867 47.24 36.1879 47.2123C36.2523 47.1942 36.8417 46.9455 37.1271 46.6139C37.1916 46.5399 37.2651 46.4478 37.3295 46.4478C37.4121 46.4478 37.4307 46.5308 37.4307 46.6139V47.0649C37.4307 47.2214 37.4307 47.2491 37.4674 47.2491C37.4951 47.2491 37.541 47.2028 37.5963 47.1479C38.1118 46.6048 38.4434 46.5494 38.8577 46.5494C38.9684 46.5494 39.5392 46.5585 39.8341 47.0281C39.963 47.2305 39.9812 47.2491 40.0183 47.2491C40.0828 47.2491 40.2947 47.0186 40.3405 46.9819C40.7089 46.6779 41.0497 46.549 41.3718 46.549C42.5688 46.549 42.67 47.3689 42.67 47.6725V49.8735C42.67 50.3885 42.67 50.4992 43.0479 50.5541C43.278 50.5818 43.3238 50.6285 43.3238 50.7111C43.3238 50.821 43.2321 50.821 43.1673 50.821C43.0293 50.821 42.7072 50.7846 42.228 50.7846C41.7031 50.7846 41.4268 50.821 41.2797 50.821C41.2153 50.821 41.1232 50.821 41.1232 50.702C41.1232 50.6194 41.1967 50.5823 41.3995 50.5541C41.777 50.4992 41.777 50.398 41.777 49.8735L41.7775 47.9488Z" fill="black"/>
<path fill-rule="evenodd" clip-rule="evenodd" d="M48.9964 47.9488C48.9964 47.682 48.9964 47.0558 48.2228 47.0558C47.8085 47.0558 47.5417 47.2582 47.431 47.3689C47.3021 47.5068 47.293 47.7001 47.293 47.8939V49.8735C47.293 50.3885 47.293 50.4992 47.6706 50.5541C47.9006 50.5818 47.9469 50.6285 47.9469 50.7111C47.9469 50.821 47.8548 50.821 47.7903 50.821C47.6429 50.821 47.3484 50.7846 46.8511 50.7846C46.3447 50.7846 46.0498 50.821 45.9028 50.821C45.8293 50.821 45.7463 50.821 45.7463 50.702C45.7463 50.6194 45.8107 50.5823 46.0226 50.5541C46.4001 50.4992 46.4001 50.398 46.4001 49.8735V48.0781C46.4001 47.608 46.2712 47.0926 45.636 47.0926C45.2217 47.0926 45.0189 47.2119 44.8438 47.4056C44.724 47.5341 44.6967 47.7001 44.6967 47.9211V49.8739C44.6967 50.389 44.6967 50.4997 45.0743 50.5546C45.3043 50.5823 45.3506 50.629 45.3506 50.7116C45.3506 50.8214 45.2585 50.8214 45.1754 50.8214C45.0561 50.8214 44.7153 50.7851 44.2457 50.7851C43.8224 50.7851 43.4444 50.8214 43.2974 50.8214C43.2239 50.8214 43.1227 50.8214 43.1227 50.7025C43.1227 50.6199 43.2053 50.5827 43.4081 50.5546C43.8038 50.4997 43.8038 50.3985 43.8038 49.8822V48.1144C43.8038 47.682 43.8038 47.4792 43.5275 47.461C43.38 47.4519 43.2697 47.4519 43.2697 47.3321C43.2697 47.2772 43.3065 47.24 43.4077 47.2123C43.4717 47.1942 44.0615 46.9455 44.3469 46.6139C44.4109 46.5399 44.4849 46.4478 44.5493 46.4478C44.6319 46.4478 44.6505 46.5308 44.6505 46.6139V47.0649C44.6505 47.2214 44.6505 47.2491 44.6872 47.2491C44.7149 47.2491 44.7607 47.2028 44.8161 47.1479C45.3316 46.6048 45.6632 46.5494 46.0775 46.5494C46.1878 46.5494 46.759 46.5585 47.0535 47.0281C47.1823 47.2305 47.2009 47.2491 47.2377 47.2491C47.3021 47.2491 47.514 47.0186 47.5599 46.9819C47.9283 46.6779 48.269 46.549 48.5916 46.549C49.7886 46.549 49.8898 47.3689 49.8898 47.6725V49.8735C49.8898 50.3885 49.8898 50.4992 50.2673 50.5541C50.4969 50.5818 50.5436 50.6285 50.5436 50.7111C50.5436 50.821 50.4515 50.821 50.3875 50.821C50.2491 50.821 49.9265 50.7846 49.4474 50.7846C48.9229 50.7846 48.6465 50.821 48.4991 50.821C48.4351 50.821 48.343 50.821 48.343 50.702C48.343 50.6194 48.4165 50.5823 48.6193 50.5541C48.9968 50.4992 48.9968 50.398 48.9968 49.8735L48.9964 47.9488ZM51.7773 48.05C51.6204 48.05 51.5373 48.059 51.5373 48.5382C51.5373 49.5695 52.2188 50.3609 53.1676 50.3609C53.5814 50.3609 53.9589 50.2047 54.1803 49.9924C54.3187 49.8549 54.3282 49.8454 54.3831 49.8454C54.4471 49.8454 54.4657 49.9003 54.4657 49.928C54.4657 50.0664 53.8214 50.8763 52.6517 50.8763C51.4361 50.8763 50.5159 50.0746 50.5159 48.7955C50.5159 47.4329 51.5473 46.5486 52.7996 46.5486C54.1898 46.5486 54.4843 47.5708 54.4843 47.8839C54.4843 48.0495 54.3831 48.0495 54.2361 48.0495L51.7773 48.05Z" fill="black"/>
<path fill-rule="evenodd" clip-rule="evenodd" d="M52.9101 47.7646C53.3053 47.7646 53.5358 47.5618 53.5358 47.3226C53.5358 46.7791 52.9101 46.7609 52.7713 46.7609C51.9427 46.7609 51.6573 47.5159 51.6573 47.6634C51.6573 47.7646 51.6945 47.7646 51.9055 47.7646H52.9101Z" fill="white"/>
<path fill-rule="evenodd" clip-rule="evenodd" d="M56.0771 47.083C56.0771 47.1379 56.0771 47.2119 56.1328 47.2119C56.1605 47.2119 56.2064 47.1565 56.2154 47.1384C56.234 47.1107 56.6851 46.5862 57.2187 46.5862C57.5508 46.5862 57.8816 46.7704 57.8816 47.1384C57.8816 47.5159 57.5503 47.6633 57.3199 47.6633C57.1179 47.6633 56.9886 47.5898 56.842 47.4238C56.6851 47.2491 56.6115 47.2305 56.5566 47.2305C56.3724 47.2305 56.1047 47.3688 56.1047 48.1329V49.8821C56.1047 50.2596 56.1047 50.5087 56.5744 50.5359C56.7772 50.545 56.9065 50.5545 56.9065 50.6929C56.9065 50.8214 56.7867 50.8214 56.7132 50.8214C56.5571 50.8214 55.8103 50.785 55.6446 50.785C55.5071 50.785 54.8347 50.8214 54.6868 50.8214C54.6228 50.8214 54.5307 50.8213 54.5307 50.7024C54.5307 50.6198 54.5947 50.5826 54.807 50.5545C55.2126 50.4996 55.2126 50.3984 55.2126 49.8821V48.1053C55.2126 47.5254 55.0929 47.5072 54.743 47.4886C54.7153 47.4886 54.6232 47.4886 54.6232 47.387C54.6232 47.323 54.6604 47.2858 54.7703 47.2581C54.9822 47.1846 55.5076 46.8992 55.7 46.6964C55.7186 46.6783 55.9305 46.4664 55.9772 46.4664C56.0693 46.4664 56.0775 46.5399 56.0775 46.6229L56.0771 47.083Z" fill="black"/>
<path fill-rule="evenodd" clip-rule="evenodd" d="M60.321 50.3885C60.7729 50.3885 61.1867 50.2043 61.3623 50.0573C61.38 50.0482 61.4263 50.011 61.4626 50.011C61.4998 50.011 61.5452 50.0482 61.5452 50.1031C61.5452 50.2874 60.8551 50.8768 59.8696 50.8768C58.8196 50.8768 57.5773 50.2593 57.5773 48.8318C57.5773 47.3499 58.9394 46.5486 60.0815 46.5486C60.2285 46.5486 61.4994 46.6221 61.4994 47.1561C61.4994 47.285 61.4531 47.8009 61.2231 47.8009C61.067 47.8009 60.9563 47.6534 60.6523 47.2487C60.3669 46.8712 60.1922 46.7514 59.9344 46.7514C59.5288 46.7514 58.59 47.2115 58.59 48.6476C58.5905 49.6521 59.4562 50.3885 60.321 50.3885ZM63.0094 48.05C62.8533 48.05 62.7703 48.0591 62.7703 48.5382C62.7703 49.5695 63.4518 50.3609 64.3997 50.3609C64.8144 50.3609 65.1919 50.2048 65.4133 49.9924C65.5508 49.8549 65.5603 49.8454 65.6161 49.8454C65.6801 49.8454 65.6987 49.9003 65.6987 49.928C65.6987 50.0664 65.0544 50.8763 63.8847 50.8763C62.6691 50.8763 61.7489 50.0746 61.7489 48.7955C61.7489 47.4329 62.7802 46.5486 64.0317 46.5486C65.4228 46.5486 65.7173 47.5708 65.7173 47.8839C65.7173 48.0495 65.6161 48.0495 65.4682 48.0495L63.0094 48.05Z" fill="black"/>
<path fill-rule="evenodd" clip-rule="evenodd" d="M64.1425 47.7646C64.5386 47.7646 64.7691 47.5618 64.7691 47.3226C64.7691 46.7791 64.1425 46.7609 64.0045 46.7609C63.176 46.7609 62.8906 47.5159 62.8906 47.6634C62.8906 47.7646 62.9269 47.7646 63.1388 47.7646H64.1425Z" fill="white"/>
<path fill-rule="evenodd" clip-rule="evenodd" d="M68.6159 46.2545C68.6159 45.4904 68.5796 45.4074 68.1463 45.4074C68.0451 45.4165 67.9807 45.4165 67.9621 45.4165C67.9443 45.4165 67.8246 45.4165 67.8246 45.3153C67.8246 45.2046 67.9621 45.1496 68.1558 45.1311C68.7361 45.0671 70.09 45.0485 70.0991 45.0485C70.5592 45.0485 72.4649 45.0485 72.4649 46.4296C72.4649 47.387 71.5629 47.5808 71.2131 47.6448V47.6634C71.6092 47.6819 72.1242 47.7092 72.5017 48.197C72.7231 48.4824 72.8057 48.805 72.8057 49.109C72.8057 49.4307 72.6496 50.8209 70.826 50.8209C70.7248 50.8209 69.4172 50.7846 69.1504 50.7846C69.1504 50.7846 68.1925 50.8209 68.0178 50.8209C67.9443 50.8209 67.8246 50.8209 67.8246 50.6834C67.8246 50.5541 67.9621 50.5451 68.1558 50.5355C68.6159 50.4992 68.6159 50.2592 68.6159 49.8735V46.2545Z" fill="black"/>
<path fill-rule="evenodd" clip-rule="evenodd" d="M70.2364 47.5341C71.2863 47.5341 71.4156 46.7609 71.4156 46.4202C71.4156 45.6742 70.9733 45.2877 70.1724 45.2877C69.6016 45.2877 69.6016 45.4995 69.6016 45.7387V47.2301C69.6016 47.3776 69.6016 47.5337 69.887 47.5337L70.2364 47.5341ZM69.6012 49.4403C69.6012 50.2139 69.7119 50.5823 70.3843 50.5823C70.4578 50.5823 70.8076 50.5823 71.0559 50.4625C71.5813 50.1957 71.7283 49.634 71.7283 49.2284C71.7283 47.8014 70.5036 47.7832 70.2273 47.7832C69.6107 47.7832 69.6016 47.8286 69.6016 48.1516V49.4403H69.6012Z" fill="white"/>
<path fill-rule="evenodd" clip-rule="evenodd" d="M75.0878 47.5341C75.0878 47.2119 75.061 46.77 74.6277 46.77C74.0941 46.77 73.8913 47.3317 73.8178 47.5432C73.6699 47.9579 73.1363 47.9942 73.1268 47.9942C73.0256 47.9942 72.924 47.9302 72.924 47.81C72.924 47.4973 73.5043 46.5486 74.9036 46.5486C75.7694 46.5486 75.9812 46.8435 75.9812 47.221V49.7896C75.9812 50.075 76.0089 50.3055 76.2666 50.3055C76.3678 50.3055 76.4599 50.2683 76.5335 50.2134C76.6346 50.1308 76.6442 50.1213 76.6896 50.1213C76.7453 50.1213 76.7722 50.1762 76.7722 50.2039C76.7722 50.4253 76.2104 50.8577 75.8061 50.8577C75.4472 50.8577 75.2716 50.5814 75.1618 50.3604C75.0783 50.1857 75.0606 50.1857 75.0325 50.1857C75.0139 50.1857 74.9685 50.2229 74.9685 50.2229C74.5815 50.5356 74.0842 50.8768 73.6695 50.8768C72.9971 50.8768 72.9517 50.2415 72.9517 50.1031C72.9517 49.4307 73.4399 49.0346 74.8578 48.4729C75.0783 48.3808 75.0874 48.3073 75.0874 48.1417L75.0878 47.5341Z" fill="black"/>
<path fill-rule="evenodd" clip-rule="evenodd" d="M75.0876 48.7773C75.0876 48.6852 75.0327 48.6761 74.9864 48.6761C74.858 48.6761 74.6275 48.7959 74.4805 48.8694C73.9002 49.1458 73.9002 49.496 73.9002 49.6794C73.9002 50.1218 74.1121 50.2874 74.3149 50.2874C74.7287 50.2874 75.0876 49.9561 75.0876 49.3118V48.7773Z" fill="white"/>
<path fill-rule="evenodd" clip-rule="evenodd" d="M79.9414 48.2156C79.9414 47.7832 79.9414 47.0926 79.0393 47.0926C78.7622 47.0926 78.4776 47.1938 78.2657 47.4056C78.1273 47.5436 78.091 47.7001 78.091 47.9211V49.8739C78.091 50.389 78.091 50.4997 78.4863 50.5546C78.7167 50.5823 78.7626 50.629 78.7626 50.7116C78.7626 50.8214 78.6713 50.8214 78.6065 50.8214C78.469 50.8214 77.8143 50.7851 77.6396 50.7851C77.5021 50.7851 76.8387 50.8214 76.6913 50.8214C76.6177 50.8214 76.5256 50.8214 76.5256 50.7025C76.5256 50.6199 76.5991 50.5827 76.802 50.5546C77.1981 50.4997 77.1981 50.3985 77.1981 49.8822V48.1144C77.1981 47.682 77.1981 47.4792 76.9217 47.461C76.7747 47.4519 76.6735 47.4519 76.6735 47.3321C76.6735 47.2772 76.7003 47.24 76.802 47.2123C76.8668 47.1942 77.4558 46.9455 77.7412 46.6139C77.8061 46.5399 77.8796 46.4478 77.944 46.4478C78.0266 46.4478 78.0452 46.5308 78.0452 46.6139V47.0649C78.0452 47.2214 78.0452 47.2491 78.0824 47.2491C78.1308 47.2482 78.1769 47.2283 78.2108 47.1938C78.7725 46.6688 79.0489 46.549 79.5647 46.549C80.1727 46.549 80.8356 46.8807 80.8356 47.7369V49.8735C80.8356 50.3885 80.8356 50.4992 81.2309 50.5541C81.4614 50.5818 81.5072 50.6285 81.5072 50.7111C81.5072 50.821 81.4151 50.821 81.3511 50.821C81.2127 50.821 80.5412 50.7846 80.3933 50.7846C80.2558 50.7846 79.5833 50.821 79.4264 50.821C79.3624 50.821 79.2703 50.821 79.2703 50.702C79.2703 50.6194 79.3343 50.5823 79.5466 50.5541C79.9427 50.4992 79.9427 50.398 79.9427 49.8817V48.2156H79.9414Z" fill="black"/>
<path fill-rule="evenodd" clip-rule="evenodd" d="M81.938 45.9781C81.938 45.5729 81.938 45.3152 81.7084 45.2966C81.5337 45.2875 81.4593 45.2784 81.4593 45.1677C81.4593 45.057 81.5419 45.0389 81.7819 44.9926C82.021 44.9468 82.3436 44.8547 82.5279 44.7349C82.5369 44.7258 82.7026 44.606 82.767 44.606C82.8591 44.606 82.8591 44.7072 82.8591 44.7812C82.8591 44.9005 82.8323 45.4903 82.8323 45.6006V48.3262C82.8323 48.4274 82.8323 48.5195 82.9058 48.5195C82.9512 48.5195 83.1726 48.3448 83.2461 48.289L84.0478 47.5989C84.1949 47.4791 84.4163 47.2763 84.4163 47.1474C84.4163 47.0185 84.2965 46.9723 84.1495 46.9541C83.9376 46.9264 83.8545 46.8897 83.8545 46.7976C83.8545 46.6869 83.9921 46.6869 84.0292 46.6869C84.1949 46.6869 84.287 46.7236 84.9776 46.7236C85.4472 46.7236 85.5579 46.6869 85.7235 46.6869C85.7784 46.6869 85.8528 46.705 85.8528 46.7976C85.8528 46.8897 85.8156 46.8988 85.4753 46.9723C85.2262 47.0276 84.8214 47.3225 84.6922 47.4233L83.9185 48.0308L83.7988 48.1134C83.7534 48.1506 83.7348 48.1774 83.7348 48.2427C83.7348 48.2791 83.781 48.3348 83.919 48.5005L85.0982 50.0105C85.4844 50.4987 85.5769 50.535 85.8346 50.5813C85.9172 50.5999 86.0003 50.6276 86.0003 50.7106C86.0003 50.8204 85.8991 50.8204 85.6227 50.8204C85.5492 50.8204 85.0796 50.7841 84.7665 50.7841C84.4902 50.7841 84.0673 50.8204 83.9471 50.8204C83.8913 50.8204 83.7629 50.8204 83.7629 50.7015C83.7629 50.6189 83.8269 50.5722 84.0111 50.5631C84.0669 50.5631 84.2325 50.5446 84.2325 50.4347C84.2325 50.3975 84.1313 50.2319 84.0483 50.1212L83.2465 49.0527C83.1358 48.9056 83.0355 48.7673 82.9434 48.7673C82.8327 48.7673 82.8327 48.8313 82.8327 48.9338V49.873C82.8327 50.324 82.8327 50.4896 83.1454 50.5536C83.3482 50.5908 83.4217 50.5999 83.4217 50.7015C83.4217 50.8204 83.3028 50.8204 83.2375 50.8204C83.0628 50.8204 82.7039 50.7841 82.3726 50.7841C82.0872 50.7841 81.5895 50.8204 81.442 50.8204C81.378 50.8204 81.2859 50.8204 81.2859 50.7015C81.2859 50.6189 81.3499 50.5817 81.5622 50.5536C81.9398 50.5082 81.9398 50.3975 81.9398 49.8812V45.9781H81.938Z" fill="black"/>
</svg>
