<svg width="96" height="96" viewBox="0 0 96 96" fill="none" xmlns="http://www.w3.org/2000/svg">
<circle cx="48" cy="48" r="47" fill="white" stroke="white" stroke-width="2"/>
<g clip-path="url(#clip0_1_8398)">
<path d="M65.7176 45.9454L65.4757 46.4134H65.9511L65.7176 45.9454ZM33.0925 43.7906L33.0904 43.7916L33.0883 43.7906H33.0357V39.6165H49.4534V43.3846L49.4377 43.3941L43.3074 47.422H49.2988L49.3093 47.4357L49.9719 48.2865L50.0098 39.6701L50.0108 39.6364H50.0445L57.4167 39.6333H57.4514V47.7091L62.2902 39.6575L62.3007 39.6406H69.2449L69.2544 39.6575L76.3017 51.5298L76.3332 51.5814H68.4993L68.4898 51.5603L67.9198 50.2478H63.4828L62.8707 51.5614L62.8612 51.5814H32.6245V47.8111L32.6392 47.8006L38.8231 43.7906H33.0925Z" fill="white"/>
<path d="M35.7868 31.975H38.7421V38.0126C44.1729 40.6387 44.1813 50.313 38.7368 53.1452V58.9252H35.7606L35.7637 61.0149H32.6644V58.9252H29.8133V53.1305C28.4893 52.3596 27.4271 51.2869 26.6751 49.9513H20.9656V47.1328L19 47.1233V43.9925L20.9456 43.9851V41.1435H26.7477C27.506 39.8226 28.4651 38.8077 29.8133 38.0263V31.975H32.6634V30.001H35.7826L35.7868 31.975Z" fill="#FFDD04"/>
<path fill-rule="evenodd" clip-rule="evenodd" d="M34.6784 37.7549C35.3346 37.7959 35.9688 37.9169 36.5714 38.1104V32.953H37.6441V38.5426C39.9757 39.6911 41.6783 42.0363 41.9455 44.6234C42.2883 47.932 40.7381 51.0902 37.6441 52.6151V57.9219H36.5714V53.0473C35.9688 53.2409 35.3346 53.3618 34.6784 53.4018V60.0368H33.6057V53.3965C32.9715 53.3502 32.3584 53.2272 31.7747 53.0389V57.9219H30.702V52.6025C29.1371 51.8253 27.8698 50.5402 27.1126 48.9637H21.8522V47.891H26.693C26.5142 47.3115 26.4006 46.7026 26.3617 46.0737H19.916V45.002H26.367C26.4122 44.3763 26.5311 43.7716 26.7151 43.1953H21.8522V42.1236H27.1473C27.9077 40.5776 29.1613 39.3209 30.702 38.5542V32.953H31.7747V38.1178C32.3584 37.9295 32.9715 37.8075 33.6057 37.7612V31.0168H34.6784V37.7549Z" fill="#FDB924"/>
<path d="M66.0351 46.4282L67.2193 47.1581L65.767 44.1418V45.8929L66.0351 46.4282Z" fill="#FDB924"/>
<path d="M65.4157 46.4807L64.2336 47.2095H67.1731L65.992 46.4807H65.4157Z" fill="#FDB924"/>
<path d="M65.6986 44.1428L64.1726 47.1674L65.3999 46.4102L65.6881 45.856L65.6986 45.835V44.1428Z" fill="#FDB924"/>
<path d="M67.2982 47.2791H64.0423L64.0664 47.2286L65.7039 43.981L65.7344 43.919L65.7649 43.981L67.3298 47.2296L67.3529 47.2791H67.2982ZM74.8451 50.6623L68.7506 40.4558L68.7338 40.4253H62.7729L62.7561 40.4547L56.5932 50.636L56.569 50.6749L56.5133 50.7664H62.3722L62.388 50.7307L62.9864 49.4329H68.4835L69.0304 50.7159L69.0461 50.7527H74.8987L74.8451 50.6623Z" fill="#00653B"/>
<path d="M50.7543 50.7065V40.4253H56.6395V50.7664H50.7543V50.7065Z" fill="#00653B"/>
<path d="M33.8938 40.4199H48.6414V42.9334L48.6151 42.9503L40.5488 48.2444H48.9285L48.9475 48.2675L50.7995 50.6233L50.8363 50.6696L50.9131 50.7663H33.4752V48.2423L33.5036 48.2244L41.7046 42.9692H33.8307V42.9103L33.8338 40.4799V40.4199H33.8938Z" fill="#00653B"/>
<path d="M68.7074 40.4177L69.1439 39.71H62.3795L62.8002 40.4177H68.7074Z" fill="#FFD58B"/>
<path d="M76.1754 51.4489L69.2144 39.7249L68.7632 40.4579L74.8829 50.7096L74.886 50.7149L76.1754 51.4489Z" fill="#FFCC6F"/>
<path d="M68.5781 51.5129H76.1491L74.8303 50.761H69.0745L68.5781 51.5129Z" fill="#FDB924"/>
<path d="M67.9891 50.2363L68.5255 51.4689L69.0219 50.7191L68.4981 49.4875L67.9891 50.2363Z" fill="#FFCE75"/>
<path d="M63.4953 50.1804H67.945L68.4466 49.4421H63.0242L63.4953 50.1804Z" fill="#FDB924"/>
<path d="M62.8433 51.4572L63.4281 50.2026L62.9716 49.4854L62.3964 50.7347L62.8433 51.4572Z" fill="#FFCE75"/>
<path d="M56.7015 50.4393L62.7445 40.4568L62.3196 39.7417L57.463 47.8228L57.4798 47.827L56.7015 50.4393Z" fill="#FDB924"/>
<path d="M56.6489 40.4766V50.3771L57.3819 47.913V39.751L56.6489 40.4766Z" fill="#FDB924"/>
<path d="M50.7848 40.4169H56.6121L57.3357 39.7007L50.118 39.7038L50.7848 40.4169Z" fill="#FFD283"/>
<path d="M50.7449 50.4413V40.4746L50.077 39.7605L50.0392 48.3779L50.7449 50.4413Z" fill="#FDB924"/>
<path d="M33.103 39.7268V43.6811L33.8224 42.9344L33.8255 40.4451V40.4398L33.103 39.7268Z" fill="#FFCE75"/>
<path d="M49.3398 39.6838H33.1587L33.8949 40.4105H48.611L49.3398 39.6838Z" fill="#FEC353"/>
<path d="M49.3851 43.3142V39.7354L48.651 40.4684V42.8956L49.3851 43.3142Z" fill="#FFCE75"/>
<path d="M43.178 47.4251L49.3482 43.3709L48.6204 42.9565L40.6792 48.1697L43.178 47.4251Z" fill="#FDB924"/>
<path d="M49.2398 47.4902H43.199L40.6929 48.2359H48.898L49.2398 47.4902Z" fill="#FDB924"/>
<path d="M32.6929 51.4858L33.4669 50.7528V48.2845L32.6929 47.8838V51.4858Z" fill="#FFCE75"/>
<path d="M33.5447 50.7747L32.7633 51.5129H62.7981L62.3406 50.7747H33.5447Z" fill="#FDB924"/>
<path d="M41.5805 43.0396L38.9482 43.7904L32.7275 47.8247L33.4942 48.2201L41.5805 43.0396Z" fill="#FEC353"/>
<path d="M38.9377 43.7223L41.5448 42.9788H33.876L33.1577 43.7223H38.9377Z" fill="#FDB924"/>
<path d="M49.976 48.4021L49.2966 47.5303L48.958 48.2675L50.6775 50.4539L49.976 48.4021Z" fill="#FDB924"/>
<path fill-rule="evenodd" clip-rule="evenodd" d="M46.6864 53.16L46.7695 53.7542C46.2699 53.6574 45.7651 53.5764 45.2414 53.5543C44.7334 53.5322 44.0393 53.5217 43.5503 53.7752C43.2116 53.9498 42.9613 54.3031 43.0581 54.7028C43.1391 55.0351 43.4072 55.2949 43.931 55.4516C44.3632 55.5809 44.9669 55.6409 45.783 55.6188C46.4487 55.5998 47.1207 55.4863 47.7675 55.3338L47.1859 55.9984C46.0049 56.071 44.6672 56.173 43.4588 56.0047C42.5785 55.8827 41.8076 55.6892 41.3281 55.3685C41.0589 55.1876 40.8811 54.9667 40.8275 54.6954C40.7549 54.3273 41.0736 54.0076 41.3523 53.8099C41.9128 53.4081 42.6984 53.2851 43.3683 53.1999C44.3927 53.0706 45.518 53.0832 46.6864 53.16Z" fill="#00653B"/>
<path fill-rule="evenodd" clip-rule="evenodd" d="M50.3999 53.5638V54.5945C50.7859 54.5461 51.0982 54.4777 51.3065 54.3694C51.44 54.3011 51.5904 54.1833 51.5925 54.0203C51.5946 53.8625 51.4495 53.7184 51.2423 53.649C51.0309 53.5765 50.7312 53.5554 50.3999 53.5638ZM48.0273 53.1863H51.9701C52.3781 53.1863 53.5476 53.384 53.5613 53.8856C53.576 54.3831 52.5737 54.5819 52.2761 54.6102L53.3467 55.3401C53.7369 55.6062 54.1407 55.8355 54.5824 56.0048L52.7126 56.0468C52.3518 56.0542 51.9764 55.9606 51.684 55.7471L50.4073 54.8111L50.4083 55.6188C50.4062 55.826 50.6208 55.9501 50.7848 56.0269H48.0547C48.2345 55.9448 48.4123 55.7976 48.4133 55.5841L48.427 53.6112C48.428 53.3787 48.2345 53.241 48.0273 53.1863Z" fill="#00653B"/>
<path fill-rule="evenodd" clip-rule="evenodd" d="M54.7517 53.1863H58.9637L58.9994 53.791C58.7828 53.6459 58.5409 53.5891 58.2738 53.588L57.1684 53.5859L57.1674 54.3032H58.6208V54.8868C58.462 54.7449 58.239 54.7144 58.0361 54.7144L57.1674 54.7175L57.1642 55.5894L58.6955 55.5915C59.1393 55.5925 59.5326 55.5157 59.9522 55.3622L59.4884 56.0269H54.7349C54.9158 55.9448 55.1366 55.8628 55.1377 55.5841L55.1503 53.6112C55.1524 53.3787 54.9589 53.241 54.7517 53.1863Z" fill="#00653B"/>
<path fill-rule="evenodd" clip-rule="evenodd" d="M67.3939 53.1863H70.2229C70 53.2452 69.8117 53.3567 69.8107 53.648L69.8064 55.5347C69.8064 55.8092 69.9884 55.9574 70.2408 56.0269H67.3771C67.5569 55.9448 67.7788 55.8628 67.7799 55.5841L67.7935 53.6112C67.7935 53.3787 67.6011 53.241 67.3939 53.1863Z" fill="#00653B"/>
<path fill-rule="evenodd" clip-rule="evenodd" d="M74.2803 53.6049L74.2793 53.648L74.274 55.5337C74.273 55.8081 74.4854 55.9575 74.7378 56.0269H71.8436C72.0245 55.9449 72.2474 55.8628 72.2474 55.5841L72.2611 53.6112V53.6049H71.7426C71.3009 53.6049 70.7972 53.6722 70.3828 53.8257L70.8266 53.1516H76.0955L75.7243 53.8363C75.5476 53.6575 75.2195 53.6049 74.9776 53.6049H74.2803Z" fill="#00653B"/>
<path fill-rule="evenodd" clip-rule="evenodd" d="M58.8175 57.0659H61.5045C61.2816 57.1269 61.0933 57.2384 61.0923 57.536L61.0996 59.4574C61.0996 59.7361 61.27 59.8876 61.5224 59.958H58.8007C58.9815 59.8739 59.2024 59.7908 59.2045 59.5069L59.2171 57.4982C59.2182 57.2615 59.0257 57.1206 58.8175 57.0659Z" fill="#00653B"/>
<path fill-rule="evenodd" clip-rule="evenodd" d="M62.6067 53.6227V55.5936L63.2524 55.6178C64.4492 55.6619 65.0834 55.1603 65.1076 54.6481C65.1339 54.1012 64.5534 53.6154 63.3197 53.6206L62.6067 53.6227ZM60.2341 53.1863H63.5322C64.1253 53.1863 64.6764 53.2052 65.2643 53.3304C66.1582 53.5197 67.2046 53.914 67.1794 54.5945C67.15 55.378 66.0531 55.7334 65.1675 55.8996C64.5944 56.0069 64.0654 56.0269 63.4849 56.0269H60.2604C60.4403 55.9448 60.619 55.7976 60.6201 55.5841L60.6327 53.6112C60.6348 53.3787 60.4413 53.241 60.2341 53.1863Z" fill="#00653B"/>
<path fill-rule="evenodd" clip-rule="evenodd" d="M48.612 57.0659H51.2991C51.0761 57.1269 50.8879 57.2384 50.8868 57.536L50.8952 59.4574C50.8942 59.7361 51.0646 59.8876 51.317 59.958H49.0432V59.6194C48.2902 59.9948 47.6003 60.0337 46.7884 59.978C46.0512 59.9286 45.3729 59.6951 45.3729 59.0746L45.375 57.4982C45.376 57.2615 45.1499 57.1206 44.9427 57.0659H47.6298C47.4058 57.1269 47.2175 57.2384 47.2175 57.536L47.2228 58.8979C47.2238 59.3112 47.3953 59.4606 47.8233 59.5069C48.3302 59.5615 49.0432 59.428 49.0432 58.8737L49.0443 57.4982C49.0453 57.2615 48.8203 57.1206 48.612 57.0659Z" fill="#00653B"/>
<path fill-rule="evenodd" clip-rule="evenodd" d="M51.705 57.0659H53.7683L56.8571 58.8527L56.8529 57.5791C56.854 57.3415 56.6615 57.1206 56.4533 57.0659H58.3168C58.0928 57.1269 57.9056 57.3194 57.9056 57.617L57.9025 60.0159H57.7963C56.9612 60.0159 56.1031 59.7624 55.3837 59.3407L53.3466 58.1702L53.3351 59.4301C53.3351 59.7098 53.5138 59.8602 53.7673 59.9307H51.8732C52.0541 59.8476 52.2844 59.7635 52.2855 59.4806L52.3034 57.7148C52.3065 57.3541 52.0089 57.1458 51.705 57.0659Z" fill="#00653B"/>
<path fill-rule="evenodd" clip-rule="evenodd" d="M65.5283 57.4423C66.5168 57.4896 67.3172 57.9366 67.3172 58.595C67.3172 59.2533 66.5168 59.6224 65.5283 59.573C64.5407 59.5257 63.7394 59.0777 63.7394 58.432C63.7394 57.7852 64.5407 57.3939 65.5283 57.4423ZM65.5283 56.9954C67.558 56.9954 69.2039 57.5685 69.2039 58.4919C69.2039 59.4174 67.558 59.9895 65.5283 59.9895C63.4985 59.9895 61.8527 59.4174 61.8527 58.5087C61.8527 57.6001 63.4985 56.9954 65.5283 56.9954Z" fill="#00653B"/>
<path fill-rule="evenodd" clip-rule="evenodd" d="M69.4479 57.0659H71.5113L74.599 58.8527L74.5948 57.5791C74.5969 57.3415 74.4034 57.1206 74.1962 57.0659H76.0598C75.8358 57.1269 75.6486 57.3194 75.6465 57.617L75.6454 60.0159H75.5392C74.7042 60.0159 73.8449 59.7624 73.1256 59.3407L71.0885 58.1702L71.078 59.4301C71.0769 59.7098 71.2568 59.8602 71.5092 59.9307H69.6151C69.796 59.8476 70.0263 59.7635 70.0284 59.4806L70.0463 57.7148C70.0494 57.3541 69.7518 57.1458 69.4479 57.0659Z" fill="#00653B"/>
<mask id="mask0_1_8398" style="mask-type:luminance" maskUnits="userSpaceOnUse" x="58" y="63" width="3" height="3">
<path d="M58.8459 63.6536H60.1921V65.4036H58.8459V63.6536Z" fill="white"/>
</mask>
<g mask="url(#mask0_1_8398)">
<path d="M58.9185 65.3772V63.7429H59.1488L59.6725 64.5695C59.7935 64.7609 59.8881 64.9334 59.9649 65.1006L59.9701 65.0985C59.9512 64.8798 59.9459 64.681 59.9459 64.4265V63.7429H60.1447V65.3772H59.9312L59.4127 64.5475C59.2992 64.3666 59.1898 64.1794 59.1078 64.0027L59.1004 64.0048C59.112 64.2109 59.1172 64.4076 59.1172 64.6789V65.3772H58.9185Z" fill="#231F20"/>
</g>
<mask id="mask1_1_8398" style="mask-type:luminance" maskUnits="userSpaceOnUse" x="60" y="63" width="2" height="3">
<path d="M60.192 63.9229H61.5382V65.4036H60.192V63.9229Z" fill="white"/>
</mask>
<g mask="url(#mask1_1_8398)">
<path d="M61.249 64.6768C61.2522 64.5401 61.1933 64.3297 60.9535 64.3297C60.7379 64.3297 60.6432 64.5285 60.6264 64.6768H61.249ZM60.6243 64.8293C60.6285 65.1174 60.8136 65.2363 61.0261 65.2363C61.1796 65.2363 61.2711 65.21 61.351 65.1753L61.3878 65.3288C61.3121 65.3625 61.1838 65.4035 60.9977 65.4035C60.6359 65.4035 60.4203 65.1637 60.4203 64.8093C60.4203 64.4559 60.6285 64.1772 60.9703 64.1772C61.3542 64.1772 61.4551 64.5138 61.4551 64.7304C61.4551 64.7735 61.4509 64.8072 61.4478 64.8293H60.6243Z" fill="#231F20"/>
</g>
<mask id="mask2_1_8398" style="mask-type:luminance" maskUnits="userSpaceOnUse" x="61" y="64" width="3" height="2">
<path d="M61.5382 64.1919H63.4228V65.4034H61.5382V64.1919Z" fill="white"/>
</mask>
<g mask="url(#mask2_1_8398)">
<path d="M61.8043 64.2034L61.9589 64.7997C61.9936 64.9311 62.0252 65.0521 62.0462 65.173H62.0536C62.0809 65.0542 62.1188 64.928 62.1577 64.7997L62.3491 64.2034H62.5289L62.7109 64.7902C62.754 64.9311 62.7876 65.0542 62.815 65.173H62.8223C62.8413 65.0542 62.8728 64.9311 62.9117 64.7923L63.079 64.2034H63.2903L62.9117 65.377H62.7182L62.5384 64.8165C62.4974 64.6861 62.4637 64.5694 62.4343 64.4316H62.429C62.4006 64.5725 62.3638 64.6935 62.3228 64.8197L62.1335 65.377H61.94L61.5856 64.2034H61.8043Z" fill="#231F20"/>
</g>
<mask id="mask3_1_8398" style="mask-type:luminance" maskUnits="userSpaceOnUse" x="63" y="63" width="3" height="3">
<path d="M63.9612 63.6536H65.8458V65.4036H63.9612V63.6536Z" fill="white"/>
</mask>
<g mask="url(#mask3_1_8398)">
<path d="M65.3999 64.6589C65.3883 64.4318 65.3736 64.1583 65.3757 63.9543H65.3683C65.3126 64.1457 65.2453 64.3518 65.1622 64.5748L64.874 65.3667H64.7142L64.4502 64.5895C64.3724 64.3592 64.3072 64.1478 64.2609 63.9543H64.2567C64.2514 64.1583 64.2388 64.4318 64.2251 64.6768L64.181 65.3772H63.9801L64.0937 63.7429H64.3629L64.6416 64.5338C64.71 64.7347 64.7657 64.9134 64.8067 65.0838H64.8141C64.8551 64.9187 64.9129 64.7389 64.9855 64.5338L65.2768 63.7429H65.546L65.647 65.3772H65.4419L65.3999 64.6589Z" fill="#231F20"/>
</g>
<mask id="mask4_1_8398" style="mask-type:luminance" maskUnits="userSpaceOnUse" x="65" y="63" width="3" height="3">
<path d="M65.8458 63.9229H67.192V65.4036H65.8458V63.9229Z" fill="white"/>
</mask>
<g mask="url(#mask4_1_8398)">
<path d="M66.7229 64.6768C66.725 64.5401 66.6671 64.3297 66.4274 64.3297C66.2118 64.3297 66.1171 64.5285 66.1003 64.6768H66.7229ZM66.0982 64.8293C66.1024 65.1174 66.2864 65.2363 66.4999 65.2363C66.6524 65.2363 66.745 65.21 66.8249 65.1753L66.8617 65.3288C66.786 65.3625 66.6577 65.4035 66.4705 65.4035C66.1098 65.4035 65.8942 65.1637 65.8942 64.8093C65.8942 64.4559 66.1024 64.1772 66.4442 64.1772C66.827 64.1772 66.929 64.5138 66.929 64.7304C66.929 64.7735 66.9238 64.8072 66.9217 64.8293H66.0982Z" fill="#231F20"/>
</g>
<mask id="mask5_1_8398" style="mask-type:luminance" maskUnits="userSpaceOnUse" x="66" y="64" width="3" height="2">
<path d="M66.9227 64.1919H68.2689V65.4034H66.9227V64.1919Z" fill="white"/>
</mask>
<g mask="url(#mask5_1_8398)">
<path d="M67.2846 64.2034L67.4518 64.4558C67.4959 64.521 67.5317 64.582 67.5706 64.6472H67.578C67.6169 64.5767 67.6558 64.5168 67.6947 64.4537L67.8598 64.2034H68.0901L67.6895 64.7702L68.1017 65.377H67.8598L67.6874 65.112C67.6411 65.0447 67.6022 64.9795 67.5612 64.909H67.5559C67.518 64.9816 67.476 65.0426 67.4328 65.112L67.2635 65.377H67.028L67.4444 64.7776L67.0469 64.2034H67.2846Z" fill="#231F20"/>
</g>
<mask id="mask6_1_8398" style="mask-type:luminance" maskUnits="userSpaceOnUse" x="68" y="63" width="1" height="3">
<path d="M68.2689 63.6536H68.8074V65.4036H68.2689V63.6536Z" fill="white"/>
</mask>
<g mask="url(#mask6_1_8398)">
<path d="M68.3079 65.3774V64.2037H68.5203V65.3774H68.3079ZM68.5445 63.8745C68.5476 63.9471 68.494 64.0049 68.4088 64.0049C68.3342 64.0049 68.2805 63.9471 68.2805 63.8745C68.2805 63.7999 68.3363 63.741 68.4141 63.741C68.494 63.741 68.5445 63.7999 68.5445 63.8745Z" fill="#231F20"/>
</g>
<mask id="mask7_1_8398" style="mask-type:luminance" maskUnits="userSpaceOnUse" x="68" y="63" width="2" height="3">
<path d="M68.5381 63.9229H69.8842V65.4036H68.5381V63.9229Z" fill="white"/>
</mask>
<g mask="url(#mask7_1_8398)">
<path d="M69.7107 65.3331C69.655 65.3626 69.5309 65.4036 69.3742 65.4036C69.0197 65.4036 68.7894 65.1617 68.7894 64.802C68.7894 64.4413 69.0366 64.1794 69.4194 64.1794C69.5456 64.1794 69.6571 64.211 69.716 64.2404L69.6665 64.4056C69.616 64.3761 69.5361 64.3488 69.4194 64.3488C69.1512 64.3488 69.005 64.5475 69.005 64.7926C69.005 65.0639 69.1796 65.2311 69.4131 65.2311C69.534 65.2311 69.6139 65.1996 69.6739 65.1733L69.7107 65.3331Z" fill="#231F20"/>
</g>
<mask id="mask8_1_8398" style="mask-type:luminance" maskUnits="userSpaceOnUse" x="69" y="63" width="3" height="3">
<path d="M69.615 63.9229H71.2304V65.4036H69.615V63.9229Z" fill="white"/>
</mask>
<g mask="url(#mask8_1_8398)">
<path d="M70.0766 64.7925C70.0766 65.0491 70.2239 65.2436 70.4321 65.2436C70.6361 65.2436 70.7886 65.0522 70.7886 64.7872C70.7886 64.5895 70.6898 64.3371 70.4374 64.3371C70.185 64.3371 70.0766 64.5695 70.0766 64.7925ZM71.0074 64.7809C71.0074 65.2142 70.7066 65.4035 70.4226 65.4035C70.105 65.4035 69.86 65.1711 69.86 64.7998C69.86 64.4076 70.1176 64.1772 70.4426 64.1772C70.7792 64.1772 71.0074 64.4223 71.0074 64.7809Z" fill="#231F20"/>
</g>
<path d="M71.9519 64.9966C71.8131 64.9966 71.6995 64.8872 71.6995 64.7442C71.6974 64.6011 71.8131 64.4875 71.954 64.4875C72.0949 64.4875 72.2085 64.6011 72.2085 64.7421C72.2085 64.8851 72.097 64.9966 71.954 64.9966H71.9519Z" fill="#231F20"/>
<mask id="mask9_1_8398" style="mask-type:luminance" maskUnits="userSpaceOnUse" x="72" y="63" width="3" height="3">
<path d="M72.8458 63.6536H74.4612V65.4036H72.8458V63.6536Z" fill="white"/>
</mask>
<g mask="url(#mask9_1_8398)">
<path d="M73.2045 63.7429V64.7105C73.2045 65.0764 73.3664 65.231 73.5852 65.231C73.827 65.231 73.9827 65.0712 73.9827 64.7105V63.7429H74.1962V64.6957C74.1962 65.1974 73.9312 65.4035 73.5778 65.4035C73.2434 65.4035 72.991 65.2121 72.991 64.7052V63.7429H73.2045Z" fill="#231F20"/>
</g>
<mask id="mask10_1_8398" style="mask-type:luminance" maskUnits="userSpaceOnUse" x="74" y="63" width="2" height="3">
<path d="M74.4612 63.6536H75.5381V65.4036H74.4612V63.6536Z" fill="white"/>
</mask>
<g mask="url(#mask10_1_8398)">
<path d="M74.5326 65.1195C74.6273 65.1784 74.7651 65.2268 74.9102 65.2268C75.1258 65.2268 75.252 65.1121 75.252 64.9481C75.252 64.7956 75.1647 64.7083 74.9438 64.6231C74.6778 64.5284 74.5127 64.3907 74.5127 64.1604C74.5127 63.9059 74.724 63.7166 75.0417 63.7166C75.2089 63.7166 75.3298 63.7555 75.4024 63.7965L75.3445 63.9679C75.2909 63.9395 75.1815 63.8911 75.0343 63.8911C74.8113 63.8911 74.7261 64.0236 74.7261 64.1362C74.7261 64.2887 74.825 64.3633 75.0511 64.4506C75.3277 64.5579 75.4676 64.6904 75.4676 64.9312C75.4676 65.1826 75.2814 65.4034 74.8955 65.4034C74.7388 65.4034 74.5663 65.3551 74.479 65.2972L74.5326 65.1195Z" fill="#231F20"/>
</g>
<mask id="mask11_1_8398" style="mask-type:luminance" maskUnits="userSpaceOnUse" x="75" y="63" width="2" height="3">
<path d="M75.5381 63.6536H76.9999V65.4036H75.5381V63.6536Z" fill="white"/>
</mask>
<g mask="url(#mask11_1_8398)">
<path d="M76.5561 64.6978L76.3952 64.2277C76.3595 64.1215 76.3353 64.0237 76.3111 63.9301H76.3058C76.2816 64.0269 76.2554 64.1257 76.2238 64.2256L76.064 64.6978H76.5561ZM76.0198 64.863L75.8505 65.3772H75.6317L76.187 63.7429H76.4415L76.9989 65.3772H76.7738L76.5993 64.863H76.0198Z" fill="#231F20"/>
</g>
</g>
<defs>
<clipPath id="clip0_1_8398">
<rect width="58" height="35.4036" fill="white" transform="translate(19 30)"/>
</clipPath>
</defs>
</svg>
