<svg width="96" height="96" viewBox="0 0 96 96" fill="none" xmlns="http://www.w3.org/2000/svg">
<circle cx="48" cy="48" r="47" fill="white" stroke="white" stroke-width="2"/>
<g clip-path="url(#clip0_1_5750)">
<path d="M73.3435 34.9174C63.887 42.2304 53.0015 59.8826 51.1942 64.5478C51.0261 64.9681 51.3624 65.3464 51.7826 65.4725C52.1918 65.6047 52.6149 65.6894 53.0435 65.7246C53.2722 65.7359 53.499 65.6777 53.6941 65.5577C53.8891 65.4377 54.0432 65.2614 54.1363 65.0522C58.3392 55.9319 66.4087 41.5159 73.7218 35.1696C74.058 34.9174 73.8058 34.5391 73.3435 34.9174Z" fill="#63B5E5"/>
<path d="M43.0334 43.3046C43.0112 43.3047 42.9892 43.3004 42.9687 43.2919C42.9482 43.2834 42.9295 43.271 42.9138 43.2553C42.8981 43.2396 42.8857 43.2209 42.8772 43.2004C42.8688 43.1799 42.8644 43.1579 42.8645 43.1357L42.9485 39.2951C42.9485 39.211 43.0334 39.1686 43.1175 39.1686C43.2016 39.1686 55.345 41.1523 58.6338 41.5319H58.8023C62.6119 38.1886 66.7349 35.2206 71.1143 32.6688C72.7446 31.7168 74.4346 30.8708 76.1737 30.1365C76.4692 30.0105 76.8062 29.9256 76.9328 30.0945C77.0593 30.2635 77.0168 30.5165 76.7218 30.6854C63.0186 38.6197 53.1948 53.8976 47.9664 64.5335C47.8806 64.7184 47.705 64.8462 47.5024 64.871C47.2768 64.8975 47.0483 64.8833 46.8278 64.8289C38.6906 63.5206 19.295 59.891 19.295 59.891C19.2729 59.891 19.2509 59.8866 19.2305 59.8781C19.21 59.8696 19.1914 59.8571 19.1757 59.8414C19.1601 59.8258 19.1477 59.8071 19.1392 59.7866C19.1308 59.7661 19.1265 59.7442 19.1265 59.722L19 54.1935C19 54.0666 19.0841 53.9821 19.1685 54.0245L44.8461 58.2871L45.0571 58.2031L46.8278 55.3749C47.0724 55.0508 47.2976 54.7126 47.5024 54.362L47.6289 54.1935C47.7134 54.0666 47.6289 53.9401 47.4608 53.898L30.8059 50.7749C30.7215 50.7749 30.6794 50.6904 30.6794 50.6059L30.5529 45.7944C30.5529 45.7104 30.637 45.6259 30.7215 45.6683L51.2131 49.2131C51.2551 49.2551 51.3817 49.171 51.4237 49.171C52.1827 48.2422 52.9838 47.3138 53.6163 46.6388L54.4174 45.7524C54.5859 45.5414 54.5439 45.3725 54.3334 45.3304L43.0334 43.3046Z" fill="#84BD41"/>
</g>
<defs>
<clipPath id="clip0_1_5750">
<rect width="58" height="35.7246" fill="white" transform="translate(19 30)"/>
</clipPath>
</defs>
</svg>
