<svg width="96" height="96" viewBox="0 0 96 96" fill="none" xmlns="http://www.w3.org/2000/svg">
<circle cx="48" cy="48" r="47" fill="white" stroke="white" stroke-width="2"/>
<g clip-path="url(#clip0_1_5801)">
<path d="M41.9589 44.4413C39.8647 44.4413 38.6082 43.2908 38.6082 41.0218V36.6115H40.3158V40.9898C40.3158 42.2362 40.9601 42.9073 41.9912 42.9073C43.0222 42.9073 43.6666 42.2682 43.6666 41.0537V36.6115H45.3742V40.9578C45.3742 43.2908 44.0532 44.4413 41.9589 44.4413Z" fill="#5F6367"/>
<path d="M49.8847 44.4413C48.7248 44.4413 47.5327 44.0259 46.5984 43.1949L47.5972 41.9805C48.306 42.5558 49.0148 42.9073 49.917 42.9073C50.6258 42.9073 51.0446 42.6197 51.0446 42.1723V42.1403C51.0446 41.7248 50.7869 41.5011 49.4659 41.1496C47.8872 40.7661 46.8884 40.3186 46.8884 38.7846V38.7527C46.8884 37.3465 48.016 36.4197 49.5948 36.4197C50.7224 36.4197 51.689 36.7712 52.4945 37.4104L51.5923 38.6887C50.9157 38.2094 50.2391 37.9217 49.5625 37.9217C48.9182 37.9217 48.5638 38.2094 48.5638 38.5929V38.6248C48.5638 39.1362 48.8859 39.296 50.2391 39.6475C51.8179 40.063 52.6878 40.6063 52.6878 41.9485V41.9805C52.72 43.5784 51.5601 44.4413 49.8847 44.4413Z" fill="#5F6367"/>
<path d="M54.2021 44.3135V36.6115H60.066V38.1135H55.9098V39.7115H59.5505V41.2135H55.8775V42.8434H60.0982V44.3455H54.2021V44.3135Z" fill="#5F6367"/>
<path d="M73.0825 44.3135H70.054V36.6115H73.0825C75.5312 36.6115 77.2066 38.2733 77.2066 40.4465V40.4785C77.2066 42.6517 75.5312 44.3135 73.0825 44.3135ZM75.4345 40.4785C75.4345 39.1042 74.5002 38.1455 73.0825 38.1455H71.7616V42.7795H73.0825C74.5002 42.8115 75.4345 41.8527 75.4345 40.4785Z" fill="#5F6367"/>
<path d="M33.6142 36.5155C35.7084 36.5155 36.9972 37.666 36.9972 39.9351V44.3454H35.2896V39.967C35.2896 38.7207 34.6452 38.0495 33.6142 38.0495C32.5832 38.0495 31.9388 38.6887 31.9388 39.9031V44.3134H30.2312V39.967C30.2312 37.666 31.5522 36.5155 33.6142 36.5155Z" fill="#5F6367"/>
<path d="M65.1245 36.5155C67.2187 36.5155 68.4752 37.666 68.4752 39.9351V44.3454H66.7676V39.967C66.7676 38.7207 66.1232 38.0495 65.0922 38.0495C64.0612 38.0495 63.4168 38.6887 63.4168 39.9031V44.3134H61.7092V39.967C61.7092 37.666 63.0302 36.5155 65.1245 36.5155Z" fill="#5F6367"/>
<path d="M82.1039 36.5155C80.0097 36.5155 78.6887 37.666 78.6887 39.999V44.3454H80.3963V41.7567H83.7471V44.3454H85.4547V39.9351C85.4869 37.666 84.1982 36.5155 82.1039 36.5155ZM80.4286 40.2866V39.9351C80.4286 38.7207 81.0729 38.0815 82.1039 38.0815C83.135 38.0815 83.7793 38.7207 83.7793 39.999V40.2866H80.4286Z" fill="#5F6367"/>
<path d="M54.2021 48.7557C54.2021 47.8928 54.6532 47.2217 55.5554 47.2217C55.8775 47.2217 56.1031 47.2856 56.232 47.3495V47.733C56.1031 47.6371 55.8775 47.5732 55.5876 47.5732C54.9432 47.5732 54.6532 48.0206 54.6532 48.7557C54.6532 49.4268 55.0076 49.8743 55.652 49.8743C55.942 49.8743 56.1353 49.8103 56.2964 49.7145V50.098C56.1031 50.1938 55.8453 50.2258 55.5876 50.2258C54.6854 50.2258 54.2021 49.6186 54.2021 48.7557Z" fill="#5F6367"/>
<path d="M58.6806 49.9062L58.004 48.9155H57.6496V50.1939H57.2307V47.2537H58.1973C58.745 47.2537 59.0994 47.5733 59.0994 48.0846C59.0994 48.4042 58.9061 48.7238 58.455 48.8516L59.035 49.7145C59.0994 49.8423 59.1961 49.8743 59.2927 49.8743C59.325 49.8743 59.3572 49.8743 59.3894 49.8743V50.1939C59.325 50.1939 59.2927 50.2258 59.2283 50.2258C59.0028 50.1939 58.8417 50.13 58.6806 49.9062ZM58.1328 48.5959C58.4873 48.5959 58.6806 48.4042 58.6806 48.0846C58.6806 47.765 58.5195 47.5732 58.1328 47.5732H57.6818V48.564H58.1328V48.5959Z" fill="#5F6367"/>
<path d="M60.1948 47.2537H61.8058V47.6052H60.6137V48.4681H61.6447V48.7877H60.6137V49.8423H61.8058V50.1939H60.1948V47.2537Z" fill="#5F6367"/>
<path d="M62.8047 47.2537H63.739C64.7378 47.2537 65.0922 47.9568 65.0922 48.7238C65.0922 49.4588 64.7378 50.1939 63.7068 50.1939H62.8047V47.2537ZM63.6102 49.8423C64.4156 49.8423 64.609 49.299 64.609 48.7238C64.609 48.1485 64.4156 47.6052 63.6424 47.6052H63.1913V49.8423H63.6102Z" fill="#5F6367"/>
<path d="M66.0588 47.2537H66.4777V50.1939H66.0588V47.2537Z" fill="#5F6367"/>
<path d="M68.0565 47.6052H67.251V47.2537H69.3452V47.6052H68.5075V50.1939H68.0887L68.0565 47.6052Z" fill="#5F6367"/>
<path d="M71.5038 49.1712V47.2537H71.9226V49.1073C71.9226 49.5867 72.1482 49.8743 72.5992 49.8743C73.0825 49.8743 73.3081 49.5867 73.3081 49.1073V47.2537H73.6947V49.1712C73.6947 49.8743 73.2114 50.2258 72.5992 50.2258C71.9871 50.2258 71.5038 49.8743 71.5038 49.1712Z" fill="#5F6367"/>
<path d="M74.8224 47.2536H75.2734L76.4656 49.1392C76.5622 49.267 76.6589 49.4588 76.7233 49.5866C76.7233 49.4588 76.7233 49.331 76.7233 49.1712V47.2217H77.1099V50.1619H76.6266L75.4345 48.2763C75.3379 48.1165 75.2734 47.9567 75.1768 47.8289C75.1768 47.9567 75.1768 48.0526 75.1768 48.2124V50.1619H74.7902L74.8224 47.2536Z" fill="#5F6367"/>
<path d="M78.2053 47.2537H78.6242V50.1939H78.2053V47.2537Z" fill="#5F6367"/>
<path d="M79.623 48.7237C79.623 47.9248 80.0419 47.2217 80.944 47.2217C81.8462 47.2217 82.265 47.8928 82.265 48.7237C82.265 49.5227 81.8462 50.2258 80.944 50.2258C80.0097 50.2258 79.623 49.5547 79.623 48.7237ZM81.8139 48.7237C81.8139 48.0526 81.5562 47.5732 80.944 47.5732C80.3319 47.5732 80.0741 48.0526 80.0741 48.7237C80.0741 49.3949 80.3319 49.8743 80.944 49.8743C81.524 49.8743 81.8139 49.3949 81.8139 48.7237Z" fill="#5F6367"/>
<path d="M83.1993 47.2536H83.6504L84.8425 49.1392C84.9392 49.267 85.0358 49.4588 85.1003 49.5866C85.1003 49.4588 85.1003 49.331 85.1003 49.1712V47.2217H85.4869V50.1619H85.0358L83.8437 48.2763C83.7471 48.1165 83.6826 47.9567 83.586 47.8289C83.586 47.9567 83.586 48.0526 83.586 48.2124V50.1619H83.1993V47.2536Z" fill="#5F6367"/>
<path fill-rule="evenodd" clip-rule="evenodd" d="M17.1824 42.5238C18.6001 44.8887 19.7278 47.6691 21.9187 47.9248C24.915 48.2444 26.3327 44.3454 26.3327 44.3454V36.6433C26.3327 36.6433 25.205 41.9485 21.9187 42.0444C19.7922 42.1083 18.3746 40.3825 17.1824 38.433C15.797 36.0681 14.6694 33.2557 12.4462 33.032C9.44987 32.7444 8.03223 36.6114 8.03223 36.6114V44.3135C8.03223 44.3135 9.15989 39.0083 12.4462 38.9124C14.6049 38.8485 15.9903 40.5743 17.1824 42.5238Z" fill="#82BA51"/>
<path d="M87.1301 38.0814C86.5823 38.0814 86.2601 37.666 86.2601 37.1866C86.2601 36.7072 86.5823 36.2917 87.1301 36.2917C87.6778 36.2917 88 36.7072 88 37.1866C88 37.666 87.6778 38.0814 87.1301 38.0814ZM87.1301 36.4515C86.7112 36.4515 86.4212 36.7392 86.4212 37.1866C86.4212 37.6021 86.7112 37.9216 87.1301 37.9216C87.5489 37.9216 87.8389 37.6021 87.8389 37.1866C87.8067 36.7711 87.5489 36.4515 87.1301 36.4515ZM87.1623 36.8031C87.3556 36.8031 87.4845 36.899 87.4845 37.0907C87.4845 37.1866 87.42 37.2825 87.3234 37.3144L87.4845 37.5381V37.5701H87.3556L87.1945 37.3464H86.9367V37.5701H86.8079V36.8031H87.1623ZM86.9367 36.9309V37.2186H87.1301C87.2267 37.2186 87.3234 37.1866 87.3234 37.0907C87.3234 36.9948 87.2589 36.9629 87.1301 36.9629H86.9367V36.9309Z" fill="#5F6367"/>
<path d="M8.03223 55.5309H85.4869" stroke="#5F6367" stroke-miterlimit="10"/>
<path d="M23.3684 60.0051H26.5581V60.5165H25.2371V64.0319H24.6894V60.5165H23.3684V60.0051Z" fill="#5F6367"/>
<path d="M27.0735 59.9731H27.6212V61.4752H27.6534C27.8467 61.2515 28.1367 61.1556 28.5233 61.1556C29.2644 61.1556 29.6832 61.667 29.6832 62.434V64.0319H29.1355V62.4979C29.1355 61.9865 28.8778 61.603 28.3945 61.603C27.879 61.603 27.6212 62.0505 27.6212 62.3381V63.9999H27.0735V59.9731Z" fill="#5F6367"/>
<path d="M32.8085 63.7763C32.8085 63.7763 32.4863 64.0958 31.7775 64.0958C30.8754 64.0958 30.3276 63.4886 30.3276 62.6257C30.3276 61.7629 30.8754 61.1556 31.6808 61.1556C32.5185 61.1556 32.9374 61.7629 32.9374 62.5618V62.6897H30.8754C30.9076 63.3288 31.2942 63.6484 31.8097 63.6484C32.3252 63.6484 32.583 63.3928 32.583 63.3928L32.8085 63.7763ZM30.9076 62.3062H32.3897C32.3252 61.8587 32.0675 61.6031 31.6808 61.6031C31.2942 61.6031 31.0042 61.8268 30.9076 62.3062Z" fill="#5F6367"/>
<path d="M38.3826 61.3474C38.3826 62.2422 37.7704 62.7216 36.8038 62.7216H35.7406V64H35.1929V60.0051H36.836C37.8026 60.0051 38.3826 60.5165 38.3826 61.3474ZM36.8038 60.5165H35.7406V62.2422H36.8038C37.416 62.2422 37.8026 61.9866 37.8026 61.3794C37.8026 60.8041 37.416 60.5165 36.8038 60.5165Z" fill="#5F6367"/>
<path d="M40.1544 64.0958C39.349 64.0958 38.7046 63.5206 38.7046 62.6257C38.7046 61.7309 39.349 61.1237 40.1544 61.1237C40.9599 61.1237 41.6043 61.6989 41.6043 62.6257C41.6043 63.5525 40.9599 64.0958 40.1544 64.0958ZM41.0566 62.6257C41.0566 61.9865 40.6377 61.5711 40.1544 61.5711C39.6712 61.5711 39.2523 61.9865 39.2523 62.6257C39.2523 63.2649 39.6712 63.6484 40.1544 63.6484C40.6377 63.6484 41.0566 63.2649 41.0566 62.6257Z" fill="#5F6367"/>
<path d="M41.8943 61.2196H42.4742L43.0864 63.201C43.1186 63.265 43.1186 63.3289 43.1186 63.3928H43.1508C43.1508 63.3289 43.1831 63.265 43.1831 63.201L43.7308 61.2196H44.1818L44.7296 63.201C44.7618 63.265 44.7618 63.3608 44.7618 63.3928H44.8262C44.8262 63.3289 44.8584 63.265 44.8584 63.201L45.5028 61.2196H46.0505L45.0195 64.032H44.5363L43.9885 62.0825C43.9563 62.0186 43.9563 61.9547 43.9563 61.8588H43.9241C43.9241 61.9227 43.8919 62.0186 43.8919 62.0825L43.3441 64.032H42.8931L41.8943 61.2196Z" fill="#5F6367"/>
<path d="M48.9181 63.7763C48.9181 63.7763 48.5959 64.0958 47.8871 64.0958C46.985 64.0958 46.4373 63.4886 46.4373 62.6257C46.4373 61.7629 46.985 61.1556 47.7905 61.1556C48.6282 61.1556 49.047 61.7629 49.047 62.5618V62.6897H46.985C47.0172 63.3288 47.4038 63.6484 47.9193 63.6484C48.4348 63.6484 48.6926 63.3928 48.6926 63.3928L48.9181 63.7763ZM47.0172 62.3062H48.4993C48.4348 61.8587 48.1771 61.6031 47.7905 61.6031C47.3716 61.6031 47.0816 61.8268 47.0172 62.3062Z" fill="#5F6367"/>
<path d="M51.1413 61.667H50.9802C50.5935 61.667 50.2391 61.9866 50.2391 62.434V64.032H49.6914V61.2196H50.078L50.1425 61.699H50.1747C50.3036 61.3794 50.6258 61.2196 50.9802 61.2196H51.1413V61.667Z" fill="#5F6367"/>
<path d="M54.2665 64.0958C53.461 64.0958 52.8167 63.5206 52.8167 62.6257C52.8167 61.7309 53.461 61.1237 54.2665 61.1237C55.072 61.1237 55.7164 61.6989 55.7164 62.6257C55.7164 63.5525 55.072 64.0958 54.2665 64.0958ZM55.1686 62.6257C55.1686 61.9865 54.7498 61.5711 54.2665 61.5711C53.7832 61.5711 53.3644 61.9865 53.3644 62.6257C53.3644 63.2649 53.7832 63.6484 54.2665 63.6484C54.7498 63.6484 55.1686 63.2649 55.1686 62.6257Z" fill="#5F6367"/>
<path d="M57.134 61.6669V64.0319H56.5863V61.6669H56.0708V61.2195H56.5863V60.9319C56.5863 60.3247 56.9407 59.9412 57.5851 59.9412C57.9717 59.9412 58.1973 60.069 58.1973 60.069L58.0362 60.4845C58.0362 60.4845 57.8751 60.3886 57.6173 60.3886C57.3273 60.3886 57.1663 60.5803 57.1663 60.8999V61.2195H57.9717V61.6669H57.134Z" fill="#5F6367"/>
<path d="M61.9669 60.9L61.097 64.0319H60.6782L59.3572 60.0051H59.9371L60.8715 63.1051L61.7092 60.0051H62.2247L63.0624 63.1051L63.9967 60.0051H64.5767L63.2557 64.0319H62.8046L61.9669 60.9Z" fill="#5F6367"/>
<path d="M67.734 62.2422H65.7687V63.5206H68.0884V64.0319H65.2209V60.0051H68.0884V60.5165H65.7687V61.7629H67.734V62.2422Z" fill="#5F6367"/>
<path d="M69.1195 60.9958C68.7006 60.9958 68.4751 60.6762 68.4751 60.3247C68.4751 59.9732 68.7329 59.6536 69.1195 59.6536C69.5383 59.6536 69.7639 59.9412 69.7639 60.3247C69.7639 60.7082 69.5383 60.9958 69.1195 60.9958ZM69.1195 59.8134C68.7973 59.8134 68.604 60.0371 68.604 60.3567C68.604 60.6762 68.7973 60.9 69.1195 60.9C69.4417 60.9 69.635 60.6762 69.635 60.3567C69.635 60.0371 69.4417 59.8134 69.1195 59.8134ZM69.1517 60.0371C69.3128 60.0371 69.4095 60.1329 69.4095 60.2288C69.4095 60.3247 69.3772 60.3567 69.3128 60.3886L69.4417 60.5484V60.5804H69.3128L69.1839 60.4206H69.0228V60.5804H68.8939V60.0051H69.1517V60.0371ZM68.9906 60.1649V60.3567H69.1517C69.2161 60.3567 69.2806 60.3247 69.2806 60.2608C69.2806 60.1969 69.2484 60.1649 69.1517 60.1649H68.9906Z" fill="#5F6367"/>
</g>
<defs>
<clipPath id="clip0_1_5801">
<rect width="80" height="31" fill="white" transform="translate(8 33)"/>
</clipPath>
</defs>
</svg>
