<svg width="96" height="96" viewBox="0 0 96 96" fill="none" xmlns="http://www.w3.org/2000/svg">
<circle cx="48" cy="48" r="47" fill="white" stroke="white" stroke-width="2"/>
<g clip-path="url(#clip0_1_5863)">
<path d="M21.5859 38.4116C21.6631 38.4116 21.721 38.3549 21.721 38.2982C22.1457 35.7099 22.9177 33.6127 24.0179 32.0634C25.4076 30.0985 27.2799 29.0972 29.5574 29.0972C31.0436 29.0972 32.3755 29.5695 33.5721 30.4764C34.7495 31.4022 35.7339 32.8569 36.4481 34.803C36.8341 35.8421 37.1429 37.0135 37.3745 38.2982C37.3938 38.3738 37.4517 38.4116 37.5096 38.4116H41.7946C41.8332 38.4116 41.8718 38.3927 41.9104 38.3549C41.9297 38.3171 41.949 38.2794 41.9297 38.2416C41.312 35.8043 40.2698 33.6127 38.7835 31.7611C36.2551 28.6059 33.2247 27 29.7891 27C26.1604 27 23.0142 28.587 20.4664 31.7422C18.9609 33.6127 17.88 35.7854 17.2624 38.2227C17.2431 38.2605 17.2624 38.3171 17.2817 38.336C17.301 38.3738 17.3589 38.3927 17.3975 38.3927H21.5859V38.4116ZM42.2578 67.9798C40.347 67.7908 38.6291 67.054 37.1429 65.7881C35.676 64.5412 34.267 62.5762 32.9931 59.9312C35.7918 58.8731 38.108 56.8704 39.8837 53.9798C40.1926 53.4885 40.4628 52.9595 40.733 52.4116C40.7523 52.3927 40.7523 52.3738 40.7523 52.336C40.7523 52.2605 40.6944 52.2038 40.6172 52.2038H36.9306C36.8727 52.2038 36.8148 52.2416 36.7955 52.2982C36.4095 53.4696 35.9076 54.5088 35.3093 55.3779C33.8617 57.4561 31.9315 58.5142 29.5767 58.5142C27.3185 58.5142 25.4655 57.4561 24.0758 55.3779C23.0528 53.8097 22.3001 51.8448 21.8561 49.502C21.8368 49.4264 21.7789 49.3887 21.721 49.3887H17.4747C17.4361 49.3887 17.3975 49.4076 17.3589 49.4453C17.3396 49.4831 17.3203 49.5209 17.3396 49.5587C17.5133 50.2389 17.7256 50.8812 17.9572 51.4669C18.8258 53.6775 20.0804 55.5668 21.6438 57.0783C22.7247 58.0985 24.2109 59.0621 26.0446 59.969C27.3571 61.5371 28.9205 63.0297 30.7348 64.4089C32.5492 65.807 34.4793 66.9028 36.506 67.6964C38.5326 68.4899 40.4628 68.9244 42.2385 69C42.2771 69 42.3157 68.9811 42.335 68.9622C42.3543 68.9433 42.3736 68.9055 42.3736 68.8677V68.1309C42.3929 68.0364 42.335 67.9798 42.2578 67.9798Z" fill="#B68400"/>
<path d="M9.29099 40.7354C9.77353 40.112 10.3719 39.8097 11.0474 39.8097C11.723 39.8097 12.302 40.112 12.7846 40.6977C13.2671 41.3022 13.518 42.2847 13.518 43.6072C13.518 44.9109 13.2671 45.8933 12.8039 46.4979C12.3213 47.1025 11.7423 47.4048 11.0474 47.4048C10.3526 47.4048 9.75422 47.0836 9.29099 46.479C8.82775 45.8556 8.57683 44.892 8.57683 43.6072C8.57683 42.3225 8.82775 41.34 9.29099 40.7354ZM8.32591 46.5168C8.67334 46.9325 9.17518 47.2726 9.79283 47.5749L9.94724 47.6504C9.96654 47.6504 10.0051 47.6693 10.507 48.255C10.8544 48.6518 11.2018 48.9541 11.5686 49.143C11.9353 49.3508 12.3792 49.5209 12.8425 49.6342C13.2864 49.7287 13.8075 49.7854 14.4638 49.7854H14.8884V49.6153C14.2901 49.5398 13.8075 49.4264 13.4215 49.2564C12.7653 48.9541 12.2055 48.4439 11.7423 47.726L11.723 47.6882L11.7616 47.6693C12.7267 47.4615 13.4794 46.9703 14.0199 46.1956C14.5024 45.4777 14.7533 44.5897 14.7533 43.5695C14.7533 42.2658 14.3673 41.2078 13.5952 40.4332C12.9004 39.7341 12.0511 39.3751 11.0474 39.3751C10.0437 39.3751 9.17518 39.7341 8.48033 40.452C7.74687 41.2645 7.36084 42.3225 7.36084 43.6072C7.36084 44.8164 7.68897 45.7989 8.32591 46.5168ZM17.8029 40.5843V40.7732C17.4362 40.7921 17.2046 40.8677 17.1081 40.9622C17.0116 41.0755 16.9537 41.3022 16.9537 41.6801V44.892C16.9537 45.421 17.0309 45.8367 17.166 46.139C17.4169 46.6869 17.8801 46.9514 18.5943 46.9514C19.3664 46.9514 19.8682 46.668 20.1384 46.1201C20.2735 45.8178 20.3507 45.3265 20.3507 44.6842V42.058C20.3507 41.5101 20.2928 41.17 20.1577 41.0188C20.0226 40.8866 19.791 40.7921 19.4436 40.7732V40.5843H21.6439V40.7732C21.2772 40.811 21.0263 40.9055 20.9105 41.0566C20.7947 41.2078 20.7368 41.529 20.7368 42.058V44.6842C20.7368 45.3832 20.6403 45.9122 20.4472 46.309C20.0805 47.0269 19.3857 47.3859 18.3627 47.3859C17.359 47.3859 16.6642 47.0458 16.2974 46.3279C16.1044 45.95 16.0079 45.4399 16.0079 44.8164V41.6801C16.0079 41.3211 15.95 41.0755 15.8535 40.9811C15.757 40.8866 15.5254 40.811 15.1586 40.7921V40.6032H17.8029V40.5843Z" fill="#006548"/>
<path d="M21.5474 47.0647C21.8948 47.0269 22.1264 46.9514 22.2229 46.8758C22.3194 46.7813 22.3773 46.5546 22.3773 46.1578V41.6801C22.3773 41.3211 22.3194 41.0944 22.2229 40.9811C22.1264 40.8677 21.8948 40.7921 21.5474 40.7732V40.5843H26.5271L26.5657 42.0202H26.3148C26.2376 41.5667 26.1218 41.2833 25.9674 41.1511C25.813 41.0188 25.4463 40.9622 24.9058 40.9622H23.6126C23.4775 40.9622 23.4003 40.9811 23.3617 41.0188C23.3231 41.0566 23.3038 41.1511 23.3038 41.2833V43.5317H24.7514C25.1567 43.5317 25.4077 43.475 25.5042 43.3427C25.62 43.2105 25.6972 42.9649 25.7744 42.5681H25.9867V44.9109H25.7744C25.6972 44.533 25.6007 44.2685 25.5042 44.1362C25.3884 44.0229 25.1374 43.9473 24.7514 43.9473H23.3038V46.4412C23.3038 46.6491 23.3617 46.7624 23.4775 46.8002C23.5933 46.838 23.9407 46.8569 24.5391 46.8569C25.176 46.8569 25.6393 46.7813 25.9481 46.6302C26.2569 46.479 26.5271 46.1201 26.7588 45.5533H27.0097L26.5851 47.2348H21.5474V47.0647ZM27.2606 47.0647C27.608 47.0269 27.8396 46.9514 27.9362 46.8758C28.0327 46.7813 28.0906 46.5546 28.0906 46.1578V41.6801C28.0906 41.3211 28.0327 41.0944 27.9362 40.9811C27.8396 40.8677 27.608 40.7921 27.2606 40.7732V40.5843H32.2404L32.279 42.0202H32.0474C31.9702 41.5667 31.8351 41.2833 31.6999 41.1511C31.5455 41.0188 31.1981 40.9622 30.6384 40.9622H29.3645C29.2294 40.9622 29.1328 40.9811 29.1135 41.0188C29.0749 41.0566 29.0556 41.1511 29.0556 41.2833V43.5317H30.5033C30.9086 43.5317 31.1595 43.475 31.2753 43.3427C31.3911 43.2105 31.4683 42.9649 31.5455 42.5681H31.7578V44.9109H31.5455C31.4683 44.533 31.3911 44.2685 31.2753 44.1362C31.1595 44.0229 30.9086 43.9473 30.5226 43.9473H29.0749V46.4412C29.0749 46.6491 29.1328 46.7624 29.2487 46.8002C29.3645 46.838 29.7119 46.8569 30.3102 46.8569C30.9472 46.8569 31.4104 46.7813 31.7192 46.6302C32.0281 46.479 32.2983 46.1201 32.5299 45.5533H32.7808L32.3562 47.2348H27.2799V47.0647H27.2606ZM32.9738 47.0647C33.3599 47.008 33.6108 46.9325 33.7266 46.7813C33.8424 46.6302 33.881 46.2901 33.881 45.7611V41.3211L33.7459 41.1511C33.6108 40.9811 33.495 40.8677 33.3985 40.8299C33.302 40.7921 33.1476 40.7732 32.9545 40.7732V40.5843H34.5566L38.1852 45.4021V42.058C38.1852 41.5101 38.108 41.1511 37.9536 40.9811C37.8571 40.8677 37.6255 40.811 37.2974 40.7732V40.5843H39.4977V40.7732C39.131 40.811 38.8994 40.9055 38.7836 41.0566C38.6678 41.2078 38.6099 41.5479 38.6099 42.0769V47.3859H38.4555L34.2863 41.8501V45.78C34.2863 46.3279 34.3635 46.6869 34.518 46.8569C34.6145 46.9703 34.8461 47.0458 35.1742 47.0836V47.2726H32.9545V47.0647H32.9738ZM39.9417 45.2321C40.0961 45.6855 40.2891 46.0445 40.5014 46.309C40.8681 46.7813 41.3314 47.008 41.8718 47.008C42.1614 47.008 42.4316 46.9136 42.6439 46.7057C42.8562 46.4979 42.972 46.2145 42.972 45.8555C42.972 45.5344 42.8562 45.251 42.6439 45.0053C42.4895 44.8542 42.2 44.6275 41.7367 44.3063L40.9261 43.7773C40.6751 43.6261 40.5014 43.4561 40.347 43.286C40.0768 42.9649 39.9417 42.6059 39.9417 42.228C39.9417 41.7179 40.0961 41.2833 40.4242 40.9622C40.7523 40.6221 41.1577 40.452 41.6788 40.452C41.8911 40.452 42.142 40.5087 42.4509 40.6032C42.7597 40.7165 42.9334 40.7732 42.972 40.7732C43.0878 40.7732 43.165 40.7354 43.2229 40.6788C43.2615 40.6221 43.3001 40.5465 43.3194 40.4331H43.4932L43.6862 42.587H43.4545C43.3001 41.9446 43.0492 41.4912 42.7211 41.2267C42.393 40.9622 42.0455 40.8488 41.7174 40.8488C41.4665 40.8488 41.2349 40.9244 41.0419 41.0944C40.8488 41.2645 40.7523 41.4912 40.7523 41.7746C40.7523 42.0202 40.8295 42.2469 40.9647 42.4358C41.0998 42.6248 41.3314 42.8326 41.6402 43.0215L42.4509 43.5694C42.972 43.9095 43.3387 44.2118 43.5511 44.5141C43.7634 44.7975 43.8599 45.1376 43.8599 45.5344C43.8599 46.0634 43.6669 46.4979 43.3001 46.8569C42.9334 47.2159 42.4702 47.3859 41.8911 47.3859C41.6016 47.3859 41.3121 47.3292 40.984 47.2159C40.6751 47.1025 40.4821 47.0458 40.4435 47.0458C40.3277 47.0458 40.2505 47.0836 40.2312 47.1592C40.1926 47.2348 40.1733 47.3103 40.154 47.3859H39.961L39.6715 45.2321H39.9417ZM48.1255 46.5924C48.4536 46.3846 48.608 46.0067 48.608 45.4399C48.608 44.8731 48.415 44.4952 48.0483 44.2874C47.6623 44.0796 47.1797 43.9851 46.5814 43.9851H46.1375V46.4979C46.1375 46.668 46.1761 46.7813 46.2726 46.838C46.3691 46.8947 46.5814 46.9136 46.9095 46.9136C47.4114 46.8758 47.8167 46.7813 48.1255 46.5924ZM47.8167 43.3994C48.2027 43.2105 48.415 42.8515 48.415 42.3414C48.415 41.7368 48.1834 41.34 47.7395 41.1322C47.4886 41.0188 47.1025 40.9622 46.5814 40.9622C46.3884 40.9622 46.2726 40.9811 46.2147 41.0188C46.1761 41.0566 46.1375 41.1511 46.1375 41.3211V43.6072L47.0253 43.5883C47.3534 43.5694 47.6044 43.5128 47.8167 43.3994ZM44.2845 47.0647C44.6512 47.0458 44.9022 46.9703 45.018 46.8758C45.1338 46.7813 45.1917 46.5357 45.1917 46.1578V41.6801C45.1917 41.3022 45.1338 41.0755 45.018 40.9622C44.9022 40.8488 44.6705 40.7921 44.2845 40.7732V40.5843H46.9095C47.6623 40.5843 48.2606 40.7165 48.7046 40.9622C49.1485 41.2267 49.3608 41.6612 49.3608 42.3036C49.3608 42.7759 49.2064 43.1349 48.8976 43.3805C48.7239 43.5317 48.4729 43.645 48.1062 43.7395C48.5308 43.8528 48.9169 44.0418 49.2064 44.3063C49.5152 44.5708 49.6696 44.9298 49.6696 45.4021C49.6696 46.1956 49.3222 46.7246 48.6466 47.0269C48.2992 47.1781 47.8553 47.2537 47.3341 47.2537H44.2845V47.0647ZM51.6963 46.2712C52.0823 46.7813 52.5648 47.0269 53.1246 47.0269C53.6843 47.0269 54.1476 46.7813 54.5529 46.2901C54.9389 45.7989 55.1319 45.0053 55.1319 43.9284C55.1319 42.8326 54.9389 42.0391 54.5336 41.5479C54.1283 41.0566 53.665 40.8299 53.1246 40.8299C52.5648 40.8299 52.0823 41.0755 51.6963 41.5856C51.3103 42.0958 51.1172 42.8704 51.1172 43.9284C51.1172 44.9865 51.3103 45.7611 51.6963 46.2712ZM51.0014 41.34C51.5805 40.7543 52.2946 40.452 53.1246 40.452C53.9739 40.452 54.6687 40.7543 55.2478 41.34C55.8654 41.9824 56.1935 42.8515 56.1935 43.9284C56.1935 45.0053 55.8654 45.8744 55.2285 46.5357C54.6494 47.1025 53.9546 47.4048 53.1246 47.4048C52.256 47.4048 51.5226 47.0836 50.9435 46.4412C50.3452 45.7989 50.0557 44.9487 50.0557 43.9284C50.0557 42.8515 50.3838 41.9824 51.0014 41.34ZM59.4941 43.5883C59.9959 43.3805 60.2275 42.946 60.2275 42.3414C60.2275 41.7557 60.0152 41.34 59.5713 41.1322C59.3397 41.0188 59.0115 40.9622 58.6255 40.9622C58.3553 40.9622 58.2009 40.9811 58.143 41.0188C58.0851 41.0566 58.0465 41.1511 58.0465 41.3022V43.8151C58.722 43.7962 59.2046 43.7206 59.4941 43.5883ZM56.2707 47.0647C56.6375 47.0269 56.8691 46.9514 56.9656 46.838C57.0428 46.7246 57.1007 46.4601 57.1007 46.0445V41.6801C57.1007 41.3211 57.0428 41.0944 56.9463 40.9811C56.8498 40.8677 56.6182 40.7921 56.2707 40.7732V40.5843H58.8764C59.4169 40.5843 59.8801 40.6599 60.2275 40.811C60.9031 41.0944 61.2505 41.6045 61.2505 42.3603C61.2505 42.8704 61.0961 43.2483 60.7873 43.5128C60.4785 43.7773 60.0731 43.9662 59.552 44.0418L61.4821 46.5924C61.5979 46.7435 61.7138 46.8569 61.8296 46.9325C61.9454 47.008 62.0998 47.0458 62.2928 47.0647V47.2537H60.7873L58.4325 44.1551L58.0272 44.1929V46.1767C58.0272 46.5546 58.0851 46.8002 58.1816 46.8947C58.2781 46.9892 58.5097 47.0647 58.8571 47.1025V47.2914H56.2321V47.0647H56.2707ZM63.7018 46.2712C64.0878 46.7813 64.5704 47.0269 65.1301 47.0269C65.6899 47.0269 66.1531 46.7813 66.5584 46.2901C66.9445 45.7989 67.1375 45.0053 67.1375 43.9284C67.1375 42.8326 66.9445 42.0391 66.5391 41.5479C66.1338 41.0566 65.6706 40.8299 65.1301 40.8299C64.5704 40.8299 64.0878 41.0755 63.7018 41.5856C63.3158 42.0958 63.1228 42.8704 63.1228 43.9284C63.1228 44.9865 63.3158 45.7611 63.7018 46.2712ZM63.007 41.34C63.586 40.7543 64.3001 40.452 65.1301 40.452C65.9794 40.452 66.6742 40.7543 67.2533 41.34C67.8709 41.9824 68.1991 42.8515 68.1991 43.9284C68.1991 45.0053 67.8709 45.8744 67.234 46.5357C66.6549 47.1025 65.9601 47.4048 65.1301 47.4048C64.2615 47.4048 63.5281 47.0836 62.949 46.4412C62.3507 45.7989 62.0612 44.9487 62.0612 43.9284C62.0612 42.8515 62.37 41.9824 63.007 41.34ZM70.9785 40.5843V40.7732C70.6117 40.7921 70.3801 40.8677 70.2836 40.9622C70.1871 41.0566 70.1292 41.3022 70.1292 41.6801V44.892C70.1292 45.421 70.2064 45.8367 70.3222 46.1389C70.5731 46.6869 71.0364 46.9514 71.7505 46.9514C72.5226 46.9514 73.0244 46.668 73.2946 46.1201C73.4491 45.8178 73.507 45.3265 73.507 44.6842V42.058C73.507 41.5101 73.4491 41.17 73.3139 41.0188C73.1981 40.8866 72.9472 40.7921 72.5998 40.7732V40.5843H74.8195V40.7732C74.4527 40.811 74.2018 40.9055 74.086 41.0566C73.9702 41.2078 73.9123 41.529 73.9123 42.058V44.6842C73.9123 45.3832 73.8158 45.9122 73.6228 46.309C73.256 47.0269 72.5612 47.3859 71.5382 47.3859C70.5345 47.3859 69.8397 47.0458 69.4729 46.3279C69.2799 45.95 69.1834 45.4399 69.1834 44.8164V41.6801C69.1834 41.3211 69.1255 41.0755 69.029 40.9811C68.9132 40.8866 68.7009 40.811 68.3535 40.7921V40.6032H70.9785V40.5843ZM79.1623 40.6032C79.5097 40.7165 79.722 40.7732 79.7606 40.7732C79.8958 40.7732 79.9923 40.7354 80.0502 40.6788C80.1081 40.6221 80.1467 40.5465 80.2046 40.4331H80.3976L80.4748 42.5492H80.2625C80.0695 42.058 79.8764 41.699 79.6641 41.4534C79.2974 41.0377 78.8149 40.8299 78.2165 40.8299C77.6182 40.8299 77.097 41.0755 76.6338 41.5667C76.1706 42.058 75.9389 42.8704 75.9389 43.9851C75.9389 44.9109 76.1706 45.6477 76.6145 46.1767C77.0584 46.7057 77.6182 46.9514 78.2937 46.9514C78.4095 46.9514 78.5446 46.9514 78.6798 46.9136C78.8342 46.8947 78.9693 46.8569 79.1044 46.8002C79.3167 46.7246 79.4711 46.6491 79.5097 46.5924C79.5676 46.5357 79.5869 46.4601 79.5869 46.3279V44.7219C79.5869 44.3252 79.529 44.0796 79.4325 43.9851C79.336 43.8906 79.1044 43.834 78.757 43.8151V43.6261H81.1503V43.8151C80.9187 43.834 80.7643 43.8717 80.6871 43.9473C80.552 44.0418 80.4941 44.2685 80.4941 44.5897V46.5735C80.4941 46.6869 80.2239 46.8569 79.6834 47.0458C79.143 47.2348 78.6219 47.3292 78.1393 47.3292C77.2321 47.3292 76.4601 47.0458 75.8231 46.4601C75.1476 45.8367 74.7809 44.9865 74.7809 43.9095C74.7809 42.9649 75.0511 42.1713 75.6108 41.4912C76.2092 40.7543 77.0198 40.3765 78.0235 40.3765C78.4481 40.452 78.8149 40.5087 79.1623 40.6032ZM81.1889 47.0647C81.5557 47.008 81.7873 46.9514 81.8838 46.838C81.9803 46.7246 82.0189 46.4601 82.0189 46.0256V41.6801C82.0189 41.3211 81.961 41.0944 81.8645 40.9811C81.768 40.8677 81.5364 40.811 81.1889 40.7921V40.6032H83.7947V40.7921C83.4472 40.811 83.2349 40.8866 83.1191 40.9811C83.0226 41.0944 82.9647 41.3211 82.9647 41.6801V43.645H85.802V41.6801C85.802 41.3211 85.7441 41.0944 85.6476 40.9811C85.5511 40.8677 85.3388 40.811 84.972 40.7921V40.6032H87.597V40.7921C87.2496 40.811 87.018 40.8866 86.9215 40.9811C86.825 41.0944 86.7671 41.3211 86.7671 41.6801V46.1578C86.7671 46.5168 86.825 46.7624 86.9215 46.8569C87.018 46.9514 87.2496 47.0269 87.597 47.0647V47.2537H84.972V47.0647C85.3388 47.0269 85.5704 46.9514 85.6669 46.838C85.7634 46.7246 85.802 46.4601 85.802 46.0256V44.0607H82.9647V46.1389C82.9647 46.4979 83.0226 46.7435 83.1191 46.838C83.2349 46.9325 83.4472 47.008 83.7947 47.0458V47.2348H81.1889V47.0647Z" fill="#006548"/>
<path d="M24.9443 50.4655C25.0408 50.4655 25.118 50.4277 25.1567 50.4089C25.1953 50.3711 25.1953 50.2955 25.1953 50.1821V49.2186L25.1567 49.1808C25.118 49.143 25.0794 49.1241 25.0601 49.1052C25.0408 49.0863 25.0022 49.0863 24.9443 49.0863V49.0485H25.3883L26.3919 50.1066V49.3697C26.3919 49.2564 26.3726 49.1808 26.334 49.143C26.3147 49.1241 26.2568 49.1052 26.1603 49.1052V49.0485H26.7587V49.0863C26.6622 49.0863 26.585 49.1052 26.5657 49.143C26.5271 49.1808 26.5271 49.2564 26.5271 49.3697V50.5222H26.4885L25.3497 49.313V50.1632C25.3497 50.2766 25.369 50.3522 25.4076 50.39C25.4269 50.4089 25.4848 50.4277 25.5813 50.4466V50.4844H24.9829V50.4655H24.9443ZM28.5344 49.9554L28.2449 49.3508L27.9554 49.9554H28.5344ZM27.4149 50.5033V50.4655C27.4728 50.4655 27.5307 50.4277 27.5693 50.4089C27.6079 50.3711 27.6658 50.2766 27.7431 50.1066L28.2835 49.0296H28.3414L28.9783 50.2766C29.0169 50.3522 29.0556 50.4089 29.0749 50.4277C29.0942 50.4466 29.1521 50.4655 29.21 50.4655V50.5033H28.5537V50.4655C28.6309 50.4655 28.6695 50.4466 28.7081 50.4466C28.7274 50.4466 28.7467 50.4277 28.7467 50.39C28.7467 50.3711 28.7467 50.3522 28.7274 50.3333C28.7274 50.2955 28.7081 50.2766 28.6888 50.2388L28.5923 50.031H27.9168C27.8589 50.1821 27.8203 50.2577 27.801 50.2955C27.7817 50.3333 27.7817 50.3522 27.7817 50.3711C27.7817 50.4089 27.801 50.4277 27.8396 50.4466C27.8589 50.4466 27.8975 50.4655 27.9554 50.4655V50.5033H27.4149ZM29.596 49.0485H31.0436L31.0629 49.4264H31.005C30.9857 49.313 30.9471 49.2375 30.8892 49.1997C30.8506 49.1619 30.7541 49.143 30.5997 49.143H30.4646V50.2577C30.4646 50.3522 30.4839 50.39 30.5032 50.4089C30.5418 50.4277 30.5997 50.4466 30.6962 50.4466V50.4844H29.9434V50.4466C30.0592 50.4466 30.1171 50.4277 30.1557 50.39C30.175 50.3711 30.1943 50.2955 30.1943 50.2199V49.1241H30.0399C29.9048 49.1241 29.8083 49.143 29.7504 49.1808C29.6925 49.2186 29.6539 49.2941 29.6346 49.4075H29.5767L29.596 49.0485ZM31.7578 50.4655C31.8543 50.4655 31.9315 50.4466 31.9701 50.4277C32.0087 50.4089 32.0087 50.3522 32.0087 50.2766V49.2941C32.0087 49.2186 31.9894 49.1619 31.9701 49.143C31.9315 49.1241 31.8736 49.1052 31.7578 49.1052V49.0485H32.5298V49.0863C32.4333 49.0863 32.3561 49.1052 32.3175 49.1241C32.2789 49.143 32.2789 49.1997 32.2789 49.2752V50.2577C32.2789 50.3522 32.2982 50.39 32.3175 50.4089C32.3561 50.4277 32.414 50.4466 32.5298 50.4466V50.4844H31.7578V50.4655ZM33.6879 50.2955C33.8037 50.4089 33.9195 50.4655 34.0932 50.4655C34.2477 50.4655 34.3828 50.4089 34.4793 50.2955C34.5951 50.1821 34.6337 50.0121 34.6337 49.7854C34.6337 49.5398 34.5758 49.3697 34.4793 49.2564C34.3635 49.143 34.2284 49.0863 34.0932 49.0863C33.9388 49.0863 33.8037 49.143 33.6879 49.2564C33.5721 49.3697 33.5335 49.5398 33.5335 49.7665C33.5335 50.0121 33.5914 50.1821 33.6879 50.2955ZM33.5142 49.2186C33.6686 49.0863 33.8616 49.0296 34.0932 49.0296C34.3249 49.0296 34.5179 49.0863 34.6723 49.2186C34.846 49.3508 34.9232 49.5398 34.9232 49.7854C34.9232 50.031 34.8267 50.2199 34.653 50.3522C34.4986 50.4844 34.3056 50.5411 34.0739 50.5411C33.823 50.5411 33.63 50.4655 33.4756 50.3333C33.3212 50.1821 33.2247 50.0121 33.2247 49.7854C33.244 49.5398 33.3405 49.3508 33.5142 49.2186ZM35.6567 50.4655C35.7532 50.4655 35.8304 50.4277 35.869 50.4089C35.9076 50.3711 35.9076 50.2955 35.9076 50.1821V49.2186L35.869 49.1808C35.8304 49.143 35.7918 49.1241 35.7725 49.1052C35.7532 49.0863 35.7146 49.0863 35.6567 49.0863V49.0485H36.1006L37.1043 50.1066V49.3697C37.1043 49.2564 37.085 49.1808 37.0271 49.143C37.0078 49.1241 36.9306 49.1052 36.8534 49.1052V49.0485H37.4517V49.0863C37.3552 49.0863 37.2973 49.1052 37.2587 49.143C37.2201 49.1808 37.2201 49.2564 37.2201 49.3697V50.5222H37.1815L36.0427 49.313V50.1632C36.0427 50.2766 36.062 50.3522 36.1006 50.39C36.1199 50.4089 36.1971 50.4277 36.2743 50.4466V50.4844H35.676V50.4655H35.6567ZM39.2274 49.9554L38.9379 49.3508L38.6484 49.9554H39.2274ZM38.1272 50.5033V50.4655C38.1852 50.4655 38.2431 50.4277 38.2817 50.4089C38.3203 50.3711 38.3782 50.2766 38.4554 50.1066L38.9958 49.0296H39.0344L39.6714 50.2766C39.71 50.3522 39.7486 50.4089 39.7679 50.4277C39.7872 50.4466 39.8451 50.4655 39.903 50.4655V50.5033H39.2467V50.4655C39.3239 50.4655 39.3625 50.4466 39.4011 50.4466C39.4204 50.4466 39.4398 50.4277 39.4398 50.39C39.4398 50.3711 39.4398 50.3522 39.4205 50.3333C39.4205 50.2955 39.4011 50.2766 39.3818 50.2388L39.2853 50.031H38.6098C38.5326 50.1821 38.494 50.2577 38.494 50.2955C38.4747 50.3333 38.4747 50.3522 38.4747 50.3711C38.4747 50.4089 38.494 50.4277 38.5326 50.4466C38.5519 50.4466 38.5905 50.4655 38.6484 50.4655V50.5033H38.1272ZM40.5592 50.4655C40.6557 50.4655 40.7136 50.4466 40.7329 50.4277C40.7523 50.4089 40.7716 50.3522 40.7716 50.2766V49.2941C40.7716 49.2186 40.7523 49.1619 40.7329 49.143C40.7136 49.1241 40.6364 49.1052 40.5399 49.1052V49.0485H41.2734V49.0863C41.1769 49.0863 41.119 49.1052 41.0804 49.1241C41.0418 49.143 41.0418 49.1997 41.0418 49.2752V50.3333C41.0418 50.3522 41.0418 50.3711 41.0611 50.39C41.0611 50.4089 41.0997 50.4089 41.119 50.4089H41.2927C41.5243 50.4089 41.6787 50.39 41.7559 50.3522C41.8331 50.3144 41.9103 50.2388 41.9875 50.1066H42.0455L41.9103 50.4844H40.5592V50.4655ZM44.9021 50.3711C44.9793 50.3333 45.0372 50.2388 45.0372 50.1255C45.0372 50.0121 44.9793 49.9176 44.8828 49.8798C44.7863 49.842 44.6512 49.8043 44.4967 49.8043H44.3809V50.3522C44.3809 50.39 44.4002 50.4277 44.4195 50.4277C44.4388 50.4466 44.4967 50.4466 44.5932 50.4466C44.7091 50.4277 44.8249 50.4089 44.9021 50.3711ZM44.8249 49.672C44.9214 49.6342 44.9793 49.5587 44.9793 49.4453C44.9793 49.313 44.9214 49.2186 44.8056 49.1808C44.7284 49.1619 44.6318 49.143 44.4967 49.143C44.4388 49.143 44.4195 49.143 44.4002 49.1619C44.4002 49.1619 44.3809 49.1808 44.3809 49.2375V49.7287H44.6125C44.6898 49.7098 44.767 49.6909 44.8249 49.672ZM43.8984 50.4655C43.9949 50.4655 44.0721 50.4466 44.0914 50.4277C44.1107 50.4089 44.13 50.3522 44.13 50.2766V49.2941C44.13 49.2186 44.1107 49.1619 44.0914 49.143C44.0528 49.1241 43.9949 49.1052 43.8984 49.1052V49.0485H44.5932C44.7863 49.0485 44.9407 49.0863 45.0565 49.143C45.1723 49.1997 45.2302 49.2941 45.2302 49.4264C45.2302 49.5398 45.1916 49.6153 45.1144 49.672C45.0758 49.7098 44.9986 49.7287 44.9214 49.7476C45.0372 49.7665 45.1337 49.8043 45.2109 49.8609C45.2881 49.9176 45.3267 49.9932 45.3267 50.1066C45.3267 50.2766 45.2302 50.4089 45.0565 50.4655C44.96 50.4844 44.8442 50.5222 44.7091 50.5222H43.8984V50.4655ZM47.2376 49.9554L46.948 49.3508L46.6585 49.9554H47.2376ZM46.176 50.5033V50.4655C46.2339 50.4655 46.2918 50.4277 46.3111 50.4089C46.3497 50.3711 46.4076 50.2766 46.4655 50.1066L46.9866 49.0296H47.0445L47.6622 50.2766C47.7008 50.3522 47.7394 50.4089 47.7587 50.4277C47.778 50.4466 47.8166 50.4655 47.8745 50.4655V50.5033H47.2569V50.4655C47.3341 50.4655 47.3727 50.4466 47.392 50.4466C47.4113 50.4466 47.4306 50.4277 47.4306 50.39C47.4306 50.3711 47.4306 50.3522 47.4113 50.3333C47.4113 50.2955 47.392 50.2766 47.3727 50.2388L47.2762 50.031H46.6199C46.5427 50.1821 46.5234 50.2577 46.5041 50.2955C46.4848 50.3333 46.4848 50.3522 46.4848 50.3711C46.4848 50.4089 46.5041 50.4277 46.5427 50.4466C46.562 50.4466 46.6006 50.4655 46.6585 50.4655V50.5033H46.176ZM48.608 50.4655C48.7045 50.4655 48.7817 50.4277 48.801 50.4089C48.8396 50.3711 48.8396 50.2955 48.8396 50.1821V49.2186L48.801 49.1808C48.7624 49.143 48.7431 49.1241 48.7045 49.1052C48.6852 49.0863 48.6466 49.0863 48.5887 49.0863V49.0485H49.0133L49.9784 50.1066V49.3697C49.9784 49.2564 49.9591 49.1808 49.9205 49.143C49.8819 49.1241 49.8239 49.1052 49.7467 49.1052V49.0485H50.3258V49.0863C50.2293 49.0863 50.1714 49.1052 50.1328 49.143C50.0942 49.1808 50.0942 49.2564 50.0942 49.3697V50.5222H50.0556L48.9554 49.313V50.1632C48.9554 50.2766 48.9747 50.3522 49.0133 50.39C49.0326 50.4089 49.0905 50.4277 49.187 50.4466V50.4844H48.608V50.4655ZM51.0592 50.4655C51.1558 50.4655 51.2137 50.4466 51.2523 50.4089C51.2716 50.39 51.2909 50.3144 51.2909 50.2388V49.2941C51.2909 49.2186 51.2716 49.1619 51.2523 49.143C51.233 49.1241 51.1558 49.1052 51.0785 49.1052V49.0485H51.7734V49.0863C51.6769 49.0863 51.619 49.1052 51.5804 49.1241C51.5611 49.143 51.5418 49.1997 51.5418 49.2752V49.7287C51.6962 49.6153 51.812 49.5209 51.9278 49.4264C52.1015 49.2752 52.1787 49.1808 52.1787 49.143C52.1787 49.1241 52.1594 49.0863 52.1401 49.0863C52.1015 49.0674 52.0629 49.0674 52.005 49.0674V49.0485H52.6613V49.0863C52.5841 49.0863 52.5262 49.1052 52.4683 49.1241C52.4103 49.143 52.3524 49.1808 52.2752 49.2564L51.7927 49.6531L52.3717 50.2199C52.4876 50.3333 52.5455 50.39 52.5841 50.4089C52.6227 50.4277 52.6806 50.4466 52.7578 50.4655V50.5033H52.005V50.4655C52.0629 50.4655 52.1208 50.4655 52.1401 50.4466C52.1594 50.4466 52.1787 50.4277 52.1787 50.4089C52.1787 50.4089 52.1787 50.3711 52.1594 50.3522C52.1401 50.3333 52.1208 50.2955 52.0822 50.2766L51.5997 49.8232L51.5225 49.8798V50.2766C51.5225 50.3522 51.5418 50.4089 51.5611 50.4466C51.5804 50.4655 51.6576 50.4844 51.7348 50.4844V50.5222H51.0399V50.4655H51.0592ZM55.6723 49.4831C55.7495 49.4264 55.7881 49.3508 55.7881 49.2752C55.7881 49.2186 55.7688 49.1808 55.7302 49.143C55.6916 49.1052 55.653 49.0863 55.5951 49.0863C55.5372 49.0863 55.4986 49.1052 55.46 49.143C55.4214 49.1808 55.4021 49.2186 55.4021 49.2752C55.4021 49.313 55.4021 49.3697 55.4214 49.4264C55.4407 49.4831 55.46 49.5398 55.4986 49.5964C55.5758 49.5586 55.6337 49.5209 55.6723 49.4831ZM55.5179 50.39C55.5758 50.3711 55.6337 50.3333 55.6916 50.2766C55.6144 50.1821 55.5565 50.1255 55.5179 50.0499C55.4793 49.9932 55.4021 49.8987 55.3249 49.7476C55.2477 49.7854 55.1705 49.842 55.1319 49.8798C55.074 49.9554 55.0353 50.0121 55.0353 50.1066C55.0353 50.1821 55.074 50.2577 55.1319 50.3144C55.1898 50.3711 55.267 50.4089 55.3635 50.4089C55.4021 50.4089 55.46 50.4089 55.5179 50.39ZM55.2863 49.6909C55.267 49.672 55.267 49.6342 55.2477 49.6153C55.2284 49.5775 55.2284 49.5587 55.2091 49.5398C55.2091 49.5209 55.2091 49.4831 55.1898 49.4642V49.3886C55.1898 49.2941 55.2284 49.1997 55.3056 49.143C55.3828 49.0674 55.46 49.0296 55.5758 49.0296C55.6723 49.0296 55.7495 49.0485 55.8267 49.1052C55.8846 49.1619 55.9232 49.2186 55.9232 49.2941C55.9232 49.3886 55.8846 49.4642 55.8074 49.5209C55.7302 49.5775 55.6337 49.6342 55.5565 49.672C55.6337 49.7854 55.6723 49.8609 55.7109 49.9176C55.7495 49.9554 55.8074 50.031 55.8846 50.1255C55.9811 50.031 56.039 49.9554 56.0583 49.8798C56.0969 49.8232 56.0969 49.7665 56.0969 49.7098C56.0969 49.672 56.0776 49.6342 56.0583 49.6342C56.039 49.6342 56.0004 49.6153 55.9425 49.6153V49.5775H56.483V49.6153C56.4251 49.6153 56.3865 49.6342 56.3672 49.6531C56.3285 49.672 56.2899 49.7098 56.2513 49.7476L56.1934 49.8609C56.1548 49.9365 56.1162 49.9932 56.0776 50.031C56.0583 50.0688 56.0004 50.1255 55.9425 50.201C55.9811 50.2199 56.0197 50.2577 56.0583 50.2955C56.1548 50.3522 56.232 50.39 56.3286 50.39C56.3865 50.39 56.4251 50.3711 56.4637 50.3522C56.483 50.3333 56.5216 50.3144 56.5602 50.2766L56.5988 50.2955C56.5988 50.3144 56.5795 50.3333 56.5409 50.3711C56.5023 50.4089 56.483 50.4466 56.4637 50.4655C56.4251 50.4844 56.3672 50.5222 56.3092 50.5411C56.2706 50.5411 56.2513 50.56 56.2127 50.56C56.1355 50.56 56.0583 50.5411 55.9811 50.5033C55.9425 50.4655 55.8653 50.4277 55.8074 50.3711C55.7302 50.4277 55.653 50.4844 55.5951 50.5033C55.4986 50.5411 55.3828 50.56 55.267 50.56C55.1319 50.56 55.0354 50.5222 54.9581 50.4655C54.8809 50.4089 54.8423 50.3144 54.8423 50.2199C54.8423 50.1255 54.8809 50.031 54.9388 49.9554C55.016 49.8798 55.0933 49.8043 55.2284 49.7476L55.2863 49.6909ZM58.5868 49.0485H59.9765V49.4264H59.9186C59.88 49.313 59.8607 49.2375 59.8028 49.1997C59.7642 49.1619 59.6677 49.143 59.5133 49.143H59.3782V50.2577C59.3782 50.3522 59.3975 50.39 59.4168 50.4089C59.4361 50.4277 59.5133 50.4466 59.6098 50.4466V50.4844H58.8956V50.4466C58.9922 50.4466 59.0694 50.4277 59.0887 50.39C59.108 50.3711 59.1273 50.2955 59.1273 50.2199V49.1241H58.9922C58.857 49.1241 58.7605 49.143 58.7026 49.1808C58.6447 49.2186 58.6254 49.2941 58.5868 49.4075H58.5289L58.5868 49.0485ZM61.5592 49.7098C61.6944 49.6531 61.7523 49.5775 61.7523 49.4453C61.7523 49.313 61.6944 49.2186 61.5786 49.1808C61.5206 49.1619 61.4434 49.143 61.3276 49.143C61.2504 49.143 61.2118 49.143 61.1925 49.1619C61.1732 49.1619 61.1732 49.1997 61.1732 49.2186V49.7665C61.3662 49.7476 61.482 49.7287 61.5592 49.7098ZM60.7293 50.4655C60.8258 50.4655 60.8837 50.4466 60.903 50.4089C60.9223 50.39 60.9416 50.3144 60.9416 50.2388V49.2941C60.9416 49.2186 60.9223 49.1619 60.903 49.143C60.8837 49.1241 60.8258 49.1052 60.7293 49.1052V49.0485H61.4048C61.5399 49.0485 61.6751 49.0674 61.7716 49.1052C61.9453 49.1619 62.0418 49.2753 62.0418 49.4453C62.0418 49.5587 62.0032 49.6342 61.926 49.6909C61.8488 49.7476 61.733 49.7854 61.5979 49.8043L62.0997 50.3522C62.119 50.39 62.1576 50.4089 62.1962 50.4277C62.2348 50.4466 62.2734 50.4466 62.312 50.4655V50.5033H61.9067L61.289 49.8232H61.1732V50.2577C61.1732 50.3333 61.1925 50.39 61.2118 50.4277C61.2504 50.4466 61.3083 50.4655 61.3855 50.4655V50.5033H60.71V50.4655H60.7293ZM63.721 49.0485V49.0863C63.6245 49.0863 63.5666 49.1052 63.528 49.1241C63.4894 49.143 63.4894 49.1997 63.4894 49.2752V49.9743C63.4894 50.0877 63.5087 50.1821 63.5473 50.2388C63.6052 50.3522 63.7403 50.4089 63.914 50.4089C64.107 50.4089 64.2422 50.3522 64.3194 50.2199C64.358 50.1443 64.3773 50.0499 64.3773 49.9176V49.3508C64.3773 49.2375 64.358 49.1619 64.3387 49.1241C64.3001 49.0863 64.2422 49.0674 64.1457 49.0674V49.0485H64.7247V49.0863C64.6282 49.0863 64.5703 49.1052 64.5317 49.143C64.5124 49.1808 64.4931 49.2564 64.4931 49.3697V49.9365C64.4931 50.0877 64.4738 50.201 64.4159 50.2955C64.3194 50.4466 64.1456 50.5222 63.8754 50.5222C63.6052 50.5222 63.4315 50.4466 63.335 50.2955C63.2771 50.2199 63.2578 50.1066 63.2578 49.9743V49.2941C63.2578 49.2186 63.2385 49.1619 63.2192 49.143C63.1806 49.1241 63.1227 49.1052 63.0455 49.1052V49.0485H63.721ZM65.574 50.0688C65.6126 50.1632 65.6705 50.2577 65.7284 50.2955C65.8249 50.4089 65.9407 50.4466 66.0951 50.4466C66.1723 50.4466 66.2302 50.4277 66.2881 50.3711C66.346 50.3333 66.3653 50.2766 66.3653 50.1821C66.3653 50.1066 66.346 50.0499 66.2881 49.9932C66.2495 49.9554 66.1723 49.8987 66.0565 49.8421L65.8442 49.7287C65.7863 49.6909 65.7284 49.6531 65.6898 49.6153C65.6126 49.5398 65.5933 49.4642 65.5933 49.3886C65.5933 49.2752 65.6319 49.1808 65.7091 49.1241C65.7863 49.0485 65.9021 49.0107 66.0372 49.0107C66.0951 49.0107 66.153 49.0296 66.2302 49.0485C66.3074 49.0863 66.346 49.0863 66.3653 49.0863C66.4039 49.0863 66.4232 49.0863 66.4232 49.0674C66.4425 49.0485 66.4425 49.0296 66.4618 49.0107H66.5197L66.5776 49.4831H66.5197C66.4811 49.3319 66.4039 49.2375 66.3267 49.1808C66.2495 49.1241 66.153 49.1052 66.0758 49.1052C65.9986 49.1052 65.9407 49.1241 65.9021 49.1619C65.8635 49.1997 65.8249 49.2564 65.8249 49.313C65.8249 49.3697 65.8442 49.4075 65.8828 49.4453C65.9214 49.4831 65.9793 49.5209 66.0565 49.5775L66.2688 49.6909C66.4039 49.7665 66.5004 49.8421 66.5583 49.8987C66.6162 49.9554 66.6355 50.031 66.6355 50.1255C66.6355 50.2388 66.5776 50.3333 66.5004 50.4089C66.4039 50.4844 66.2688 50.5222 66.1337 50.5222C66.0565 50.5222 65.9793 50.5033 65.9021 50.4844C65.8249 50.4466 65.767 50.4466 65.767 50.4466C65.7477 50.4466 65.7284 50.4466 65.7091 50.4655C65.6898 50.4844 65.6898 50.5033 65.6898 50.5222H65.6319L65.5547 50.0499H65.574V50.0688ZM67.4848 49.0485H68.8745L68.8938 49.4264H68.8359C68.8166 49.313 68.778 49.2375 68.7394 49.1997C68.7008 49.1619 68.6043 49.143 68.4499 49.143H68.3148V50.2577C68.3148 50.3522 68.3341 50.39 68.3534 50.4089C68.3727 50.4277 68.4499 50.4466 68.5464 50.4466V50.4844H67.8322V50.4466C67.9287 50.4466 68.0059 50.4277 68.0252 50.39C68.0445 50.3711 68.0639 50.2955 68.0639 50.2199V49.1241H67.9287C67.7936 49.1241 67.6971 49.143 67.6392 49.1808C67.6006 49.2186 67.562 49.2941 67.5234 49.4075H67.4655L67.4848 49.0485ZM72.0014 49.0674C72.0979 49.0863 72.1558 49.1052 72.1558 49.1052C72.1751 49.1052 72.1944 49.1052 72.2137 49.0863C72.233 49.0674 72.2523 49.0485 72.2523 49.0296H72.3102L72.3295 49.5209H72.2716C72.233 49.4264 72.1944 49.3508 72.1365 49.2752C72.04 49.1619 71.9048 49.1052 71.7311 49.1052C71.5574 49.1052 71.4223 49.1619 71.3065 49.2941C71.1907 49.4264 71.1328 49.5775 71.1328 49.8043C71.1328 49.9932 71.1907 50.1632 71.3065 50.2766C71.4223 50.39 71.5574 50.4466 71.7504 50.4466C71.8855 50.4466 71.9821 50.4277 72.0979 50.3711C72.1558 50.3333 72.233 50.2955 72.2909 50.2388L72.3295 50.2766C72.2716 50.3333 72.2137 50.39 72.1365 50.4466C72.0014 50.5222 71.8469 50.56 71.6925 50.56C71.4223 50.56 71.21 50.4844 71.0556 50.3333C70.9012 50.201 70.8433 50.0121 70.8433 49.8043C70.8433 49.5964 70.9205 49.4075 71.0749 49.2752C71.2293 49.1241 71.4416 49.0485 71.6925 49.0485C71.8276 49.0296 71.9048 49.0485 72.0014 49.0674ZM73.6227 50.2955C73.7192 50.4089 73.8543 50.4655 73.9894 50.4655C74.1245 50.4655 74.2596 50.4089 74.3561 50.2955C74.4526 50.1821 74.5105 50.0121 74.5105 49.7854C74.5105 49.5398 74.4526 49.3697 74.3561 49.2564C74.2403 49.143 74.1245 49.0863 73.9894 49.0863C73.835 49.0863 73.7192 49.143 73.6227 49.2564C73.5262 49.3697 73.4683 49.5398 73.4683 49.7665C73.4683 50.0121 73.5262 50.1821 73.6227 50.2955ZM73.4297 49.2186C73.5841 49.0863 73.7771 49.0296 73.9894 49.0296C74.2017 49.0296 74.3947 49.0863 74.5492 49.2186C74.7036 49.3508 74.8001 49.5398 74.8001 49.7854C74.8001 50.031 74.7229 50.2199 74.5492 50.3522C74.3947 50.4844 74.2017 50.5411 73.9894 50.5411C73.7578 50.5411 73.5648 50.4655 73.4104 50.3333C73.256 50.1821 73.1787 50.0121 73.1787 49.7854C73.1787 49.5398 73.2752 49.3508 73.4297 49.2186ZM75.5721 50.4655C75.6686 50.4655 75.7458 50.4277 75.7651 50.4089C75.7844 50.3711 75.8037 50.2955 75.8037 50.1821V49.2941C75.8037 49.2186 75.7844 49.1619 75.7651 49.143C75.7458 49.1241 75.6686 49.1052 75.5721 49.1052V49.0485H76.0547L76.6144 50.1443L77.1742 49.0485H77.6567V49.0863C77.5795 49.0863 77.5023 49.1052 77.483 49.1241C77.4637 49.143 77.4444 49.1997 77.4444 49.2752V50.2577C77.4444 50.3333 77.4637 50.39 77.483 50.4089C77.5023 50.4277 77.5795 50.4466 77.6567 50.4466V50.4844H76.9618V50.4466C77.0583 50.4466 77.1162 50.4277 77.1549 50.39C77.1742 50.3711 77.1935 50.2955 77.1935 50.2199V49.2375L76.5565 50.4844H76.5179L75.9003 49.2752V50.1632C75.9003 50.2766 75.9196 50.3522 75.9582 50.39C75.9775 50.4089 76.0354 50.4277 76.1319 50.4466V50.4844H75.5528V50.4655H75.5721ZM79.2587 49.1619C79.1815 49.143 79.1043 49.1241 78.9885 49.1241C78.9306 49.1241 78.9113 49.1241 78.9113 49.143C78.892 49.143 78.892 49.1808 78.892 49.1997V49.7665H79.0078C79.1236 49.7665 79.2008 49.7476 79.278 49.7287C79.3938 49.672 79.4517 49.5775 79.4517 49.4264C79.4517 49.313 79.3938 49.2186 79.2587 49.1619ZM78.4287 50.4655C78.5253 50.4655 78.5832 50.4277 78.6025 50.4089C78.6218 50.3711 78.6411 50.3144 78.6411 50.2388V49.2941C78.6411 49.2186 78.6218 49.1619 78.6025 49.143C78.5832 49.1241 78.5253 49.1052 78.4287 49.1052V49.0485H79.085C79.2973 49.0485 79.4517 49.0863 79.5675 49.1619C79.6833 49.2375 79.7412 49.3319 79.7412 49.4453C79.7412 49.5964 79.6833 49.7098 79.5482 49.7665C79.4324 49.8421 79.2587 49.8609 79.085 49.8609H78.892V50.2577C78.892 50.3522 78.9113 50.39 78.9306 50.4089C78.9692 50.4277 79.0271 50.4466 79.1236 50.4466V50.4844H78.4287V50.4655ZM81.2854 49.9554L80.9958 49.3508L80.7063 49.9554H81.2854ZM80.2238 50.5033V50.4655C80.2817 50.4655 80.3396 50.4277 80.3589 50.4089C80.3975 50.3711 80.4554 50.2766 80.5326 50.1066L81.0537 49.0296H81.1117L81.7293 50.2766C81.7679 50.3522 81.8065 50.4089 81.8258 50.4277C81.8451 50.4466 81.8837 50.4655 81.9416 50.4655V50.5033H81.324V50.4655C81.4012 50.4655 81.4398 50.4466 81.4591 50.4466C81.4784 50.4466 81.4784 50.4277 81.4784 50.39V50.3333C81.4591 50.2955 81.4591 50.2766 81.4398 50.2388L81.3433 50.031H80.687C80.6291 50.1821 80.5905 50.2577 80.5712 50.2955C80.5712 50.3333 80.5519 50.3522 80.5519 50.3711C80.5519 50.4089 80.5712 50.4277 80.6098 50.4466C80.6291 50.4466 80.6677 50.4655 80.7256 50.4655V50.5033H80.2238ZM82.6365 50.4655C82.733 50.4655 82.8102 50.4277 82.8295 50.4089C82.8681 50.3711 82.8681 50.2955 82.8681 50.1821V49.2186L82.8295 49.1808C82.7909 49.143 82.7523 49.1241 82.733 49.1052C82.7137 49.0863 82.6751 49.0863 82.6172 49.0863V49.0485H83.0418L84.0069 50.1066V49.3697C84.0069 49.2564 83.9876 49.1808 83.949 49.143C83.9297 49.1241 83.8718 49.1052 83.7753 49.1052V49.0485H84.3543V49.0863C84.2578 49.0863 84.1999 49.1052 84.1613 49.143C84.1227 49.1808 84.1034 49.2564 84.1034 49.3697V50.5222H84.0648L82.9646 49.313V50.1632C82.9646 50.2766 82.9839 50.3522 83.0225 50.39C83.0418 50.4089 83.0997 50.4277 83.1962 50.4466V50.4844H82.6172V50.4655H82.6365ZM85.7826 49.0485V49.0863C85.7247 49.0863 85.6861 49.0863 85.6475 49.1052C85.6282 49.1052 85.6089 49.143 85.6089 49.1619V49.1997C85.6089 49.2186 85.6282 49.2375 85.6475 49.2564L86.0142 49.7287L86.3617 49.2564C86.381 49.2375 86.381 49.2186 86.381 49.1997V49.1619C86.381 49.143 86.3617 49.1052 86.3231 49.1052C86.3038 49.1052 86.2652 49.0863 86.2072 49.0863V49.0485H86.7477V49.0863C86.6898 49.0863 86.6512 49.1052 86.6126 49.1241C86.5547 49.1619 86.4775 49.2375 86.4003 49.3319L86.0335 49.8232V50.2388C86.0335 50.3333 86.0528 50.3711 86.0914 50.4089C86.13 50.4277 86.1879 50.4466 86.3038 50.4466V50.4844H85.551V50.4466C85.6668 50.4466 85.7247 50.4277 85.7633 50.4089C85.7826 50.39 85.8019 50.3144 85.8019 50.2199V49.8421L85.4738 49.4264C85.358 49.2752 85.2808 49.1808 85.2422 49.143C85.2036 49.1052 85.1457 49.0863 85.0685 49.0863V49.0485H85.7826Z" fill="#221F1F"/>
</g>
<defs>
<clipPath id="clip0_1_5863">
<rect width="84" height="42" fill="white" transform="translate(6 27)"/>
</clipPath>
</defs>
</svg>
