<svg width="96" height="96" viewBox="0 0 96 96" fill="none" xmlns="http://www.w3.org/2000/svg">
<circle cx="48" cy="48" r="47" fill="white" stroke="white" stroke-width="2"/>
<g clip-path="url(#clip0_1_5536)">
<path d="M71.4698 19H22.6419C21.6977 19 20.7535 19.4047 20.0791 20.0791C19.4047 20.7535 19 21.6977 19 22.6419V70.6605C20.0791 57.307 24.3953 43.0093 33.8372 33.7023C43.414 24.3953 57.8465 19.9442 71.4698 19Z" fill="#7AC143"/>
<path d="M19 70.6605C20.0791 57.307 26.2837 44.8977 35.7256 35.5907C45.3023 26.2837 57.8465 19.9442 71.4698 19C57.8465 19.9442 43.414 24.2605 33.8372 33.7023C24.3953 43.1442 20.0791 57.307 19 70.6605Z" fill="white"/>
<path d="M74.1674 19H71.4698C57.8465 19.9442 45.3023 26.1488 35.7256 35.5907C26.2837 44.8977 19.9442 57.307 19 70.6605V73.3581C19 73.8977 19.1349 74.3023 19.2698 74.707C19.4047 75.1116 19.6744 75.5163 20.0791 75.9209C20.4837 76.1907 20.8884 76.4605 21.293 76.7302C21.6977 76.8651 22.2372 77 22.6419 77H74.0326C74.5721 77 74.9767 76.8651 75.3814 76.7302C75.786 76.5953 76.1907 76.3256 76.5954 75.9209C77 75.6512 77.2698 75.2465 77.4047 74.707C77.5395 74.3023 77.6744 73.7628 77.6744 73.3581V22.6419C77.6744 21.6977 77.2698 20.7535 76.5954 20.0791C76.0558 19.4047 75.1116 19 74.1674 19Z" fill="#008752"/>
<path d="M32.0837 31.0046H40.9861L55.1489 48.9442V31.0046H64.5907V64.9953H56.2279L41.5256 46.3814V64.9953H32.0837V31.0046Z" fill="white"/>
</g>
<defs>
<clipPath id="clip0_1_5536">
<rect width="58" height="58" fill="white" transform="translate(19 19)"/>
</clipPath>
</defs>
</svg>
