<svg width="96" height="96" viewBox="0 0 96 96" fill="none" xmlns="http://www.w3.org/2000/svg">
<circle cx="48" cy="48" r="47" fill="white" stroke="white" stroke-width="2"/>
<path d="M19.0015 41.9994V55.5078L48.348 74.5753L76.9918 54.4226V39.5148L48.6143 21L19.0015 41.9994Z" fill="white"/>
<path d="M53.5728 24.2382L48.359 27.8684V26.8095L42.0893 31.2184L29.968 39.8055L20.6255 46.473C20.1069 46.8445 19.5186 47.2687 19 47.6263V46.5117L21.2044 44.9311L39.083 32.1952L51.9257 23.1592L53.5728 24.2382Z" fill="#006BB6"/>
<path d="M56.9368 26.4274L48.359 32.4339V31.3286L28.6583 45.2595L19 52.1314V51.023L44.9532 32.5871L55.271 25.3438L56.9368 26.4274Z" fill="#006BB6"/>
<path d="M19.1179 55.5078L23.8163 52.1377L51.1643 32.7761L58.626 27.5266L60.2762 28.6087L48.3608 36.9853V35.8691L32.0148 47.4594V49.8914L28.9729 52.0773L21.7264 57.2091L19.1179 55.5078Z" fill="#006BB6"/>
<path d="M22.4521 57.6814L62.002 29.7312L63.6352 30.7994L48.3589 41.5398V40.45L32.013 52.0186V54.4305L25.0281 59.3657L22.4521 57.6814Z" fill="#006BB6"/>
<path d="M25.7947 59.8609L43.3032 47.4501L65.3383 31.906L66.9948 32.9927L48.3592 46.111V44.9918L32.0132 56.5682V58.9646L28.3614 61.539L25.7947 59.8609Z" fill="#006BB6"/>
<path d="M29.1069 62.0204L68.6738 34.0872L70.3132 35.1522L48.3586 50.6313V49.5445L32.0126 61.0853V63.9183L29.1069 62.0204Z" fill="#006BB6"/>
<path d="M32.4276 64.1908L72.0332 36.2747L73.6803 37.3521L62.4089 45.2611L49.6204 54.2832L50.5662 54.9087L35.0237 65.8829L32.4276 64.1908Z" fill="#006BB6"/>
<path d="M35.755 66.3582L75.3513 38.439L77 39.5164L66.0413 47.2428L66.9949 47.8682L64.4173 49.6996V48.3651L52.9447 56.4661L53.8936 57.0854L38.3697 68.0719L35.755 66.3582Z" fill="#006BB6"/>
<path d="M39.1013 68.5438L64.8146 50.399L76.8105 41.9637L76.9437 41.8723V44.0675L69.3365 49.4036L70.335 50.0538L64.4167 54.1964V52.8574L56.2631 58.6425L57.2368 59.2787L41.7129 70.2436L39.1013 68.5438Z" fill="#006BB6"/>
<path d="M42.4438 70.7221L71.0288 50.5617L76.9439 46.416V48.6127L72.6728 51.5927L73.6682 52.2414L64.417 58.7277V57.3778L59.5762 60.8176L60.5608 61.4616L45.0492 72.4203L42.4438 70.7221Z" fill="#006BB6"/>
<path d="M45.7705 72.8927L69.5301 56.1316L76.9438 50.9316V53.1098L76.0243 53.7863L76.9918 54.4225L64.4184 63.2387V61.8764C63.9974 62.1829 63.3425 62.6659 62.906 62.9957L63.8642 63.6273L48.3496 74.5736L45.7705 72.8927Z" fill="#006BB6"/>
<path d="M50.2189 22.0456C49.6121 22.4759 48.9696 22.9233 48.3597 23.3614V22.318L38.562 29.2069L24.9097 38.8977L19.0007 43.1007V41.9979L33.8358 31.3999L48.6151 21L50.2189 22.0456Z" fill="#006BB6"/>
</svg>
