<svg width="96" height="96" viewBox="0 0 96 96" fill="none" xmlns="http://www.w3.org/2000/svg">
<circle cx="48" cy="48" r="47" fill="white" stroke="white" stroke-width="2"/>
<path fill-rule="evenodd" clip-rule="evenodd" d="M19.4974 62.2014C19.2355 61.0945 18.572 60.2853 17.274 60.2853C15.363 60.2853 14.5618 62.1054 14.5618 63.9549C14.5618 65.8025 15.3611 67.6226 17.274 67.6226C18.6612 67.6226 19.4237 66.5039 19.5478 65.1011H21.0728C20.9486 67.4071 19.4353 68.9999 17.274 68.9999C14.6006 68.9999 13 66.7076 13 63.9549C13 61.2042 14.5986 58.9099 17.274 58.9099C19.2859 58.9236 20.8729 60.1246 21.0592 62.2014H19.4974Z" fill="#15375A"/>
<path fill-rule="evenodd" clip-rule="evenodd" d="M21.9846 61.796H23.3214V63.144H23.3466C23.5095 62.4014 24.3593 61.606 25.2343 61.606C25.5583 61.606 25.6456 61.6334 25.7717 61.6471V63.1302C25.5719 63.1028 25.3585 63.0636 25.1606 63.0636C24.1866 63.0636 23.4106 63.9139 23.4106 65.4519V68.7689H21.9866V61.796H21.9846Z" fill="#15375A"/>
<path fill-rule="evenodd" clip-rule="evenodd" d="M30.5055 64.6682C30.455 63.6965 29.8439 62.8207 28.8816 62.8207C27.8941 62.8207 27.219 63.6298 27.1821 64.6682H30.5055ZM27.1821 65.6812C27.1821 66.7744 27.7311 67.7442 28.9185 67.7442C29.743 67.7442 30.2436 67.3524 30.4919 66.5844H31.8422C31.5299 68.1086 30.3309 68.9589 28.9185 68.9589C26.895 68.9589 25.7581 67.4347 25.7581 65.2893C25.7581 63.3066 26.957 61.606 28.8816 61.606C30.9187 61.606 32.1682 63.5887 31.9295 65.6792H27.1821V65.6812Z" fill="#15375A"/>
<path fill-rule="evenodd" clip-rule="evenodd" d="M35.6021 67.7441C36.8768 67.7441 37.4142 66.4902 37.4142 65.2755C37.4142 63.7375 36.7274 62.8205 35.6274 62.8205C34.2906 62.8205 33.8153 64.1019 33.8153 65.3558C33.8153 66.5568 34.3663 67.7441 35.6021 67.7441ZM38.7897 68.7688H37.4394V67.8244H37.4142C37.0397 68.6199 36.2268 68.9588 35.4159 68.9588C33.3788 68.9588 32.3913 67.3268 32.3913 65.2363C32.3913 62.7128 33.7784 61.6078 35.1908 61.6078C36.0037 61.6078 36.902 61.9311 37.3405 62.701H37.3657V59.1392H38.7897V68.7688Z" fill="#15375A"/>
<path fill-rule="evenodd" clip-rule="evenodd" d="M40.0645 68.7688H41.4885V61.7959H40.0645V68.7688ZM40.0645 60.5949H41.4885V59.1372H40.0645V60.5949Z" fill="#15375A"/>
<path fill-rule="evenodd" clip-rule="evenodd" d="M42.0744 61.7958H43.1492V59.7053H44.5732V61.7958H45.8595V62.942H44.5732V66.6645C44.5732 67.2993 44.6237 67.6226 45.26 67.6226C45.4599 67.6226 45.6597 67.6226 45.8595 67.5697V68.757C45.5472 68.7844 45.2465 68.8373 44.9341 68.8373C43.448 68.8373 43.1725 68.2162 43.1473 67.0563V62.9439H42.0724V61.7958H42.0744Z" fill="#15375A"/>
<path fill-rule="evenodd" clip-rule="evenodd" d="M49.5224 59.1392H51.0842V64.7504C51.0842 66.0454 51.1599 67.5423 53.1834 67.5423C55.2069 67.5423 55.2826 66.0454 55.2826 64.7504V59.1392H56.8444V65.3029C56.8444 67.7715 55.3835 68.998 53.1834 68.998C50.9833 68.998 49.5224 67.7715 49.5224 65.3029V59.1392Z" fill="#15375A"/>
<path fill-rule="evenodd" clip-rule="evenodd" d="M58.0065 61.796H59.3568V62.8207L59.382 62.8481C59.8069 62.0801 60.5442 61.606 61.3939 61.606C62.7927 61.606 63.6813 62.4151 63.6813 63.9805V68.7689H62.2573V64.3861C62.2321 63.2929 61.8324 62.8207 60.9943 62.8207C60.0456 62.8207 59.4325 63.6298 59.4325 64.6545V68.7689H58.0085V61.796H58.0065Z" fill="#15375A"/>
<path fill-rule="evenodd" clip-rule="evenodd" d="M64.9036 68.7688H66.3276V61.7959H64.9036V68.7688ZM64.9036 60.5949H66.3276V59.1372H64.9036V60.5949Z" fill="#15375A"/>
<path fill-rule="evenodd" clip-rule="evenodd" d="M72.2372 65.2756C72.2372 64.0746 71.6745 62.8207 70.3999 62.8207C69.1252 62.8207 68.5626 64.0746 68.5626 65.2756C68.5626 66.4903 69.1252 67.7442 70.3999 67.7442C71.6745 67.7442 72.2372 66.4903 72.2372 65.2756ZM67.1386 65.2756C67.1386 63.1439 68.3259 61.606 70.3999 61.606C72.4738 61.606 73.6612 63.1439 73.6612 65.2756C73.6612 67.4209 72.4738 68.9589 70.3999 68.9589C68.3259 68.9589 67.1386 67.4209 67.1386 65.2756Z" fill="#15375A"/>
<path fill-rule="evenodd" clip-rule="evenodd" d="M74.412 61.796H75.7623V62.8207L75.7876 62.8481C76.2124 62.0801 76.9497 61.606 77.7994 61.606C79.1983 61.606 80.0868 62.4151 80.0868 63.9805V68.7689H78.6628V64.3861C78.6376 63.2929 78.2379 62.8207 77.3998 62.8207C76.4511 62.8207 75.838 63.6298 75.838 64.6545V68.7689H74.414V61.796H74.412Z" fill="#15375A"/>
<path fill-rule="evenodd" clip-rule="evenodd" d="M13.2173 41.2749H20.7333V43.483H16.1449V46.1495H20.4093V48.3556H16.1449V52.705H13.2173V41.2749Z" fill="#15375A"/>
<path fill-rule="evenodd" clip-rule="evenodd" d="M21.4919 41.2749H29.4637V43.4653H24.4039V45.8458H29.1688V48.0362H24.4039V50.4813H29.5801V52.705H21.4919V41.2749Z" fill="#15375A"/>
<path fill-rule="evenodd" clip-rule="evenodd" d="M33.4778 50.4991H34.7428C36.6984 50.4834 37.9478 49.5782 37.9478 46.9097C37.9478 43.4321 35.5363 43.4321 34.638 43.4321L33.4759 43.4164V50.4991H33.4778ZM30.4629 41.2437H34.9484C36.2134 41.2437 37.8896 41.3867 38.9935 42.1958C40.5669 43.3557 40.9938 45.2444 40.9938 46.9431C40.9938 49.4842 40.2449 51.3572 38.0972 52.2624C37.0088 52.7071 35.7147 52.7071 34.9794 52.7071H30.4648V41.2437H30.4629Z" fill="#15375A"/>
<path fill-rule="evenodd" clip-rule="evenodd" d="M41.7291 41.2749H49.7009V43.4653H44.6412V45.8458H49.406V48.0362H44.6412V50.4813H49.8173V52.705H41.7291V41.2749Z" fill="#15375A"/>
<path fill-rule="evenodd" clip-rule="evenodd" d="M53.554 46.1652H54.6579C55.3039 46.1652 55.6279 46.1652 55.8782 46.0692C56.5262 45.8478 56.6581 45.1327 56.6581 44.7683C56.6581 43.3557 55.5115 43.3557 54.6579 43.3557H53.554V46.1652ZM50.5973 41.2437H55.5096C57.4206 41.2437 58.1423 41.371 58.7748 42.0685C59.0988 42.4172 59.5101 43.052 59.5101 44.2922C59.5101 45.5461 59.0406 46.0869 58.54 46.4199C57.8629 46.8804 57.2169 46.9587 56.922 47.0077V47.0704C58.9824 47.1331 59.0988 48.1186 59.3335 49.8799C59.4364 50.6578 59.5838 51.896 59.8341 52.7071H56.6426C56.4661 52.0077 56.3923 51.1358 56.2895 50.119C56.1576 48.7377 56.113 48.2303 54.7898 48.2303H53.554V52.7071H50.5973V41.2437Z" fill="#15375A"/>
<path fill-rule="evenodd" clip-rule="evenodd" d="M67.2744 48.291L65.9066 43.4811H65.862L64.3914 48.291H67.2744ZM64.2304 41.2437H67.8195L72.0102 52.7071H68.6868L67.9515 50.405H63.7007L62.9809 52.7071H60.0397L64.2304 41.2437Z" fill="#15375A"/>
<path fill-rule="evenodd" clip-rule="evenodd" d="M72.3186 41.2437H75.3045V50.452H80.0693V52.7071H72.3186V41.2437Z" fill="#15375A"/>
<path fill-rule="evenodd" clip-rule="evenodd" d="M13.2173 28.5635H17.276L20.8652 37.1057L20.8361 28.5635H23.4106V40.0269H19.4392L15.7763 31.1203L15.8054 40.0269H13.2173V28.5635Z" fill="#15375A"/>
<path fill-rule="evenodd" clip-rule="evenodd" d="M31.4349 35.6128L30.0671 30.8029H30.0225L28.5519 35.6128H31.4349ZM28.3909 28.5635H31.9801L36.1726 40.0269H32.8492L32.1139 37.7248H27.8632L27.1434 40.0269H24.2022L28.3909 28.5635Z" fill="#15375A"/>
<path fill-rule="evenodd" clip-rule="evenodd" d="M33.9725 28.5635H37.2222L39.6338 36.8667L42.1792 28.5635H45.1048L41.2363 40.0269H37.7208L33.9725 28.5635Z" fill="#15375A"/>
<path fill-rule="evenodd" clip-rule="evenodd" d="M48.4069 28.5635L50.7311 33.3734L53.1291 28.5635H56.1595L52.0116 35.9772V40.025H49.0413V35.8342L44.9962 28.5635H48.4069Z" fill="#15375A"/>
<path fill-rule="evenodd" clip-rule="evenodd" d="M13.2173 57.0506H80.0674V54.0374H13.2173V57.0506Z" fill="#15375A"/>
<path fill-rule="evenodd" clip-rule="evenodd" d="M71.0479 38.6241H70.848C71.3098 38.0951 71.6939 37.4642 71.9849 36.7628H72.6368C72.2333 37.4858 71.692 38.1167 71.0479 38.6241ZM70.4445 39.0473C70.4426 39.0473 70.4426 39.0473 70.4445 39.0473V39.0473ZM64.0422 39.0473C64.0441 39.0473 64.0441 39.0473 64.0422 39.0473V39.0473ZM61.8499 36.7628H62.5017C62.7908 37.4642 63.1788 38.0951 63.6406 38.6241H63.4427C62.7986 38.1167 62.2553 37.4858 61.8499 36.7628ZM63.4369 28.7574H63.6406C63.2952 29.1493 62.9887 29.5999 62.7365 30.1015L62.7307 30.0995L62.6414 30.2895L62.5522 30.4796L62.558 30.4815C62.5386 30.5266 62.5172 30.5697 62.4998 30.6167H61.8518C61.9604 30.4228 62.0749 30.2327 62.203 30.0525C62.5541 29.5588 62.9712 29.1238 63.4369 28.7574ZM70.4445 28.3362C70.4426 28.3342 70.4445 28.3342 70.4445 28.3362V28.3362ZM72.6388 30.6187H71.9869C71.6959 29.9153 71.3117 29.2864 70.85 28.7574H71.0498C71.692 29.2649 72.2333 29.8977 72.6388 30.6187ZM72.5825 33.9004H73.4342C73.4051 34.7703 73.2014 35.5951 72.8541 36.3416H72.1479C72.4098 35.5893 72.5592 34.7664 72.5825 33.9004ZM70.0895 36.3416C70.235 35.5932 70.3184 34.7703 70.332 33.9004H72.1634C72.1402 34.7703 71.9791 35.5951 71.7056 36.3416H70.0895ZM69.1194 39.0473H69.8043C69.4356 39.3333 69.036 39.5567 68.613 39.7134C68.7915 39.5254 68.9603 39.302 69.1194 39.0473ZM65.3692 39.0473C65.5244 39.302 65.6951 39.5254 65.8736 39.7134C65.4507 39.5567 65.051 39.3333 64.6824 39.0473H65.3692ZM62.3232 33.9004H64.1566C64.1683 34.7683 64.2517 35.5932 64.3991 36.3416H62.783C62.5075 35.5951 62.3465 34.7703 62.3232 33.9004ZM61.9061 33.4792H61.0583C61.0835 32.6249 61.2814 31.8001 61.6345 31.0399H62.3388C62.073 31.8079 61.9294 32.6367 61.9061 33.4792ZM64.403 31.0399C64.2536 31.8079 64.1702 32.6367 64.1566 33.4792H62.3252C62.3485 32.6308 62.5037 31.8021 62.783 31.0399H64.403ZM69.1194 28.3362C68.9603 28.0795 68.7915 27.8562 68.613 27.6701C69.036 27.8268 69.4356 28.0521 69.8043 28.3362H69.1194ZM67.4509 33.4792V31.0399H69.6549C69.8082 31.7903 69.8974 32.6151 69.911 33.4792H67.4509ZM67.4509 36.3416V33.9004H69.9129C69.8993 34.7644 69.8101 35.5932 69.6568 36.3416H67.4509ZM67.4509 38.6241V36.7628H69.5598C69.3833 37.4819 69.1466 38.1147 68.8691 38.6241H67.4509ZM67.4509 39.0473H68.6092C68.2638 39.543 67.87 39.8584 67.4509 39.9387V39.0473ZM67.0357 39.0473V39.9387C66.6186 39.8584 66.2228 39.543 65.8756 39.0473H67.0357ZM67.0357 36.7628V38.6241H65.6195C65.342 38.1147 65.1053 37.4819 64.9269 36.7628H67.0357ZM67.0357 33.9004V36.3416H64.8318C64.6785 35.5932 64.5873 34.7644 64.5757 33.9004H67.0357ZM67.0357 31.0399V33.4792H64.5757C64.5873 32.6328 64.6746 31.804 64.8299 31.0399H67.0357ZM68.8691 28.7574C69.1466 29.2668 69.3813 29.9016 69.5598 30.6187H67.4509V28.7574H68.8691ZM67.4509 28.3362V27.4428C67.87 27.5231 68.2658 27.8385 68.6092 28.3362H67.4509ZM67.0357 27.4447V28.3362H65.8736C66.2267 27.8346 66.6244 27.5231 67.0357 27.4447ZM65.3711 28.3362H64.696C65.0607 28.0541 65.4546 27.8327 65.8678 27.6779C65.6913 27.8621 65.5263 28.0835 65.3711 28.3362ZM64.9598 30.4678C65.1344 29.7997 65.3576 29.2257 65.6136 28.7574H67.0357V30.6187H64.923C64.9346 30.5678 64.9463 30.5149 64.9598 30.4678ZM72.1654 33.4792H70.3339C70.3223 32.6093 70.2369 31.7864 70.0914 31.0399H71.7075C71.9791 31.7844 72.1421 32.6112 72.1654 33.4792ZM73.4323 33.4792H72.5805C72.5592 32.6151 72.4079 31.7903 72.146 31.0399H72.8522C73.2014 31.7844 73.4051 32.6112 73.4323 33.4792ZM71.5348 30.6187H69.9983C69.8353 29.9153 69.6141 29.2845 69.3503 28.7574H70.2757C70.786 29.2649 71.2147 29.8977 71.5348 30.6187ZM63.0178 30.4698C63.3321 29.8017 63.7414 29.2257 64.2148 28.7574H65.1403C64.9385 29.161 64.76 29.6312 64.6106 30.1563H64.6087L64.5543 30.3601L64.502 30.5638H64.5058C64.502 30.5815 64.4961 30.5991 64.4923 30.6187H62.9518C62.9751 30.5697 62.9945 30.5188 63.0178 30.4698ZM61.0544 33.9004H61.9042C61.9275 34.7644 62.0788 35.5893 62.3388 36.3416H61.6345C61.2872 35.5971 61.0816 34.7703 61.0544 33.9004ZM62.9518 36.7628H64.4864C64.6514 37.4682 64.8725 38.0971 65.1364 38.6241H64.2071C63.7026 38.1167 63.2739 37.4858 62.9518 36.7628ZM70.2776 38.6241H69.3522C69.6161 38.0971 69.8353 37.4682 70.0002 36.7628H71.5368C71.2147 37.4858 70.786 38.1167 70.2776 38.6241ZM73.8571 33.6908C73.8571 30.2092 71.205 27.3409 67.8312 27.0411C67.6391 27.0137 67.4432 27 67.2453 27C67.059 27 66.8747 27.0157 66.6923 27.0392C64.8415 27.1979 63.1264 28.1422 61.9915 29.641L61.9876 29.6371L61.8654 29.8076L61.7451 29.978L61.7509 29.9839C61.0234 31.083 60.6353 32.3585 60.6353 33.6908C60.6353 37.1723 63.2875 40.0406 66.6613 40.3404C66.8534 40.3678 67.0513 40.3815 67.2492 40.3815C67.449 40.3815 67.643 40.3678 67.8351 40.3404C71.2031 40.0406 73.8571 37.1723 73.8571 33.6908Z" fill="#15375A"/>
<path fill-rule="evenodd" clip-rule="evenodd" d="M82.1259 55.3147H82.3315C82.5663 55.3147 82.7642 55.2285 82.7642 55.0071C82.7642 54.8484 82.6497 54.6916 82.3315 54.6916C82.2384 54.6916 82.1744 54.6995 82.1259 54.7053V55.3147ZM82.1259 56.3119H81.8426V54.5114C81.992 54.4898 82.1336 54.4683 82.347 54.4683C82.6167 54.4683 82.7952 54.5251 82.9019 54.6054C83.0086 54.6838 83.0649 54.8072 83.0649 54.9777C83.0649 55.2147 82.9077 55.3578 82.7176 55.4146V55.4283C82.8747 55.4577 82.9795 55.6007 83.0164 55.8652C83.0591 56.1454 83.1017 56.2531 83.1289 56.31H82.8301C82.7874 56.2512 82.7448 56.0866 82.7098 55.8515C82.6672 55.6223 82.5527 55.5361 82.3257 55.5361H82.1278V56.3119H82.1259ZM82.4227 54.0098C81.7184 54.0098 81.1442 54.6191 81.1442 55.3734C81.1442 56.1415 81.7204 56.7429 82.4305 56.7429C83.1405 56.7508 83.709 56.1395 83.709 55.3793C83.709 54.6191 83.1405 54.0098 82.4305 54.0098H82.4227ZM82.4305 53.7571C83.3035 53.7571 84 54.4742 84 55.3715C84 56.2825 83.3035 56.9937 82.4227 56.9937C81.5477 56.9937 80.8376 56.2825 80.8376 55.3715C80.8376 54.4742 81.5477 53.7571 82.4227 53.7571H82.4305Z" fill="#15375A"/>
</svg>
