<svg width="96" height="96" viewBox="0 0 96 96" fill="none" xmlns="http://www.w3.org/2000/svg">
<circle cx="48" cy="48" r="47" fill="white" stroke="white" stroke-width="2"/>
<g clip-path="url(#clip0_1_1243)">
<path d="M20.4672 47.2801C20.4672 48.7361 19.6307 49.8134 18.223 50.0961C20.124 50.3787 21.5128 51.5894 21.5128 53.6134C21.5128 55.8641 19.7459 57.3761 15.5446 57.3761C14.7268 57.3761 11.3244 57.3201 11 57.3014V44.0667C13.5471 43.9921 14.6303 44.0107 15.4668 44.0294C19.2124 44.0667 20.4672 45.5227 20.4672 47.2827V47.2801ZM13.2227 45.9387V49.3227C14.0029 49.3414 15.3328 49.3414 15.9601 49.3227C17.6332 49.2481 18.2981 48.4347 18.2418 47.5254C18.1855 46.4667 17.1774 45.9547 16.0567 45.9361C15.5043 45.9174 13.9841 45.9174 13.2254 45.9361L13.2227 45.9387ZM13.2227 51.2721V55.4507C13.9439 55.4507 15.4668 55.4694 16.113 55.4694C18.148 55.4134 19.2687 54.6001 19.2687 53.3521C19.2687 52.1041 18.2418 51.3094 15.7322 51.2534C15.0861 51.2347 13.9654 51.2534 13.2227 51.2721Z" fill="#00ADE2"/>
<path d="M23.0518 57.3012V43.6318H25.1431V57.3038H23.0518V57.3012Z" fill="#00ADE2"/>
<path d="M34.9535 57.301L34.857 55.7117C34.3637 56.261 32.9561 57.621 30.9586 57.621C28.9611 57.621 27.1379 56.1837 27.1379 53.4797V47.165H29.2292V53.3864C29.2292 54.957 30.3124 55.8077 31.586 55.8077C33.0874 55.8077 34.2296 54.653 34.798 53.7837V47.165H36.8893V57.301H34.9508H34.9535Z" fill="#00ADE2"/>
<path d="M39.1173 44.0664C40.5249 44.029 42.3856 43.9917 43.2034 43.9917C47.2332 43.9917 49.6489 45.6184 49.6677 48.7944C49.6677 52.1037 47.083 53.6157 44.2115 53.7304C43.3187 53.7677 42.139 53.7864 41.34 53.7864V57.3037H39.1146V44.0664H39.1173ZM41.3427 51.7624C42.332 51.7624 43.1096 51.7624 43.9273 51.7437C46.1312 51.669 47.4262 50.6477 47.4262 48.9464C47.4262 47.245 45.9998 46.0904 43.9085 46.0344C43.1685 46.0157 42.3883 46.0157 41.3427 46.0157V51.765V51.7624Z" fill="#00ADE2"/>
<path d="M61.0171 53.0103L52.5955 52.9916C52.9575 54.8076 54.534 55.6956 56.3599 55.677C58.0517 55.6583 59.2126 54.8636 59.8588 54.277L60.9045 55.789C60.0867 56.5276 58.4914 57.4716 56.3224 57.4716C53.2605 57.4716 50.4104 55.6556 50.4104 52.1596C50.4104 48.8503 52.995 46.8263 55.9818 46.8663C59.6148 46.9036 61.7437 49.949 61.0197 53.0103H61.0171ZM59.0008 51.2903C59.0947 49.909 57.8989 48.6796 55.9979 48.661C54.3437 48.661 52.9361 49.5676 52.5955 51.2903H59.0035H59.0008Z" fill="#00ADE2"/>
<path d="M72.8409 57.3012H70.9212L70.8649 55.9199C70.2563 56.7145 69.1168 57.4505 67.5939 57.4505C65.0655 57.4505 62.5935 55.3892 62.5935 52.0799C62.5935 48.9412 64.9127 47.0132 67.3847 47.0132C68.9613 47.0132 70.141 47.8079 70.8059 48.7519L70.8434 47.1625H72.8409V57.2985V57.3012ZM64.5695 52.1198C64.5695 54.2185 66.1085 55.6185 67.9156 55.6185C69.1329 55.6185 70.141 55.0132 70.8059 54.1999V50.5119C70.082 49.4532 69.0176 48.7732 67.7628 48.7732C66.071 48.7732 64.5695 50.0772 64.5695 52.1198Z" fill="#00ADE2"/>
<path d="M81.6432 47.1678H84.3431L80.4849 51.3092L84.933 57.3038H82.2143L79.0586 52.8238L77.0048 55.0185V57.3065H74.9323V43.6318H77.0048V52.2745L81.6432 47.1678Z" fill="#00ADE2"/>
<path d="M42.8388 59.9438L42.5493 60.6878C42.2945 60.5571 41.9487 60.4398 41.5465 60.4531C40.8521 60.4718 40.1228 60.8904 40.1228 61.8344C40.1228 62.7784 40.8521 63.1438 41.5519 63.1438C41.9138 63.1438 42.2463 63.0504 42.5439 62.8851L42.863 63.6158C42.5198 63.7864 42.0666 63.9411 41.5277 63.9411C40.3185 63.9464 39.23 63.2264 39.23 61.8451C39.23 60.4638 40.2086 59.6798 41.4741 59.6558C42.0613 59.6451 42.5305 59.8104 42.8388 59.9438Z" fill="#0067B0"/>
<path d="M45.4985 62.773C45.4047 62.7784 45.3135 62.7837 45.2251 62.7837C44.9998 62.7837 44.6567 62.7784 44.603 62.7784V63.8637H43.7129V59.733C44.2169 59.7277 44.6808 59.7144 45.15 59.7144C46.3485 59.7197 47.0375 60.3624 47.0375 61.2664C47.0375 61.8504 46.7587 62.245 46.3672 62.4877L47.067 63.8637H46.0535L45.5012 62.773H45.4985ZM44.603 61.9944C44.8229 61.9997 45.024 61.9997 45.2331 61.989C45.8632 61.949 46.1474 61.653 46.1474 61.245C46.1474 60.7837 45.7372 60.5357 45.1983 60.5144C44.9838 60.5037 44.8014 60.5037 44.6057 60.5037V61.997L44.603 61.9944Z" fill="#0067B0"/>
<path d="M48.8419 60.5276V61.4129H50.4506V62.1622H48.8419V63.0662H51.0968V63.8636H47.9518V59.7329H50.96V60.5302H48.8419V60.5276Z" fill="#0067B0"/>
<path d="M51.9896 59.7333C52.2792 59.728 52.8556 59.7227 53.1103 59.7227C54.5582 59.728 55.7513 60.3067 55.7513 61.76C55.7513 63.2133 54.6761 63.8853 53.0862 63.8853C52.8959 63.8853 52.3864 63.8853 51.9896 63.8667V59.736V59.7333ZM52.869 63.08C53.0058 63.0853 53.1425 63.0853 53.29 63.08C54.1024 63.0453 54.8638 62.6667 54.8638 61.7813C54.8638 60.8187 53.9549 60.5253 53.3088 60.5253C53.3034 60.5253 53.1184 60.5147 52.869 60.5253V63.08Z" fill="#0067B0"/>
<path d="M56.4189 63.8636V59.7329H57.285V63.8636H56.4189Z" fill="#0067B0"/>
<path d="M60.2878 60.5278V63.8638H59.3977V60.5278H58.0518V59.7305H61.6418V60.5278H60.2878Z" fill="#0067B0"/>
<path d="M68.3742 62.0342C68.3742 63.2982 67.5028 63.9942 66.4518 63.9942C65.4598 63.9942 64.516 63.3756 64.516 62.0636V59.7329H65.4061V62.1062C65.4061 62.7542 65.7788 63.1916 66.433 63.1916C67.0872 63.1916 67.484 62.7489 67.484 62.1009V59.7329H68.3742V62.0342Z" fill="#0067B0"/>
<path d="M72.3209 63.8636L70.1974 61.1356V63.8636H69.3073V59.7329H70.1786L72.2672 62.4422V59.7329H73.1628V63.8636H72.3209Z" fill="#0067B0"/>
<path d="M74.1763 63.8636V59.7329H75.0423V63.8636H74.1763Z" fill="#0067B0"/>
<path d="M80.4072 61.8211C80.4072 63.0771 79.5117 63.9998 78.1819 63.9998C76.852 63.9998 75.9458 63.1198 75.9458 61.8291C75.9458 60.5384 76.9191 59.6558 78.1765 59.6558C79.434 59.6558 80.4072 60.5118 80.4072 61.8211ZM76.8413 61.8264C76.8413 62.6291 77.3641 63.2024 78.1819 63.2024C78.9996 63.2024 79.5117 62.6051 79.5117 61.8211C79.5117 61.0371 78.9836 60.4531 78.1765 60.4531C77.3695 60.4531 76.8413 61.0078 76.8413 61.8291V61.8264Z" fill="#0067B0"/>
<path d="M84.0885 63.8636L81.965 61.1356V63.8636H81.0748V59.7329H81.9462L84.0348 62.4422V59.7329H84.9303V63.8636H84.0885Z" fill="#0067B0"/>
<path d="M53.4777 41.6136C53.4777 41.6136 65.1327 47.9896 74.262 32.2749C74.262 32.2749 77.3105 38.3549 84.9303 42.5949C84.9303 42.5949 79.93 41.4349 74.7902 35.0909L74.5033 36.0749L74.1521 34.6082L73.7794 37.5629L73.2512 35.6802L72.833 37.8669L72.5032 37.3416C72.5032 37.3416 65.4973 47.8536 53.4777 41.6136Z" fill="#0067B0"/>
<path d="M55.3893 40.9893C55.3893 40.9893 62.0198 39.1653 65.6849 32C65.6849 32 67.5591 35.7173 69.3822 37.6187C69.3822 37.6187 67.1462 36.3627 66.0576 34.6213L65.7278 35.912L65.4195 34.7733L64.8028 36.656L64.7358 34.992C64.7358 34.992 62.7973 39.3813 55.3866 40.9867L55.3893 40.9893Z" fill="#00ADE2"/>
<path d="M82.7156 43.7331L82.6433 43.9464C82.5333 43.8904 82.3885 43.8451 82.2438 43.8451C82.0668 43.8451 81.9327 43.9144 81.9354 44.0398C81.9408 44.1784 82.1204 44.1971 82.3376 44.2531C82.6218 44.3224 82.8256 44.4131 82.8256 44.6798C82.8309 44.9864 82.5655 45.1358 82.2491 45.1384C81.981 45.1438 81.7585 45.0451 81.6378 44.9731L81.729 44.7678C81.8389 44.8318 82.0239 44.9171 82.2304 44.9118C82.4395 44.9118 82.5735 44.8211 82.5735 44.6931C82.5735 44.5331 82.3698 44.5064 82.1365 44.4504C81.8899 44.3918 81.6861 44.3011 81.6807 44.0478C81.6754 43.7518 81.9542 43.6211 82.2411 43.6211C82.4368 43.6211 82.603 43.6798 82.7156 43.7304V43.7331Z" fill="#009CDB"/>
<path d="M84.5925 45.1064V44.0424L83.9919 44.8344L83.4021 44.0397V45.1064H83.1527V43.645H83.386L83.9892 44.453L84.6086 43.645H84.8445V45.1064H84.5898H84.5925Z" fill="#009CDB"/>
</g>
<defs>
<clipPath id="clip0_1_1243">
<rect width="74" height="32" fill="white" transform="translate(11 32)"/>
</clipPath>
</defs>
</svg>
