<svg width="96" height="96" viewBox="0 0 96 96" fill="none" xmlns="http://www.w3.org/2000/svg">
<circle cx="48" cy="48" r="47" transform="rotate(180 48 48)" fill="white" stroke="white" stroke-width="2"/>
<path d="M77 20.6111H20.6111V77H77V20.6111Z" fill="white"/>
<path d="M19 19V77H77V19H19ZM31.7278 59.9222V48.6444C37.0444 51.3833 36.5611 57.5056 31.7278 59.9222ZM31.7278 46.55V35.9167C36.4 37.6889 37.2056 43.8111 31.7278 46.55ZM34.6278 47.5167C34.6278 47.5167 37.2056 45.9056 37.85 42.6833V52.35C37.3667 49.45 35.1111 47.8389 34.6278 47.5167ZM40.75 30.1167C47.3556 34.3056 47.8389 47.1944 40.75 52.1889V30.1167ZM48 44.9389V70.5556C45.4222 70.5556 43.1667 70.0722 40.9111 69.4278V55.25C42.5222 54.2833 46.7111 51.2222 48 44.9389ZM50.7389 28.5056C58.3111 33.1778 57.9889 46.7111 50.7389 51.8667V28.5056ZM57.9889 45.9056V68.1389C55.7333 69.2667 53.3167 69.9111 50.9 70.2333V55.0889C52.5111 54.1222 56.2167 51.2222 57.9889 45.9056ZM51.5444 25.9278C53.8 26.25 55.8944 27.0556 57.8278 28.0222V33.9833C56.8611 30.6 54.7667 28.0222 51.5444 25.9278ZM60.7278 32.05C65.8833 35.7556 66.85 45.2611 60.7278 50.0944V32.05ZM48 37.3667C47.1944 33.0167 44.7778 29.6333 41.0722 26.5722C43.1667 25.9278 45.5833 25.6056 48 25.6056V37.3667ZM38.0111 27.8611V39.6222C37.2056 35.7556 33.6611 33.6611 31.2444 32.8556C33.1778 30.9222 35.4333 29.15 38.0111 27.8611ZM28.9889 36.0778V59.9222C26.7333 56.5389 25.4444 52.35 25.4444 48C25.4444 43.65 26.7333 39.4611 28.9889 36.0778ZM31.2444 62.9833H31.4056C31.5667 62.9833 31.7278 62.8222 31.7278 62.8222C34.6278 61.6944 37.2056 59.1167 37.85 55.4111V68.1389C35.4333 66.85 33.1778 65.0778 31.2444 62.9833ZM60.7278 66.3667V52.6722L65.4 62.0167C64.1111 63.7889 62.5 65.2389 60.7278 66.3667ZM67.1722 59.4389L63.1444 51.3833C65.0778 49.45 67.4944 46.55 67.4944 41.7167C67.4944 39.1389 67.0111 37.0444 66.2056 35.2722C68.7833 38.9778 70.2333 43.3278 70.2333 48C70.3944 52.1889 69.2667 56.0556 67.1722 59.4389Z" fill="#CF102D"/>
</svg>
