<svg width="96" height="96" viewBox="0 0 96 96" fill="none" xmlns="http://www.w3.org/2000/svg">
<circle cx="48" cy="48" r="47" fill="white" stroke="white" stroke-width="2"/>
<path d="M19.8829 34.5853C19.5125 34.4066 18.9296 34.2784 18.3467 34.2784C17.7017 34.2784 17.1188 34.6359 17.1188 35.2252V36.9648H20.4658L19.7599 39.8804H17.1188V50.1649H11.7771V39.8804H10V36.9648H11.7771C11.6864 36.5036 11.6864 35.8897 11.6864 35.378C11.6864 31.5661 15.2148 31.1062 17.2108 31.1062C18.8376 31.1062 19.9736 31.2604 21.1406 31.7966L19.8829 34.5853ZM35.0635 38.5553H33.798V41.5526H35.0894C36.6359 41.5526 37.167 40.9412 37.167 39.9478C37.167 38.8934 36.4818 38.5553 35.0635 38.5553ZM37.724 50.1649L35.8756 46.0485C35.1917 44.5291 34.7863 44.3387 33.798 44.3387V50.1649H29.2646V35.4519H35.3433C40.536 35.4519 42.2082 37.2044 42.2082 39.6537C42.2082 42.186 40.6124 43.4748 38.5348 43.7688C39.1436 43.9165 39.878 44.5913 40.308 45.3516C41.2171 46.9434 42.1036 48.548 42.9672 50.1649H37.724ZM50.2363 50.4187C47.5771 50.4187 45.4995 49.8695 43.7263 49.0885L45.3233 46.134C46.5888 46.7453 48.4877 47.3153 50.2868 47.3153C52.0613 47.3153 52.7685 46.7674 52.7685 45.9643C52.7685 45.3115 52.2116 45.0149 50.9966 44.7597L48.919 44.318C46.3608 43.7701 44.6135 42.5875 44.6135 40.054C44.6135 37.1396 47.502 35.1993 51.4525 35.1993C53.9097 35.1993 56.1881 35.7278 57.7605 36.6358L55.5806 39.3157C54.3902 38.6616 52.8216 38.282 51.6041 38.282C50.4383 38.282 49.805 38.7458 49.805 39.3377C49.805 39.8221 50.2117 40.3078 51.529 40.5812L53.3268 40.962C55.227 41.3635 57.9613 42.0811 57.9613 45.0356C57.9613 48.5613 54.8202 50.4187 50.2363 50.4187ZM71.5124 38.5774H67.409V50.1649H62.8237V38.5761H58.7216V35.4519H72.0435L71.5124 38.5774ZM21.7546 37.7847V50.1649H26.4357V34.8211L21.7546 37.7847Z" fill="black"/>
<path d="M11.7822 62.711H10.9092V61.812H11.7822V61.2136C11.7822 60.0414 12.0464 59.2733 13.3598 59.2733C13.5891 59.2733 13.8093 59.2914 14.0295 59.3355L13.9595 60.2344C13.8152 60.197 13.6669 60.1766 13.5179 60.1735C12.9285 60.1735 12.8404 60.5776 12.8404 61.0452V61.812H13.8184V62.711H12.8404V66.0424H11.7822V62.711ZM14.6551 61.812H15.7133V66.0424H14.6551V61.812ZM15.1745 59.7422C15.5618 59.7422 15.8623 60.0142 15.8623 60.3769C15.8623 60.737 15.5618 61.0103 15.1745 61.0103C14.7872 61.0103 14.5049 60.7111 14.5049 60.3769C14.5049 60.0414 14.7872 59.7422 15.1745 59.7422ZM16.9283 61.812H17.9865V62.483H18.0034C18.1421 62.1863 18.3842 61.9503 18.6844 61.8192C18.9845 61.6881 19.3222 61.6708 19.6341 61.7706V62.7913C19.4674 62.7446 19.2956 62.7185 19.1225 62.7135C18.1277 62.7135 17.9865 63.549 17.9865 63.7783V66.045H16.9283V61.812ZM22.6119 62.9843C22.5221 62.8476 22.3987 62.7362 22.2536 62.6607C22.1085 62.5852 21.9465 62.5481 21.783 62.5529C21.5019 62.5529 21.1664 62.6851 21.1664 63.0011C21.1664 63.7601 23.4487 63.1436 23.4487 64.7912C23.4487 65.795 22.4902 66.1486 21.625 66.1486C20.9734 66.1486 20.4087 65.9802 19.9774 65.4958L20.682 64.8352C20.9553 65.1344 21.239 65.3546 21.6858 65.3546C21.9967 65.3546 22.3918 65.2057 22.3918 64.8702C22.3918 63.9985 20.1095 64.685 20.1095 63.0723C20.1095 62.1294 20.9553 61.7071 21.8102 61.7071C22.3736 61.7071 22.9733 61.882 23.3166 62.3496L22.6119 62.9843ZM23.7751 62.711V61.812H24.6481V60.5867H25.7051V61.812H26.8682V62.711H25.7051V64.5632C25.7051 64.9855 25.8281 65.2497 26.2957 65.2497C26.4809 65.2497 26.7361 65.2134 26.8682 65.1176V66.0074C26.648 66.1123 26.2776 66.1499 26.0315 66.1499C24.9123 66.1499 24.6481 65.646 24.6481 64.65V62.711H23.7751ZM30.6854 62.711H29.8111V61.812H30.6841V61.2136C30.6841 60.0414 30.9483 59.2733 32.2617 59.2733C32.491 59.2733 32.7112 59.2914 32.9314 59.3355L32.8614 60.2344C32.7175 60.1971 32.5697 60.1767 32.421 60.1735C31.8304 60.1735 31.7423 60.5776 31.7423 61.0452V61.812H32.7202V62.711H31.7423V66.0424H30.6841L30.6854 62.711ZM33.557 61.812H34.6152V66.0424H33.557V61.812ZM34.0777 59.7422C34.465 59.7422 34.7642 60.0142 34.7642 60.3769C34.7642 60.737 34.465 61.0103 34.0777 61.0103C33.6891 61.0103 33.4067 60.7111 33.4067 60.3769C33.4067 60.0414 33.6891 59.7422 34.0777 59.7422ZM35.8302 61.812H36.8353V62.4908H36.8522C37.0464 62.0672 37.4428 61.7071 38.1487 61.7071C39.2847 61.7071 39.6901 62.5102 39.6901 63.3715V66.0424H38.6332V63.9013C38.6332 63.435 38.5969 62.6579 37.8573 62.6579C37.1604 62.6579 36.8884 63.1695 36.8884 63.7329V66.0424H35.8302V61.812ZM43.471 64.1487H43.2508C42.6692 64.1487 41.6641 64.1927 41.6641 64.8002C41.6641 65.1888 42.0617 65.3546 42.405 65.3546C43.1277 65.3546 43.471 64.9764 43.471 64.3857V64.1487ZM43.5319 65.4595H43.506C43.2068 65.9362 42.7133 66.1486 42.1498 66.1486C41.3649 66.1486 40.6071 65.7173 40.6071 64.8805C40.6071 63.505 42.2107 63.4078 43.2689 63.4078H43.5319V63.2938C43.5319 62.7757 43.1277 62.5011 42.563 62.5011C42.1226 62.5011 41.7172 62.6773 41.4348 62.9415L40.8804 62.3858C41.3467 61.9105 42.0086 61.7084 42.6783 61.7084C44.4852 61.7084 44.4852 63.0115 44.4852 63.6125V66.0411H43.5319V65.4595ZM45.489 61.812H46.4941V62.4908H46.511C46.7053 62.0672 47.1016 61.7071 47.8076 61.7071C48.9435 61.7071 49.3489 62.5102 49.3489 63.3715V66.0424H48.292V63.9013C48.292 63.435 48.2557 62.6579 47.5161 62.6579C46.8193 62.6579 46.5473 63.1695 46.5473 63.7329V66.0424H45.489V61.812ZM53.306 63.0814C53.0599 62.8262 52.7866 62.6591 52.5029 62.6591C51.7283 62.6591 51.2594 63.2666 51.2594 63.9272C51.2594 64.5878 51.7283 65.1966 52.5029 65.1966C52.8306 65.1966 53.1298 65.0554 53.3228 64.8002L54.0287 65.558C53.5961 65.9893 52.8734 66.1486 52.5042 66.1486C51.2258 66.1486 50.2038 65.2588 50.2038 63.9272C50.2038 62.597 51.2258 61.7071 52.5042 61.7071C53.0417 61.7071 53.6311 61.9014 54.0378 62.3496L53.306 63.0814ZM54.6803 61.812H55.7385V66.0424H54.6803V61.812ZM55.201 59.7422C55.5882 59.7422 55.8874 60.0142 55.8874 60.3769C55.8874 60.737 55.5882 61.0103 55.201 61.0103C54.8124 61.0103 54.53 60.7111 54.53 60.3769C54.53 60.0414 54.8124 59.7422 55.201 59.7422ZM59.5362 64.1487H59.316C58.7332 64.1487 57.7293 64.1927 57.7293 64.8002C57.7293 65.1888 58.127 65.3546 58.4702 65.3546C59.193 65.3546 59.5362 64.9764 59.5362 64.3857V64.1487ZM59.5984 65.4595H59.5712C59.272 65.9362 58.7785 66.1486 58.215 66.1486C57.4301 66.1486 56.6724 65.7173 56.6724 64.8805C56.6724 63.505 58.2759 63.4078 59.3342 63.4078H59.5984V63.2938C59.5984 62.7757 59.193 62.5011 58.6269 62.5011C58.1866 62.5011 57.7824 62.6773 57.5001 62.9415L56.9457 62.3858C57.412 61.9105 58.0726 61.7084 58.7435 61.7084C60.5504 61.7084 60.5504 63.0115 60.5504 63.6125V66.0411H59.5984V65.4595ZM61.7032 66.0424H62.7615V59.3795H61.7032V66.0424ZM68.8505 62.6579C68.0747 62.6579 67.6071 63.2666 67.6071 63.9272C67.6071 64.5878 68.0747 65.1966 68.8505 65.1966C69.6264 65.1966 70.094 64.5878 70.094 63.9272C70.094 63.2666 69.6264 62.6579 68.8505 62.6579ZM66.5851 59.3808H67.6433V62.3483H67.6705C67.8894 62.0763 68.313 61.7045 69.1057 61.7045C70.3129 61.7045 71.1509 62.6747 71.1509 63.9259C71.1509 65.1784 70.366 66.1486 69.0616 66.1486C68.4723 66.1486 67.9166 65.9193 67.6071 65.409H67.5902V66.0437H66.5851V59.3808ZM74.6313 64.1487H74.4111C73.8295 64.1487 72.8244 64.1927 72.8244 64.8002C72.8244 65.1888 73.2221 65.3546 73.5653 65.3546C74.2881 65.3546 74.6313 64.9764 74.6313 64.3857V64.1487ZM74.6935 65.4595H74.6676C74.3658 65.9362 73.8723 66.1486 73.3088 66.1486C72.5239 66.1486 71.7675 65.7173 71.7675 64.8805C71.7675 63.505 73.3697 63.4078 74.428 63.4078H74.6922V63.2938C74.6922 62.7757 74.2868 62.5011 73.722 62.5011C73.2816 62.5011 72.8762 62.6773 72.5951 62.9415L72.0395 62.3858C72.5058 61.9105 73.1677 61.7084 73.8373 61.7084C75.6442 61.7084 75.6442 63.0115 75.6442 63.6125V66.0411H74.6922L74.6935 65.4595ZM76.7815 61.812H77.7866V62.4908H77.8034C77.9977 62.0672 78.3941 61.7071 79.1 61.7071C80.2359 61.7071 80.6414 62.5102 80.6414 63.3715V66.0424H79.5831V63.9013C79.5831 63.435 79.5482 62.6579 78.8086 62.6579C78.1117 62.6579 77.8397 63.1695 77.8397 63.7329V66.0424H76.7815V61.812ZM81.8408 59.3808H82.899V63.5671L84.5285 61.8133H85.8859L84.0699 63.7342L85.9999 66.0437H84.5984L82.9146 63.8845H82.899V66.0437H81.8408V59.3808Z" fill="#0082C6"/>
</svg>
