<svg width="96" height="96" viewBox="0 0 96 96" fill="none" xmlns="http://www.w3.org/2000/svg">
<circle cx="48" cy="48" r="47" fill="white" stroke="white" stroke-width="2"/>
<path fill-rule="evenodd" clip-rule="evenodd" d="M40.3941 53.3818C40.4097 54.1488 40.355 54.9001 40.2219 55.6279L46.467 58.6174L40.3941 53.3818Z" fill="#FDDA24"/>
<path fill-rule="evenodd" clip-rule="evenodd" d="M49.2061 47.8177L39.5881 47.3403L47.8131 42.3474L38.5629 45.016L44.7219 37.6205L36.8412 43.1456L40.2689 34.1537L34.6108 41.9326L34.9238 32.3146L32.1065 41.51L29.2814 32.3146L29.5944 41.9013L23.9363 34.1458L26.9336 41.9952C27.0353 41.9796 27.1292 41.9639 27.231 41.9483C28.0292 41.8543 28.8275 41.8465 29.5944 41.9091C35.0491 42.3552 39.6272 46.5812 40.3081 52.2237C40.3159 52.3097 40.3237 52.388 40.3315 52.4741L48.7365 53.4445L39.7994 49.8681L49.2061 47.8177Z" fill="#FDDA24"/>
<path fill-rule="evenodd" clip-rule="evenodd" d="M25.9789 42.1752L19.4834 37.6205L23.8659 42.8795C24.5311 42.5821 25.2433 42.3395 25.9789 42.1752Z" fill="#FDDA24"/>
<path fill-rule="evenodd" clip-rule="evenodd" d="M40.3941 53.3817C40.4097 54.1487 40.355 54.8999 40.2219 55.6277L46.467 58.6172L40.3941 53.3817Z" fill="#FDDA24"/>
<path fill-rule="evenodd" clip-rule="evenodd" d="M49.2061 47.8176L39.5881 47.3402L47.8131 42.3473L38.5629 45.0159L44.7219 37.6204L36.8412 43.1455L40.2689 34.1535L34.6108 41.9325L34.9238 32.3145L32.1065 41.5099L29.2814 32.3145L29.5944 41.9012L23.9363 34.1457L26.9336 41.9951C27.0353 41.9794 27.1292 41.9638 27.231 41.9481C28.0292 41.8542 28.8275 41.8464 29.5944 41.909C35.0491 42.3551 39.6272 46.5811 40.3081 52.2235C40.3159 52.3096 40.3237 52.3879 40.3315 52.474L48.7365 53.4444L39.7994 49.8679L49.2061 47.8176Z" fill="#FDDA24"/>
<path fill-rule="evenodd" clip-rule="evenodd" d="M25.9789 42.175L19.4834 37.6204L23.8659 42.8794C24.5311 42.582 25.2433 42.3394 25.9789 42.175Z" fill="#FDDA24"/>
<path fill-rule="evenodd" clip-rule="evenodd" d="M83.1548 61.5833C83.0452 61.4268 82.873 61.3485 82.6539 61.3485C82.5835 61.3485 82.3878 61.3485 82.2157 61.5285V61.3876H81.8009V63.0937H82.2157V62.272C82.2157 61.7163 82.4035 61.7163 82.56 61.7163C82.6931 61.7163 82.8574 61.7163 82.8574 62.1468V63.0937H83.2722V62.0528C83.2643 61.7868 83.2174 61.6694 83.1548 61.5833Z" fill="#0033A0"/>
<path fill-rule="evenodd" clip-rule="evenodd" d="M80.4705 62.7728C80.1732 62.7728 79.9853 62.5694 79.9853 62.2485C79.9853 61.8572 80.2436 61.7242 80.4705 61.7242C80.6975 61.7242 80.9557 61.865 80.9557 62.2485C80.9557 62.5694 80.7601 62.7728 80.4705 62.7728ZM80.4705 61.3485C80.2201 61.3485 79.9932 61.4346 79.8288 61.5989C79.6566 61.7633 79.5706 61.9902 79.5706 62.2485C79.5706 62.765 79.9618 63.1485 80.4784 63.1485C80.9949 63.1485 81.3862 62.7572 81.3862 62.2485C81.3862 61.9981 81.2923 61.7633 81.1279 61.5989C80.9479 61.4346 80.721 61.3485 80.4705 61.3485Z" fill="#0033A0"/>
<path d="M79.14 61.3955H78.7252V63.1016H79.14V61.3955Z" fill="#0033A0"/>
<path fill-rule="evenodd" clip-rule="evenodd" d="M78.9288 60.4486C78.7801 60.4486 78.6705 60.5582 78.6705 60.7147C78.6705 60.8634 78.7801 60.9808 78.9288 60.9808C79.0775 60.9808 79.187 60.8712 79.187 60.7147C79.1949 60.5582 79.0775 60.4486 78.9288 60.4486Z" fill="#0033A0"/>
<path fill-rule="evenodd" clip-rule="evenodd" d="M77.5201 61.3485C77.4497 61.3485 77.2541 61.3485 77.0819 61.5285V61.3876H76.6671V63.0937H77.0819V62.272C77.0819 61.7163 77.2697 61.7163 77.4262 61.7163C77.5593 61.7163 77.7236 61.7163 77.7236 62.1468V63.0937H78.1384V62.0528C78.1384 61.7868 78.0993 61.6694 78.0366 61.5755C77.9114 61.4268 77.7471 61.3485 77.5201 61.3485Z" fill="#0033A0"/>
<path fill-rule="evenodd" clip-rule="evenodd" d="M75.6498 62.0293C75.6498 62.1858 75.6419 62.3501 75.5715 62.4832C75.5011 62.6084 75.3289 62.7492 75.0863 62.7492C74.8437 62.7492 74.6793 62.6006 74.6011 62.4832C74.5228 62.3501 74.5228 62.1858 74.5228 62.0293V60.4093H74.0924V62.131C74.0924 62.4127 74.1707 62.6475 74.3428 62.8275C74.4759 62.9684 74.7107 63.1405 75.0863 63.1405C75.4619 63.1405 75.6967 62.9684 75.8298 62.8275C75.9941 62.6397 76.0802 62.4127 76.0802 62.131V60.4093H75.6498V62.0293Z" fill="#0033A0"/>
<path fill-rule="evenodd" clip-rule="evenodd" d="M72.0733 60.7773H71.6585V61.3956H71.4941V61.7791H71.6585V63.0938H72.0733V61.7791H72.3706V61.3956H72.0733V60.7773Z" fill="#0033A0"/>
<path d="M70.8994 61.3955H70.4846V63.1016H70.8994V61.3955Z" fill="#0033A0"/>
<path fill-rule="evenodd" clip-rule="evenodd" d="M70.6881 60.4486C70.5394 60.4486 70.4298 60.5582 70.4298 60.7147C70.4298 60.8634 70.5394 60.9808 70.6881 60.9808C70.8368 60.9808 70.9463 60.8712 70.9463 60.7147C70.9541 60.5582 70.8368 60.4486 70.6881 60.4486Z" fill="#0033A0"/>
<path fill-rule="evenodd" clip-rule="evenodd" d="M69.0213 62.7729C68.7552 62.7729 68.5674 62.5538 68.5674 62.2486C68.5674 61.9433 68.7552 61.7242 69.0213 61.7242C69.2482 61.7242 69.483 61.8886 69.483 62.2564C69.483 62.6164 69.2482 62.7729 69.0213 62.7729ZM69.4595 61.5677C69.3108 61.3877 69.1152 61.3486 68.9743 61.3486C68.7474 61.3486 68.5439 61.4347 68.3952 61.5912C68.2387 61.7555 68.1526 61.9825 68.1526 62.2486C68.1526 62.7025 68.4343 63.1564 68.9743 63.1564C69.1073 63.1564 69.303 63.1172 69.4595 62.9451V63.1016H69.8743V60.1669H69.4595V61.5677Z" fill="#0033A0"/>
<path fill-rule="evenodd" clip-rule="evenodd" d="M66.5874 62.0059C66.6109 61.9276 66.6501 61.8572 66.697 61.8102C66.744 61.7633 66.83 61.7085 66.9631 61.7085C67.0883 61.7085 67.1744 61.7555 67.2135 61.8024C67.2683 61.8572 67.3074 61.9276 67.3231 62.0059H66.5874ZM66.9709 61.3485C66.744 61.3485 66.5561 61.4268 66.3996 61.5755C66.2275 61.7555 66.1335 62.0059 66.1335 62.272C66.1335 62.5302 66.2196 62.7572 66.384 62.9215C66.5327 63.0702 66.7127 63.1406 66.9553 63.1406C67.1509 63.1406 67.3231 63.0937 67.4561 63.0076C67.5657 62.9372 67.6674 62.8276 67.7457 62.6946L67.7535 62.6867L67.4092 62.4911L67.4013 62.4989C67.37 62.5459 67.3231 62.6241 67.2526 62.6789C67.1744 62.7337 67.0961 62.7572 66.9944 62.7572C66.9083 62.7572 66.7987 62.7415 66.7048 62.6554C66.6344 62.5772 66.5796 62.4598 66.564 62.3346H67.7613V62.2876C67.7613 61.9668 67.6831 61.732 67.5266 61.5676C67.417 61.4737 67.2448 61.3485 66.9709 61.3485Z" fill="#0033A0"/>
<path fill-rule="evenodd" clip-rule="evenodd" d="M65.6247 61.3485C65.5229 61.3485 65.4525 61.3642 65.3821 61.4033C65.3351 61.4268 65.2803 61.4737 65.2334 61.5207V61.3876H64.8186V63.0937H65.2334V62.2094C65.2334 62.0998 65.2334 61.9433 65.3351 61.8337C65.4055 61.7633 65.476 61.7476 65.5699 61.7476C65.6168 61.7476 65.6795 61.7555 65.7655 61.8024L65.7734 61.8102L65.9455 61.4346L65.9377 61.4268C65.8438 61.372 65.7499 61.3485 65.6247 61.3485Z" fill="#0033A0"/>
<path fill-rule="evenodd" clip-rule="evenodd" d="M63.5744 60.3625C63.1675 60.3625 62.8622 60.4721 62.6118 60.7147C62.4162 60.9025 62.1814 61.2312 62.1814 61.7634C62.1814 62.1782 62.3223 62.5068 62.6118 62.7808C62.7918 62.9529 63.097 63.1486 63.5588 63.1486C63.7074 63.1486 63.997 63.1251 64.2944 62.9451H64.3022V62.4286L64.2787 62.4442C64.13 62.5851 63.8953 62.7494 63.5744 62.7494C63.0266 62.7494 62.6196 62.3268 62.6196 61.7634C62.6196 61.1764 63.0109 60.7617 63.5744 60.7617C63.8327 60.7617 64.0674 60.8556 64.2866 61.0512L64.31 61.0669V60.5582H64.3022C64.0831 60.4252 63.8561 60.3625 63.5744 60.3625Z" fill="#0033A0"/>
<path d="M60.4519 60.1669H60.0371V63.1016H60.4519V60.1669Z" fill="#0033A0"/>
<path fill-rule="evenodd" clip-rule="evenodd" d="M58.5423 62.7728C58.2762 62.7728 58.0884 62.5537 58.0884 62.2485C58.0884 61.9433 58.2762 61.7242 58.5423 61.7242C58.7692 61.7242 59.004 61.8885 59.004 62.2563C59.004 62.6163 58.777 62.7728 58.5423 62.7728ZM58.9805 61.5676C58.8318 61.3876 58.6362 61.3485 58.4953 61.3485C58.2684 61.3485 58.0649 61.4346 57.9162 61.5911C57.7597 61.7555 57.6736 61.9824 57.6736 62.2485C57.6736 62.7024 57.9553 63.1563 58.4953 63.1563C58.6283 63.1563 58.824 63.1172 58.9805 62.945V63.1015H59.3953V61.3955H58.9805V61.5676Z" fill="#0033A0"/>
<path fill-rule="evenodd" clip-rule="evenodd" d="M57.173 61.3485C57.0713 61.3485 57.0008 61.3642 56.9304 61.4033C56.8835 61.4268 56.8287 61.4737 56.7817 61.5207V61.3876H56.3669V63.0937H56.7817V62.2094C56.7817 62.0998 56.7817 61.9433 56.8835 61.8337C56.9539 61.7633 57.0243 61.7476 57.1182 61.7476C57.1652 61.7476 57.2278 61.7555 57.3139 61.8024L57.3217 61.8102L57.4939 61.4346L57.486 61.4268C57.3921 61.372 57.2904 61.3485 57.173 61.3485Z" fill="#0033A0"/>
<path fill-rule="evenodd" clip-rule="evenodd" d="M54.6685 62.0059C54.692 61.9276 54.7311 61.8572 54.7781 61.8102C54.825 61.7633 54.9111 61.7085 55.0441 61.7085C55.1694 61.7085 55.2554 61.7555 55.2946 61.8024C55.3494 61.8572 55.3885 61.9276 55.4041 62.0059H54.6685ZM55.052 61.3485C54.825 61.3485 54.6372 61.4268 54.4807 61.5755C54.3085 61.7555 54.2146 62.0059 54.2146 62.272C54.2146 62.5302 54.3007 62.7572 54.465 62.9215C54.6137 63.0702 54.7937 63.1406 55.0363 63.1406C55.232 63.1406 55.4041 63.0937 55.5372 63.0076C55.6467 62.9372 55.7485 62.8276 55.8267 62.6946L55.8346 62.6867L55.4902 62.4911L55.4824 62.4989C55.4511 62.5459 55.4041 62.6241 55.3337 62.6789C55.2554 62.7337 55.1772 62.7572 55.0754 62.7572C54.9894 62.7572 54.8798 62.7415 54.7859 62.6554C54.7155 62.5772 54.6607 62.4598 54.645 62.3346H55.8424V62.2876C55.8424 61.9668 55.7641 61.732 55.6076 61.5676C55.5059 61.4737 55.3259 61.3485 55.052 61.3485Z" fill="#0033A0"/>
<path fill-rule="evenodd" clip-rule="evenodd" d="M52.9155 62.7729C52.6495 62.7729 52.4616 62.5538 52.4616 62.2486C52.4616 61.9433 52.6495 61.7242 52.9155 61.7242C53.1425 61.7242 53.3773 61.8886 53.3773 62.2564C53.3773 62.6164 53.1425 62.7729 52.9155 62.7729ZM53.3538 61.5677C53.2051 61.3877 53.0095 61.3486 52.8686 61.3486C52.6416 61.3486 52.4382 61.4347 52.2895 61.5912C52.133 61.7555 52.0469 61.9825 52.0469 62.2486C52.0469 62.7025 52.3286 63.1564 52.8686 63.1564C53.0016 63.1564 53.1973 63.1172 53.3538 62.9451V63.1016H53.7686V60.1669H53.3538V61.5677Z" fill="#0033A0"/>
<path fill-rule="evenodd" clip-rule="evenodd" d="M50.4817 62.0059C50.5052 61.9276 50.5443 61.8572 50.5913 61.8102C50.6382 61.7633 50.7243 61.7085 50.8574 61.7085C50.9826 61.7085 51.0687 61.7555 51.1078 61.8024C51.1626 61.8572 51.2017 61.9276 51.2174 62.0059H50.4817ZM50.873 61.3485C50.6461 61.3485 50.4582 61.4268 50.3017 61.5755C50.1296 61.7555 50.0356 62.0059 50.0356 62.272C50.0356 62.5302 50.1217 62.7572 50.2861 62.9215C50.4348 63.0702 50.6148 63.1406 50.8574 63.1406C51.053 63.1406 51.2252 63.0937 51.3582 63.0076C51.4678 62.9372 51.5695 62.8276 51.6478 62.6946L51.6556 62.6867L51.3113 62.4911L51.3034 62.4989C51.2721 62.5459 51.2252 62.6241 51.1547 62.6789C51.0765 62.7337 50.9982 62.7572 50.8965 62.7572C50.8104 62.7572 50.7008 62.7415 50.6069 62.6554C50.5365 62.5772 50.4817 62.4598 50.4661 62.3346H51.6634V62.2876C51.6634 61.9668 51.5852 61.732 51.4287 61.5676C51.3191 61.4737 51.1469 61.3485 50.873 61.3485Z" fill="#0033A0"/>
<path fill-rule="evenodd" clip-rule="evenodd" d="M48.4392 63.0936H48.8696V61.8727H49.754V61.4658H48.8696V60.8162H49.7853V60.4093H48.4392V63.0936Z" fill="#0033A0"/>
<path d="M78.1697 50.2592V52.5521H79.8209V57.0677H82.3487V52.5521H84V50.2592H78.1697Z" fill="#0033A0"/>
<path d="M72.2063 54.0391H72.1672L70.2499 50.2748L70.2342 50.2592H67.4717V57.0677H69.7021V53.4756H69.749L71.549 57.0442L71.5568 57.0677H74.3976V50.2592H72.2063V54.0391Z" fill="#0033A0"/>
<path d="M62.1657 50.2826L62.1579 50.2592H58.6832L56.6641 57.0207L56.6484 57.0677H59.2701L59.4658 56.2225H61.3596L61.5788 57.0677H64.2004L62.1657 50.2826ZM59.771 54.5556L60.3736 52.2704H60.444L61.0701 54.5556H59.771Z" fill="#0033A0"/>
<path d="M53.252 50.2592H50.6694V57.0677H53.252V50.2592Z" fill="#0033A0"/>
<path d="M44.9643 50.1417H42.1314L42.1157 57.2007H47.5938L47.6095 54.6494H44.9643V50.1417Z" fill="#0033A0" stroke="white" stroke-width="0.117388" stroke-miterlimit="10"/>
<path d="M35.8317 54.2817C35.8317 54.7825 35.6125 55.0564 35.2056 55.0564C34.7986 55.0564 34.5795 54.7904 34.5795 54.2817V50.2592H32.0518V54.3286C32.0518 56.1442 33.2256 57.232 35.2056 57.232C37.1777 57.232 38.3594 56.1442 38.3594 54.3286V50.2592H35.8317V54.2817Z" fill="#0033A0"/>
<path d="M28.4831 52.5523C28.4831 51.1749 27.3796 50.2515 25.7284 50.2515H22.4023V57.06H24.8675V54.7748H25.0084L25.4388 55.6826L26.104 57.0443L26.1118 57.0678H29.0387L27.3405 54.3914C27.9196 54.1331 28.4831 53.4757 28.4831 52.5523ZM25.4779 53.3427H24.8675V52.1062H25.4701C25.877 52.1532 26.0883 52.3723 26.0883 52.7479C26.0883 52.8653 26.0492 53.2723 25.4779 53.3427Z" fill="#0033A0"/>
<path d="M12.8 52.5521H14.4513V57.0677H16.9791V52.5521H18.6303V50.2592H12.8V52.5521Z" fill="#0033A0"/>
</svg>
