<svg width="96" height="96" viewBox="0 0 96 96" fill="none" xmlns="http://www.w3.org/2000/svg">
<circle cx="48" cy="48" r="47" fill="white" stroke="white" stroke-width="2"/>
<path d="M46.5121 34.1801C47.9517 34.1801 49.1188 33.013 49.1188 31.5733C49.1188 30.1336 47.9517 28.9666 46.5121 28.9666C45.0724 28.9666 43.9053 30.1336 43.9053 31.5733C43.9053 33.013 45.0724 34.1801 46.5121 34.1801Z" fill="#DA2032"/>
<path d="M49.9355 24.2136C51.3752 24.2136 52.5423 23.0465 52.5423 21.6068C52.5423 20.1671 51.3752 19 49.9355 19C48.4958 19 47.3287 20.1671 47.3287 21.6068C47.3287 23.0465 48.4958 24.2136 49.9355 24.2136Z" fill="#DA2032"/>
<path d="M43.078 24.2136C44.5177 24.2136 45.6848 23.0465 45.6848 21.6068C45.6848 20.1671 44.5177 19 43.078 19C41.6383 19 40.4712 20.1671 40.4712 21.6068C40.4712 23.0465 41.6383 24.2136 43.078 24.2136Z" fill="#DA2032"/>
<path d="M51.8197 30.3692C53.2594 30.3692 54.4265 29.2021 54.4265 27.7624C54.4265 26.3227 53.2594 25.1556 51.8197 25.1556C50.38 25.1556 49.2129 26.3227 49.2129 27.7624C49.2129 29.2021 50.38 30.3692 51.8197 30.3692Z" fill="#DA2032"/>
<path d="M41.2044 30.3692C42.6441 30.3692 43.8112 29.2021 43.8112 27.7624C43.8112 26.3227 42.6441 25.1556 41.2044 25.1556C39.7648 25.1556 38.5977 26.3227 38.5977 27.7624C38.5977 29.2021 39.7648 30.3692 41.2044 30.3692Z" fill="#DA2032"/>
<path d="M45.0568 42.0319C43.9474 40.3704 42.7267 38.786 41.4031 37.2894C38.3881 33.8661 33.0279 28.7886 27.5317 28.7781C24.1083 28.7781 20.329 31.9188 19.4601 36.3054C19.4601 36.5043 21.4597 32.6726 25.5321 32.8925C26.7516 32.9556 27.9374 33.3149 28.9869 33.9394C34.5773 37.1638 38.8906 45.7694 38.8906 45.8531C38.927 45.9296 38.9795 45.9972 39.0446 46.0515C39.1096 46.1057 39.1857 46.1452 39.2675 46.1672H39.435C39.5463 46.1652 39.655 46.1326 39.749 46.073L44.8265 42.8066C44.8931 42.7715 44.952 42.7234 44.9997 42.6652C45.0475 42.607 45.0832 42.5399 45.1046 42.4677C45.1261 42.3955 45.1329 42.3198 45.1247 42.245C45.1165 42.1702 45.0934 42.0977 45.0568 42.0319Z" fill="url(#paint0_linear_1_6977)"/>
<path d="M31.7612 65.7547C35.5824 65.2103 36.4723 64.2576 37.3726 63.4306C34.469 62.7662 31.9425 60.9879 30.3375 58.4787C24.234 49.2765 24.9354 40.3673 26.7047 36.3682C27.3957 34.8188 28.139 33.9708 29.0079 33.9498H29.0707H28.9974C27.948 33.3254 26.7622 32.9661 25.5427 32.9029C21.4493 32.6726 19.4183 36.5043 19.4497 36.3054C18.8006 38.6504 18.7378 43.7698 20.0464 49.3602C21.2085 54.4377 24.5062 61.0855 30.0234 64.8544C30.58 65.2421 31.181 65.562 31.8136 65.807L31.7612 65.7547Z" fill="url(#paint1_linear_1_6977)"/>
<path d="M75.2496 32.0548C74.132 30.313 72.5496 28.9184 70.6811 28.0286C68.8127 27.1388 66.7326 26.7892 64.6759 27.0192C60.8128 27.4589 57.3476 30.6101 57.3476 30.6101C57.3476 30.6101 61.7446 28.6419 64.7911 30.6101C69.3451 33.5624 69.2509 42.8589 64.4875 53.5477C58.6876 66.6549 51.6001 73.2085 46.5226 74.4858C43.6227 75.1977 39.4979 73.7529 39.4979 73.7529C39.4979 73.7529 45.4234 79.0503 51.2546 76.2341C58.8865 72.549 66.173 65.1893 71.7634 55.5054C77.1864 46.0624 78.4845 37.3208 75.2496 32.0548Z" fill="url(#paint2_linear_1_6977)"/>
<path d="M46.5223 74.4125C47.596 74.1318 48.625 73.7019 49.5793 73.1353C46.9201 72.57 43.7062 70.6228 40.6597 67.6705C40.5832 67.597 40.4889 67.5448 40.3861 67.5191C40.2832 67.4934 40.1754 67.4951 40.0734 67.5239C38.1994 68.0579 36.5244 68.4766 35.1006 68.7698C34.9986 68.791 34.9041 68.839 34.8268 68.909C34.7495 68.9789 34.6922 69.0682 34.6609 69.1676C34.6303 69.2653 34.6267 69.3695 34.6507 69.4691C34.6747 69.5686 34.7253 69.6598 34.797 69.7329C36.234 71.2072 37.8158 72.533 39.5185 73.6902C39.8117 73.7949 43.7271 75.1035 46.5223 74.4125Z" fill="#DA2032"/>
<path d="M43.7379 60.4677C44.6069 59.2743 45.9364 57.2014 47.5905 54.5632C51.9457 47.6327 58.3736 37.216 65.0633 30.8509C64.2153 30.2018 61.7656 28.8618 57.3477 30.5682C56.4578 30.9137 49.6006 39.1947 42.4503 54.9296C41.4034 57.3166 40.4088 59.1172 39.8225 60.1641C39.1743 61.3264 38.3556 62.3851 37.3937 63.3048C36.4724 64.1424 35.6245 65.116 31.73 65.6708C32.7235 66.0782 33.808 66.212 34.8707 66.0582C38.3464 65.6708 41.0579 64.1319 43.7379 60.4677Z" fill="#DA2032"/>
<defs>
<linearGradient id="paint0_linear_1_6977" x1="20.4588" y1="25.5225" x2="42.1571" y2="52.193" gradientUnits="userSpaceOnUse">
<stop stop-color="#DA2032"/>
<stop offset="0.2" stop-color="#F7943E"/>
<stop offset="0.6" stop-color="#FFC20E"/>
</linearGradient>
<linearGradient id="paint1_linear_1_6977" x1="23.6373" y1="43.7384" x2="61.8806" y2="81.9817" gradientUnits="userSpaceOnUse">
<stop stop-color="#DA2032"/>
<stop offset="0.2" stop-color="#F7943E"/>
<stop offset="0.6" stop-color="#FFC20E"/>
</linearGradient>
<linearGradient id="paint2_linear_1_6977" x1="69.879" y1="69.0999" x2="40.695" y2="29.5568" gradientUnits="userSpaceOnUse">
<stop stop-color="#DA2032"/>
<stop offset="0.2" stop-color="#F7943E"/>
<stop offset="0.6" stop-color="#FFC20E"/>
</linearGradient>
</defs>
</svg>
