<svg width="96" height="96" viewBox="0 0 96 96" fill="none" xmlns="http://www.w3.org/2000/svg">
<circle cx="48" cy="48" r="47" fill="white" stroke="white" stroke-width="2"/>
<path d="M20.1245 51.4041C20.1086 51.3973 18.6827 50.4263 18.6827 50.4263L17.3502 49.4781L16.0929 48.5528L15.1271 47.8148L14.0474 46.9467L12.9632 46.0236C12.9632 46.0236 12.1751 45.3108 12.1432 45.2788C12.1113 45.2468 11.3505 44.4952 11.3505 44.4952L10.7697 43.8509L10.5078 43.5036L10.2413 43.1609L9.95426 42.6811C9.95426 42.6811 9.75837 42.3909 9.69459 41.9843C9.63992 41.637 9.73104 41.4451 9.73104 41.4451C9.73104 41.4451 9.77431 41.2737 9.92009 41.0749C10.0659 40.8762 10.1775 40.6728 10.8631 40.2844C11.0931 40.1679 11.5555 39.9349 11.6558 39.8869C12.125 39.6721 12.5327 39.5465 12.6124 39.5191C12.6921 39.4916 12.9996 39.3797 13.1591 39.3317C13.3185 39.2837 14.5759 38.9068 16.2295 38.5709C16.4254 38.5321 17.0427 38.3973 17.2021 38.3698C17.3616 38.3424 18.5005 38.1505 19.0266 38.0637C19.9241 37.9175 20.366 37.8672 20.5459 37.8467C20.7259 37.8261 21.0311 37.7827 21.0311 37.7827C21.0311 37.7827 21.3614 37.737 21.3682 37.737C21.6711 37.6913 21.7759 37.6936 21.801 37.7438C21.826 37.7941 21.8169 37.8444 21.7941 37.8695C21.7509 37.9129 21.4456 37.9655 21.4456 37.9655L20.7054 38.1277L20.1223 38.2853L19.4207 38.4681L18.8558 38.6326L17.972 38.9136L17.2295 39.1946C17.2295 39.1946 16.578 39.4505 16.4505 39.5122C16.3047 39.5785 15.9835 39.7338 15.6487 39.9029C15.2182 40.1451 14.8674 40.3895 14.7239 40.4901C14.5873 40.5974 14.4324 40.7117 14.3003 40.8328C14.1681 40.9539 13.9973 41.1435 13.8652 41.3034C13.7331 41.4633 13.5736 41.7284 13.56 41.8266C13.4689 42.0437 13.421 42.2813 13.4142 42.4618C13.4096 42.6514 13.4119 42.889 13.4803 43.1586C13.5326 43.4579 13.7376 43.8806 13.79 43.9948C13.8424 44.109 14.077 44.5226 14.298 44.9155C14.4028 45.1029 14.7558 45.6215 14.7558 45.6215L15.2546 46.2749C15.2546 46.2749 15.7056 46.8461 15.881 47.0266C16.0633 47.2482 16.2181 47.4219 16.3138 47.5178C16.4095 47.6138 16.5553 47.7623 16.5553 47.7623C16.5553 47.7623 16.6532 47.8765 16.9129 48.1484C17.1725 48.4203 17.2819 48.5254 17.2819 48.5254L18.0449 49.2542C18.0449 49.2542 18.4185 49.6266 18.8695 50.0333C19.505 50.6045 20.2817 51.2693 20.2885 51.3013C20.3204 51.3561 20.2999 51.3927 20.284 51.4087C20.2316 51.4681 20.1336 51.4133 20.12 51.4064L20.1245 51.4041Z" fill="#214092"/>
<path d="M27.4978 49.2087C27.4317 49.2521 27.4067 49.3869 27.3657 49.5149C27.3178 49.6976 27.3064 49.757 27.2518 49.949C27.1538 50.2277 27.0263 50.6321 27.0263 50.6321C27.0263 50.6321 26.8805 50.9702 26.8327 51.0593C26.368 51.9504 26.1243 52.3068 26.0172 52.4576C25.9102 52.6084 25.4296 53.1887 25.138 53.3943C24.6118 53.8238 24.1722 53.9266 24.0879 53.9586C23.9604 54.002 23.8306 54.0317 23.6893 54.0523C23.5481 54.0729 23.4593 54.0774 23.2816 54.0751C22.5026 54.066 22.2566 53.9678 22.0379 53.9289C21.6052 53.8284 21.2658 53.7005 21.0813 53.6342C20.9537 53.5999 20.5004 53.3989 20.0813 53.2161C19.8763 53.127 19.2841 52.8254 19.2841 52.8254L18.5324 52.4233C18.5324 52.4233 17.8742 52.0555 17.6623 51.907C17.4072 51.7584 17.2022 51.6259 17.0906 51.546C16.979 51.466 16.8013 51.3403 16.8013 51.3403C16.8013 51.3403 16.6692 51.2604 16.3503 51.0388C16.0314 50.8171 15.9062 50.7235 15.9062 50.7235L15.0406 50.0655C15.0406 50.0655 14.601 49.7456 14.1136 49.3526C13.4302 48.7997 12.6922 48.2012 12.6376 48.1829C12.5829 48.1646 12.5556 48.2057 12.551 48.2103C12.5373 48.2263 12.5351 48.2514 12.5396 48.2766C12.5442 48.2971 12.5624 48.3405 12.6307 48.4182C12.6763 48.4799 12.9063 48.7426 12.9063 48.7426C12.9929 48.8409 13.7309 49.604 13.7309 49.604C13.7309 49.604 14.9017 50.7852 14.9199 50.8034C14.9381 50.8217 16.0519 51.9298 16.0519 51.9298L16.9562 52.7911L18.0131 53.7484L19.1269 54.6989C19.1269 54.6989 19.9811 55.3843 20.0198 55.4117C20.0586 55.4391 20.9469 56.0903 20.9469 56.0903L21.6986 56.5769L22.1245 56.8374C22.1245 56.8374 22.3158 56.9516 22.5778 57.0818C22.8397 57.2121 23.2064 57.3583 23.2064 57.3583C23.2064 57.3583 23.5709 57.5205 23.9786 57.6096C24.3431 57.6781 24.4706 57.6987 24.81 57.6461C25.1539 57.5616 25.4546 57.3674 25.7735 57.0247C25.8168 56.9927 26.0446 56.7003 26.3726 56.0377C26.4341 55.9143 26.6459 55.5419 26.7507 55.2723C26.8554 55.0027 27.024 54.5115 27.0604 54.4201C27.1356 54.2305 27.2973 53.5999 27.3338 53.4491C27.3702 53.2983 27.5046 52.5764 27.5297 52.4073C27.5547 52.2382 27.7119 51.0708 27.7119 51.0708C27.7119 51.0708 27.9078 49.7228 27.9078 49.5583C27.9078 49.3938 27.9374 49.3572 27.8782 49.2864C27.7597 49.1242 27.557 49.163 27.4909 49.2064L27.4978 49.2087Z" fill="#65BC46"/>
<path d="M32.7002 38.5709C32.6478 38.2991 32.5612 38.1026 32.5157 38.0249C32.3084 37.6251 32.1239 37.5565 32.0305 37.4811C31.9371 37.4057 31.7207 37.3029 31.6205 37.2732C31.5203 37.2435 31.2219 37.143 30.7823 37.1202C30.3746 37.0973 30.4406 37.095 29.9714 37.0996C29.6457 37.1042 29.3268 37.1544 29.3268 37.1544C29.3268 37.1544 28.3906 37.2984 28.3519 37.3052C28.3132 37.3121 27.3929 37.5314 27.3929 37.5314L26.2837 37.7987L25.2746 38.1003L24.1243 38.4773C24.1243 38.4773 22.8624 38.9205 22.7417 38.9639C22.7212 38.9708 21.3022 39.5077 21.3022 39.5077C21.3022 39.5077 20.4662 39.8275 20.2886 39.9006C20.1041 39.9738 20.0972 39.9783 20.0084 40.0149C19.8899 40.0743 19.8922 40.0789 19.8763 40.0948C19.8603 40.1108 19.8626 40.1451 19.8649 40.1542C19.8694 40.1725 19.8717 40.1999 19.9082 40.2136C19.9719 40.2342 20.1929 40.1542 21.5003 39.7841C22.0197 39.6379 22.4365 39.5534 22.539 39.5328C22.6415 39.5122 23.0629 39.4094 23.3043 39.3592C23.5321 39.3203 23.8009 39.2678 24.1312 39.2129C24.3977 39.1787 24.5822 39.1535 24.6004 39.1535C24.6186 39.1535 24.8783 39.1147 24.999 39.1033C25.3316 39.0736 25.3224 39.0736 25.5776 39.0507C25.8554 39.0279 26.0901 39.0393 26.2131 39.0393C26.4363 39.0393 26.5547 39.0484 26.8189 39.0644C26.9533 39.069 27.4408 39.1307 27.6572 39.1695C27.8736 39.2084 28.2653 39.2952 28.6229 39.4734C28.976 39.6288 29.3769 39.9783 29.4771 40.104C29.5773 40.2296 29.6935 40.3781 29.7391 40.4535C29.7846 40.5289 29.8689 40.7186 29.9144 40.8191C29.9509 40.9036 29.9919 41.0613 30.0671 41.1778C30.0853 41.2075 30.1103 41.2395 30.1103 41.2395C30.1103 41.2395 30.1673 41.3263 30.2584 41.3377C30.3358 41.3537 30.4452 41.3377 30.6114 41.34C30.6957 41.34 30.8028 41.34 30.8757 41.3446C30.9941 41.3514 30.9987 41.3492 31.1649 41.372C31.3084 41.404 31.313 41.404 31.4269 41.4383C31.5203 41.4657 31.5727 41.4817 31.5727 41.4817C31.5727 41.4817 31.8301 41.5639 31.8619 41.5776C31.8938 41.5913 32.0351 41.6462 32.0761 41.669C32.1171 41.6919 32.215 41.7398 32.2332 41.7513C32.2514 41.7627 32.2719 41.7764 32.2902 41.7878C32.3084 41.7992 32.3312 41.8175 32.379 41.8175C32.4268 41.8175 32.4451 41.8175 32.4724 41.8061C32.4997 41.7947 32.5134 41.7787 32.5316 41.7604C32.5498 41.7421 32.5635 41.717 32.5749 41.6896C32.5863 41.6622 32.584 41.669 32.5931 41.6187C32.6022 41.5685 32.5999 41.5479 32.625 41.3994C32.6501 41.2509 32.6933 41.0179 32.7275 40.4878C32.7617 39.9578 32.7617 39.7224 32.7662 39.4026C32.7708 39.0827 32.7617 39.0073 32.748 38.8931C32.7343 38.7789 32.748 38.8428 32.6956 38.5709H32.7002Z" fill="#00BFF1"/>
<path d="M32.0328 43.7002C32.0328 43.7002 32.0397 43.3735 32.0374 43.2844L32.0328 43.7002Z" fill="#231F20"/>
<path d="M33.7684 53.5678C33.7684 52.3295 34.7023 51.4841 35.8754 51.4841C36.791 51.4841 37.3035 51.9685 37.586 52.4688L36.8503 52.8321C36.6817 52.5054 36.3195 52.2472 35.8754 52.2472C35.1761 52.2472 34.6477 52.8093 34.6477 53.5701C34.6477 54.3309 35.1784 54.8929 35.8754 54.8929C36.3218 54.8929 36.6817 54.6393 36.8503 54.308L37.586 54.6644C37.2967 55.1648 36.791 55.656 35.8754 55.656C34.7 55.656 33.7684 54.8107 33.7684 53.5724V53.5678Z" fill="#4E4F50"/>
<path d="M41.1529 55.5783L40.3648 54.1344H39.7384V55.5783H38.8843V51.5481H40.7634C41.6017 51.5481 42.1119 52.0987 42.1119 52.8458C42.1119 53.5929 41.6654 53.9402 41.2327 54.043L42.1369 55.5783H41.1552H41.1529ZM40.6359 52.2861H39.7384V53.3987H40.6359C40.9798 53.3987 41.2372 53.1817 41.2372 52.8435C41.2372 52.5054 40.9776 52.2883 40.6359 52.2883V52.2861Z" fill="#4E4F50"/>
<path d="M43.5402 55.5783V51.5481H46.3828V52.2861H44.3943V53.1611H46.3396V53.8991H44.3943V54.8358H46.3828V55.5783H43.5402Z" fill="#4E4F50"/>
<path d="M47.8337 55.5783V51.5481H49.4168C50.6764 51.5481 51.5488 52.3523 51.5488 53.5655C51.5488 54.7787 50.6764 55.5783 49.4168 55.5783H47.8337ZM48.6879 54.8244H49.4168C50.2117 54.8244 50.6764 54.2509 50.6764 53.5678C50.6764 52.8847 50.2436 52.3043 49.4168 52.3043H48.6879V54.8244Z" fill="#4E4F50"/>
<path d="M53.0931 55.5783V51.5481H53.9473V55.5783H53.0931Z" fill="#4E4F50"/>
<path d="M56.6032 55.5785V52.3045H55.4279V51.5505H58.6327V52.3045H57.4642V55.5785H56.6032Z" fill="#4E4F50"/>
<path d="M62.309 51.5505H63.1768V53.9426C63.1768 54.5047 63.4843 54.8908 64.1107 54.8908C64.7371 54.8908 65.0332 54.5047 65.0332 53.9426V51.5505H65.901V53.9678C65.901 54.9707 65.3293 55.6539 64.113 55.6539C62.8966 55.6539 62.3112 54.9662 62.3112 53.9746V51.5528L62.309 51.5505Z" fill="#4E4F50"/>
<path d="M70.2061 55.5783L68.2904 52.8709V55.5783H67.4363V51.5481H68.3155L70.1764 54.1572V51.5481H71.0306V55.5783H70.2061Z" fill="#4E4F50"/>
<path d="M72.707 55.5783V51.5481H73.5612V55.5783H72.707Z" fill="#4E4F50"/>
<path d="M77.11 51.4841C78.3263 51.4841 79.2123 52.3546 79.2123 53.5678C79.2123 54.781 78.3263 55.6514 77.11 55.6514C75.8936 55.6514 75.0144 54.781 75.0144 53.5678C75.0144 52.3546 75.9005 51.4841 77.11 51.4841ZM77.11 52.2449C76.3697 52.2449 75.8936 52.8138 75.8936 53.5678C75.8936 54.3217 76.3697 54.8906 77.11 54.8906C77.8502 54.8906 78.3331 54.3172 78.3331 53.5678C78.3331 52.8184 77.8502 52.2449 77.11 52.2449Z" fill="#4E4F50"/>
<path d="M83.5151 55.6149L81.5995 52.9076V55.6149H80.7454V51.5847H81.6246L83.4855 54.1939V51.5847H84.3397V55.6149H83.5151Z" fill="#4E4F50"/>
<path d="M25.8281 43.8554C25.6664 43.8143 25.4955 43.7938 25.3247 43.7938C25.204 43.7938 25.0832 43.8143 24.9625 43.8554C24.942 42.8844 24.6801 42.2356 23.7917 42.2356C22.2998 42.2356 21.0675 44.582 21.0675 46.2521C21.0675 47.415 21.6529 48.3266 22.7827 48.3266C23.5389 48.3266 24.2154 47.8514 24.7507 47.3648L25.0536 47.6892C24.2564 48.498 23.2792 49.0143 22.129 49.0143C20.5664 49.0143 19.2954 48.0022 19.2954 46.2727C19.2954 43.6315 21.2315 41.7512 23.794 41.7512C24.6824 41.7512 25.5297 41.9546 26.0126 42.3087L25.8304 43.8577L25.8281 43.8554Z" fill="#4E4F50"/>
<path d="M30.5204 41.7512C32.2948 41.7512 33.6182 42.793 33.6182 44.6459C33.6182 47.0243 31.6001 49.0166 29.2494 49.0166C27.475 49.0166 26.1516 47.9748 26.1516 46.1219C26.1516 43.7435 28.1697 41.7512 30.5204 41.7512ZM29.2699 48.53C30.8939 48.53 31.821 45.8683 31.8415 43.8349C31.8415 42.9438 31.4884 42.2356 30.4999 42.2356C28.8758 42.2356 27.9488 44.8973 27.9283 46.9307C27.9283 47.8217 28.2813 48.53 29.2699 48.53Z" fill="#4E4F50"/>
<path d="M40.5153 48.9138C40.3239 48.8727 40.0825 48.8522 39.6771 48.8522C39.2329 48.8522 38.9094 48.8727 38.7181 48.9138L36.0349 43.6316C35.0258 47.639 34.9461 47.8195 34.9461 48.1233C34.9461 48.3655 35.1876 48.4478 35.7023 48.4683V48.9138C35.4814 48.8727 35.0759 48.8522 34.5429 48.8522C34.0988 48.8522 33.7867 48.8727 33.625 48.9138V48.4683C34.0897 48.4181 34.322 48.265 34.4017 47.9634L35.6932 42.9439L35.1374 41.8518C35.4495 41.8724 35.7729 41.9135 36.0964 41.9135C36.3788 41.9135 36.6613 41.8724 36.9437 41.8518L39.6156 47.1638C40.6337 43.2478 40.7749 43.2089 40.7749 42.7223C40.7749 42.4184 40.6132 42.3179 40.0187 42.2973V41.8518C40.2397 41.8929 40.6451 41.9135 41.1781 41.9135C41.6223 41.9135 41.9343 41.8929 42.0961 41.8518V42.2973C41.4811 42.3773 41.3603 42.6606 41.2191 43.1678L39.9686 47.8012L40.513 48.9138H40.5153Z" fill="#4E4F50"/>
<path d="M42.039 46.6291C42.1506 46.6497 42.2918 46.6703 42.4718 46.6703C42.6016 46.6703 42.7633 46.6497 42.8841 46.6291C42.8841 47.8332 43.3783 48.5323 44.5878 48.5323C45.5969 48.5323 46.1823 48.169 46.1823 47.3694C46.1823 46.0945 42.7337 46.1242 42.7337 43.8395C42.7337 42.4641 43.884 41.7559 45.4671 41.7559C46.3645 41.7559 47.1321 41.9683 47.9179 42.2813L47.7767 43.6979C47.6651 43.6567 47.5353 43.6362 47.3736 43.6362C47.2323 43.6362 47.1002 43.6567 47 43.6979C46.9909 42.6857 46.4852 42.2402 45.5969 42.2402C44.5673 42.2402 44.0844 42.5646 44.0844 43.1518C44.0844 44.5889 47.533 44.3764 47.533 46.7342C47.533 48.0502 46.5239 49.0212 44.9318 49.0212C43.6608 49.0212 42.7223 48.6465 41.875 48.0297L42.0367 46.6337L42.039 46.6291Z" fill="#4E4F50"/>
<path d="M56.2797 42.2973C55.5326 42.3772 55.6534 42.4389 54.6261 45.9688C54.0612 47.9222 53.4371 49.0143 51.4281 49.0143C50.148 49.0143 49.0182 48.4066 49.0182 46.9695C49.0182 45.8568 49.9657 43.4282 49.9657 42.6285C49.9657 42.3955 49.7448 42.3155 49.1981 42.295V41.8495C49.5717 41.8906 50.2368 41.9111 51.1342 41.9111C51.8609 41.9111 52.3734 41.8906 52.6467 41.8495V42.295C51.8905 42.3155 51.7492 42.4069 51.5875 43.154C51.4258 43.9125 50.5694 46.725 50.5694 47.4333C50.5694 48.2124 51.2345 48.4043 51.8905 48.4043C53.0909 48.4043 53.7765 47.1797 54.2092 45.6421C54.3596 45.1052 54.945 43.0626 54.945 42.6765C54.945 42.3727 54.7126 42.3132 54.1569 42.2927V41.8472C54.3892 41.8883 54.7924 41.9089 55.3481 41.9089C55.7923 41.9089 56.1157 41.8883 56.2752 41.8472V42.2927L56.2797 42.2973Z" fill="#4E4F50"/>
<path d="M65.3475 42.2973C64.8441 42.3179 64.6915 42.439 64.5708 43.0855C63.9353 46.4646 63.6529 47.6184 63.6529 48.0845C63.6529 48.3061 63.8351 48.4478 64.4501 48.4683V48.9138C64.1881 48.8727 63.6734 48.8522 62.9672 48.8522C62.0903 48.8522 61.4343 48.8727 61.0699 48.9138V48.4683C61.776 48.4683 61.9787 48.1645 62.0493 47.8423L62.9969 43.1975L62.9764 43.1678L60.0722 48.2376L60.1337 48.9161C59.9925 48.875 59.6599 48.8544 59.357 48.8544C59.0244 48.8544 58.783 48.875 58.6099 48.9161L58.2272 43.1998L58.2067 43.1701C57.4209 46.2453 56.8765 47.6413 56.8765 48.0662C56.8765 48.2696 56.9767 48.4706 57.5416 48.4706V48.9161C57.3912 48.875 57.0974 48.8544 56.6942 48.8544C56.1886 48.8544 55.8173 48.875 55.6055 48.9161V48.4706C56.1407 48.3701 56.2296 48.249 56.3913 47.7418C56.5621 47.1957 57.8035 42.9051 57.8035 42.6218C57.8035 42.4001 57.6418 42.3179 57.1384 42.2973V41.8518H57.1589C57.3411 41.8518 57.824 41.9135 58.3593 41.9135H59.6394L60.0221 47.3168H60.0426L63.1199 41.9135H64.2086C64.7439 41.9135 65.1676 41.8518 65.3293 41.8518H65.3498V42.2973H65.3475Z" fill="#4E4F50"/>
<path d="M71.4497 44.3309L70.9053 46.5379L70.4817 46.4465C70.5227 46.2546 70.5728 46.0627 70.5728 45.8593C70.5728 45.7177 70.5113 45.5966 70.1081 45.5966H68.2722L67.5752 48.368H69.5227C70.8552 48.368 71.3176 47.7808 71.5705 47.0839L72.0146 47.2165L71.4998 48.8546H67.3338C65.7803 48.8546 65.1744 48.9163 65.1152 48.9163H65.0947V48.4708C65.6505 48.4502 65.8919 48.3291 66.0218 47.8333C66.3338 46.6499 67.3338 43.0469 67.3338 42.5922C67.3338 42.3592 67.0604 42.318 66.5366 42.2998V41.8542C67.3224 41.8748 68.1196 41.9159 68.9077 41.9159C70.1081 41.9159 71.3176 41.8748 72.518 41.8542L72.3563 43.4924L71.8916 43.4513C71.862 42.5808 71.7595 42.398 71.1764 42.398H69.1378L68.4021 45.11H69.6936C70.7322 45.11 70.812 44.9774 71.0147 44.2303L71.4474 44.3309H71.4497Z" fill="#4E4F50"/>
<path d="M72.1672 48.4708C72.8323 48.3908 72.9941 48.2994 73.1467 47.6711C73.297 47.0748 74.5088 42.9669 74.5088 42.663C74.5088 42.3797 74.3471 42.3089 73.6706 42.2998V41.8542C73.9325 41.8748 74.4883 41.9159 75.0737 41.9159C75.88 41.9159 76.1237 41.8542 77.3537 41.8542C78.6657 41.8542 79.5928 42.3409 79.5928 43.4832C79.5928 44.6256 78.8366 45.4961 77.6772 45.608L78.7272 47.8836C78.9596 48.3885 79.4128 48.4502 79.8069 48.4708V48.9163C79.5655 48.8752 79.3035 48.8546 79.0302 48.8546H77.4266L76.1761 45.7999H75.3379C74.8732 47.3992 74.7115 47.6917 74.7115 48.1166C74.7115 48.3497 74.9233 48.4296 75.5998 48.4708V48.9163C75.2263 48.8752 74.5726 48.8546 73.6842 48.8546C72.969 48.8546 72.4542 48.8752 72.1718 48.9163V48.4708H72.1672ZM75.4655 45.295C75.5771 45.3042 75.7274 45.3156 75.9096 45.3156C77.2922 45.3156 77.9368 44.5456 77.9368 43.433C77.9368 42.6745 77.5337 42.3409 76.798 42.3409C76.6362 42.3409 76.4654 42.3615 76.3037 42.3615L75.4655 45.295Z" fill="#4E4F50"/>
<path d="M80.267 46.6291C80.3786 46.6497 80.5199 46.6703 80.6998 46.6703C80.8319 46.6703 80.9914 46.6497 81.1121 46.6291C81.1121 47.8332 81.6064 48.5323 82.8159 48.5323C83.8249 48.5323 84.4103 48.169 84.4103 47.3694C84.4103 46.0945 80.9617 46.1242 80.9617 43.8395C80.9617 42.4641 82.112 41.7559 83.6951 41.7559C84.5925 41.7559 85.3601 41.9683 86.146 42.2813L86.0048 43.6979C85.8931 43.6567 85.761 43.6362 85.6016 43.6362C85.4604 43.6362 85.3282 43.6567 85.228 43.6979C85.2189 42.6857 84.7132 42.2402 83.8249 42.2402C82.7954 42.2402 82.3125 42.5646 82.3125 43.1518C82.3125 44.5889 85.761 44.3764 85.761 46.7342C85.761 48.0502 84.752 49.0212 83.1598 49.0212C81.8888 49.0212 80.9504 48.6465 80.103 48.0297L80.2647 46.6337L80.267 46.6291Z" fill="#4E4F50"/>
</svg>
