<svg width="96" height="96" viewBox="0 0 96 96" fill="none" xmlns="http://www.w3.org/2000/svg">
<circle cx="48" cy="48" r="47" fill="white" stroke="white" stroke-width="2"/>
<path d="M42.4685 20.2026V52.1377C42.4685 52.8025 43.0088 53.3416 43.6762 53.3416H64.8397C65.2696 53.3416 65.6161 53.6894 65.6161 54.1155V64.0799C65.6161 65.2311 65.4724 65.3736 64.316 65.3736L31.1193 65.2581C30.7124 65.2568 30.3839 64.9282 30.3839 64.5239V20.2026C30.3852 19.5378 29.8436 19 29.1775 19H20.2077C19.5403 19 19 19.5378 19 20.2026V75.012C19 75.972 19.7803 76.7497 20.7442 76.7497H75.2558C76.2197 76.7497 77 75.972 77 75.012V20.2026C77 19.5378 76.4597 19 75.7936 19H43.6762C43.0088 19 42.4685 19.5378 42.4685 20.2026Z" fill="#D71921"/>
</svg>
