<svg width="96" height="96" viewBox="0 0 96 96" fill="none" xmlns="http://www.w3.org/2000/svg">
<circle cx="48" cy="48" r="47" fill="white" stroke="white" stroke-width="2"/>
<g clip-path="url(#clip0_1_2339)">
<path d="M36.3234 58.8579C36.3164 58.7251 36.3368 58.5922 36.3834 58.4676C36.4301 58.343 36.5019 58.2293 36.5944 58.1337C36.6869 58.0381 36.7981 57.9625 36.9211 57.9118C37.0441 57.8611 37.1763 57.8363 37.3093 57.8389C37.4958 57.8344 37.68 57.8811 37.8417 57.9739C37.8418 58.1185 37.8123 58.2615 37.7551 58.3943C37.692 58.3309 37.617 58.2807 37.5343 58.2466C37.4517 58.2125 37.3631 58.1952 37.2736 58.1956C37.194 58.1969 37.1155 58.2148 37.0432 58.2481C36.9709 58.2815 36.9063 58.3295 36.8535 58.3892C36.8008 58.4489 36.7611 58.5189 36.7369 58.5948C36.7128 58.6707 36.7047 58.7507 36.7132 58.8299C36.7066 58.9123 36.7176 58.9951 36.7454 59.0729C36.7733 59.1506 36.8173 59.2216 36.8746 59.2811C36.9319 59.3406 37.0012 59.3872 37.0779 59.4179C37.1546 59.4486 37.237 59.4627 37.3195 59.4592C37.5128 59.4564 37.6999 59.3902 37.8519 59.2707C37.8575 59.3848 37.8455 59.499 37.8163 59.6095C37.6425 59.7449 37.4277 59.8168 37.2074 59.8133C37.0848 59.8145 36.9634 59.79 36.8508 59.7414C36.7383 59.6929 36.6371 59.6213 36.5539 59.5313C36.4706 59.4414 36.4071 59.335 36.3674 59.219C36.3277 59.103 36.3127 58.9801 36.3234 58.8579Z" fill="#B8BF34"/>
<path d="M39.5587 58.3357C39.2046 58.193 38.9473 58.5446 38.9473 59.1738C38.9473 59.4693 38.9473 59.6833 38.9473 59.7598C38.8185 59.7724 38.6888 59.7724 38.5601 59.7598C38.5601 59.6935 38.5601 59.4872 38.5601 59.1636V58.6185C38.5602 58.3871 38.5406 58.1561 38.5015 57.9281C38.6071 57.8848 38.7174 57.8541 38.8301 57.8364C38.8835 58.0165 38.9176 58.2018 38.932 58.3892C38.9752 58.2305 39.0685 58.0901 39.1979 57.9887C39.3273 57.8872 39.486 57.8302 39.6504 57.8262C39.6527 58.0008 39.6198 58.1741 39.5536 58.3357" fill="#B8BF34"/>
<path d="M41.6733 59.2528C41.6845 59.3669 41.6785 59.482 41.6554 59.5942C41.468 59.7412 41.2363 59.8202 40.9982 59.8184C40.8712 59.8209 40.7452 59.7964 40.6284 59.7465C40.5116 59.6966 40.4068 59.6225 40.3208 59.529C40.2348 59.4356 40.1697 59.3249 40.1297 59.2044C40.0897 59.0839 40.0757 58.9563 40.0887 58.83C40.0789 58.6998 40.096 58.5691 40.1391 58.4459C40.1821 58.3228 40.2501 58.2098 40.3389 58.1142C40.4276 58.0185 40.5351 57.9422 40.6547 57.89C40.7743 57.8378 40.9034 57.8109 41.0338 57.8109C41.1287 57.8042 41.2238 57.8186 41.3124 57.853C41.4011 57.8873 41.481 57.9409 41.5465 58.0098C41.612 58.0787 41.6614 58.1613 41.6913 58.2515C41.7211 58.3418 41.7306 58.4375 41.7191 58.5319C41.7217 58.6532 41.7062 58.7743 41.6733 58.8911L40.481 58.9089C40.4941 59.0646 40.5674 59.209 40.6855 59.3114C40.8035 59.4137 40.9569 59.4658 41.1128 59.4566C41.3213 59.4549 41.5232 59.3831 41.686 59.2528M40.4912 58.6261L41.3217 58.5981C41.3315 58.5555 41.3367 58.5119 41.337 58.4682C41.3403 58.4248 41.3339 58.3811 41.3184 58.3404C41.3029 58.2998 41.2785 58.263 41.2471 58.2328C41.2157 58.2026 41.178 58.1798 41.1368 58.1658C41.0955 58.1519 41.0516 58.1473 41.0084 58.1523C40.8812 58.1586 40.7604 58.2095 40.6671 58.2962C40.5739 58.3829 40.5143 58.4998 40.4989 58.6261" fill="#B8BF34"/>
<path d="M43.8336 59.8005C43.7686 59.6542 43.7273 59.4986 43.7113 59.3393C43.6657 59.4791 43.5771 59.601 43.4582 59.6874C43.3392 59.7739 43.196 59.8206 43.049 59.8208C42.6133 59.8208 42.3255 59.4438 42.3255 58.9292C42.319 58.7802 42.3441 58.6315 42.399 58.4929C42.454 58.3543 42.5376 58.2288 42.6443 58.1247C42.7511 58.0206 42.8786 57.9402 43.0186 57.8887C43.1585 57.8373 43.3078 57.8159 43.4566 57.8261C43.5418 57.8247 43.6271 57.8307 43.7113 57.8439V56.8708C43.8357 56.8245 43.9635 56.7879 44.0935 56.7612V59.054C44.0869 59.282 44.1153 59.5097 44.1775 59.7291C44.0764 59.7782 43.9663 59.806 43.854 59.8106M43.7113 58.7432V58.2337C43.6118 58.1971 43.5066 58.1781 43.4005 58.1777C43.309 58.1753 43.2181 58.1921 43.1335 58.227C43.0489 58.262 42.9726 58.3143 42.9094 58.3805C42.8463 58.4468 42.7978 58.5255 42.7669 58.6117C42.7361 58.6979 42.7237 58.7895 42.7305 58.8808C42.7305 59.212 42.9012 59.4565 43.161 59.4565C43.4209 59.4565 43.7113 59.1661 43.7113 58.7356" fill="#B8BF34"/>
<path d="M44.9136 57.2224C44.9197 57.1634 44.9475 57.1089 44.9914 57.0692C45.0354 57.0295 45.0926 57.0076 45.1518 57.0076C45.2111 57.0076 45.2682 57.0295 45.3122 57.0692C45.3562 57.1089 45.3839 57.1634 45.39 57.2224C45.3935 57.2557 45.3899 57.2894 45.3795 57.3213C45.3691 57.3532 45.3521 57.3825 45.3297 57.4074C45.3072 57.4323 45.2798 57.4522 45.2491 57.4658C45.2185 57.4795 45.1854 57.4865 45.1518 57.4865C45.1183 57.4865 45.0851 57.4795 45.0545 57.4658C45.0239 57.4522 44.9964 57.4323 44.974 57.4074C44.9515 57.3825 44.9346 57.3532 44.9242 57.3213C44.9138 57.2894 44.9102 57.2557 44.9136 57.2224ZM45.3544 59.7699C45.2256 59.7825 45.0959 59.7825 44.9671 59.7699C44.9671 59.7037 44.9671 59.4973 44.9671 59.1738V57.9331C45.0916 57.8878 45.2193 57.852 45.3493 57.8261V59.1738C45.3493 59.4693 45.3493 59.6833 45.3493 59.7597" fill="#B8BF34"/>
<path d="M47.2778 59.6681C47.1503 59.7626 46.9957 59.8135 46.837 59.8133C46.7627 59.8172 46.6885 59.8048 46.6195 59.7769C46.5506 59.7491 46.4885 59.7064 46.4378 59.6521C46.3871 59.5977 46.3488 59.5328 46.3258 59.4621C46.3028 59.3914 46.2956 59.3165 46.3046 59.2426V58.1828H45.9963C46.0155 58.0801 46.0283 57.9763 46.0346 57.872L46.325 57.8262L46.3734 57.467C46.4754 57.43 46.5802 57.401 46.6867 57.3804V57.872H47.2778C47.2715 57.9763 47.2587 58.0801 47.2395 58.1828H46.6918V59.1484C46.6918 59.3827 46.809 59.4592 46.967 59.4592C47.0952 59.4561 47.2192 59.4124 47.3211 59.3343C47.3256 59.4469 47.3127 59.5595 47.2828 59.6681" fill="#B8BF34"/>
<path d="M50.6431 59.8005C50.5734 59.6474 50.5295 59.4839 50.5131 59.3165C50.4671 59.462 50.3752 59.5887 50.2513 59.6778C50.1273 59.7668 49.9779 59.8134 49.8253 59.8107C49.4483 59.8107 49.219 59.5687 49.219 59.1203V57.9332C49.3435 57.8878 49.4712 57.852 49.6011 57.8262V59.0414C49.6011 59.2961 49.7311 59.449 49.9374 59.449C50.238 59.449 50.5081 59.1585 50.5081 58.7331V58.4656C50.5081 58.1675 50.5081 57.9561 50.5081 57.8797C50.6359 57.8658 50.7649 57.8658 50.8927 57.8797C50.8927 57.9459 50.8927 58.1523 50.8927 58.4783V59.0566C50.8862 59.2846 50.9146 59.5123 50.9768 59.7317C50.8756 59.7806 50.7655 59.8083 50.6533 59.8133" fill="#B8BF34"/>
<path d="M53.4454 59.1738C53.4418 59.3668 53.4486 59.5598 53.4658 59.7521C53.337 59.773 53.2065 59.7824 53.076 59.7801C53.076 59.7496 53.076 59.5661 53.076 59.1738V58.5955C53.076 58.3408 52.9461 58.1879 52.7398 58.1879C52.4391 58.1879 52.1717 58.4809 52.1717 58.9038V59.1738C52.1717 59.4693 52.1717 59.6833 52.1717 59.7598C52.0429 59.7724 51.9132 59.7724 51.7844 59.7598C51.7844 59.6961 51.7844 59.4872 51.7844 59.1636V58.6184C51.7845 58.3871 51.7649 58.1561 51.7258 57.9281C51.8314 57.8848 51.9417 57.854 52.0545 57.8364C52.0989 57.9946 52.1287 58.1567 52.1436 58.3204C52.1918 58.1753 52.2855 58.0495 52.4108 57.9619C52.536 57.8742 52.6863 57.8293 52.8391 57.8338C53.2187 57.8338 53.4454 58.0886 53.4454 58.5242V59.1738Z" fill="#B8BF34"/>
<path d="M54.2531 57.2224C54.252 57.191 54.2574 57.1597 54.2689 57.1305C54.2805 57.1013 54.2979 57.0747 54.3201 57.0525C54.3423 57.0303 54.3688 57.0129 54.3981 57.0013C54.4273 56.9898 54.4586 56.9844 54.49 56.9855C54.5214 56.9848 54.5526 56.9904 54.5818 57.0021C54.611 57.0137 54.6376 57.0311 54.6599 57.0532C54.6823 57.0753 54.6999 57.1017 54.7119 57.1307C54.7238 57.1598 54.7298 57.191 54.7295 57.2224C54.7298 57.2539 54.7238 57.2852 54.7119 57.3144C54.7 57.3437 54.6824 57.3702 54.6601 57.3925C54.6378 57.4148 54.6112 57.4324 54.582 57.4443C54.5528 57.4563 54.5215 57.4622 54.49 57.4619C54.4586 57.4622 54.4274 57.4562 54.3983 57.4443C54.3692 57.4324 54.3429 57.4147 54.3208 57.3924C54.2987 57.37 54.2813 57.3435 54.2696 57.3143C54.258 57.2851 54.2524 57.2538 54.2531 57.2224ZM54.6912 59.77C54.5633 59.7826 54.4345 59.7826 54.3066 59.77C54.3066 59.7037 54.3066 59.4974 54.3066 59.1738V57.9332C54.431 57.8878 54.5588 57.852 54.6887 57.8262V59.1738C54.6887 59.4693 54.6887 59.6833 54.6887 59.7598" fill="#B8BF34"/>
<path d="M55.4095 58.8809C55.4023 58.7469 55.4221 58.6128 55.4677 58.4866C55.5134 58.3605 55.5839 58.2447 55.6752 58.1463C55.7664 58.048 55.8765 57.9689 55.999 57.9139C56.1214 57.8589 56.2536 57.8291 56.3877 57.8262C56.5074 57.8248 56.626 57.8483 56.736 57.8954C56.846 57.9424 56.945 58.012 57.0266 58.0995C57.1081 58.1871 57.1705 58.2907 57.2096 58.4038C57.2488 58.5168 57.2639 58.6369 57.2539 58.7561C57.2615 58.8903 57.2419 59.0247 57.1964 59.1511C57.1509 59.2776 57.0805 59.3937 56.9892 59.4923C56.8979 59.591 56.7876 59.6703 56.6651 59.7254C56.5425 59.7806 56.41 59.8105 56.2757 59.8133C56.156 59.8141 56.0375 59.7899 55.9277 59.7424C55.8178 59.695 55.7191 59.6252 55.6376 59.5375C55.5562 59.4498 55.4939 59.3462 55.4546 59.2332C55.4153 59.1202 55.4 59.0002 55.4095 58.8809ZM56.8641 58.807C56.8726 58.7313 56.8654 58.6547 56.8431 58.5818C56.8208 58.509 56.7838 58.4415 56.7344 58.3835C56.685 58.3255 56.6242 58.2782 56.5558 58.2446C56.4874 58.211 56.4129 58.1917 56.3368 58.188C56.2587 58.193 56.1824 58.2138 56.1125 58.2492C56.0427 58.2846 55.9808 58.3338 55.9305 58.3938C55.8803 58.4539 55.8427 58.5235 55.8201 58.5984C55.7976 58.6734 55.7905 58.7522 55.7993 58.83C55.7908 58.9055 55.7979 58.9819 55.8201 59.0546C55.8422 59.1273 55.879 59.1947 55.9282 59.2527C55.9773 59.3106 56.0378 59.358 56.1058 59.3917C56.1739 59.4255 56.2482 59.445 56.3241 59.449C56.4024 59.4443 56.479 59.4237 56.5491 59.3885C56.6192 59.3533 56.6815 59.3041 56.732 59.2441C56.7825 59.184 56.8203 59.1143 56.843 59.0391C56.8657 58.964 56.8729 58.885 56.8641 58.807Z" fill="#B8BF34"/>
<path d="M59.6563 59.1739C59.6526 59.3669 59.6595 59.5599 59.6766 59.7522C59.5478 59.7733 59.4174 59.7827 59.2869 59.7802C59.2869 59.7496 59.2869 59.5662 59.2869 59.1739V58.5956C59.2869 58.3408 59.1569 58.188 58.9506 58.188C58.65 58.188 58.3825 58.481 58.3825 58.9038V59.1739C58.3825 59.4694 58.3825 59.6834 58.3825 59.7598C58.2546 59.7724 58.1257 59.7724 57.9978 59.7598C57.9978 59.6961 57.9978 59.4872 57.9978 59.1637V58.6185C57.9979 58.3871 57.9783 58.1562 57.9392 57.9281C58.0449 57.8852 58.1552 57.8545 58.2678 57.8364C58.3144 57.992 58.3468 58.1514 58.3646 58.3128C58.4128 58.1677 58.5065 58.042 58.6318 57.9543C58.7571 57.8667 58.9073 57.8217 59.0601 57.8262C59.4397 57.8262 59.6664 58.081 59.6664 58.5166L59.6563 59.1739Z" fill="#B8BF34"/>
<path d="M45.7952 40.1616H44.845V41.1119H45.7952V40.1616Z" fill="#0A3254"/>
<path d="M50.1948 39.4534V43.0352C50.1948 44.6274 49.0255 45.1344 47.9963 45.1344C46.9671 45.1344 45.7977 44.6249 45.7977 43.0352V42.0646H44.8424V41.1144H43.8947V42.0646H42.947V43.1422H43.8998V42.6786H44.3635V43.1422H43.8973C43.9559 45.7382 46.106 46.6706 47.9963 46.6706C49.8865 46.6706 52.0978 45.7127 52.0978 43.0352V39.4534H50.1948Z" fill="#0A3254"/>
<path d="M44.8448 39.2112H43.8945V40.164H44.8448V39.2112Z" fill="#0A3254"/>
<path d="M43.8921 40.1616H42.9419V41.1119H43.8921V40.1616Z" fill="#B8BF34"/>
<path d="M42.9419 41.1143H41.9917V42.067H42.9419V41.1143Z" fill="#EF4129"/>
<path d="M42.9419 39.6978H42.4783V40.1614H42.9419V39.6978Z" fill="#0A3254"/>
<path d="M42.4783 39.2341H42.0146V39.6978H42.4783V39.2341Z" fill="#B8BF34"/>
<path d="M44.8448 37.7922H44.3811V38.2559H44.8448V37.7922Z" fill="#0A3254"/>
<path d="M43.8921 37H43.4285V37.4637H43.8921V37Z" fill="#0A3254"/>
<path d="M41.6094 42.0645H41.1458V42.5281H41.6094V42.0645Z" fill="#0A3254"/>
<path d="M45.7952 38.2559H44.845V39.2061H45.7952V38.2559Z" fill="#B8BF34"/>
<path d="M23.4531 49.4346H24.7982V53.2686C24.7982 55.1615 23.2544 55.8391 21.8991 55.8391C20.5438 55.8391 19 55.1615 19 53.2686V49.4346H20.3451V53.2686C20.3451 54.3946 21.1731 54.7538 21.8991 54.7538C22.6252 54.7538 23.4531 54.3946 23.4531 53.2686V49.4346Z" fill="#0A3254"/>
<path d="M34.754 50.2498H33.4089V55.2506H34.754V50.2498Z" fill="#0A3254"/>
<path d="M42.8936 55.2506V50.2498H47.9657V51.3172H44.2387V52.2623H47.2677V53.238H44.2387V54.1857H47.9657V55.2506H42.8936Z" fill="#0A3254"/>
<path d="M63.5897 50.2498H62.2446V55.2506H63.5897V50.2498Z" fill="#0A3254"/>
<path d="M66.6468 55.2506V51.4165H64.5068V50.2498H70.1242V51.4165H67.9919V55.2506H66.6468Z" fill="#0A3254"/>
<path d="M73.0233 55.2506V53.559L70.4044 50.2498H72.0578L73.7009 52.4228L75.3467 50.2498H77L74.3786 53.559V55.2506H73.0233Z" fill="#0A3254"/>
<path d="M53.7433 53.6712C54.0645 53.538 54.3384 53.3119 54.53 53.0218C54.7216 52.7317 54.822 52.3909 54.8184 52.0433C54.8184 51.3351 54.3598 50.26 52.7804 50.26H49.28V55.2634H50.6251V53.847H52.388L53.0147 54.7717C53.7179 55.7907 54.2885 55.8035 54.9611 55.4162L53.7433 53.6712ZM50.6251 51.4268H52.467C53.2644 51.4268 53.3739 51.7936 53.3739 52.0433C53.3739 52.293 53.2644 52.67 52.467 52.67H50.6251V51.4268Z" fill="#0A3254"/>
<path d="M39.4161 55.2506L42.384 50.2498H40.9395L38.9575 53.6558L37.0061 50.2498H35.5591L38.5015 55.2506H39.4161Z" fill="#0A3254"/>
<path d="M27.5189 55.2506V52.3235L31.0804 55.2506H31.9338V50.2498H31.8345H30.5887V53.1769L26.9941 50.2498H26.1738V55.2506H26.5993H27.5189Z" fill="#0A3254"/>
<path d="M56.9838 51.7477C56.9838 51.3986 57.7328 51.2993 58.6397 51.2993C59.3074 51.2914 59.9739 51.358 60.6268 51.498L60.6854 50.372C59.929 50.2333 59.1616 50.1634 58.3926 50.1631C57.1953 50.1631 55.6489 50.3618 55.6489 51.7986C55.6489 54.1653 59.832 52.8762 59.832 53.7449C59.832 54.1347 59.0015 54.2137 57.9545 54.2137C57.2394 54.2162 56.5252 54.1677 55.8171 54.0685V55.2021C56.592 55.2996 57.3721 55.3498 58.1532 55.3524C59.6511 55.3524 61.1669 55.141 61.1669 53.7042C61.1669 51.3299 56.9864 52.568 56.9864 51.7477" fill="#0A3254"/>
</g>
<defs>
<clipPath id="clip0_1_2339">
<rect width="58" height="22.8133" fill="white" transform="translate(19 37)"/>
</clipPath>
</defs>
</svg>
