<svg width="96" height="96" viewBox="0 0 96 96" fill="none" xmlns="http://www.w3.org/2000/svg">
<circle cx="48" cy="48" r="47" fill="white" stroke="white" stroke-width="2"/>
<path d="M27.7809 76.3475C27.3808 75.7936 26.7448 75.5576 26.2012 75.2089C24.1598 73.8753 22.0877 72.5725 19.9027 71.1774C26.591 67.2383 33.1561 63.3711 39.9675 59.3499C39.5366 60.9502 39.1776 62.2837 38.757 63.8121C41.4549 62.0375 44.0194 60.4475 46.4608 58.6831C47.5687 57.883 48.3175 57.9035 49.4151 58.6831C51.8976 60.4475 54.5031 62.0375 57.201 63.7916C56.8009 62.2529 56.4316 60.8578 56.0213 59.2883C62.6583 63.2685 69.1414 67.1665 75.6347 71.0543C75.6245 71.4134 75.3065 71.4339 75.1116 71.5365C72.424 72.9726 69.7158 74.3677 67.0282 75.8243C66.5051 76.1116 66.146 76.0705 65.6639 75.7628C60.0117 72.275 54.339 68.8181 48.6766 65.3406C48.2457 65.0739 47.9072 64.9508 47.3943 65.2483C41.0959 68.8796 34.7769 72.4905 28.4579 76.1116C28.3553 76.1731 28.263 76.2654 28.1604 76.3372C28.0373 76.3475 27.9143 76.3475 27.7809 76.3475ZM49.5588 20C52.4618 21.0874 55.3648 22.185 58.2884 23.2313C58.9244 23.457 59.15 23.7339 59.15 24.4315C59.1193 31.4275 59.1193 38.4235 59.15 45.4195C59.15 46.1375 59.0064 46.394 58.2268 46.3735C56.3496 46.3119 54.4724 46.3324 52.5951 46.3735C52.0515 46.3837 51.8258 46.1991 51.6411 45.7067C50.9641 43.8602 50.246 42.0343 49.5382 40.1981C49.4254 39.9006 49.3433 39.6031 49.3433 39.2749C49.3536 32.8533 49.3638 26.4215 49.3638 20H49.5588ZM19 57.4316C24.0675 54.4055 29.1452 51.3896 34.2024 48.3327C34.8384 47.9429 35.2385 47.9224 35.8335 48.4251C37.526 49.8715 39.2802 51.246 41.0343 52.6206C41.4446 52.9386 41.4857 53.2156 41.4036 53.7387C41.1574 55.2056 40.3778 56.0571 39.0648 56.7854C32.6535 60.3449 26.3037 64.0276 19.9335 67.6692C19.636 67.8436 19.318 67.9769 19 68.1308V57.4316Z" fill="#003E7E"/>
<path d="M36.8081 34.9458C36.8081 31.4478 36.8286 27.9498 36.7876 24.4518C36.7773 23.7851 36.9928 23.5081 37.598 23.3029C40.3471 22.3387 43.0963 21.3539 45.8249 20.3178C46.543 20.0409 46.6661 20.2153 46.6661 20.9128C46.6456 26.9548 46.6559 32.9968 46.6559 39.0388C46.6559 39.4594 46.584 39.8594 46.4302 40.2492C45.7326 42.0547 45.0248 43.8498 44.358 45.6655C44.1631 46.1887 43.9272 46.4041 43.3322 46.3938C41.3935 46.3528 39.4547 46.3528 37.5159 46.3938C36.9107 46.4041 36.7773 46.1989 36.7773 45.6347C36.8184 42.0752 36.8081 38.5054 36.8081 34.9458ZM76.9889 62.6836C76.9889 64.2121 76.9684 65.7405 76.9992 67.2587C77.0094 67.8537 76.9479 68.0999 76.2914 67.7203C69.4082 63.771 62.5148 59.8421 55.6317 55.903C54.6366 55.3286 54.8315 54.1797 54.5238 53.2975C54.2981 52.6512 55.0162 52.4871 55.3649 52.1896C57.0062 50.8356 58.6886 49.5225 60.3298 48.1685C60.7299 47.8402 61.0069 47.7684 61.4787 48.0556C66.4436 51.0612 71.4291 54.0566 76.4145 57.0314C76.8658 57.2981 77.0094 57.5956 76.9992 58.0983C76.9684 59.637 76.9889 61.1654 76.9889 62.6836Z" fill="#003E7E"/>
<path d="M44.399 52.8569C44.3888 52.7338 44.3785 52.6107 44.3785 52.4876C45.2915 51.8619 46.348 51.6978 47.22 51.4208C44.7786 50.5284 42.0602 49.8513 39.4341 48.846C39.3315 48.7742 39.1469 48.6922 39.1571 48.6306C39.1674 48.3331 39.4341 48.4665 39.5777 48.4562C41.26 48.446 42.9321 48.3947 44.6144 48.4665C45.4761 48.5075 45.8967 48.2716 46.1429 47.3894C46.6353 45.5942 47.2713 43.8401 47.8765 41.9937C48.1432 42.2193 48.2253 42.445 48.215 42.722C48.4407 45.3891 48.256 48.0562 48.3484 50.713C48.3894 50.8156 48.4202 50.9079 48.4612 51.0105C48.533 51.308 48.3381 51.4721 48.1535 51.6465C46.7686 53.2262 45.671 55.0316 44.358 56.6627C44.1631 56.9089 44.081 57.4423 43.5373 57.1448C43.4553 56.078 43.9066 55.124 44.1528 54.1289C44.2554 53.7186 44.4606 53.3083 44.399 52.8569Z" fill="#FEC323"/>
<path d="M48.0303 51.5122L48.4098 51.1327C48.6047 50.8557 48.9227 50.7736 49.2202 50.6916C51.1795 50.1069 53.1183 49.4401 55.0673 48.8246C55.4469 48.7015 55.9598 48.3425 56.2367 49.04C54.8519 50.0556 53.4978 51.0916 52.0822 52.0559C51.5796 52.4047 51.4462 52.7021 51.6514 53.2869C52.2053 54.9076 52.6874 56.5489 53.1901 58.18C53.3337 58.621 53.2516 58.8159 52.831 58.4467C52.4823 58.1389 52.2258 57.7286 51.9386 57.3593C50.8205 55.6667 49.5792 54.0665 48.4303 52.3944C48.2662 52.1585 48.0611 51.9636 48.02 51.6558C48.0303 51.6045 48.0303 51.5635 48.0303 51.5122Z" fill="#EFB310"/>
<path d="M43.6399 57.2468C44.9119 55.5338 46.1839 53.8309 47.4456 52.1076C47.62 51.8716 47.7739 51.6459 48.0406 51.5228C48.4612 52.4666 48.3278 53.4514 48.297 54.4361C48.2663 54.7439 48.1534 55.0003 47.8559 55.1337C46.2454 56.2826 44.6247 57.4315 43.0141 58.5804C42.7987 58.724 42.6038 58.6317 42.7064 58.4163C42.9013 57.9547 43.0654 57.4212 43.6399 57.2468ZM39.4341 48.8455C39.5161 48.8045 39.6085 48.7019 39.6598 48.7121C42.2756 49.5533 44.9016 50.3945 47.5174 51.3587C46.5019 51.8819 45.4761 52.2922 44.3682 52.4871C42.7269 51.2664 41.0856 50.0559 39.4341 48.8455Z" fill="#EFB311"/>
<path d="M56.2469 49.0304C55.9392 48.6713 55.6109 48.9073 55.2929 49.0098C53.3336 49.6356 51.3846 50.2716 49.4253 50.8973C49.097 50.9999 48.7483 51.0512 48.42 51.1333H48.2251C48.0302 50.8358 48.2251 50.5793 48.379 50.3742C48.9124 49.6561 49.3945 48.897 49.9792 48.2097C50.2665 48.5585 50.6665 48.4457 51.0358 48.4457C52.9746 48.4559 54.9134 48.4457 56.9137 48.4457C56.7496 48.8252 56.4931 48.9278 56.2469 49.0304Z" fill="#FEC323"/>
<path d="M49.9794 48.1995C49.8665 49.1842 49.0151 49.7074 48.574 50.487C48.4509 50.7024 48.2253 50.8563 48.2253 51.1333C48.0201 50.9794 48.0304 50.7537 48.0304 50.5281V43.3372C48.0304 43.1217 48.0098 42.8858 48.215 42.7319C48.8715 44.5374 49.4767 46.353 49.9794 48.1995Z" fill="#EFB311"/>
<path d="M47.8355 55.124C47.897 54.9393 47.9586 54.7547 48.0304 54.57C48.5023 54.2213 48.8716 54.5393 49.2101 54.7957C50.2154 55.5343 51.2207 56.2934 52.0413 57.2474C52.5029 57.4423 52.6363 57.9244 52.9132 58.2732C53.1594 58.5707 53.1492 58.3553 53.1902 58.1809C53.3748 58.386 53.4364 58.6117 53.303 58.9605C51.4771 57.668 49.6614 56.396 47.8355 55.124ZM43.64 57.2474C43.4656 57.709 42.8706 57.9654 43.004 58.5809C42.8809 58.8169 42.6654 58.94 42.2756 59.0836C43.0142 56.9396 43.7118 54.8983 44.4093 52.8569C44.7581 53.1647 44.5221 53.4827 44.4401 53.8007C44.1529 54.9496 43.8964 56.0985 43.64 57.2474Z" fill="#FEC323"/>
<path d="M52.0412 57.2467C50.9538 56.662 50.1434 55.708 49.1381 55.0104C48.7894 54.7745 48.4611 54.5488 48.02 54.5694V51.5125C49.4254 53.3794 50.882 55.2054 52.0412 57.2467Z" fill="#FEC323"/>
</svg>
