<svg width="96" height="96" viewBox="0 0 96 96" fill="none" xmlns="http://www.w3.org/2000/svg">
<circle cx="48" cy="48" r="47" fill="white" stroke="white" stroke-width="2"/>
<path fill-rule="evenodd" clip-rule="evenodd" d="M19.8308 58.1224C21.9245 58.2735 22.8869 57.6132 22.8869 55.7807C22.8869 54.3646 22.0944 53.5907 20.5853 53.5907H19.8308V58.1224ZM17.3973 54.7988C17.3973 53.8752 17.19 53.5166 16 53.2889V52.9668H21.2468C24.3024 52.9668 25.5292 54.1952 25.5292 55.7432C25.5292 56.8747 24.888 57.9144 23.3031 58.3658V58.4049C24.5284 58.6884 25.7169 62.2179 26.7182 63.218C27.0004 63.5031 27.2452 63.6152 27.7175 63.6907V64.0123H24.5284C23.3208 62.5764 22.5293 60.1034 21.6802 59.2534C21.1897 58.7634 20.8119 58.7452 19.8308 58.7452V62.1433C19.8308 63.1247 20.2283 63.5406 21.2468 63.6907V64.0123H16V63.6907C16.9078 63.6152 17.3973 63.1623 17.3973 62.2757V54.7988Z" fill="#558800"/>
<path fill-rule="evenodd" clip-rule="evenodd" d="M34.9462 61.0628H34.6691C34.5664 60.319 34.1861 59.9688 33.4872 59.9688H31.9837V62.4788C31.9837 63.2528 32.3038 63.529 33.1519 63.529H33.6475C34.6979 63.529 35.1657 62.7571 35.4418 61.9389H35.6896L35.5298 64.0122H29.0217V63.763C29.9705 63.5603 30.1019 63.2669 30.1019 62.3928V56.9016C30.1019 56.1574 29.9249 55.8936 29.0217 55.7185V55.4709H35.4277V57.367H35.1794C34.9017 56.2736 34.5806 55.952 33.6339 55.952H31.9837V59.4857H33.4872C34.1725 59.4857 34.4941 59.1943 34.6691 58.4198H34.9462V61.0628Z" fill="#558800"/>
<path fill-rule="evenodd" clip-rule="evenodd" d="M45.2776 63.6183C44.4619 64.0123 43.2497 64.2312 41.9657 64.2312C38.8858 64.2312 37.3252 61.9979 37.3252 59.8073C37.3252 57.1941 39.2945 55.2527 41.9657 55.2527C43.2638 55.2527 43.8485 55.7629 44.4027 55.7629C44.6354 55.7629 44.7962 55.6889 45.0157 55.4711H45.2776V57.8649H45.0157C44.5044 56.5656 43.3665 55.7337 42.0815 55.7337C40.3312 55.7337 39.3668 57.3109 39.3668 59.9538C39.3668 62.6827 40.5365 63.7496 42.1108 63.7496C42.8846 63.7496 43.3958 63.5437 43.3958 62.8438V61.5742C43.3958 61.0196 43.1769 60.6543 42.5209 60.5219V60.2733H46.11V60.5219C45.4809 60.6975 45.2776 61.0196 45.2776 61.8082V63.6183Z" fill="#558800"/>
<path fill-rule="evenodd" clip-rule="evenodd" d="M50.7634 62.5656C50.7634 63.326 50.9551 63.5439 51.8442 63.7628V64.0119H47.8035V63.7628C48.8533 63.5001 48.8806 63.2082 48.8806 62.3774V56.917C48.8806 56.1576 48.692 55.9382 47.8035 55.7182V55.4712H51.8442V55.7182C50.8221 55.9522 50.7634 56.2733 50.7634 57.091V62.5656Z" fill="#558800"/>
<path fill-rule="evenodd" clip-rule="evenodd" d="M58.4395 55.7337C56.762 55.7337 55.8421 57.1201 55.8421 59.8214C55.8421 61.8817 56.5132 63.7496 58.4395 63.7496C59.8697 63.7496 61.051 62.6259 61.051 59.8068C61.051 57.412 60.3086 55.7337 58.4395 55.7337ZM58.4395 64.2312C55.7415 64.2312 53.8 62.3622 53.8 59.75C53.8 57.1357 55.7415 55.2527 58.4395 55.2527C61.1542 55.2527 63.0952 57.1357 63.0952 59.75C63.0952 62.3622 61.1542 64.2312 58.4395 64.2312Z" fill="#558800"/>
<path fill-rule="evenodd" clip-rule="evenodd" d="M72.7132 64.1151H72.434L66.2891 57.1786V62.4051C66.2891 63.3416 66.5677 63.6043 67.5443 63.7628V64.0124H64.5979V63.7628C65.5178 63.6184 65.7343 63.1217 65.7216 62.2888V56.5657C65.0657 55.8939 64.9332 55.7922 64.5828 55.7182V55.4712H67.1508L72.1438 61.1943V57.3532C72.1438 56.3176 71.9678 55.9231 71.061 55.7182V55.4712H73.9502V55.7182C72.9747 55.7776 72.7132 56.3619 72.7132 57.1202V64.1151Z" fill="#558800"/>
<path fill-rule="evenodd" clip-rule="evenodd" d="M80.4299 57.5003H80.1831C79.861 56.5064 78.9436 55.7335 78.0652 55.7335C77.294 55.7335 76.6659 56.2437 76.6659 56.8869C76.6659 57.2079 76.8267 57.53 77.0886 57.7927C77.5129 58.2149 79.468 59.251 79.9935 59.7774C80.6362 60.42 80.9265 61.0043 80.9265 61.7485C80.9265 63.6321 79.2339 64.2309 78.183 64.2309C77.1604 64.2309 76.5344 63.8948 76.0959 63.8948C75.9073 63.8948 75.7459 63.9964 75.6595 64.1731H75.4102V61.6036H75.6595C75.9073 62.8743 76.7245 63.7494 77.9499 63.7494C78.8662 63.7494 79.5257 63.2386 79.5257 62.5381C79.5257 62.2603 79.4094 61.8814 79.0877 61.5599C78.4303 60.9011 76.9283 60.273 76.2137 59.558C75.702 59.0477 75.4547 58.4197 75.4547 57.7479C75.4547 56.2734 76.5622 55.2524 78.1395 55.2524C78.4627 55.2524 78.7524 55.3108 79.0134 55.3681C79.2784 55.4281 79.5257 55.4859 79.7447 55.4859C79.8756 55.4859 80.0208 55.4124 80.1831 55.2524H80.4299V57.5003Z" fill="#558800"/>
<path fill-rule="evenodd" clip-rule="evenodd" d="M37.6667 48.3702L43.3606 40.5149L46.8263 48.3702H37.6667ZM43.5709 40.2591L46.4267 36.2777L47.8801 48.374L43.5709 40.2591ZM48.7687 33.0002L50.9387 35.9809L48.7687 48.3737L46.6133 35.9721L48.7687 33.0002ZM49.7117 48.374L51.1288 36.2595L54.0134 40.2325L49.7117 48.374ZM50.7822 48.374L54.1953 40.4952L59.913 48.374H50.7822Z" fill="#88BB00"/>
</svg>
