<svg width="96" height="96" viewBox="0 0 96 96" fill="none" xmlns="http://www.w3.org/2000/svg">
<circle cx="48" cy="48" r="47" fill="white" stroke="white" stroke-width="2"/>
<path d="M70.6264 72.5018H25.3736C21.9744 72.5018 19 69.7399 19 66.1282V29.3736C19 25.9744 21.7619 23 25.3736 23H70.6264C74.0256 23 77 25.7619 77 29.3736V66.1282C77 69.5275 74.0256 72.5018 70.6264 72.5018Z" fill="white"/>
<path d="M69.5644 25.5486H31.5351H29.4105C34.9343 28.9479 39.8208 34.0468 43.4325 39.3581C44.0699 46.3691 43.8574 48.2812 48.5314 54.2299L48.9563 54.4424C53.2054 51.468 56.8171 47.2189 61.0662 44.457C65.1028 42.3325 70.2017 43.6072 74.6633 43.1823V30.4351C74.0259 25.1237 69.7768 25.5486 69.5644 25.5486Z" fill="#005CB9"/>
<path d="M37.2712 55.0805C35.3591 54.6555 35.784 52.1061 34.5093 51.0438C33.447 47.6446 32.5972 44.6702 31.5349 41.2709C30.4726 40.4211 31.3225 39.1464 29.8353 38.509C29.1979 37.0218 28.9855 35.9596 28.1357 34.4724C26.8609 32.9852 26.6485 30.8607 25.5862 29.161C26.2236 28.3112 25.5862 27.4614 25.3737 26.6116C25.1613 26.3991 25.1613 25.9742 25.3737 25.5493C23.2492 25.9742 21.3371 28.5237 21.5496 31.2856C21.5496 32.5603 21.5496 58.4797 21.5496 62.5164C21.5496 64.4284 21.3371 67.1903 22.3994 68.2526C22.3994 68.2526 22.8243 69.7398 25.5862 70.1647C27.9232 70.1647 32.8096 70.1647 32.8096 70.1647C31.3225 68.89 29.1979 66.9779 29.4104 64.8533C29.4104 63.3662 30.2602 61.879 30.8976 60.8167C31.7474 56.9925 35.5715 60.8167 37.6961 59.3295C37.9085 57.6299 37.9085 56.1427 37.2712 55.0805Z" fill="#005CB9"/>
<path d="M74.4507 45.3071C74.4507 45.3071 65.5276 44.2448 62.1283 46.3693C58.3041 48.9188 55.9671 51.2558 52.5679 54.6551C56.392 55.08 57.0294 56.1422 59.3664 59.1166C58.3041 59.5415 56.817 58.6917 55.5422 59.3291C51.9305 62.091 47.469 63.3657 42.5825 63.5781C40.2455 65.2778 37.6961 67.6148 35.5715 69.9518H68.9268C71.6888 69.9518 73.8133 68.2521 74.0257 64.6404C74.2382 64.428 74.4507 46.7943 74.4507 45.3071Z" fill="#00953B"/>
</svg>
