<svg width="96" height="96" viewBox="0 0 96 96" fill="none" xmlns="http://www.w3.org/2000/svg">
<circle cx="48" cy="48" r="47" fill="white" stroke="white" stroke-width="2"/>
<path d="M24.3066 52.5055C21.0159 42.8293 23.2528 34.6584 29.1572 29.8983L28.6559 29.1786C20.1864 35.8309 17.0586 47.2137 20.1893 56.4147C24.0285 67.6924 36.6244 74.8566 49.9114 70.2034C51.8508 69.5216 53.6277 68.6417 55.25 67.6077L54.746 66.878C53.6128 67.5595 52.3835 68.141 51.0612 68.6044C41.654 71.8995 29.3953 67.4565 24.3066 52.5055Z" fill="#081639"/>
<path d="M58.0572 36.4286C59.5288 35.5185 61.0099 34.6223 62.5 33.7417C57.1049 25.8436 46.6278 21.6142 35.6761 25.4113C33.7562 26.0755 31.9973 26.9397 30.3929 27.9523L30.8903 28.6657C32.011 27.9987 33.23 27.4277 34.5392 26.9758C42.3419 24.2695 52.1253 26.8931 58.0572 36.4286Z" fill="#00AEEF"/>
<path d="M76.8151 26.0714C74.9785 27.4622 73.12 28.8241 71.2384 30.1578C69.3681 31.5009 67.4768 32.8193 65.5656 34.1059C61.743 36.6819 57.8415 39.1416 53.8687 41.485C49.9126 43.8545 45.8856 46.1091 41.7944 48.248C39.749 49.3172 37.6858 50.3565 35.6107 51.3679C33.5411 52.3925 31.4561 53.3872 29.3571 54.3533L29.4809 54.6226C34.1448 53.6865 38.5916 52.1491 42.9144 50.3488C47.2279 48.5299 51.4063 46.4095 55.4197 44.0181C57.3225 42.8847 59.1896 41.6902 61.0152 40.4364C61.3093 41.1215 61.5875 41.8304 61.8463 42.5693C65.1664 52.0524 62.9076 60.0585 56.951 64.7207L57.4565 65.4286C66.0047 58.9084 69.1577 47.7536 65.9988 38.7403C65.8217 38.2328 65.6254 37.7342 65.4109 37.2448C65.9213 36.8529 66.4268 36.4558 66.9288 36.0528C70.5556 33.1175 74.0032 29.9481 77 26.3039L76.8151 26.0714Z" fill="#00AEEF"/>
</svg>
