<svg width="96" height="96" viewBox="0 0 96 96" fill="none" xmlns="http://www.w3.org/2000/svg">
<circle cx="48" cy="48" r="47" fill="white" stroke="white" stroke-width="2"/>
<g clip-path="url(#clip0_1_7699)">
<path d="M44.3627 66.9946L43.9334 67.1393C41.1528 68.0629 37.0413 69.4849 33.3502 71.1809C33.1526 71.2736 33.0225 71.5321 33.0225 71.5321C32.9542 71.6907 32.8689 71.8858 32.7721 72.1069L32.7575 72.1354C32.3444 73.0761 31.7737 74.4915 31.5298 75.068L31.3395 75.5217C31.3103 75.5932 31.3273 75.6761 31.3851 75.7306C31.4192 75.7631 31.4607 75.7818 31.5111 75.7835C31.5371 75.7835 31.568 75.7778 31.5948 75.7639L32.0412 75.5517C33.0502 75.0721 34.3291 74.3436 35.6697 73.707L35.7161 73.685C38.2649 72.476 41.1423 71.1118 42.8756 70.2857C42.8756 70.2849 43.1537 70.1361 43.2944 69.8581L44.5911 67.2572C44.6253 67.1897 44.6147 67.1068 44.5676 67.0491C44.5147 66.9921 44.435 66.971 44.3627 66.9946ZM33.9998 62.9636C34.1803 62.6083 35.0234 60.9912 35.2136 60.6285L35.2478 60.5668C40.8772 49.9502 47.7384 39.9369 55.6362 30.8049L55.8549 30.5529C55.9215 30.474 55.9337 30.361 55.8858 30.2691C55.8337 30.1773 55.7297 30.1269 55.6297 30.1407L55.2988 30.1854C50.1149 30.8992 44.8708 31.8879 39.7032 33.1221C39.191 33.2652 38.8601 33.5993 38.7877 33.6774C34.9209 38.3068 31.2582 43.1809 27.8988 48.1745C27.7305 48.4266 27.7126 49.0298 27.7126 49.0298C27.7126 49.0298 28.559 55.5325 29.7915 60.3245C26.737 69.106 24.0101 80.6787 24.0101 80.6787C23.9881 80.7535 24.0036 80.834 24.0483 80.8974C24.0946 80.9608 24.1678 80.9974 24.2467 80.9999H25.9849C26.0378 81.0009 26.0898 80.9856 26.1337 80.9561C26.1777 80.9266 26.2114 80.8842 26.2305 80.8348L26.3483 80.5096C28.1232 75.6713 30.1476 70.8923 32.3835 66.2368C32.9038 65.1523 33.9998 62.9636 33.9998 62.9636Z" fill="#00C805"/>
<path d="M58.187 32.7036L58.1838 32.3727C58.1805 32.2687 58.1155 32.1752 58.0195 32.1402C57.922 32.1036 57.8098 32.1312 57.7431 32.2109L57.5268 32.4613C48.3176 43.1088 40.5776 54.927 34.5205 67.5867L34.3798 67.8827C34.3335 67.9762 34.353 68.0892 34.4221 68.164C34.4701 68.2136 34.5335 68.2412 34.6026 68.2412C34.6327 68.2429 34.6701 68.2363 34.7018 68.2233L35.0051 68.0973C40.1776 65.955 45.4606 64.0988 50.7088 62.5825C51.0226 62.4915 51.2884 62.2728 51.4372 61.9817C53.7373 57.4995 59.0789 48.822 59.0789 48.822C59.2163 48.626 59.1814 48.3358 59.1814 48.3358C59.1814 48.3358 58.2456 37.9558 58.187 32.7036Z" fill="#00C805"/>
<path d="M70.0948 17.7332C68.7875 16.5998 66.8915 16.0673 63.9434 16.0038C61.271 15.9469 58.092 16.5217 54.4927 17.7088C53.9529 17.8982 53.5244 18.1966 53.1399 18.5747C49.4548 22.0346 45.9223 25.6536 42.5526 29.4213L42.2932 29.7083C42.2217 29.7896 42.2111 29.9075 42.2639 30.001C42.2904 30.0472 42.331 30.0837 42.3797 30.1052C42.4284 30.1267 42.4827 30.1321 42.5347 30.1205L42.9119 30.0408C48.3373 28.8815 53.8155 27.9952 59.188 27.4074C59.5417 27.3684 59.9067 27.4863 60.171 27.7269C60.4344 27.97 60.5856 28.3156 60.5791 28.6758C60.4905 34.0068 60.6832 39.3647 61.1588 44.6022L61.1889 44.9437C61.1939 44.9952 61.2148 45.044 61.2485 45.0832C61.2823 45.1225 61.3273 45.1504 61.3775 45.1632C61.3954 45.1681 61.4133 45.1722 61.4368 45.173C61.5165 45.1738 61.5995 45.1356 61.6482 45.0657L61.845 44.7843C64.8727 40.4663 68.1679 36.2687 71.6323 32.2986L71.6306 32.2978C72.0184 31.8563 72.1217 31.5767 72.1941 31.1758C73.2851 24.1968 71.6014 19.0389 70.0948 17.7332Z" fill="#00C805"/>
</g>
<defs>
<clipPath id="clip0_1_7699">
<rect width="58" height="64.5018" fill="white" transform="translate(19 16)"/>
</clipPath>
</defs>
</svg>
