<svg width="96" height="96" viewBox="0 0 96 96" fill="none" xmlns="http://www.w3.org/2000/svg">
<circle cx="48" cy="48" r="47" fill="white" stroke="white" stroke-width="2"/>
<path d="M71.5292 47.3904C71.5292 58.6512 62.4179 67.7809 51.1791 67.7809C39.9396 67.7809 30.829 58.6512 30.829 47.3904C30.829 36.1297 39.9396 27 51.1791 27C62.4179 27 71.5292 36.1297 71.5292 47.3904Z" fill="#FED756"/>
<path d="M74.8179 40.6509C69.3334 46.2798 60.8617 47.3655 53.363 46.9732C43.6724 46.3464 33.1914 43.8889 24.6056 49.8266C22.5234 51.1446 20.6438 52.7997 19 54.7162C20.2493 52.515 21.9845 50.5773 23.9767 48.9548C39.0229 36.6331 58.7554 51.9676 74.8179 40.6509Z" fill="#007DBB"/>
<path d="M75.959 42.2596C71.1339 48.4644 62.8342 50.4878 55.3384 50.9333C45.6386 51.3901 34.9493 50.1153 27.076 56.973C25.1532 58.5155 23.469 60.3696 22.0483 62.4575C23.0448 60.1302 24.5547 58.0119 26.3543 56.1769C39.9402 42.2554 61.252 55.2966 75.959 42.2596Z" fill="#007DBB"/>
<path d="M77 43.7452C72.8689 50.4344 64.8355 53.3402 57.4311 54.5917C47.836 56.0917 37.0725 55.977 29.981 63.6435C28.2353 65.3843 26.76 67.4091 25.5709 69.6379C26.3124 67.2172 27.5865 64.9473 29.1786 62.9296C41.1894 47.6242 63.7789 58.2914 77 43.7452Z" fill="#007DBB"/>
</svg>
