<svg width="96" height="96" viewBox="0 0 96 96" fill="none" xmlns="http://www.w3.org/2000/svg">
<circle cx="48" cy="48" r="47" fill="white" stroke="white" stroke-width="2"/>
<g clip-path="url(#clip0_1_9527)">
<path fill-rule="evenodd" clip-rule="evenodd" d="M69.3435 53.9165C69.207 53.8183 69.0558 53.7708 68.8851 53.7708C68.4435 53.7708 68.0821 54.1196 68.0821 54.5458C68.0821 54.9678 68.4502 55.3091 68.8851 55.3091C69.0477 55.3091 69.211 55.256 69.3435 55.163V54.9579C69.2214 55.0759 69.0524 55.1551 68.8784 55.1551C68.5338 55.1551 68.2541 54.8669 68.2541 54.5399C68.2541 54.2123 68.5318 53.9241 68.8741 53.9241C69.0521 53.9241 69.2214 53.9994 69.3435 54.1216V53.9185V53.9165ZM70.692 54.6307H70.7348L71.1999 55.2835H71.41L70.9202 54.6169C71.1571 54.5973 71.3063 54.4351 71.3063 54.2064C71.3063 53.8713 71.0346 53.7963 70.7428 53.7963H70.5203V55.2835H70.692V54.6307ZM70.692 53.9499H70.7428C70.949 53.9499 71.1343 53.9735 71.1343 54.2186C71.1343 54.4492 70.9386 54.4846 70.7448 54.4846H70.692V53.9473V53.9499ZM72.5135 55.2832H73.3116V55.1293H72.6849V54.5461H73.2932V54.3922H72.6849V53.9499H73.3116V53.796H72.5135M74.6617 55.1293V53.9499H74.7862C74.9678 53.9499 75.1228 53.9729 75.2636 54.0941C75.3975 54.2064 75.4644 54.3702 75.4644 54.5396C75.4644 54.7054 75.4008 54.8606 75.2737 54.9753C75.1331 55.104 74.9759 55.1293 74.7885 55.1293H74.6647H74.6617ZM74.4904 55.2832H74.7758C75.0167 55.2832 75.2007 55.2537 75.3841 55.0958C75.5547 54.9501 75.635 54.7584 75.635 54.5422C75.635 54.3208 75.5581 54.1216 75.3807 53.9755C75.2 53.8258 75.0127 53.7963 74.7818 53.7963H74.494V55.2835L74.4904 55.2832Z" fill="#DD941A"/>
<mask id="mask0_1_9527" style="mask-type:luminance" maskUnits="userSpaceOnUse" x="4" y="39" width="88" height="19">
<path d="M4 57.9286H91.9632V39H4V57.9286Z" fill="#DD941A"/>
</mask>
<g mask="url(#mask0_1_9527)">
<path fill-rule="evenodd" clip-rule="evenodd" d="M76.765 55.2834H76.9614V53.7961H76.765" fill="#DD941A"/>
</g>
<mask id="mask1_1_9527" style="mask-type:luminance" maskUnits="userSpaceOnUse" x="4" y="39" width="88" height="19">
<path d="M4 57.9286H91.9632V39H4V57.9286Z" fill="#DD941A"/>
</mask>
<g mask="url(#mask1_1_9527)">
<path fill-rule="evenodd" clip-rule="evenodd" d="M78.543 53.9501H78.9188V53.7961H78.0003V53.9501H78.3717V55.2834H78.543" fill="#DD941A"/>
</g>
<mask id="mask2_1_9527" style="mask-type:luminance" maskUnits="userSpaceOnUse" x="4" y="39" width="88" height="19">
<path d="M4 57.9286H91.9632V39H4V57.9286Z" fill="#DD941A"/>
</mask>
<g mask="url(#mask2_1_9527)">
<path fill-rule="evenodd" clip-rule="evenodd" d="M81.6635 53.7964H81.4922V54.7274C81.4922 54.8967 81.5083 55.033 81.6428 55.1572C81.7472 55.2561 81.8961 55.3092 82.0409 55.3092C82.1962 55.3092 82.3488 55.2502 82.4552 55.1395C82.5776 55.0173 82.5897 54.8892 82.5897 54.7274V53.7964H82.4184V54.6819C82.4184 54.7998 82.4251 54.9308 82.3431 55.0258C82.2695 55.111 82.149 55.1601 82.0386 55.1601C81.9248 55.1601 81.7943 55.111 81.7274 55.0193C81.6538 54.9243 81.6605 54.7998 81.6605 54.6884V53.8006L81.6635 53.7964Z" fill="#DD941A"/>
</g>
<mask id="mask3_1_9527" style="mask-type:luminance" maskUnits="userSpaceOnUse" x="4" y="39" width="88" height="19">
<path d="M4 57.9286H91.9632V39H4V57.9286Z" fill="#DD941A"/>
</mask>
<g mask="url(#mask3_1_9527)">
<path fill-rule="evenodd" clip-rule="evenodd" d="M83.7909 55.2834H83.9622V54.1378L85.1621 55.3505V53.7965H84.9908V54.9483L83.7909 53.7329" fill="#DD941A"/>
</g>
<mask id="mask4_1_9527" style="mask-type:luminance" maskUnits="userSpaceOnUse" x="4" y="39" width="88" height="19">
<path d="M4 57.9286H91.9632V39H4V57.9286Z" fill="#DD941A"/>
</mask>
<g mask="url(#mask4_1_9527)">
<path fill-rule="evenodd" clip-rule="evenodd" d="M86.3744 55.2834H86.5708V53.7961H86.3744" fill="#DD941A"/>
</g>
<mask id="mask5_1_9527" style="mask-type:luminance" maskUnits="userSpaceOnUse" x="4" y="39" width="88" height="19">
<path d="M4 57.9286H91.9632V39H4V57.9286Z" fill="#DD941A"/>
</mask>
<g mask="url(#mask5_1_9527)">
<path fill-rule="evenodd" clip-rule="evenodd" d="M88.4686 53.9249C88.8216 53.9249 89.0993 54.2027 89.0993 54.5401C89.0993 54.8752 88.8183 55.1553 88.4703 55.1553C88.1223 55.1553 87.8413 54.8752 87.8413 54.5401C87.8413 54.2027 88.119 53.9242 88.4736 53.9242M88.4736 53.7703C88.0353 53.7703 87.674 54.1159 87.674 54.5421C87.674 54.9699 88.0387 55.3093 88.477 55.3093C88.9153 55.3093 89.28 54.9699 89.28 54.5421C89.28 54.1162 88.9187 53.7706 88.4803 53.7706" fill="#DD941A"/>
</g>
<mask id="mask6_1_9527" style="mask-type:luminance" maskUnits="userSpaceOnUse" x="4" y="39" width="88" height="19">
<path d="M4 57.9286H91.9632V39H4V57.9286Z" fill="#DD941A"/>
</mask>
<g mask="url(#mask6_1_9527)">
<path fill-rule="evenodd" clip-rule="evenodd" d="M90.4006 55.2834H90.5719V54.1378L91.7718 55.3505V53.7965H91.6005V54.9483L90.4006 53.7329" fill="#DD941A"/>
</g>
<mask id="mask7_1_9527" style="mask-type:luminance" maskUnits="userSpaceOnUse" x="4" y="39" width="88" height="19">
<path d="M4 57.9286H91.9632V39H4V57.9286Z" fill="#DD941A"/>
</mask>
<g mask="url(#mask7_1_9527)">
<path fill-rule="evenodd" clip-rule="evenodd" d="M11.493 47.7538L8.29761 48.2864L7.74652 51.3756L7.19544 48.2864L4 47.7538L7.19544 47.2215L7.74652 44.1323L8.29761 47.2215" fill="#DD941A"/>
</g>
<mask id="mask8_1_9527" style="mask-type:luminance" maskUnits="userSpaceOnUse" x="4" y="39" width="88" height="19">
<path d="M4 57.9286H91.9632V39H4V57.9286Z" fill="#221F20"/>
</mask>
<g mask="url(#mask8_1_9527)">
<path fill-rule="evenodd" clip-rule="evenodd" d="M35.0453 48.4018C35.0453 50.0987 35.5024 50.9131 36.0916 51.4595C36.9458 52.2385 38.1608 52.285 38.5696 52.285C39.279 52.285 40.1811 52.1684 41.0474 51.4244C42.011 50.5989 42.1549 49.2034 42.1549 47.9481V46.7042C42.1549 44.8904 42.1549 44.5651 42.1783 44.193C42.2051 43.7861 42.2988 43.5882 42.6233 43.5303C42.7705 43.4942 42.8408 43.4942 42.9245 43.4942C42.9747 43.4942 43.0215 43.4713 43.0215 43.4254C43.0215 43.3534 42.9613 43.3304 42.8308 43.3304C42.4728 43.3304 41.9073 43.3632 41.8203 43.3632C41.75 43.3632 41.0875 43.3272 40.5455 43.3272C40.415 43.3272 40.3547 43.3501 40.3547 43.4189C40.3547 43.4647 40.4049 43.4877 40.4518 43.4877C40.5622 43.4877 40.7663 43.4975 40.8633 43.5204C41.2615 43.5991 41.3552 43.7858 41.382 44.1822C41.4054 44.5523 41.4054 44.8799 41.4054 46.6915V48.1427C41.4054 49.3384 41.2615 50.3277 40.7094 50.9894C40.2778 51.4873 39.555 51.8247 38.8223 51.8247C38.1363 51.8247 37.5976 51.7199 37.0054 51.1859C36.4901 50.7109 36.1053 49.9883 36.1053 48.314V46.6983C36.1053 44.8852 36.1053 44.5592 36.1321 44.1877C36.1555 43.7815 36.2525 43.5719 36.5771 43.525C36.721 43.5014 36.7946 43.4896 36.8782 43.4896C36.9251 43.4896 36.9753 43.4667 36.9753 43.4192C36.9753 43.3498 36.915 43.3265 36.7839 43.3265C36.4225 43.3265 35.6998 43.3612 35.5927 43.3612C35.4836 43.3612 34.7495 43.3262 34.2088 43.3262C34.0766 43.3262 34.0167 43.3491 34.0167 43.4192C34.0167 43.4651 34.0642 43.489 34.1138 43.489C34.2208 43.489 34.4249 43.5011 34.522 43.5244C34.9201 43.6063 35.0145 43.793 35.0386 44.1894C35.0637 44.5628 35.0637 44.8871 35.0637 46.7019V48.3988L35.0453 48.4018Z" fill="#221F20"/>
</g>
<mask id="mask9_1_9527" style="mask-type:luminance" maskUnits="userSpaceOnUse" x="4" y="39" width="88" height="19">
<path d="M4 57.9286H91.9632V39H4V57.9286Z" fill="#221F20"/>
</mask>
<g mask="url(#mask9_1_9527)">
<path fill-rule="evenodd" clip-rule="evenodd" d="M46.1965 48.274C46.1607 48.274 46.137 48.2504 46.1607 48.1921L47.2194 45.0532C47.2796 44.8789 47.3399 44.8789 47.4001 45.0532L48.5424 48.1924C48.5558 48.2416 48.5558 48.2743 48.4956 48.2743H46.2002L46.1965 48.274ZM44.5128 50.8433C44.2963 51.4244 44.0558 51.8663 43.5023 51.9361C43.4063 51.9459 43.238 51.959 43.1537 51.959C43.0934 51.959 43.0456 51.9819 43.0456 52.0278C43.0456 52.0966 43.1179 52.1195 43.2741 52.1195C43.8396 52.1195 44.5011 52.0835 44.6333 52.0835C44.7654 52.0835 45.2824 52.1163 45.5715 52.1163C45.6796 52.1163 45.7522 52.0933 45.7522 52.0213C45.7522 51.9721 45.7154 51.9492 45.6317 51.9492H45.5113C45.3072 51.9492 45.0542 51.8444 45.0542 51.6118C45.0542 51.4021 45.1144 51.1237 45.2225 50.8321L45.9419 48.7716C45.9653 48.7126 46.0021 48.6766 46.0624 48.6766H48.6488C48.709 48.6766 48.7325 48.6995 48.7559 48.7454L49.8735 51.6052C49.9437 51.7919 49.8735 51.8968 49.7998 51.9197C49.7497 51.9295 49.7162 51.9525 49.7162 51.9983C49.7162 52.0678 49.8467 52.0678 50.0776 52.0802C50.9074 52.1032 51.784 52.1032 51.9647 52.1032C52.0952 52.1032 52.2056 52.0802 52.2056 52.0114C52.2056 51.9525 52.1554 51.94 52.0852 51.94C51.9647 51.94 51.784 51.9286 51.6033 51.8712C51.349 51.8001 51.0011 51.6157 50.5661 50.5805C49.8333 48.8116 47.9428 44.0105 47.7621 43.5702C47.6182 43.2098 47.5681 43.1509 47.4978 43.1509C47.4242 43.1509 47.3773 43.2197 47.2335 43.6036L44.4998 50.8236L44.5128 50.8433Z" fill="#221F20"/>
</g>
<mask id="mask10_1_9527" style="mask-type:luminance" maskUnits="userSpaceOnUse" x="4" y="39" width="88" height="19">
<path d="M4 57.9286H91.9632V39H4V57.9286Z" fill="#221F20"/>
</mask>
<g mask="url(#mask10_1_9527)">
<path fill-rule="evenodd" clip-rule="evenodd" d="M54.9446 46.7041C54.9446 44.8902 54.9446 44.565 54.9687 44.1928C54.9928 43.786 55.0892 43.5881 55.4378 43.5301C55.5817 43.5039 55.749 43.4941 55.8326 43.4941C55.8795 43.4941 55.9297 43.4711 55.9297 43.422C55.9297 43.3499 55.8695 43.327 55.7356 43.327C55.3742 43.327 54.4942 43.3598 54.4374 43.3598C54.3771 43.3598 53.6176 43.3237 53.0755 43.3237C52.9417 43.3237 52.8815 43.3467 52.8815 43.4155C52.8815 43.4613 52.9283 43.4842 52.9785 43.4842C53.0856 43.4842 53.2897 43.4941 53.3867 43.517C53.7849 43.5956 53.8786 43.7824 53.902 44.1787C53.9254 44.5489 53.9254 44.8765 53.9254 46.688V48.7322C53.9254 49.846 53.9254 50.7665 53.8652 51.2546C53.815 51.592 53.7548 51.8475 53.5172 51.8934C53.4068 51.9163 53.2629 51.9392 53.1558 51.9392C53.0822 51.9392 53.0588 51.9753 53.0588 52.008C53.0588 52.0768 53.119 52.0998 53.2495 52.0998C53.6109 52.0998 54.3203 52.0637 54.4273 52.0637C55.1233 52.0637 55.9196 52.1325 57.6495 52.1325C58.2853 52.1325 58.3221 52.0854 58.4057 51.818C58.5028 51.4806 58.5864 50.7829 58.5864 50.6551C58.5864 50.5274 58.573 50.4815 58.5128 50.4815C58.4409 50.4815 58.4171 50.5391 58.4047 50.6322C58.3713 50.853 58.2508 51.1432 58.0935 51.3299C57.8058 51.6674 57.2761 51.6785 56.638 51.6785C55.7011 51.6785 55.3866 51.5966 55.1959 51.4099C54.9784 51.2002 54.9316 50.4566 54.9316 48.7466V46.6982L54.9446 46.7041Z" fill="#221F20"/>
</g>
<mask id="mask11_1_9527" style="mask-type:luminance" maskUnits="userSpaceOnUse" x="4" y="39" width="88" height="19">
<path d="M4 57.9286H91.9632V39H4V57.9286Z" fill="#221F20"/>
</mask>
<g mask="url(#mask11_1_9527)">
<path fill-rule="evenodd" clip-rule="evenodd" d="M70.1071 43.8325L71.6221 43.8554C72.7765 43.879 73.0536 44.1463 73.1017 44.4952L73.1138 44.6229C73.1258 44.7857 73.1499 44.8205 73.2098 44.8205C73.258 44.8205 73.2941 44.774 73.2941 44.6698C73.2941 44.5414 73.3303 43.7394 73.3303 43.3906C73.3303 43.3208 73.3303 43.251 73.27 43.251C73.174 43.251 72.8491 43.3673 72.0789 43.3673H67.5684C67.4246 43.3673 66.9672 43.3444 66.6182 43.309C66.2936 43.2861 66.1732 43.1694 66.0895 43.1694C66.0413 43.1694 65.9931 43.3208 65.969 43.3906C65.945 43.4836 65.7047 44.4834 65.7047 44.5993C65.7047 44.6695 65.7281 44.7042 65.7649 44.7042C65.8125 44.7042 65.8486 44.6812 65.8847 44.5879C65.9215 44.5066 65.9583 44.4251 66.0922 44.2275C66.2862 43.9484 66.574 43.8672 67.3202 43.8557L69.1002 43.8328V48.7499C69.1002 49.8663 69.1002 50.7848 69.04 51.2733C68.9932 51.6107 68.9329 51.8662 68.692 51.9127C68.585 51.9356 68.4411 51.9592 68.3307 51.9592C68.2604 51.9592 68.237 51.994 68.237 52.029C68.237 52.0988 68.2972 52.1217 68.431 52.1217C68.7924 52.1217 69.552 52.087 69.6122 52.087C69.6724 52.087 70.4286 52.1217 71.0911 52.1217C71.225 52.1217 71.2852 52.087 71.2852 52.029C71.2852 51.994 71.2618 51.9592 71.1881 51.9592C71.0811 51.9592 70.8167 51.9363 70.6494 51.9127C70.2881 51.8662 70.2178 51.6103 70.181 51.2733C70.1208 50.7852 70.1208 49.8663 70.1208 48.7502V43.8325H70.1071Z" fill="#221F20"/>
</g>
<mask id="mask12_1_9527" style="mask-type:luminance" maskUnits="userSpaceOnUse" x="4" y="39" width="88" height="19">
<path d="M4 57.9286H91.9632V39H4V57.9286Z" fill="#221F20"/>
</mask>
<g mask="url(#mask12_1_9527)">
<path fill-rule="evenodd" clip-rule="evenodd" d="M76.0021 48.274C75.966 48.274 75.9419 48.2504 75.966 48.1921L77.0243 45.0532C77.0845 44.8789 77.1448 44.8789 77.205 45.0532L78.3476 48.1924C78.3597 48.2416 78.3597 48.2743 78.2995 48.2743H76.0021V48.274ZM74.3181 50.8433C74.1016 51.4244 73.861 51.8663 73.3076 51.9361C73.2115 51.9459 73.0432 51.959 72.9589 51.959C72.8987 51.959 72.8508 51.9819 72.8508 52.0278C72.8508 52.0966 72.9228 52.1195 73.079 52.1195C73.6445 52.1195 74.306 52.0835 74.4385 52.0835C74.5707 52.0835 75.0876 52.1163 75.3764 52.1163C75.4848 52.1163 75.5571 52.0933 75.5571 52.0213C75.5571 51.9721 75.5209 51.9492 75.4366 51.9492H75.3162C75.1121 51.9492 74.8594 51.8444 74.8594 51.6118C74.8594 51.4021 74.9197 51.1237 75.0277 50.8321L75.7495 48.7716C75.7736 48.7126 75.8097 48.6766 75.8699 48.6766H78.4557C78.516 48.6766 78.5427 48.6995 78.5661 48.7454L79.6871 51.6052C79.7607 51.7919 79.6871 51.8968 79.6168 51.9197C79.5699 51.9295 79.5331 51.9525 79.5331 51.9983C79.5331 52.0678 79.667 52.0678 79.8945 52.0802C80.7243 52.1032 81.6043 52.1032 81.785 52.1032C81.9188 52.1032 82.0259 52.0802 82.0259 52.0114C82.0259 51.9525 81.9791 51.94 81.9055 51.94C81.785 51.94 81.6043 51.9286 81.4236 51.8712C81.1727 51.8001 80.8247 51.6157 80.3897 50.5805C79.6569 48.8116 77.7698 44.0105 77.5891 43.5702C77.4452 43.2098 77.3984 43.1509 77.3248 43.1509C77.2545 43.1509 77.2043 43.2197 77.0604 43.6036L74.3301 50.8236L74.3181 50.8433Z" fill="#221F20"/>
</g>
<mask id="mask13_1_9527" style="mask-type:luminance" maskUnits="userSpaceOnUse" x="4" y="39" width="88" height="19">
<path d="M4 57.9286H91.9632V39H4V57.9286Z" fill="#221F20"/>
</mask>
<g mask="url(#mask13_1_9527)">
<path fill-rule="evenodd" clip-rule="evenodd" d="M84.8282 43.9137C84.8282 43.844 84.8643 43.7974 84.9245 43.7742C85.045 43.7395 85.3695 43.7044 85.7302 43.7044C87.0175 43.7044 87.8115 44.5791 87.8115 46.0303C87.8115 46.9148 87.4986 47.5437 87.0773 47.8222C86.801 48.0089 86.464 48.0449 86.1756 48.0449C85.6463 48.0449 85.0928 47.963 84.9125 47.8615C84.8523 47.8287 84.8282 47.7796 84.8282 47.7239V43.9137ZM83.8659 48.7502C83.8659 49.8663 83.8658 50.7845 83.8056 51.2733C83.7578 51.6107 83.6975 51.8662 83.457 51.9127C83.3489 51.9357 83.2043 51.9593 83.0963 51.9593C83.024 51.9593 82.9999 51.994 82.9999 52.029C82.9999 52.0988 83.0601 52.1217 83.1926 52.1217C83.5533 52.1217 84.3109 52.087 84.3229 52.087C84.3831 52.087 85.141 52.1217 85.8025 52.1217C85.9347 52.1217 85.9949 52.087 85.9949 52.029C85.9949 51.994 85.9708 51.9593 85.8989 51.9593C85.7905 51.9593 85.5258 51.9363 85.3575 51.9127C84.9961 51.8662 84.9245 51.6104 84.8884 51.2733C84.8282 50.7852 84.8282 49.8663 84.8282 48.7502V48.4711C84.8282 48.4131 84.8523 48.3781 84.9125 48.3781L86.3921 48.4017C86.464 48.4017 86.5002 48.4246 86.5483 48.4711C86.7893 48.7735 87.3541 49.5522 87.8593 50.1919C88.5452 51.064 88.9658 51.6333 89.4831 51.9009C89.796 52.0638 90.0968 52.1217 90.77 52.1217H91.6242C91.8407 52.1217 91.9127 52.0988 91.9127 52.029C91.9127 51.994 91.8625 51.9593 91.8022 51.9593C91.7286 51.9593 91.5613 51.9593 91.3338 51.9242C91.0327 51.8777 90.514 51.7499 89.8649 51.0872C89.1656 50.3665 88.3492 49.3314 87.3621 48.1108C88.4429 47.146 88.8176 46.2855 88.8176 45.4252C88.8176 44.6226 88.2889 44.0533 87.9878 43.844C87.3487 43.4017 86.5423 43.3323 85.7861 43.3323C85.4114 43.3323 84.4979 43.3673 84.3641 43.3673C84.3038 43.3673 83.5443 43.3323 83.0056 43.3323C82.8718 43.3323 82.8115 43.3552 82.8115 43.4253C82.8115 43.4712 82.8584 43.4941 82.9086 43.4941C83.0156 43.4941 83.2197 43.5039 83.3168 43.5269C83.7116 43.6055 83.8086 43.7922 83.8321 44.1886C83.8555 44.5588 83.8555 44.8863 83.8555 46.6979V48.742L83.8659 48.7502Z" fill="#221F20"/>
</g>
<mask id="mask14_1_9527" style="mask-type:luminance" maskUnits="userSpaceOnUse" x="4" y="39" width="88" height="19">
<path d="M4 57.9286H91.9632V39H4V57.9286Z" fill="#221F20"/>
</mask>
<g mask="url(#mask14_1_9527)">
<path fill-rule="evenodd" clip-rule="evenodd" d="M61.5627 52.1887C62.2701 52.1887 62.9774 52.0364 63.5402 51.6567C64.4446 51.0363 64.6544 50.0738 64.6544 49.5549C64.6544 48.542 64.2874 47.7571 62.7415 46.5795L62.3748 46.301C61.1435 45.3261 60.7787 44.8957 60.7787 44.174C60.7787 43.2496 61.4881 42.7051 62.3915 42.7051C63.5961 42.7051 63.9508 43.2371 64.0311 43.3767C64.1114 43.5156 64.1883 43.8576 64.2017 44.0089C64.2151 44.1104 64.2285 44.174 64.3054 44.174C64.3724 44.174 64.3991 44.0856 64.3991 43.8824C64.3991 43.0216 64.4527 42.6039 64.4527 42.5407C64.4527 42.4774 64.4259 42.4522 64.3222 42.4522C64.2184 42.4522 64.1147 42.4391 63.8638 42.3887C63.5359 42.3127 63.1578 42.2622 62.6458 42.2622C60.9829 42.2622 59.9356 43.186 59.9356 44.5412C59.9356 45.4021 60.2501 46.187 61.6387 47.2887L62.2276 47.7571C63.3552 48.656 63.7366 49.1625 63.7366 50.0362C63.7366 50.8453 63.121 51.7199 61.8629 51.7199C60.9862 51.7199 60.1229 51.3629 59.9255 50.426C59.8887 50.2491 59.8887 50.0689 59.8887 49.9575C59.8887 49.856 59.8753 49.8167 59.7984 49.8167C59.7314 49.8167 59.7067 49.8789 59.6936 50.0198C59.6803 50.2196 59.6287 50.7274 59.6287 51.3596C59.6287 51.7003 59.6421 51.7527 59.8245 51.8412C60.3622 52.0934 60.9644 52.1818 61.5801 52.1818" fill="#221F20"/>
</g>
<mask id="mask15_1_9527" style="mask-type:luminance" maskUnits="userSpaceOnUse" x="4" y="39" width="88" height="19">
<path d="M4 57.9286H91.9632V39H4V57.9286Z" fill="#221F20"/>
</mask>
<g mask="url(#mask15_1_9527)">
<path fill-rule="evenodd" clip-rule="evenodd" d="M20.371 39.0033C25.3225 39.0813 32.3531 42.2169 32.3531 47.7882C32.3531 49.6915 31.3714 51.9243 28.8174 53.6841C29.2985 53.8895 35.3796 56.8954 40.8556 56.4031C44.0628 56.1148 45.3681 55.4301 46.6656 54.5719C46.8229 54.5214 47.027 54.4562 47.1642 54.5889C47.3302 54.7494 47.199 55.0452 47.199 55.0452C45.4055 56.4751 42.8478 57.4644 39.5567 57.812C32.3012 58.5786 26.9088 55.3217 26.1014 55.1815C25.7936 55.1284 23.273 56.3428 19.3803 56.3893C15.8482 56.4319 12.531 55.306 10.074 53.5937C11.2308 54.4094 14.8956 56.1325 19.1156 55.7132C24.1607 55.212 29.3912 52.5782 29.4069 47.7495C29.423 43.0094 24.3521 39.9759 19.0176 39.6909C15.5946 39.5042 12.6685 40.3199 10.4003 41.6597C12.7542 40.0021 15.5665 38.9276 20.3714 39.003" fill="#221F20"/>
</g>
<mask id="mask16_1_9527" style="mask-type:luminance" maskUnits="userSpaceOnUse" x="4" y="39" width="88" height="19">
<path d="M4 57.9286H91.9632V39H4V57.9286Z" fill="#221F20"/>
</mask>
<g mask="url(#mask16_1_9527)">
<path fill-rule="evenodd" clip-rule="evenodd" d="M90.9587 44.0945H91.0524C91.1618 44.0945 91.2498 44.0595 91.2498 43.9733C91.2498 43.898 91.1929 43.8479 91.0681 43.8479C91.0159 43.8479 90.9794 43.8511 90.9587 43.8577V44.0935V44.0945ZM90.9534 44.5574H90.7559V43.7319C90.8336 43.7221 90.9433 43.707 91.0838 43.707C91.2451 43.707 91.3181 43.7299 91.3749 43.7725C91.4271 43.8053 91.4636 43.8675 91.4636 43.9461C91.4636 44.0444 91.3857 44.1099 91.2863 44.1427V44.1525C91.3699 44.1787 91.4114 44.2442 91.4375 44.3523C91.4609 44.4768 91.4844 44.5227 91.4977 44.5522H91.2903C91.2635 44.5227 91.2468 44.4506 91.2234 44.3491C91.2066 44.2639 91.1531 44.2246 91.046 44.2246H90.9523V44.5522L90.9534 44.5574ZM90.428 44.1296C90.428 44.4965 90.7141 44.788 91.0939 44.788C91.4636 44.7913 91.7447 44.4965 91.7447 44.1329C91.7447 43.766 91.4636 43.4679 91.0835 43.4679C90.7154 43.4679 90.4277 43.7627 90.4277 44.1263L90.428 44.1296ZM91.9638 44.1296C91.9638 44.5915 91.5781 44.9584 91.0889 44.9584C90.5993 44.9584 90.2089 44.5915 90.2089 44.1263C90.2089 43.6611 90.5993 43.3008 91.0942 43.3008C91.578 43.3008 91.9635 43.6611 91.9635 44.1263L91.9638 44.1296Z" fill="#221F20"/>
</g>
</g>
<defs>
<clipPath id="clip0_1_9527">
<rect width="88" height="19" fill="white" transform="translate(4 39)"/>
</clipPath>
</defs>
</svg>
