<svg width="96" height="96" viewBox="0 0 96 96" fill="none" xmlns="http://www.w3.org/2000/svg">
<circle cx="48" cy="48" r="47" fill="white" stroke="white" stroke-width="2"/>
<path d="M37.3996 36.0001H33.2242C33.0675 35.9971 32.9161 36.0563 32.803 36.1648C32.69 36.2732 32.6245 36.4221 32.621 36.5787V51.2004C32.621 53.3786 30.7779 55.1457 28.5059 55.1457C26.2339 55.1457 24.3976 53.3786 24.3976 51.2004H24.3842V36.581C24.3806 36.4247 24.3155 36.2762 24.2029 36.1678C24.0903 36.0594 23.9395 35.9999 23.7832 36.0023H19.6056C19.5279 36.0006 19.4507 36.0141 19.3783 36.0423C19.306 36.0704 19.2398 36.1126 19.1838 36.1664C19.1278 36.2201 19.0829 36.2844 19.0518 36.3556C19.0206 36.4267 19.0039 36.5033 19.0024 36.581V51.3702C18.9992 51.3871 18.9992 51.4046 19.0024 51.4216C19.1253 56.3543 23.3208 60.3197 28.4903 60.3197C33.6598 60.3197 37.8687 56.3543 37.9916 51.4149C37.9916 51.3992 37.9916 51.3791 37.9916 51.3635V36.581C37.9904 36.5038 37.9741 36.4276 37.9435 36.3568C37.9128 36.2859 37.8686 36.2218 37.8132 36.1681C37.7578 36.1144 37.6924 36.0721 37.6206 36.0436C37.5489 36.0152 37.4723 36.0012 37.3951 36.0023" fill="#00467F"/>
<path d="M76.4166 36H60.5104C60.4326 36.0015 60.3559 36.0182 60.2847 36.0493C60.2134 36.0804 60.149 36.1253 60.095 36.1813C60.0411 36.2373 59.9987 36.3034 59.9703 36.3758C59.9419 36.4482 59.9281 36.5254 59.9296 36.6032V40.8165C59.9281 40.8942 59.9419 40.9714 59.9704 41.0436C59.9988 41.1159 60.0412 41.1818 60.0952 41.2377C60.1491 41.2935 60.2136 41.3381 60.2848 41.369C60.3561 41.3999 60.4327 41.4163 60.5104 41.4175H65.0231V51.9889C65.0231 55.6348 67.5788 58.959 71.0349 60.2838C71.1794 60.34 71.3401 60.3382 71.4834 60.2786C71.6266 60.2191 71.7413 60.1065 71.8034 59.9643L73.4387 56.2023C73.4675 56.1343 73.4819 56.0612 73.4812 55.9874C73.4804 55.9137 73.4644 55.8408 73.4342 55.7735C73.404 55.7062 73.3603 55.6459 73.3057 55.5962C73.2511 55.5466 73.1869 55.5088 73.117 55.4851C72.3419 55.2181 71.6683 54.718 71.1884 54.0533C70.7085 53.3887 70.4458 52.5919 70.4362 51.7722V41.4175H76.4166C76.5738 41.4146 76.7235 41.3494 76.8328 41.2364C76.9421 41.1233 77.0021 40.9715 76.9997 40.8143V36.601C77.0009 36.5232 76.9867 36.446 76.9581 36.3737C76.9294 36.3014 76.8868 36.2355 76.8326 36.1797C76.7785 36.1239 76.7139 36.0793 76.6425 36.0485C76.5711 36.0176 76.4944 36.0012 76.4166 36Z" fill="#00467F"/>
<path d="M50.8168 55.1658C47.3473 55.1658 46.3867 53.4344 46.3867 52.2951C46.3867 51.7835 46.3867 48.9641 46.3867 48.9641H50.5621C51.755 48.9641 54.7888 49.2903 54.7888 51.8795C54.7888 53.0948 53.9868 55.1658 50.8123 55.1658M50.5688 40.915C51.7662 40.915 53.0262 41.6567 53.0262 42.7402C53.0262 44.3621 51.831 44.8089 50.5688 44.8089H46.3912V40.915H50.5688ZM57.4652 45.9862C57.9366 45.03 58.3789 44.0202 58.3789 42.8429C58.3794 41.9689 58.1954 41.1046 57.8389 40.3065C57.4824 39.5085 56.9615 38.7947 56.3102 38.2118C54.5409 36.648 52.5638 36.0001 49.4875 36.0001H41.6193C41.463 35.9971 41.3119 36.056 41.1989 36.164C41.0859 36.272 41.0202 36.4202 41.0161 36.5765V52.0381C41.0161 56.0437 43.5986 60.3197 50.8011 60.3197C53.7858 60.3197 56.3303 59.3345 58.0125 57.507C59.42 55.8896 60.1326 54.1359 60.1326 52.2951C60.1326 49.192 58.9888 47.0205 57.4697 45.9839" fill="#00467F"/>
</svg>
