<svg width="96" height="96" viewBox="0 0 96 96" fill="none" xmlns="http://www.w3.org/2000/svg">
<circle cx="48" cy="48" r="47" fill="white" stroke="white" stroke-width="2"/>
<g clip-path="url(#clip0_1_7384)">
<path d="M19.449 72.3598L26.7122 29.6258C56.3196 29.5993 77.1056 48.6422 73.091 72.307L19.449 72.3598Z" fill="#5B823A"/>
<path d="M27.3725 35.1192V35.7795C41.6084 35.7531 54.1275 41.2467 60.8625 50.438C65.2204 56.407 66.8843 63.4589 65.6166 70.8278L66.1976 70.9599C67.4918 63.3797 65.8015 56.1429 61.3115 50.0154C54.4709 40.6657 41.7933 35.0928 27.3725 35.1192Z" fill="#172952"/>
<path d="M28.7723 24.1584L20.796 71.0127L31.5191 63.01L28.7723 24.1584Z" fill="#FFD140"/>
<path d="M76.4981 70.96L20.796 71.0128L31.9153 62.6931L76.4981 70.96Z" fill="#EFE3B1"/>
<path d="M20.796 71.0128L57.9572 43.2278L22.592 60.5802L20.796 71.0128Z" fill="#EFE3B1"/>
<path d="M20.796 71.0128L57.9307 43.2542L33.7113 71.0128H20.796Z" fill="#FFD140"/>
</g>
<defs>
<clipPath id="clip0_1_7384">
<rect width="58" height="48.4918" fill="white" transform="translate(19 24)"/>
</clipPath>
</defs>
</svg>
