<svg width="96" height="96" viewBox="0 0 96 96" fill="none" xmlns="http://www.w3.org/2000/svg">
<circle cx="48" cy="48" r="47" fill="white" stroke="white" stroke-width="2"/>
<path d="M48 77C64.0163 77 77 64.0163 77 48C77 31.9837 64.0163 19 48 19C31.9837 19 19 31.9837 19 48C19 64.0163 31.9837 77 48 77Z" fill="#FFB600"/>
<mask id="mask0_1_6595" style="mask-type:luminance" maskUnits="userSpaceOnUse" x="19" y="19" width="58" height="58">
<path d="M48 77C64.0163 77 77 64.0163 77 48C77 31.9837 64.0163 19 48 19C31.9837 19 19 31.9837 19 48C19 64.0163 31.9837 77 48 77Z" fill="white"/>
</mask>
<g mask="url(#mask0_1_6595)">
<path d="M61.1347 91.1748V46.9596C57.2334 46.9596 53.8522 48.5201 51.2513 51.121C48.7805 53.5919 47.0899 57.1031 47.0899 61.0044V77.3901C47.0899 84.9327 53.3321 91.1748 61.1347 91.1748Z" fill="url(#paint0_linear_1_6595)"/>
<path d="M88.5742 35.2557C88.5742 41.6279 83.3724 46.8297 77.0002 46.8297H61.1348C57.2334 46.8297 53.8523 48.3902 51.2514 50.9911C48.7805 53.462 47.0899 56.9732 47.0899 60.8745V46.9597C47.0899 39.2871 53.3321 33.0449 61.0047 33.0449H76.8702H88.4442L88.5742 35.2557Z" fill="#011E41"/>
<path d="M61.1345 32.9148H40.0673C32.3946 32.9148 26.1525 39.1569 26.1525 46.9596H61.0045L61.1345 32.9148Z" fill="#011E41"/>
</g>
<defs>
<linearGradient id="paint0_linear_1_6595" x1="54.0668" y1="46.9078" x2="54.0668" y2="91.2148" gradientUnits="userSpaceOnUse">
<stop stop-color="#FFB600"/>
<stop offset="0.0166732" stop-color="#ECAB05"/>
<stop offset="0.083405" stop-color="#A68117"/>
<stop offset="0.1464" stop-color="#6B5E26"/>
<stop offset="0.2039" stop-color="#3D4232"/>
<stop offset="0.2546" stop-color="#1C2E3A"/>
<stop offset="0.2969" stop-color="#08223F"/>
<stop offset="0.3254" stop-color="#011E41"/>
</linearGradient>
</defs>
</svg>
