<svg width="96" height="96" viewBox="0 0 96 96" fill="none" xmlns="http://www.w3.org/2000/svg">
<circle cx="48" cy="48" r="47" fill="white" stroke="white" stroke-width="2"/>
<g clip-path="url(#clip0_1_8595)">
<path d="M41.0627 31.0002H46.8949V57.0669H41.0627V31.0002ZM49.6785 31.0002H55.5107V57.0669H49.6785V31.0002ZM57.1012 38.1453H63.4642L67.3081 49.6573L71.1523 38.1453H77.5147L67.5735 64.3446H61.2104L64.2513 56.936L57.1012 38.1453ZM38.5101 47.7444C38.5101 46.3817 38.2728 45.0994 37.7982 43.8967C37.3236 42.6941 36.662 41.6518 35.8134 40.7692C34.9647 39.8863 33.9501 39.1844 32.7693 38.6632C31.5884 38.1421 30.2916 37.8814 28.8794 37.8814C22.7353 37.8814 19.0054 42.2259 19.0054 47.744C19.0054 53.1463 23.2542 57.3701 27.8054 57.4824L32.8406 51.9201L32.7587 51.7822V57.0912H38.5105L38.5101 47.7444ZM32.738 51.8036L28.776 51.8135C26.0603 51.8135 23.0584 47.9128 26.1201 44.8562C28.8368 42.1445 32.9071 44.3684 32.9071 48.1423L32.738 51.8036Z" fill="#3E0046"/>
</g>
<defs>
<clipPath id="clip0_1_8595">
<rect width="58.52" height="33.3447" fill="white" transform="translate(19 31)"/>
</clipPath>
</defs>
</svg>
