<svg width="96" height="96" viewBox="0 0 96 96" fill="none" xmlns="http://www.w3.org/2000/svg">
<circle cx="48" cy="48" r="47" fill="white" stroke="white" stroke-width="2"/>
<path d="M36.5906 63.4844C36.3021 63.4844 36.0095 63.4802 35.7125 63.4717L35.7443 62.3957C40.7436 62.5427 44.6115 61.3649 48.7046 60.1197C52.8653 58.8535 57.162 57.5441 62.9012 57.5995L62.891 58.6747C57.3147 58.6175 53.1007 59.9054 49.0171 61.148C45.0772 62.348 41.3417 63.4844 36.5906 63.4844Z" fill="black"/>
<path d="M40.9447 67.4158L40.7863 66.352C43.472 65.8968 46.1192 65.2374 48.7047 64.3796C52.1915 63.3189 55.7973 62.2207 60.2607 61.9312L60.3301 63.0052C55.9907 63.2864 52.4454 64.3655 49.0178 65.4084C46.381 66.2796 43.6824 66.9507 40.9447 67.4158Z" fill="black"/>
<path d="M63.1934 48.0426C61.2445 46.6727 60.0687 45.8468 58.128 45.8468C56.8771 45.8468 55.7586 46.4831 54.0648 47.4432L53.8408 47.5705V48.8055L54.5954 48.3792C56.195 47.4712 57.1615 46.9228 58.1274 46.9228C59.7283 46.9228 60.6795 47.5914 62.5743 48.9232C62.7809 49.0682 62.9987 49.2208 63.2278 49.3807L63.8424 48.4982L63.1934 48.0426Z" fill="black"/>
<path d="M63.4504 52.6167H32.5776V53.6926H63.4504V52.6167Z" fill="black"/>
<path d="M52.3786 53.3732C52.308 53.3732 52.2381 53.3593 52.1728 53.3323C52.1076 53.3053 52.0483 53.2656 51.9984 53.2157C51.9485 53.1658 51.9089 53.1066 51.8819 53.0414C51.8548 52.9761 51.8409 52.9062 51.8409 52.8356V51.1742C51.8409 51.0316 51.8976 50.8949 51.9984 50.794C52.0992 50.6932 52.236 50.6366 52.3786 50.6366C52.4493 50.6365 52.5192 50.6504 52.5845 50.6774C52.6498 50.7044 52.7092 50.7439 52.7592 50.7939C52.8092 50.8438 52.8488 50.9031 52.8759 50.9683C52.903 51.0336 52.9169 51.1036 52.9169 51.1742V52.8356C52.9169 52.9063 52.903 52.9762 52.8759 53.0414C52.8488 53.1067 52.8092 53.166 52.7592 53.216C52.7092 53.2659 52.6498 53.3055 52.5845 53.3325C52.5192 53.3594 52.4493 53.3733 52.3786 53.3732Z" fill="black"/>
<path d="M58.9723 53.3732C58.9017 53.3732 58.8318 53.3593 58.7666 53.3323C58.7014 53.3053 58.6421 53.2656 58.5922 53.2157C58.5422 53.1658 58.5026 53.1066 58.4756 53.0413C58.4486 52.9761 58.4347 52.9062 58.4347 52.8356V51.1742C58.4347 51.0316 58.4913 50.8949 58.5922 50.794C58.693 50.6932 58.8298 50.6366 58.9723 50.6366C59.1149 50.6366 59.2517 50.6932 59.3525 50.794C59.4534 50.8949 59.51 51.0316 59.51 51.1742V52.8356C59.51 52.9062 59.4961 52.9761 59.4691 53.0413C59.442 53.1066 59.4024 53.1658 59.3525 53.2157C59.3026 53.2656 59.2433 53.3053 59.1781 53.3323C59.1129 53.3593 59.043 53.3732 58.9723 53.3732Z" fill="black"/>
<path d="M48.0779 53.3732C48.0073 53.3732 47.9374 53.3593 47.8722 53.3323C47.807 53.3053 47.7477 53.2656 47.6978 53.2157C47.6478 53.1658 47.6082 53.1066 47.5812 53.0414C47.5542 52.9761 47.5403 52.9062 47.5403 52.8356V51.1742C47.5403 51.0316 47.5969 50.8949 47.6978 50.794C47.7986 50.6932 47.9353 50.6366 48.0779 50.6366C48.1486 50.6365 48.2186 50.6504 48.2839 50.6774C48.3492 50.7044 48.4085 50.7439 48.4585 50.7939C48.5085 50.8438 48.5482 50.9031 48.5752 50.9683C48.6023 51.0336 48.6162 51.1036 48.6162 51.1742V52.8356C48.6162 52.9063 48.6023 52.9762 48.5752 53.0414C48.5482 53.1067 48.5085 53.166 48.4585 53.216C48.4085 53.2659 48.3492 53.3055 48.2839 53.3325C48.2186 53.3594 48.1486 53.3733 48.0779 53.3732Z" fill="black"/>
<path d="M46.0342 53.3732C45.9636 53.3732 45.8937 53.3593 45.8285 53.3323C45.7633 53.3053 45.704 53.2656 45.6541 53.2157C45.6041 53.1658 45.5645 53.1066 45.5375 53.0413C45.5105 52.9761 45.4966 52.9062 45.4966 52.8356V51.1742C45.4966 51.0316 45.5532 50.8949 45.6541 50.794C45.7549 50.6932 45.8916 50.6366 46.0342 50.6366C46.1768 50.6366 46.3136 50.6932 46.4144 50.794C46.5152 50.8949 46.5719 51.0316 46.5719 51.1742V52.8356C46.5719 52.9062 46.558 52.9761 46.531 53.0413C46.5039 53.1066 46.4643 53.1658 46.4144 53.2157C46.3645 53.2656 46.3052 53.3053 46.24 53.3323C46.1748 53.3593 46.1048 53.3732 46.0342 53.3732Z" fill="black"/>
<path d="M43.9899 53.3732C43.9193 53.3732 43.8494 53.3593 43.7842 53.3323C43.7189 53.3053 43.6597 53.2656 43.6097 53.2157C43.5598 53.1658 43.5202 53.1066 43.4932 53.0413C43.4662 52.9761 43.4523 52.9062 43.4523 52.8356V51.1742C43.4523 51.0316 43.5089 50.8949 43.6097 50.794C43.7106 50.6932 43.8473 50.6366 43.9899 50.6366C44.1326 50.6366 44.2694 50.6932 44.3703 50.794C44.4713 50.8948 44.528 51.0316 44.5282 51.1742V52.8356C44.528 52.9783 44.4713 53.115 44.3703 53.2158C44.2694 53.3166 44.1326 53.3732 43.9899 53.3732Z" fill="black"/>
<path d="M52.3575 47.47C52.6632 47.47 52.9111 47.2222 52.9111 46.9165C52.9111 46.6108 52.6632 46.3629 52.3575 46.3629C52.0518 46.3629 51.804 46.6108 51.804 46.9165C51.804 47.2222 52.0518 47.47 52.3575 47.47Z" fill="black"/>
<path d="M54.9033 45.2182C54.8841 45.2677 54.8509 45.3106 54.8077 45.3417C54.7646 45.3727 54.7134 45.3906 54.6603 45.3932H49.927C49.8739 45.3906 49.8227 45.3727 49.7796 45.3417C49.7364 45.3106 49.7032 45.2677 49.684 45.2182L49.4765 44.6016C49.4619 44.5505 49.4624 44.4963 49.478 44.4455C49.4936 44.3946 49.5236 44.3495 49.5643 44.3154L51.8218 42.6044C51.9196 42.5371 52.0342 42.4984 52.1527 42.4924H52.4339C52.5525 42.4984 52.667 42.5371 52.7648 42.6044L55.0223 44.3154C55.0631 44.3495 55.0931 44.3946 55.1086 44.4455C55.1242 44.4963 55.1247 44.5505 55.1101 44.6016L54.9033 45.2182ZM51.4897 44.2065C51.4083 44.2702 51.4261 44.3178 51.5273 44.3178H53.0607C53.1618 44.3178 53.179 44.2683 53.0982 44.2065L52.4416 43.7083C52.3983 43.6783 52.3469 43.6622 52.2943 43.6622C52.2416 43.6622 52.1902 43.6783 52.147 43.7083L51.4897 44.2065Z" fill="black"/>
<path d="M54.5731 48.9618C54.5282 48.9282 54.4912 48.8852 54.4647 48.8357C54.4382 48.7862 54.4229 48.7316 54.4197 48.6755V44.4876C54.4194 44.4387 54.3997 44.3919 54.3651 44.3575C54.3304 44.323 54.2835 44.3037 54.2346 44.3037H50.4653C50.4166 44.3039 50.3699 44.3233 50.3354 44.3578C50.301 44.3922 50.2816 44.4388 50.2814 44.4876V46.3843C50.2814 46.4332 50.2621 46.4801 50.2276 46.5148C50.1932 46.5495 50.1464 46.5692 50.0975 46.5695H42.4857C42.3652 46.5742 42.2469 46.6029 42.1377 46.6541L42.0251 46.7133C41.9202 46.7731 41.8285 46.8533 41.7553 46.9493L40.533 48.6921C40.5035 48.7393 40.4862 48.793 40.4825 48.8485C40.4789 48.904 40.489 48.9596 40.512 49.0102L40.7824 49.5295C40.8106 49.5767 40.85 49.6163 40.897 49.6448C40.944 49.6733 40.9973 49.6898 41.0522 49.6929H41.2246C41.2735 49.6929 41.3204 49.7122 41.3551 49.7467C41.3898 49.7811 41.4095 49.828 41.4098 49.8769V52.6828C41.41 52.7315 41.4294 52.7782 41.4638 52.8127C41.4983 52.8471 41.545 52.8665 41.5937 52.8667H42.3006C42.3493 52.8665 42.396 52.8471 42.4304 52.8127C42.4649 52.7782 42.4843 52.7315 42.4845 52.6828V49.8769C42.4848 49.828 42.5045 49.7811 42.5391 49.7467C42.5738 49.7122 42.6207 49.6929 42.6696 49.6929H49.3874C49.4361 49.6931 49.4828 49.7126 49.5173 49.747C49.5517 49.7815 49.5711 49.8282 49.5713 49.8769V53.5112C49.5713 53.5603 49.5908 53.6075 49.6255 53.6422C49.6603 53.6769 49.7074 53.6964 49.7565 53.6964H54.9485C54.9974 53.6961 55.0441 53.6764 55.0786 53.6417C55.113 53.607 55.1324 53.5601 55.1324 53.5112V49.5186C55.1292 49.4626 55.1139 49.408 55.0874 49.3585C55.0609 49.309 55.0239 49.266 54.979 49.2323L54.5731 48.9618ZM42.4743 47.7956C42.5093 47.7514 42.5532 47.7151 42.6032 47.6891C42.6532 47.6631 42.7082 47.648 42.7644 47.6448H50.0969C50.1456 47.6449 50.1923 47.6644 50.2267 47.6988C50.2612 47.7333 50.2806 47.78 50.2808 47.8287V48.4293C50.2806 48.478 50.2612 48.5247 50.2267 48.5591C50.1923 48.5936 50.1456 48.613 50.0969 48.6132H42.0855C41.9844 48.6132 41.9487 48.5451 42.0066 48.4624L42.4743 47.7956ZM54.0545 52.4315C54.0543 52.4805 54.0348 52.5276 54.0001 52.5622C53.9654 52.5969 53.9184 52.6165 53.8694 52.6166H50.8292C50.7802 52.6165 50.7332 52.5969 50.6985 52.5622C50.6638 52.5276 50.6442 52.4805 50.6441 52.4315V50.0926C50.6474 50.0365 50.6629 49.9819 50.6895 49.9324C50.7161 49.883 50.7531 49.8399 50.7981 49.8062L51.2008 49.539C51.2458 49.5054 51.2829 49.4623 51.3095 49.4129C51.3361 49.3634 51.3515 49.3087 51.3548 49.2526V45.5623C51.355 45.5136 51.3744 45.4669 51.4088 45.4324C51.4433 45.398 51.49 45.3785 51.5387 45.3784H53.1574C53.2061 45.3785 53.2528 45.398 53.2872 45.4324C53.3217 45.4669 53.3411 45.5136 53.3412 45.5623V49.2526C53.3444 49.3087 53.3597 49.3633 53.3862 49.4128C53.4127 49.4623 53.4497 49.5053 53.4946 49.539L53.8986 49.8062C53.9436 49.8399 53.9806 49.883 54.0072 49.9324C54.0338 49.9819 54.0493 50.0365 54.0526 50.0926L54.0545 52.4315Z" fill="black"/>
<path d="M62.2695 49.9698C62.2966 49.9299 62.307 49.881 62.2987 49.8335C62.2904 49.786 62.264 49.7436 62.225 49.7153L60.9327 48.8079C60.8322 48.7437 60.7165 48.707 60.5974 48.7017H57.5362C57.4164 48.7066 57.2994 48.7395 57.1946 48.7977L55.7897 49.6561C55.7477 49.6816 55.7174 49.7226 55.7055 49.7702C55.6936 49.8179 55.701 49.8684 55.726 49.9106L56.0951 50.5138C56.1075 50.5348 56.124 50.5531 56.1436 50.5677C56.1631 50.5823 56.1854 50.5928 56.2091 50.5987C56.2327 50.6046 56.2573 50.6058 56.2815 50.6022C56.3056 50.5985 56.3287 50.5901 56.3496 50.5774L56.4018 50.5449C56.4883 50.4928 56.5596 50.5316 56.5596 50.634V53.1518C56.5597 53.2005 56.5792 53.2472 56.6136 53.2817C56.6481 53.3161 56.6947 53.3355 56.7434 53.3357H61.24C61.2887 53.3355 61.3354 53.3161 61.3698 53.2817C61.4043 53.2472 61.4237 53.2005 61.4239 53.1518V50.6563C61.4239 50.5551 61.492 50.5195 61.5747 50.5774L61.6046 50.5984C61.6444 50.6259 61.6935 50.6366 61.7411 50.6281C61.7888 50.6197 61.8312 50.5927 61.8591 50.5532L62.2695 49.9698ZM57.8207 52.616C57.7966 52.616 57.7727 52.6113 57.7504 52.602C57.7281 52.5928 57.7079 52.5792 57.6909 52.5621C57.6738 52.545 57.6604 52.5248 57.6512 52.5025C57.642 52.4802 57.6373 52.4563 57.6374 52.4322L57.6533 49.959C57.654 49.9101 57.6738 49.8634 57.7086 49.829C57.7433 49.7946 57.7902 49.7752 57.8391 49.7751H60.166C60.2147 49.7752 60.2614 49.7947 60.2958 49.8291C60.3303 49.8636 60.3497 49.9103 60.3499 49.959V52.4322C60.3497 52.4809 60.3303 52.5276 60.2958 52.562C60.2614 52.5965 60.2147 52.6158 60.166 52.616H57.8207Z" fill="black"/>
<path d="M37.4038 53.3732C37.3331 53.3733 37.2631 53.3594 37.1978 53.3325C37.1325 53.3055 37.0732 53.2659 37.0232 53.216C36.9732 53.166 36.9335 53.1067 36.9065 53.0414C36.8794 52.9762 36.8655 52.9063 36.8655 52.8356V51.1742C36.8655 51.1036 36.8794 51.0336 36.9065 50.9683C36.9335 50.9031 36.9732 50.8438 37.0232 50.7939C37.0732 50.7439 37.1325 50.7044 37.1978 50.6774C37.2631 50.6504 37.3331 50.6365 37.4038 50.6366C37.5464 50.6366 37.6831 50.6932 37.784 50.794C37.8848 50.8949 37.9414 51.0316 37.9414 51.1742V52.8356C37.9414 52.9062 37.9275 52.9761 37.9005 53.0414C37.8735 53.1066 37.8339 53.1658 37.784 53.2157C37.734 53.2656 37.6748 53.3053 37.6095 53.3323C37.5443 53.3593 37.4744 53.3732 37.4038 53.3732Z" fill="black"/>
<path d="M37.9803 48.2721C37.9803 48.1193 37.9196 47.9726 37.8115 47.8645C37.7034 47.7564 37.5568 47.6957 37.4039 47.6957C37.251 47.6957 37.1043 47.7564 36.9962 47.8645C36.8881 47.9726 36.8274 48.1193 36.8274 48.2721V49.6771H37.9803V48.2721Z" fill="black"/>
<path d="M40.7596 47.1593C40.787 47.1196 40.7978 47.0707 40.7895 47.0231C40.7813 46.9755 40.7548 46.933 40.7157 46.9048L39.3648 45.9504C39.2649 45.8859 39.1496 45.8491 39.0308 45.8435H35.9487C35.8296 45.8493 35.714 45.8859 35.6134 45.9498L34.1926 46.95C34.1534 46.9782 34.1269 47.0207 34.1187 47.0683C34.1104 47.1159 34.1212 47.1647 34.1487 47.2044L34.5552 47.7822C34.5835 47.8214 34.6259 47.8479 34.6735 47.8561C34.7211 47.8643 34.77 47.8536 34.8097 47.8261L34.8396 47.8051C34.9217 47.7472 34.9898 47.7829 34.9898 47.8841V53.1479C34.9901 53.1968 35.0098 53.2436 35.0445 53.278C35.0792 53.3125 35.1261 53.3318 35.175 53.3318H39.6709C39.7198 53.3318 39.7667 53.3125 39.8014 53.278C39.8361 53.2436 39.8557 53.1968 39.856 53.1479V47.7994C39.856 47.6982 39.9235 47.6632 40.0062 47.7211L40.0915 47.7848C40.1312 47.8121 40.18 47.8229 40.2275 47.8148C40.275 47.8067 40.3175 47.7805 40.346 47.7415L40.7596 47.1593ZM36.2522 52.623C36.2035 52.6229 36.1569 52.6034 36.1226 52.5689C36.0882 52.5344 36.0689 52.4878 36.0689 52.4391L36.1039 47.0982C36.1048 47.0494 36.1247 47.0028 36.1594 46.9684C36.1941 46.934 36.2409 46.9147 36.2897 46.9143H38.5988C38.6475 46.9145 38.6942 46.934 38.7286 46.9684C38.7631 47.0029 38.7825 47.0495 38.7826 47.0982V52.4391C38.7825 52.4878 38.7631 52.5345 38.7286 52.569C38.6942 52.6034 38.6475 52.6229 38.5988 52.623H36.2522Z" fill="black"/>
<path d="M48.8091 47.6027C39.8223 41.8285 38.5765 42.732 33.3336 46.535L32.7018 45.664C38.4334 41.5065 40.1386 40.7519 49.3907 46.6973L48.8091 47.6027Z" fill="black"/>
<path d="M56.076 59.2988C52.5612 59.2498 50.2788 57.5528 48.265 56.0538C46.633 54.841 45.2236 53.7938 43.4052 53.6888L43.4688 52.6147C45.6092 52.742 47.2114 53.9299 48.9077 55.1904C50.8801 56.6576 52.9251 58.1758 56.0925 58.2197L56.076 59.2988Z" fill="black"/>
<path d="M51.1499 59.8664C48.9039 58.7483 46.775 57.4091 44.7948 55.8687C42.4533 54.1386 40.6043 52.7725 37.9319 52.6179L37.8683 53.6919C40.2225 53.8287 41.8717 55.0472 44.1547 56.734C45.9016 58.0814 47.754 59.2862 49.6941 60.3366L51.1423 59.8829L51.1499 59.8664Z" fill="black"/>
<path d="M46.269 61.772C43.789 60.5125 41.4367 59.0157 39.2452 57.3028C36.6186 55.3615 34.5444 53.8287 32.1914 53.6919L32.255 52.6179C34.9274 52.7732 37.2256 54.4714 39.8859 56.4356C42.0238 58.1079 44.3183 59.5698 46.7373 60.801L46.269 61.772Z" fill="black"/>
<path d="M41.9277 62.9211C39.119 61.444 36.4658 59.6884 34.008 57.6808C33.3813 57.2004 32.7883 56.748 32.2175 56.3261L32.8538 55.4614C33.4309 55.8877 34.0271 56.344 34.6583 56.8262C37.0588 58.7882 39.6492 60.5055 42.3909 61.9527L41.9277 62.9211Z" fill="black"/>
<path d="M63.2086 54.9163H48.475V55.9922H63.2086V54.9163Z" fill="black"/>
<path d="M53.2973 34.0204C53.2958 32.6188 52.7384 31.275 51.7474 30.2839C50.7564 29.2928 49.4127 28.7352 48.0112 28.7335C46.6096 28.7352 45.2659 29.2928 44.2749 30.2839C43.2839 31.275 42.7265 32.6188 42.725 34.0204C42.7267 35.4219 43.2841 36.7654 44.2751 37.7564C45.2661 38.7474 46.6097 39.3049 48.0112 39.3066C49.4126 39.3049 50.7562 38.7474 51.7472 37.7564C52.7382 36.7654 53.2957 35.4219 53.2973 34.0204ZM48.0112 38.2312C46.8947 38.23 45.8242 37.7861 45.0347 36.9966C44.2452 36.2072 43.801 35.1369 43.7996 34.0204C43.8008 32.9038 44.2449 31.8332 45.0345 31.0437C45.824 30.2541 46.8946 29.81 48.0112 29.8089C49.1277 29.81 50.1982 30.2541 50.9876 31.0437C51.7771 31.8332 52.221 32.9038 52.222 34.0204C52.2212 35.137 51.7773 36.2077 50.9878 36.9974C50.1984 37.7871 49.1278 38.2314 48.0112 38.2325V38.2312Z" fill="black"/>
<path d="M32.5936 35.9272C32.5409 35.9373 32.4921 35.9619 32.4527 35.9982C32.4132 36.0345 32.3847 36.0811 32.3703 36.1327L32.1959 36.8963C32.1889 36.9166 32.1876 36.9384 32.192 36.9594C32.1964 36.9804 32.2064 36.9998 32.2209 37.0156C32.2355 37.0314 32.254 37.0429 32.2746 37.049C32.2952 37.0551 32.317 37.0556 32.3378 37.0503L41.0045 35.8375C41.0283 35.8344 41.0512 35.8265 41.0717 35.8142C41.0923 35.8019 41.1102 35.7856 41.1243 35.7661C41.1383 35.7467 41.1483 35.7247 41.1535 35.7013C41.1587 35.6779 41.1591 35.6537 41.1547 35.6301L41.0274 34.9341C41.018 34.8855 40.9904 34.8425 40.9504 34.8135C40.9103 34.7846 40.8608 34.7719 40.8117 34.7782L32.5936 35.9272Z" fill="black"/>
<path d="M34.9357 30.8229C34.8827 30.8146 34.8285 30.8213 34.7791 30.8422C34.7298 30.8631 34.6873 30.8975 34.6564 30.9413L34.2364 31.6023C34.2233 31.619 34.2149 31.639 34.2122 31.6601C34.2094 31.6812 34.2124 31.7026 34.2208 31.7222C34.2292 31.7417 34.2427 31.7586 34.2599 31.7711C34.2771 31.7836 34.2973 31.7913 34.3185 31.7932L40.8308 33.1167C40.8785 33.1263 40.9281 33.1166 40.9688 33.0898C41.0094 33.063 41.0378 33.0212 41.0478 32.9735L41.1877 32.28C41.1973 32.232 41.1875 32.1821 41.1604 32.1414C41.1333 32.1006 41.0912 32.0722 41.0433 32.0624L34.9357 30.8229Z" fill="black"/>
<path d="M38.6249 27.1307C38.5788 27.1038 38.526 27.0906 38.4727 27.0926C38.4194 27.0946 38.3678 27.1118 38.3239 27.1421L37.7099 27.6123C37.6915 27.6237 37.6765 27.6397 37.6663 27.6588C37.6561 27.6779 37.6512 27.6994 37.6521 27.721C37.6529 27.7426 37.6595 27.7636 37.6711 27.7819C37.6827 27.8001 37.699 27.8149 37.7182 27.8248L41.7305 30.4291C41.772 30.4551 41.8219 30.4642 41.8698 30.4545C41.9178 30.4448 41.9602 30.417 41.9882 30.3769L42.3853 29.7916C42.3991 29.7716 42.4087 29.7491 42.4136 29.7253C42.4185 29.7016 42.4185 29.6771 42.4137 29.6533C42.4089 29.6296 42.3993 29.607 42.3856 29.587C42.3718 29.567 42.3542 29.5501 42.3337 29.5371L38.6249 27.1307Z" fill="black"/>
<path d="M41.915 37.5421C41.8853 37.4998 41.8425 37.4682 41.7932 37.4525C41.7439 37.4368 41.6908 37.4376 41.642 37.4549L33.7605 40.5307C33.7386 40.5386 33.7188 40.5513 33.7024 40.5677C33.6859 40.5842 33.6733 40.6039 33.6654 40.6258C33.6575 40.6477 33.6545 40.671 33.6567 40.6942C33.6588 40.7173 33.666 40.7397 33.6777 40.7598L34.0239 41.3871C34.0495 41.4307 34.0895 41.4639 34.137 41.4811C34.1845 41.4983 34.2366 41.4983 34.2841 41.4813L42.2433 38.3744C42.2648 38.3672 42.2843 38.3551 42.3002 38.339C42.3161 38.3228 42.328 38.3032 42.3349 38.2816C42.3418 38.2601 42.3435 38.2371 42.3398 38.2148C42.3362 38.1924 42.3273 38.1712 42.3139 38.1529L41.915 37.5421Z" fill="black"/>
<path d="M46.3116 40.8533C46.2634 40.8447 46.2137 40.855 46.1729 40.882C46.132 40.909 46.1031 40.9507 46.0921 40.9984L45.6906 42.8678C45.6816 42.919 45.6891 42.9718 45.7119 43.0186C45.7348 43.0654 45.7719 43.1037 45.8179 43.128L46.4847 43.45C46.5042 43.4611 46.526 43.4673 46.5484 43.468C46.5708 43.4688 46.5931 43.464 46.6132 43.4543C46.6334 43.4445 46.6509 43.43 46.6642 43.4119C46.6775 43.3939 46.6862 43.3729 46.6896 43.3507L47.147 41.2052C47.1522 41.1817 47.1527 41.1574 47.1483 41.1337C47.1439 41.11 47.1349 41.0875 47.1217 41.0674C47.1084 41.0473 47.0913 41.03 47.0713 41.0166C47.0513 41.0033 47.0288 40.994 47.0052 40.9895L46.3116 40.8533Z" fill="black"/>
<path d="M46.5669 24.158C46.5574 24.1094 46.5299 24.0663 46.4898 24.0372C46.4498 24.0082 46.4002 23.9954 46.3512 24.0015L45.6512 24.095C45.6276 24.098 45.6049 24.1057 45.5844 24.1178C45.5638 24.1299 45.546 24.1462 45.532 24.1654C45.518 24.1847 45.5081 24.2066 45.5029 24.2298C45.4977 24.2531 45.4973 24.2771 45.5017 24.3005L46.0044 27.0683C46.0085 27.0919 46.0174 27.1145 46.0305 27.1345C46.0436 27.1546 46.0606 27.1719 46.0805 27.1853C46.1004 27.1986 46.1228 27.2079 46.1463 27.2124C46.1699 27.2169 46.1941 27.2166 46.2175 27.2115L46.9092 27.0664C46.9574 27.056 46.9996 27.0273 47.0272 26.9864C47.0547 26.9454 47.0653 26.8954 47.0568 26.8469L46.5669 24.158Z" fill="black"/>
<path d="M42.5767 25.0776C42.5464 25.0358 42.5034 25.0049 42.454 24.9897C42.4047 24.9744 42.3517 24.9755 42.3031 24.9929L41.6248 25.264C41.6035 25.2714 41.5842 25.2837 41.5685 25.2999C41.5528 25.3161 41.5411 25.3358 41.5344 25.3574C41.5277 25.3789 41.5262 25.4018 41.53 25.424C41.5337 25.4463 41.5427 25.4673 41.5561 25.4854L43.4853 28.3798C43.4987 28.3999 43.5159 28.4171 43.536 28.4305C43.5561 28.4438 43.5786 28.453 43.6023 28.4576C43.626 28.4621 43.6504 28.462 43.674 28.457C43.6976 28.4521 43.72 28.4425 43.7398 28.4288L44.322 28.0274C44.3617 27.9989 44.3889 27.9563 44.3981 27.9084C44.4074 27.8604 44.3979 27.8108 44.3717 27.7697L42.5767 25.0776Z" fill="black"/>
<path d="M43.7882 39.6494C43.7425 39.6217 43.6899 39.6076 43.6365 39.6086C43.5831 39.6096 43.5311 39.6257 43.4866 39.6552L41.3582 41.2014C41.3398 41.2102 41.3246 41.2244 41.3145 41.2421C41.3045 41.2599 41.3002 41.2804 41.3022 41.3007C41.3043 41.321 41.3125 41.3402 41.3258 41.3557C41.3391 41.3712 41.3569 41.3821 41.3767 41.3871L42.1631 41.7504C42.2148 41.7709 42.2707 41.7787 42.3261 41.7732C42.3814 41.7676 42.4346 41.7489 42.4813 41.7186L44.441 40.294C44.4596 40.2831 44.475 40.2675 44.4855 40.2487C44.496 40.2299 44.5013 40.2086 44.5009 40.1871C44.5004 40.1655 44.4942 40.1445 44.4829 40.1262C44.4716 40.1078 44.4556 40.0928 44.4365 40.0827L43.7882 39.6494Z" fill="black"/>
<path d="M63.5331 35.9272C63.5858 35.9373 63.6346 35.9619 63.6741 35.9982C63.7135 36.0345 63.7421 36.0811 63.7565 36.1327L63.9308 36.8963C63.9378 36.9166 63.9391 36.9384 63.9347 36.9594C63.9303 36.9804 63.9203 36.9998 63.9058 37.0156C63.8912 37.0314 63.8727 37.0429 63.8521 37.049C63.8316 37.0551 63.8097 37.0556 63.7889 37.0503L55.1222 35.8375C55.0984 35.8344 55.0756 35.8265 55.055 35.8142C55.0344 35.8019 55.0165 35.7856 55.0025 35.7661C54.9884 35.7467 54.9785 35.7247 54.9732 35.7013C54.968 35.6779 54.9676 35.6537 54.9721 35.6301L55.0993 34.9341C55.1088 34.8855 55.1363 34.8425 55.1764 34.8135C55.2164 34.7846 55.266 34.7719 55.315 34.7782L63.5331 35.9272Z" fill="black"/>
<path d="M61.191 30.8229C61.244 30.8146 61.2982 30.8213 61.3476 30.8422C61.3969 30.8631 61.4394 30.8975 61.4704 30.9413L61.8903 31.6023C61.9034 31.619 61.9118 31.639 61.9145 31.6601C61.9173 31.6812 61.9143 31.7026 61.9059 31.7222C61.8975 31.7417 61.884 31.7586 61.8668 31.7711C61.8496 31.7836 61.8294 31.7913 61.8082 31.7932L55.2972 33.1186C55.2494 33.1284 55.1996 33.1188 55.1588 33.092C55.118 33.0651 55.0895 33.0233 55.0796 32.9755L54.9396 32.2819C54.93 32.2339 54.9399 32.1841 54.9669 32.1433C54.994 32.1025 55.0361 32.0741 55.0841 32.0643L61.191 30.8229Z" fill="black"/>
<path d="M57.5025 27.1307C57.5486 27.1038 57.6013 27.0906 57.6546 27.0926C57.7079 27.0946 57.7596 27.1118 57.8035 27.1421L58.4175 27.6123C58.4359 27.6237 58.4509 27.6397 58.4611 27.6588C58.4712 27.6779 58.4761 27.6994 58.4753 27.721C58.4745 27.7426 58.4679 27.7636 58.4563 27.7819C58.4447 27.8001 58.4284 27.8149 58.4092 27.8248L54.3968 30.4291C54.3554 30.4551 54.3055 30.4642 54.2576 30.4545C54.2096 30.4448 54.1672 30.417 54.1391 30.3769L53.7421 29.7916C53.7283 29.7716 53.7187 29.7491 53.7138 29.7253C53.7089 29.7016 53.7089 29.6771 53.7137 29.6533C53.7185 29.6296 53.728 29.607 53.7418 29.587C53.7555 29.567 53.7732 29.5501 53.7936 29.5371L57.5025 27.1307Z" fill="black"/>
<path d="M54.2124 37.5421C54.2421 37.4998 54.2849 37.4682 54.3342 37.4525C54.3835 37.4368 54.4366 37.4376 54.4854 37.4549L62.3669 40.5307C62.3887 40.5386 62.4086 40.5513 62.425 40.5677C62.4414 40.5842 62.454 40.6039 62.4619 40.6258C62.4698 40.6477 62.4728 40.671 62.4707 40.6942C62.4686 40.7173 62.4614 40.7397 62.4496 40.7598L62.1035 41.3871C62.0778 41.4307 62.0378 41.4639 61.9903 41.4811C61.9428 41.4983 61.8908 41.4983 61.8432 41.4813L53.8841 38.3744C53.8626 38.3672 53.8431 38.3551 53.8271 38.339C53.8112 38.3228 53.7993 38.3032 53.7924 38.2816C53.7856 38.2601 53.7839 38.2371 53.7875 38.2148C53.7912 38.1924 53.8001 38.1712 53.8134 38.1529L54.2124 37.5421Z" fill="black"/>
<path d="M49.8151 40.8532C49.8632 40.844 49.9129 40.8541 49.9536 40.8812C49.9943 40.9084 50.0227 40.9504 50.0327 40.9983L50.298 42.3065C50.3063 42.3588 50.2991 42.4124 50.2771 42.4606C50.2552 42.5088 50.2195 42.5495 50.1746 42.5775L49.4747 42.9713C49.457 42.983 49.4366 42.99 49.4154 42.9915C49.3942 42.993 49.373 42.989 49.3538 42.9799C49.3346 42.9709 49.3181 42.957 49.3058 42.9396C49.2936 42.9223 49.286 42.9021 49.2838 42.881L48.9778 41.2057C48.9692 41.1575 48.9798 41.1078 49.0074 41.0674C49.035 41.0269 49.0774 40.9989 49.1254 40.9893L49.8151 40.8532Z" fill="black"/>
<path d="M49.5604 24.158C49.5699 24.1094 49.5974 24.0663 49.6374 24.0372C49.6775 24.0082 49.727 23.9954 49.7761 24.0015L50.476 24.095C50.4997 24.098 50.5224 24.1057 50.5429 24.1178C50.5634 24.1299 50.5812 24.1462 50.5953 24.1654C50.6093 24.1847 50.6192 24.2066 50.6244 24.2298C50.6296 24.2531 50.63 24.2771 50.6256 24.3005L50.1229 27.0683C50.1187 27.0919 50.1098 27.1145 50.0968 27.1345C50.0837 27.1546 50.0667 27.1719 50.0468 27.1853C50.0269 27.1986 50.0045 27.2079 49.9809 27.2124C49.9574 27.2169 49.9332 27.2166 49.9097 27.2115L49.2181 27.0664C49.1699 27.056 49.1276 27.0273 49.1001 26.9864C49.0726 26.9454 49.062 26.8954 49.0705 26.8469L49.5604 24.158Z" fill="black"/>
<path d="M53.5506 25.0776C53.5809 25.0358 53.6239 25.0049 53.6733 24.9897C53.7226 24.9744 53.7756 24.9755 53.8242 24.9929L54.5024 25.264C54.5238 25.2714 54.5431 25.2837 54.5588 25.2999C54.5745 25.3161 54.5862 25.3358 54.5929 25.3574C54.5996 25.3789 54.6011 25.4018 54.5973 25.424C54.5935 25.4463 54.5846 25.4673 54.5712 25.4854L52.642 28.3798C52.6286 28.3999 52.6114 28.4171 52.5913 28.4305C52.5712 28.4438 52.5486 28.453 52.525 28.4576C52.5013 28.4621 52.4769 28.462 52.4533 28.457C52.4297 28.4521 52.4073 28.4425 52.3875 28.4288L51.8053 28.0274C51.7656 27.9989 51.7384 27.9563 51.7292 27.9084C51.7199 27.8604 51.7294 27.8108 51.7556 27.7697L53.5506 25.0776Z" fill="black"/>
<path d="M52.3398 39.6495C52.3857 39.6217 52.4384 39.6074 52.492 39.6079C52.5457 39.6085 52.5981 39.624 52.6433 39.6527L58.9985 44.1416C59.0169 44.1499 59.0323 44.1638 59.0425 44.1812C59.0528 44.1987 59.0573 44.2189 59.0554 44.2391C59.0536 44.2593 59.0456 44.2783 59.0324 44.2937C59.0192 44.3091 59.0016 44.32 58.9819 44.3248L58.1955 44.6882C58.1438 44.7084 58.0882 44.7162 58.033 44.7111C57.9777 44.706 57.9245 44.6882 57.8773 44.6589L51.6902 40.2909C51.6713 40.2808 51.6555 40.2657 51.6445 40.2473C51.6335 40.2289 51.6277 40.2079 51.6277 40.1865C51.6277 40.1651 51.6335 40.1441 51.6445 40.1257C51.6555 40.1073 51.6713 40.0923 51.6902 40.0822L52.3398 39.6495Z" fill="black"/>
<path d="M76.7187 44.3655C76.1838 44.172 75.607 44.125 75.0478 44.2294C74.5874 44.3153 74.1516 44.5016 73.7715 44.7752C73.2076 45.2214 72.8016 45.8364 72.6128 46.5301C72.5478 46.79 72.4463 47.0394 72.3112 47.2707C71.9721 47.7467 71.3282 48.2048 69.8297 48.2888V48.292C69.4104 48.317 68.9973 48.4051 68.6043 48.5534C68.0235 48.7779 67.5176 49.1614 67.1446 49.6599C67.1109 49.7038 67.0174 49.7236 66.9996 49.5963C66.6665 48.2875 66.0805 47.0565 65.2746 45.9728C64.499 44.8275 63.5879 43.4124 64.2 42.2696C64.4676 41.8491 64.8187 41.488 65.2315 41.2085C65.6443 40.9291 66.1101 40.7374 66.6 40.6452C67.0429 40.5606 67.501 40.6091 67.9164 40.7845C68.0539 40.8603 68.0119 40.9621 67.9502 40.9926C67.4061 41.265 66.9503 41.6859 66.6356 42.2066C66.4136 42.571 66.2659 42.9758 66.2013 43.3976C66.1366 43.8194 66.1562 44.2498 66.2589 44.6639C66.6146 46.1127 68.0303 47.0086 70.0461 47.0588C70.1396 47.0663 70.2331 47.0441 70.3133 46.9952C72.2056 45.9447 72.9392 44.6207 72.5689 43.114C72.4024 42.4403 72.0247 41.8376 71.4911 41.3939C70.9575 40.9503 70.2959 40.6891 69.6032 40.6484C69.4852 40.6356 69.3761 40.5799 69.2965 40.4919C69.0741 40.2426 68.8093 40.0344 68.5145 39.8772C68.4757 39.8562 68.4242 39.799 68.519 39.6972C68.6004 39.6125 68.6781 39.5241 68.7538 39.4293C68.7806 39.3971 68.8169 39.3743 68.8575 39.3641C68.8981 39.3539 68.9409 39.3569 68.9797 39.3727C69.4183 39.4905 69.8758 39.5204 70.326 39.4608C70.7762 39.4012 71.2102 39.2531 71.603 39.0252C72.0872 38.7432 72.4954 38.3475 72.7922 37.8722C73.089 37.3969 73.2655 36.8564 73.3063 36.2975C73.3124 36.1896 73.2866 36.0823 73.2322 35.9889C73.1778 35.8954 73.0971 35.82 73.0003 35.772C72.4873 35.5588 71.9339 35.4603 71.3789 35.4834C70.8239 35.5065 70.2806 35.6506 69.7871 35.9056C69.7616 35.9228 69.7319 35.9329 69.7011 35.9346C69.6704 35.9363 69.6398 35.9296 69.6125 35.9153C69.5852 35.901 69.5623 35.8797 69.5463 35.8534C69.5302 35.8272 69.5215 35.797 69.5211 35.7663C69.3888 35.2218 69.1257 34.7179 68.7546 34.2981C68.3835 33.8784 67.9156 33.5554 67.3915 33.3573C67.29 33.3206 67.1798 33.3145 67.0749 33.3398C66.9699 33.3652 66.8747 33.4208 66.8011 33.4998C66.4509 33.9309 66.199 34.4332 66.0629 34.9717C65.9269 35.5102 65.9099 36.0719 66.0133 36.6176C66.1246 37.0737 66.3279 37.5023 66.6109 37.877C66.8938 38.2516 67.2504 38.5644 67.6588 38.7962C67.7084 38.8242 67.7936 38.8719 67.6944 38.9991C67.4133 39.2828 67.0528 39.4745 66.6604 39.5489C66.5815 39.5578 66.5014 39.5686 66.4206 39.5826C65.5768 39.7304 64.7911 40.1109 64.1518 40.681C63.5125 41.2512 63.045 41.9884 62.8021 42.8098C62.3707 44.4641 62.6112 46.0892 62.8841 47.9725C63.1442 49.5291 63.2861 51.1031 63.3085 52.681C63.304 56.7381 61.6903 60.6278 58.8216 63.4967C55.9528 66.3656 52.0632 67.9794 48.0061 67.9841C43.9489 67.9794 40.0593 66.3656 37.1904 63.4967C34.3215 60.6278 32.7077 56.7382 32.703 52.681C32.7259 51.103 32.8682 49.529 33.1287 47.9725C33.4042 46.0892 33.6415 44.4628 33.2101 42.8098C32.9673 41.9883 32.4999 41.251 31.8606 40.6809C31.2212 40.1107 30.4354 39.7303 29.5916 39.5826C29.5115 39.5686 29.4313 39.5578 29.353 39.5489C28.9606 39.4749 28.5999 39.2831 28.3191 38.9991C28.2198 38.8719 28.3045 38.8242 28.3547 38.7962C28.7629 38.5643 29.1195 38.2514 29.4024 37.8768C29.6854 37.5022 29.8888 37.0737 30.0001 36.6176C30.1033 36.0718 30.0862 35.51 29.95 34.9715C29.8137 34.433 29.5615 33.9308 29.2111 33.4998C29.1375 33.4208 29.0423 33.3652 28.9373 33.3398C28.8323 33.3145 28.7222 33.3206 28.6207 33.3573C28.0967 33.5555 27.629 33.8784 27.258 34.2982C26.887 34.718 26.624 35.2219 26.4917 35.7663C26.4911 35.797 26.4823 35.8269 26.4662 35.853C26.4501 35.8791 26.4272 35.9004 26.4 35.9147C26.3728 35.9289 26.3423 35.9356 26.3116 35.934C26.281 35.9324 26.2513 35.9226 26.2257 35.9056C25.732 35.6508 25.1887 35.5068 24.6336 35.4838C24.0785 35.4607 23.5251 35.5591 23.0119 35.772C22.9152 35.8202 22.8348 35.8956 22.7805 35.989C22.7262 36.0824 22.7005 36.1897 22.7065 36.2975C22.7474 36.8563 22.9238 37.3967 23.2205 37.872C23.5171 38.3473 23.9251 38.7431 24.4092 39.0252C24.802 39.2531 25.236 39.4011 25.6862 39.4607C26.1364 39.5203 26.5939 39.4904 27.0325 39.3727C27.0712 39.357 27.1139 39.3542 27.1544 39.3643C27.1948 39.3745 27.2311 39.3972 27.2578 39.4293C27.3335 39.5241 27.4118 39.6125 27.4932 39.6972C27.588 39.799 27.5352 39.8562 27.4964 39.8772C27.2017 40.0347 26.937 40.2428 26.7144 40.4919C26.6353 40.5801 26.5262 40.6359 26.4083 40.6484C25.7156 40.6889 25.0539 40.9501 24.5203 41.3937C23.9866 41.8374 23.609 42.4402 23.4427 43.114C23.073 44.6207 23.806 45.9447 25.6983 46.9952C25.7779 47.0441 25.8711 47.0663 25.9642 47.0588C27.9806 47.0079 29.3963 46.1127 29.7513 44.6639C29.8545 44.2498 29.8743 43.8193 29.8096 43.3975C29.745 42.9756 29.5971 42.5708 29.3747 42.2066C29.0602 41.6857 28.6044 41.2647 28.0601 40.9926C27.9965 40.9621 27.957 40.8603 28.0938 40.7845C28.5093 40.6091 28.9673 40.5606 29.4103 40.6452C29.9003 40.7374 30.3661 40.9291 30.779 41.2085C31.192 41.4879 31.5432 41.8491 31.811 42.2696C32.4231 43.4149 31.5113 44.8281 30.7363 45.9728C30.1951 46.723 29.7445 47.5346 29.3938 48.3906L29.2665 48.7189C29.248 48.773 29.1392 49.1185 29.124 49.1757C29.0934 49.2801 29.0642 49.387 29.0362 49.4939C29.033 49.5098 29.0279 49.5232 29.0234 49.5385C29.019 49.555 29.0145 49.569 29.0101 49.5855C28.9891 49.7128 28.8987 49.695 28.865 49.6491C28.4914 49.1512 27.9858 48.7678 27.4054 48.5427C27.0119 48.3951 26.5987 48.307 26.1793 48.2811C24.6821 48.1933 24.0389 47.7365 23.6978 47.2593C23.5628 47.0282 23.4614 46.7791 23.3969 46.5193C23.2081 45.8256 22.802 45.2106 22.2382 44.7645C21.858 44.4909 21.4222 44.3045 20.9618 44.2185C20.4027 44.1141 19.8258 44.1611 19.291 44.3547C19.246 44.3618 19.2029 44.3777 19.1642 44.4016C19.1254 44.4254 19.0917 44.4567 19.0651 44.4936C19.0385 44.5305 19.0195 44.5723 19.0091 44.6166C18.9987 44.6609 18.9972 44.7068 19.0046 44.7517C18.9924 45.27 19.1066 45.7834 19.3374 46.2476C19.5683 46.7118 19.9087 47.1128 20.3294 47.4158C20.5251 47.5639 20.7406 47.6841 20.9695 47.7728C21.5126 47.9567 22.0902 48.0158 22.6594 47.9458C22.714 47.9359 22.7702 47.94 22.8228 47.9578C22.8753 47.9756 22.9225 48.0066 22.9597 48.0477C23.1617 48.2891 23.401 48.4966 23.6685 48.6623C23.715 48.6909 23.7761 48.7602 23.6844 48.822C23.5674 48.8964 23.4541 48.9785 23.3434 49.0651C22.8367 49.4631 22.4347 49.9788 22.1723 50.5673C21.9098 51.1558 21.7949 51.7994 21.8373 52.4424C21.8303 52.4985 21.8345 52.5553 21.8495 52.6098C21.8646 52.6642 21.8903 52.7152 21.9251 52.7597C21.96 52.8042 22.0032 52.8413 22.0525 52.869C22.1018 52.8966 22.156 52.9142 22.2121 52.9209C22.8864 53.1327 23.6051 53.1611 24.294 53.003C24.8615 52.8729 25.3932 52.619 25.851 52.2592C26.6086 51.6634 27.1232 50.812 27.2985 49.8642C27.3006 49.8455 27.3076 49.8276 27.3187 49.8123C27.3298 49.7971 27.3446 49.785 27.3618 49.7772C27.379 49.7695 27.398 49.7663 27.4168 49.7681C27.4355 49.7698 27.4536 49.7764 27.469 49.7872C27.8173 50.0437 28.1032 50.3756 28.3054 50.758C28.5075 51.1404 28.6207 51.5635 28.6366 51.9957C28.648 52.0988 28.6576 52.2057 28.6633 52.3139L28.6722 52.6517V52.6759C28.6779 57.8006 30.7161 62.7139 34.3397 66.3378C37.9633 69.9617 42.8763 72.0004 48.001 72.0066C53.1258 72.0004 58.0389 69.9617 61.6625 66.3378C65.2862 62.7139 67.3245 57.8007 67.3304 52.6759C67.3304 51.1227 67.8433 50.2581 68.5355 49.7879C68.551 49.7769 68.5691 49.7701 68.588 49.7683C68.6068 49.7664 68.6259 49.7696 68.6432 49.7774C68.6605 49.7852 68.6754 49.7973 68.6866 49.8126C68.6977 49.828 68.7047 49.846 68.7067 49.8648C68.8811 50.8128 69.3956 51.6645 70.1536 52.2598C70.6113 52.6196 71.143 52.8736 71.7106 53.0036C72.3994 53.1622 73.1182 53.1339 73.7925 52.9216C73.8486 52.9149 73.9028 52.8973 73.9521 52.8696C74.0013 52.8419 74.0446 52.8048 74.0794 52.7603C74.1143 52.7158 74.14 52.6649 74.155 52.6104C74.1701 52.556 74.1742 52.4991 74.1672 52.443C74.2097 51.8002 74.0947 51.1568 73.8323 50.5684C73.5698 49.9801 73.1679 49.4647 72.6612 49.0669C72.5516 48.9803 72.4378 48.8992 72.3201 48.8239C72.2278 48.7603 72.2896 48.6922 72.336 48.6629C72.6037 48.4973 72.843 48.2898 73.0448 48.0483C73.0823 48.0075 73.1295 47.9767 73.182 47.959C73.2344 47.9412 73.2906 47.9369 73.3451 47.9465C73.9144 48.0167 74.4921 47.9573 75.0351 47.7728C75.2626 47.6841 75.4767 47.5645 75.6714 47.4171C76.0922 47.1141 76.4329 46.7131 76.6638 46.2487C76.8948 45.7844 77.009 45.2708 76.9967 44.7523C77.0089 44.6645 76.9868 44.5753 76.935 44.5033C76.8833 44.4313 76.8058 44.382 76.7187 44.3655ZM69.2743 38.13C69.4573 37.5867 69.8313 37.1283 70.3267 36.8397C70.8261 36.5492 71.4144 36.4513 71.981 36.5642C72.0066 36.5703 72.0306 36.5817 72.0514 36.5978C72.0723 36.6139 72.0895 36.6341 72.1019 36.6574C72.1142 36.6806 72.1216 36.7062 72.1233 36.7325C72.1251 36.7587 72.1212 36.7851 72.112 36.8098C71.9285 37.353 71.5544 37.8114 71.059 38.1001C70.5595 38.3903 69.9713 38.4882 69.4047 38.3756C69.379 38.3693 69.355 38.3576 69.3342 38.3413C69.3134 38.325 69.2963 38.3045 69.2841 38.2811C69.2719 38.2576 69.2648 38.2319 69.2633 38.2055C69.2618 38.1791 69.266 38.1528 69.2755 38.1281L69.2743 38.13ZM68.8963 41.7822C69.0656 41.7404 69.2392 41.719 69.4136 41.7186C69.8995 41.7193 70.3711 41.8826 70.7535 42.1824C71.1358 42.4822 71.4069 42.9012 71.5235 43.3729C71.8416 44.6595 70.7173 45.5362 69.9328 45.9816C69.1508 45.9422 67.6199 45.6953 67.3043 44.4107C67.2356 44.1337 67.2224 43.8459 67.2655 43.5638C67.3087 43.2817 67.4073 43.0109 67.5557 42.7672C67.7031 42.5225 67.8977 42.3096 68.128 42.1406C68.3583 41.9716 68.6199 41.85 68.8976 41.7828L68.8963 41.7822ZM67.0575 36.3681C66.9207 35.806 66.9945 35.2133 67.2649 34.7018C67.2782 34.6791 67.2961 34.6595 67.3175 34.6442C67.3389 34.629 67.3633 34.6183 67.3891 34.6132C67.4149 34.608 67.4415 34.6083 67.4671 34.6142C67.4927 34.62 67.5169 34.6312 67.5379 34.647C68.0067 34.9772 68.3396 35.4666 68.4745 36.024C68.6113 36.586 68.5372 37.1786 68.2664 37.6897C68.2532 37.7124 68.2354 37.7321 68.2141 37.7474C68.1927 37.7627 68.1684 37.7734 68.1427 37.7786C68.1169 37.7839 68.0904 37.7835 68.0648 37.7778C68.0392 37.772 68.0151 37.7608 67.9941 37.7451C67.5257 37.4141 67.1934 36.9244 67.0587 36.3669L67.0575 36.3681ZM26.605 38.375C26.0384 38.4876 25.4502 38.3896 24.9506 38.0995C24.455 37.811 24.0809 37.3525 23.8976 36.8091C23.8884 36.7847 23.8844 36.7586 23.8859 36.7326C23.8874 36.7065 23.8944 36.6811 23.9064 36.6579C23.9184 36.6347 23.9352 36.6144 23.9556 36.5981C23.976 36.5818 23.9996 36.57 24.0249 36.5635C24.5914 36.4504 25.1798 36.5484 25.6792 36.839C26.1747 37.1276 26.5489 37.586 26.7322 38.1294C26.7412 38.1536 26.7451 38.1795 26.7436 38.2053C26.742 38.2312 26.7351 38.2564 26.7233 38.2794C26.7114 38.3024 26.6948 38.3227 26.6747 38.3389C26.6545 38.3552 26.6312 38.367 26.6062 38.3737L26.605 38.375ZM28.4533 42.7653C28.6025 43.0087 28.7018 43.2794 28.7455 43.5615C28.7892 43.8436 28.7764 44.1316 28.7078 44.4088C28.3897 45.6934 26.8626 45.9397 26.0794 45.9798C25.2942 45.5344 24.1706 44.6595 24.4887 43.371C24.6054 42.8994 24.8765 42.4804 25.2588 42.1806C25.6411 41.8808 26.1128 41.7175 26.5986 41.7167C26.7734 41.7171 26.9475 41.7385 27.1172 41.7804C27.3941 41.8482 27.6549 41.9702 27.8845 42.1392C28.1142 42.3082 28.3081 42.521 28.4552 42.7653H28.4533ZM28.0143 37.7444C27.9933 37.7602 27.9692 37.7714 27.9436 37.7771C27.918 37.7829 27.8914 37.7832 27.8657 37.7779C27.84 37.7727 27.8156 37.7621 27.7943 37.7468C27.773 37.7315 27.7552 37.7118 27.742 37.6891C27.472 37.1777 27.398 36.5853 27.5339 36.0233C27.6694 35.466 28.0024 34.9768 28.4712 34.6464C28.4921 34.6306 28.5162 34.6195 28.5418 34.6136C28.5673 34.6078 28.5939 34.6075 28.6196 34.6126C28.6453 34.6178 28.6697 34.6284 28.691 34.6436C28.7124 34.6589 28.7303 34.6784 28.7435 34.7011C29.0136 35.2126 29.0876 35.8052 28.9515 36.3675C28.8162 36.9243 28.484 37.4134 28.0162 37.7444H28.0143ZM22.4278 47.0124C22.3413 47.0264 22.2554 47.0347 22.1701 47.0417C21.7108 47.0586 21.2588 46.9223 20.8855 46.6542C20.445 46.3373 20.1464 45.8603 20.0539 45.3256C20.0487 45.2913 20.0572 45.2564 20.0776 45.2283C20.0979 45.2002 20.1285 45.1813 20.1627 45.1755C20.6988 45.0933 21.2458 45.225 21.6859 45.542C21.9064 45.6963 22.0936 45.8934 22.2364 46.1215C22.3791 46.3496 22.4745 46.6041 22.5169 46.8699C22.5212 46.885 22.5224 46.9008 22.5203 46.9164C22.5182 46.932 22.5129 46.9469 22.5047 46.9603C22.4965 46.9738 22.4856 46.9853 22.4727 46.9943C22.4598 47.0033 22.4451 47.0094 22.4297 47.0124H22.4278ZM25.188 51.4212C24.5933 51.8877 23.8395 52.1024 23.0883 52.0193C23.0403 52.0134 22.9966 51.9887 22.9668 51.9507C22.937 51.9126 22.9234 51.8643 22.9292 51.8163C23.0273 51.0669 23.4157 50.386 24.0109 49.9202C24.515 49.5253 25.1362 49.3093 25.7765 49.3062C25.8961 49.3107 26.0164 49.317 26.1373 49.331C26.1588 49.3341 26.1795 49.3416 26.198 49.3531C26.2165 49.3645 26.2324 49.3797 26.2448 49.3976C26.2571 49.4156 26.2656 49.4359 26.2696 49.4573C26.2737 49.4787 26.2733 49.5007 26.2684 49.5219C26.2255 49.8947 26.1078 50.255 25.9225 50.5813C25.7372 50.9077 25.4881 51.1933 25.1899 51.4212H25.188ZM48.0042 70.9409C43.1645 70.9351 38.5248 69.01 35.1027 65.5878C31.6806 62.1656 29.7556 57.5258 29.7501 52.6861C29.6402 50.4933 30.3039 48.3314 31.6252 46.5778C31.8472 46.2495 32.0674 45.9244 32.2615 45.5827C32.2914 45.5286 32.3416 45.5414 32.3378 45.6018C32.2863 46.289 32.1813 47.0182 32.0636 47.8218C31.7955 49.4301 31.65 51.0564 31.6283 52.6868C31.6329 57.029 33.3597 61.1921 36.43 64.2628C39.5003 67.3334 43.6632 69.0607 48.0055 69.0657C52.3478 69.0607 56.5108 67.3334 59.5811 64.2628C62.6515 61.1921 64.3785 57.0291 64.3832 52.6868C64.3615 51.0564 64.2156 49.43 63.9467 47.8218C63.829 47.0182 63.7247 46.289 63.6731 45.6018C63.6687 45.5382 63.7189 45.5286 63.7495 45.5827C63.9404 45.9244 64.1605 46.2495 64.3857 46.5778C65.707 48.3314 66.3706 50.4933 66.2609 52.6861C66.2551 57.5258 64.33 62.1655 60.9078 65.5876C57.4856 69.0097 52.8457 70.9347 48.0061 70.9402L48.0042 70.9409ZM73.0785 51.8201C73.0839 51.868 73.0703 51.9161 73.0405 51.9539C73.0107 51.9918 72.9673 52.0164 72.9195 52.0224C72.1682 52.106 71.4142 51.8912 70.8198 51.4244C70.5214 51.197 70.2719 50.9119 70.086 50.586C69.9002 50.2601 69.7819 49.9002 69.7381 49.5276C69.7333 49.5063 69.733 49.4844 69.7371 49.463C69.7413 49.4416 69.7498 49.4212 69.7622 49.4033C69.7745 49.3854 69.7905 49.3703 69.809 49.3588C69.8275 49.3473 69.8482 49.3398 69.8698 49.3368C69.9907 49.3228 70.111 49.3158 70.2306 49.3126C70.8709 49.3149 71.4922 49.5304 71.9962 49.9253C72.5921 50.3903 72.9814 51.0708 73.0805 51.8201H73.0785ZM75.1235 46.6574C74.7504 46.9259 74.2983 47.0623 73.8389 47.0449C73.7536 47.0385 73.6671 47.0303 73.5812 47.0169C73.5657 47.014 73.551 47.0078 73.538 46.9989C73.525 46.99 73.514 46.9784 73.5057 46.965C73.4974 46.9516 73.4919 46.9367 73.4897 46.921C73.4875 46.9054 73.4885 46.8896 73.4928 46.8744C73.5352 46.6085 73.6306 46.3539 73.7733 46.1257C73.9161 45.8975 74.1033 45.7003 74.3237 45.5458C74.7641 45.2293 75.3109 45.0979 75.847 45.1799C75.8639 45.1827 75.8801 45.1888 75.8947 45.1979C75.9093 45.2069 75.9219 45.2188 75.9319 45.2327C75.9419 45.2467 75.949 45.2625 75.9529 45.2792C75.9568 45.2959 75.9573 45.3132 75.9545 45.3301C75.8629 45.8641 75.5652 46.3408 75.1254 46.6574H75.1235Z" fill="black"/>
</svg>
