<svg width="96" height="96" viewBox="0 0 96 96" fill="none" xmlns="http://www.w3.org/2000/svg">
<circle cx="48" cy="48" r="47" fill="white" stroke="white" stroke-width="2"/>
<path d="M40.0363 60.1149L27.0815 71.962C28.5077 73.7453 30.0528 75.4014 31.8356 76.93L42.4134 62.5352C41.5814 61.7709 40.7495 61.0066 40.0363 60.1149Z" fill="#05C3DD"/>
<path d="M36.1146 47.1212L19.1189 45.5925C19 46.6116 19 47.6307 19 48.5224C19 49.9237 19.1189 51.325 19.2377 52.7263L36.2335 50.5606C36.1146 49.9237 36.1146 49.1593 36.1146 48.5224C36.1146 48.1403 36.1146 47.6307 36.1146 47.1212Z" fill="#05C3DD"/>
<path d="M22.8037 31.9612C21.734 34.1268 20.9021 36.2924 20.3078 38.5854L36.7093 43.6808C37.0659 42.5344 37.4225 41.5153 37.8978 40.4962L22.8037 31.9612Z" fill="#002855"/>
<path d="M42.5318 14.2539C40.3925 15.0182 38.372 15.9099 36.4705 17.0564L44.6713 32.9799C45.622 32.4704 46.6916 31.9608 47.6425 31.5787L42.5318 14.2539Z" fill="#002855"/>
<path d="M68.3238 16.6751C66.4222 15.5287 64.2828 14.6369 62.1435 14L57.2706 31.5795C58.3403 31.9616 59.2911 32.3438 60.2419 32.8534L68.3238 16.6751Z" fill="#002855"/>
<path d="M60.9546 75.5288C62.6185 74.8919 64.1635 74.1275 65.7086 73.2359L60.8357 63.9365C59.8849 64.5735 58.9341 64.9556 57.8644 65.3378L60.9546 75.5288Z" fill="#002855"/>
<path d="M26.0114 57.8209C26.6057 59.7317 27.3188 61.515 28.2696 63.2985L38.2531 57.3113C37.7777 56.2922 37.3023 55.273 36.9458 54.1266L26.0114 57.8209Z" fill="#002855"/>
<path d="M41.9389 35.0199L34.5701 25.5931C33.1438 26.867 31.8365 28.2682 30.7669 29.797L39.6807 37.4402C40.3938 36.5485 41.107 35.7841 41.9389 35.0199Z" fill="#05C3DD"/>
<path d="M54.1799 30.9433L55.2496 17.5676C54.4177 17.4402 53.4669 17.4402 52.6349 17.4402C51.5652 17.4402 50.6144 17.4402 49.5447 17.5676L50.971 30.9433C51.5652 30.9433 52.1595 30.8159 52.6349 30.8159C53.1103 30.8159 53.7045 30.8159 54.1799 30.9433Z" fill="#05C3DD"/>
<path d="M65.7091 59.4777C64.996 60.3694 64.2828 61.2611 63.4509 62.0255L72.8402 73.6177C74.3853 72.2165 75.8114 70.5604 77 68.9044L65.7091 59.4777Z" fill="#05C3DD"/>
<path d="M65.3517 37.3131L76.4049 27.5043C75.0975 25.8482 73.6713 24.3196 72.1262 22.9183L63.0935 34.8928C63.9255 35.5297 64.7574 36.4214 65.3517 37.3131Z" fill="#05C3DD"/>
<path d="M45.1471 64.4453L39.9176 75.2732C41.5816 76.1649 43.2455 76.9293 45.0283 77.4389L48.1184 65.7192C47.1676 65.337 46.2168 64.9549 45.1471 64.4453Z" fill="#002855"/>
<path d="M52.6345 66.3569C52.2779 66.3569 51.8025 66.3569 51.4459 66.3569L50.3763 81.6434C51.0894 81.6434 51.9213 81.7708 52.6345 81.7708C53.9418 81.7708 55.1303 81.6434 56.4377 81.516L54.6549 66.2295C54.0606 66.2295 53.3476 66.3569 52.6345 66.3569Z" fill="#05C3DD"/>
</svg>
