<svg width="96" height="96" viewBox="0 0 96 96" fill="none" xmlns="http://www.w3.org/2000/svg">
<circle cx="48" cy="48" r="47" fill="white" stroke="white" stroke-width="2"/>
<g clip-path="url(#clip0_1_2709)">
<path d="M69.907 49.2204C71.1476 50.728 72.362 49.2727 72.362 49.2727C72.3213 49.1809 72.1849 49.0735 72.1849 49.0735C71.1345 49.8732 70.1392 49.0608 70.1392 49.0608C69.9201 49.2077 69.907 49.2204 69.907 49.2204Z" fill="black"/>
<path d="M72.6899 48.6074L72.6202 49.4608L71.9383 48.9931C72.3474 48.9013 72.6899 48.6074 72.6899 48.6074Z" fill="black"/>
<path d="M69.6328 48.6074L69.7025 49.4608L70.3844 48.9931C69.9738 48.9013 69.6328 48.6074 69.6328 48.6074Z" fill="black"/>
<path d="M70.3292 47.7554H71.9789V47.9292H70.3292V47.7554Z" fill="black"/>
<path d="M71.0242 47.6211H71.2578V49.8733H71.0242V47.6211Z" fill="black"/>
<path d="M71.4624 47.3611C71.4624 47.5349 71.3173 47.6747 71.1403 47.6747C70.9647 47.6747 70.8196 47.5349 70.8196 47.3611C70.8196 47.1887 70.9647 47.0488 71.1403 47.0488C71.3173 47.0488 71.4624 47.1887 71.4624 47.3611Z" fill="black"/>
<path d="M70.766 49.6882L71.1606 50.1545L71.5567 49.7009L70.766 49.6882Z" fill="black"/>
<path d="M9.296 53.3942C35.325 40.1963 77.4778 42.2493 86.6997 44.996C87.2481 45.1584 74.3395 46.755 73.1396 56.9406C73.128 57.0353 73.1672 56.9929 72.7842 56.9675C72.7842 56.9675 72.375 54.5288 74.5847 50.7295C76.1517 48.0365 77.4169 47.3131 78.0509 46.5699C35.7342 41.9314 15.5319 51.4487 9.59488 53.7686C9.18573 53.9269 9.296 53.3942 9.296 53.3942Z" fill="#16467A"/>
<path d="M38.5707 53.9142H37.024C36.9123 53.9142 36.8339 53.9552 36.8035 54.088L36.2652 56.1876C36.2275 56.3218 36.287 56.3613 36.3972 56.3613H37.9439L37.8394 56.7838H35.7879C35.3337 56.7838 35.1872 56.538 35.2887 56.1367L35.7995 54.1417C35.9039 53.7404 36.1796 53.4932 36.6308 53.4932H38.6838L38.5707 53.9142Z" fill="black"/>
<path d="M41.0662 54.8497H40.097C39.9751 54.8497 39.9229 54.8963 39.8924 55.015L39.4397 56.7839H38.5242L39.1409 54.3665H39.9664L39.9359 54.6293H39.9461C40.0099 54.4555 40.1449 54.3665 40.4147 54.3665H41.1881L41.0662 54.8497Z" fill="black"/>
<path d="M44.4395 55.7948H42.3981L42.282 56.2371C42.2559 56.3459 42.282 56.4024 42.3909 56.4024H44.2277L44.1334 56.7825H41.8337C41.4014 56.7825 41.2911 56.5409 41.3868 56.1608L41.6857 54.9881C41.7815 54.6066 42.018 54.365 42.4489 54.365H44.1958C44.6281 54.365 44.737 54.6066 44.6427 54.9881L44.4395 55.7948ZM43.6386 54.7479H42.8174C42.7072 54.7479 42.6491 54.803 42.623 54.9118L42.491 55.4162H43.6183L43.7489 54.9118C43.7765 54.803 43.7504 54.7479 43.6386 54.7479Z" fill="black"/>
<path d="M47.8012 56.7838H46.8872L46.9437 56.5591H46.9336C46.8697 56.6863 46.7392 56.7838 46.6303 56.7838H45.4392C45.0808 56.7838 44.8936 56.5987 45.0024 56.1621L45.3028 54.9936C45.4116 54.5669 45.6699 54.3663 46.0558 54.3663H47.1918C47.3601 54.3663 47.3906 54.4638 47.4167 54.6135H47.4385L47.7287 53.4917H48.6427L47.8012 56.7838ZM47.2441 54.7478H46.4432C46.3271 54.7478 46.2691 54.7986 46.2386 54.9117L45.8962 56.2384C45.8657 56.3613 45.902 56.4037 46.0181 56.4037H46.8393C46.9394 56.4037 46.996 56.3472 47.0221 56.2384L47.3645 54.9117C47.3979 54.7944 47.3645 54.7478 47.2441 54.7478Z" fill="black"/>
<path d="M49.4814 56.7838H48.5659L49.1825 54.3664H50.0965L49.4814 56.7838ZM50.1589 54.1304H49.2434L49.3914 53.554H50.3069L50.1589 54.1304Z" fill="black"/>
<path d="M52.9171 54.7267H52.0292L51.6548 56.1877C51.6186 56.3318 51.6548 56.4038 51.8028 56.4038H52.7125L52.6182 56.7839H51.192C50.7596 56.7839 50.6595 56.4957 50.7596 56.1099L51.1122 54.7267H50.632L50.7219 54.3664H51.2022L51.3284 53.8733L52.2758 53.7546L52.1191 54.3664H53.0071L52.9171 54.7267Z" fill="black"/>
<path d="M58.8484 56.2228C58.77 56.5266 58.4378 56.7823 58.1171 56.7823H56.022C55.6999 56.7823 55.4953 56.5252 55.5751 56.2228L56.2759 53.4917H57.264L56.5632 56.2228C56.5371 56.3246 56.5893 56.3613 56.6851 56.3613H58.1998C58.2956 56.3613 58.3696 56.3246 58.3957 56.2228L59.0965 53.4917H59.5477L58.8484 56.2228Z" fill="black"/>
<path d="M62.3421 56.7839H61.4266L61.9068 54.9118C61.9329 54.7988 61.901 54.7479 61.7849 54.7479H61.0174C60.897 54.7479 60.8448 54.7946 60.8128 54.9118L60.3355 56.7839H59.42L60.0352 54.3665H60.9188L60.8549 54.6137H60.8651C60.955 54.4442 61.0493 54.3665 61.2176 54.3665H62.3653C62.7498 54.3665 62.9123 54.5671 62.802 54.9938L62.3421 56.7839Z" fill="black"/>
<path d="M63.9685 56.7838H63.0544L63.6696 54.3664H64.5851L63.9685 56.7838ZM64.6475 54.1304H63.732L63.8786 53.554H64.7941L64.6475 54.1304Z" fill="black"/>
<path d="M67.7945 56.1622C67.7002 56.5423 67.4623 56.7839 67.0314 56.7839H65.2859C64.8536 56.7839 64.7433 56.5423 64.8391 56.1622L65.1379 54.9895C65.2322 54.6081 65.4702 54.3665 65.9011 54.3665H67.648C68.0804 54.3665 68.1892 54.6081 68.0949 54.9895L67.7945 56.1622ZM67.0894 54.7479H66.2682C66.1579 54.7479 66.0984 54.803 66.0723 54.9118L65.7299 56.2385C65.7038 56.3473 65.7299 56.4039 65.8402 56.4039H66.6599C66.7716 56.4039 66.8297 56.3473 66.8558 56.2385L67.1968 54.9118C67.2272 54.803 67.2011 54.7479 67.0894 54.7479Z" fill="black"/>
<path d="M71.2215 56.7839H70.306L70.7863 54.9118C70.8124 54.7988 70.7805 54.7479 70.6644 54.7479H69.8969C69.775 54.7479 69.7228 54.7946 69.6923 54.9118L69.212 56.7839H68.298L68.9132 54.3665H69.7967L69.7329 54.6137H69.7431C69.833 54.4442 69.9259 54.3665 70.0956 54.3665H71.2418C71.6278 54.3665 71.7888 54.5671 71.68 54.9938L71.2215 56.7839Z" fill="black"/>
<path d="M71.3014 47.3612C71.3014 47.4488 71.2288 47.518 71.1403 47.518C71.0533 47.518 70.9807 47.4488 70.9807 47.3612C70.9807 47.275 71.0533 47.2043 71.1403 47.2043C71.2288 47.2043 71.3014 47.275 71.3014 47.3612Z" fill="white"/>
<path d="M17.2077 52.134C17.5559 51.6663 17.8243 51.217 18.116 50.0754L20.1211 42.2169C20.4127 41.0766 20.3736 40.6273 20.2633 40.1597H25.6998C25.3516 40.6273 25.0832 41.0766 24.7915 42.2169L22.7864 50.0754C22.4948 51.2156 22.5339 51.6649 22.6442 52.134H17.2077Z" fill="black" stroke="white" stroke-width="0.883007"/>
<path d="M33.6231 50.1517C34.1585 50.1517 35.1364 50.0768 35.7342 49.7575L34.7258 52.134H24.1561C24.5057 51.6663 24.7741 51.217 25.0658 50.0754L27.0709 42.2169C27.3625 41.0766 27.3234 40.6273 27.2131 40.1597H32.6496C32.3014 40.6273 32.033 41.0766 31.7413 42.2169L29.7173 50.1503H33.6231V50.1517Z" fill="black" stroke="white" stroke-width="0.883007"/>
<path d="M45.6902 44.202H45.6525L41.6567 52.1355H37.1952L37.1169 41.7153C37.1024 40.9467 36.921 40.5356 36.7295 40.1611H42.2821C42.1297 40.3858 42.0325 40.5356 41.928 40.9467C41.8337 41.3211 41.7888 41.6404 41.7815 42.1265L41.7264 47.8883H41.7626L45.6496 40.1611H50.3215L50.3563 47.9081H50.394L53.2668 42.1265C53.4902 41.6955 53.6397 41.266 53.7195 40.9467C53.7964 40.6486 53.8297 40.366 53.747 40.1611H56.7155C56.4674 40.3858 55.9886 40.7602 55.372 41.9753L50.2707 52.1355H45.7526L45.6902 44.202Z" fill="black" stroke="white" stroke-width="0.883007"/>
<path d="M64.6012 50.1517C65.9026 50.1517 66.0318 50.0203 66.3031 48.955L67.9977 42.313C68.3416 40.9665 68.3474 40.7235 68.0877 40.1611H71.0359C70.4918 40.7235 70.3714 40.9665 70.0275 42.313L68.4664 48.4308C67.7685 51.1606 66.7558 52.1355 64.0934 52.1355H57.8908C55.4983 52.1355 54.8091 50.9373 55.4475 48.4308L57.0319 42.2183C57.3235 41.0781 57.2843 40.6288 57.1741 40.1611H62.6106C62.2623 40.6288 61.9939 41.0781 61.7023 42.2183L59.9656 49.0285C59.7654 49.8141 60.0236 50.1517 60.8463 50.1517H64.6012Z" fill="black" stroke="white" stroke-width="0.883007"/>
</g>
<defs>
<clipPath id="clip0_1_2709">
<rect width="78" height="17" fill="white" transform="translate(9 40)"/>
</clipPath>
</defs>
</svg>
