<svg width="96" height="96" viewBox="0 0 96 96" fill="none" xmlns="http://www.w3.org/2000/svg">
<circle cx="48" cy="48" r="47" fill="white" stroke="white" stroke-width="2"/>
<path d="M20.4959 58.9426C19.8092 58.8406 19.3971 58.4627 19.2597 57.8028C19.2179 57.6229 19.194 56.675 19.194 55.4694V53.4298H17.9997V52.0501H19.1343V51.0004C19.1343 50.4245 19.1522 49.9506 19.1702 49.9506C19.1881 49.9506 19.5583 49.8546 19.9943 49.7407C20.4303 49.6267 20.8184 49.5307 20.8602 49.5307C20.908 49.5307 20.926 49.8906 20.926 50.7904V52.0501H22.5981V53.4298H20.914L20.9378 55.1874C20.9617 57.077 20.9856 57.227 21.2961 57.3949C21.4335 57.4669 21.9949 57.4789 22.3711 57.4189L22.5981 57.3769V58.8166L22.4368 58.8527C21.7262 59.0026 21.0931 59.0326 20.4959 58.9426ZM36.0052 58.9426C34.6615 58.7446 33.8016 57.9768 33.5328 56.7291C33.4014 56.1292 33.3835 55.2474 33.491 54.6296C33.6941 53.4718 34.2853 52.644 35.2348 52.1881C35.6648 51.9842 35.7425 51.9662 36.3815 51.9422C36.8055 51.9242 37.1936 51.9422 37.4027 51.9902C38.4 52.2061 39.1226 52.9799 39.3496 54.0717C39.4392 54.4855 39.469 55.3853 39.4033 55.6373L39.3675 55.7693H35.1871L35.2229 56.0572C35.3304 56.7951 35.6051 57.197 36.1784 57.4549C36.7219 57.6949 37.97 57.6049 38.7643 57.263L39.0151 57.155L39.045 57.317C39.0629 57.4069 39.1047 57.7189 39.1465 58.0068C39.2361 58.6307 39.2719 58.5887 38.5612 58.7627C37.6953 58.9846 36.7398 59.0506 36.0052 58.9426ZM37.6714 54.2576C37.5818 53.6278 37.1459 53.2499 36.5188 53.2499C35.9992 53.2499 35.617 53.5138 35.3841 54.0297C35.1572 54.5336 35.0975 54.5096 36.483 54.5096H37.7072L37.6714 54.2576ZM48.8808 58.9426C48.6002 58.9126 48.3732 58.8826 48.3673 58.8706C48.3612 58.8646 48.3732 58.5287 48.3852 58.1208C48.409 57.4669 48.421 57.3829 48.5106 57.4189C48.7793 57.5269 49.7766 57.6409 50.0752 57.6049C50.6486 57.533 51.0128 57.209 50.9412 56.8311C50.8815 56.5132 50.6665 56.3452 49.9678 56.0693C49.6154 55.9313 49.2033 55.7454 49.0659 55.6614C48.0687 55.0855 47.9373 53.5978 48.8032 52.692C49.06 52.4221 49.7169 52.0921 50.2006 51.9902C50.5052 51.9182 52.3088 51.9302 52.3565 51.9962C52.3625 52.0081 52.3625 52.3381 52.3505 52.734L52.3267 53.4418L52.1415 53.4058C51.1263 53.1959 50.4813 53.2499 50.2186 53.5558C49.9319 53.9037 50.0693 54.2936 50.5589 54.5276C50.7321 54.6116 51.1382 54.7915 51.4607 54.9295C52.0998 55.2054 52.464 55.5054 52.6671 55.9193C52.7626 56.1112 52.7865 56.2852 52.7865 56.7591C52.7865 57.311 52.7746 57.3829 52.6133 57.6769C52.2909 58.2647 51.7056 58.6787 50.9531 58.8586C50.4634 58.9786 49.5079 59.0146 48.8808 58.9426ZM65.1784 58.9246C64.4797 58.7686 64.0796 58.4147 63.8944 57.7909C63.5779 56.7112 64.1273 55.6434 65.2561 55.1454C65.7099 54.9416 66.4982 54.7616 67.1372 54.7136L67.6867 54.6716V54.3356C67.6867 53.9157 67.5433 53.6218 67.2686 53.4598C67.0895 53.3578 66.9581 53.3398 66.3728 53.3398C65.6382 53.3458 65.2262 53.4298 64.6887 53.6998C64.5275 53.7838 64.4021 53.8377 64.3961 53.8317C64.3603 53.6878 64.2468 52.3681 64.2767 52.3381C64.3424 52.2721 65.1366 52.0561 65.5965 51.9842C65.8592 51.9422 66.4146 51.9302 66.9402 51.9422C67.7524 51.9662 67.8719 51.9842 68.2541 52.1401C68.9229 52.4161 69.2992 52.872 69.4186 53.5618C69.4485 53.7358 69.4843 55.0075 69.4902 56.3872L69.5082 58.8886H67.8658V57.9168L67.5911 58.2228C67.2686 58.5827 66.7371 58.8646 66.2235 58.9487C65.7756 59.0206 65.5965 59.0206 65.1784 58.9246ZM66.767 57.5149C67.2806 57.281 67.6867 56.6451 67.6867 56.0633C67.6867 55.8294 67.6867 55.8234 67.4956 55.8533C67.3881 55.8713 67.1432 55.9013 66.9461 55.9193C66.1519 56.0093 65.6622 56.2853 65.5308 56.7292C65.4711 56.9211 65.4771 56.9931 65.5726 57.191C65.7756 57.5989 66.2773 57.7369 66.767 57.5149ZM10.0629 58.8886C8.51015 58.5647 7.49491 57.5869 7.13062 56.0632C6.89771 55.0974 6.91557 53.7418 7.16645 52.74C7.21423 52.542 7.37547 52.1281 7.52477 51.8222C7.99656 50.8444 8.85055 50.1246 9.96731 49.7706C10.5585 49.5847 11.9859 49.5367 12.8637 49.6747C13.2041 49.7287 13.4908 49.7826 13.5027 49.7946C13.5207 49.8126 13.3474 51.4083 13.3235 51.4323C13.3175 51.4383 13.0548 51.3843 12.7443 51.3183C11.9082 51.1443 10.8751 51.1803 10.4033 51.4023C9.6926 51.7322 9.25068 52.3441 9.04166 53.2919C8.69528 54.8575 9.1611 56.4232 10.1404 56.999C10.7675 57.3649 11.8723 57.4189 12.8637 57.131C13.1444 57.047 13.3773 56.981 13.3773 56.987C13.3833 56.9931 13.4311 57.347 13.4848 57.7729C13.5684 58.4028 13.5744 58.5587 13.5087 58.5947C13.4669 58.6247 13.1922 58.7027 12.8936 58.7807C12.4636 58.8827 12.1471 58.9127 11.3409 58.9246C10.7855 58.9366 10.2062 58.9186 10.0629 58.8886ZM15.0734 55.4694V52.0501H16.865V58.8886H15.0734V55.4694ZM24.1508 55.4694V52.0501H25.9424V58.8886H24.1508V55.4694ZM27.4354 58.2468C27.4354 57.533 27.4055 57.623 27.9549 56.8191C28.1162 56.5911 28.5581 55.9433 28.9343 55.3794C29.3165 54.8215 29.7405 54.1977 29.8779 53.9997L30.1287 53.6398L28.8149 53.6218L27.4951 53.6098V52.0501H32.2727V53.3698L31.8367 54.0117C31.1917 54.9595 30.3855 56.1532 30.0213 56.6931C29.8481 56.951 29.7048 57.173 29.7048 57.1849C29.7048 57.1969 30.2959 57.2089 31.0186 57.2089H32.3324V58.8885H27.4354V58.2468ZM40.8724 55.4694V52.0501H42.5625L42.5207 52.566L42.4848 53.0759L42.8073 52.728C43.0223 52.494 43.2731 52.3021 43.5418 52.1701C43.9419 51.9602 43.9539 51.9602 44.7243 51.9602C45.4827 51.9602 45.5067 51.9662 45.8292 52.1461C46.2173 52.3681 46.504 52.716 46.6473 53.1479C46.7309 53.4178 46.7488 53.8197 46.7727 56.1772L46.7966 58.8886H44.9931V56.4891C44.9931 53.8797 44.987 53.8137 44.6646 53.5618C44.4675 53.4058 44.0196 53.3818 43.721 53.5138C43.4881 53.6158 43.1059 53.9817 42.9805 54.2277C42.658 54.8575 42.646 54.9655 42.6162 56.987L42.5923 58.8886H40.8724V55.4694ZM56.519 54.2816V49.6687L56.9251 49.6327C57.7134 49.5547 60.2456 49.5847 60.7174 49.6747C61.5534 49.8366 62.2462 50.2985 62.5149 50.8744C62.7777 51.4323 62.7777 52.2481 62.5149 52.8C62.3656 53.1239 61.9117 53.5978 61.5713 53.7957C61.4041 53.8917 61.3145 53.9697 61.3743 53.9697C61.5833 53.9697 62.0491 54.2396 62.3237 54.5216C62.9628 55.1814 63.0763 56.4112 62.5746 57.329C62.3656 57.7129 61.8281 58.2288 61.422 58.4327C60.7113 58.7986 60.3649 58.8466 58.3583 58.8765L56.519 58.9005L56.519 54.2816ZM60.2336 57.197C60.98 56.8491 61.201 55.9493 60.6934 55.3314C60.4187 54.9954 59.9887 54.8575 59.075 54.8215L58.3106 54.7915V56.0572C58.3106 57.011 58.3285 57.329 58.3882 57.353C58.424 57.371 58.7824 57.3769 59.1765 57.371C59.8096 57.3589 59.935 57.335 60.2336 57.197ZM59.929 53.3159C60.2754 53.2079 60.6696 52.818 60.7591 52.5C60.8487 52.1761 60.8009 51.8042 60.6337 51.5343C60.4127 51.1683 59.6423 50.9764 58.7525 51.0604L58.3106 51.1023V53.4418L59.0153 53.4118C59.3975 53.3998 59.8096 53.3518 59.929 53.3159ZM71.2101 55.4694V52.0501H72.9002L72.8643 52.596L72.8226 53.1479L72.9957 52.9079C73.2226 52.596 73.5451 52.3321 73.9573 52.1281C74.2618 51.9722 74.3394 51.9662 75.0621 51.9602C75.713 51.9602 75.8743 51.9782 76.0773 52.0801C76.4475 52.2661 76.794 52.638 76.9492 53.0399C77.0926 53.3998 77.0926 53.4118 77.1105 56.1472L77.1284 58.8886H75.3308V56.4771C75.3308 54.2157 75.3189 54.0417 75.2114 53.8017C75.1397 53.6458 75.0382 53.5258 74.9426 53.4898C74.6918 53.3938 74.2677 53.4178 74.023 53.5498C73.7064 53.7118 73.3302 54.1557 73.169 54.5636C73.0376 54.8874 73.0316 54.9835 73.0136 56.897L72.9957 58.8885H71.2101V55.4694ZM78.8543 53.8797V48.8708H80.5862L80.5981 51.8342L80.616 54.8035L80.8668 54.4316C81.0878 54.1137 81.5655 53.4238 82.3299 52.3381L82.5271 52.0561L83.6199 52.0501H84.7187L84.5158 52.3141C84.4083 52.464 84.0858 52.884 83.7991 53.2619C82.6525 54.7615 82.3778 55.1334 82.3778 55.1754C82.3778 55.1994 82.4972 55.3853 82.6405 55.5953C82.7898 55.8052 83.0824 56.2371 83.2974 56.5491C83.5125 56.861 83.8409 57.3349 84.026 57.5988C84.2111 57.8628 84.45 58.2167 84.5635 58.3907C84.671 58.5586 84.7904 58.7145 84.8262 58.7386C85.0233 58.8586 84.8023 58.8885 83.7692 58.8765L82.6583 58.8586L81.6371 57.2329L80.6159 55.6013L80.5979 57.2449L80.5862 58.8886H78.8543V53.8797ZM86.7314 54.0417C86.5284 53.9397 86.3432 53.7778 86.2298 53.6158C86.0744 53.3938 86.0506 53.2979 86.0326 52.8959C86.0028 52.3321 86.1222 52.0501 86.5164 51.7262C86.9643 51.3603 87.5794 51.3063 88.0811 51.6002C88.5648 51.8822 88.7679 52.2421 88.7679 52.83C88.7678 53.8977 87.6809 54.5396 86.7314 54.0417ZM87.7287 53.9397C87.8959 53.8917 88.093 53.7838 88.1706 53.6998L88.308 53.5498H88.0929C87.9078 53.5498 87.8422 53.5078 87.6271 53.2499C87.4898 53.0879 87.3285 52.9499 87.2628 52.9499C87.1732 52.9499 87.1553 52.9979 87.1553 53.2499C87.1553 53.5318 87.1434 53.5498 87.006 53.5498H86.8567V52.0501H87.3046C87.7047 52.0501 87.7763 52.0681 87.9018 52.2001C88.0929 52.3861 88.0929 52.554 87.8958 52.746L87.7465 52.9019L88.0033 53.1899C88.1466 53.3458 88.2781 53.4778 88.2959 53.4838C88.4094 53.5018 88.5467 53.1359 88.5467 52.812C88.5467 52.524 88.5169 52.4221 88.3735 52.2121C88.0391 51.7382 87.5972 51.5522 87.1075 51.6842C86.4625 51.8582 86.0684 52.518 86.2535 53.1239C86.355 53.4718 86.7014 53.8317 87.0239 53.9337C87.3823 54.0477 87.3763 54.0477 87.7287 53.9397ZM87.6212 52.638C87.8063 52.452 87.669 52.2901 87.3286 52.2901C87.1673 52.2901 87.1554 52.3081 87.1554 52.5C87.1554 52.698 87.1673 52.71 87.3525 52.71C87.46 52.71 87.5794 52.68 87.6212 52.638ZM15.366 51.3423C14.721 50.9224 14.7569 49.9626 15.4318 49.6027C15.6527 49.4827 15.7602 49.4647 16.0469 49.4887C16.638 49.5427 16.9845 49.9086 16.9845 50.4905C16.9845 51.0904 16.6201 51.4623 16.0051 51.4983C15.6825 51.5163 15.6109 51.4983 15.366 51.3423ZM24.5987 51.4263C24.1747 51.2403 23.9 50.6764 24.0254 50.2505C24.2225 49.5787 24.9212 49.2848 25.5602 49.5967C26.2649 49.9326 26.2768 51.0064 25.5841 51.3723C25.2915 51.5283 24.8793 51.5522 24.5987 51.4263Z" fill="#00A777"/>
<path d="M43.3877 45.3553C43.2443 45.7393 43.3816 46.2132 43.6982 46.4051C43.9192 46.5371 44.3313 46.5671 44.5403 46.4591C44.6119 46.4231 45.1076 45.9552 45.6451 45.4273L46.6126 44.4556V45.2234C46.6126 46.1052 46.6782 46.3031 47.0007 46.4411C47.4725 46.6391 47.9682 46.4711 48.1772 46.0452C48.2668 45.8712 48.2847 45.6733 48.2847 44.8935C48.2847 44.3716 48.2549 43.8797 48.219 43.7838C48.1235 43.5318 47.9324 43.3459 47.5979 43.1959C47.2336 43.0279 46.8514 42.644 46.6484 42.2241C46.5588 42.0561 46.4095 41.8462 46.308 41.7622C46.1229 41.6062 46.1229 41.6062 44.9762 41.6062H44.9762C43.8834 41.6062 43.8117 41.6122 43.6564 41.7382C43.34 41.9841 43.2444 42.4581 43.4235 42.8419C43.5788 43.1718 43.752 43.2258 44.6358 43.2258H45.4182L44.4328 44.2156C43.8893 44.7555 43.4175 45.2714 43.3877 45.3553Z" fill="#00A777"/>
<path d="M48.7028 46.1532C48.7684 46.2611 48.9118 46.3871 49.0193 46.4351C49.294 46.5551 49.6583 46.5431 49.8852 46.4051C50.1838 46.2192 50.2555 45.9792 50.2555 45.1694V44.4675L51.2409 45.4513C51.7783 45.9912 52.286 46.4531 52.3576 46.4831C52.4353 46.5131 52.6264 46.5251 52.7816 46.5071C53.128 46.4771 53.3908 46.2551 53.4804 45.9192C53.5998 45.4753 53.5341 45.3733 52.4473 44.2636L51.426 43.2258H52.2322C53.1161 43.2258 53.2236 43.1899 53.3967 42.8539C53.5222 42.614 53.5162 42.1941 53.3848 41.9781C53.1877 41.6362 53.0623 41.6062 51.856 41.6062C50.56 41.6062 50.4824 41.6302 50.2017 42.1941C49.9808 42.638 49.6105 43.0099 49.1686 43.2318C48.6132 43.5138 48.5833 43.5917 48.5833 44.8755C48.5833 45.8532 48.5953 45.9732 48.7028 46.1532Z" fill="#00A777"/>
<path d="M43.5728 39.8066C43.2444 40.1425 43.2503 40.7004 43.5967 41.0483L43.7938 41.2463H46.1227L46.3079 41.0903C46.4094 41.0063 46.5647 40.7844 46.6543 40.6104C46.8394 40.2265 47.2873 39.7826 47.6457 39.6266C47.9383 39.4947 48.1294 39.3087 48.219 39.0688C48.3145 38.8108 48.3026 37.0892 48.201 36.8493C48.0219 36.4173 47.5502 36.2254 47.0724 36.3814C46.7081 36.5013 46.6484 36.6693 46.6126 37.5751L46.5827 38.3729L45.6272 37.4191C45.1016 36.8972 44.6119 36.4353 44.5403 36.3994C44.3372 36.2854 43.9191 36.3154 43.6982 36.4473C43.3817 36.6393 43.2444 37.1132 43.3877 37.4971C43.4235 37.5871 43.8893 38.103 44.4268 38.6429L45.4062 39.6266H43.758L43.5728 39.8066Z" fill="#00A777"/>
<path d="M50.2017 40.6584C50.3092 40.8744 50.4526 41.0543 50.572 41.1263C50.7452 41.2343 50.8766 41.2463 51.856 41.2463C52.7637 41.2463 52.9847 41.2283 53.122 41.1503C53.5521 40.8923 53.6356 40.2205 53.2773 39.8426L53.0802 39.6266H51.426L52.4174 38.6249C53.4983 37.5271 53.5998 37.3651 53.4863 36.9452C53.4505 36.8133 53.337 36.6333 53.2415 36.5373C53.0743 36.3754 53.0145 36.3574 52.6681 36.3574H52.286L51.2707 37.3771L50.2555 38.3969V37.6891C50.2555 36.8732 50.1838 36.6333 49.8852 36.4473C49.5029 36.2134 48.9237 36.3394 48.7028 36.6993C48.5953 36.8792 48.5833 36.9992 48.5833 37.977C48.5833 39.2607 48.6132 39.3387 49.1686 39.6206C49.6106 39.8426 49.9808 40.2145 50.2017 40.6584Z" fill="#00A777"/>
</svg>
