<svg width="96" height="96" viewBox="0 0 96 96" fill="none" xmlns="http://www.w3.org/2000/svg">
<circle cx="48" cy="48" r="47" fill="white" stroke="white" stroke-width="2"/>
<g clip-path="url(#clip0_1_6400)">
<path d="M16.6576 48.731H14.6958V47.702H16.2087V46.937H14.6958V46.151H16.6576V46.7L17.4355 46.706V44.765L13.0477 44.759V46.145L13.7703 46.151V48.731L13.0477 48.725V50.129L17.4355 50.135V48.2L16.6576 48.191V48.74V48.731ZM63.5959 48.731H61.6341V47.702H63.1469V46.937H61.6341V46.151H63.5959V46.7L64.3738 46.706V44.765L59.986 44.759V46.145L60.7055 46.151V48.731L59.986 48.725V50.129L64.3738 50.135V48.2L63.5959 48.191V48.74V48.731ZM17.8414 44.747H20.1261V46.109H19.4281V48.713H21.4452V48.194H22.3123V50.129H17.8845V48.74H18.564V46.106H17.8507L17.8414 44.747ZM22.5645 44.735H24.8491V46.097H24.1542V48.701H26.1682V48.182H27.0384V50.117H22.6075V48.725H23.2871V46.094H22.5768L22.5645 44.735ZM31.8322 44.735V46.109H32.4626L33.8647 48.779H33.2374V50.129H35.396V48.785H34.6765L35.9679 46.76L37.1702 48.776H36.38V50.126H38.7046V48.785H37.9697L39.5963 46.145H40.1775V44.735H38.1204V46.109H38.6493L37.5823 47.669L36.5983 46.106H37.0872V44.735H34.8272V46.109H35.2976L34.3413 47.63L33.4742 46.106H34.0154V44.735H31.8322ZM41.2875 48.38V48.761C41.2875 48.974 41.4689 49.103 41.7979 49.103H42.8988C43.2954 49.103 43.4615 48.983 43.4615 48.701V48.059C43.4615 47.915 43.2616 47.759 42.8988 47.759H41.9086C40.9216 47.759 40.4942 47.402 40.4942 46.919V45.527C40.4942 44.975 41.6288 44.597 42.5544 44.597C42.6036 44.597 43.7167 44.69 44.0395 45.005C44.1686 45.1175 44.286 45.2421 44.3901 45.377V46.7H43.5906V46.148C43.5906 45.986 43.4399 45.911 43.1109 45.911H42.0747C41.6626 45.911 41.3736 45.98 41.3736 46.211V46.739C41.3736 46.994 41.595 47.039 41.9548 47.039L42.9111 47.081C43.852 47.081 44.4485 47.27 44.4485 47.831V49.43C44.4485 49.949 43.4246 50.357 42.4129 50.357C42.3606 50.357 40.4727 50.225 40.4634 49.556C40.4542 48.887 40.4634 48.371 40.4634 48.371H41.2998M44.7837 44.735H49.3776V46.7H48.5596V46.106H47.4804V48.776H48.2306V50.129H45.7707V48.77H46.604V46.106H45.5708V46.7H44.7929L44.7837 44.735ZM54.3251 46.106V44.735H55.758L58.0857 48.527V46.106H57.4676V44.735H59.6293V46.109H58.9835V48.776H59.6323V50.129H58.1164L55.7457 46.409V48.776H56.4006V50.129H54.3251V48.776H54.8939V46.106H54.3251ZM79.3578 46.106V44.735H80.7907L83.1215 48.527V46.106H82.5003V44.735H84.6651V46.109H84.0193V48.776H84.6681V50.129H83.1522L80.7815 46.409V48.776H81.4364V50.129H79.3578V48.776H79.9297V46.106H79.3578Z" fill="#FBD008"/>
<path d="M6 41.045V43.178H7.04239L9.6868 48.149V50.123H8.77356V52.232H11.9807V50.114H11.0029V48.194L13.6073 43.223H14.6435V41H11.2365V43.172H12.1498L10.3787 46.799L8.50911 43.223H9.37624V41.045H6ZM85.0217 46.106V44.717H87.0881V46.064H86.6545V47.027L88.0167 46.106H87.7553V44.75H90V46.064H89.1944L88.1735 47.015L89.3604 48.776H90V50.126H87.7553V48.776H88.3857L87.5339 47.429L86.6238 48.059V48.776H87.1496V50.099H85.0125V48.776H85.8212V46.079L85.0217 46.106ZM30.7037 48.641V46.46C30.7037 46.088 30.4854 45.956 29.9411 45.956H28.9971C28.4529 45.956 28.2346 46.088 28.2346 46.46V48.641C28.2346 49.013 28.4529 49.154 28.9971 49.154H29.9411C30.4854 49.154 30.7037 49.013 30.7037 48.641ZM31.5216 49.283C31.5216 49.997 30.7345 50.375 29.4276 50.375C28.1208 50.375 27.3951 49.982 27.3951 49.283V45.734C27.392 45.011 28.1392 44.6 29.4246 44.6C30.7099 44.6 31.5216 45.011 31.5216 45.734V49.283ZM53.1535 48.641V46.46C53.1535 46.088 52.9383 45.956 52.3909 45.956H51.447C50.9027 45.956 50.6844 46.088 50.6844 46.46V48.641C50.6844 49.013 50.9027 49.154 51.447 49.154H52.3909C52.9383 49.154 53.1535 49.013 53.1535 48.641ZM53.9684 49.283C53.9684 49.997 53.1812 50.375 51.8744 50.375C50.5675 50.375 49.8419 49.982 49.8419 49.283V45.734C49.8419 45.011 50.5983 44.591 51.8744 44.591C53.1966 44.591 53.9684 45.011 53.9684 45.734V49.283ZM76.1599 46.322L75.671 47.273H76.6488L76.1599 46.322ZM74.9084 48.776H75.5449V50.099H73.3402V48.776H73.9091L75.2743 46.106H74.9023V44.765H77.3437V46.1H76.9317L78.4015 48.77H79.038V50.093H76.8271V48.776H77.3991L77.0362 48.059H75.2528L74.9084 48.776ZM71.8243 48.839C71.8243 49.643 71.4984 49.91 70.5943 49.91H68.3374V46.964H70.5943C71.3016 46.964 71.8243 47.378 71.8243 47.963V48.839ZM68.2974 43.172H70.6128C71.4522 43.172 71.8427 43.394 71.8427 43.877V44.777C71.8427 45.503 71.5353 45.725 70.5236 45.725H68.2974V43.172ZM72.3101 46.337C72.9036 45.965 72.9928 45.977 72.9928 45.521V42.947C72.9928 41.771 71.8335 41.03 70.1146 41.03H66.0496V43.178H67.1289V50.129H66.0496V52.25H70.1085C71.852 52.25 72.9528 51.428 72.9528 50.15V48.05C72.9528 47.309 73.0727 46.727 72.3101 46.34M35.3806 54.338C35.356 54.11 35.2054 53.999 34.9194 53.999C34.698 53.999 34.4766 54.092 34.4766 54.299C34.4766 54.542 34.7441 54.569 34.984 54.617C35.4052 54.704 36.0294 54.803 36.0294 55.256C36.0294 55.814 35.4145 56.009 34.8333 56.009C34.2521 56.009 33.7479 55.808 33.7663 55.241H34.3813C34.3598 55.49 34.535 55.658 34.8456 55.658C35.0854 55.658 35.4022 55.598 35.4022 55.358C35.4022 55.118 35.0055 55.073 34.7656 55.025C34.3782 54.944 33.8432 54.803 33.8432 54.401C33.8432 53.885 34.4274 53.657 34.9993 53.657C35.5713 53.657 35.9556 53.894 35.9556 54.347L35.3806 54.338ZM37.3639 53.696H37.9605V55.955H37.3639V53.696ZM41.0354 55.952L39.9376 54.077L39.9315 54.083V55.952H39.3718V53.696H40.2574L41.3152 55.472L41.3213 55.466V53.696H41.881V55.952H41.0354ZM44.8636 54.428C44.8636 54.188 44.6914 53.999 44.3347 53.999C43.9104 53.999 43.8028 54.509 43.8028 54.824C43.8028 55.139 43.9104 55.649 44.3347 55.649C44.6914 55.649 44.8698 55.46 44.8636 55.22H45.5001C45.4724 55.787 44.9712 56 44.3347 56C43.5291 56 43.1663 55.484 43.1663 54.824C43.1663 54.164 43.5291 53.648 44.3347 53.648C44.9712 53.648 45.4724 53.861 45.5001 54.428H44.8636ZM46.81 53.696H48.6703V54.071H47.4065V54.599H48.5904V54.974H47.4065V55.577H48.7134V55.952H46.81V53.696ZM51.9143 54.104C52.1483 54.0281 52.3731 53.9275 52.5847 53.804H53.1228V55.967H52.5447V54.257C52.3454 54.3717 52.1341 54.4652 51.9143 54.536V54.104ZM55.4289 54.818C55.678 54.818 55.7733 54.65 55.7733 54.449C55.7733 54.248 55.678 54.053 55.4289 54.053C55.3765 54.0508 55.3243 54.0599 55.2758 54.0795C55.2274 54.0991 55.1839 54.1288 55.1484 54.1665C55.113 54.2042 55.0864 54.2491 55.0706 54.2979C55.0548 54.3467 55.0501 54.3982 55.0569 54.449C55.0506 54.4984 55.0558 54.5486 55.0721 54.5957C55.0885 54.6429 55.1156 54.6858 55.1514 54.7213C55.1872 54.7568 55.2307 54.784 55.2788 54.8007C55.3269 54.8175 55.3782 54.8234 55.4289 54.818ZM55.0907 55.418C55.0946 55.4891 55.1259 55.5562 55.1784 55.6057C55.2309 55.6553 55.3006 55.6836 55.3736 55.685C55.7949 55.685 55.7949 55.241 55.7733 54.992C55.6226 55.0944 55.4398 55.1422 55.2568 55.127C55.0636 55.1397 54.8728 55.0791 54.7244 54.9578C54.5759 54.8364 54.4813 54.6638 54.4604 54.476C54.4604 54.032 54.8755 53.738 55.4105 53.738C56.1485 53.738 56.3699 54.158 56.3699 54.701C56.3699 55.244 56.3145 56 55.3828 56C54.8908 56 54.5219 55.871 54.5065 55.421L55.0907 55.418ZM58.5161 54.053C58.1441 54.053 58.1748 54.821 58.1748 54.875C58.1748 54.929 58.1441 55.688 58.5161 55.688C58.8882 55.688 58.8575 54.926 58.8575 54.875C58.8575 54.824 58.8882 54.053 58.5161 54.053ZM58.5161 56C57.7843 56 57.5937 55.4 57.5937 54.875C57.5937 54.35 57.7874 53.741 58.5161 53.741C59.2449 53.741 59.4663 54.341 59.4663 54.875C59.4663 55.409 59.2572 56 58.5038 56M62.2337 53.789V54.194L61.4158 55.952H60.85L61.6956 54.14H60.5179V53.789H62.2337Z" fill="#FBD008"/>
</g>
<defs>
<clipPath id="clip0_1_6400">
<rect width="84" height="15" fill="white" transform="translate(6 41)"/>
</clipPath>
</defs>
</svg>
