<svg width="96" height="96" viewBox="0 0 96 96" fill="none" xmlns="http://www.w3.org/2000/svg">
<circle cx="48" cy="48" r="47" fill="white" stroke="white" stroke-width="2"/>
<path d="M33.5 19H62.5C70.4979 19 77 25.4821 77 33.5V62.5C77 70.4979 70.5179 77 62.5 77H33.5C25.5021 77 19 70.5179 19 62.5V33.5C19.0199 25.5021 25.5021 19 33.5 19Z" fill="#7ABA4C"/>
<path fill-rule="evenodd" clip-rule="evenodd" d="M32.9216 47.2421H64.0358C66.7483 47.0227 66.6885 33.9987 51.1314 32.6624C51.0516 32.4629 50.9718 32.2834 50.892 32.1039C50.7125 31.7249 50.533 31.3859 50.3336 31.0468C49.9147 30.3288 49.4361 29.7105 48.9175 29.2119C48.359 28.6534 47.7607 28.2545 47.1424 28.0152C46.6637 27.8157 46.185 27.716 45.7063 27.716C46.0255 28.095 46.2847 28.5138 46.4443 28.9725C46.6238 29.4712 46.7036 30.0097 46.6836 30.608C46.6637 31.1066 46.5839 31.6252 46.4443 32.1637C46.3645 32.443 46.3246 32.4629 46.1651 32.5427C30.2689 33.6596 30.1891 47.0227 32.9216 47.2421ZM50.7125 66.5688C65.771 63.6768 63.3178 48.3591 63.3178 48.3591H33.6396C33.6396 48.3591 31.0867 63.956 46.2449 66.5688C46.4642 66.7683 46.7435 67.0276 47.0227 67.3068C47.6011 67.8852 48.1995 68.4835 48.4787 68.4835C48.7579 68.4835 49.3563 67.8852 49.9347 67.3068C50.2139 67.0276 50.4732 66.7683 50.7125 66.5688Z" fill="white"/>
</svg>
