<svg width="96" height="96" viewBox="0 0 96 96" fill="none" xmlns="http://www.w3.org/2000/svg">
<circle cx="48" cy="48" r="47" fill="white" stroke="white" stroke-width="2"/>
<path fill-rule="evenodd" clip-rule="evenodd" d="M24.6594 55.5473C25.2298 55.5473 25.3893 55.844 25.3893 56.0953C25.3893 56.3233 25.2068 56.62 24.7505 56.62H24.591C24.4996 56.62 24.4769 56.5743 24.4769 56.5061C24.4769 56.3917 24.5226 56.0266 24.591 55.5473H24.6594ZM24.2029 54.5665H24.3624C24.4766 54.5665 24.4766 54.5665 24.4766 54.6803C24.4766 54.7714 24.2483 56.4834 24.2483 56.5519C24.2483 56.6203 24.2256 56.643 24.1569 56.643H24.02L23.9973 56.7341H24.7502C25.5489 56.7341 25.6173 56.2095 25.6173 56.0956C25.6173 55.8216 25.4574 55.6388 25.2065 55.5477C25.4574 55.3881 25.6627 55.2053 25.6627 54.9773C25.6627 54.7717 25.5943 54.4754 25.0923 54.4754H24.2253L24.2029 54.5665ZM24.7275 54.6346C24.7275 54.5889 24.7502 54.5889 24.819 54.5889C25.1157 54.5889 25.435 54.5889 25.435 55.0224C25.435 55.1819 25.2982 55.4102 25.093 55.5016C24.9372 55.4565 24.7759 55.4335 24.6137 55.4332L24.7275 54.6346ZM26.3478 56.62C26.1426 56.62 26.1195 56.3914 26.1195 56.2549C26.1195 55.6158 26.5074 55.2503 26.8725 55.2503C26.9182 55.2503 26.9639 55.2503 27.0093 55.2737L26.9636 55.5927C26.8955 56.2549 26.5304 56.62 26.3478 56.62ZM27.3747 56.4834C27.2833 56.5292 27.1465 56.5973 27.1238 56.5973C27.1007 56.5973 27.0553 56.5516 27.0553 56.4834C27.0553 55.9355 27.1238 55.5704 27.2606 55.0911C27.1465 55.0911 27.1465 55.1138 27.1465 55.2049C27.055 55.1822 26.9866 55.1592 26.9182 55.1592C26.3248 55.1592 25.8913 55.7529 25.8913 56.3003C25.8913 56.5058 25.9827 56.8022 26.2337 56.8022C26.5304 56.8022 26.7586 56.4144 26.8725 56.1637L26.8952 56.1864C26.8725 56.3233 26.8494 56.5061 26.8494 56.62C26.8494 56.7111 26.8952 56.8022 26.9179 56.8022C26.9863 56.8022 27.26 56.6427 27.3971 56.5516L27.3747 56.4834ZM27.831 56.7341H27.6484C27.7625 55.8671 27.8083 55.4792 27.8083 55.3878C27.8083 55.3194 27.8083 55.2967 27.7855 55.2967C27.7171 55.2967 27.603 55.3878 27.5573 55.4105L27.5116 55.3421C27.6941 55.2046 27.9451 55.1592 27.9908 55.1592C28.0135 55.1592 28.0365 55.1592 28.0365 55.1819C28.0365 55.2964 28.0138 55.5927 27.9681 55.821C28.0595 55.5924 28.3559 55.1589 28.6069 55.1589C28.7894 55.1589 28.8352 55.3191 28.8352 55.4786C28.8352 55.6381 28.721 56.3457 28.721 56.4595C28.721 56.5285 28.7667 56.5739 28.7894 56.5739C28.8121 56.5739 28.949 56.5055 29.0404 56.4595L29.0631 56.5285C28.9263 56.6197 28.6523 56.7792 28.5839 56.7792C28.5612 56.7792 28.5155 56.6881 28.5155 56.597C28.5155 56.4368 28.6523 55.7983 28.6523 55.547C28.6523 55.4559 28.6523 55.3421 28.5155 55.3421C28.3329 55.3421 27.9905 55.7299 27.8994 56.323L27.831 56.7341ZM29.4739 56.7341H29.2914C29.4285 55.6385 29.5654 54.6803 29.5654 54.4754C29.5654 54.4069 29.5654 54.3836 29.5197 54.3836C29.4966 54.3836 29.3598 54.4069 29.2687 54.4527L29.246 54.3836C29.4512 54.2698 29.6568 54.2241 29.7709 54.2241C29.7936 54.2241 29.7936 54.2468 29.7936 54.2698L29.7709 54.5895L29.6111 55.8217C29.7252 55.525 29.9989 55.1595 30.3183 55.1595C30.4781 55.1595 30.5693 55.274 30.5693 55.4335C30.5693 55.7302 30.3183 55.9355 30.0673 56.0266C30.2045 56.3463 30.3183 56.5519 30.4097 56.5519C30.4554 56.5519 30.5693 56.4601 30.615 56.4374L30.6607 56.4834C30.5466 56.5973 30.3183 56.7795 30.2499 56.7795C30.2042 56.7795 30.0673 56.5516 29.8621 56.0263C30.1361 55.9806 30.364 55.7756 30.364 55.5016C30.364 55.3878 30.3183 55.2967 30.1815 55.2967C30.0446 55.2967 29.6338 55.6385 29.5427 56.3233L29.4739 56.7341ZM30.7748 55.3424C30.9574 55.2049 31.1857 55.1595 31.2541 55.1595C31.2768 55.1595 31.2768 55.1595 31.2768 55.1822C31.2768 55.2507 31.1396 56.1868 31.1396 56.5061C31.1396 56.5519 31.1626 56.62 31.1853 56.62C31.2311 56.62 31.3452 56.5289 31.4363 56.4831L31.482 56.5516C31.3452 56.6654 31.0712 56.8022 31.0028 56.8022C30.9571 56.8022 30.9344 56.7111 30.9344 56.62C30.9344 56.4144 31.0715 55.6154 31.0715 55.3878C31.0715 55.3194 31.0488 55.2967 31.0258 55.2967C30.9801 55.2967 30.8433 55.3878 30.7975 55.4105L30.7748 55.3424ZM31.0715 54.7257C31.0715 54.6346 31.163 54.5435 31.2541 54.5435C31.2998 54.5435 31.3225 54.5892 31.3225 54.6573C31.3225 54.7254 31.2541 54.8401 31.163 54.8401C31.1169 54.8405 31.0715 54.7941 31.0715 54.7257ZM31.9613 56.7341H31.7787C31.8929 55.8671 31.9613 55.4792 31.9613 55.3878C31.9613 55.3194 31.9386 55.2967 31.9156 55.2967C31.8698 55.2967 31.733 55.3878 31.6873 55.4105L31.6646 55.3421C31.8471 55.2046 32.0754 55.1592 32.1438 55.1592C32.1665 55.1592 32.1665 55.1592 32.1665 55.1819C32.1665 55.2964 32.1438 55.5927 32.0981 55.821H32.1208C32.2123 55.5924 32.4859 55.1589 32.7596 55.1589C32.9195 55.1589 32.9879 55.3191 32.9879 55.4786C32.9879 55.6381 32.8737 56.3457 32.8737 56.4595C32.8737 56.5285 32.8968 56.5739 32.9195 56.5739C32.9652 56.5739 33.0793 56.5055 33.1704 56.4595L33.2161 56.5285C33.0566 56.6197 32.7826 56.7792 32.7369 56.7792C32.6912 56.7792 32.6685 56.6881 32.6685 56.597C32.6685 56.4368 32.8053 55.7983 32.8053 55.547C32.8053 55.4559 32.7826 55.3421 32.6685 55.3421C32.4632 55.3421 32.1208 55.7299 32.0297 56.323L31.9613 56.7341ZM33.9694 56.8022C34.1519 56.8706 34.4486 56.9624 34.4486 57.19C34.4486 57.464 34.0835 57.5551 33.8556 57.5551C33.6503 57.5551 33.3536 57.5094 33.3536 57.2354C33.3533 56.9397 33.7411 56.8252 33.9694 56.8022ZM33.4444 55.8213C33.4444 56.0263 33.5128 56.141 33.6954 56.2322C33.6497 56.2779 33.5582 56.3917 33.5582 56.4601C33.5582 56.5976 33.6724 56.6657 33.8319 56.7341V56.7568C33.5582 56.7795 33.1701 56.9397 33.1701 57.2588C33.1701 57.6012 33.5579 57.6466 33.8089 57.6466C34.1286 57.6466 34.6532 57.5327 34.6532 57.1219C34.6532 56.8479 34.3566 56.7568 34.1513 56.6884C33.946 56.62 33.7178 56.5061 33.7178 56.3917C33.7178 56.3233 33.7405 56.2779 33.7862 56.2322C33.8089 56.2549 33.8319 56.2549 33.8546 56.2549C34.2197 56.2549 34.5164 55.8898 34.5164 55.5473C34.5164 55.4789 34.4937 55.4335 34.4707 55.3651C34.6759 55.3878 34.6759 55.3651 34.699 55.3424C34.722 55.2507 34.722 55.2049 34.722 55.1595C34.722 55.1368 34.722 55.1368 34.699 55.1368C34.6532 55.1368 34.699 55.2507 34.4937 55.2507C34.448 55.2507 34.3796 55.228 34.3112 55.2049C34.2654 55.1822 34.197 55.1592 34.0829 55.1592C33.7411 55.1592 33.4444 55.5016 33.4444 55.8213ZM33.65 55.7759C33.65 55.5246 33.7641 55.228 34.0608 55.228C34.2434 55.228 34.3118 55.4108 34.3118 55.5704C34.3118 55.8443 34.1976 56.1641 33.901 56.1641C33.6957 56.1637 33.65 55.9582 33.65 55.7759ZM35.6124 55.3651C35.7722 55.2276 35.9775 55.1595 36.0002 55.1595H36.0229C36.137 55.3197 36.2054 56.0726 36.2054 56.4374C36.5475 55.8901 36.7304 55.5246 36.7761 55.2507C36.7988 55.2049 36.7988 55.2049 36.8218 55.2049C36.8675 55.2049 36.936 55.5016 36.9587 55.5473L37.1182 56.4371C37.3235 56.2322 37.5517 55.6612 37.5517 55.3878C37.5517 55.2276 37.4379 55.3194 37.4379 55.2503C37.4379 55.2046 37.4836 55.2046 37.529 55.2046H37.7343C37.6432 55.7526 37.3922 56.323 37.0271 56.7565C37.0271 56.7565 37.0044 56.8022 36.9814 56.8022C36.9587 56.8022 36.9587 56.7795 36.9587 56.7565C36.9587 56.5058 36.8445 55.8894 36.7761 55.6609C36.4794 56.1634 36.2054 56.6197 36.0913 56.7565C36.0913 56.7565 36.0686 56.8022 36.0456 56.8022C36.0226 56.8022 36.0229 56.7795 36.0229 56.7565C36.0229 56.323 35.9314 55.3421 35.8176 55.3421C35.7949 55.3421 35.7719 55.3648 35.6351 55.4332L35.6124 55.3651ZM37.9171 54.3836C38.1224 54.2698 38.328 54.2241 38.4421 54.2241C38.4648 54.2241 38.4648 54.2468 38.4648 54.2698C38.4648 54.4754 38.3507 55.297 38.2823 55.8217H38.305C38.3734 55.5931 38.6701 55.1595 38.9437 55.1595C39.1036 55.1595 39.172 55.3197 39.172 55.4792C39.172 55.6388 39.0582 56.3463 39.0582 56.4601C39.0582 56.5292 39.0809 56.5746 39.1039 56.5746C39.1269 56.5746 39.2634 56.5061 39.3549 56.4601L39.3776 56.5292C39.2407 56.6203 38.9668 56.7798 38.9214 56.7798C38.876 56.7798 38.8529 56.6887 38.8529 56.5976C38.8529 56.4374 38.9668 55.7989 38.9668 55.5477C38.9668 55.4565 38.9668 55.3427 38.8529 55.3427C38.6477 55.3427 38.3053 55.7305 38.2142 56.3236L38.1457 56.7344H37.9632C38.1 55.6388 38.2372 54.6806 38.2372 54.4757C38.2372 54.4072 38.2372 54.3839 38.1915 54.3839C38.1687 54.3839 38.0546 54.4072 37.9405 54.453L37.9171 54.3836ZM39.8111 55.9809C39.8111 55.7075 40.0164 55.2507 40.3361 55.2507C40.4275 55.2507 40.4729 55.3424 40.4729 55.4335C40.4729 55.4792 40.4502 55.5246 40.4502 55.5704C40.1305 55.7986 40.0164 55.8671 39.8111 55.9809ZM40.6324 56.3917C40.4956 56.5061 40.3131 56.6657 40.1305 56.6657C39.8795 56.6657 39.8111 56.3917 39.8111 56.1864V56.0953C40.0164 55.9579 40.5867 55.5927 40.7696 55.4332C40.7696 55.4105 40.7923 55.3875 40.7923 55.3421H40.7696C40.7469 55.3421 40.7469 55.3648 40.7012 55.4105L40.6328 55.4562V55.3651C40.6328 55.1822 40.5186 55.1595 40.4502 55.1595C39.994 55.1595 39.5832 55.6388 39.5832 56.2552C39.5832 56.5292 39.6973 56.8025 40.0397 56.8025C40.268 56.8025 40.5189 56.6203 40.6785 56.4374L40.6324 56.3917ZM41.3169 56.7341H41.1117C41.2488 55.8671 41.2942 55.4792 41.2942 55.3651C41.2942 55.3194 41.2942 55.2967 41.2485 55.2967C41.2028 55.2967 41.066 55.3878 41.0203 55.4105L40.9976 55.3421C41.1801 55.2046 41.4311 55.1592 41.4768 55.1592C41.4998 55.1592 41.5225 55.1592 41.5225 55.1819C41.5225 55.2964 41.4998 55.5927 41.4541 55.821C41.5682 55.5924 41.7962 55.1589 42.0929 55.1589C42.1386 55.1589 42.207 55.1816 42.207 55.25C42.207 55.3191 42.0929 55.3418 42.0472 55.3418C42.0014 55.3418 41.956 55.3418 41.9103 55.3191C41.8189 55.3191 41.4541 55.7526 41.3627 56.323L41.3169 56.7341ZM42.3669 55.9809C42.3669 55.7075 42.5721 55.2507 42.8688 55.2507C42.9829 55.2507 43.0287 55.3424 43.0287 55.4335C43.0287 55.4792 43.006 55.5246 43.006 55.5704C42.6859 55.7986 42.5491 55.8671 42.3669 55.9809ZM43.1882 56.3917C43.0511 56.5061 42.8685 56.6657 42.6859 56.6657C42.435 56.6657 42.3666 56.3917 42.3666 56.1864V56.0953C42.5718 55.9579 43.1425 55.5927 43.325 55.4332C43.325 55.4105 43.3481 55.3875 43.3481 55.3421H43.325C43.3023 55.3421 43.3023 55.3648 43.2566 55.4105L43.1882 55.4562V55.3651C43.1882 55.1822 43.0741 55.1595 42.9829 55.1595C42.5494 55.1595 42.1386 55.6388 42.1386 56.2552C42.1386 56.5292 42.2524 56.8025 42.5948 56.8025C42.8231 56.8025 43.0511 56.6203 43.2109 56.4374L43.1882 56.3917ZM43.4392 55.3651C43.6217 55.2276 43.827 55.1595 43.85 55.1595H43.8727C43.9641 55.3651 44.078 55.9809 44.1694 56.4601C44.3519 56.2322 44.6029 55.6848 44.6256 55.3881C44.6256 55.228 44.4888 55.3197 44.4888 55.2507C44.4888 55.2049 44.5345 55.2049 44.5802 55.2049H44.8085C44.7628 55.4562 44.6256 56.0263 44.101 56.7568C44.0783 56.7568 44.0553 56.8025 44.0326 56.8025C44.0099 56.8025 44.0099 56.7798 44.0099 56.7568C44.0099 56.6657 43.9414 56.141 43.8273 55.7075C43.8046 55.6385 43.7359 55.3424 43.6674 55.3424C43.6447 55.3424 43.6217 55.3651 43.4849 55.4108L43.4392 55.3651ZM45.2647 55.9809C45.2647 55.7075 45.4473 55.2507 45.7667 55.2507C45.8808 55.2507 45.9038 55.3424 45.9038 55.4335V55.5704C45.5841 55.7986 45.4473 55.8671 45.2647 55.9809ZM46.0864 56.3917C45.9492 56.5061 45.7667 56.6657 45.5844 56.6657C45.3104 56.6657 45.2423 56.3917 45.2423 56.1864V56.0953C45.4706 55.9579 46.041 55.5927 46.2235 55.4332V55.3421C46.2005 55.3421 46.2005 55.3648 46.1551 55.4105L46.0867 55.4562V55.3651C46.0867 55.1822 45.9725 55.1595 45.8814 55.1595C45.4252 55.1595 45.0371 55.6388 45.0371 56.2552C45.0371 56.5292 45.1512 56.8025 45.4933 56.8025C45.6986 56.8025 45.9495 56.6203 46.1094 56.4374L46.0864 56.3917ZM46.7479 56.7341H46.5653C46.6794 55.8671 46.7479 55.4792 46.7479 55.3651C46.7479 55.3194 46.7251 55.2967 46.7021 55.2967C46.6564 55.2967 46.5196 55.3878 46.4739 55.4105L46.4512 55.3421C46.6337 55.2046 46.862 55.1592 46.9304 55.1592C46.9531 55.1592 46.9531 55.1592 46.9531 55.1819C46.9531 55.2964 46.9304 55.5927 46.9074 55.821C47.0215 55.5924 47.2495 55.1589 47.5235 55.1589C47.5919 55.1589 47.6376 55.1816 47.6376 55.25C47.6376 55.3191 47.5462 55.3418 47.4778 55.3418C47.432 55.3418 47.3863 55.3418 47.3409 55.3191C47.2725 55.3191 46.9074 55.7526 46.816 56.323L46.7479 56.7341ZM47.1814 57.213C47.3185 57.1446 47.5238 56.9851 47.5238 56.8252C47.5238 56.8025 47.5011 56.7795 47.4781 56.7568H47.4324C47.3639 56.7568 47.2955 56.7111 47.2955 56.643C47.2955 56.5519 47.3639 56.5061 47.4324 56.5061C47.5919 56.5061 47.6606 56.62 47.6606 56.7568C47.6606 57.0081 47.4554 57.1903 47.2498 57.2815L47.1814 57.213ZM48.8474 55.3651C49.0069 55.2276 49.2125 55.1595 49.2352 55.1595H49.2579C49.3717 55.3197 49.4401 56.0726 49.4401 56.4374C49.7825 55.8901 49.9654 55.5246 50.0111 55.2507C50.0338 55.2049 50.0338 55.2049 50.0568 55.2049C50.1026 55.2049 50.1707 55.5016 50.1937 55.5473L50.3538 56.4371C50.5588 56.2322 50.7874 55.6612 50.7874 55.3878C50.7874 55.2276 50.6729 55.3194 50.6729 55.2503C50.6729 55.2046 50.719 55.2046 50.742 55.2046H50.9699C50.8788 55.7526 50.6275 56.323 50.2624 56.7565L50.2167 56.8022C50.194 56.8022 50.194 56.7795 50.194 56.7565C50.194 56.5058 50.0802 55.8894 50.0118 55.6609C49.7151 56.1634 49.4408 56.6197 49.3269 56.7565C49.3269 56.7565 49.3042 56.8022 49.2812 56.8022C49.2582 56.8022 49.2585 56.7795 49.2585 56.7565C49.2585 56.323 49.1674 55.3421 49.053 55.3421C49.0303 55.3421 49.0072 55.3648 48.8707 55.4332L48.8474 55.3651ZM51.1525 54.3836C51.3574 54.2698 51.5627 54.2241 51.6771 54.2241C51.6998 54.2241 51.6998 54.2468 51.6998 54.2698C51.6998 54.4754 51.586 55.297 51.517 55.8217H51.5397C51.6087 55.5931 51.9048 55.1595 52.1788 55.1595C52.3383 55.1595 52.4073 55.3197 52.4073 55.4792C52.4073 55.6388 52.2929 56.3463 52.2929 56.4601C52.2929 56.5292 52.3156 56.5746 52.3386 56.5746C52.3619 56.5746 52.4988 56.5061 52.5899 56.4601L52.6126 56.5292C52.4758 56.6203 52.2018 56.7798 52.1564 56.7798C52.111 56.7798 52.088 56.6887 52.088 56.5976C52.088 56.4374 52.2018 55.7989 52.2018 55.5477C52.2018 55.4565 52.2018 55.3427 52.0649 55.3427C51.8821 55.3427 51.5397 55.7305 51.4485 56.3236L51.3801 56.7344H51.1979C51.3347 55.6388 51.4712 54.6806 51.4712 54.4757C51.4712 54.4072 51.4712 54.3839 51.4255 54.3839C51.4028 54.3839 51.2887 54.4072 51.1749 54.453L51.1525 54.3836ZM53.0458 55.9809C53.0458 55.7075 53.2514 55.2507 53.5705 55.2507C53.6622 55.2507 53.7079 55.3424 53.7079 55.4335C53.7079 55.4792 53.6852 55.5246 53.6852 55.5704C53.3655 55.7986 53.2287 55.8671 53.0458 55.9809ZM53.8675 56.3917C53.7306 56.5061 53.5478 56.6657 53.3655 56.6657C53.1142 56.6657 53.0458 56.3917 53.0458 56.1864V56.0953C53.2514 55.9579 53.8217 55.5927 54.0046 55.4332C54.0046 55.4105 54.0273 55.3875 54.0273 55.3421H54.0046C53.9813 55.3421 53.9813 55.3648 53.9356 55.4105L53.8671 55.4562V55.3651C53.8671 55.1822 53.7533 55.1595 53.6849 55.1595C53.2287 55.1595 52.8179 55.6388 52.8179 56.2552C52.8179 56.5292 52.9317 56.8025 53.2741 56.8025C53.502 56.8025 53.7303 56.6203 53.8898 56.4374L53.8675 56.3917ZM54.4612 56.7341H54.2783C54.3921 55.8671 54.4612 55.4792 54.4612 55.3878C54.4612 55.3194 54.4385 55.2967 54.4151 55.2967C54.3694 55.2967 54.2329 55.3878 54.1872 55.4105L54.1645 55.3421C54.3467 55.2046 54.5753 55.1592 54.6437 55.1592C54.6664 55.1592 54.6664 55.1592 54.6664 55.1819C54.6664 55.2964 54.6437 55.5927 54.6207 55.821C54.7118 55.5924 54.9858 55.1589 55.2598 55.1589C55.442 55.1589 55.4877 55.3191 55.4877 55.4786C55.4877 55.6381 55.3739 56.3457 55.3739 56.4595C55.3739 56.5285 55.3966 56.5739 55.4196 56.5739C55.4654 56.5739 55.5792 56.5055 55.6709 56.4595L55.7167 56.5285C55.5565 56.6197 55.3058 56.7792 55.2371 56.7792C55.1914 56.7792 55.1687 56.6881 55.1687 56.597C55.1687 56.4368 55.3061 55.7983 55.3061 55.547C55.3061 55.4559 55.2834 55.3421 55.1687 55.3421C54.9864 55.3421 54.6213 55.7299 54.5302 56.323L54.4612 56.7341ZM56.1495 55.9809C56.1495 55.7075 56.3318 55.2507 56.6515 55.2507C56.7426 55.2507 56.7883 55.3424 56.7883 55.4335C56.7883 55.4792 56.7883 55.5246 56.7656 55.5704C56.4686 55.7986 56.3318 55.8671 56.1495 55.9809ZM56.9482 56.3917C56.8107 56.5061 56.6515 56.6657 56.4686 56.6657C56.1953 56.6657 56.1268 56.3917 56.1268 56.1864V56.0953C56.3548 55.9579 56.9021 55.5927 57.085 55.4332C57.1077 55.4105 57.1077 55.3875 57.1077 55.3421H57.085C57.0623 55.3421 57.0623 55.3648 57.0166 55.4105L56.9482 55.4562V55.3651C56.9482 55.1822 56.8337 55.1595 56.7653 55.1595C56.3091 55.1595 55.921 55.6388 55.921 56.2552C55.921 56.5292 56.0121 56.8025 56.3545 56.8025C56.5831 56.8025 56.8337 56.6203 56.9936 56.4374L56.9482 56.3917ZM57.2219 55.3651C57.382 55.2276 57.587 55.1595 57.6097 55.1595H57.6324C57.7468 55.3651 57.8379 55.9809 57.9291 56.4601C58.134 56.2322 58.3853 55.6848 58.3853 55.3881C58.3853 55.228 58.2715 55.3197 58.2715 55.2507C58.2715 55.2049 58.3172 55.2049 58.3626 55.2049H58.5681C58.5221 55.4562 58.3853 56.0263 57.8606 56.7568C57.8379 56.7568 57.8149 56.8025 57.8149 56.8025C57.7922 56.8025 57.7922 56.7798 57.7922 56.7568C57.7922 56.6657 57.7005 56.141 57.5867 55.7075C57.5639 55.6385 57.4955 55.3424 57.4271 55.3424C57.4044 55.3424 57.3814 55.3651 57.2442 55.4108L57.2219 55.3651ZM59.0247 55.9809C59.0474 55.7075 59.2296 55.2507 59.5493 55.2507C59.6405 55.2507 59.6862 55.3424 59.6862 55.4335C59.6862 55.4792 59.6635 55.5246 59.6635 55.5704C59.3438 55.7986 59.23 55.8671 59.0247 55.9809ZM59.8463 56.3917C59.7089 56.5061 59.5266 56.6657 59.3438 56.6657C59.0931 56.6657 59.0247 56.3917 59.0247 56.1864V56.0953C59.2296 55.9579 59.8006 55.5927 59.9829 55.4332C59.9829 55.4105 60.0056 55.3875 60.0056 55.3421H59.9829C59.9602 55.3421 59.9602 55.3648 59.9145 55.4105L59.846 55.4562V55.3651C59.846 55.1822 59.7316 55.1595 59.6632 55.1595C59.2069 55.1595 58.7961 55.6388 58.7961 56.2552C58.7961 56.5292 58.9099 56.8025 59.2523 56.8025C59.4809 56.8025 59.7316 56.6203 59.8914 56.4374L59.8463 56.3917ZM60.5305 56.7341H60.3256C60.4624 55.8671 60.5078 55.4792 60.5078 55.3651C60.5078 55.3194 60.5078 55.2967 60.4621 55.2967C60.4164 55.2967 60.2799 55.3878 60.2342 55.4105L60.2108 55.3421C60.3937 55.2046 60.645 55.1592 60.6904 55.1592C60.7131 55.1592 60.7361 55.1592 60.7361 55.1819C60.7361 55.2964 60.7134 55.5927 60.6677 55.821C60.7815 55.5924 61.0101 55.1589 61.3061 55.1589C61.3519 55.1589 61.42 55.1816 61.42 55.25C61.42 55.3191 61.3061 55.3418 61.2604 55.3418C61.2147 55.3418 61.1693 55.3418 61.1236 55.3191C61.0325 55.3191 60.6674 55.7526 60.5989 56.323L60.5305 56.7341ZM62.2653 55.3651C62.4475 55.2276 62.6531 55.1595 62.6761 55.1595H62.6988C62.7672 55.274 62.9268 55.9582 63.0633 56.5061C63.383 55.8898 63.4741 55.5473 63.4741 55.3878C63.4741 55.2276 63.3603 55.3194 63.3603 55.2503C63.3603 55.2046 63.406 55.2046 63.4514 55.2046H63.657C63.6112 55.7072 62.8126 57.5551 62.1735 57.5551C62.0597 57.5551 61.9686 57.5324 61.9686 57.4413C61.9686 57.3729 62.0143 57.3502 62.0824 57.3502C62.1505 57.3502 62.1962 57.3729 62.288 57.4413C62.5613 57.3502 62.7899 57.0078 62.9037 56.7565C62.9264 56.5743 62.584 55.3421 62.4702 55.3421C62.4475 55.3421 62.4245 55.3648 62.3107 55.4332L62.2653 55.3651ZM64.9802 55.7529C64.9802 56.0953 64.8434 56.7111 64.4329 56.7111C64.1816 56.7111 64.1132 56.4144 64.1132 56.1864C64.1132 55.844 64.25 55.2503 64.6836 55.2503C64.9345 55.2507 64.9802 55.5246 64.9802 55.7529ZM64.3645 56.8022C64.798 56.8022 65.2088 56.3003 65.2088 55.6845C65.2088 55.4105 65.0944 55.1592 64.7526 55.1592C64.2957 55.1592 63.9083 55.6385 63.9083 56.2549C63.9083 56.5289 64.0221 56.8022 64.3645 56.8022ZM66.9429 56.5516C66.8061 56.6427 66.5321 56.8022 66.4637 56.8022C66.418 56.8022 66.3953 56.7111 66.3953 56.62C66.3953 56.5288 66.418 56.2549 66.418 56.0726V56.0499C66.3035 56.3233 66.0756 56.8025 65.7559 56.8025C65.5736 56.8025 65.5279 56.6203 65.5279 56.4601C65.5279 56.2779 65.6417 55.4562 65.6417 55.3881C65.6417 55.32 65.6417 55.297 65.619 55.297C65.5506 55.297 65.4362 55.3881 65.3904 55.4108L65.3447 55.3424C65.5276 55.2049 65.7783 55.1595 65.824 55.1595C65.8467 55.1595 65.8697 55.1595 65.8697 55.1822C65.8697 55.3651 65.7328 56.2095 65.7328 56.4144C65.7328 56.4834 65.7556 56.62 65.8467 56.62C66.0753 56.62 66.3946 56.0953 66.4631 55.6612L66.5315 55.2049H66.7137C66.5999 55.9352 66.5999 56.2549 66.5999 56.4834C66.5999 56.5519 66.6226 56.5973 66.6456 56.5973C66.6913 56.5973 66.8058 56.5289 66.9196 56.4834L66.9429 56.5516ZM67.9922 54.3836C68.1978 54.2698 68.4031 54.2241 68.5175 54.2241C68.5402 54.2241 68.5402 54.2468 68.5402 54.2698C68.5402 54.3836 68.4945 54.8408 68.4027 55.297C68.3343 55.7762 68.2659 56.2779 68.2659 56.5065C68.2659 56.5522 68.2886 56.5976 68.3343 56.5976C68.357 56.5976 68.4945 56.5292 68.5856 56.4838L68.6083 56.5522C68.4715 56.666 68.1975 56.8028 68.1291 56.8028C68.0834 56.8028 68.0607 56.7117 68.0607 56.6206C68.0607 56.1871 68.3113 54.6809 68.3113 54.4757C68.3113 54.4072 68.3113 54.3839 68.2656 54.3839C68.2429 54.3839 68.1288 54.4072 68.0149 54.453L67.9922 54.3836ZM68.7909 55.3424C68.9737 55.2049 69.2017 55.1595 69.2704 55.1595C69.2931 55.1595 69.2931 55.1595 69.2931 55.1822C69.2931 55.2507 69.1557 56.1868 69.1557 56.5061C69.1557 56.5519 69.1784 56.62 69.2014 56.62C69.2474 56.62 69.3615 56.5289 69.4527 56.4831L69.4984 56.5516C69.3388 56.6654 69.0876 56.8022 69.0191 56.8022C68.9734 56.8022 68.9507 56.7111 68.9507 56.62C68.9507 56.4144 69.0876 55.6154 69.0876 55.3878C69.0876 55.3194 69.0649 55.2967 69.0418 55.2967C68.9961 55.2967 68.8596 55.3878 68.8139 55.4105L68.7909 55.3424ZM69.0876 54.7257C69.0876 54.6346 69.1787 54.5435 69.2477 54.5435C69.3161 54.5435 69.3388 54.5892 69.3388 54.6573C69.3388 54.7254 69.2704 54.8401 69.1787 54.8401C69.1106 54.8405 69.0876 54.7941 69.0876 54.7257ZM69.9319 56.7341H69.727C69.8865 55.6385 70.023 54.6803 70.023 54.4754C70.023 54.4069 70.023 54.3836 69.9546 54.3836C69.8754 54.3943 69.7985 54.4176 69.7267 54.4527L69.704 54.3836C69.8862 54.2698 70.0918 54.2241 70.2059 54.2241C70.2286 54.2241 70.2516 54.2468 70.2516 54.2698L70.2059 54.5895L70.0457 55.8217C70.1602 55.525 70.4335 55.1595 70.7532 55.1595C70.9361 55.1595 71.0045 55.274 71.0045 55.4335C71.0045 55.7302 70.7759 55.9355 70.5253 56.0266C70.6621 56.3463 70.7759 56.5519 70.8444 56.5519C70.8904 56.5519 71.0045 56.4601 71.0499 56.4374L71.0957 56.4834C70.9818 56.5973 70.7532 56.7795 70.7078 56.7795C70.6624 56.7795 70.5256 56.5516 70.32 56.0263C70.594 55.9806 70.7993 55.7756 70.7993 55.5016C70.7993 55.3878 70.7536 55.2967 70.6397 55.2967C70.4802 55.2967 70.0924 55.6385 69.9776 56.3233L69.9319 56.7341ZM71.5292 55.9809C71.5292 55.7075 71.7114 55.2507 72.0311 55.2507C72.1229 55.2507 72.1686 55.3424 72.1686 55.4335C72.1686 55.4792 72.1686 55.5246 72.1459 55.5704C71.8489 55.7986 71.7117 55.8671 71.5292 55.9809ZM72.3281 56.3917C72.1913 56.5061 72.0314 56.6657 71.8489 56.6657C71.5749 56.6657 71.5065 56.3917 71.5065 56.1864V56.0953C71.7351 55.9579 72.2824 55.5927 72.4647 55.4332C72.4874 55.4105 72.4874 55.3875 72.4874 55.3421H72.4647C72.442 55.3421 72.442 55.3648 72.3962 55.4105L72.3278 55.4562V55.3651C72.3278 55.1822 72.214 55.1595 72.1456 55.1595C71.6887 55.1595 71.3006 55.6388 71.3006 56.2552C71.3006 56.5292 71.3923 56.8025 71.7348 56.8025C71.9627 56.8025 72.214 56.6203 72.3732 56.4374L72.3281 56.3917ZM61.1242 51.3489C61.0558 51.3946 60.9641 51.4627 60.668 51.4627C60.2572 51.4627 59.8467 51.121 59.8467 50.5273C59.8467 50.0026 60.1427 49.5691 60.691 49.5691C60.7594 49.5691 60.9417 49.5918 61.1472 49.6829V50.1391H61.0788C61.0331 49.8879 60.9414 49.7283 60.691 49.7283C60.3943 49.7283 60.0746 50.025 60.0973 50.5497C60.12 51.0743 60.417 51.2799 60.6683 51.2799C60.9417 51.3026 61.0561 51.097 61.1476 50.8921L61.1933 50.9148L61.1242 51.3489ZM63.4284 50.55C63.4284 50.9378 63.1777 51.2802 62.858 51.2802C62.4702 51.2802 62.265 50.8467 62.265 50.55C62.265 50.1391 62.4699 49.7286 62.858 49.7286C63.2461 49.7513 63.4284 50.1622 63.4284 50.55ZM63.657 50.55C63.657 49.9342 63.2692 49.5691 62.8583 49.5691C62.4475 49.5691 62.014 49.8652 62.014 50.5273C62.014 51.1437 62.4475 51.4627 62.8353 51.4627C63.2688 51.4627 63.657 51.0746 63.657 50.55ZM65.7335 51.44H64.4556V51.3716C64.6836 51.2348 64.6836 51.2805 64.6836 51.2348V49.7967C64.6836 49.751 64.6836 49.774 64.4556 49.6599V49.5915H65.1631V49.6599C64.9345 49.7737 64.9345 49.7737 64.9345 49.7967V51.1664C64.9345 51.2121 64.9802 51.2575 65.0484 51.2575H65.4592C65.5966 51.2575 65.6647 51.2575 65.7789 51.0519H65.8246L65.7335 51.44ZM67.8781 50.55C67.8781 50.9378 67.6274 51.2802 67.3077 51.2802C66.9199 51.2802 66.7367 50.8467 66.7367 50.55C66.7367 50.1391 66.9196 49.7286 67.3077 49.7286C67.6959 49.7513 67.8781 50.1622 67.8781 50.55ZM68.1294 50.55C68.1294 49.9342 67.7416 49.5691 67.3307 49.5691C66.8972 49.5691 66.4864 49.8652 66.4864 50.5273C66.4864 51.1437 66.8972 51.4627 67.3077 51.4627C67.7182 51.4627 68.1294 51.0746 68.1294 50.55ZM69.8408 50.071C69.8635 50.1849 69.8181 50.3677 69.704 50.4361C69.704 50.4361 69.5665 50.5046 69.4754 50.4819C69.4527 50.4819 69.4296 50.4819 69.4296 50.4361V49.8424C69.4296 49.774 69.5435 49.774 69.6119 49.774C69.7497 49.797 69.8408 49.9115 69.8408 50.071ZM70.3881 51.4627V51.44C70.3424 51.44 70.2743 51.3716 70.2286 51.3032C70.2059 51.3032 69.9089 50.9381 69.7267 50.6641C69.704 50.6184 69.704 50.6184 69.7494 50.5957C69.8862 50.573 70.0918 50.4134 70.0918 50.0483C70.0918 49.797 69.8632 49.5921 69.704 49.5921H68.9507V49.6605C69.1787 49.7516 69.2014 49.7289 69.2014 49.8201V51.2351C69.2014 51.3035 69.2014 51.2578 68.9507 51.3719V51.4403H69.704V51.3719C69.43 51.2808 69.43 51.3035 69.43 51.2351V50.7105C69.43 50.6187 69.4984 50.6871 69.5211 50.7105C69.5668 50.7789 69.9773 51.44 70.1375 51.4631C70.2059 51.4627 70.32 51.4854 70.3881 51.4627ZM72.0311 50.5957H71.666L71.8489 49.9799C71.9173 50.2306 71.9627 50.4134 72.0311 50.5957ZM72.7159 51.44V51.3716C72.5104 51.3032 72.5104 51.3259 72.4647 51.2348C72.4647 51.2348 72.2367 50.5273 71.9627 49.5918H71.8259C71.6613 50.1403 71.4939 50.6879 71.3239 51.2348C71.3006 51.3259 71.3006 51.3032 71.0953 51.3716V51.44H71.62V51.3716C71.4377 51.3032 71.4377 51.3032 71.4604 51.2578C71.4604 51.2578 71.62 50.7786 71.62 50.7559H72.0762C72.0995 50.8697 72.2364 51.2805 72.2364 51.2805C72.2591 51.3262 72.2591 51.3032 72.0762 51.3716V51.44H72.7159ZM74.9063 50.55C74.9063 51.0519 74.5185 51.2802 74.2678 51.2802C74.1767 51.2802 73.9938 51.2802 73.9938 51.1664V49.8652C73.9938 49.7513 74.0622 49.7513 74.2451 49.7513C74.6556 49.7513 74.9063 50.1395 74.9063 50.55ZM75.1576 50.5046C75.1576 49.8425 74.6329 49.5918 74.45 49.5918H73.4919L73.5146 49.6602C73.7425 49.7286 73.7425 49.7059 73.7425 49.797V51.2351C73.7425 51.3262 73.7198 51.3035 73.4919 51.3719V51.4403H74.3816C74.7013 51.44 75.1576 51.0746 75.1576 50.5046ZM77.3709 50.55C77.3709 50.9378 77.1203 51.2802 76.8006 51.2802C76.4127 51.2802 76.2069 50.8467 76.2069 50.55C76.2069 50.1391 76.4124 49.7286 76.8006 49.7286C77.1887 49.7513 77.3709 50.1622 77.3709 50.55ZM77.6222 50.55C77.6222 49.9342 77.2344 49.5691 76.8236 49.5691C76.39 49.5691 75.9792 49.8652 75.9792 50.5273C75.9792 51.1437 76.39 51.4627 76.7778 51.4627C77.2114 51.4627 77.6222 51.0746 77.6222 50.55Z" fill="#1C4882"/>
<path fill-rule="evenodd" clip-rule="evenodd" d="M26.8271 44.2295C26.8271 44.2295 24.1572 50.9383 24.0887 51.0748H22.9934C23.0161 50.687 20.4604 44.2065 20.4604 44.2065C20.3919 43.9555 20.4604 43.9555 19.2512 43.522V43.3848H23.0391V43.5447C21.807 43.9555 21.6928 44.0012 21.7843 44.2522C21.7843 44.2522 23.5184 48.8845 23.6555 49.2953C23.7467 49.6377 23.7697 49.615 23.9292 49.2953C24.1802 48.7479 25.983 44.2068 25.983 44.2068C26.0745 43.9785 25.983 43.9558 24.7739 43.545V43.3851H28.0599V43.545C26.8271 43.9555 26.9412 43.9785 26.8271 44.2295ZM32.1211 48.7022H28.2418V48.6105C29.0631 48.3825 29.0631 48.3825 29.0631 48.0858V44.0469C29.0631 43.8417 28.2418 43.545 28.2418 43.545V43.4081C28.2418 43.4081 30.638 43.545 32.0297 43.3851V44.7544H31.9383C31.6646 43.9558 31.6646 43.9558 31.2538 43.9558H29.9759V45.7356H31.2307C31.3903 45.7356 31.3903 45.7356 31.6186 45.3251H31.71V46.9221H31.6186C31.3903 46.2149 31.3903 46.2149 31.2307 46.2149H29.9759V47.9493C29.9759 48.269 30.2496 48.2 30.341 48.2H31.71C31.9383 48.2 31.9383 48.2 32.2119 47.424H32.3261V48.5651C32.3264 48.7022 32.2123 48.7022 32.1211 48.7022ZM37.1869 48.4282C36.9587 48.542 36.5481 48.7706 35.5212 48.7706C34.0378 48.7706 32.6004 47.8118 32.6004 46.1234C32.6004 44.6176 33.6046 43.3851 35.6127 43.3624C35.8636 43.3624 36.5254 43.4539 37.2557 43.6821L37.233 45.0284H37.0958C36.9363 44.2755 36.5254 43.842 35.59 43.842C34.5174 43.842 33.445 44.6863 33.4908 46.1468C33.5365 47.6529 34.6545 48.2693 35.5673 48.2693C36.5485 48.292 37.005 47.6983 37.3471 47.1737L37.4385 47.1964L37.1869 48.4282ZM42.1156 44.8225C41.8416 43.9555 41.8416 43.9785 41.6821 43.9785H40.4956V48.0858C40.4956 48.2227 40.5183 48.2227 41.34 48.5878V48.7022H38.7612V48.6105C39.6055 48.2227 39.6055 48.2227 39.6055 48.0858V43.9555H38.4421C38.2596 43.9555 38.2596 43.9555 37.9629 44.8225H37.8487V43.271C38.1908 43.4536 38.2138 43.4535 38.4421 43.4535H41.6824C41.8419 43.4535 41.8649 43.4763 42.2527 43.271V44.8225H42.1156ZM45.9492 44.7771C45.9719 45.1192 45.8351 45.6442 45.4016 45.8498C45.4016 45.8498 44.9453 46.0323 44.6256 45.9866C44.5115 45.9636 44.4888 45.9636 44.4888 45.8271V44.1611C44.4888 43.9785 44.8766 43.9328 45.1276 43.9558C45.6071 43.9785 45.9038 44.3663 45.9492 44.7771ZM47.9116 48.7022V48.6105C47.729 48.6105 47.5011 48.4055 47.3185 48.2687C47.2501 48.1996 46.1548 47.2872 45.493 46.4886C45.4016 46.3744 45.4246 46.3514 45.5614 46.306C46.1091 46.2376 46.8393 45.781 46.8393 44.7544C46.8393 44.0469 45.9722 43.4539 45.4246 43.4539H42.7774V43.568C43.5987 43.819 43.5987 43.819 43.5987 44.0699V48.1088C43.5987 48.3144 43.5987 48.3144 42.7774 48.6108V48.7252H45.4246V48.6108C44.4888 48.3374 44.4888 48.3147 44.4888 48.1088V46.6484C44.4888 46.3517 44.694 46.58 44.7628 46.6484C44.9226 46.8079 46.4288 48.6335 47.0218 48.7025C47.2044 48.7249 47.9116 48.7022 47.9116 48.7022Z" fill="#1C4882" stroke="#1C4882" stroke-width="0.253495" stroke-miterlimit="2.613"/>
<path fill-rule="evenodd" clip-rule="evenodd" d="M51.0377 46.2603H49.7829L50.445 44.5489C50.6726 45.2565 50.8328 45.7811 51.0377 46.2603ZM53.4794 48.7023V48.5878C52.7719 48.3599 52.7719 48.3599 52.658 48.1086C52.658 48.1086 51.8137 46.1005 50.8555 43.4536H50.3763C49.7774 45.0121 49.1612 46.5639 48.5277 48.1086C48.4363 48.3599 48.4136 48.3599 47.7061 48.5878V48.7023H49.623V48.6105C48.9382 48.3826 48.9382 48.3372 49.0066 48.1997C49.0066 48.154 49.5776 46.8077 49.5776 46.7623H51.1979C51.3575 47.1047 51.8364 48.2224 51.8364 48.2224C51.9048 48.3599 51.9048 48.3599 51.1979 48.5875V48.7023H53.4794Z" fill="#1C4882" stroke="#1C4882" stroke-width="0.253495" stroke-miterlimit="2.613"/>
<path fill-rule="evenodd" clip-rule="evenodd" d="M57.9294 45.188C57.9294 45.6672 57.7245 46.1465 57.0623 46.4659C57.0623 46.4659 56.3548 46.7168 55.8756 46.6484C55.716 46.6484 55.6933 46.6484 55.6933 46.4201V44.3206C55.6933 44.0469 56.2637 44.0012 56.6515 44.0242C57.359 44.0696 57.9294 44.5489 57.9294 45.188ZM59.6635 48.9529C59.6635 47.9036 58.8422 47.0592 57.7699 46.8537C58.6369 46.7395 59.1843 45.8041 59.1843 45.0511C59.1843 43.9558 57.9294 43.271 57.085 43.271H53.0916V43.6818C54.3464 44.0696 54.3464 43.8187 54.3464 44.2068V50.2535C54.3464 50.5732 54.3464 50.3219 53.0916 50.756V51.1896H57.1077C58.4083 51.1896 59.6635 50.6643 59.6635 48.9529ZM58.3172 49.0213C58.3399 49.9117 57.8153 50.1623 57.4044 50.3219C56.8798 50.5047 56.2177 50.4593 55.9894 50.4136C55.8526 50.3679 55.6933 50.3909 55.6933 50.1169V47.6069C55.6933 47.2191 56.7199 47.3556 57.0166 47.4474C57.8153 47.7207 58.3172 48.1312 58.3172 49.0213Z" fill="#76787A" stroke="white" stroke-width="0.128009" stroke-miterlimit="2.613"/>
<path fill-rule="evenodd" clip-rule="evenodd" d="M71.0275 44.0241V48.7932H70.5256L66.6459 44.9139C66.6002 44.8224 66.5775 44.8454 66.5775 44.8912V48.1768C66.5775 48.4281 66.5775 48.2913 67.3988 48.5419V48.7932H65.2312V48.5419C66.0756 48.2913 66.0756 48.4281 66.0756 48.1768V43.385H66.5091L70.4565 47.3555C70.5026 47.4015 70.5256 47.3555 70.5256 47.3555V44.0011C70.5256 43.7728 70.5256 43.887 69.6812 43.6133V43.385H71.8489V43.636C71.0275 43.887 71.0275 43.7731 71.0275 44.0241ZM76.0019 48.4965C75.2033 47.8117 74.9747 47.3328 73.9481 46.2605C73.9024 46.2375 73.8343 46.2148 73.8343 46.2832V48.1541C73.8343 48.4281 73.857 48.2916 74.6786 48.5419V48.7932H72.1002V48.5419C72.9212 48.314 72.9439 48.4281 72.9439 48.1541V44.0011C72.9439 43.7501 72.9439 43.8639 72.1002 43.6133V43.385H74.7013L74.6786 43.6133C73.8343 43.887 73.8343 43.7501 73.8343 44.0011V45.7582C73.8343 45.7809 73.88 45.8039 73.9254 45.7582L75.7733 43.8643C75.9335 43.7047 75.9335 43.8185 75.4088 43.6133V43.385H77.4163V43.6133C76.6867 43.8185 76.6867 43.7047 76.3897 44.0011L74.6556 45.7582C75.7276 46.671 76.7094 48.4281 77.987 48.7705V48.8843C77.7817 48.9528 76.7778 49.1129 76.0019 48.4965Z" fill="#76787A"/>
<path fill-rule="evenodd" clip-rule="evenodd" d="M19 38V41.9932H22.6968L24.2941 38H19ZM77.4394 38H28.3333L26.713 41.9932H77.4394V38Z" fill="#C23C40"/>
<path fill-rule="evenodd" clip-rule="evenodd" d="M62.7899 46.2832H61.512L62.1962 44.503C62.4244 45.2106 62.584 45.7582 62.7899 46.2832ZM65.2315 48.7932V48.5419C64.5013 48.314 64.5013 48.4281 64.3871 48.1541C64.3871 48.1541 63.5658 46.1006 62.607 43.385H62.1051C61.1469 46.0092 60.2798 48.1768 60.2798 48.1768C60.1654 48.4281 60.1654 48.2913 59.4585 48.5419V48.7932H61.3521V48.5646C60.6907 48.314 60.6907 48.4051 60.7364 48.2686C60.7591 48.2225 61.3294 46.8078 61.3294 46.7851H62.9497C63.0872 47.1275 63.5888 48.2686 63.5888 48.2686C63.6572 48.4281 63.6572 48.3143 62.9497 48.5419V48.7932H65.2315Z" fill="#76787A"/>
</svg>
