<svg width="96" height="96" viewBox="0 0 96 96" fill="none" xmlns="http://www.w3.org/2000/svg">
<circle cx="48" cy="48" r="47" fill="white" stroke="white" stroke-width="2"/>
<path d="M58.2826 47.1784C58.1175 46.9834 57.9158 46.8228 57.6888 46.7046C57.3942 46.5509 57.0216 46.4729 56.5779 46.4729C56.0941 46.4729 55.647 46.5624 55.2481 46.7402C54.856 46.9134 54.5041 47.1669 54.2163 47.4846C53.9309 47.8012 53.705 48.1843 53.5457 48.6248C53.3863 49.0653 53.3049 49.554 53.3049 50.0793C53.3049 50.5955 53.384 51.0784 53.5388 51.5132C53.6936 51.9479 53.9183 52.331 54.2037 52.6476C54.4915 52.9654 54.8434 53.2189 55.2355 53.3921C55.6344 53.5699 56.0815 53.6593 56.5653 53.6593C57.0078 53.6593 57.3838 53.5836 57.6808 53.4345C57.9112 53.321 58.1152 53.1615 58.2815 52.9665V53.5446H60.6167V46.6002H58.2826V47.1784ZM58.2826 49.9038V50.2296C58.2585 50.5485 58.1267 50.8203 57.8905 51.036C57.6544 51.2516 57.354 51.3629 56.9998 51.3629C56.6043 51.3629 56.2867 51.239 56.0552 50.9947C55.8236 50.7504 55.7044 50.4464 55.7044 50.0919C55.7044 49.7203 55.8224 49.406 56.0552 49.1571C56.2879 48.9081 56.6043 48.7831 56.9998 48.7831C57.354 48.7831 57.6521 48.8909 57.8837 49.1032C58.1152 49.3154 58.2494 49.5849 58.2826 49.9038Z" fill="#1C1C20"/>
<path d="M67.2303 47.191C67.0171 46.9651 66.7591 46.7861 66.4737 46.6645C66.1813 46.5384 65.8477 46.4741 65.4832 46.4741C65.0315 46.4741 64.6257 46.567 64.2772 46.7506C63.9871 46.9031 63.7269 47.1085 63.5114 47.3562V46.6014H61.1761V53.547H63.5102V50.1081C63.5263 49.7421 63.6352 49.429 63.8335 49.1778C64.0295 48.9289 64.2932 48.8084 64.6406 48.8084C64.9111 48.8084 65.1267 48.9013 65.2963 49.0918C65.466 49.2822 65.5531 49.5414 65.5531 49.8626V53.5459H67.8872V49.0321C67.8872 48.6605 67.8299 48.3129 67.7175 47.9997C67.6052 47.6866 67.4412 47.4136 67.2303 47.191Z" fill="#1C1C20"/>
<path d="M73.1331 50.0518L75.1634 46.6002H72.3593L70.9939 48.9368H70.7853V44.2131H68.4501V53.5458H70.7853V51.1449H71.0341L72.5141 53.5458H75.4649L73.1331 50.0518Z" fill="#1C1C20"/>
<path d="M25.813 41.5383C25.7488 41.5383 25.6961 41.591 25.6961 41.6553V48.9702C25.6961 49.4565 25.5929 49.8202 25.39 50.0507C25.1905 50.2778 24.9223 50.3891 24.5715 50.3891C24.2562 50.3891 23.9822 50.3088 23.7335 50.1425C23.4709 49.967 23.2004 49.7146 22.9298 49.3923L22.884 49.3372C22.8427 49.2879 22.7693 49.281 22.72 49.3223C22.7178 49.3235 22.7166 49.3258 22.7155 49.3269L20.5763 51.3481C20.5339 51.3882 20.5281 51.4536 20.5614 51.5006L20.5958 51.5488C20.8044 51.8379 21.044 52.1028 21.3088 52.3391C21.5885 52.5881 21.8969 52.8026 22.2282 52.9781C22.5664 53.1582 22.9505 53.3015 23.3678 53.4036C23.7851 53.5057 24.2551 53.5562 24.7687 53.5562C25.4405 53.5562 26.0595 53.453 26.6075 53.2499C27.1589 53.0446 27.6404 52.7383 28.0394 52.3403C28.4383 51.9423 28.7387 51.4616 28.9336 50.9133C29.125 50.3719 29.2224 49.7238 29.2224 48.9862V41.6541C29.2224 41.5899 29.1697 41.5371 29.1055 41.5371H25.813V41.5383Z" fill="#1C1C20"/>
<path d="M41.5899 49.4244C41.6518 49.4428 41.6873 49.5082 41.669 49.5701C41.669 49.5724 41.6678 49.5736 41.6667 49.5759C41.6277 49.6883 41.5853 49.7995 41.5383 49.9085C41.2299 50.6415 40.8057 51.2804 40.2658 51.8264C39.7258 52.3724 39.0838 52.7991 38.341 53.1089C37.5969 53.4174 36.7841 53.5711 35.9037 53.5711C35.8762 53.5711 35.8498 53.5688 35.8223 53.5688C35.7971 53.5688 35.773 53.5711 35.7466 53.5711C34.9201 53.5711 34.144 53.422 33.416 53.1249C32.688 52.8278 32.0587 52.4114 31.5244 51.8769C30.9902 51.3424 30.566 50.7092 30.2519 49.975C29.9378 49.2409 29.7808 48.4448 29.7808 47.5857V47.5524C29.7808 46.715 29.9355 45.9293 30.2428 45.1963C30.55 44.4633 30.9753 43.8233 31.5153 43.2784C32.0552 42.7324 32.6961 42.3057 33.4401 41.9971C34.1841 41.6885 34.9969 41.5337 35.8773 41.5337C35.9049 41.5337 35.9312 41.536 35.9587 41.536C35.984 41.536 36.0092 41.5337 36.0344 41.5337C36.861 41.5337 37.6382 41.6828 38.365 41.9799C39.0919 42.277 39.7224 42.6945 40.2577 43.2291C40.792 43.7636 41.2161 44.3968 41.5303 45.1309C41.5773 45.2399 41.6197 45.3512 41.6598 45.4624C41.6816 45.5232 41.6506 45.5898 41.5899 45.6127C41.5876 45.6138 41.5853 45.6138 41.583 45.615L38.2011 46.6118C38.1461 46.6279 38.0887 46.6026 38.0635 46.551C37.6611 45.7102 36.7956 45.1929 35.8659 45.2342C34.6759 45.2869 33.7095 46.2528 33.6545 47.4434C33.5937 48.7752 34.6541 49.8741 35.9713 49.8741C36.8873 49.8741 37.7173 49.335 38.091 48.4976C38.1151 48.4448 38.1747 48.4173 38.2298 48.4334L41.5899 49.4244Z" fill="#1C1C20"/>
<path d="M52.3455 48.1662C51.9912 47.7945 51.5338 47.4917 50.9801 47.26C51.3492 47.05 51.676 46.7724 51.9431 46.4432C52.3053 45.9959 52.4888 45.404 52.4888 44.6871V44.6538C52.4888 44.2317 52.4165 43.8485 52.2744 43.5159C52.1357 43.1901 51.9373 42.893 51.6874 42.6418C51.3252 42.2793 50.8655 42.0006 50.3209 41.8148C49.7832 41.6312 49.1309 41.5383 48.3835 41.5383H42.35C42.2858 41.5383 42.233 41.5899 42.233 41.6553V53.4496C42.233 53.5138 42.2846 53.5666 42.35 53.5666H48.4271C49.8589 53.5666 50.9904 53.2684 51.7906 52.6811C52.608 52.0811 53.023 51.2346 53.023 50.1678V50.1345C53.0218 49.3006 52.7948 48.6376 52.3455 48.1662ZM48.9418 45.3535C48.9418 45.6334 48.8421 45.833 48.6357 45.9638C48.4064 46.1106 48.0556 46.1851 47.5936 46.1851H45.8637C45.7995 46.1851 45.7468 46.1324 45.7468 46.0681V44.6217C45.7468 44.5574 45.7995 44.5047 45.8637 44.5047H47.6601C48.1072 44.5047 48.4408 44.5804 48.6529 44.7295C48.8466 44.8672 48.9406 45.0599 48.9406 45.3202V45.3535H48.9418ZM49.4244 49.6837V49.717C49.4244 49.9992 49.3201 50.2079 49.1046 50.3559C48.8707 50.5165 48.5199 50.598 48.0602 50.598H45.8637C45.7995 50.598 45.7468 50.5452 45.7468 50.481V48.9358C45.7468 48.8716 45.7995 48.8188 45.8637 48.8188H48.027C48.5279 48.8188 48.8948 48.9014 49.116 49.0655C49.3235 49.2203 49.4244 49.4222 49.4244 49.6837Z" fill="#1C1C20"/>
</svg>
