<svg width="96" height="96" viewBox="0 0 96 96" fill="none" xmlns="http://www.w3.org/2000/svg">
<circle cx="48" cy="48" r="47" fill="white" stroke="white" stroke-width="2"/>
<circle cx="48" cy="48" r="29" fill="#004FC2"/>
<mask id="mask0_1_332" style="mask-type:alpha" maskUnits="userSpaceOnUse" x="42" y="32" width="21" height="10">
<path d="M42.5273 32.9211H62.8234V41.7781H42.5273V32.9211Z" fill="white"/>
</mask>
<g mask="url(#mask0_1_332)">
<path fill-rule="evenodd" clip-rule="evenodd" d="M62.8234 41.7616H61.9812C55.8508 41.7616 49.7202 41.748 43.59 41.7781C42.786 41.7822 42.5067 41.5717 42.5285 40.7389C42.5833 38.6497 42.5438 36.5582 42.5478 34.4677C42.5499 33.2942 42.8934 32.931 44.0389 32.9281C47.0052 32.9204 49.9716 32.913 52.9377 32.9416C53.2987 32.9452 53.7497 33.0702 54.0024 33.3063C56.8724 35.9856 59.7128 38.697 62.5586 41.4022C62.6329 41.4731 62.6834 41.5694 62.8234 41.7616Z" fill="white"/>
</g>
<path fill-rule="evenodd" clip-rule="evenodd" d="M55.4047 63.8518C55.3872 63.4971 55.3653 63.2552 55.3653 63.0135C55.3632 56.9353 55.3781 50.8574 55.3467 44.7797C55.3422 43.9584 55.5892 43.7261 56.3779 43.7463C58.3857 43.7975 60.3959 43.7606 62.405 43.7646C63.5677 43.7667 63.843 44.0283 63.8457 45.1741C63.8529 48.1709 63.8645 51.1682 63.8284 54.1646C63.8236 54.5706 63.66 55.0712 63.394 55.3616C60.8986 58.0863 58.3654 60.7753 55.8407 63.4721C55.7351 63.5853 55.6069 63.6771 55.4047 63.8518Z" fill="white"/>
<path fill-rule="evenodd" clip-rule="evenodd" d="M32.9199 56.1184H33.8482C39.8699 56.1184 45.892 56.1176 51.9136 56.119C53.0225 56.1192 53.0238 56.1232 53.0244 57.2238C53.0255 59.2081 53.0297 61.1921 53.0223 63.1762C53.0183 64.2599 52.6568 64.6174 51.5589 64.6195C48.5481 64.6253 45.5368 64.6319 42.5262 64.6068C42.1937 64.6042 41.7773 64.4881 41.5443 64.274C38.7536 61.7098 35.9899 59.1179 33.2218 56.5305C33.1453 56.4594 33.0957 56.3611 32.9199 56.1184Z" fill="white"/>
<path fill-rule="evenodd" clip-rule="evenodd" d="M40.5886 33.6924C40.6083 34.0738 40.6339 34.3424 40.6341 34.611C40.6364 40.6404 40.6202 46.67 40.6531 52.6991C40.6578 53.5522 40.4234 53.8217 39.5812 53.7976C37.5449 53.7386 35.5057 53.7845 33.4677 53.7745C32.4489 53.7697 32.1543 53.4597 32.1523 52.399C32.1465 49.3842 32.1384 46.3694 32.1657 43.3551C32.1688 42.9965 32.2878 42.5472 32.5166 42.2965C35.0558 39.5187 37.6265 36.7714 40.191 34.018C40.279 33.9236 40.391 33.8528 40.5886 33.6924Z" fill="white"/>
</svg>
